<?xml version="1.0" encoding="UTF-8"?>
<svg width="110px" height="71px" viewBox="0 0 110 71" version="1.1" xmlns="http://www.w3.org/2000/svg" xmlns:xlink="http://www.w3.org/1999/xlink">
    <title>3_Creative and Design</title>
    <g id="Page-1" stroke="none" stroke-width="1" fill="none" fill-rule="evenodd">
        <g id="3_Creative-and-Design" fill="#0A4CA4" fill-rule="nonzero">
            <path d="M41.6777625,61.4951906 C42.0967938,63.9744187 44.2618516,65.8777453 46.8983797,65.8777453 L63.1015,65.8777453 C65.7205484,65.8777453 67.8857094,63.9744187 68.3047406,61.4951906 L110,61.4951906 C110,66.7296781 105.733048,70.7839859 100.711102,70.7839859 L9.25393906,70.7839859 C4.13807969,70.7839859 0,66.6284094 0,61.4951906 L41.6777625,61.4951906 Z M66.5237719,61.4951906 C66.1222203,63.0140156 64.7427859,64.1317187 63.1015172,64.1317187 L46.8983969,64.1317187 C45.2396313,64.1317187 43.8603,63.0139984 43.4586453,61.4951906 L66.5237719,61.4951906 Z M98.6507844,-4.04010159e-13 C101.042855,-4.04010159e-13 102.963438,1.93785625 102.963438,4.31263594 L102.963438,4.31263594 L102.963438,59.7491641 L95.8570938,59.7491641 L95.8570938,6.75692187 L14.1253406,6.75692187 L14.1253406,59.7491641 L7.01897969,59.7491641 L7.01897969,4.31265312 C7.01897969,1.93785625 8.9571625,-4.04010159e-13 11.3317359,-4.04010159e-13 L11.3317359,-4.04010159e-13 Z M50.9890563,48.1036875 L51.1232689,48.2378481 C51.145771,48.2603414 51.1706498,48.2852105 51.1977524,48.3123026 L51.8927208,49.0070004 C52.0375605,49.1517838 52.1941518,49.3083141 52.3583634,49.4724618 L52.8697276,49.9836271 C53.1619289,50.2757147 53.4638216,50.5774902 53.7562793,50.8698343 L55.5099371,52.6228155 C55.555577,52.6684382 55.5917506,52.7045983 55.6172339,52.7300722 L55.6556172,52.7684438 L55.6556172,52.7684438 C56.0580109,53.1742578 56.5831922,53.4555828 57.2004469,53.5885969 L61.5075484,54.4616188 C61.5245984,54.5195922 61.5126703,54.5690406 61.4717469,54.6099641 L61.4700453,54.6116656 L58.1194969,57.9809656 C58.0615234,58.0338172 57.9745719,58.0457625 57.9165984,58.0167672 L47.2403766,51.8459734 L50.9890563,48.1036875 Z M34.0433328,45.2659453 L41.9755016,53.1981141 L40.9200516,54.2433547 C40.3573672,54.8077406 39.4348969,54.8077406 38.8722125,54.2416531 L32.9878828,48.376075 C32.418375,47.8065672 32.418375,46.8806938 32.9844625,46.3145891 L34.0433328,45.2659453 Z M53.6316516,10.4817453 L76.5278594,33.3779359 C76.8450031,33.6916766 76.952425,34.1332922 76.8126047,34.5595766 C76.6693813,34.9977891 76.3130156,35.2995844 75.8611563,35.3661 C63.4752422,37.1070219 55.5294438,42.1132078 52.6785016,44.1917438 C51.7295479,44.9029116 47.4848946,49.1185093 45.2744533,51.3315511 L44.9588099,51.6477998 C44.5102285,52.0975791 44.1781204,52.4320393 44.0231966,52.5884527 L43.9468298,52.6656625 C43.938699,52.6739051 43.9329223,52.6797776 43.9295828,52.6831938 L43.8306859,52.5842969 L34.664025,43.4176359 L34.3212891,43.0749 L41.7998969,35.5792422 C41.8544672,35.5400203 41.9056172,35.4939922 41.9499438,35.4428422 C42.2551594,35.0950016 49.4456016,26.73825 51.6383828,11.1603766 C51.7048813,10.7051141 52.004975,10.3470297 52.4397844,10.2021047 C52.8694719,10.0605828 53.3162094,10.1663031 53.6316516,10.4817453 Z M53.1267344,46.0501078 L54.5336688,47.4570422 L53.6729016,48.3176891 L52.2246141,46.8700375 L52.7040766,46.3913313 C52.7098344,46.3862094 52.7991406,46.3107563 52.9609094,46.1809734 C52.9659109,46.1769172 52.9708094,46.1730844 52.9758281,46.1688219 L53.0220294,46.1322157 L53.0220294,46.1322157 L53.1267344,46.0501078 L53.1267344,46.0501078 Z M65.6970016,16.3950531 C67.0082359,16.3950531 68.2410266,16.9048859 69.1686016,17.8324609 C70.8720031,19.5358625 71.0595703,22.1924313 69.7312859,24.1055547 L62.8972094,17.2697766 C63.7122578,16.7019703 64.6790547,16.3950531 65.6935984,16.3950531 L65.6970016,16.3950531 Z" id="Combined-Shape"></path>
        </g>
    </g>
</svg>