<?xml version="1.0" encoding="UTF-8"?>
<svg width="103px" height="110px" viewBox="0 0 103 110" version="1.1" xmlns="http://www.w3.org/2000/svg" xmlns:xlink="http://www.w3.org/1999/xlink">
    <title>3_NEXT HCP Engagement</title>
    <g id="Page-1" stroke="none" stroke-width="1" fill="none" fill-rule="evenodd">
        <g id="3_NEXT-HCP-Engagement" transform="translate(0.390955, 0.000000)" fill="#0A4CA4" fill-rule="nonzero">
            <g id="trained-physician" transform="translate(-0.000000, -0.000000)">
                <g id="Group" transform="translate(23.692308, -0.000000)">
                    <path d="M27.1764706,57.040724 C42.2081448,57.040724 54.3529412,41.4117647 54.3529412,26.678733 C54.3529412,11.9457014 42.2081448,-5.65862088e-14 27.1764706,-5.65862088e-14 C12.1447964,-5.65862088e-14 0,11.9457014 0,26.678733 C0,41.4117647 12.2443439,57.040724 27.1764706,57.040724 Z" id="Path"></path>
                    <circle id="Oval" cx="56.1447964" cy="78.0452489" r="3.68325792"></circle>
                </g>
                <path d="M101.737557,92.3800905 C101.737557,75.6561086 89.9909502,61.6199095 74.0633484,57.8371041 C78.2443439,60.5248869 81.2307692,65.0045249 81.6289593,70.1809955 C85.2126697,70.9773756 87.9004525,74.1628959 87.9004525,77.9457014 C87.9004525,82.3257919 84.3167421,85.9095023 79.8371041,85.9095023 C75.3574661,85.9095023 71.7737557,82.3257919 71.7737557,77.9457014 C71.7737557,74.2624434 74.361991,71.0769231 77.8461538,70.280543 C77.3484163,65.5022624 74.0633484,61.520362 69.6832579,59.7285068 L51.3665158,76.5520362 L32.8506787,59.5294118 C27.8733032,61.2217195 24.1900452,65.800905 23.9909502,71.1764706 C24.6877828,71.5746606 25.2850679,72.2714932 25.6832579,72.9683258 C28.3710407,74.1628959 30.6606335,76.7511312 32.4524887,80.5339367 C32.7511312,81.1312217 32.7511312,81.8280543 32.5520362,82.5248869 C33.6470588,85.2126697 34.2443439,88.199095 34.2443439,90.6877828 C34.2443439,94.1719457 34.2443439,97.4570136 30.361991,98.3529412 C29.9638009,98.6515837 29.3665158,98.8506787 28.8687783,98.8506787 L26.280543,98.8506787 C24.9864253,98.8506787 23.8914027,97.8552036 23.8914027,96.561086 L23.8914027,96.4615385 C23.8914027,95.2669683 24.9864253,94.2714932 26.280543,94.2714932 L28.8687783,94.2714932 C29.1674208,94.2714932 29.3665158,94.2714932 29.6651584,94.3710407 C29.8642534,94.3710407 29.8642534,94.2714932 29.8642534,94.2714932 C30.1628959,93.7737557 30.1628959,91.6832579 30.1628959,90.6877828 C30.1628959,88.6968326 29.6651584,86.2081448 28.7692308,83.918552 C28.2714932,83.6199095 27.8733032,83.2217195 27.6742081,82.8235294 C26.081448,79.5384615 23.9909502,77.4479638 22.199095,77.4479638 C20.4072398,77.4479638 18.2171946,79.7375566 16.6244344,83.1221719 C16.3257919,83.6199095 15.9276018,84.1176471 15.3303167,84.4162896 C14.5339367,86.6063348 14.0361991,88.7963801 14.0361991,90.7873303 C14.0361991,91.5837104 14.0361991,93.8733032 14.3348416,94.3710407 C14.3348416,94.3710407 14.4343891,94.3710407 14.6334842,94.4705882 C14.9321267,94.3710407 15.2307692,94.2714932 15.4298643,94.2714932 L18.0180995,94.2714932 C19.2126697,94.2714932 20.2081448,95.1674208 20.4072398,96.361991 L20.4072398,96.4615385 C20.4072398,97.8552036 19.3122172,98.8506787 18.0180995,98.8506787 L15.4298643,98.8506787 C14.9321267,98.8506787 14.4343891,98.6515837 14.0361991,98.3529412 C12.5429864,98.0542986 11.5475113,97.4570136 10.8506787,96.361991 C10.0542986,95.0678733 9.85520362,93.4751131 9.85520362,90.5882353 C9.85520362,88.0995475 10.4524887,85.2126697 11.4479638,82.5248869 C11.2488688,81.9276018 11.3484163,81.3303167 11.6470588,80.8325792 C12.7420814,78.4434389 14.1357466,76.4524887 15.7285068,74.959276 C16.6244344,74.1628959 17.520362,73.4660633 18.4162896,73.0678733 C18.8144796,72.2714932 19.4117647,71.5746606 20.2081448,71.1764706 C20.3076923,65.5022624 23.3936652,60.5248869 27.9728507,57.7375566 C11.9457014,61.4208145 -5.65862088e-14,75.4570136 -5.65862088e-14,92.3800905 L-5.65862088e-14,110 L101.538462,110 L101.538462,92.3800905 L101.737557,92.3800905 Z M73.0678733,96.959276 L68.6877828,96.959276 L68.6877828,101.339367 L68.6877828,101.339367 L63.0135747,101.339367 L63.0135747,101.339367 L63.0135747,96.959276 L58.6334842,96.959276 L58.6334842,91.2850679 L63.0135747,91.2850679 L63.0135747,86.9049774 L63.0135747,86.9049774 L68.6877828,86.9049774 L68.6877828,91.2850679 L73.0678733,91.2850679 C73.0678733,91.2850679 73.0678733,91.2850679 73.0678733,91.2850679 L73.0678733,96.959276 L73.0678733,96.959276 Z" id="Shape"></path>
            </g>
        </g>
    </g>
</svg>