<?xml version="1.0" encoding="UTF-8"?>
<svg width="111px" height="109px" viewBox="0 0 111 109" version="1.1" xmlns="http://www.w3.org/2000/svg" xmlns:xlink="http://www.w3.org/1999/xlink">
    <title>3_NEXT Campaign Management</title>
    <g id="Page-1" stroke="none" stroke-width="1" fill="none" fill-rule="evenodd">
        <g id="3_NEXT-Campaign-Management" transform="translate(0.386683, 0.000000)" fill="#0A4CA4" fill-rule="nonzero">
            <path d="M81.9984822,20.9321163 L91.1843529,6.27678551 C91.6212584,5.47217379 92.8356387,5.59836079 93.0771579,6.49930882 L96.4489287,19.0840874 C101.242678,19.0868011 102.956379,25.4829893 98.8057762,27.8818991 L102.177547,40.4653208 C102.398714,41.3214928 101.50455,42.0569052 100.708079,41.6349251 L85.3661825,33.5073969 L81.1585924,34.6349388 L84.478803,47.0256879 C84.6253427,47.5724982 84.2996988,48.1342339 83.7528885,48.2807736 L78.6199271,49.6566189 C78.0731167,49.8031587 77.5100242,49.4788717 77.3634845,48.9320613 L74.0432739,36.5413123 L71.7284888,37.1613924 C68.2685227,38.0894775 64.6837265,36.0189252 63.7556415,32.5589592 C62.8289133,29.0989931 64.8981087,25.5141969 68.3594316,24.5861118 L81.9984822,20.9321163 Z M13.4504485,108.395988 L69.166757,108.395988 C69.8872441,108.395988 70.4747599,107.807115 70.4747599,107.086628 L70.4747599,94.8722697 L12.1424456,94.8722697 L12.1424456,107.086628 C12.1424456,107.807115 12.7299614,108.395988 13.4504485,108.395988 Z M1.30935971,74.5371671 L81.3078458,74.5371671 C82.026976,74.5371671 82.6158487,75.1260398 82.6158487,75.84517 L82.6158487,91.6307563 C82.6158487,92.3512434 82.026976,92.9387592 81.3078458,92.9387592 L1.30935971,92.9387592 C0.588872657,92.9387592 0,92.3512434 0,91.6307563 L0,75.84517 C0,75.1260398 0.588872657,74.5371671 1.30935971,74.5371671 Z M56.0487366,35.1261183 C61.2766775,36.5996568 65.1396279,41.4246134 65.1396279,47.105742 L65.1396279,72.6036567 L17.4775776,72.6036567 L17.4775776,49.7244614 C17.4775776,43.3337005 21.511491,37.841174 27.1573415,35.6647875 C30.9361672,38.9836412 35.8886677,40.995849 41.3079243,40.995849 C47.0161899,40.995849 52.2047822,38.7638316 56.0487366,35.1261183 Z M41.3079243,0 C52.0962342,0 60.8411289,8.74489464 60.8411289,19.5318477 C60.8411289,30.3201576 52.0962342,39.0650522 41.3079243,39.0650522 C30.5209713,39.0650522 21.7760767,30.3201576 21.7760767,19.5318477 C21.7760767,8.74489464 30.5209713,0 41.3079243,0 Z M109.485538,28.1912608 C110.652429,28.8669718 109.628007,30.6417309 108.45976,29.9687336 L104.566959,27.720434 C103.398712,27.0460799 104.42449,25.269964 105.592737,25.9443181 L109.485538,28.1912608 Z M103.294234,17.3676728 C102.61988,18.5359202 100.843764,17.510142 101.518118,16.3432515 L103.766418,12.4490936 C104.440772,11.2822031 106.216888,12.3079813 105.542534,13.4748718 L103.294234,17.3676728 Z M103.372931,23.0053822 C102.070356,23.3540926 101.538471,21.3730924 102.841046,21.0243821 L107.184321,19.8602052 C108.486897,19.5114949 109.017425,21.4924951 107.71485,21.8425623 L103.372931,23.0053822 Z M78.8655168,23.8941186 L81.1735177,32.5073989 L84.6470523,31.5766002 L82.3390514,22.9646768 L78.8655168,23.8941186 Z" id="Shape"></path>
        </g>
    </g>
</svg>