<?xml version="1.0" encoding="UTF-8"?>
<svg width="110px" height="110px" viewBox="0 0 110 110" version="1.1" xmlns="http://www.w3.org/2000/svg" xmlns:xlink="http://www.w3.org/1999/xlink">
    <title>3_packaging_artwork_@svg</title>
    <g id="3_packaging_artwork_" stroke="none" stroke-width="1" fill="none" fill-rule="evenodd">
        <path d="M55.2,-1.84741111e-13 L57.6,1.6 C63.2,5.3 78.4,14.2 96.9,18.5 L96.9,18.5 L100.4,19.3 L100.4,22.9 C100.2,54.4 96.9,80.7 57.8,108.8 L57.8,108.8 L55.2,110.7 L52.6,108.8 C13.5,80.7 10.2,54.4 10,22.9 L10,22.9 L10,19.3 L13.5,18.5 C32,14.2 47.1,5.3 52.8,1.6 L52.8,1.6 L55.2,-1.84741111e-13 Z M55.2,5.4 C49.1,9.3 33.5,18.5 14.4,22.9 C14.7,55.2 18.7,79 55.2,105.2 C91.7,78.9 95.8,55.1 96,22.9 C76.9,18.5 61.3,9.3 55.2,5.4 Z M55,11.9 C55.1,11.8 55.3,11.8 55.4,11.9 C61.8,15.8 74.8,22.8 90.4,27.1 C90.5,27.1 90.7,27.3 90.7,27.5 C90.3,52.3 87.3,74.7 55.5,98.8 C55.4,98.9 55.3,98.9 55.2,98.9 C55.1,98.9 55,98.9 54.9,98.8 C23.2,74.7 20.2,52.2 19.7,27.5 C19.7,27.3 19.8,27.2 20,27.1 C35.7,22.8 48.6,15.7 55,11.9 Z M45.2257576,67.4 L55.4,59.2219697 L65.6386364,67.4 L61.7106061,54.2636364 L71.7560606,46.15 L59.5212121,46.15 L55.4,33.4 L51.3431818,46.15 L39.0439394,46.15 L49.1537879,54.1992424 L45.2257576,67.4 Z" id="Combined-Shape" fill="#0A4CA4" fill-rule="nonzero"></path>
    </g>
</svg>