<?xml version="1.0" encoding="UTF-8"?>
<svg width="110px" height="110px" viewBox="0 0 110 110" version="1.1" xmlns="http://www.w3.org/2000/svg" xmlns:xlink="http://www.w3.org/1999/xlink">
    <title>3_regulatory@svg</title>
    <g id="3_regulatory" stroke="none" stroke-width="1" fill="none" fill-rule="evenodd">
        <g id="speedometer" transform="translate(-0.000000, 13.000000)" fill="#0A4CA4" fill-rule="nonzero">
            <path d="M54.9991608,58.2352448 C58.4416961,58.2352448 61.6794587,59.5763397 64.1140747,62.0109557 C69.1402435,67.0371247 69.1402435,75.2146149 64.1140747,80.2407837 C61.6794587,82.6753997 58.4416961,84.0164948 54.9991608,84.0164948 C51.5557861,84.0164948 48.3180238,82.6753997 45.8834075,80.2407837 C40.8580779,75.2146149 40.8580779,67.0371247 45.8834075,62.0109557 C48.3180238,59.5763397 51.5557861,58.2352448 54.9991608,58.2352448 Z M110,16.0176088 L110,29.7231292 L74.219284,69.1201019 C73.7778473,64.8567962 71.9306947,60.7126618 68.671112,57.4530793 C65.4887389,54.2707062 61.3907624,52.3345947 56.9721986,51.8898011 L56.9721986,51.8898011 L96.2902832,16.0176088 L110,16.0176088 Z M13.8985443,18.359909 L26.1169434,30.5783081 C18.1618499,35.7555389 12.890625,44.7252654 12.890625,54.9043275 L12.890625,54.9043275 L12.890625,58.1269838 L0,58.1269838 L0,54.9043275 C0,41.292801 4.91455078,28.438263 13.8985443,18.359909 L13.8985443,18.359909 Z M108.285446,41.1979674 C109.415054,45.6224059 110,50.2180482 110,54.9043275 L110,54.9043275 L110,58.1269837 L92.9098511,58.1269837 Z M58.2226562,-1.84741111e-13 C70.0919343,0.68145752 81.2495423,5.11848455 90.3182983,12.7412416 L90.3182983,12.7412416 L64.2877961,36.4907073 C62.5396729,34.3691253 60.4969789,32.5001527 58.2226562,30.9458922 L58.2226562,30.9458922 Z M51.7773438,-1.82964754e-13 L51.7773438,27.6351165 C48.6914826,26.5130615 45.3630828,25.8995819 41.8945313,25.8995819 C38.50235,25.8995819 35.2444458,26.4870452 32.2164917,27.5621032 L32.2164917,27.5621032 L18.4555817,13.8020326 C27.7349854,5.5305482 39.3675994,0.712509102 51.7773438,-1.82964754e-13 L51.7773438,-1.82964754e-13 Z" id="Combined-Shape"></path>
        </g>
    </g>
</svg>