<?xml version="1.0" encoding="UTF-8"?>
<svg width="110px" height="94px" viewBox="0 0 110 94" version="1.1" xmlns="http://www.w3.org/2000/svg" xmlns:xlink="http://www.w3.org/1999/xlink">
    <title>4_Agile Operations</title>
    <g id="Page-1" stroke="none" stroke-width="1" fill="none" fill-rule="evenodd">
        <g id="4_Agile-Operations" transform="translate(0.000101, 0.000000)" fill="#0A4CA4" fill-rule="nonzero">
            <path d="M109.396519,86.6691193 L58.6274661,2.05403126 C57.8638149,0.780574188 56.4867044,0 54.9995942,0 C53.512484,0 52.1353734,0.780574188 51.3717223,2.05403126 L0.602669428,86.6691193 C-0.182135514,87.9764225 -0.201173908,89.6052629 0.549784998,90.9316044 C1.30074391,92.2579459 2.70535437,93.0765969 4.23054133,93.0765969 L105.768647,93.0765969 C107.293834,93.0765969 108.70056,92.2558305 109.449403,90.929489 C110.202478,89.6031475 110.181324,87.9764225 109.396519,86.6691193 Z M59.2303486,71.9228249 C59.2303486,74.2582013 57.3349706,76.1535793 54.9995942,76.1535793 C52.6642177,76.1535793 50.7688398,74.2582013 50.7688398,71.9228249 L50.7688398,67.6920705 C50.7688398,65.356694 52.6642177,63.4613161 54.9995942,63.4613161 C57.3349706,63.4613161 59.2303486,65.356694 59.2303486,67.6920705 L59.2303486,71.9228249 Z M59.2303486,54.9998073 C59.2303486,57.3351837 57.3349706,59.2305617 54.9995942,59.2305617 C52.6642177,59.2305617 50.7688398,57.3351837 50.7688398,54.9998073 L50.7688398,33.8460352 C50.7688398,31.5106588 52.6642177,29.6152808 54.9995942,29.6152808 C57.3349706,29.6152808 59.2303486,31.5106588 59.2303486,33.8460352 L59.2303486,54.9998073 Z" id="Shape"></path>
        </g>
    </g>
</svg>