<?xml version="1.0" encoding="UTF-8"?>
<svg width="110px" height="110px" viewBox="0 0 110 110" version="1.1" xmlns="http://www.w3.org/2000/svg" xmlns:xlink="http://www.w3.org/1999/xlink">
    <title>4_clinical@svg</title>
    <g id="4_clinical" stroke="none" stroke-width="1" fill="none" fill-rule="evenodd">
        <path d="M39.3,54 L66.6,67.6 C68,68.3 68.6,70 68,71.5 L67.5,72.8 L67.5,72.8 C67,74.4 65.4,75.2 64,74.6 L44.1,66.7 C43.2,66.3 42.1,66.9 41.8,67.9 C41.5,68.9 42,70.1 42.9,70.5 L62.9,78.4 C63.6,78.7 64.3,78.8 65,78.8 C67.3,78.8 69.5,77.4 70.6,75.2 L105.5,65.6 C106.6,65.3 107.7,65.5 108.6,66.1 C109.5,66.7 110.2,67.7 110.4,68.9 C110.8,71 109.8,73.2 107.9,74 L58.8,94.7 C57.9,95.1 56.9,95.1 56,94.7 L23.8,82.1 L23.8,61 L35.7,54.1 C36.8,53.5 38.1,53.4 39.3,54 Z M18.6,59.3 L18.6,94.7 L6.80344669e-13,94.7 L6.80344669e-13,59.3 L18.6,59.3 Z M73.9,15 C86.1,15 96,24.9 96,37.1 C96,49.3 86.1,59.2 73.9,59.2 C61.7,59.2 51.8,49.3 51.8,37.1 C51.8,24.9 61.7,15 73.9,15 Z M82,25.9 L65.9,25.9 L65.9,28.4 L68.6,28.4 C71.9,28.4 74,29.5 74.5,31.7 L74.5,31.7 L65.9,31.7 L65.9,33.6 L74.6,33.6 C74.4,36.3 72.1,38 68,38 L68,38 L65.9,38 L65.9,40.4 L75.3,51.2 L79,51.2 C75.8,47.2 72.5,43.3 69.5,40.2 C74.4,40 77.5,37.5 77.9,33.6 L77.9,33.6 L82,33.6 L82,31.7 L77.8,31.7 C77.6,29.9 76.8,28.7 75.7,27.8 L75.7,27.8 L82,27.8 L82,25.9 Z" id="Combined-Shape" fill="#0A4CA4" fill-rule="nonzero"></path>
    </g>
</svg>