<?xml version="1.0" encoding="UTF-8"?>
<svg width="139px" height="142px" viewBox="0 0 139 142" version="1.1" xmlns="http://www.w3.org/2000/svg" xmlns:xlink="http://www.w3.org/1999/xlink">
    <title>4_Co-commercialisation</title>
    <g id="Page-1" stroke="none" stroke-width="1" fill="none" fill-rule="evenodd">
        <g id="4_Co-commercialisation" transform="translate(69.508671, 71.000000) rotate(-37.000000) translate(-69.508671, -71.000000) translate(25.000000, 16.000000)" fill="#0A4CA4" fill-rule="nonzero">
            <g id="Group" transform="translate(-0.000000, 0.000000)">
                <path d="M40.4624277,37.7142857 L17.0841362,44 L8.54206808,53.877551 L30.5716121,58.3673469 C29.2228645,61.9591837 28.3236994,64.6530612 27.4245344,66 C30.5716121,68.6938776 34.1682723,70.9387755 37.31535,73.6326531 C38.6640976,72.7346939 40.9120103,71.3877551 44.059088,69.1428571 L52.6011561,89.7959184 L61.1432241,79.4693878 L62.0423892,55.2244898 C76.4290302,42.6530612 82.7231856,32.7755102 85.8702633,19.3061224 C81.8240206,14.3673469 76.4290302,10.3265306 71.0340398,7.18367347 C58.445729,13.4693878 49.4540784,22 40.4624277,37.7142857 Z M75.0802826,17.0612245 C78.2273603,19.3061224 78.6769428,23.7959184 76.4290302,26.9387755 C73.731535,30.0816327 69.2357097,30.5306122 66.5382145,27.8367347 C63.3911368,25.5918367 62.9415543,21.1020408 65.1894669,17.9591837 C67.8869621,14.8163265 72.3827874,14.3673469 75.0802826,17.0612245 Z" id="Shape"></path>
                <path d="M86.3198459,17.5102041 C87.6685934,12.122449 88.5677585,6.28571429 89.017341,0 C83.1727681,1.79591837 77.7777778,4.04081633 72.8323699,6.28571429 C77.7777778,9.42857143 82.2736031,13.0204082 86.3198459,17.5102041 Z" id="Path"></path>
                <polygon id="Rectangle" transform="translate(30.412167, 72.261976) rotate(39.023442) translate(-30.412167, -72.261976) " points="24.2138286 70.5647749 36.6127384 70.5566368 36.6105045 73.9591771 24.2115946 73.9673153"></polygon>
                <polygon id="Path" points="29.672447 75.877551 0 110 26.9749518 73.6326531"></polygon>
                <polygon id="Path" points="25.6262042 72.7346939 3.14707771 96.0816327 23.8278741 70.9387755"></polygon>
                <polygon id="Path" points="31.0211946 77.2244898 13.0378934 104.163265 32.8195247 78.5714286"></polygon>
            </g>
        </g>
    </g>
</svg>