<?xml version="1.0" encoding="UTF-8"?>
<svg width="77px" height="110px" viewBox="0 0 77 110" version="1.1" xmlns="http://www.w3.org/2000/svg" xmlns:xlink="http://www.w3.org/1999/xlink">
    <title>4_Emerging Biotech</title>
    <g id="Page-1" stroke="none" stroke-width="1" fill="none" fill-rule="evenodd">
        <g id="4_Emerging-Biotech" transform="translate(0.000000, 0.000000)" fill="#0A4CA4" fill-rule="nonzero">
            <g id="medical-practitioner" transform="translate(0.000000, 0.000000)">
                <g id="noun_Doctor_1194726" transform="translate(0.000000, 0.000000)">
                    <g id="Group" transform="translate(0.000000, 0.000000)">
                        <path d="M38.5024306,43.5758889 C50.4465577,43.5758889 60.1630102,33.8017778 60.1630102,21.7873333 C60.1630102,9.77288889 50.4465577,0 38.5024306,0 C26.555873,0 16.8369898,9.77288889 16.8369898,21.7873333 C16.8394204,33.8017778 26.5570883,43.5758889 38.5024306,43.5758889 Z" id="Path"></path>
                        <path d="M7.10542736e-15,66.1552222 L7.10542736e-15,91.7302222 L36.4825752,91.7302222 C36.8058493,91.4246667 37.1461378,91.0934444 37.5155939,90.7255556 C39.157486,89.089 40.1576912,87.9144444 40.764134,87.1077778 C38.3675305,84.0375556 37.1364153,79.8282222 42.0669529,73.7024444 C44.3724076,70.8351111 46.984122,69.3831111 49.8267464,69.3831111 C53.7206193,69.3831111 56.2934436,72.1257778 57.8539095,73.7892222 C58.0422835,73.9933333 58.2282269,74.1888889 58.3983712,74.3648889 C61.9361564,77.9496667 61.3528047,84.6083333 57.5342814,91.7302222 L77,91.7302222 L77,66.1552222 C77,57.4884444 70.0143628,50.4631111 61.3965561,50.4631111 L58.6426497,50.4631111 C60.5604186,52.6166667 61.8146248,55.3764444 62.0722719,58.4222222 C65.0133369,59.0846667 67.2179204,61.7283333 67.2179204,64.8816667 C67.2179204,68.5336667 64.2622715,71.5073333 60.6309069,71.5073333 C56.998327,71.5073333 54.0426781,68.5336667 54.0426781,64.8816667 C54.0426781,61.787 56.1694814,59.1861111 59.0291202,58.4637778 C58.6718173,55.0635556 56.7115124,52.1461111 53.9320843,50.4631111 C43.6440281,59.821037 38.5,64.5 38.5,64.5 C38.5,64.5 33.1287078,59.821037 22.3861233,50.4631111 C19.3927996,52.2744444 17.3607911,55.5218889 17.2441207,59.2557778 C17.8299031,59.598 18.3050917,60.1272222 18.5955523,60.7701111 C20.7600303,61.798 22.6729379,63.9588889 24.1373939,67.0388889 C24.3816724,67.5583333 24.4144859,68.1437778 24.2346191,68.6778889 C25.1120774,70.95 25.614003,73.4335556 25.614003,75.5174444 C25.614003,78.4397778 25.614003,81.202 22.4468891,81.9133333 C22.1029546,82.1993333 21.6751634,82.357 21.2230658,82.357 L19.1072004,82.357 C18.045014,82.357 17.1821396,81.4867778 17.1821396,80.4197778 L17.1833549,80.344 C17.2246757,79.3161111 18.0802582,78.485 19.1072004,78.485 L21.2230658,78.485 C21.439392,78.485 21.6520724,78.5204444 21.8562455,78.595 C21.985069,78.5571111 22.0239591,78.5265556 22.0239591,78.5265556 C22.2609457,78.1061111 22.2609457,76.3571111 22.2609457,75.5162222 C22.2609457,73.8222222 21.839231,71.7774444 21.1003188,69.8768889 C20.7174942,69.6581111 20.4075886,69.3256667 20.2155687,68.926 C18.9334101,66.2248889 17.1870009,64.4783333 15.7699422,64.4783333 C14.3212854,64.4783333 12.4873733,66.3654444 11.2112914,69.1728889 C11.002257,69.6287778 10.6364469,70.0027778 10.1855646,70.2227778 C9.51835601,72.0426667 9.15133053,73.9151111 9.15133053,75.5162222 C9.15133053,76.2226667 9.15133053,78.0938889 9.4199154,78.5351111 C9.42234603,78.5351111 9.48189652,78.5705556 9.64961015,78.6121111 C9.86836706,78.529 10.1041384,78.485 10.3386944,78.485 L12.4594211,78.485 C13.4474731,78.485 14.2738881,79.2415556 14.373544,80.2254444 L14.3832665,80.3452222 C14.3832665,81.488 13.5203921,82.357 12.4594211,82.357 L10.3386944,82.357 C9.91941033,82.357 9.51106411,82.2152222 9.17685217,81.9585556 C7.9663973,81.7287778 7.11324537,81.1922222 6.57242969,80.3158889 C5.91737429,79.2598889 5.7982733,77.8714444 5.7982733,75.5162222 C5.7982733,73.4506667 6.2722466,71.0734444 7.13512106,68.8025556 C7.00872818,68.3173333 7.05126424,67.8088889 7.26151394,67.3505556 C8.15841725,65.3778889 9.2995991,63.6875556 10.5598819,62.4653333 C11.2526121,61.7918889 11.9976009,61.2528889 12.7778339,60.8593333 C13.0695098,60.1712222 13.5799425,59.6053333 14.2021844,59.2472222 C14.2860412,55.8775556 15.5852142,52.8097778 17.6755579,50.4618889 L15.6046592,50.4618889 C6.98806781,50.4631111 7.10542736e-15,57.4884444 7.10542736e-15,66.1552222 Z" id="Path"></path>
                        <ellipse id="Oval" cx="60.6333375" cy="64.8816667" rx="3.04072098" ry="3.058"></ellipse>
                        <path d="M55.5229332,77.2346667 C55.3163294,77.0244444 55.1048644,76.802 54.8897535,76.5685556 C53.5917958,75.1837778 51.977856,73.4592222 49.8279617,73.4592222 C48.2444048,73.4592222 46.7398434,74.3771111 45.2194829,76.2654444 C41.1931406,81.2667778 42.6332902,83.3983333 45.1040279,85.8696667 L45.4783453,86.2424444 C45.6922409,86.46 45.523312,87.3082222 44.6422078,88.6551111 C43.778118,89.9824444 42.3428296,91.6532222 40.3703715,93.6197778 C35.6986963,98.2825556 33.8550617,98.7873333 33.2790019,98.7873333 C33.0869819,98.7873333 33.0359386,98.7323333 33.0031251,98.7005556 L32.6324537,98.3241111 C31.4584583,97.1141111 30.2431421,95.865 28.3642634,95.865 C26.8876543,95.865 25.2032261,96.6606667 23.0824994,98.3632222 C21.2570946,99.8298889 20.3371003,101.289222 20.2678273,102.826778 C20.1681713,105.058556 21.915796,106.739111 23.3121942,108.092111 C23.5455349,108.313333 23.7667224,108.526 23.9745415,108.738667 C24.7851574,109.56 26.0746078,110 27.7031314,110 C31.599435,110 38.8415038,107.314778 46.4262919,99.7467778 C55.7173838,90.4652222 58.6791092,80.4344444 55.5229332,77.2346667 Z" id="Path"></path>
                    </g>
                </g>
            </g>
        </g>
    </g>
</svg>