<svg id="Layer_1" data-name="Layer 1" xmlns="http://www.w3.org/2000/svg" viewBox="0 0 110 110"><defs><style>.cls-1{fill:#0a4ca4;}</style></defs><polygon class="cls-1" points="11.41 32.03 11.41 1 8.35 1 8.35 32.03 1 32.03 9.88 44.4 18.75 32.03 11.41 32.03"/><polygon class="cls-1" points="101.66 96.64 101.66 65.6 98.59 65.6 98.59 96.64 91.25 96.64 100.12 109 109 96.64 101.66 96.64"/><path class="cls-1" d="M56,13.77A41.23,41.23,0,1,0,97.23,55,41.27,41.27,0,0,0,56,13.77Zm8,57.11-.26.26a11.72,11.72,0,0,1-5.29,2.61v5.64h-5.9V73.57a11.85,11.85,0,0,1-4.43-2.25A10.06,10.06,0,0,1,44.54,65l6.08-.87a3.69,3.69,0,0,0,1.47,2.52,6.12,6.12,0,0,0,7.64-.09,5.4,5.4,0,0,0,1.74-4.25,5,5,0,0,0-2-3.73A11.12,11.12,0,0,0,55,56.82,13.27,13.27,0,0,1,48,53.44a10.83,10.83,0,0,1-3.22-7.73A9.45,9.45,0,0,1,48,39l.08-.09.09-.08a12.93,12.93,0,0,1,4.34-2.26V30.7h5.9v5.81a12.13,12.13,0,0,1,5,2.61,10,10,0,0,1,3,4.77l-6.16,1a3.37,3.37,0,0,0-.87-1.13,6,6,0,0,0-7.38-.09,3.5,3.5,0,0,0-1.21,2.43,4.54,4.54,0,0,0,1.47,3.21c1,1,2,1.3,4,1.74a16.3,16.3,0,0,1,6.77,2.78A10.92,10.92,0,0,1,67.54,62,12,12,0,0,1,64,70.88Z"/></svg>