<?xml version="1.0" encoding="UTF-8"?>
<svg width="110px" height="110px" viewBox="0 0 110 110" version="1.1" xmlns="http://www.w3.org/2000/svg" xmlns:xlink="http://www.w3.org/1999/xlink">
    <title>4_medical_information_management copy@svg</title>
    <g id="4_medical_information_management-copy" stroke="none" stroke-width="1" fill="none" fill-rule="evenodd">
        <path d="M110,11 L110,80.927953 L36.1816667,80.927953 L0,99 L0,11 L110,11 Z M54.5989011,58 C52.0274725,58 50,60.0769231 50,62.4010989 C50,64.9230769 52.0274725,67 54.5989011,67 C57.021978,67 59,64.9230769 59,62.4010989 C59,60.0769231 57.021978,58 54.5989011,58 Z M55.75,31 C50.8,31 46.85,33.1857451 44,36.3650108 L48.2,40.637149 C49.8,38.8488121 52.05,37.5572354 54.5,37.5572354 C57.55,37.5572354 59.5,39.3455724 59.5,41.4319654 C59.5,43.8164147 56.25,45.6544276 51.65,45.8531317 L51.65,54 L58.15,54 L58.15,50.4233261 C63.3,49.2311015 67,45.2073434 67,40.7365011 C67,35.1231102 62.4,31 55.75,31 Z" id="Combined-Shape" fill="#0A4CA4" fill-rule="nonzero"></path>
    </g>
</svg>