<?xml version="1.0" encoding="UTF-8"?>
<svg width="110px" height="103px" viewBox="0 0 110 103" version="1.1" xmlns="http://www.w3.org/2000/svg" xmlns:xlink="http://www.w3.org/1999/xlink">
    <title>4_Medical Technology</title>
    <g id="Page-1" stroke="none" stroke-width="1" fill="none" fill-rule="evenodd">
        <g id="4_Medical-Technology" fill="#0A4CA4" fill-rule="nonzero">
            <g id="Group" transform="translate(0.000000, 0.000000)">
                <path d="M34.6923077,55 C38.2884615,58.1730769 42.5192308,59.6538462 45.6923077,60.5 C55.4230769,62.8269231 66,57.5384615 66.4230769,44 C67.0576923,27.0769231 57.75,24.75 54.7884615,24.9615385 C51.8269231,25.1730769 50.1346154,24.1153846 50.1346154,24.1153846 L40.1923077,18.4038462 L40.1923077,24.3269231 L33,24.3269231 C30.25,24.3269231 28.1346154,26.4423077 28.1346154,29.1923077 L28.1346154,34.2692308 L4.44230769,34.2692308 L4.44230769,55.4230769 C9.73076923,54.7884615 34.6923077,55 34.6923077,55 Z" id="Path"></path>
                <rect id="Rectangle" x="88.4230769" y="1.40912922e-15" width="21.5769231" height="102.596154"></rect>
                <path d="M78.2692308,16.7115385 L78.2692308,86.0961538 C78.2692308,89.9038462 80.3846154,93.2884615 83.5576923,94.9807692 L83.5576923,7.82692308 C80.5961538,9.51923077 78.2692308,12.9038462 78.2692308,16.7115385 Z" id="Path"></path>
                <rect id="Rectangle" x="0" y="68.75" width="73.6153846" height="9.94230769"></rect>
            </g>
        </g>
    </g>
</svg>