<?xml version="1.0" encoding="UTF-8"?>
<svg width="110px" height="110px" viewBox="0 0 110 110" version="1.1" xmlns="http://www.w3.org/2000/svg" xmlns:xlink="http://www.w3.org/1999/xlink">
    <title>4_Next Regulatory Intelligence</title>
    <g id="Page-1" stroke="none" stroke-width="1" fill="none" fill-rule="evenodd">
        <g id="4_Next-Regulatory-Intelligence" transform="translate(0.000000, 0.000000)" fill="#0A4CA4" fill-rule="nonzero">
            <g id="correct-doc" transform="translate(0.000000, 0.000000)">
                <path d="M90.3571429,70.7142857 C101.205593,70.7142857 110,79.5086924 110,90.3571429 C110,101.205593 101.205593,110 90.3571429,110 C89.0839037,109.998389 87.8135254,109.879374 86.5621429,109.644464 L86.5621429,109.644464 L86.5307143,109.644464 C86.1221429,109.563929 85.7292857,109.442143 85.3364286,109.338036 C85.0044643,109.251607 84.6646429,109.182857 84.3405357,109.07875 C83.9751786,108.962857 83.6039286,108.805714 83.27,108.670179 C82.9360714,108.534643 82.6041071,108.426607 82.2701786,108.277321 C81.93625,108.128036 81.6258929,107.947321 81.2978571,107.776429 C80.9698214,107.605536 80.6064286,107.434643 80.3157143,107.26375 C80.025,107.092857 79.7558929,106.886607 79.4730357,106.7 C79.1410714,106.481964 78.8032143,106.277679 78.4908929,106.04 C78.2571429,105.86125 78.0430357,105.664821 77.8171429,105.468393 C77.48125,105.1875 77.1375,104.920357 76.82125,104.617857 C76.65625,104.460714 76.5108929,104.28 76.3498214,104.116964 C75.99625,103.755536 75.63875,103.4 75.3126786,103.007143 C75.2458929,102.928571 75.1908929,102.83625 75.1260714,102.755714 C74.2496144,101.680122 73.4885358,100.515461 72.8553571,99.2808929 C71.4353338,96.5214343 70.700928,93.4605119 70.7141067,90.3571429 C70.7141067,86.000567 72.1612374,81.7673665 74.8275,78.3219643 L74.8275,78.3219643 L74.86875,78.2748214 C75.3611466,77.6498766 75.8904848,77.0549451 76.4539286,76.4932143 C76.9017857,76.0433929 77.3633929,75.6053571 77.8583929,75.1948214 C80.9010528,72.6766414 84.638728,71.1452566 88.5735714,70.8046429 C89.1628571,70.7516071 89.7501786,70.7142857 90.3571429,70.7142857 Z M98.4961793,80.5183173 C97.7901583,80.4257402 97.0893218,80.7224986 96.6644643,81.2939286 L96.6644643,81.2939286 L85.9905357,95.0144643 L84.0498214,92.5178571 C83.3755312,91.6896024 82.1630235,91.5518772 81.3201497,92.2078018 C80.477276,92.8637263 80.3129365,94.0729144 80.9501786,94.93 L80.9501786,94.93 L84.4407143,99.4203571 C84.8128917,99.8983051 85.3847715,100.177799 85.9905357,100.177799 C86.5962999,100.177799 87.1681798,99.8983051 87.5403571,99.4203571 L87.5403571,99.4203571 L99.7641071,83.7060714 C100.213665,83.1538633 100.329175,82.4016035 100.066005,81.7399558 C99.8028346,81.0783082 99.2022002,80.6108944 98.4961793,80.5183173 Z M72.6844643,7.10542736e-14 C73.7693093,7.10542736e-14 74.64875,0.87944067 74.64875,1.96428571 L74.64875,1.96428571 L74.64875,72.7767857 C74.4248214,72.9771429 74.2303571,73.1991071 74.0142857,73.4073214 C73.7275,73.6842857 73.43875,73.96125 73.1676786,74.25 C72.8592857,74.5858929 72.5607143,74.9355357 72.27,75.2871429 C72.0185714,75.5876786 71.7651786,75.8823214 71.5314286,76.1946429 C71.2525,76.5619643 71.0010714,76.9371429 70.7457143,77.33 C70.5335714,77.64625 70.3175,77.9585714 70.1210714,78.2866071 C69.8814286,78.6873214 69.67125,79.10375 69.4571429,79.5182143 C69.2842857,79.8482143 69.1035714,80.1742857 68.9483929,80.5121429 C68.7480357,80.94625 68.5810714,81.3960714 68.4082143,81.8419643 C68.2746429,82.1778571 68.1292857,82.5078571 68.0153571,82.8496429 C67.85625,83.3210714 67.7325,83.8160714 67.6048214,84.3032143 C67.5164286,84.6332143 67.4123214,84.9533929 67.3396429,85.2853571 C67.2198214,85.8333929 67.1432143,86.39125 67.0626786,86.9491071 C67.0214286,87.2319643 66.9585714,87.5089286 66.9271429,87.7917857 C66.8335828,88.643713 66.7863704,89.5000937 66.7857143,90.3571429 C66.7907239,91.1867899 66.8399006,92.0155819 66.9330357,92.84 C66.9585714,93.0776786 66.9919643,93.3114286 67.0233929,93.5471429 C67.111131,94.190119 67.2257143,94.8291667 67.3671429,95.4642857 C67.4103571,95.6607143 67.44375,95.8571429 67.4928571,96.0535714 C67.6735714,96.78625 67.8798214,97.5071429 68.1292857,98.2142857 L68.1292857,98.2142857 L1.96428571,98.2142857 C0.87944067,98.2142857 7.10542736e-14,97.334845 7.10542736e-14,96.25 L7.10542736e-14,96.25 L7.10542736e-14,19.6428571 L13.75,19.6428571 C17.0045351,19.6428571 19.6428571,17.0045351 19.6428571,13.75 L19.6428571,13.75 L19.6428571,7.10542736e-14 Z M33.3928571,78.5714286 L31.4285714,78.5714286 C30.3437264,78.5714286 29.4642857,79.4508692 29.4642857,80.5357143 C29.4642857,81.6205593 30.3437264,82.5 31.4285714,82.5 L31.4285714,82.5 L33.3928571,82.5 C34.4777022,82.5 35.3571429,81.6205593 35.3571429,80.5357143 C35.3571429,79.4508692 34.4777022,78.5714286 33.3928571,78.5714286 L33.3928571,78.5714286 Z M21.6071429,78.5714286 L9.82142857,78.5714286 C8.73658353,78.5714286 7.85714286,79.4508692 7.85714286,80.5357143 C7.85714286,81.6205593 8.73658353,82.5 9.82142857,82.5 L9.82142857,82.5 L21.6071429,82.5 C22.6919879,82.5 23.5714286,81.6205593 23.5714286,80.5357143 C23.5714286,79.4508692 22.6919879,78.5714286 21.6071429,78.5714286 L21.6071429,78.5714286 Z M64.8214286,68.75 L9.82142857,68.75 C8.73658353,68.75 7.85714286,69.6294407 7.85714286,70.7142857 C7.85714286,71.7991308 8.73658353,72.6785714 9.82142857,72.6785714 L9.82142857,72.6785714 L64.8214286,72.6785714 C65.9062736,72.6785714 66.7857143,71.7991308 66.7857143,70.7142857 C66.7857143,69.6294407 65.9062736,68.75 64.8214286,68.75 L64.8214286,68.75 Z M64.8214286,58.9285714 L58.9285714,58.9285714 C57.8437264,58.9285714 56.9642857,59.8080121 56.9642857,60.8928571 C56.9642857,61.9777022 57.8437264,62.8571429 58.9285714,62.8571429 L58.9285714,62.8571429 L64.8214286,62.8571429 C65.9062736,62.8571429 66.7857143,61.9777022 66.7857143,60.8928571 C66.7857143,59.8080121 65.9062736,58.9285714 64.8214286,58.9285714 L64.8214286,58.9285714 Z M49.1071429,58.9285714 L25.5357143,58.9285714 C24.4508692,58.9285714 23.5714286,59.8080121 23.5714286,60.8928571 C23.5714286,61.9777022 24.4508692,62.8571429 25.5357143,62.8571429 L25.5357143,62.8571429 L49.1071429,62.8571429 C50.1919879,62.8571429 51.0714286,61.9777022 51.0714286,60.8928571 C51.0714286,59.8080121 50.1919879,58.9285714 49.1071429,58.9285714 L49.1071429,58.9285714 Z M15.7142857,58.9285714 L9.82142857,58.9285714 C8.73658353,58.9285714 7.85714286,59.8080121 7.85714286,60.8928571 C7.85714286,61.9777022 8.73658353,62.8571429 9.82142857,62.8571429 L9.82142857,62.8571429 L15.7142857,62.8571429 C16.7991308,62.8571429 17.6785714,61.9777022 17.6785714,60.8928571 C17.6785714,59.8080121 16.7991308,58.9285714 15.7142857,58.9285714 L15.7142857,58.9285714 Z M64.8214286,49.1071429 L29.4642857,49.1071429 C28.3794407,49.1071429 27.5,49.9865835 27.5,51.0714286 C27.5,52.1562736 28.3794407,53.0357143 29.4642857,53.0357143 L29.4642857,53.0357143 L64.8214286,53.0357143 C65.9062736,53.0357143 66.7857143,52.1562736 66.7857143,51.0714286 C66.7857143,49.9865835 65.9062736,49.1071429 64.8214286,49.1071429 L64.8214286,49.1071429 Z M19.6428571,49.1071429 L9.82142857,49.1071429 C8.73658353,49.1071429 7.85714286,49.9865835 7.85714286,51.0714286 C7.85714286,52.1562736 8.73658353,53.0357143 9.82142857,53.0357143 L9.82142857,53.0357143 L19.6428571,53.0357143 C20.7277022,53.0357143 21.6071429,52.1562736 21.6071429,51.0714286 C21.6071429,49.9865835 20.7277022,49.1071429 19.6428571,49.1071429 L19.6428571,49.1071429 Z M64.8214286,39.2857143 L55,39.2857143 C53.915155,39.2857143 53.0357143,40.165155 53.0357143,41.25 C53.0357143,42.334845 53.915155,43.2142857 55,43.2142857 L55,43.2142857 L64.8214286,43.2142857 C65.9062736,43.2142857 66.7857143,42.334845 66.7857143,41.25 C66.7857143,40.165155 65.9062736,39.2857143 64.8214286,39.2857143 L64.8214286,39.2857143 Z M45.1785714,39.2857143 L9.82142857,39.2857143 C8.73658353,39.2857143 7.85714286,40.165155 7.85714286,41.25 C7.85714286,42.334845 8.73658353,43.2142857 9.82142857,43.2142857 L9.82142857,43.2142857 L45.1785714,43.2142857 C46.2634165,43.2142857 47.1428571,42.334845 47.1428571,41.25 C47.1428571,40.165155 46.2634165,39.2857143 45.1785714,39.2857143 L45.1785714,39.2857143 Z M64.8214286,29.4642857 L9.82142857,29.4642857 C8.73658353,29.4642857 7.85714286,30.3437264 7.85714286,31.4285714 C7.85714286,32.5134165 8.73658353,33.3928571 9.82142857,33.3928571 L9.82142857,33.3928571 L64.8214286,33.3928571 C65.9062736,33.3928571 66.7857143,32.5134165 66.7857143,31.4285714 C66.7857143,30.3437264 65.9062736,29.4642857 64.8214286,29.4642857 L64.8214286,29.4642857 Z" id="Combined-Shape"></path>
                <path d="M15.7142857,13.75 L15.7142857,2.7775 L2.7775,15.7142857 L13.75,15.7142857 C14.834845,15.7142857 15.7142857,14.834845 15.7142857,13.75 Z" id="Path"></path>
            </g>
        </g>
    </g>
</svg>