<?xml version="1.0" encoding="UTF-8"?>
<svg width="110px" height="110px" viewBox="0 0 110 110" version="1.1" xmlns="http://www.w3.org/2000/svg" xmlns:xlink="http://www.w3.org/1999/xlink">
    <title>4_regulatory@svg</title>
    <g id="4_regulatory" stroke="none" stroke-width="1" fill="none" fill-rule="evenodd">
        <path d="M39.3,55.4031107 L66.6,69.0031107 C68,69.7031107 68.6,71.4031107 68,72.9031107 L67.5,74.2031107 C67,75.8031107 65.4,76.6031107 64,76.0031107 L44.1,68.1031107 C43.2,67.7031107 42.1,68.3031107 41.8,69.3031107 C41.5,70.3031107 42,71.5031107 42.9,71.9031107 L62.9,79.8031107 C63.6,80.1031107 64.3,80.2031107 65,80.2031107 C67.3,80.2031107 69.5,78.8031107 70.6,76.6031107 L105.5,67.0031107 C106.6,66.7031107 107.7,66.9031107 108.6,67.5031107 C109.5,68.1031107 110.2,69.1031107 110.4,70.3031107 C110.8,72.4031107 109.8,74.6031107 107.9,75.4031107 L58.8,96.1031107 C57.9,96.5031107 56.9,96.5031107 56,96.1031107 L23.8,83.5031107 L23.8,62.4031107 L35.7,55.5031107 C36.8,54.9031107 38.1,54.8031107 39.3,55.4031107 Z M18.6,60.8031107 L18.6,96.1031107 L-3.55271368e-13,96.1031107 L-3.55271368e-13,60.8031107 L18.6,60.8031107 Z M64.298946,15.026087 L69.1474308,30.026087 L83.5413702,30.026087 L71.7231884,39.5715415 L76.3444005,55.026087 L64.298946,45.4048748 L52.329249,55.026087 L56.9504611,39.4957839 L45.0565217,30.026087 L59.5262187,30.026087 L64.298946,15.026087 Z" id="Combined-Shape" fill="#0A4CA4" fill-rule="nonzero"></path>
    </g>
</svg>