<?xml version="1.0" encoding="UTF-8"?>
<svg width="104px" height="111px" viewBox="0 0 104 111" version="1.1" xmlns="http://www.w3.org/2000/svg" xmlns:xlink="http://www.w3.org/1999/xlink">
    <title>5_Co-commercialisation</title>
    <g id="Page-1" stroke="none" stroke-width="1" fill="none" fill-rule="evenodd">
        <g id="5_Co-commercialisation" transform="translate(0.800000, 0.700000)" fill="#0A4CA4" fill-rule="nonzero">
            <path d="M36.3888889,72.037037 L61.6666667,84.6296296 C62.962963,85.2777778 63.5185185,86.8518519 62.962963,88.2407407 L62.5,89.4444444 L62.5,89.4444444 C62.037037,90.9259259 60.5555556,91.6666667 59.2592593,91.1111111 L40.8333333,83.7962963 C40,83.4259259 38.9814815,83.9814815 38.7037037,84.9074074 C38.4259259,85.8333333 38.8888889,86.9444444 39.7222222,87.3148148 L58.2407407,94.6296296 C58.8888889,94.9074074 59.537037,95 60.1851852,95 C62.3148148,95 64.3518519,93.7037037 65.3703704,91.6666667 L97.6851852,82.7777778 C98.7037037,82.5 99.7222222,82.6851852 100.555556,83.2407407 C101.388889,83.7962963 102.037037,84.7222222 102.222222,85.8333333 C102.592593,87.7777778 101.666667,89.8148148 99.9074074,90.5555556 L54.4444444,109.722222 C53.6111111,110.092593 52.6851852,110.092593 51.8518519,109.722222 L22.037037,98.0555556 L22.037037,78.5185185 L33.0555556,72.1296296 C34.0740741,71.5740741 35.2777778,71.4814815 36.3888889,72.037037 Z M17.2222222,77.037037 L17.2222222,109.722222 L0,109.722222 L0,77.037037 L17.2222222,77.037037 Z M45.0775505,52.7498207 L45.0775505,62.6375062 L31.7234924,62.6375062 L31.7234924,52.7498207 L45.0775505,52.7498207 Z M78.093328,35.8725644 L78.093328,62.6375062 L64.6256184,62.6375062 L64.6256184,35.8725644 L78.093328,35.8725644 Z M61.5570263,23.5413704 L61.5570263,62.5806805 L48.2029683,62.5806805 L48.2029683,23.5413704 L61.5570263,23.5413704 Z M94.6296296,25.5302726 L94.6296296,62.5806805 L81.16192,62.5806805 L81.16192,25.5302726 L94.6296296,25.5302726 Z M56.2154031,0 L74.6269555,17.3318625 L87.9810135,3.92097874 L88.6866667,3.254 L84.003209,3.25456733 L84.003209,0.185975276 L94.1181976,0.185975276 L94.1181976,10.1304866 L91.0496056,10.1304866 L91.0486667,5.28 L90.1403931,6.13718412 L74.6837813,21.593796 L56.3290547,4.31875919 L31.6666667,30.060837 L31.7803182,25.6284263 L56.2154031,0 Z" id="Combined-Shape"></path>
        </g>
    </g>
</svg>