<?xml version="1.0" encoding="UTF-8"?>
<svg width="109px" height="110px" viewBox="0 0 109 110" version="1.1" xmlns="http://www.w3.org/2000/svg" xmlns:xlink="http://www.w3.org/1999/xlink">
    <title>5_Emerging Biotech</title>
    <g id="Page-1" stroke="none" stroke-width="1" fill="none" fill-rule="evenodd">
        <g id="Balance">
            <path d="M18.4507165,0.177285886 C19.0820848,0.540588564 19.2982526,1.34617277 18.9331399,1.97537088 C18.7382263,2.3128409 18.6886329,2.69163083 18.757869,3.04736728 L18.7947397,3.19822664 L18.9041417,2.89810703 C19.1175183,2.31087611 20.0442907,2.27633311 20.3415962,2.79447805 L20.3896366,2.89810703 L20.8615152,4.19072743 C21.1417049,4.08015705 21.3899375,3.90866014 21.5672003,3.66794736 L21.649737,3.54178461 L22.3087853,2.40185664 L51.0591088,18.9900463 L51.0591088,18.0765244 L53.9101518,18.0765244 L50.9707963,14.2236732 L55.277018,3.16926773 L59.5832396,14.2236732 L56.6438842,18.0765244 L59.4962452,18.0765244 L59.4962452,23.7564195 L89.5699377,41.1725708 L88.9122075,42.3098661 C88.7579902,42.5757615 88.7171292,42.8745648 88.7342645,43.1746844 C88.9662495,42.614709 89.867262,42.5864333 90.1581758,43.0975393 L90.2052603,43.1996944 L90.7127275,44.5884057 C91.0989298,44.4752027 91.4258178,44.2277357 91.6288046,43.8762798 C91.9939174,43.2457654 92.8019106,43.0312062 93.4293246,43.3945089 C94.0606929,43.7578116 94.2768608,44.5633958 93.911748,45.1925939 C93.4360165,46.016404 92.7053386,46.6271114 91.8337534,46.9729503 L91.6129875,47.053862 L105.667852,85.5481501 L109,85.5481501 C109,90.9015994 100.228067,95.2401705 89.4064937,95.2401705 C78.7211238,95.2401705 70.0325266,91.0080633 69.819622,85.7459557 L69.8156237,85.5481501 L73.2519016,85.5481501 L87.5835661,46.3114608 C86.9205635,45.7612416 86.4381402,45.0293709 86.2101094,44.1803484 C86.0578693,43.6159787 86.0257201,43.0374998 86.1101298,42.4757757 L86.1534313,42.2361525 L57.787992,25.8111858 L57.787992,91.8756718 L60.0313925,91.8756718 L60.0313925,96.2353039 L68.2484068,96.2353039 C72.2036984,96.2353039 75.424768,99.3730186 75.5520287,103.292052 L75.5559345,103.532949 L75.5559345,104.329319 L81.1802527,104.329319 L81.1802527,110 L29.3737832,110 L29.3737832,104.329319 L34.9981015,104.329319 L34.9981015,103.532949 C34.9981015,99.5830065 38.1400652,96.366293 42.0656464,96.2392044 L42.3069472,96.2353039 L50.5239615,96.2353039 L50.5239615,91.8756718 L52.767362,91.8756718 L52.767362,25.3491595 L51.0591088,25.3491595 L51.0591088,22.0294155 L23.0917347,5.89403782 C22.7720963,6.17814227 22.4011985,6.39551691 22.0042134,6.56596739 L21.7630933,6.66276523 L35.8522281,45.2465628 L39.1843763,45.2465628 C39.1843763,50.600012 30.4124433,54.9385831 19.5908701,54.9385831 C8.90550013,54.9385831 0.216902934,50.706476 0.00399828916,45.4443684 L0,45.2465628 L3.43759599,45.2465628 L17.7442167,6.07437285 C16.0965959,4.81202767 15.5851744,2.50321282 16.6501965,0.659056829 C17.0153093,0.0285423975 17.8246206,-0.187333107 18.4507165,0.177285886 Z M88.9389589,48.4010297 C88.8834646,48.4222052 88.8402535,48.4669514 88.8210274,48.5231508 L76,86 L103.5,86 L89.1971187,48.516587 C89.1577401,48.4133879 89.042158,48.3616511 88.9389589,48.4010297 Z M19.4366103,7.41900353 C19.3791105,7.43943107 19.3340821,7.4849909 19.3143305,7.54272632 L6.5,45 L33,45 L19.6920236,7.54051085 C19.6550465,7.43642708 19.540694,7.38202641 19.4366103,7.41900353 Z" id="Combined-Shape" fill="#0A4CA4" fill-rule="nonzero"></path>
            <g id="noun_Light_1570737" transform="translate(81.000000, 65.000000)" fill="#0A4CA4" fill-rule="nonzero">
                <g id="Group" transform="translate(0.000000, 0.000000)">
                    <path d="M9.00000002,0 C8.76330002,0 8.57142859,0.191871428 8.57142859,0.428571428 L8.57142859,2.14285714 C8.57142859,2.37955714 8.76330002,2.57142857 9.00000002,2.57142857 C9.23670002,2.57142857 9.42857145,2.37955714 9.42857145,2.14285714 L9.42857145,0.428571428 C9.42857145,0.191871428 9.23670002,0 9.00000002,0 Z M2.93974289,2.51116071 C2.83005004,2.51116071 2.72209289,2.55469285 2.63839289,2.63839285 C2.47103575,2.80574999 2.47103575,3.07369285 2.63839289,3.24107142 L3.85045718,4.45312499 C4.01777146,4.62048213 4.28575718,4.62048213 4.45311432,4.45312499 C4.62049289,4.28576785 4.62049289,4.01782499 4.45311432,3.85044642 L3.24107146,2.63839285 C3.15739289,2.55469285 3.04939289,2.51116071 2.93974289,2.51116071 Z M15.0602571,2.51116071 C14.9506072,2.51116071 14.8426286,2.55469285 14.7589286,2.63839285 L13.5468857,3.85044642 C13.3795072,4.01782499 13.3795072,4.28576785 13.5468857,4.45312499 C13.7142429,4.62048213 13.9822072,4.62048213 14.1495429,4.45312499 L15.3616071,3.24107142 C15.5289643,3.07369285 15.5289643,2.80574999 15.3616071,2.63839285 C15.2779071,2.55469285 15.1699714,2.51116071 15.0602571,2.51116071 Z M9.00000002,3.85714071 C6.38674288,3.85714071 3.85714289,5.88460499 3.85714289,8.75224069 C3.85714289,12.4730378 6.64285717,13.2522235 6.64285717,15.8571407 L11.3571429,15.8571407 C11.3571429,13.2522235 14.1428572,12.4730378 14.1428572,8.75223855 C14.1428572,5.88460284 11.6132572,3.85714071 9.00000002,3.85714071 L9.00000002,3.85714071 Z M7.68081431,5.15624999 C7.68302856,5.15623283 7.68524291,5.15623283 7.68745717,5.15624999 C7.69861005,5.15581418 7.70977571,5.15581418 7.7209286,5.15624999 C7.92799064,5.15722828 8.10474776,5.30609413 8.14092527,5.50997359 C8.17710279,5.71385305 8.06235545,5.91444509 7.86827145,5.98660499 C6.82401431,6.38035498 6.0392786,7.30501927 5.83924289,8.43081212 C5.79670907,8.66380725 5.57334873,8.81820665 5.3403536,8.77567284 C5.10735847,8.73313902 4.95295907,8.50977868 4.99549289,8.27678355 C5.24875717,6.85150498 6.23571431,5.68921284 7.56021431,5.18973213 C7.59854591,5.17273446 7.6391643,5.16145357 7.68077145,5.15624999 L7.68081431,5.15624999 Z M0.428571428,8.57142641 C0.191871428,8.57142641 3.80647893e-16,8.76329784 3.80647893e-16,8.99999784 C3.80647893e-16,9.23669784 0.191871428,9.42856926 0.428571428,9.42856926 L2.14285718,9.42856926 C2.37955718,9.42856926 2.57142861,9.23669784 2.57142861,8.99999784 C2.57142861,8.76329784 2.37955718,8.57142641 2.14285718,8.57142641 L0.428571428,8.57142641 Z M15.8571429,8.57142641 C15.6204429,8.57142641 15.4285714,8.76329784 15.4285714,8.99999784 C15.4285714,9.23669784 15.6204429,9.42856926 15.8571429,9.42856926 L17.5714286,9.42856926 C17.8081286,9.42856926 18,9.23669784 18,8.99999784 C18,8.76329784 17.8081286,8.57142641 17.5714286,8.57142641 L15.8571429,8.57142641 Z M6.64285717,16.7142878 L6.64285717,17.5714307 L11.3571429,17.5714307 L11.3571429,16.7142878 L6.64285717,16.7142878 Z M6.64285717,18.4285735 C6.64285717,18.9210235 7.04775003,19.2857164 7.50000003,19.2857164 L10.5,19.2857164 C10.95225,19.2857164 11.3571429,18.9210235 11.3571429,18.4285735 L6.64285717,18.4285735 Z M8.14285717,19.7142878 C8.14285717,20.189145 8.52514288,20.5714307 9.00000002,20.5714307 C9.47485716,20.5714307 9.85714288,20.189145 9.85714288,19.7142878 L8.14285717,19.7142878 Z" id="Shape"></path>
                </g>
            </g>
            <g id="icon-3" transform="translate(11.000000, 27.000000)">
                <rect id="Rectangle" x="0" y="0" width="20" height="20"></rect>
                <path d="M16.4415128,12.6138962 L18.8557608,14.6059807 L19.4890062,15.1336851 L19.4873333,15.1346667 L19.5021988,15.1468777 L16.4415128,17.6666667 L16.4413333,17.6306667 L16.4151275,17.6534741 L16.4151275,16.2286719 C16.4151275,16.1890941 16.4151275,16.1627089 16.3887423,16.1495163 L16.3965045,16.1548698 C16.3786538,16.1427966 16.3573128,16.1363237 16.3359719,16.1363237 L12.2198769,16.1363237 L12.2373333,16.1226667 L12.1934916,16.123131 L12.1934916,16.123131 L12.3869833,15.9902277 C12.513046,15.9003225 12.6332454,15.8065084 12.7475814,15.7009675 C12.9322779,15.5558487 13.1037819,15.3975374 13.2620932,15.2260334 C13.3412489,15.1468777 13.4204046,15.0677221 13.4995602,14.9753738 C13.7370273,14.7115215 13.9481091,14.4344767 14.1328056,14.1442392 L14.1328056,14.1442392 L16.3227792,14.1442392 C16.3623571,14.1442392 16.3887423,14.1310466 16.4019349,14.117854 C16.4283201,14.0914688 16.4415128,14.0650836 16.4415128,14.0386983 L16.4415128,14.0386983 L16.4415128,12.6138962 Z M8.31486368,2.66666667 L8.31486368,4.117854 C8.31486368,4.17062445 8.35444151,4.2233949 8.42040457,4.2233949 C9.89797713,4.35532102 11.2700088,5.02814424 12.2726473,6.12313105 C13.3016711,7.23131047 13.8557608,8.66930519 13.8557608,10.173263 C13.8557608,11.7563764 13.235708,13.2471416 12.1275286,14.3817062 C11.0061566,15.5030783 9.51539138,16.1363237 7.93227792,16.1363237 L0.333333333,16.1363237 L0.333333333,14.1442392 L7.87950748,14.1574318 C10.0694811,14.1574318 11.8636763,12.3764292 11.8636763,10.173263 C11.8636763,9.21020229 11.5206684,8.28671944 10.8742304,7.56112577 C10.2541777,6.84872471 9.38346526,6.38698329 8.4467898,6.24186456 C8.42040457,6.24186456 8.38082674,6.24186456 8.35444151,6.26824978 C8.32805629,6.294635 8.31486368,6.32102023 8.31486368,6.34740545 L8.31486368,7.7062445 L5.28056288,5.18645558 L8.31486368,2.66666667 Z M10.0694811,8.15479332 L10.9797713,9.06508355 L7.11433597,12.9305189 L4.7528584,10.5690413 L5.66314864,9.6587511 L7.11433597,11.1099384 L10.0694811,8.15479332 Z M3.882146,5.74054529 L5.43887423,7.03342128 L5.43733333,7.03366667 L5.45206684,7.0466139 C4.54919745,7.75159411 3.99418013,8.81602147 3.9283298,9.94639578 L3.92172383,10.1600704 L3.92172383,10.1600704 C3.92172383,11.1495163 4.27792436,12.0729991 4.93755497,12.8117854 L4.92633333,12.8116667 L4.93755497,12.824978 L2.5760774,12.824978 C2.57390646,12.8206361 2.57173552,12.8162943 2.56956459,12.8119524 L2.56288478,12.8117854 C2.1407212,11.9674582 1.91644679,11.0703606 1.91644679,10.1600704 C1.91644679,8.48460862 2.62884785,6.87510994 3.882146,5.74054529 Z" id="agile" fill="#0A4CA4" fill-rule="nonzero"></path>
            </g>
        </g>
    </g>
</svg>