<?xml version="1.0" encoding="UTF-8"?>
<svg width="86px" height="94px" viewBox="0 0 86 94" version="1.1" xmlns="http://www.w3.org/2000/svg" xmlns:xlink="http://www.w3.org/1999/xlink">
    <title>5_Medical Technology</title>
    <g id="Page-1" stroke="none" stroke-width="1" fill="none" fill-rule="evenodd">
        <g id="5_Medical-Technology" fill="#0A4CA4" fill-rule="nonzero">
            <path d="M12.95,0 L12.95,2.2 C13.48,2.16 14.02,2.14 14.56,2.14 C25.02,2.14 33.5,10.76 33.5,21.38 C33.5,25.97 31.92,30.17 29.29,33.48 L29.29,84.55 L13.1,74.38 L12.95,74.5 L12.95,94 L86,94 L86,0 L12.95,0 Z M36.41,80.609 L73.859,80.609 C75.2,80.609 76.29,81.71 76.29,83.07 C76.29,84.439 75.2,85.54 73.859,85.54 L36.41,85.54 C35.07,85.54 33.98,84.439 33.98,83.07 C33.98,81.71 35.07,80.609 36.41,80.609 Z M36.41,67.439 L73.859,67.439 C75.2,67.439 76.29,68.549 76.29,69.91 C76.29,71.279 75.2,72.38 73.859,72.38 L36.41,72.38 C35.07,72.38 33.98,71.279 33.98,69.91 C33.98,68.55 35.07,67.439 36.41,67.439 Z M36.41,54.279 L73.859,54.279 C75.2,54.279 76.29,55.39 76.29,56.75 C76.29,58.12 75.2,59.221 73.859,59.221 L36.41,59.221 C35.07,59.221 33.98,58.12 33.98,56.75 C33.98,55.391 35.07,54.279 36.41,54.279 Z M0,21.38 C0,24.91 1.21,28.15 3.24,30.7 L3.24,78.96 L13.84,69.09 L25.89,78.96 L25.89,30.7 C27.92,28.15 29.13,24.91 29.13,21.38 C29.13,13.21 22.61,6.58 14.56,6.58 C6.52,6.58 0,13.21 0,21.38 Z M6,20.5 C6,15.81 9.81,12 14.5,12 C19.19,12 23,15.81 23,20.5 C23,25.19 19.19,29 14.5,29 C9.81,29 6,25.19 6,20.5 Z" id="Shape"></path>
        </g>
    </g>
</svg>