<?xml version="1.0" encoding="UTF-8"?>
<svg width="110px" height="110px" viewBox="0 0 110 110" version="1.1" xmlns="http://www.w3.org/2000/svg" xmlns:xlink="http://www.w3.org/1999/xlink">
    <title>5_medical_information_management@svg</title>
    <g id="5_medical_information_management" stroke="none" stroke-width="1" fill="none" fill-rule="evenodd">
        <path d="M99.4445539,37 L99.4445539,92.3146706 L109,92.3146706 L90.9994787,110 L73,92.3146706 L82.5544035,92.3146706 L82.5554461,37 L99.4445539,37 Z M51.7036452,0 C72.7600232,0 90.7582565,13.0398273 98.0005918,31.4532675 L77.7980589,31.453125 L77.7990944,87.140625 L60.9862836,87.140625 L69.5823092,95.7010538 C64.0343185,97.8318325 58.0059632,99 51.7036452,99 C24.2530799,99 2,76.8380951 2,49.5 C2,22.1619049 24.2530799,0 51.7036452,0 Z M55.7197243,17.53125 L46.6520735,17.53125 L46.6520735,23.7785663 C38.8495586,25.2516773 33.0647783,30.5269939 33.0647783,37.8740251 C33.0647783,46.5995995 39.2030673,51.0091832 48.9260766,54.0041513 C53.4457212,55.454839 57.2259348,56.7524635 57.2259348,59.9697144 C57.2259348,63.1752663 54.5153636,65.490712 51.1858989,65.490712 C47.9321038,65.490712 45.2693905,62.9990527 45.1500387,59.8947843 L45.145863,59.6772371 L45.145863,58.2275243 L33.0647783,58.2275243 C33.0647783,66.2235933 38.6781672,72.9491313 46.3040682,74.993313 L46.6520735,75.0829944 L46.6520735,81.46875 L55.7197243,81.46875 L55.7197243,75.2224086 C63.5212263,73.7483227 69.3070196,68.4730061 69.3070196,61.1269498 C69.3070196,52.4013754 63.3267459,48.026889 53.4457212,44.9968236 C48.20893,43.3950226 45.145863,42.2485114 45.145863,39.0312605 C45.145863,35.8266836 47.8564342,33.5102629 51.1858989,33.5102629 C54.439694,33.5102629 57.1024074,36.0019222 57.2217591,39.1061906 L57.2259348,39.3237378 L57.2259348,40.7744255 L69.3070196,40.7744255 C69.3070196,32.7773961 63.6926477,26.0527899 56.0676856,24.0077043 L55.7197243,23.9179805 L55.7197243,17.53125 Z" id="Combined-Shape" fill="#0A4CA4"></path>
    </g>
</svg>