<?xml version="1.0" encoding="UTF-8"?>
<svg width="103px" height="110px" viewBox="0 0 103 110" version="1.1" xmlns="http://www.w3.org/2000/svg" xmlns:xlink="http://www.w3.org/1999/xlink">
    <title>5_Patient Support</title>
    <g id="Page-1" stroke="none" stroke-width="1" fill="none" fill-rule="evenodd">
        <path d="M36.6098079,71.8065617 L62.0410485,84.4756047 C63.3452147,85.1276878 63.9041431,86.7113181 63.3452147,88.108639 L62.8794411,89.3196505 C62.4136674,90.8101261 60.9231918,91.555364 59.6190256,90.9964356 L41.0812348,83.6372121 C40.2428423,83.2645932 39.2181403,83.8235216 38.9386761,84.7550688 C38.6592119,85.6866161 39.1249856,86.8044728 39.9633781,87.1770918 L58.5943236,94.5363152 C59.2464067,94.8157794 59.8984898,94.9089341 60.5505729,94.9089341 C62.6931316,94.9089341 64.7425356,93.604768 65.7672376,91.555364 L98.2782375,82.6125101 C99.3029395,82.3330459 100.327642,82.5193554 101.166034,83.0782837 C102.004427,83.6372121 102.65651,84.5687594 102.842819,85.6866161 C103.215438,87.6428654 102.283891,89.6922694 100.513951,90.4375072 L54.7749798,109.720536 C53.9365872,110.093155 53.00504,110.093155 52.1666474,109.720536 L22.1708251,97.9830402 L22.1708251,78.3273926 L33.2562377,71.8997164 C34.2809397,71.3407881 35.4919512,71.2476334 36.6098079,71.8065617 Z M17.3267793,76.836917 L17.3267793,109.720536 L2.27373675e-13,109.720536 L2.27373675e-13,76.836917 L17.3267793,76.836917 Z M47.7393429,-1.42108547e-14 C48.8725348,-1.42108547e-14 49.6279961,0.755461299 49.6279961,1.88865325 C49.6279961,3.0218452 48.8725348,3.7773065 47.7393429,3.7773065 L39.9958646,3.7773065 L39.9958646,19.2642631 C39.9958646,29.2741253 48.1170735,37.3953343 58.1269357,37.3953343 C68.136798,37.3953343 76.2580069,29.2741253 76.2580069,19.2642631 L76.2580069,3.7773065 L68.5145286,3.7773065 C67.3813367,3.7773065 66.6258754,3.0218452 66.6258754,1.88865325 C66.6258754,0.755461299 67.3813367,-1.42108547e-14 68.5145286,-1.42108547e-14 L78.1466602,-1.42108547e-14 C79.0909868,-1.42108547e-14 80.0353134,0.944326624 80.0353134,1.88865325 L80.0353134,19.2642631 C80.0353134,30.5961826 71.1586432,40.0394489 60.015589,40.9837755 L60.015589,56.4707321 C60.015589,62.1366919 64.5483568,66.6694597 70.2143165,66.6694597 C75.8802763,66.6694597 80.4130441,62.1366919 80.4130441,56.4707321 L80.4130441,50.2381764 C77.9577948,49.4827151 76.0691416,47.2163312 76.0691416,44.3833513 C76.0691416,40.9837755 78.9021215,38.1507956 82.3016973,38.1507956 C85.7012732,38.1507956 88.534253,40.9837755 88.534253,44.3833513 C88.534253,47.2163312 86.6455998,49.4827151 84.1903506,50.2381764 L84.1903506,56.4707321 C84.1903506,64.2142104 77.9577948,70.4467662 70.2143165,70.4467662 C62.4708382,70.4467662 56.2382825,64.2142104 56.2382825,56.4707321 L56.2382825,40.9837755 C45.0952283,40.0394489 36.2185581,30.5961826 36.2185581,19.2642631 L36.2185581,1.88865325 C36.2185581,0.755461299 37.1628847,-1.42108547e-14 38.1072113,-1.42108547e-14 L47.7393429,-1.42108547e-14 Z M82.3016973,41.9281021 C80.97964,41.9281021 79.8464481,43.0612941 79.8464481,44.3833513 C79.8464481,45.7054086 80.97964,46.8386006 82.3016973,46.8386006 C83.6237546,46.8386006 84.7569465,45.7054086 84.7569465,44.3833513 C84.7569465,43.0612941 83.6237546,41.9281021 82.3016973,41.9281021 Z" id="5_Patient-Support" fill="#0A4CA4" fill-rule="nonzero"></path>
    </g>
</svg>