<?xml version="1.0" encoding="UTF-8"?>
<svg width="110px" height="110px" viewBox="0 0 110 110" version="1.1" xmlns="http://www.w3.org/2000/svg" xmlns:xlink="http://www.w3.org/1999/xlink">
    <title>5_regulatory_submissions_management@svg</title>
    <g id="5_regulatory_submissions_management" stroke="none" stroke-width="1" fill="none" fill-rule="evenodd">
        <g id="people" transform="translate(-0.000000, 0.214844)" fill="#0A4CA4" fill-rule="nonzero">
            <path d="M18.7711499,64.8702634 C24.8658493,64.8702634 29.8081246,69.8329489 29.8081246,75.9527851 C29.8081246,81.3279713 25.9950703,85.809191 20.9376386,86.8204625 C30.5332237,86.8204625 37.5422999,94.4815908 37.5422999,103.314049 L37.5422999,103.314049 L37.5422999,106.688607 C37.5422999,108.397477 36.1623558,109.785156 34.4584267,109.785156 L34.4584267,109.785156 L3.08387321,109.785156 C1.3799441,109.785156 -7.9225515e-13,108.397477 -7.9225515e-13,106.688607 L-7.9225515e-13,106.688607 L-7.9225515e-13,103.314049 C-7.9225515e-13,94.4442079 7.04925205,86.8204625 16.6046613,86.8204625 C11.5472296,85.809191 7.73417526,81.3279713 7.73417526,75.9527851 C7.73417526,69.8329489 12.6764505,64.8702634 18.7711499,64.8702634 Z M91.2290649,64.8702634 C97.3237643,64.8702634 102.26604,69.8329489 102.26604,75.9527851 C102.26604,81.3279713 98.4529853,85.809191 93.3955535,86.8204625 C102.971588,86.8204625 110,94.4631142 110,103.314049 L110,103.314049 L110,106.688392 C110,108.397262 108.617907,109.784941 106.916127,109.784941 L106.916127,109.784941 L75.5415733,109.784941 C73.8376442,109.784941 72.4577001,108.397262 72.4577001,106.688392 L72.4577001,106.688392 L72.4577001,103.313835 C72.4577001,94.46204 79.4846084,86.8204625 89.0619318,86.8204625 C84.0036406,85.809191 80.1920902,81.3279713 80.1920902,75.9527851 C80.1920902,69.8329489 85.1322171,64.8702634 91.2290649,64.8702634 Z M68.0671447,78.2419497 C69.7560347,77.6837845 71.5759796,78.608259 72.1296331,80.3038092 C72.6854349,81.9997891 71.7648277,83.8270387 70.0759376,84.3830554 C65.2752447,85.9668867 60.2257622,86.7772789 55.0624122,86.7966148 L55.0624122,86.7966148 L54.8864549,86.7966148 C49.8453513,86.7966148 44.903076,86.0382149 40.194766,84.5426847 C38.4994307,84.0040703 37.5594874,82.1897113 38.0959533,80.4872861 C38.6324192,78.7848609 40.4394735,77.8410505 42.1348089,78.3798796 C46.2144848,79.6749603 50.5064268,80.3321686 54.8864549,80.3321686 L54.8864549,80.3321686 L55.0624122,80.3300202 C59.5410538,80.3149811 63.9146366,79.6124406 68.0671447,78.2419497 Z M25.3892097,23.3486198 C26.6692513,22.1098283 28.7070483,22.1474261 29.9408983,23.4326239 C31.1747484,24.7180366 31.1373655,26.7644273 29.8573239,28.0032188 C26.7771031,30.9846113 24.1551448,34.4569228 22.0642814,38.3234733 C19.8977928,42.3301022 18.3973211,46.5790753 17.6047609,50.9520136 C17.3218112,52.5126416 15.966789,53.6061984 14.4413954,53.6061984 C14.2499692,53.6061984 14.0563946,53.5890109 13.8613161,53.5533468 C12.1122698,53.2336587 10.9523261,51.5507843 11.2705103,49.7944332 C12.1855316,44.7460249 13.9135233,39.8488669 16.4063602,35.2387407 C18.8117555,30.7901773 21.8341833,26.7897789 25.3892097,23.3486198 Z M80.1834965,23.432409 C81.4173465,22.1472112 83.4551435,22.1093987 84.735185,23.348405 C88.2902115,26.7893492 91.3126393,30.7899625 93.7180346,35.2385259 C96.2108715,39.8484372 97.9388632,44.7458101 98.8538845,49.7942183 C99.1722835,51.5505694 98.0123399,53.2334438 96.2632935,53.5531319 C96.0684298,53.5887961 95.8744255,53.6059836 95.6832142,53.6059836 C94.1576058,53.6059836 92.8027984,52.5126416 92.5198487,50.9517987 C91.7272885,46.5788605 90.2268168,42.3301022 88.0603282,38.3232584 C85.9694648,34.4567079 83.3475065,30.9843965 80.2670708,28.0030039 C78.9872441,26.7639976 78.9496464,24.7178217 80.1834965,23.432409 Z M55.0621974,-4.26325641e-14 C61.1568968,-4.26325641e-14 66.0991721,4.96053703 66.0991721,11.0803732 C66.0991721,16.4572782 62.2863326,20.936994 57.2291157,21.9480507 C66.80515,21.9480507 73.8333473,29.5913469 73.8333473,38.4414227 L73.8333473,38.4414227 L73.8333473,41.8159801 C73.8333473,43.5269991 72.4534032,44.9125291 70.7494741,44.9125291 L70.7494741,44.9125291 L39.3749207,44.9125291 C37.6709915,44.9125291 36.2910474,43.5267842 36.2910474,41.8159801 L36.2910474,41.8159801 L36.2910474,38.4414227 C36.2910474,29.5795304 43.3317057,21.9480507 52.8952791,21.9480507 C47.8380622,20.936994 44.0252227,16.4572782 44.0252227,11.0803732 C44.0252227,4.96053703 48.967498,-4.26325641e-14 55.0621974,-4.26325641e-14 Z" id="Combined-Shape"></path>
        </g>
    </g>
</svg>