<?xml version="1.0" encoding="UTF-8"?>
<svg width="110px" height="110px" viewBox="0 0 110 110" version="1.1" xmlns="http://www.w3.org/2000/svg" xmlns:xlink="http://www.w3.org/1999/xlink">
    <title>6_aggregate_reports_writing@svg</title>
    <g id="6_aggregate_reports_writing" stroke="none" stroke-width="1" fill="none" fill-rule="evenodd">
        <path d="M55.4,49.0010583 C61.8,49.0010583 68,51.0010583 73,54.9010583 C74.1,55.7010583 75.1,56.6010583 76.1,57.6010583 C77.2,58.7010583 78,59.6010583 78.7,60.6010583 C79.1,61.2010583 79.6,61.8010583 80,62.5010583 C82.9,67.0010583 84.6,72.6010583 84.6,78.3010583 L84.6,78.3010583 L84.6,97.3010583 L26,97.3010583 L26,78.3010583 C26,72.7010583 27.7,67.2010583 30.7,62.5010583 C31.2,61.7010583 31.7,61.1010583 32.2,60.4010583 C33.9,58.3010583 35.7,56.5010583 37.8,54.9010583 C42.8,51.1010583 48.9,49.0010583 55.4,49.0010583 Z M88.1,49.0010583 C94.1,49.0010583 99.7,51.3010583 103.9,55.5010583 C108.2,59.8010583 110.5,65.4010583 110.5,71.4010583 L110.5,90.4010583 L89.6,90.4010583 L89.6,78.4010583 C89.6,71.8010583 87.9,65.1010583 84.4,59.8010583 C83.9,59.0010583 83.3,58.2010583 82.9,57.7010583 C82.1,56.5010583 81.1,55.4010583 79.7,54.0010583 C78.9,53.2010583 77.9,52.6010583 77.1,51.9010583 C80.3,50.1010583 84.3,49.0010583 88.1,49.0010583 Z M22.4,48.9010583 C26.3,49.0010583 30.1,50.0010583 33.4,51.8010583 C31.5,53.4010583 29.6,55.1010583 28,57.1010583 C27.4,57.9010583 26.8,58.7010583 26.2,59.6010583 C22.6,65.2010583 20.9,71.8010583 20.9,78.4010583 L20.9,90.3010583 L-2.23820962e-13,90.3010583 L-2.23820962e-13,71.3010583 C-2.23820962e-13,58.9010583 10.1,48.9010583 22.4,48.9010583 Z M55.3,13.0010583 C63.8,13.0010583 70.8,19.9010583 70.8,28.5010583 C70.8,37.1010583 63.8,44.0010583 55.3,44.0010583 C46.8,44.0010583 39.8,37.0010583 39.8,28.5010583 C39.8,19.9010583 46.8,13.0010583 55.3,13.0010583 Z M103.6,28.5010583 C103.6,37.1010583 96.6,44.0010583 88.1,44.0010583 C79.5,44.0010583 72.6,37.0010583 72.6,28.5010583 C72.6,19.9010583 79.6,13.0010583 88.1,13.0010583 C96.6,12.9010583 103.6,19.9010583 103.6,28.5010583 Z M22.5,13.0010583 C31,13.0010583 38,19.9010583 38,28.5010583 C38,37.1010583 31,44.0010583 22.5,44.0010583 C14,44.0010583 7,37.0010583 7,28.5010583 C7,19.9010583 14,13.0010583 22.5,13.0010583 Z" id="Combined-Shape" fill="#0A4CA4" fill-rule="nonzero"></path>
    </g>
</svg>