<?xml version="1.0" encoding="UTF-8"?>
<svg width="110px" height="110px" viewBox="0 0 110 110" version="1.1" xmlns="http://www.w3.org/2000/svg" xmlns:xlink="http://www.w3.org/1999/xlink">
    <title>6_clinical_trial_disclosures_@svg</title>
    <g id="6_clinical_trial_disclosures_" stroke="none" stroke-width="1" fill="none" fill-rule="evenodd">
        <g id="workflow" fill="#0A4CA4" fill-rule="nonzero">
            <path d="M110,64.6679688 L110,110 L64.6679688,110 L64.6679688,64.6679688 L110,64.6679688 Z M22.6660156,64.6679688 C35.1841104,64.6679688 45.3320312,74.8158896 45.3320312,87.3339844 C45.3320312,99.8520791 35.1841104,110 22.6660156,110 C10.1479209,110 0,99.8520791 0,87.3339844 C0,74.8158896 10.1479209,64.6679688 22.6660156,64.6679688 Z M25.8886719,51.7773438 L25.8886719,58.4018359 C24.8301367,58.2847461 23.7552734,58.2226563 22.6660156,58.2226563 C21.5767578,58.2226563 20.5018945,58.2847461 19.4433594,58.4018359 L19.4433594,58.4018359 L19.4433594,51.7773438 L25.8886719,51.7773438 Z M90.5566406,51.5981641 L90.5566406,58.2226562 L84.1113281,58.2226562 L84.1113281,51.5981641 C85.1698633,51.7152539 86.2447266,51.7773437 87.3339844,51.7773437 C88.4232422,51.7773437 89.4981055,51.7152539 90.5566406,51.5981641 L90.5566406,51.5981641 Z M45.3320312,0 L45.3320312,45.3320312 L0,45.3320312 L0,0 L45.3320312,0 Z M87.3339844,0 C99.8520791,0 110,10.1479209 110,22.6660156 C110,35.1841104 99.8520791,45.3320312 87.3339844,45.3320312 C74.8158896,45.3320312 64.6679688,35.1841104 64.6679688,22.6660156 C64.6679688,10.1479209 74.8158896,0 87.3339844,0 Z M58.4020508,19.4433594 C58.2847461,20.5018945 58.2226562,21.5767578 58.2226562,22.6660156 C58.2226562,23.7552734 58.2847461,24.8301367 58.4020508,25.8886719 L58.4020508,25.8886719 L51.7773437,25.8886719 L51.7773437,19.4433594 Z" id="Combined-Shape"></path>
        </g>
    </g>
</svg>