<?xml version="1.0" encoding="UTF-8"?>
<svg width="98px" height="110px" viewBox="0 0 98 110" version="1.1" xmlns="http://www.w3.org/2000/svg" xmlns:xlink="http://www.w3.org/1999/xlink">
    <title>6_Co-Promotion</title>
    <g id="Page-1" stroke="none" stroke-width="1" fill="none" fill-rule="evenodd">
        <g id="6_Co-Promotion" transform="translate(0.000000, 0.000000)" fill-rule="nonzero">
            <path d="M75.8430133,51.632377 C90.313971,51.632377 96.9127277,61.1253253 97.1442631,61.5883959 C97.9546367,62.8618402 97.9546367,64.4825875 97.1442631,65.8717994 L97.1442631,65.8717994 L90.661274,75.0174447 C89.9666681,75.943586 88.8089914,76.5224243 87.6513148,76.5224243 C86.8409412,76.5224243 86.1463352,76.290889 85.4517293,75.8278183 C85.2201939,75.7120506 84.9886586,75.4805153 84.8728909,75.3647477 L84.8728909,75.3647477 L84.8728909,77.9116362 L87.1882442,105.46434 C87.3040118,107.779693 85.6832646,109.747743 83.3679113,109.979278 L83.3679113,109.979278 L83.0206084,109.979278 C80.8210228,109.979278 79.0845079,108.358531 78.8529725,106.158946 L78.8529725,106.158946 L76.653387,79.6481511 L75.264175,79.6481511 L73.0645895,106.158946 C72.8330541,108.474299 70.8650039,110.210814 68.5496507,109.979278 C66.2342974,109.747743 64.4977825,107.779693 64.7293178,105.46434 L64.7293178,105.46434 L67.0446711,77.9116362 L67.0446711,75.3647477 C66.8131357,75.4805153 66.6973681,75.7120506 66.4658328,75.8278183 C65.7712268,76.290889 64.9608532,76.5224243 64.2662472,76.5224243 C63.1085706,76.5224243 61.950894,76.0593536 61.256288,75.0174447 L61.256288,75.0174447 L54.7732989,65.8717994 C53.8471577,64.5983551 53.8471577,62.8618402 54.6575313,61.5883959 C54.8890666,61.1253253 61.3720557,51.632377 75.8430133,51.632377 Z M44.2694442,43.6385794 L44.4699771,43.6444084 C46.4380273,43.7601761 48.0587746,45.496691 47.9430069,47.5805089 C47.8272393,48.8539532 47.3641686,55.4527099 43.3123005,58.9257397 C41.5757855,60.4307193 39.2604323,61.1253253 36.8293114,60.89379 C34.3981905,60.546487 32.4301403,60.3149517 30.6936253,59.9676487 L30.6936253,59.9676487 L31.0409283,105.811643 C31.156696,108.126996 29.3044134,109.979278 26.9890602,109.979278 L26.7860014,109.984424 C24.5663515,109.985688 22.8214244,108.174665 22.8214244,105.92741 L22.8214244,105.92741 L22.4741214,79.6481511 L20.8533741,79.6481511 L14.6019204,106.737784 C14.1388497,108.705834 12.4023348,109.979278 10.5500522,109.979278 C10.2027493,109.979278 9.97121393,109.979278 9.62391095,109.863511 C7.42432538,109.40044 6.03511344,107.085087 6.61395175,104.885501 L6.61395175,104.885501 L12.9811731,77.5643332 L12.9811731,75.24898 C12.7496378,75.3647477 12.6338701,75.596283 12.4023348,75.7120506 C11.7077289,76.1751213 10.8973552,76.4066566 10.2027493,76.4066566 C9.04507264,76.4066566 7.88739603,75.943586 7.19279006,74.901677 L7.19279006,74.901677 L0.709801012,65.7560318 C-0.216340281,64.4825875 -0.216340281,62.7460726 0.59403335,61.4726283 C0.941336335,61.1253253 7.54009304,51.5166094 21.8952831,51.5166094 C25.7156159,51.5166094 28.3782721,51.97968 31.503999,52.4427507 C33.3562816,52.7900537 35.2085641,53.1373566 37.7554527,53.368892 C38.2185233,53.368892 38.334291,53.2531243 38.5658263,53.1373566 C39.7235029,52.0954477 40.4181089,48.9697208 40.5338766,47.1174382 C40.6496442,45.149388 42.3861592,43.5286407 44.4699771,43.6444084 Z M67.1604387,60.89379 C65.0766208,61.8199313 63.5716412,62.9776079 62.5297323,63.9037492 L62.5297323,63.9037492 L67.0446711,70.2709706 Z M13.0969408,60.89379 C11.0131229,61.8199313 9.50814329,62.9776079 8.46623433,63.9037492 L8.46623433,63.9037492 L12.9811731,70.1552029 Z M84.7571233,60.89379 L84.7571233,70.1552029 L89.2720621,63.9037492 C88.3459208,62.9776079 86.8409412,61.8199313 84.7571233,60.89379 L84.7571233,60.89379 Z M21.8952831,32.8780159 C26.4347898,32.8780159 30.114787,36.5580132 30.114787,41.0975198 C30.114787,45.6370265 26.4347898,49.3170238 21.8952831,49.3170238 C17.3557764,49.3170238 13.6757791,45.6370265 13.6757791,41.0975198 C13.6757791,36.5580132 17.3557764,32.8780159 21.8952831,32.8780159 Z M75.8430133,32.8780159 C80.38252,32.8780159 84.0625173,36.5580132 84.0625173,41.0975198 C84.0625173,45.6370265 80.38252,49.3170238 75.8430133,49.3170238 C71.3035067,49.3170238 67.6235094,45.6370265 67.6235094,41.0975198 C67.6235094,36.5580132 71.3035067,32.8780159 75.8430133,32.8780159 Z M54.1944606,-8.77520279e-13 C65.3081561,-8.77520279e-13 74.3380337,7.524898 74.3380337,16.9020786 C74.3380337,26.2792592 65.3081561,33.9199248 54.078693,33.6883895 C52.4579457,33.6883895 50.8371985,33.5726218 49.3322189,33.2253189 C47.1326333,35.3091368 43.0807651,38.2033283 36.8293114,38.5506313 C35.7874025,38.666399 35.2085641,37.3929547 35.9031701,36.582581 C37.8712204,34.4987631 39.3762,31.2572686 40.1865736,29.057683 C36.3662408,26.0477238 33.9351199,21.6485527 33.9351199,16.9020786 C33.9351199,7.524898 43.0807651,-8.77520279e-13 54.1944606,-8.77520279e-13 Z M48.5218452,13.6605841 L44.4699771,13.6605841 C44.1226741,13.6605841 43.7753711,14.007887 43.7753711,14.35519 L43.7753711,14.35519 L43.7753711,25.3531179 C43.7753711,25.7004209 44.1226741,26.0477238 44.4699771,26.0477238 L44.4699771,26.0477238 L48.5218452,26.0477238 C48.8691482,26.0477238 49.2164512,25.7004209 49.2164512,25.3531179 L49.2164512,25.3531179 L49.2164512,14.35519 C49.2164512,14.007887 48.8691482,13.6605841 48.5218452,13.6605841 L48.5218452,13.6605841 Z M57.7832581,6.83029203 C57.0886522,6.83029203 56.5098139,7.29336268 56.3940462,7.98796865 L56.3940462,7.98796865 L56.3468816,8.33511283 C56.1982416,9.25998369 55.8666602,10.1746911 55.3521373,10.9979278 C55.3521373,11.1136955 55.2363696,11.1136955 55.2363696,11.2294632 C54.425996,12.6186751 53.2683193,13.7763517 51.8791074,14.4709577 L51.8791074,14.4709577 L51.6475721,14.4709577 L51.6475721,24.7742796 C53.73139,25.4688855 55.5836726,25.7004209 57.6674905,25.7004209 L57.6674905,25.7004209 L61.4878233,25.7004209 C62.7612676,25.7004209 63.8031765,24.7742796 64.0347119,23.5008353 L64.0347119,23.5008353 L65.0766208,16.9020786 C65.3081561,15.2813313 64.1504795,13.8921194 62.5297323,13.8921194 L62.5297323,13.8921194 L58.9409348,13.8921194 C58.7093994,13.8921194 58.4778641,13.6605841 58.5936318,13.4290487 L58.5936318,13.4290487 L59.7513084,9.49294825 C60.0986114,8.10373631 59.1724701,6.83029203 57.7832581,6.83029203 Z" id="Combined-Shape" fill="#0A4CA4"></path>
            <circle id="Oval" fill="#000000" cx="46.4380273" cy="23.3850676" r="1.04190895"></circle>
        </g>
    </g>
</svg>