<?xml version="1.0" encoding="UTF-8"?>
<svg width="110px" height="86px" viewBox="0 0 110 86" version="1.1" xmlns="http://www.w3.org/2000/svg" xmlns:xlink="http://www.w3.org/1999/xlink">
    <title>6_Creative and Design</title>
    <defs>
        <polygon id="path-1" points="0 0 51.9998 0 51.9998 45.251 0 45.251"></polygon>
        <polygon id="path-3" points="0 0 51.9998 0 51.9998 45.251 0 45.251"></polygon>
    </defs>
    <g id="Page-1" stroke="none" stroke-width="1" fill="none" fill-rule="evenodd">
        <g id="6_Creative-and-Design" transform="translate(-0.000200, 0.000000)">
            <path d="M12.55,40.7483 C19.482,40.7483 25.1,46.3683 25.1,53.2983 L25.1,53.2983 L25.124,56.2013 L25.124,59.6663 L25.832,59.6683 L46.801,59.6853 C49.672,59.6853 52,62.0133 52,64.8843 C52,67.7563 49.672,70.0843 46.801,70.0843 L46.801,70.0843 L25.9631347,70.0840301 C25.8161361,70.0819272 24.8577692,70.0682231 24.783,70.0673 C23.553,70.0493 22.384,69.4963 21.556,68.5913 L21.556,68.5913 L11.358,57.4603 C11.032,57.1053 10.482,57.0813 10.127,57.4073 C9.773,57.7313 9.748,58.2833 10.073,58.6373 L10.073,58.6373 L20.271,69.7683 C21.419,71.0223 23.048,71.7383 24.748,71.7383 C24.763,71.7383 24.769,71.7353 24.792,71.7383 L24.792,71.7383 L25.125,71.7633 L25.125,85.9993 L0,85.9993 L0,52.5813 C0,46.0463 5.298,40.7483 11.833,40.7483 L11.833,40.7483 L11.851,40.7693 C12.082,40.7563 12.316,40.7483 12.55,40.7483 Z M98.1674,40.7483 C104.7024,40.7483 110.0004,46.0463 110.0004,52.5813 L110.0004,85.9993 L84.8754,85.9993 L84.8754,71.7633 L85.2084,71.7383 C85.2314,71.7353 85.2374,71.7383 85.2524,71.7383 C86.9524,71.7383 88.5814,71.0223 89.7294,69.7683 L99.9274,58.6373 C100.2524,58.2833 100.2274,57.7313 99.8734,57.4073 C99.5184,57.0813 98.9684,57.1053 98.6424,57.4603 L88.4444,68.5913 C87.6164,69.4963 86.4474,70.0493 85.2174,70.0673 C85.1426308,70.0682231 84.1842639,70.0819272 84.0372653,70.0840301 L63.1994,70.0843 C60.3284,70.0843 58.0004,67.7563 58.0004,64.8843 C58.0004,62.0133 60.3284,59.6853 63.1994,59.6853 L84.1684,59.6683 L84.8764,59.6663 L84.8764,56.2013 L84.9004,53.2983 C84.9004,46.3683 90.5184,40.7483 97.4504,40.7483 C97.6844,40.7483 97.9184,40.7563 98.1494,40.7693 L98.1674,40.7483 Z M16.1106,12.3797 C23.3096,12.3797 29.1456,18.2157 29.1456,25.4157 C29.1456,32.6147 23.3096,38.4507 16.1106,38.4507 C8.9106,38.4507 3.0746,32.6147 3.0746,25.4157 C3.0746,18.2157 8.9106,12.3797 16.1106,12.3797 Z M93.8898,12.3797 C101.0898,12.3797 106.9258,18.2157 106.9258,25.4157 C106.9258,32.6147 101.0898,38.4507 93.8898,38.4507 C86.6908,38.4507 80.8548,32.6147 80.8548,25.4157 C80.8548,18.2157 86.6908,12.3797 93.8898,12.3797 Z M57.4320131,0 L57.4320131,8.81943075 L66.2514438,8.81943075 L66.2514438,14.1390874 L57.4320131,14.1390874 L57.4320131,22.9585181 L52.1123564,22.9585181 L52.1123564,14.1390874 L43.2929257,14.1390874 L43.2929257,8.81943075 L52.1123564,8.81943075 L52.1123564,0 L57.4320131,0 Z" id="Combined-Shape" fill="#0A4CA4" fill-rule="nonzero"></path>
            <g id="Fill-643-Clipped" transform="translate(0.000200, 40.748300)">
                <mask id="mask-2" fill="white">
                    <use xlink:href="#path-1"></use>
                </mask>
                <g id="path-1"></g>
            </g>
            <g id="Fill-648-Clipped" transform="translate(58.000400, 40.748300)">
                <mask id="mask-4" fill="white">
                    <use xlink:href="#path-3"></use>
                </mask>
                <g id="path-3"></g>
            </g>
        </g>
    </g>
</svg>