<?xml version="1.0" encoding="UTF-8"?>
<svg width="110px" height="110px" viewBox="0 0 110 110" version="1.1" xmlns="http://www.w3.org/2000/svg" xmlns:xlink="http://www.w3.org/1999/xlink">
    <title>6_literature_and_social_media_monitoring@svg</title>
    <g id="6_literature_and_social_media_monitoring" stroke="none" stroke-width="1" fill="none" fill-rule="evenodd">
        <path d="M57.989629,78.8 L57.989629,88.3 C63.089629,89.4 66.789629,93.9 66.789629,99.3 C66.789629,105.5 61.789629,110.6 55.489629,110.6 C49.189629,110.6 44.189629,105.6 44.189629,99.3 C44.189629,93.9 47.889629,89.5 52.989629,88.3 L52.989629,78.8 L57.989629,78.8 Z M77.089629,64.9 L85.389629,69.6 C88.889629,65.8 94.689629,64.8 99.289629,67.4 C104.689629,70.5 106.589629,77.4 103.489629,82.8 C100.389629,88.2 93.489629,90.1 88.089629,87 C83.389629,84.3 81.389629,78.9 82.889629,74 L74.589629,69.3 L77.089629,64.9 Z M33.889629,64.8 L36.389629,69.2 L28.089629,73.9 C29.589629,78.8 27.589629,84.2 22.889629,86.9 C17.489629,90 10.589629,88.1 7.48962902,82.7 C4.38962902,77.3 6.28962902,70.4 11.689629,67.3 C16.289629,64.7 22.089629,65.7 25.589629,69.5 L25.589629,69.5 L33.889629,64.8 Z M55.589629,36.7 C56.589629,36.7 57.689629,36.8 58.689629,37 C63.089629,37.8 66.989629,40.2 69.789629,43.5 C71.089629,45.1 72.189629,46.9 72.889629,48.9 C73.689629,50.9 74.089629,53.1 74.089629,55.3 C74.089629,57.5 73.589629,59.7 72.889629,61.7 C72.089629,63.8 71.089629,65.6 69.689629,67.2 C67.089629,70.3 63.589629,72.5 59.489629,73.4 C59.389629,73.4 59.189629,73.5 59.089629,73.5 C57.989629,73.8 56.789629,73.9 55.489629,73.9 C54.489629,73.9 53.389629,73.8 52.389629,73.6 C47.989629,72.8 44.089629,70.4 41.289629,67.1 C39.989629,65.4 38.889629,63.6 38.189629,61.6 C37.489629,59.7 37.089629,57.5 37.089629,55.3 C37.089629,53 37.489629,50.8 38.289629,48.8 C38.989629,46.8 40.089629,45 41.389629,43.4 C43.989629,40.3 47.489629,38.1 51.589629,37.2 C51.689629,37.1 51.889629,37.1 51.989629,37.1 C53.089629,36.8 54.389629,36.7 55.589629,36.7 Z M87.989629,23.5 C93.389629,20.4 100.289629,22.3 103.389629,27.7 C106.489629,33.1 104.589629,40 99.189629,43.1 C94.589629,45.7 88.789629,44.7 85.289629,40.9 L85.289629,40.9 L76.989629,45.6 L74.489629,41.2 L82.789629,36.5 C81.289629,31.6 83.289629,26.2 87.989629,23.5 Z M22.989629,23.5 C27.689629,26.2 29.689629,31.6 28.189629,36.5 L36.489629,41.2 L33.989629,45.6 L25.689629,40.9 C22.189629,44.8 16.389629,45.8 11.789629,43.1 C6.38962902,40 4.48962902,33.1 7.58962902,27.7 C10.689629,22.3 17.589629,20.4 22.989629,23.5 Z M55.489629,-4.31832348e-12 C61.789629,-4.31832348e-12 66.789629,5.1 66.789629,11.3 C66.789629,16.6 63.089629,21.1 57.989629,22.3 L57.989629,22.3 L57.989629,31.8 L52.989629,31.8 L52.989629,22.3 C47.889629,21.1 44.189629,16.7 44.189629,11.3 C44.189629,5 49.189629,-4.31832348e-12 55.489629,-4.31832348e-12 Z" id="Combined-Shape" fill="#0A4CA4" fill-rule="nonzero"></path>
    </g>
</svg>