<?xml version="1.0" encoding="UTF-8"?>
<svg width="110px" height="110px" viewBox="0 0 110 110" version="1.1" xmlns="http://www.w3.org/2000/svg" xmlns:xlink="http://www.w3.org/1999/xlink">
    <title>6_Omnichannel Marketing Operations</title>
    <g id="Page-1" stroke="none" stroke-width="1" fill="none" fill-rule="evenodd">
        <g id="6_Omnichannel-Marketing-Operations" fill="#0A4CA4" fill-rule="nonzero">
            <g id="Group" transform="translate(0.000000, 0.000000)">
                <path d="M55,43.2229581 C48.4957193,43.2229581 43.2229581,48.4957193 43.2229581,55 C43.2229581,61.5042807 48.4957193,66.7770419 55,66.7770419 C61.5042807,66.7770419 66.7770419,61.5042807 66.7770419,55 C66.7112821,48.5231535 61.4768465,43.2887179 55,43.2229581 L55,43.2229581 Z M55,59.4922737 C52.5189857,59.4922737 50.5077263,57.4810143 50.5077263,55 C50.5077263,52.5189857 52.5189857,50.5077263 55,50.5077263 C57.4810143,50.5077263 59.4922737,52.5189857 59.4922737,55 C59.4284985,57.4541124 57.4541124,59.4284985 55,59.4922737 L55,59.4922737 Z" id="Shape"></path>
                <path d="M97.3730684,16.2693157 C97.3100077,14.2843897 95.7156103,12.6899923 93.7306843,12.6269316 L80.1324503,12.6269316 L80.1324503,-3.23508696e-15 L72.8476821,-3.23508696e-15 L72.8476821,12.6269316 L65.8057395,12.6269316 L65.8057395,-3.23508696e-15 L58.5209713,-3.23508696e-15 L58.5209713,12.6269316 L51.4790287,12.6269316 L51.4790287,-3.23508696e-15 L44.1942605,-3.23508696e-15 L44.1942605,12.6269316 L37.1523179,12.6269316 L37.1523179,-3.23508696e-15 L29.8675497,-3.23508696e-15 L29.8675497,12.6269316 L16.2693157,12.6269316 C14.2843897,12.6899923 12.6899923,14.2843897 12.6269316,16.2693157 L12.6269316,29.8675497 L-3.23508696e-15,29.8675497 L-3.23508696e-15,37.1523179 L12.6269316,37.1523179 L12.6269316,44.1942605 L-3.23508696e-15,44.1942605 L-3.23508696e-15,51.4790287 L12.6269316,51.4790287 L12.6269316,58.5209713 L-3.23508696e-15,58.5209713 L-3.23508696e-15,65.8057395 L12.6269316,65.8057395 L12.6269316,72.8476821 L-3.23508696e-15,72.8476821 L-3.23508696e-15,80.1324503 L12.6269316,80.1324503 L12.6269316,93.7306843 C12.6899923,95.7156103 14.2843897,97.3100077 16.2693157,97.3730684 L29.8675497,97.3730684 L29.8675497,110 L37.1523179,110 L37.1523179,97.3730684 L44.1942605,97.3730684 L44.1942605,110 L51.4790287,110 L51.4790287,97.3730684 L58.5209713,97.3730684 L58.5209713,110 L65.8057395,110 L65.8057395,97.3730684 L72.8476821,97.3730684 L72.8476821,110 L80.1324503,110 L80.1324503,97.3730684 L93.7306843,97.3730684 C95.7156103,97.3100077 97.3100077,95.7156103 97.3730684,93.7306843 L97.3730684,80.1324503 L110,80.1324503 L110,72.8476821 L97.3730684,72.8476821 L97.3730684,65.8057395 L110,65.8057395 L110,58.5209713 L97.3730684,58.5209713 L97.3730684,51.4790287 L110,51.4790287 L110,44.1942605 L97.3730684,44.1942605 L97.3730684,37.1523179 L110,37.1523179 L110,29.8675497 L97.3730684,29.8675497 L97.3730684,16.2693157 Z M83.4107591,58.3995585 C83.4275006,60.1692594 82.1281529,61.6765027 80.3752759,61.9205298 L77.7041943,62.406181 C77.3327094,63.5669533 76.8865995,64.7025056 76.3686534,65.8057395 L77.9470199,68.1125828 C78.9643704,69.5548323 78.7567251,71.5274626 77.4613687,72.7262693 L72.7262693,77.4613687 C71.5274626,78.7567251 69.5548323,78.9643704 68.1125828,77.9470199 L65.8057395,76.3686534 L62.406181,77.7041943 L61.9205298,80.3752759 C61.6765027,82.1281529 60.1692594,83.4275006 58.3995585,83.4107591 L51.6004415,83.4107591 C49.8307406,83.4275006 48.3234973,82.1281529 48.0794702,80.3752759 L47.593819,77.7041943 L44.1942605,76.3686534 L41.8874172,77.9470199 C40.4451677,78.9643704 38.4725374,78.7567251 37.2737307,77.4613687 L32.5386313,72.7262693 C31.2432749,71.5274626 31.0356296,69.5548323 32.0529801,68.1125828 L33.6313466,65.8057395 C33.1134005,64.7025056 32.6672906,63.5669533 32.2958057,62.406181 L29.6247241,61.9205298 C27.8718471,61.6765027 26.5724994,60.1692594 26.5892409,58.3995585 L26.5892409,51.6004415 C26.5724994,49.8307406 27.8718471,48.3234973 29.6247241,48.0794702 L32.2958057,47.593819 C32.6672906,46.4330467 33.1134005,45.2974944 33.6313466,44.1942605 L32.0529801,41.8874172 C31.0356296,40.4451677 31.2432749,38.4725374 32.5386313,37.2737307 L37.2737307,32.5386313 C38.4725374,31.2432749 40.4451677,31.0356296 41.8874172,32.0529801 L44.1942605,33.6313466 L47.593819,32.2958057 L48.0794702,29.6247241 C48.3234973,27.8718471 49.8307406,26.5724994 51.6004415,26.5892409 L58.3995585,26.5892409 C60.1692594,26.5724994 61.6765027,27.8718471 61.9205298,29.6247241 L62.406181,32.2958057 L65.8057395,33.6313466 L68.1125828,32.0529801 C69.5548323,31.0356296 71.5274626,31.2432749 72.7262693,32.5386313 L77.4613687,37.2737307 C78.7567251,38.4725374 78.9643704,40.4451677 77.9470199,41.8874172 L76.3686534,44.1942605 C76.8865995,45.2974944 77.3327094,46.4330467 77.7041943,47.593819 L80.3752759,48.0794702 C82.1281529,48.3234973 83.4275006,49.8307406 83.4107591,51.6004415 L83.4107591,58.3995585 Z" id="Shape"></path>
            </g>
        </g>
    </g>
</svg>