<?xml version="1.0" encoding="UTF-8"?>
<svg width="110px" height="110px" viewBox="0 0 110 110" version="1.1" xmlns="http://www.w3.org/2000/svg" xmlns:xlink="http://www.w3.org/1999/xlink">
    <title>6_regulatory@svg</title>
    <g id="6_regulatory" stroke="none" stroke-width="1" fill="none" fill-rule="evenodd">
        <path d="M71.193984,44.3878764 L81.3630736,78.7443901 L93.6997825,57.8962956 L103.923733,57.7078911 C101.283792,62.3629826 97.9010528,66.5739739 93.8944909,70.1629073 L93.8944909,70.1629073 L54.685828,105 L16.2311779,70.1629073 C12.2213533,66.6309156 8.85125368,62.4964484 6.2153803,57.9291267 L24.2644771,57.9298307 L30.4736247,48.0705229 L36.5068205,80 L52.4552451,57.9298307 L63.9379276,57.9298307 L71.193984,44.3878764 Z M81.9559557,5 C96.5335355,5 108.346402,17.1553885 109.854427,33.9473684 L109.854427,33.9473684 L109.854427,34.197995 C110.231434,37.8320802 109.854427,41.5914787 108.974746,44.9749373 C108.434543,47.1863403 107.746392,49.3464288 106.919025,51.4421421 L90.0689866,51.7526054 L83.2939701,63.1973193 L72.877462,28 L60.1661804,51.7196343 L49.2332976,51.7196343 L39.9652606,64.5436899 L33.6754856,31.2551279 L20.7851086,51.7196343 L3.19322608,51.7198306 C2.31476864,49.537401 1.58934956,47.2841461 1.02525421,44.9749373 C0.14557267,41.4661654 -0.231433703,37.8320802 0.14557267,34.197995 L0.14557267,34.197995 L0.14557267,33.9473684 C1.65359816,17.1553885 13.4664645,5 28.0440443,5 L28.0440443,5 L28.4911742,5.00953866 C37.8687604,5.28666637 46.4643401,10.3943452 51.0414331,18.6591479 L51.0414331,18.6591479 L54.5601592,24.6741855 L58.2045542,18.6591479 C63.105637,10.2631579 72.15379,5 81.9559557,5 Z" id="Combined-Shape" fill="#0A4CA4" fill-rule="nonzero"></path>
    </g>
</svg>