<?xml version="1.0" encoding="utf-8"?>
<!-- Generator: Adobe Illustrator 25.2.1, SVG Export Plug-In . SVG Version: 6.00 Build 0)  -->
<svg version="1.1" id="Layer_1" xmlns="http://www.w3.org/2000/svg" xmlns:xlink="http://www.w3.org/1999/xlink" x="0px" y="0px"
	 viewBox="0 0 135 158" style="enable-background:new 0 0 135 158;" xml:space="preserve">
<style type="text/css">
	.st0{fill:#0a4ca4;}
</style>
<g id="Page-1">
	<g id="Desktop-HD" transform="translate(-856.000000, -1203.000000)">
		<g id="multishore" transform="translate(856.000000, 1203.000000)">
			<g id="multisite-shore" transform="translate(0.000000, 0.000000)">
				<g id="Group" transform="translate(0.000000, 0.000000)">
					<path id="Path" class="st0" d="M86.4,114H71.9c-0.5,0-0.9,0.4-0.9,0.9v18.3c0,0.6,0.6,1.1,1.2,0.8c5.9-2.4,11.2-9.2,15-18.8
						C87.4,114.6,87,114,86.4,114z"/>
					<path id="Path_1_" class="st0" d="M40.1,114.6c-0.1-0.3-0.4-0.6-0.8-0.6H25.8c-0.7,0-1.2,0.9-0.7,1.5
						c5.8,6.7,13.1,12,21.4,15.4c0.8,0.3,1.5-0.6,1-1.4C44.6,125.3,42.1,120.3,40.1,114.6z"/>
					<path id="Path_2_" class="st0" d="M109.2,114H95.7c-0.4,0-0.7,0.2-0.8,0.6c-2,5.7-4.5,10.8-7.5,14.9c-0.5,0.7,0.2,1.7,1,1.4
						c8.3-3.4,15.7-8.7,21.4-15.4C110.4,114.9,109.9,114,109.2,114z"/>
					<path id="Path_3_" class="st0" d="M63.1,82.5H42.5c-0.5,0-0.9,0.4-0.9,0.9c0.3,8.2,1.5,16,3.4,22.9c0.1,0.4,0.5,0.6,0.9,0.6
						h17.3c0.5,0,0.9-0.4,0.9-0.9V83.4C64,82.9,63.6,82.5,63.1,82.5z"/>
					<path id="Path_4_" class="st0" d="M63.1,114H48.6c-0.6,0-1.1,0.6-0.8,1.2c3.8,9.5,9.1,16.4,15,18.7c0.6,0.2,1.2-0.2,1.2-0.8
						v-18.3C64,114.4,63.6,114,63.1,114z"/>
					<path id="Path_5_" class="st0" d="M62.8,24.1c-5.9,2.4-11.1,9.2-15,18.7C47.6,43.4,48,44,48.6,44h14.5c0.5,0,0.9-0.4,0.9-0.9
						V24.9C64,24.3,63.4,23.8,62.8,24.1z"/>
					<path id="Path_6_" class="st0" d="M115.4,51H98.3c-0.6,0-1,0.5-0.8,1.1c1.7,6.9,2.7,14.5,3,22.6c0,0.5,0.4,0.8,0.9,0.8h21
						c0.5,0,0.9-0.4,0.9-1c-0.6-8.3-3.1-16.2-7.1-23.1C116,51.2,115.7,51,115.4,51z"/>
					<path id="Path_7_" class="st0" d="M63.1,51H45.8c-0.4,0-0.8,0.3-0.9,0.6c-1.9,6.9-3,14.7-3.4,22.9c0,0.5,0.4,0.9,0.9,0.9h20.7
						c0.5,0,0.9-0.4,0.9-0.9V51.9C64,51.4,63.6,51,63.1,51z"/>
					<path id="Path_8_" class="st0" d="M122.3,82.5h-21c-0.5,0-0.8,0.4-0.9,0.8c-0.3,8.1-1.3,15.7-3,22.6c-0.1,0.5,0.3,1.1,0.8,1.1
						h17.1c0.3,0,0.6-0.2,0.8-0.4c3.9-6.9,6.4-14.7,7.1-23.1C123.2,82.9,122.8,82.5,122.3,82.5z"/>
					<path id="Path_9_" class="st0" d="M12.7,75.5h21c0.5,0,0.8-0.4,0.9-0.8c0.3-8.1,1.3-15.7,3-22.6c0.1-0.5-0.3-1.1-0.8-1.1H19.6
						c-0.3,0-0.6,0.2-0.8,0.4c-3.9,6.9-6.4,14.7-7.1,23.1C11.8,75.1,12.2,75.5,12.7,75.5z"/>
					<path id="Path_10_" class="st0" d="M25.8,44h13.5c0.4,0,0.7-0.2,0.8-0.6c2-5.7,4.5-10.8,7.5-14.9c0.5-0.7-0.2-1.7-1-1.4
						c-8.3,3.4-15.7,8.7-21.4,15.4C24.6,43.1,25,44,25.8,44z"/>
					<path id="Path_11_" class="st0" d="M71.9,107h17.4c0.4,0,0.8-0.3,0.9-0.6c1.9-6.9,3-14.7,3.4-22.9c0-0.5-0.4-0.9-0.9-0.9H71.9
						c-0.5,0-0.9,0.4-0.9,0.9v22.7C71,106.6,71.4,107,71.9,107z"/>
					<path id="Path_12_" class="st0" d="M94.9,43.4c0.1,0.3,0.4,0.6,0.8,0.6h13.5c0.7,0,1.2-0.9,0.7-1.5c-5.8-6.7-13.1-12-21.4-15.4
						c-0.8-0.3-1.5,0.6-1,1.4C90.4,32.7,92.9,37.7,94.9,43.4z"/>
					<path id="Path_13_" class="st0" d="M71.9,44h14.5c0.6,0,1.1-0.6,0.8-1.2c-3.8-9.6-9.1-16.4-15-18.8c-0.6-0.2-1.2,0.2-1.2,0.8
						v18.3C71,43.6,71.4,44,71.9,44z"/>
					<path id="Path_14_" class="st0" d="M71.9,75.5h20.7c0.5,0,0.9-0.4,0.9-0.9c-0.3-8.2-1.5-16-3.4-22.9C90,51.3,89.6,51,89.2,51
						H71.9c-0.5,0-0.9,0.4-0.9,0.9v22.7C71,75.1,71.4,75.5,71.9,75.5z"/>
					<path id="Path_15_" class="st0" d="M37.6,105.9c-1.7-6.9-2.7-14.5-3-22.6c0-0.5-0.4-0.8-0.9-0.8h-21c-0.5,0-0.9,0.4-0.9,1
						c0.6,8.3,3.1,16.2,7.1,23.1c0.2,0.3,0.5,0.4,0.8,0.4h17.1C37.3,107,37.7,106.5,37.6,105.9z"/>
				</g>
			</g>
		</g>
	</g>
</g>
</svg>
