<?xml version="1.0" encoding="UTF-8"?>
<svg width="110px" height="110px" viewBox="0 0 110 110" version="1.1" xmlns="http://www.w3.org/2000/svg" xmlns:xlink="http://www.w3.org/1999/xlink">
    <title>7_aggregate_reports_writing@svg</title>
    <g id="7_aggregate_reports_writing" stroke="none" stroke-width="1" fill="none" fill-rule="evenodd">
        <path d="M69.4009749,29.4215425 C70.3502551,31.3841837 72.3821429,32.5 74.6,32.5 L74.6,32.5 L74.8289132,32.4959651 C78.014927,32.3832883 80.4,29.9232558 80.4,26.7 C80.4,23.4 77.8,20.9 74.6,20.9 L74.6,20.9 L74.3543823,20.9045782 C72.1515306,20.9868622 70.1678571,22.175 69.3,24.2 L69.3,24.2 L57.8,24.2 L57.8,11.8 C60.8,6.6 66.3,3.1 72.5,3.1 L72.5,3.1 L72.817056,3.10293996 C81.6777993,3.26734948 89.1023529,10.3082353 89.3,19.4 C96.2,22.8 100.4,30.9 98.3,38.7 C105.5,40.7 110.8,47.4 110.8,55.1 C110.8,60.2 108.5,65 104.6,67.8 L104.6,67.8 L104.6,56.6 L85.6,56.6 L85.6,49.8 C87.7,48.9 88.9,46.8 88.9,44.5 C88.9,41.2 86.4,38.7 83.1,38.7 L83.1,38.7 L82.8710868,38.7041933 C79.685073,38.8212547 77.3,41.3744186 77.3,44.5 C77.3,46.8 78.5,48.9 80.6,49.8 L80.6,49.8 L80.6,61.5 L100.1,61.5 L100.1,70.5 C99.5,70.7 99,71 98.3,71.2 C100.3,79.5 96.2,87.3 89.3,90.5 C89.1,99.4 81.7,106.8 72.5,106.8 C66.1,106.8 60.8,103.4 57.8,98.1 L57.8,98.1 L57.8,89.1 L71.3,89.1 L71.3,78.3 L77.2,78.3 C78.1,80.4 80.1,81.6 82.4,81.6 L82.4,81.6 L82.6289132,81.5958067 C85.814927,81.4787453 88.2,78.9255814 88.2,75.8 C88.2,72.5 85.6,70 82.4,70 L82.4,70 L82.1547558,70.0045782 C79.9585459,70.0868622 78.0678571,71.275 77.2,73.3 L77.2,73.3 L66.3,73.3 L66.4,84.1 L57.8,84.1 L57.8,29.2 L69.3,29.2 L69.3,29.2 Z M38.2,3 C44.6,3 49.9,6.4 52.9,11.7 L52.9,11.7 L52.9,40.9 L44.5,40.9 L44.5,31.3 L34,31.3 C33.1,29.2 31.1,28 28.8,28 C25.5,28 23,30.5 23,33.8 C23,37.1 25.6,39.6 28.8,39.6 C31.1,39.6 33.1,38.4 34,36.3 L34,36.3 L39.6,36.3 L39.6,45.6 L52.9,45.6 L52.9,65.7 L35.9,65.7 L35.9,77.7 C33.8,78.6 32.6,80.8 32.6,83.1 C32.6,86.4 35.1,88.9 38.4,88.9 C41.7,88.9 44.2,86.3 44.2,83.1 C44.2,80.8 43,78.8 40.9,77.9 L40.9,77.9 L40.9,70.6 L52.7,70.6 L52.7,98 C49.7,103.2 44.2,106.7 38,106.7 C28.8,106.7 21.4,99.6 21.2,90.4 C14.5,87 10.1,79.4 12.2,71.1 C5.8,69.5 0.9,64 -5.04485342e-13,57.3 L-5.04485342e-13,57.3 L16.3,57.3 C17.2,59.4 19.3,60.8 21.6,60.8 C24.8,60.8 27.6,58 27.6,54.7 C27.6,51.4 25,48.9 21.8,48.9 C19.5,48.9 17.4,50.3 16.5,52.4 L16.5,52.4 L0.2,52.4 C1.1,45.7 6,40.4 12.4,38.6 C10.4,30.6 14.5,22.5 21.4,19.3 C21.6,10.1 29.2,3 38.2,3 Z" id="Combined-Shape" fill="#0A4CA4" fill-rule="nonzero"></path>
    </g>
</svg>