<?xml version="1.0" encoding="UTF-8"?>
<svg width="110px" height="110px" viewBox="0 0 110 110" version="1.1" xmlns="http://www.w3.org/2000/svg" xmlns:xlink="http://www.w3.org/1999/xlink">
    <title>7_clinical@svg</title>
    <g id="7_clinical" stroke="none" stroke-width="1" fill="none" fill-rule="evenodd">
        <g id="global-networking" fill="#0A4CA4" fill-rule="nonzero">
            <path d="M101.718179,83.8636071 C96.0358929,72.3748929 88.4455,61.3870714 80.5368929,51.5758571 C81.6812857,47.1208571 82.6736429,42.8905714 83.5363571,38.9282143 C87.3926429,38.5734643 90.5402143,35.7590357 91.4060714,32.0716786 C95.68625,31.5000714 100.051679,31.0899286 104.482321,30.8762143 C108.014893,38.1322857 110,46.2750357 110,54.8727143 C110,65.5053929 106.964,75.44075 101.718179,83.8636071 Z M82.8688929,7.4745 C82.6202143,9.89253571 82.06275,14.6791071 80.9839643,21.263 C77.0872143,22.0290714 74.0995357,25.3341786 73.8048929,29.3774643 C70.1831429,30.2177857 66.6541071,31.1465 63.2327143,32.142 C61.6872143,30.5572143 60.1762857,29.0403929 58.7164286,27.6033214 C55.5755357,24.5119286 52.5269643,21.6381786 49.6500714,19.0095714 C50.1305357,17.9138929 50.4008214,16.7066429 50.4008214,15.4353571 C50.4008214,13.9193214 50.0189643,12.4912857 49.3495357,11.2388571 C52.4153929,7.22071429 55.8407143,3.45635714 59.65575,0.0722857143 C68.0715357,0.781 75.9530357,3.39232143 82.8688929,7.4745 Z M45.0599286,7.25882143 C43.9575714,6.77167857 42.7420714,6.49628571 41.46175,6.49628571 C39.7492857,6.49628571 38.1531071,6.98892857 36.79225,7.82728571 C35.2542143,6.55717857 33.9004286,5.46307143 32.7756786,4.56853571 C38.5074643,2.02596429 44.75075,0.436857143 51.3051786,0 C49.0808214,2.30842857 47.0045714,4.73942857 45.0599286,7.25882143 Z M41.46175,24.3748214 C42.9836786,24.3748214 44.4164286,23.991 45.672,23.31725 C49.1951429,26.5426071 52.9932857,30.15375 56.91125,34.0901786 C47.7325357,37.0774643 39.4691786,40.4509286 32.4562857,43.6758929 C34.7057857,37.2856786 37.4935,30.7061071 40.9368929,24.3481071 C41.1113214,24.3583214 41.2841786,24.3748214 41.46175,24.3748214 Z M21.5199286,60.4901786 C21.17775,61.9606429 20.8579643,63.4102857 20.5586071,64.83675 C19.4051786,62.4340357 18.381,60.1153929 17.4683929,57.8996786 C19.1765357,56.9328571 20.9891786,55.9338214 22.9090714,54.9135714 C22.4022857,56.8236429 21.9395,58.6885357 21.5199286,60.4901786 Z M23.3805,83.4695714 C23.6947857,83.4412857 24.0051429,83.3980714 24.3096071,83.3379643 C29.9325714,91.9321071 37.1179286,100.81775 46.2785714,109.178536 C37.3061071,107.743036 29.0506071,104.132286 22.07425,98.9017857 C22.1705,96.3973214 22.4706429,90.8399643 23.3805,83.4695714 Z M29.3487857,80.38525 C30.6935357,78.8208929 31.5118571,76.7917857 31.5118571,74.57175 C31.5118571,70.93075 29.3208929,67.7969286 26.191,66.4046429 C26.5119643,64.8583571 26.8568929,63.28575 27.2293214,61.69075 C27.995,58.41 28.9076071,54.9186786 29.9824643,51.3059643 C30.41775,51.0930357 30.8530357,50.8801071 31.2961786,50.6667857 C39.4848929,46.7256429 49.7730357,42.3853571 61.4628929,38.7604643 C65.6908214,43.1907143 69.9812143,47.9564643 74.1462857,52.98425 C69.7792857,69.3946786 63.3584286,88.6116786 53.9935,108.185393 C43.4861429,99.3229286 35.4588929,89.6794643 29.3487857,80.38525 Z M67.7867143,36.9152143 C70.2393214,36.2426429 72.7445714,35.6073929 75.2957857,35.0177143 C75.97425,36.0242143 76.8562143,36.8794643 77.8764643,37.5386786 C77.2899286,40.24075 76.6409286,43.0720714 75.922,46.0185 C73.1900714,42.8210357 70.45775,39.7771786 67.7867143,36.9152143 Z M101.301357,25.2171071 C97.7554286,25.4547857 94.2542857,25.8103214 90.8081429,26.2672143 C89.9631071,24.4569286 88.5327143,22.97625 86.7573929,22.0699286 C87.4983214,17.5391071 87.9984286,13.84075 88.3237143,11.1485 C93.4222143,15.0440714 97.8237857,19.8062857 101.301357,25.2171071 Z M27.0745357,7.5075 C28.3686071,8.51439286 30.4393571,10.1549643 33.0848571,12.3455357 C32.72775,13.31 32.5226786,14.3479286 32.5226786,15.4349643 C32.5226786,18.0847857 33.6878929,20.4619643 35.5256786,22.1005714 C31.0706786,30.4244286 27.6960357,39.0617857 25.1436429,47.1919643 C21.5835714,48.9782857 18.3083214,50.7312143 15.3414643,52.3945714 C10.4464643,38.8142857 9.10328571,28.1981071 8.79371429,25.0725357 C13.4376786,17.897 19.7065,11.8686071 27.0745357,7.5075 Z M4.19060714,33.8230357 C5.21832143,39.2637143 7.03607143,46.7421429 10.2142857,55.35475 C6.03585714,57.8395714 2.72721429,59.9892857 0.407785714,61.5599286 C0.14025,59.3673929 0,57.1363571 0,54.8727143 C0,47.4202143 1.49285714,40.3106786 4.19060714,33.8230357 Z M1.55375,67.8625357 C3.48346429,66.5048214 7.1995,63.9818929 12.38325,60.86575 C13.4203929,63.3431071 14.5938571,65.9402857 15.9166071,68.6254643 C14.5023214,70.2071071 13.6337143,72.2872857 13.6337143,74.57175 C13.6337143,77.6898571 15.2408929,80.4359286 17.6675714,82.0364286 C17.0507857,86.8854643 16.6917143,91.0014286 16.4835,94.0936071 C9.28125,87.0194286 4.01382143,77.9845 1.55375,67.8625357 Z M59.7496429,109.665286 C68.2518571,91.7101429 74.3325,74.0791071 78.6547143,58.5985714 C86.119,68.20275 92.9134643,78.5973571 97.8536429,89.30625 C88.6965357,100.679071 75.1166429,108.3445 59.7496429,109.665286 Z" id="Shape"></path>
        </g>
    </g>
</svg>