<?xml version="1.0" encoding="UTF-8"?>
<svg width="90px" height="110px" viewBox="0 0 90 110" version="1.1" xmlns="http://www.w3.org/2000/svg" xmlns:xlink="http://www.w3.org/1999/xlink">
    <title>7_Co-Promotion</title>
    <g id="Page-1" stroke="none" stroke-width="1" fill="none" fill-rule="evenodd">
        <g id="7_Co-Promotion" transform="translate(0.000000, 0.000000)" fill="#0A4CA4" fill-rule="nonzero">
            <g id="Group" transform="translate(0.000000, 0.000000)">
                <path d="M44.9141825,5.36585366 C50.9756098,9.24119241 66.4769648,18.3830172 85.4561879,22.7551942 C85.2574526,54.7515808 81.1833785,78.401084 44.9141825,104.534779 C8.64498645,78.5004517 4.67028004,54.8509485 4.37217706,22.7551942 C23.3514002,18.2836495 38.8527552,9.24119241 44.9141825,5.36585366 M44.9141825,0 L42.5293586,1.58988257 C36.865402,5.266486 21.8608853,14.1102078 3.47786811,18.3830172 L5.64839754e-14,19.1779584 L5.64839754e-14,22.7551942 C0.198735321,54.0560072 3.47786811,80.1897019 42.3306233,108.112014 L44.9141825,110 L47.4977416,108.112014 C86.3504968,80.1897019 89.6296296,54.0560072 89.828365,22.7551942 L89.828365,19.1779584 L86.3504968,18.3830172 C67.9674797,14.1102078 52.8635953,5.266486 47.2990063,1.58988257 L44.9141825,0 L44.9141825,0 Z" id="Shape"></path>
                <path d="M79.8915989,26.928636 C64.3902439,22.6558266 51.4724481,15.7000903 45.1129178,11.8247516 C45.0135501,11.7253839 44.8148148,11.7253839 44.7154472,11.8247516 C38.3559169,15.6007227 25.5374887,22.6558266 9.93676603,26.928636 C9.73803071,27.0280036 9.63866305,27.1273713 9.63866305,27.3261066 C10.1355014,51.8699187 13.1165312,74.2276423 44.6160795,98.1752484 C44.7154472,98.2746161 44.8148148,98.2746161 44.9141825,98.2746161 C45.0135501,98.2746161 45.1129178,98.2746161 45.2122855,98.1752484 C76.8112014,74.2276423 79.7922313,51.9692864 80.1897019,27.3261066 C80.1897019,27.1273713 79.9909666,26.928636 79.8915989,26.928636 Z M45.0135501,69.0605239 L45.0135501,69.0605239 L41.237579,73.6314363 L20.8672087,56.9376694 L24.6431798,52.366757 L40.4426378,65.2845528 L64.2908762,36.1698284 L68.8617886,39.9457995 L45.0135501,69.0605239 Z" id="Shape"></path>
            </g>
        </g>
    </g>
</svg>