<?xml version="1.0" encoding="UTF-8"?>
<svg width="72px" height="110px" viewBox="0 0 72 110" version="1.1" xmlns="http://www.w3.org/2000/svg" xmlns:xlink="http://www.w3.org/1999/xlink">
    <title>7_Emerging Biotech</title>
    <g id="Page-1" stroke="none" stroke-width="1" fill="none" fill-rule="evenodd">
        <g id="7_Emerging-Biotech" transform="translate(0.057738, 0.000000)" fill="#0A4CA4" fill-rule="nonzero">
            <g id="Group">
                <path d="M14.6412857,92.2428628 C14.6412857,91.1217784 15.5096622,90.2434853 16.619599,90.2434853 L54.7935103,90.2434853 C55.903447,90.2434853 56.7718261,91.1217784 56.7718261,92.2428628 C56.7718261,93.3336033 55.8848676,94.2205618 54.7935103,94.2205618 L16.619599,94.2205618 C15.5282442,94.2205618 14.6412857,93.3336033 14.6412857,92.2428628 Z M50.4479091,104.773628 C50.4479091,107.655627 48.102919,110 45.2215427,110 L26.1940488,110 C23.3126673,110 20.9676772,107.655627 20.9676772,104.773628 L20.9676772,103.271006 L50.4479091,103.271006 L50.4479091,104.773628 Z M54.7935103,100.734004 C43.6436575,100.734004 27.8816057,100.734004 16.619599,100.734004 C15.5282442,100.734004 14.6412857,99.8470453 14.6412857,98.7569317 C14.6412857,97.6358473 15.5096622,96.7575542 16.619599,96.7575542 L54.7935103,96.7575542 C55.903447,96.7575542 56.7718261,97.6358473 56.7718261,98.7569317 C56.7718261,99.8470453 55.8848676,100.734004 54.7935103,100.734004 Z" id="Shape"></path>
                <g>
                    <path d="M33.9744451,0.0396124804 C15.9909247,0.905202744 1.14528019,15.5560493 0.0632176136,33.5396494 C-0.434457904,42.0228177 2.03262792,49.9000747 6.53385124,56.2408673 C13.1048238,65.5372881 17.0891703,76.3641321 17.2756823,87.7064624 L54.1326291,87.7064624 C54.2985445,76.7771866 57.5049469,65.9814651 64.1418018,57.2797321 C68.7081415,51.3067765 71.4132232,43.8407136 71.4132232,35.7253797 C71.4132232,15.4262109 54.490092,-0.912613651 33.9744451,0.0396124804 Z M42.3454292,74.1966754 C43.5560386,74.1966754 44.4727848,75.1566573 44.4727848,76.32395 C44.4727848,77.493892 43.5261296,78.4512296 42.3454292,78.4512296 L38.473813,78.4512296 L38.473813,79.6531433 C38.473813,81.4246791 37.0261506,82.8440553 35.2828201,82.8440553 C33.5171843,82.8440553 32.091903,81.418774 32.091903,79.6531433 L32.091903,39.4114166 C30.8958741,39.8654216 29.6141321,40.1103919 28.2909745,40.1103919 C22.3806531,40.1103919 17.5724448,35.3021861 17.5724448,29.3924031 C17.5724448,24.4990329 20.7903816,20.4007201 25.2724795,19.1086064 C25.1779444,18.5570456 25.1301789,17.9971201 25.1301789,17.4310812 C25.1301789,11.9409326 29.5966346,7.47439598 35.0873241,7.47439598 C40.5769318,7.47439598 45.0433926,11.9409326 45.0433926,17.4310812 C45.0433926,17.9976636 44.9956219,18.5575081 44.9010869,19.1080654 C49.3831898,20.4002548 52.6011241,24.4984919 52.6011241,29.392403 C52.6011241,35.302186 47.7929184,40.1103917 41.8836031,40.1103917 C40.7034387,40.1103917 39.5568841,39.9131921 38.473813,39.5502338 L38.473813,67.1233785 L42.3454292,67.1233785 C43.5365694,67.1233785 44.4727848,68.0592349 44.4727848,69.2506582 C44.4727848,70.4206709 43.5261296,71.3779328 42.3454292,71.3779328 L38.473813,71.3779328 L38.473813,74.1966751 L42.3454292,74.1966751 L42.3454292,74.1966754 Z" id="Shape"></path>
                    <path d="M48.346494,29.3924031 C48.346494,25.878404 45.5928631,23.0447956 42.0768492,22.9414359 C40.5425385,22.8960567 39.5535372,21.2847943 40.2217137,19.8928245 C40.5976801,19.111162 40.7888383,18.2828133 40.7888383,17.4310812 C40.7888383,14.2868529 38.2314768,11.7290262 35.0873243,11.7290262 C31.9430959,11.7290262 29.3847282,14.2868529 29.3847282,17.4310812 C29.3847282,18.281729 29.5758864,19.1096124 29.9529399,19.8928245 C30.6171729,21.2765762 29.6410534,22.8957887 28.0978043,22.9414359 C24.5817096,23.0447956 21.8270777,25.878404 21.8270777,29.3924031 C21.8270777,32.956266 24.7271143,35.8558376 28.2909747,35.8558376 C30.3019599,35.8558376 32.1653815,34.9360503 33.4035289,33.3327733 C33.8065936,32.8113288 34.4287638,32.5059742 35.0873244,32.5059742 C35.746891,32.5059742 36.3680602,32.8118723 36.771044,33.3333168 C38.0091963,34.9365155 39.8726939,35.8558376 41.8836033,35.8558376 C45.4474634,35.8558376 48.346494,32.956266 48.346494,29.3924031 Z" id="Path"></path>
                </g>
            </g>
        </g>
    </g>
</svg>