<?xml version="1.0" encoding="UTF-8"?>
<svg width="110px" height="110px" viewBox="0 0 110 110" version="1.1" xmlns="http://www.w3.org/2000/svg" xmlns:xlink="http://www.w3.org/1999/xlink">
    <title>7_literature_and_social_media_monitoring@svg</title>
    <g id="7_literature_and_social_media_monitoring" stroke="none" stroke-width="1" fill="none" fill-rule="evenodd">
        <path d="M103,27 L103,110 L7,110 L7,27 L103,27 Z M38.419436,82.5733168 L15.6049937,82.5733168 L15.6049937,101.429162 L15.6049937,101.429162 L38.419436,101.429162 L38.419436,82.5733168 Z M66.3899766,82.5733168 L43.5927789,82.5733168 L43.5927789,101.429162 L43.5927789,101.429162 L66.3899766,101.429162 L66.3899766,82.5733168 Z M94.3777618,82.5733168 L71.5633196,82.5733168 L71.5633196,101.429162 L71.5633196,101.429162 L94.3777618,101.429162 L94.3777618,82.5733168 Z M94.3777618,71.6026435 L15.6049937,71.6026435 L15.6049937,71.6026435 L15.6049937,75.0309789 L94.3777618,75.0309789 L94.3777618,75.0309789 L94.3777618,71.6026435 Z M94.3777618,63.4089219 L15.6049937,63.4089219 L15.6049937,66.8372573 L94.3777618,66.8372573 L94.3777618,63.4089219 Z M94.3777618,34.1425031 L15.6049937,34.1425031 L15.6049937,56.8665841 L94.3777618,56.8665841 L94.3777618,34.1425031 Z M103,0 L103,23 L7,23 L7,0 L103,0 Z M46.9617691,7.90942563 C44.1543822,7.91822241 41.8807691,10.1516538 41.8718141,12.9094256 C41.8718141,15.6708494 44.1506646,17.9094256 46.9617691,17.9094256 C49.7728737,17.9094256 52.0517241,15.6708494 52.0517241,12.9094256 C52.0517241,10.1480019 49.7728737,7.90942563 46.9617691,7.90942563 Z M34.4445277,7.90942563 C31.6371409,7.91822241 29.3635278,10.1516538 29.3545727,12.9094256 C29.3545727,15.6708494 31.6334232,17.9094256 34.4445277,17.9094256 C37.2556323,17.9094256 39.5344828,15.6708494 39.5344828,12.9094256 C39.5344828,10.1480019 37.2556323,7.90942563 34.4445277,7.90942563 Z M21.9445277,7.90942563 C19.1371409,7.91822241 16.8635278,10.1516538 16.8545727,12.9094256 C16.8545727,15.6708494 19.1334232,17.9094256 21.9445277,17.9094256 C24.7556323,17.9094256 27.0344828,15.6708494 27.0344828,12.9094256 C27.0344828,10.1480019 24.7556323,7.90942563 21.9445277,7.90942563 Z M22,11 C23.1045695,11 24,11.8954305 24,13 C24,14.1045695 23.1045695,15 22,15 C20.8994721,14.9903032 20.0096968,14.1005279 20,13 C20,11.8954305 20.8954305,11 22,11 Z M34.2641005,11 C35.36867,11 36.2641005,11.8954305 36.2641005,13 C36.2641005,14.1045695 35.36867,15 34.2641005,15 C33.159531,15 32.2641005,14.1045695 32.2641005,13 C32.2641005,11.8954305 33.159531,11 34.2641005,11 Z M47,11 C48.1045695,11 49,11.8954305 49,13 C49,14.1045695 48.1045695,15 47,15 C45.8994721,14.9903032 45.0096968,14.1005279 45,13 C45,11.8954305 45.8954305,11 47,11 Z M91,11.5 L64.2931034,11.5 L64.2931034,14.8873343 L91,14.8873343 C91.0574713,14.3818139 91.0862069,13.8172582 91.0862069,13.1936672 C91.0862069,12.5700761 91.0574713,12.0055204 91,11.5 L91,11.5 Z" id="Combined-Shape" fill="#0A4CA4" fill-rule="nonzero"></path>
    </g>
</svg>