<?xml version="1.0" encoding="UTF-8"?>
<svg width="110px" height="110px" viewBox="0 0 110 110" version="1.1" xmlns="http://www.w3.org/2000/svg" xmlns:xlink="http://www.w3.org/1999/xlink">
    <title>7_medical_information_management copy 2@svg</title>
    <g id="7_medical_information_management-copy-2" stroke="none" stroke-width="1" fill="none" fill-rule="evenodd">
        <g id="language" transform="translate(-0.000000, 1.000000)" fill="#0A4CA4" fill-rule="nonzero">
            <path d="M43.0434783,42.2608696 L43.0434783,61.0434783 L62.173913,61.0434783 L62.173913,98.6086957 L26.3043478,98.6086957 L11.9565217,108 L11.9565217,98.6086957 L3.15480975e-12,98.6086957 L3.15480975e-12,42.2608696 L43.0434783,42.2608696 Z M31.0869565,58.6749313 C30.1400491,58.6749313 29.2884588,59.222611 28.9053769,60.0611644 L28.8391304,60.2217391 L21.6652174,79.0043478 C21.3662016,79.7928174 21.5183329,80.678016 22.0643048,81.3264978 C22.6102768,81.9749796 23.4671432,82.2882248 24.3121309,82.1482369 C25.1007861,82.0175816 25.7672658,81.5106363 26.0957355,80.8025693 L26.1608696,80.6478261 L27.3565217,77.4782609 L34.8173913,77.4782609 L36.0130435,80.6478261 C36.4752818,81.8666945 37.856386,82.4868775 39.0978261,82.0330435 C40.2875395,81.5981192 40.9172364,80.3346494 40.560813,79.1573454 L40.5086957,79.0043478 L33.3347826,60.2217391 C32.9915307,59.2932104 32.0930456,58.6749313 31.0869565,58.6749313 Z M31.0869565,67.7347826 L33.023913,72.7826087 L29.15,72.7826087 L31.0869565,67.7347826 Z M110,6.42330633e-12 L110,56.3478261 L110,56.3478261 L98.0434783,56.3478261 L98.0434783,65.7391304 L83.6956522,56.3478261 L47.826087,56.3478261 L47.826087,56.3478261 L47.826087,6.42330633e-12 L47.826087,6.42330633e-12 L110,6.42330633e-12 Z M78.9130435,11.7391304 C77.5923626,11.7391304 76.5217391,12.790288 76.5217391,14.0869565 L76.5217391,14.0869565 L76.5217391,16.4347826 L69.3478261,16.4347826 C68.0271452,16.4347826 66.9565217,17.4859402 66.9565217,18.7826087 C66.9565217,20.0792772 68.0271452,21.1304348 69.3478261,21.1304348 L69.3478261,21.1304348 L83.4326087,21.1304348 C82.7308745,24.1646976 81.1920689,26.9507932 78.9847826,29.1834783 C78.2607022,28.4474371 77.5895244,27.6629436 76.976087,26.8356522 C76.1965359,25.8483121 74.766024,25.6332241 73.7212517,26.3462639 C72.6764794,27.0593036 72.3833727,28.4507325 73.0543478,29.5121739 C73.7805737,30.5367259 74.5796672,31.509586 75.4456522,32.4234783 C73.9417233,33.5711304 72.3418451,34.5921435 70.6630435,35.4756522 C69.5898434,36.1096764 69.1967628,37.4493251 69.7619185,38.5467547 C70.3270741,39.6441843 71.6589568,40.1275183 72.8152174,39.6547826 C74.9784762,38.5367374 77.0214153,37.2074067 78.9130435,35.6869565 C80.8252418,37.2141856 82.8926895,38.5438211 85.0826087,39.6547826 C86.2388693,40.1275183 87.5707519,39.6441843 88.1359076,38.5467547 C88.7010633,37.4493251 88.3079826,36.1096764 87.2347826,35.4756522 C85.556839,34.5996455 83.9569868,33.5865027 82.4521739,32.4469565 C88.8130435,25.6617391 87.6891304,21.1304348 88.4782609,21.1304348 C89.7989418,21.1304348 90.8695652,20.0792772 90.8695652,18.7826087 C90.8695652,17.4859402 89.7989418,16.4347826 88.4782609,16.4347826 L88.4782609,16.4347826 L81.3043478,16.4347826 L81.3043478,14.0869565 C81.3043478,12.790288 80.2337244,11.7391304 78.9130435,11.7391304 Z" id="Combined-Shape"></path>
        </g>
    </g>
</svg>