<?xml version="1.0" encoding="UTF-8"?>
<svg width="111px" height="126px" viewBox="0 0 111 126" version="1.1" xmlns="http://www.w3.org/2000/svg" xmlns:xlink="http://www.w3.org/1999/xlink">
    <title>7_NEXT HCP engagement</title>
    <g id="Page-1" stroke="none" stroke-width="1" fill="none" fill-rule="evenodd">
        <g id="7_NEXT-HCP-engagement" transform="translate(0.816327, 0.000000)" fill="#0A4CA4" fill-rule="nonzero">
            <g id="Group">
                <path d="M55.0000001,0 C53.5535001,0 52.3809525,1.17025737 52.3809525,2.61393202 L52.3809525,13.0696601 C52.3809525,14.5133348 53.5535001,15.6835921 55.0000001,15.6835921 C56.4465001,15.6835921 57.6190477,14.5133348 57.6190477,13.0696601 L57.6190477,2.61393202 C57.6190477,1.17025737 56.4465001,0 55.0000001,0 Z M17.9650955,15.3160079 C17.2947502,15.3160079 16.6350121,15.5815181 16.1235121,16.092019 C15.100774,17.1127594 15.100774,18.7469897 16.1235121,19.7678609 L23.5305716,27.1603874 C24.5530478,28.1811278 26.1907383,28.1811278 27.2134764,27.1603874 C28.2363454,26.1396469 28.2363454,24.5054166 27.2134764,23.4845455 L19.8065478,16.092019 C19.2951788,15.5815181 18.6351788,15.3160079 17.9650955,15.3160079 Z M92.0349048,15.3160079 C91.3648215,15.3160079 90.7049524,15.5815181 90.1934524,16.092019 L82.7865239,23.4845455 C81.7636548,24.5054166 81.7636548,26.1396469 82.7865239,27.1603874 C83.809262,28.1811278 85.4468215,28.1811278 86.4694286,27.1603874 L93.8764881,19.7678609 C94.8992262,18.7469897 94.8992262,17.1127594 93.8764881,16.092019 C93.3649881,15.5815181 92.705381,15.3160079 92.0349048,15.3160079 Z M55.0000001,23.5253751 C39.0300954,23.5253751 23.5714288,35.891234 23.5714288,53.3814452 C23.5714288,76.0752371 40.5952383,80.8276269 40.5952383,96.7154978 L69.404762,96.7154978 C69.404762,80.8276269 86.4285715,76.0752371 86.4285715,53.3814322 C86.4285715,35.8912209 70.9699049,23.5253751 55.0000001,23.5253751 L55.0000001,23.5253751 Z M46.9383097,31.4488696 C46.9518412,31.448765 46.9653734,31.448765 46.9789049,31.4488696 C47.0470614,31.4462115 47.115296,31.4462115 47.1834525,31.4488696 C48.4488317,31.4548364 49.5290141,32.3627952 49.7500989,33.6062917 C49.9711837,34.8497881 49.2699499,36.073234 48.0838811,36.5133498 C41.7023097,38.9148999 36.9067026,44.5545889 35.6842621,51.4209962 C35.4243332,52.8420742 34.0593533,53.7837831 32.6354942,53.524362 C31.2116351,53.2649408 30.2680832,51.9026271 30.5280121,50.4815491 C32.0757383,41.788526 38.107143,34.6995032 46.2013097,31.653083 C46.4355583,31.5494113 46.6837818,31.4806072 46.9380478,31.4488696 L46.9383097,31.4488696 Z M2.61904761,52.2786273 C1.17254762,52.2786273 0,53.4488847 0,54.8925593 C0,56.336234 1.17254762,57.5064914 2.61904761,57.5064914 L13.0952383,57.5064914 C14.5417383,57.5064914 15.7142859,56.336234 15.7142859,54.8925593 C15.7142859,53.4488847 14.5417383,52.2786273 13.0952383,52.2786273 L2.61904761,52.2786273 Z M96.9047619,52.2786273 C95.4582619,52.2786273 94.2857143,53.4488847 94.2857143,54.8925593 C94.2857143,56.336234 95.4582619,57.5064914 96.9047619,57.5064914 L107.380952,57.5064914 C108.827452,57.5064914 110,56.336234 110,54.8925593 C110,53.4488847 108.827452,52.2786273 107.380952,52.2786273 L96.9047619,52.2786273 Z M40.5952383,101.943362 L40.5952383,107.171226 L69.404762,107.171226 L69.404762,101.943362 L40.5952383,101.943362 Z M40.5952383,112.39909 C40.5952383,115.402628 43.0695835,117.626954 45.8333335,117.626954 L64.1666668,117.626954 C66.9304168,117.626954 69.404762,115.402628 69.404762,112.39909 L40.5952383,112.39909 Z M49.7619049,120.240886 C49.7619049,123.137123 52.0980954,125.46875 55.0000001,125.46875 C57.9019049,125.46875 60.2380954,123.137123 60.2380954,120.240886 L49.7619049,120.240886 Z" id="Shape"></path>
            </g>
        </g>
    </g>
</svg>