<?xml version="1.0" encoding="UTF-8"?>
<svg width="110px" height="110px" viewBox="0 0 110 110" version="1.1" xmlns="http://www.w3.org/2000/svg" xmlns:xlink="http://www.w3.org/1999/xlink">
    <title>7_regulatory@svg</title>
    <g id="7_regulatory" stroke="none" stroke-width="1" fill="none" fill-rule="evenodd">
        <path d="M57,0 L57,27.4737846 C41.8095238,27.4737846 29.552381,39.742612 29.552381,54.9475691 C29.552381,70.0476644 41.9142857,82.4213537 57,82.4213537 L57,82.4213537 L57,110 L45.1619048,110 L45.1619048,97.8360343 C41.6,96.7874166 38.247619,95.4242135 35.1047619,93.6415634 L35.1047619,93.6415634 L26.5142857,102.240229 L26.5142857,102.240229 L26.4095238,102.240229 L9.75238095,85.5672069 L9.75238095,85.5672069 L9.75238095,85.4623451 L18.3428571,76.8636797 C16.5619048,73.7178265 15.2,70.3622498 14.152381,66.7969495 L14.152381,66.7969495 L2,66.7969495 L2,43.2030505 L14.152381,43.2030505 C15.2,39.6377502 16.6666667,36.2821735 18.3428571,33.1363203 L18.3428571,33.1363203 L9.75238095,24.5376549 L9.75238095,24.5376549 L9.75238095,24.4327931 L26.4095238,7.75977121 L26.4095238,7.75977121 L26.5142857,7.75977121 L35.1047619,16.3584366 C38.247619,14.5757865 41.6,13.2125834 45.1619048,12.1639657 L45.1619048,12.1639657 L45.1619048,0 L57,0 Z M63.1116204,4.4387037 C88.3423611,7.45962963 107.926435,28.9605556 107.926435,55 C107.926435,81.0394444 88.3423611,102.54037 63.1116204,105.561296 L63.1116204,93.222963 C81.573287,90.2896296 95.704213,74.2825926 95.704213,55 C95.704213,35.7174074 81.573287,19.7103704 63.1116204,16.777037 L63.1116204,4.4387037 Z M86.5922204,62.6437289 C86.8746902,61.5536859 87.9864622,60.8982122 89.0728833,61.1770602 C90.1629243,61.45953 90.8184,62.5713 90.539552,63.6577211 C89.3010315,68.456082 87.0630041,72.8524663 84.053618,76.611482 C83.3546861,77.4914841 82.0690876,77.632718 81.1927074,76.9301663 C80.3127074,76.2276146 80.1714715,74.9456359 80.8740252,74.0656359 C83.5248928,70.7520509 85.5021794,66.8735283 86.5922204,62.6437289 Z M78.8110648,33.1894444 C79.479213,33.8555556 79.5993981,34.8944444 79.1043981,35.6990741 C79.1043981,35.6990741 79.053036,35.7824263 78.9560445,35.9395099 L78.8618682,36.0919854 C78.0212008,37.4526522 75.1120441,42.1509546 71.982831,47.0849246 L71.590667,47.7026739 C71.06661,48.5273778 70.5385797,49.3550378 70.0151337,50.171293 L69.6235424,50.7811215 C68.7775365,52.0968111 67.9492852,53.3729042 67.1755093,54.5477778 C67.1816204,54.6985185 67.1856944,54.8492593 67.1856944,55 C67.1856944,60.6222222 62.6227315,65.1851852 57.0005093,65.1851852 C51.378287,65.1851852 46.8153241,60.6222222 46.8153241,55 C46.8153241,49.3777778 51.378287,44.8148148 57.0005093,44.8148148 C57.15125,44.8148148 57.3019907,44.8188889 57.4527315,44.825 C59.1698543,43.6940967 61.1031918,42.4468289 63.0603576,41.1978381 L63.6789776,40.8034963 C63.8852987,40.6721191 64.0916594,40.5408565 64.2978354,40.4098423 L64.9155847,40.0176782 C70.466301,36.4973135 75.7187503,33.2554577 76.2562637,32.9239614 L76.3014352,32.8961111 L76.3014352,32.8961111 C77.1060648,32.4011111 78.1449537,32.5212963 78.8110648,33.1894444 Z M89.5931019,52.962963 C90.7181263,52.962963 91.6301389,53.8749755 91.6301389,55 C91.6301389,56.1250245 90.7181263,57.037037 89.5931019,57.037037 C88.4680774,57.037037 87.5560648,56.1250245 87.5560648,55 C87.5560648,53.8749755 88.4680774,52.962963 89.5931019,52.962963 Z" id="Combined-Shape" fill="#0A4CA4" fill-rule="nonzero"></path>
    </g>
</svg>