<?xml version="1.0" encoding="UTF-8"?>
<svg width="110px" height="110px" viewBox="0 0 110 110" version="1.1" xmlns="http://www.w3.org/2000/svg" xmlns:xlink="http://www.w3.org/1999/xlink">
    <title>8_clinical_trial_disclosures@svg</title>
    <g id="8_clinical_trial_disclosures" stroke="none" stroke-width="1" fill="none" fill-rule="evenodd">
        <path d="M54.982,74.6269 C72.609,74.7399 86.798,90.4549 86.685,108.0819 L22.854,107.6729 C22.967,90.0459 37.355,74.5139 54.982,74.6269 Z M71.8416,47.1316 C75.5926,56.3546 71.1576,66.8716 61.9346,70.6236 C52.7116,74.3746 42.1936,69.9396 38.4426,60.7156 C34.6906,51.4936 39.1266,40.9756 48.3496,37.2236 C57.5726,33.4726 68.0906,37.9086 71.8416,47.1316 Z M13.7723,45.5837 L17.0233,55.5887 L27.5413,55.5887 L19.0323,61.7737 L22.2833,71.7697 L13.7723,65.5987 L5.2643,71.7747 L8.5093,61.7737 L0.000299999999,55.5887 L10.5183,55.5887 L13.7723,45.5837 Z M96.2263,44.3472 L99.4783,54.3512 L109.9993,54.3512 L101.4903,60.5362 L104.7363,70.5292 L96.2263,64.3612 L87.7173,70.5332 L90.9673,60.5362 L82.4583,54.3512 L92.9763,54.3512 L96.2263,44.3472 Z M22.5461,15.0766 L25.7961,25.0816 L36.3141,25.0816 L27.8051,31.2666 L31.0551,41.2626 L22.5461,35.0916 L14.0361,41.2676 L17.2821,31.2666 L8.7721,25.0816 L19.2911,25.0816 L22.5461,15.0766 Z M87.4543,15.0766 L90.7053,25.0816 L101.2273,25.0816 L92.7173,31.2666 L95.9643,41.2626 L87.4543,35.0916 L78.9453,41.2676 L82.1953,31.2666 L73.6853,25.0816 L84.2043,25.0816 L87.4543,15.0766 Z M54.9997,1.9184 L58.2497,11.9224 L68.7737,11.9224 L60.2587,18.1074 L63.5097,28.1084 L54.9997,21.9324 L46.4907,28.1084 L49.7407,18.1074 L41.2267,11.9224 L51.7497,11.9224 L54.9997,1.9184 Z" id="Combined-Shape" fill="#0A4CA4"></path>
    </g>
</svg>