<?xml version="1.0" encoding="UTF-8"?>
<svg width="110px" height="110px" viewBox="0 0 110 110" version="1.1" xmlns="http://www.w3.org/2000/svg" xmlns:xlink="http://www.w3.org/1999/xlink">
    <title>8_clinical@svg</title>
    <g id="8_clinical" stroke="none" stroke-width="1" fill="none" fill-rule="evenodd">
        <g id="Group" transform="translate(9.000000, 0.000000)" fill="#0A4CA4" fill-rule="nonzero">
            <path d="M50.8223,105.512 L50.8223,110.412 L41.6223,110.412 L41.6223,105.512 L50.8223,105.512 Z M58.9266,95.6163 L58.9266,100.5163 L33.6266,100.5163 L33.6266,95.6163 L58.9266,95.6163 Z M58.9309,85.7206 L58.9309,90.6206 L33.6309,90.6206 L33.6309,85.7206 L58.9309,85.7206 Z M46.2268,17.78792 C60.4268,17.78792 74.2268,28.88792 74.1273402,44.38792 C74.1273402,63.48792 60.6268,68.28792 59.1268,80.68792 L59.1268,80.68792 L33.2268,80.68792 C31.7268,68.28792 18.2268,63.48792 18.2268,44.38792 C18.2268,28.78792 32.0268,17.78792 46.2268,17.78792 Z M46.4268,25.98792 C46.4268,24.48792 45.1268,23.68792 43.6268,23.78792 C32.6268,25.08792 24.1268,34.48792 24.1268,45.78792 C24.1268,48.08792 24.5268,50.18792 25.1268,52.28792 C25.3268,53.48792 26.8268,54.38792 28.0268,53.98792 C29.2268,53.58792 30.0268,52.08792 29.5268,50.88792 C29.0268,49.28792 28.7268,47.58792 28.7268,45.78792 C28.7268,36.78792 35.4268,29.38792 44.1268,28.38792 C45.4268,28.38792 46.4268,27.18792 46.4268,25.98792 Z M92.1778,43.0039 L92.1778,47.9039 L78.3778,47.9039 L78.3778,43.0039 L92.1778,43.0039 Z M13.8,42.9816 L13.8,47.8816 L-3.65929509e-13,47.8816 L-3.65929509e-13,42.9816 L13.8,42.9816 Z M76.66087,11.53241 L80.12566,14.9972 L70.36768,24.75518 L66.90289,21.29039 L76.66087,11.53241 Z M15.69079,11.36253 L25.44877,21.12051 L21.98398,24.5853 L12.226,14.82732 L15.69079,11.36253 Z M48.5462,0 L48.5462,13.8 L43.6462,13.8 L43.6462,0 L48.5462,0 Z" id="Combined-Shape"></path>
        </g>
    </g>
</svg>