<?xml version="1.0" encoding="UTF-8"?>
<svg width="110px" height="110px" viewBox="0 0 110 110" version="1.1" xmlns="http://www.w3.org/2000/svg" xmlns:xlink="http://www.w3.org/1999/xlink">
    <title>8_label_lifecycle_management@svg</title>
    <g id="8_label_lifecycle_management" stroke="none" stroke-width="1" fill="none" fill-rule="evenodd">
        <path d="M39.3,55.4031107 L66.6,69.0031107 C68,69.7031107 68.6,71.4031107 68,72.9031107 L67.5,74.2031107 C67,75.8031107 65.4,76.6031107 64,76.0031107 L44.1,68.1031107 C43.2,67.7031107 42.1,68.3031107 41.8,69.3031107 C41.5,70.3031107 42,71.5031107 42.9,71.9031107 L62.9,79.8031107 C63.6,80.1031107 64.3,80.2031107 65,80.2031107 C67.3,80.2031107 69.5,78.8031107 70.6,76.6031107 L105.5,67.0031107 C106.6,66.7031107 107.7,66.9031107 108.6,67.5031107 C109.5,68.1031107 110.2,69.1031107 110.4,70.3031107 C110.8,72.4031107 109.8,74.6031107 107.9,75.4031107 L58.8,96.1031107 C57.9,96.5031107 56.9,96.5031107 56,96.1031107 L23.8,83.5031107 L23.8,62.4031107 L35.7,55.5031107 C36.8,54.9031107 38.1,54.8031107 39.3,55.4031107 Z M18.6,60.8031107 L18.6,96.1031107 L-3.55271368e-13,96.1031107 L-3.55271368e-13,60.8031107 L18.6,60.8031107 Z M76.5040724,14 L76.5040724,18.599095 C77.7013575,18.9649321 78.8404412,19.4180713 79.8958604,19.9585124 L80.3429864,20.1954751 L83.6497738,16.8886878 L83.6877828,16.8886878 L90.0733032,23.2742081 L90.0733032,23.3122172 L86.7665158,26.6190045 C87.3651584,27.65 87.8473982,28.7682975 88.2132353,29.948434 L88.3628959,30.4579186 L92.961991,30.4579186 C92.961991,30.4579186 92.9788839,30.4579186 92.9901458,30.4691805 L93,30.4959276 L93,39.5040724 L88.3628959,39.5040724 C87.9970588,40.7013575 87.5439197,41.8404412 87.0034785,42.8958604 L86.7665158,43.3429864 L90.0733032,46.6497738 L90.0733032,46.6877828 L83.6877828,53.0733032 L83.6497738,53.0733032 L80.3429864,49.7665158 C79.311991,50.3651584 78.1936934,50.8473982 77.013557,51.2132353 L76.5040724,51.3628959 L76.5040724,56 L67.4959276,56 L67.4959276,51.3628959 C66.2986425,50.9970588 65.1595588,50.5439197 64.1041396,50.0034785 L63.6570136,49.7665158 L60.3502262,53.0733032 L60.3122172,53.0733032 L53.9266968,46.6877828 L53.9266968,46.6497738 L57.2334842,43.3429864 C56.6348416,42.311991 56.1526018,41.1936934 55.7867647,40.013557 L55.6371041,39.5040724 L51,39.5040724 L51,30.4959276 L55.6371041,30.4959276 C56.0029412,29.2986425 56.4560803,28.1595588 56.9965215,27.1041396 L57.2334842,26.6570136 L53.9266968,23.3502262 L53.9266968,23.3122172 L60.3122172,16.9266968 L60.3502262,16.9266968 L63.6570136,20.2334842 C64.688009,19.6348416 65.8063066,19.1526018 66.986443,18.7867647 L67.4959276,18.6371041 L67.4959276,14 L76.5040724,14 Z M72,21 C64.273224,21 58,27.273224 58,35 C58,42.726776 64.273224,49 72,49 C79.726776,49 86,42.726776 86,35 C86,27.273224 79.726776,21 72,21 Z M80.9629826,30.6297569 C80.9629826,30.6297569 80.9975498,30.664384 80.9975498,30.6990111 C81.0666843,30.8028924 81.1012516,30.9414008 81.1703861,31.0799091 C81.2049533,31.0799091 81.2049533,31.1145362 81.2049533,31.1145362 C81.3086551,31.3569259 81.4123568,31.5993155 81.4814913,31.8417051 C81.5160585,31.9455864 81.5160585,32.0148406 81.5506258,32.0840948 C81.585193,32.1879761 81.6197603,32.2918573 81.6543275,32.3957386 C81.6888948,32.4996199 81.6888948,32.5688741 81.723462,32.6727553 C81.7580293,32.7766366 81.7580293,32.8805179 81.7925965,32.9843992 C81.8271638,33.1575346 81.861731,33.3306701 81.8962983,33.5038055 C81.8962983,33.5730597 81.9116615,33.6423139 81.9219036,33.7115681 L81.9398274,33.9193306 C81.9500695,33.9885848 81.9654328,34.057839 81.9654328,34.1270932 C81.9884776,34.1963474 81.9961592,34.2656016 81.9987197,34.3348557 L82,34.438737 L82,34.7503808 C82,34.819635 82,34.9235163 81.9654328,34.9927705 C81.9654328,40.5331052 77.5062579,45 71.9754983,45 C65.2348851,45 60.0497981,38.2823442 62.7114761,31.1491633 C63.6447918,28.6906398 65.5805576,26.6822685 68.0693994,25.747337 C73.5655917,23.6350844 78.8198133,26.2321163 80.9629826,30.6297569 Z M75.7903226,31 L71.0322581,36.877551 L67.8870968,34.2653061 L67,35.3265306 L71.3817204,39 L72.2688172,37.9387755 L77,32.0612245 L75.7903226,31 Z" id="Combined-Shape" fill="#0A4CA4" fill-rule="nonzero"></path>
    </g>
</svg>