<?xml version="1.0" encoding="UTF-8"?>
<svg width="105px" height="110px" viewBox="0 0 105 110" version="1.1" xmlns="http://www.w3.org/2000/svg" xmlns:xlink="http://www.w3.org/1999/xlink">
    <title>8_Learning and Development</title>
    <g id="Page-1" stroke="none" stroke-width="1" fill="none" fill-rule="evenodd">
        <g id="8_Learning-and-Development" transform="translate(-0.000000, -0.000000)" fill="#0A4CA4" fill-rule="nonzero">
            <g id="noun_solution_3045890" transform="translate(-0.000000, -0.000000)">
                <path d="M16.9952358,71.6005655 L16.9952358,109.194219 L0,109.194219 L0,71.6005655 L16.9952358,71.6005655 Z M95.2911433,65.413505 C105.70201,62.6720728 105.808872,72.7116607 100.715096,76.246341 C87.8066634,85.2049743 74.8968603,94.1636077 61.9884273,103.123611 L61.9884273,103.123611 L19.5517139,103.123611 L19.5517139,103.123611 L19.5517139,75.6805181 C43.1409094,62.4446476 41.3653491,66.2834748 63.5379324,66.6191324 C76.3237751,66.7987983 71.4432993,70.7792049 65.1372485,74.2753402 L64.6791334,74.5271694 C64.5257521,74.6107913 64.3717703,74.6940721 64.2174153,74.7769518 L63.7534574,75.0243276 C62.9016481,75.475424 62.0454206,75.912574 61.2225799,76.3258028 C56.909722,78.4890819 52.3009373,80.0111864 47.0578283,81.2442144 C43.6478209,82.0374624 44.8548183,87.2244002 48.2661957,86.4297821 C53.8655129,85.1131823 58.8428359,83.4581847 63.5982138,81.0729605 C67.7713286,78.979553 71.7348285,76.3299129 75.7476496,72.8705843 C76.6299497,72.1102171 77.306745,71.2087366 78.361669,70.8429383 C83.2814507,69.1262893 90.2507989,66.7410652 95.2911433,65.413505 Z M57.8934043,35.548197 C60.5060536,35.548197 62.6433021,37.6854455 62.6433021,40.2994649 L62.6433021,45.6973874 C66.6643434,46.9413757 70.2949258,49.0745141 73.3089943,51.8652675 L77.9903906,49.1608261 C80.2536819,47.8538164 83.1718482,48.6361041 84.4788579,50.8980255 L87.9724372,56.9494529 C89.2780768,59.2113742 88.495789,62.1309105 86.2338677,63.4379202 L81.5593216,66.1382515 C81.6634439,66.5985819 81.4209484,66.9821906 81.5031503,67.4507413 C75.6394172,66.0108386 69.948308,64.5613457 67.0794628,64.7997311 C64.5133946,60.4718028 59.7922674,57.5687069 54.398455,57.5687069 C49.3389301,57.5687069 44.8726287,60.1224449 42.2216185,64.0105932 C38.0019227,64.4558533 33.7945572,65.898496 26.6895759,69.5468889 C26.8019185,68.3878426 26.9868727,67.2493467 27.2375884,66.1382515 L22.5644123,63.4379202 C20.2997508,62.1309105 19.5188331,59.2113742 20.8258428,56.9494529 L24.3194221,50.8980255 C25.6236917,48.6361041 28.543228,47.8538164 30.8078894,49.1608261 L35.4892857,51.8652675 C38.5033541,49.0745141 42.1339365,46.9413757 46.1549778,45.6973874 L46.1549778,40.2994649 C46.1549778,37.6854455 48.2922263,35.548197 50.9035056,35.548197 L57.8934043,35.548197 Z M27.2088177,8.21470649 L28.587069,11.1109522 C31.0640852,10.7520041 33.5589119,10.9712091 35.8879647,11.7000656 L37.7114761,9.05316553 C38.5951462,7.77355648 40.3611163,7.44748907 41.6393553,8.32841907 L45.060323,10.6876126 C46.341302,11.5685426 46.6646294,13.3345127 45.7850694,14.6141218 L43.9629281,17.2582818 C44.709595,18.2077134 45.3630998,19.2557871 45.9056322,20.392913 C46.4454244,21.5286687 46.8427334,22.6945652 47.1085195,23.874162 L50.3075421,24.1303578 C51.8570473,24.2550306 53.0215737,25.6223217 52.8982709,27.1704568 L52.5680934,31.3120609 C52.4434206,32.860196 51.0774996,34.0247224 49.5266244,33.9014196 L46.3234916,33.6452238 C45.4179011,35.9126253 44.0136192,37.9854824 42.1709274,39.6815809 L43.5478086,42.5778266 C44.2163838,43.9807385 43.6135701,45.6740969 42.2120283,46.341302 L38.4595131,48.1250825 C37.0566013,48.7909177 35.3632428,48.189474 34.6960377,46.7879322 L33.3177864,43.8903164 C30.8435102,44.2478945 28.3486836,44.0300596 26.0168906,43.299833 L24.1933792,45.9481031 C23.3110792,47.2277122 21.5437391,47.5524095 20.2668701,46.6701095 L16.8459024,44.313656 C15.5662934,43.431356 15.238856,41.6653859 16.121156,40.3844068 L17.9432974,37.7429868 C17.1966304,36.7921853 16.5431256,35.7468515 16.0019633,34.6083557 C15.462171,33.4712299 15.0621219,32.3039634 14.7963359,31.1257366 L11.5973133,30.8695408 C10.0491781,30.744868 8.88328167,29.3775769 9.0079545,27.8294418 L9.338132,23.6878378 C9.46006476,22.1397026 10.8287258,20.9751762 12.378231,21.098479 L15.5827338,21.3560448 C16.4883243,19.0886434 17.8939762,17.0144163 19.733928,15.3196878 L18.3570467,12.422072 C17.6898416,11.0191602 18.2926553,9.32580172 19.6941971,8.6599666 L23.4453423,6.87481607 C24.8496241,6.20761093 26.5429826,6.80905458 27.2088177,8.21470649 Z M83.2211693,-4.40536496e-13 C85.9420511,-4.40536496e-13 88.1464311,2.20301001 88.1464311,4.92663185 C88.1464311,9.41348371 84.8734268,7.76533629 84.8734268,11.1808238 L92.5647814,11.1808238 C96.9160002,11.1808238 100.475341,14.7387946 100.475341,19.0886434 L100.475341,26.781368 C97.0598535,26.781368 98.7093709,23.5097337 94.221149,23.5097337 C91.5002673,23.5097337 89.2945172,25.7127437 89.2945172,28.4336255 C89.2945172,31.1545073 91.5002673,33.3602573 94.221149,33.3602573 C98.7066309,33.3602573 97.0598535,30.0886231 100.475341,30.0886231 L100.475341,37.7772376 C100.475341,42.1284564 96.9160002,45.6877972 92.5647814,45.6877972 L84.8734268,45.6877972 C84.8734268,42.2723097 88.1464311,43.9231972 88.1464311,39.4349753 C88.1464311,36.7140935 85.9420511,34.5069734 83.2211693,34.5069734 C80.5002875,34.5069734 78.2972775,36.7140935 78.2972775,39.4349753 C78.2972775,43.9204571 81.5675418,42.2709396 81.5675418,45.6877972 L73.8775572,45.6877972 C69.5249684,45.6877972 65.9669976,42.1284564 65.9669976,37.7772376 L65.9669976,30.0886231 C62.55014,30.0886231 64.1996575,33.3602573 59.7141756,33.3602573 C56.9932939,33.3602573 54.7875438,31.1545073 54.7875438,28.4336255 C54.7875438,25.7127437 56.9932939,23.5097337 59.7141756,23.5097337 C64.2010275,23.5097337 62.5515101,26.781368 65.9669976,26.781368 L65.9669976,19.0886434 C65.9669976,14.7387946 69.5249684,11.1808238 73.8775572,11.1808238 L81.5675418,11.1808238 C81.5675418,7.76259623 78.2972775,9.41211368 78.2972775,4.92663185 C78.2972775,2.20301001 80.5002875,-4.40536496e-13 83.2211693,-4.40536496e-13 Z M38.8636723,23.7385289 C36.7867051,19.3722398 31.5600365,17.5131076 27.1910073,19.5900747 C22.8260882,21.6656719 20.965586,26.8937105 23.0411831,31.2613697 C25.1181502,35.6290289 30.3461889,37.485421 34.712478,35.4098239 C39.0801372,33.3328567 40.9392694,28.1075581 38.8636723,23.7385289 Z" id="Combined-Shape"></path>
            </g>
        </g>
    </g>
</svg>