<?xml version="1.0" encoding="UTF-8"?>
<svg width="104px" height="110px" viewBox="0 0 104 110" version="1.1" xmlns="http://www.w3.org/2000/svg" xmlns:xlink="http://www.w3.org/1999/xlink">
    <title>8_NEXT HCP Engagement</title>
    <g id="Page-1" stroke="none" stroke-width="1" fill="none" fill-rule="evenodd">
        <g id="8_NEXT-HCP-Engagement" transform="translate(0.950000, 0.000000)" fill="#0A4CA4" fill-rule="nonzero">
            <g id="Group" transform="translate(0.000000, 0.000000)">
                <g id="a-link" transform="translate(0.000000, 0.000000)">
                    <g id="a" transform="translate(0.000000, 0.000000)">
                        <path d="M69.7671231,32.9246575 L69.7671231,32.849315 C68.3108945,34.4925263 67.5574699,36.4263163 67.5068492,38.6506848 L67.5068492,52.2123286 C67.5033175,52.6249464 67.3526325,52.9765445 67.0547944,53.2671232 C66.7642157,53.5649613 66.4126176,53.7156463 66,53.719178 C65.5873821,53.7156463 65.2357839,53.5649613 64.9452053,53.2671232 C64.6473671,52.9765445 64.4966822,52.6249464 64.4931505,52.2123286 L64.4931505,38.6506848 C64.4342892,36.4420126 63.6055221,34.5333368 62.0068492,32.9246575 C61.953874,32.887771 61.9036457,32.8375427 61.8561642,32.7739725 C61.5977631,32.4608304 61.2712791,32.1594605 60.8767122,31.8698629 L60.9520546,31.8698629 C59.5507633,30.9657534 58.043914,30.5136986 56.4315067,30.5136986 C54.7892764,30.5136986 53.2824271,30.9657534 51.9109588,31.8698629 C51.9084081,31.9075342 51.883294,31.9326483 51.8356163,31.9452054 C51.4384987,32.2206763 51.0869006,32.5220462 50.7808218,32.849315 L50.7054793,32.9246575 C49.197649,34.5404002 48.4191102,36.4741901 48.3698629,38.7260273 L48.3698629,47.0136985 C48.3663312,47.4263162 48.2156463,47.7779144 47.9178081,48.068493 C47.6272295,48.3663312 47.2756313,48.5170162 46.8630136,48.5205478 C46.4503959,48.5170162 46.0987977,48.3663312 45.8082191,48.068493 C45.5103809,47.7779144 45.359696,47.4263162 45.3561643,47.0136985 L45.3561643,8.28767121 C45.3092714,5.95794091 44.5056185,3.99903681 42.9452054,2.4109589 L43.0205478,2.4109589 C41.4130457,0.810520118 39.5545982,0.00686715181 37.4452054,0 C35.2700841,0.0105950342 33.3614083,0.789133845 31.719178,2.33561643 C31.6952411,2.38702197 31.6701269,2.41213612 31.6438355,2.4109589 C30.0932327,4.18739297 29.3146939,6.22163954 29.3082191,8.51369861 L29.3082191,68.938356 C29.3103774,69.3250747 29.1848066,69.6515588 28.9315068,69.9178081 C28.6793842,70.2274185 28.3529002,70.4032176 27.9520547,70.4452053 C27.5924122,70.4891551 27.240814,70.3886985 26.8972602,70.1438354 L13.109589,60.5 C11.229559,59.1630635 9.22042663,58.6607804 7.08219176,58.9931505 L7.08219176,59.068493 C6.21928509,59.1826839 5.46586043,59.3835972 4.8219178,59.6712327 L4.8219178,59.7465752 C4.72146118,59.7968035 4.62100456,59.8470318 4.52054793,59.8972601 L4.44520547,59.8972601 C3.3474422,60.4564425 2.36799015,61.3354379 1.50684931,62.5342464 L1.50684931,62.5342464 C0.748127139,63.7034281 0.245844035,64.9591358 3.55271368e-15,66.3013697 L0.0753424656,66.1506848 C0.0376712328,66.9117614 0.113013698,67.7154144 0.301369862,68.5616437 C0.340806934,68.6122644 0.365921089,68.6624927 0.376712328,68.7123286 C0.713202767,70.9541594 1.79311144,72.7623785 3.61643835,74.1369861 C31.4960937,93.6940459 45.5097923,103.513681 45.6575341,103.59589 C45.6816673,103.63415 45.7067814,103.659264 45.7328766,103.671233 C46.2369255,104.033622 46.7643228,104.360106 47.3150684,104.650685 L47.3150684,104.726027 C52.8815816,108.242794 59.1098921,110 66,110 C72.728239,109.998823 78.8309787,108.240832 84.308219,104.726027 L84.308219,104.726027 C86.9866044,103.088113 89.4477916,101.028753 91.6917806,98.547945 L91.6917806,98.547945 C98.9252459,91.0550975 102.541096,82.0140017 102.541096,71.4246574 L102.541096,46.7123287 C102.490279,44.4952196 101.686626,42.5112014 100.130137,40.7602739 L100.205479,40.8356163 C98.595034,39.2322345 96.7114724,38.4285815 94.5547943,38.4246574 C92.4149898,38.4285815 90.5314282,39.2071203 88.9041094,40.7602739 L88.9041094,40.8356163 C87.4084437,42.48491 86.6299049,44.4187 86.5684929,46.6369862 L86.5684929,52.1369862 C86.5649613,52.5496039 86.4142763,52.9012021 86.1164382,53.1917807 C85.8258595,53.4896189 85.4742614,53.6403038 85.0616436,53.6438355 C84.6490259,53.6403038 84.2974277,53.4896189 84.0068491,53.1917807 C83.7090109,52.9012021 83.558326,52.5496039 83.5547943,52.1369862 L83.5547943,38.7260273 C83.4688568,36.4914561 82.6400897,34.5576662 81.068493,32.9246575 C79.534175,31.2751676 77.6506134,30.4464005 75.417808,30.4383561 C73.2324841,30.4495397 71.3489225,31.2783069 69.7671231,32.9246575 Z" id="Path"></path>
                    </g>
                </g>
            </g>
        </g>
    </g>
</svg>