<?xml version="1.0" encoding="UTF-8"?>
<svg width="106px" height="110px" viewBox="0 0 106 110" version="1.1" xmlns="http://www.w3.org/2000/svg" xmlns:xlink="http://www.w3.org/1999/xlink">
    <title>8_Patient Support</title>
    <g id="Page-1" stroke="none" stroke-width="1" fill="none" fill-rule="evenodd">
        <path d="M37.437185,70.9433947 L63.4431685,83.8987565 C64.7768087,84.5655766 65.3483688,86.1849968 64.7768087,87.613897 L64.3005087,88.8522772 C63.8242086,90.3764374 62.3000484,91.1385175 60.9664082,90.5669574 L42.0096657,83.0414164 C41.1523255,82.6603763 40.1044654,83.2319364 39.8186854,84.1845365 C39.5329053,85.1371367 40.0092054,86.2802568 40.8665455,86.6612969 L59.9185481,94.1868379 C60.5853682,94.4726179 61.2521882,94.5678779 61.9190083,94.5678779 C64.1099886,94.5678779 66.2057089,93.2342377 67.2535691,91.1385175 L100.499314,81.9935562 C101.547174,81.7077762 102.595034,81.8982962 103.452374,82.4698563 C104.309714,83.0414164 104.976534,83.9940165 105.167054,85.1371367 C105.548094,87.1375969 104.595494,89.2333172 102.785554,89.9953973 L56.0128875,109.71422 C55.1555474,110.09526 54.2029473,110.09526 53.3456072,109.71422 L22.6718831,97.7114583 L22.6718831,77.6115956 L34.0078246,71.0386548 C35.0556847,70.4670947 36.2940649,70.3718347 37.437185,70.9433947 Z M17.7183624,76.0874354 L17.7183624,109.71422 L2.84217094e-14,109.71422 L2.84217094e-14,76.0874354 L17.7183624,76.0874354 Z M52.7182541,38.9523665 L67.4980527,45.7206855 L67.4980527,65.6803202 L53.9614147,59.464517 C53.1878925,59.1422161 52.7151845,58.3987753 52.6555947,57.6272586 L52.6491896,57.4616471 L52.7182541,57.4616471 L52.7182541,38.9523665 Z M86.697978,38.9523665 L86.697978,57.3925826 C86.697978,58.2305649 86.2166754,58.9482216 85.5348299,59.3209447 L85.3857529,59.3954525 L71.9174554,65.579 L71.9181794,45.7206855 L86.697978,38.9523665 Z M70.3672674,29.0706208 L70.5368898,29.1452104 L84.0044633,35.2919491 L69.6390516,41.8530747 L55.2736398,35.2919491 L68.7412133,29.1452104 C69.2384776,28.8965783 69.8476263,28.8717151 70.3672674,29.0706208 Z M44.2923875,7.18270588 C47.1077807,7.18270588 49.5328043,9.0044309 50.3044976,11.5743644 L50.3700617,11.810026 L57.8290255,11.810026 C58.6796091,11.810026 59.406221,12.4918704 59.4803503,13.3270481 L59.4865731,13.4675735 L59.4865731,29.1452104 L56.171478,30.664629 L56.171478,15.125121 L50.3700617,15.125121 C49.6103525,17.8186358 47.1930957,19.8215057 44.2923875,19.8215057 C40.7700991,19.8215057 37.9384554,16.989862 37.9384554,13.4675735 C37.9384554,10.0143495 40.7700991,7.18270588 44.2923875,7.18270588 Z M94.9857156,7.1136414 C98.5080041,7.1136414 101.339648,9.94528507 101.339648,13.4675735 C101.339648,16.989862 98.5080041,19.8215057 94.9857156,19.8215057 C92.1703224,19.8215057 89.8103605,17.934719 88.9793463,15.3609584 L88.9080414,15.125121 L83.1066251,15.125121 L83.1066251,30.5955645 L79.7915301,29.0761459 L79.7915301,13.3985091 C79.7915301,12.5479255 80.4733744,11.8213136 81.3085522,11.7471843 L81.4490776,11.7409615 L88.9080414,11.7409615 C89.6677507,9.11651131 92.0850075,7.1136414 94.9857156,7.1136414 Z M69.6390516,4.26325641e-14 C73.0922755,4.26325641e-14 75.9239192,2.83164367 75.9239192,6.35393213 C75.9239192,9.16674003 74.1055384,11.5249527 71.5393385,12.3580083 L71.2965991,12.4316063 L71.2965991,25.346664 C70.7440832,25.2085351 70.1915674,25.1394706 69.6390516,25.1394706 C69.1970389,25.1394706 68.7550262,25.1836719 68.3130136,25.2720744 L67.9815041,25.346664 L67.9815041,12.4316063 C65.2879893,11.6718971 63.2851194,9.25464027 63.2851194,6.35393213 C63.2851194,2.83164367 66.1167631,4.26325641e-14 69.6390516,4.26325641e-14 Z" id="8_Patient-Support" fill="#0A4CA4" fill-rule="nonzero"></path>
    </g>
</svg>