<?xml version="1.0" encoding="UTF-8"?>
<svg width="110px" height="110px" viewBox="0 0 110 110" version="1.1" xmlns="http://www.w3.org/2000/svg" xmlns:xlink="http://www.w3.org/1999/xlink">
    <title>8_regulatory@svg</title>
    <g id="8_regulatory" stroke="none" stroke-width="1" fill="none" fill-rule="evenodd">
        <path d="M25.5,59.9 L25.5,105.6 L-1.0658141e-13,105.6 L-1.0658141e-13,59.9 L25.5,59.9 Z M57.3,23.7 C59.5,24.2 61,26.1 61.1,28.3 L57.6,54.4 L88.7,54.4 C92.2,54.4 95.1,57.1 95.3,60.6 C95.4,64.1 92.6,67.1 89.1,67.2 L87.2,67.2 C89.4,68.5 90.7,70.9 90.4,73.4 C90,76.7 87.2,79.2 83.8,79.1 L82.3,79.1 C84.5,80.4 85.8,82.8 85.5,85.3 C85.1,88.6 82.3,91.1 78.9,91 L77.4,91 C79.6,92.3 80.9,94.7 80.6,97.2 C80.2,100.5 77.4,103 74,102.9 L70.8,102.9 L30.4,103.3 L30.5,62.8 L36.3,59.2 L51.3,27.4 C52,24.7 54.7,23.1 57.3,23.7 Z M88.9,5 L94.3,21.8 L110.5,21.8 L97.2,32.5 L102.4,49.9 L89,39.1 L75.4,49.9 L80.7,32.5 L67.4,21.8 L83.5,21.8 L88.9,5 Z" id="Combined-Shape" fill="#0A4CA4" fill-rule="nonzero"></path>
    </g>
</svg>