<?xml version="1.0" encoding="UTF-8"?>
<svg width="110px" height="110px" viewBox="0 0 110 110" version="1.1" xmlns="http://www.w3.org/2000/svg" xmlns:xlink="http://www.w3.org/1999/xlink">
    <title>aggregate_reports_writing_ Achieve_accuracy</title>
    <g id="aggregate_reports_writing_-Achieve_accuracy" stroke="none" stroke-width="1" fill="none" fill-rule="evenodd">
        <path d="M71.95,58 C76.95,58 81.75,59.9 85.25,63.5 C92.2950955,70.5450955 92.6381541,81.7071565 86.3728592,89.0230846 L88.45,91.1 L90.65,89 C91.3088235,88.3411765 92.233391,88.3024221 92.9234785,88.883737 L93.05,89 L103.05,99 C105.55,101.5 105.55,105.6 102.95,107.9 C101.75,109.1 100.15,109.8 98.45,109.8 C96.85,109.8 95.3385813,109.179931 94.1658559,108.106534 L93.95,107.9 L83.95,97.9 C83.2911765,97.2411765 83.2524221,96.316609 83.833737,95.6265215 L83.95,95.5 L86.05,93.4 L84.0004088,91.3511391 C80.601827,94.1123136 76.3641183,95.7 71.95,95.7 C66.85,95.7 62.15,93.8 58.55,90.2 C51.15,82.8 51.15,70.9 58.55,63.5 C62.15,59.9 66.95,58 71.95,58 Z M72.8,1.42108547e-14 L72.8008462,52.0339434 C72.3700834,52.0114085 71.936374,52 71.5,52 C67.0214959,52 62.8236506,53.2016436 59.2112932,55.3001017 L15.1,55.3 L15.1,60.3 L53.1193832,60.3006916 C51.189718,62.488507 49.6445585,65.0235295 48.589626,67.8000378 L15.1,67.8 L15.1,72.8 L47.2775484,72.8000921 C47.0947665,74.0067601 47,75.2423131 47,76.5 C47,77.8271105 47.1055174,79.1295762 47.3086201,80.399465 L42.7,80.4 L42.7,85.4 L48.6666136,85.3999311 C50.7428768,90.7228142 54.6267125,95.1412161 59.5637263,97.9007422 L5,97.9 L5,1.42108547e-14 L72.8,1.42108547e-14 Z M71.85,64.9 C68.55,64.9 65.45,66.2 63.15,68.5 C58.35,73.3 58.35,81 63.15,85.8 C65.55,88.1 68.55,89.4 71.85,89.4 C75.15,89.4 78.25,88.1 80.55,85.8 C85.35,81 85.35,73.2 80.55,68.5 C78.25,66.2 75.15,64.9 71.85,64.9 Z M75.8,78.4 L75.8,85.4 L66.2142577,85.4007734 C65.6974153,85.0498531 65.2020731,84.6480529 64.731536,84.1971216 C63.0988807,82.5643474 62.1486495,80.5165784 61.8818292,78.399771 L75.8,78.4 Z M75.4126444,67.7978617 C75.5429574,67.8471406 75.6721914,67.8991353 75.8002709,67.9538127 L75.8,74.8 L62.0864171,74.7990775 C62.5057885,73.0776829 63.3918135,71.4428853 64.7450484,70.0896505 C65.7636089,69.0710899 66.9702329,68.2958228 68.2870403,67.7978617 L75.4126444,67.7978617 Z M62.8,42.7 L15.1,42.7 L15.1,47.7 L62.8,47.7 L62.8,42.7 Z M37.7,30.2 L15.1,30.2 L15.1,35.2 L37.7,35.2 L37.7,30.2 Z" id="Combined-Shape" fill="#0a4ca4" fill-rule="nonzero"></path>
    </g>
</svg>