<?xml version="1.0" encoding="UTF-8"?>
<svg width="110px" height="110px" viewBox="0 0 110 110" version="1.1" xmlns="http://www.w3.org/2000/svg" xmlns:xlink="http://www.w3.org/1999/xlink">
    <title>aggregate_reports_writing_understanding_global</title>
    <g id="aggregate_reports_writing_understanding_global" stroke="none" stroke-width="1" fill="none" fill-rule="evenodd">
        <path d="M55,0 C57.4380904,0 59.7447047,0.562916126 61.7969645,1.56587 L62.1787481,1.75903592 L62.3275803,1.81381303 C66.8150277,3.48481131 70.5769377,6.64625549 73.01148,10.6963152 C80.0412068,8.78429872 87.8704553,10.5887094 93.390873,16.109127 C98.8966726,21.6149266 100.706119,29.4173456 98.8192125,36.4326843 C105.469383,39.9561602 110,46.948989 110,55 C110,63.051011 105.469383,70.0438398 98.8186219,73.568014 C100.706119,80.5826544 98.8966726,88.3850734 93.390873,93.890873 C87.9996688,99.2820772 80.406452,101.129196 73.5063537,99.4322285 C69.9642335,106.020791 63.0052044,110.5 55,110.5 C46.9001664,110.5 39.8713879,105.914268 36.3682558,99.1973947 C29.2423759,101.279673 21.2292565,99.5110024 15.609127,93.890873 C9.97636262,88.2581085 8.21239418,80.2215825 10.3172217,73.0832839 C4.14135722,69.4275004 -7.10542736e-15,62.6973831 -7.10542736e-15,55 C-2.38967534e-15,47.3026169 4.14135722,40.5724996 10.3174808,36.916239 C8.21239418,29.7784175 9.97636262,21.7418915 15.609127,16.109127 C21.3537,10.364554 29.5984096,8.6438901 36.8407074,10.9471352 C39.2947366,6.73196108 43.1754533,3.44886373 47.8212519,1.75903592 C49.9674821,0.635479533 52.409529,0 55,0 Z M68.2,40 L50.5,61.6 L38.8,52 L35.5,55.9 L51.8,69.4 L55.1,65.5 L72.7,43.9 L68.2,40 Z" id="Combined-Shape" fill="#0a4ca4" fill-rule="nonzero"></path>
    </g>
</svg>