<?xml version="1.0" encoding="UTF-8"?>
<svg width="110px" height="110px" viewBox="0 0 110 110" version="1.1" xmlns="http://www.w3.org/2000/svg" xmlns:xlink="http://www.w3.org/1999/xlink">
    <title>Aggregate Reports Writing_3@svg</title>
    <g id="Aggregate-Reports-Writing_3" stroke="none" stroke-width="1" fill="none" fill-rule="evenodd">
        <g id="Group-2" transform="translate(-0.000000, 6.000000)" fill-rule="nonzero">
            <g id="Group">
                <path d="M54.5,35.5 C55.2860141,34.8711887 56.9534382,33.9985326 58.5,33.5 C59.7473549,33.0979165 61,33 61,33 L43.6291308,3.30826123 C42.5870667,1.26795163 40.525969,0 38.2333491,0 C38.2333491,0 38.2333491,0 38.2217585,0 C35.9175481,0 33.8448599,1.2794902 32.8374864,3.27364552 L0.636273042,59.2259565 C-0.301626377,61.1163339 -0.197380593,63.3065065 0.914157587,65.1047252 C2.02576524,66.8914053 3.95943595,67.9634087 6.06682646,67.9634087 L46,68 C46,68 44.1816639,66.0899836 43.5,62 C43,59 43,50.5 46,45.5 C49,40.5 52,37.5 54.5,35.5 Z" id="Path" fill="#0A4CA4"></path>
                <path d="M41.513415,25.5546812 L40.1347376,42.5628902 C40.054634,43.5510805 39.225693,44.3123956 38.2298175,44.3123956 L38.2199406,44.3123956 C37.2240651,44.3123956 36.3951242,43.5510805 36.3150206,42.5628902 L34.9363432,25.5546812 C34.7813698,23.6428059 36.2981384,22.0060811 38.2248733,22.0060811 L38.2248849,22.0060811 C40.1516198,22.0060811 41.6683884,23.6427944 41.513415,25.5546812 Z" id="Path" fill="#FFFFFF"></path>
                <path d="M41.1201456,51.0382059 C41.1201456,52.621768 39.8155391,53.9091196 38.224908,53.9091196 C36.6227558,53.9091196 35.329601,52.621768 35.329601,51.0382059 C35.329601,49.4432436 36.6227558,48.1559611 38.224908,48.1559611 C39.8155391,48.1559611 41.1201456,49.4432436 41.1201456,51.0382059 Z" id="Path" fill="#FFFFFF"></path>
            </g>
            <g id="Group" transform="translate(46.900235, 34.406762)" fill="#0A4CA4">
                <path d="M11.1983246,23.3370249 C10.5775394,23.186182 10.1964743,22.5625459 10.3479856,21.9434285 C10.8217753,20.0095019 11.6630595,18.2331616 12.8481012,16.6617029 C13.2314242,16.1517696 13.9585047,16.0504585 14.4696136,16.4320612 C14.9807224,16.8147936 15.0836135,17.5374815 14.7002905,18.0462967 C13.7040908,19.3656013 12.9973662,20.8616386 12.5982032,22.4905134 C12.4451056,23.1162128 11.8115603,23.4859197 11.1983246,23.3370249 Z" id="Path"></path>
                <path d="M16.0266771,14.9585248 C15.6693606,14.4305747 15.808436,13.7146416 16.338766,13.3577989 C18.454424,11.9360535 20.9387111,11.0929195 23.5224966,10.9195643 C24.1738157,10.9105617 24.7131889,11.3574536 24.7561586,11.9923401 C24.7991283,12.6283562 24.3162953,13.1776889 23.6785469,13.2204658 C21.5018329,13.3656834 19.4121814,14.073732 17.6346188,15.2692131 C17.0999814,15.6260673 16.3830789,15.48357 16.0266771,14.9585248 Z" id="Path"></path>
                <path d="M61.2471478,52.8414352 L48.4407681,40.092526 L46.8196842,41.7062659 L42.442855,37.3490784 L42.3199555,37.4655822 C49.2589522,28.293549 48.5477697,15.2084191 40.1617563,6.8600276 C30.9796167,-2.28090567 16.0774487,-2.29244424 6.89529758,6.8600276 C-2.29843253,16.0009609 -2.29843253,30.8362647 6.89529758,39.977198 C14.9711326,48.0269238 27.4680982,48.9895932 36.6101743,42.879569 L36.5953995,42.8935744 L41.1112347,47.3890749 L39.4901508,49.0028839 L52.2965305,61.751793 C54.7628586,64.2070531 58.7692291,64.2070531 61.2471478,61.751793 C62.4745224,60.5183879 63.0997655,58.9045789 63.0997655,57.2908275 C63.0997655,55.6770416 62.4745224,54.0633017 61.2471478,52.8414352 Z M10.6468837,36.2424592 C3.5489535,29.1763821 3.53736292,17.6608665 10.6468837,10.5947894 C17.7448138,3.52871228 29.3006378,3.52871228 36.4101702,10.5947894 C43.5081003,17.6724051 43.5081003,29.1763821 36.4101702,36.2424592 C29.3122284,43.3200865 17.756416,43.3200865 10.6468837,36.2424592 Z" id="Shape"></path>
            </g>
        </g>
    </g>
</svg>