<svg id="Layer_1" data-name="Layer 1" xmlns="http://www.w3.org/2000/svg" viewBox="0 0 110 110"><defs><style>.cls-1{fill:#0a4ca4;}</style></defs><circle class="cls-1" cx="50.01" cy="45.02" r="9.02"/><path class="cls-1" d="M34,72c0-8.82,7.14-16.63,16-16.63S66,63.18,66,72"/><path class="cls-1" d="M87.82,87.21H99.07V82.35L110,93.28,99.07,104.22V99.36H72.49A50.1,50.1,0,0,0,87.82,87.21Z"/><path class="cls-1" d="M45.3,23.12A32.2,32.2,0,0,0,31.9,81.74H14.47A44.32,44.32,0,0,1,44.67,11l-5.78,5.77Z"/><path class="cls-1" d="M6.09,93.28,0,87.21H49.84a32.2,32.2,0,0,0,5.47-63.94v4.39L44.37,16.72,55.31,5.78V11a44.35,44.35,0,0,1-5.47,88.37H0Z"/></svg>