<svg id="Layer_1" data-name="Layer 1" xmlns="http://www.w3.org/2000/svg" viewBox="0 0 110 110"><defs><style>.cls-1{fill:#0a4ca4;}</style></defs><path class="cls-1" d="M49.79,47.79l6.49,0L49.79,51.9Zm9.36,9.35H51.67a1.87,1.87,0,0,1-1.63-1l11-6.87v6A1.87,1.87,0,0,1,59.15,57.14ZM40.43,31A15.07,15.07,0,0,1,54.94,16h.47a14.95,14.95,0,0,1,7,28.17L48.26,44A14.88,14.88,0,0,1,40.43,31Z"/><rect class="cls-1" x="77.87" y="29.06" width="3.74" height="3.74"/><rect class="cls-1" x="29.2" y="29.06" width="3.74" height="3.74"/><rect class="cls-1" x="74.61" y="16.89" width="3.74" height="3.74" transform="translate(0.86 40.75) rotate(-30)"/><rect class="cls-1" x="32.47" y="41.23" width="3.74" height="3.74" transform="translate(-16.95 22.94) rotate(-30)"/><rect class="cls-1" x="65.7" y="7.99" width="3.74" height="3.74" transform="translate(25.24 63.45) rotate(-59.99)"/><rect class="cls-1" x="53.54" y="4.73" width="3.74" height="3.74"/><rect class="cls-1" x="41.37" y="7.99" width="3.74" height="3.74" transform="translate(0.87 22.95) rotate(-30.01)"/><rect class="cls-1" x="32.47" y="16.9" width="3.74" height="3.74" transform="translate(0.92 39.12) rotate(-60)"/><rect class="cls-1" x="74.61" y="41.23" width="3.74" height="3.74" transform="translate(0.92 87.79) rotate(-60)"/><polyline class="cls-1" points="18.82 69.94 18.82 104.97 0.36 104.97 0.36 69.94"/><path class="cls-1" d="M35.79,64.69a3.76,3.76,0,0,1,3.57-.1L66.45,78.08A3,3,0,0,1,67.84,82l-.5,1.29h0A2.6,2.6,0,0,1,63.87,85L44.12,77.19a1.75,1.75,0,0,0-2.28,1.19A2.22,2.22,0,0,0,42.93,81L62.78,88.8a5.13,5.13,0,0,0,2.08.4,6.33,6.33,0,0,0,5.56-3.58l34.63-9.52a3.74,3.74,0,0,1,3.08.49,4.2,4.2,0,0,1,1.78,2.78,4.52,4.52,0,0,1-2.48,5.06L58.71,105a3.37,3.37,0,0,1-2.78,0L24,92.47V71.53Z"/></svg>