<svg id="Layer_1" data-name="Layer 1" xmlns="http://www.w3.org/2000/svg" viewBox="0 0 110 110"><defs><style>.cls-1{fill:#0a4ca4;}</style></defs><path class="cls-1" d="M26.5,75.36h57C86,75.36,88,74,88,72.25s-2-3.12-4.49-3.12H58.8L55.26,41.37h.42v-.13A14.51,14.51,0,0,0,69.51,26.76C69.51,18.74,55,0,55,0S40.49,18.74,40.49,26.76A14.51,14.51,0,0,0,54.32,41.24v.13h.42L51.2,69.13H26.49C24,69.13,22,70.54,22,72.25S24,75.36,26.5,75.36Zm23-45.22a6.85,6.85,0,0,1-.71-3.4H51a6.17,6.17,0,0,0,.53,2.49,3.34,3.34,0,0,0,2.89,1.58V24a8.13,8.13,0,0,1-4-1.7A4.34,4.34,0,0,1,49.13,19a5,5,0,0,1,1.39-3.41A5.09,5.09,0,0,1,54.42,14V12.39H55.6V14a5.8,5.8,0,0,1,3.8,1.46,4.73,4.73,0,0,1,1.4,3.4H58.61a3.68,3.68,0,0,0-.51-1.64,2.87,2.87,0,0,0-2.51-1.32V22a14.63,14.63,0,0,1,3.92,1.52A4,4,0,0,1,61.2,27q0,3.32-2.16,4.71a8.21,8.21,0,0,1-3.45,1v2.42H54.41V32.71C52,32.55,50.36,31.7,49.5,30.14ZM69.37,110H40.63a6.28,6.28,0,0,1-5.71-4.32L27.49,77.12h55l-7.43,28.56A6.29,6.29,0,0,1,69.37,110ZM61.63,44.58c3.95-4,21.13-6.82,21.13-6.82s-2.87,17.17-6.82,21.12a10.12,10.12,0,0,1-14.31-14.3ZM34.06,58.88c-4-4-6.82-21.13-6.82-21.13s17.18,2.87,21.13,6.82A10.12,10.12,0,0,1,34.06,58.88ZM58.55,29.32a3.27,3.27,0,0,1-2.95,1.56V24.32a7.13,7.13,0,0,1,2.22.9A2.72,2.72,0,0,1,59,27.59,3.38,3.38,0,0,1,58.55,29.32Zm-4.13-7.56a4.85,4.85,0,0,1-2.21-1,2.41,2.41,0,0,1-.83-1.94,3.23,3.23,0,0,1,.69-2,2.88,2.88,0,0,1,2.35-1Z"/></svg>