<svg id="Layer_1" data-name="Layer 1" xmlns="http://www.w3.org/2000/svg" viewBox="0 0 110 110"><defs><style>.cls-1{fill:#0a4ca4;}</style></defs><title>AI</title><g id="brain"><g id="Shape"><path class="cls-1" d="M35.5,110.13c-.57,0-1.13,0-1.69-.08l-.6-.08-1-.16-.71-.16-.89-.23-.71-.23c-.29-.09-.56-.2-.84-.3l-.68-.29c-.28-.12-.56-.26-.84-.4s-.4-.2-.59-.31-.63-.37-.94-.57l-.42-.26A18.08,18.08,0,0,1,23,105l-.08-.09c-.36-.36-.7-.73-1-1.12l-.18-.22c-.28-.35-.55-.71-.81-1.09a2.9,2.9,0,0,1-.19-.29c-.24-.36-.47-.73-.68-1.11-.06-.11-.12-.23-.19-.34-.19-.37-.38-.75-.55-1.14-.05-.13-.11-.25-.16-.38-.16-.39-.31-.79-.44-1.19,0-.13-.09-.26-.13-.4-.14-.44-.25-.89-.35-1.34,0-.1,0-.19-.07-.29a17.66,17.66,0,0,1,3.19-14.11,2,2,0,0,0-3.15-2.36,21.48,21.48,0,0,0-4.32,13c0,.39,0,.77.06,1.16A14.67,14.67,0,0,1,4.07,79.69a15.1,15.1,0,0,1,.2-2.42c0-.09.05-.18.06-.27a14.62,14.62,0,0,1,2.8-6.29s0,0,0,0a14.71,14.71,0,0,1,7.31-5.06,2,2,0,1,0-1.15-3.75,18.54,18.54,0,0,0-8,4.92A15.74,15.74,0,0,1,.14,55.13a16.31,16.31,0,0,1,.14-2c0-.21.06-.41.1-.62a12.42,12.42,0,0,1,.28-1.32c0-.22.1-.44.17-.66A14.13,14.13,0,0,1,1.4,49c.13-.3.28-.59.43-.88s.24-.49.38-.73.36-.62.57-.93.24-.34.36-.51c.39-.52.8-1,1.24-1.5l.53-.55c.24-.23.49-.46.75-.68s.57-.46.87-.68.47-.36.72-.52c.46-.3.93-.57,1.41-.82a15.54,15.54,0,0,1,7.2-1.76,2,2,0,0,0,0-3.93A19.54,19.54,0,0,0,9,36.74a13.5,13.5,0,0,1-1-5.18,13.76,13.76,0,0,1,20.41-12,2,2,0,0,0,1.91-3.44A17.87,17.87,0,0,0,23.76,14a14.72,14.72,0,0,1,29.42.86v1H48.89a5.89,5.89,0,1,0,0,3.93h4.29V27L44.65,38.94l-7.22-3.16a2.85,2.85,0,0,0,0-.29,5.95,5.95,0,1,0-1.52,3.92l7.13,3.13a3.88,3.88,0,0,0,1.57.33,4,4,0,0,0,3.21-1.64l5.33-7.47V49.24H37.1a5.89,5.89,0,1,0,0,3.93H53.18V61H48.89a5.89,5.89,0,1,0,0,3.92h4.29v7.86H37.11A4,4,0,0,0,33.26,76L31.87,82.9a5.85,5.85,0,1,0,4,.2l1.27-6.36H53.18V92.45A17.7,17.7,0,0,1,35.5,110.13Zm9.82-92.32a2,2,0,1,1-2-2A2,2,0,0,1,45.32,17.81ZM31.57,37.45a2,2,0,1,1,2-2A2,2,0,0,1,31.57,37.45Zm2,13.75a2,2,0,1,1-2-2A2,2,0,0,1,33.54,51.2ZM45.32,63a2,2,0,1,1-2-2A2,2,0,0,1,45.32,63ZM33.54,86.56a2,2,0,1,1-2,2A2,2,0,0,1,33.54,86.56Zm62.79,7c0-.39.06-.77.06-1.16a21.36,21.36,0,0,0-4.32-13,2,2,0,0,0-3.14,2.36A17.69,17.69,0,0,1,92.11,96c0,.1,0,.19-.07.29-.1.45-.21.9-.34,1.34,0,.14-.09.27-.14.4-.13.4-.27.8-.43,1.18l-.17.39c-.17.39-.35.77-.55,1.14-.06.11-.12.23-.19.34-.21.38-.43.75-.67,1.11l-.19.29c-.26.38-.53.74-.82,1.09l-.17.22c-.33.39-.67.76-1,1.12l-.09.09a17,17,0,0,1-2.53,2.1l-.42.26q-.45.3-.93.57l-.6.31c-.28.14-.55.28-.84.4l-.68.29c-.27.1-.55.21-.83.3l-.72.23-.89.23-.7.16-1.05.16-.59.08c-.56,0-1.12.08-1.7.08A17.7,17.7,0,0,1,57.11,92.45V85.23l8.52-11.94,7.22,3.16a2.85,2.85,0,0,0,0,.29,6,6,0,1,0,1.53-3.92l-7.14-3.13A4,4,0,0,0,62.44,71l-5.33,7.47V63H73.18a5.89,5.89,0,1,0,0-3.93H57.11V51.2H61.4a5.89,5.89,0,1,0,0-3.92H57.11V37.45h6.24a3.94,3.94,0,0,0,3.86-3.15l1.38-6.94a5.85,5.85,0,1,0-4-.2l-1.28,6.37H57.11V14.87A14.72,14.72,0,0,1,86.53,14a17.63,17.63,0,0,0-6.84,2.24,2,2,0,0,0,2,3.4,13.75,13.75,0,0,1,20.62,11.91,13.32,13.32,0,0,1-1,5.18,19.49,19.49,0,0,0-6.84-1.25,2,2,0,1,0,0,3.93A16.06,16.06,0,0,1,103,42c.24.16.48.34.71.52s.6.44.88.68l.74.68c.19.18.36.36.53.55a17.61,17.61,0,0,1,1.24,1.5l.37.51c.2.31.38.62.57.93s.26.48.38.73.29.58.42.88a14.18,14.18,0,0,1,.58,1.58c.06.22.11.44.17.66.11.44.21.88.28,1.32,0,.21.07.41.09.62a14.5,14.5,0,0,1,.14,2A15.77,15.77,0,0,1,105,66.77a18.6,18.6,0,0,0-8-4.92,2,2,0,1,0-1.16,3.75,14.76,14.76,0,0,1,7.31,5.05s0,0,0,.07A14.38,14.38,0,0,1,106,77.05l.06.22a15.09,15.09,0,0,1,.19,2.42A14.66,14.66,0,0,1,96.33,93.61ZM78.71,74.78a2,2,0,1,1-2,2A2,2,0,0,1,78.71,74.78ZM76.75,61a2,2,0,1,1,2,2A2,2,0,0,1,76.75,61ZM65,49.24a2,2,0,1,1,2,2A2,2,0,0,1,65,49.24Zm2-25.54a2,2,0,1,1,2-2A2,2,0,0,1,66.93,23.7Z"/></g></g></svg>