<?xml version="1.0" encoding="utf-8"?>
<!-- Generator: Adobe Illustrator 25.0.1, SVG Export Plug-In . SVG Version: 6.00 Build 0)  -->
<svg version="1.1" id="Layer_1" xmlns="http://www.w3.org/2000/svg" xmlns:xlink="http://www.w3.org/1999/xlink" x="0px" y="0px"
	 viewBox="0 0 110 110" style="enable-background:new 0 0 110 110;" xml:space="preserve">
<style type="text/css">
	.st0{fill:#0a4ca4;}
</style>
<g id="Page-1">
	<g id="Desktop-HD" transform="translate(-844.000000, -2583.000000)">
		<g id="algorithm" transform="translate(844.000000, 2583.000000)">
			<path id="Path" class="st0" d="M106.8,92L96,73.3V56c0-1,0-2.1,0.1-3.1c-1.1,0-2.1,0-3.2,0H55.4V38.3h2.7c0.5,0,1,0,1.5,0
				c0.3-0.4,0.5-0.9,0.8-1.3l5.9-10.1c0.3-0.4,0.5-0.8,0.8-1.3c-0.3-0.4-0.5-0.9-0.8-1.3l-5.9-10.1c-0.3-0.4-0.5-0.9-0.8-1.3
				c-0.5,0-1,0-1.5,0H46.3c-0.5,0-1,0-1.5,0c-0.3,0.4-0.5,0.9-0.8,1.3l-5.9,10.1c-0.3,0.4-0.5,0.8-0.8,1.3c0.3,0.4,0.5,0.9,0.8,1.3
				L44.1,37c0.2,0.4,0.5,0.9,0.7,1.3c0.5,0,1,0,1.5,0H49v14.5H11.6c-1.1,0-2.1,0.1-3.2,0.1c0,1,0,2,0,3.1v16.9H2.8
				c-0.8,0-1.6,0-2.4,0c0,0.8,0,1.7,0,2.5v17.8c0,0.8,0,1.6,0.1,2.5c0.8,0,1.6,0,2.4,0h17.8c0.8,0,1.6,0,2.5,0c0-0.8,0-1.6,0-2.4
				V75.4c0-0.8,0-1.7,0-2.5c-0.8,0-1.6,0-2.5,0h-5.7V59.1H49v12.6c-5.6,1.5-9.8,6.4-9.8,12.5c0,7.2,5.9,12.9,12.9,12.9
				s13.1-5.7,13.1-12.9c0-6.1-4.2-11.1-9.8-12.5V59.1h34.2v14.2L78.8,92c-1,1.7-1.9,3.4-2.9,5.2c2,0,4,0,6,0h21.9c2,0,3.9,0,5.9,0
				C108.7,95.5,107.7,93.8,106.8,92z"/>
		</g>
	</g>
</g>
</svg>
