<svg id="Layer_1" data-name="Layer 1" xmlns="http://www.w3.org/2000/svg" viewBox="0 0 110 110"><defs><style>.cls-1{fill:#0a4ca4;}</style></defs><polygon class="cls-1" points="55.01 110 76.14 45.6 33.85 45.6 54.99 110 55.01 110"/><polygon class="cls-1" points="33.87 42.07 76.13 42.07 70.43 23.04 39.57 23.04 33.87 42.07"/><polygon class="cls-1" points="51.06 109.47 30.15 45.6 2.44 45.6 51.06 109.47"/><polygon class="cls-1" points="79.85 45.6 58.93 109.48 107.56 45.6 79.85 45.6"/><path class="cls-1" d="M17.5,23.73,3.22,42.07H30.16l5.72-19h-17A1.78,1.78,0,0,0,17.5,23.73Z"/><path class="cls-1" d="M79.84,42.07h26.94L92.5,23.73A1.78,1.78,0,0,0,91.11,23h-17Z"/><path class="cls-1" d="M35.66,6.36,33,8.62l6.65,8,2.71-2.25Z"/><path class="cls-1" d="M56.76,10.39V0H53.23V10.39Z"/><path class="cls-1" d="M74.34,6.36l-6.65,8L70.4,16.6l6.65-8Z"/></svg>