<svg id="Layer_1" data-name="Layer 1" xmlns="http://www.w3.org/2000/svg" viewBox="0 0 110 110"><defs><style>.cls-1{fill:#0a4ca4;}</style></defs><path class="cls-1" d="M55,.19A35.32,35.32,0,1,0,90.32,35.5,35.36,35.36,0,0,0,55,.19Zm0,67.36a32,32,0,1,1,32.05-32A32.1,32.1,0,0,1,55,67.55Z"/><path class="cls-1" d="M36.73,33.18h6.78V26.3H36.73Z"/><path class="cls-1" d="M55,7.72a27.8,27.8,0,1,0,27.79,27.8A27.83,27.83,0,0,0,55,7.72ZM34.35,35.59V23.89H46v11.7ZM46.31,57a5.76,5.76,0,1,1,5.75-5.75A5.75,5.75,0,0,1,46.31,57Zm7-12.79A5.76,5.76,0,1,1,59,38.43,5.75,5.75,0,0,1,53.28,44.18Zm4-21.81a6.07,6.07,0,1,1,6.06-6.07A6.08,6.08,0,0,1,57.31,22.37ZM67.37,53.26a5.76,5.76,0,1,1,5.76-5.76A5.76,5.76,0,0,1,67.37,53.26Zm1.22-16.92a5.77,5.77,0,1,1,5.77-5.76A5.77,5.77,0,0,1,68.59,36.34Z"/><path class="cls-1" d="M11.47,60.59V38.36A5.74,5.74,0,0,0,0,38.36V68.81A17.6,17.6,0,0,0,4.23,80.25l19,20.17a6.81,6.81,0,0,1,2.35,5.72v3.67H46.22l0-8.73c0-3.33.27-7.77-3.89-12.14L18.27,64.76A4.58,4.58,0,0,0,10.52,68a4.61,4.61,0,0,0,1.09,3L23.23,83.46A13.68,13.68,0,0,1,25.89,88a11,11,0,0,1,.46,3.28H22.61a7.58,7.58,0,0,0-.28-2.15,9.33,9.33,0,0,0-1.65-2.92L8.89,73.31A7.72,7.72,0,0,1,6.6,67.85,8,8,0,0,1,11.47,60.59Z"/><path class="cls-1" d="M98.53,60.59V38.36a5.74,5.74,0,0,1,11.47,0V68.81a17.62,17.62,0,0,1-4.23,11.45l-19,20.16a6.81,6.81,0,0,0-2.35,5.72v3.67H63.78l0-8.73c0-3.33-.27-7.77,3.89-12.14L91.73,64.76A4.58,4.58,0,0,1,99.48,68a4.63,4.63,0,0,1-1.09,3L86.77,83.46A13.68,13.68,0,0,0,84.11,88a11,11,0,0,0-.46,3.28h3.74a7.58,7.58,0,0,1,.28-2.15,9.33,9.33,0,0,1,1.65-2.92l11.79-12.94a7.72,7.72,0,0,0,2.29-5.46A8,8,0,0,0,98.53,60.59Z"/></svg>