<svg id="Layer_1" data-name="Layer 1" xmlns="http://www.w3.org/2000/svg" viewBox="0 0 110 110"><defs><style>.cls-1{fill:#0a4ca4;}</style></defs><path class="cls-1" d="M107.06,96.68H96.68v6.46h10.38Z"/><path class="cls-1" d="M55.15,75.45V69H41.3L38.1,69l0,3.18v30.94l3.24,0H58.39V82.87l-3.22,0H44.53V75.45ZM51.91,89.29v7.39H44.53V89.29Z"/><path class="cls-1" d="M82.83,69H69l-3.25.11,0,3.12V99.91l0,3.24h17l3.23,0V72.22l0-3.24ZM79.6,96.68H72.22V75.45H79.6Z"/><path class="cls-1" d="M31,12.22a54.12,54.12,0,0,0-12.58,8.41L32.81,35A34.3,34.3,0,0,1,39,30.92Z"/><path class="cls-1" d="M51.82,27.15V6.79A54.81,54.81,0,0,0,37,9.73l8,18.74a34.46,34.46,0,0,1,6.84-1.32Z"/><path class="cls-1" d="M21.76,51.59,2.87,44A54.78,54.78,0,0,0,0,58.6H20.38A34.8,34.8,0,0,1,21.76,51.59Z"/><path class="cls-1" d="M20.36,65.07H0A54.78,54.78,0,0,0,3.2,80.64l18.72-8a34.88,34.88,0,0,1-1.56-7.57Z"/><path class="cls-1" d="M28.24,39.6,13.85,25.2A54.2,54.2,0,0,0,5.31,38l18.91,7.58A34.14,34.14,0,0,1,28.24,39.6Z"/><path class="cls-1" d="M109.8,65.09a51.31,51.31,0,0,0-1.08-15.91,50.67,50.67,0,0,0-1.75-5.9l-18.73,8q.81,5.28,1.63,10.55L90.38,65l16.57.07Z"/><path class="cls-1" d="M24.49,78.56l-18.72,8,10.29,14.24,1.88,2.39,2.69-2.39L30.42,91l1.93-1.87-1.93-2.7Z"/><path class="cls-1" d="M85.73,45.34l18.72-8a54.5,54.5,0,0,0-8.2-12.13L81.86,39.6a34.17,34.17,0,0,1,3.87,5.74Z"/><path class="cls-1" d="M77.29,35l14.39-14.4A55,55,0,0,0,79,12.17L71.43,31.09A34.34,34.34,0,0,1,77.29,35Z"/><path class="cls-1" d="M58.28,6.79V27.15a33.91,33.91,0,0,1,7.2,1.44L73,9.7A54.44,54.44,0,0,0,58.28,6.79Z"/></svg>