<svg id="Layer_1" data-name="Layer 1" xmlns="http://www.w3.org/2000/svg" viewBox="0 0 110 110"><defs><style>.cls-1{fill:#0a4ca4;}</style></defs><path class="cls-1" d="M53.23,108.23h3.54l8.7-7.1H44.53Z"/><path class="cls-1" d="M71.77,50.11l.27-.82,2.48-.87V40.29L72,39.42l-.27-.82a18.28,18.28,0,0,0-.85-2l-.38-.77,1.14-2.37-5.76-5.75-2.36,1.13-.78-.38a16.1,16.1,0,0,0-2-.84l-.81-.28-.87-2.47H50.93l-.87,2.47-.81.28a16.1,16.1,0,0,0-2,.84l-.78.38-2.37-1.13-5.75,5.75,1.14,2.37-.38.77a16.55,16.55,0,0,0-.85,2l-.28.82-2.47.87v8.13l2.48.87.27.82a18.28,18.28,0,0,0,.85,2l.38.77-1.14,2.37L44.08,61l2.36-1.13.78.38a16.1,16.1,0,0,0,2,.84l.81.28.87,2.47h8.14l.87-2.47.81-.28a17.73,17.73,0,0,0,2-.84l.78-.38L65.93,61l5.75-5.75-1.14-2.37.38-.77A18.28,18.28,0,0,0,71.77,50.11ZM55,56.77A12.42,12.42,0,1,1,67.42,44.35,12.42,12.42,0,0,1,55,56.77Z"/><circle class="cls-1" cx="55" cy="44.35" r="5.32"/><path class="cls-1" d="M30.26,27.14A29.84,29.84,0,0,0,25.32,39h6.62V37.78l3.24-1.15c.11-.28.22-.56.34-.83L34,32.69l.89-.88Z"/><path class="cls-1" d="M43.34,23.39l3.1,1.49.84-.35,1.14-3.24h1.26V14.72a30,30,0,0,0-11.89,4.89l4.66,4.67Z"/><path class="cls-1" d="M35.18,52.08l-3.24-1.15V49.68H25.32a29.94,29.94,0,0,0,4.95,11.88l4.66-4.66L34,56l1.48-3.1C35.4,52.63,35.29,52.35,35.18,52.08Z"/><path class="cls-1" d="M79.73,61.56a29.94,29.94,0,0,0,5-11.88H78.06v1.25l-3.24,1.15c-.11.28-.22.56-.34.83L76,56l-.89.89Z"/><path class="cls-1" d="M65.73,83.39a20,20,0,0,1,5.18-11.76l1.84-2-5.2-5.2-.89.88-3.1-1.48-.84.35-1.14,3.24H60.32V82.29a7,7,0,0,0-3.55-2.2V67.42H53.23V80.09a7,7,0,0,0-3.55,2.2V67.42H48.42l-1.14-3.24-.84-.35-3.1,1.49-.89-.89-5.2,5.2,1.84,2a20,20,0,0,1,5.18,11.76h4.62a7,7,0,0,0-1,3.55,6.78,6.78,0,0,0,.13,1.2,6,6,0,0,1-.13-1.2H40.81v3.54h8.08a7,7,0,0,0,12.22,0h8.08V86.94H62.1a6,6,0,0,1-.13,1.2,6.78,6.78,0,0,0,.13-1.2,7,7,0,0,0-1-3.55Zm-17.6,5.24a5.43,5.43,0,0,0,.17.53C48.24,89,48.18,88.81,48.13,88.63Zm13.57.53c.06-.18.12-.35.17-.53C61.82,88.81,61.76,89,61.7,89.16Z"/><path class="cls-1" d="M84.68,39a29.84,29.84,0,0,0-4.94-11.89l-4.67,4.67.89.89-1.48,3.1c.12.28.24.55.34.83l3.24,1.15V39Z"/><path class="cls-1" d="M60.32,21.29h1.26l1.14,3.24.84.35,3.1-1.49.89.89,4.67-4.67a30.08,30.08,0,0,0-11.9-4.89Z"/><path class="cls-1" d="M40.81,97.58H69.19V94H40.81Z"/><path class="cls-1" d="M53.23,15.72v5.57h3.54V15.72a7.1,7.1,0,1,0-3.54,0Z"/><path class="cls-1" d="M23.06,19.52a7.07,7.07,0,0,0,3.59-1L37.44,29.3l2.5-2.51L29.16,16a7,7,0,0,0,1-3.58,7.1,7.1,0,1,0-7.1,7.1Z"/><path class="cls-1" d="M86.94,69.19a7.07,7.07,0,0,0-3.59,1L72.56,59.41l-2.5,2.51L80.84,72.71a7,7,0,0,0-1,3.58,7.1,7.1,0,1,0,7.1-7.1Z"/><path class="cls-1" d="M101.13,35.48a8.89,8.89,0,0,0-8.69,7.1H78.06v3.55H92.44a8.87,8.87,0,1,0,8.69-10.65Z"/><path class="cls-1" d="M31.94,46.13V42.58H17.56a8.88,8.88,0,1,0,0,3.55Z"/><path class="cls-1" d="M70.05,26.79l2.51,2.51L83.35,18.51A7.16,7.16,0,1,0,80.84,16Z"/><path class="cls-1" d="M40,61.92l-2.51-2.51L26.65,70.2a7.16,7.16,0,1,0,2.51,2.51Z"/></svg>