<svg id="Layer_1" data-name="Layer 1" xmlns="http://www.w3.org/2000/svg" viewBox="0 0 110 110"><defs><style>.cls-1{fill:#0a4ca4;}</style></defs><path class="cls-1" d="M64.61,90.12l-.71.21Z"/><path class="cls-1" d="M53.4,26.47l.32-.13Z"/><path class="cls-1" d="M54,26.25l.31-.09Z"/><path class="cls-1" d="M52.83,26.77l.32-.18Z"/><path class="cls-1" d="M51.63,27.6c.12-.11.25-.21.37-.3C51.88,27.39,51.75,27.49,51.63,27.6Z"/><path class="cls-1" d="M57,26.22l.18.07Z"/><path class="cls-1" d="M56.07,26l.18,0Z"/><path class="cls-1" d="M56.52,26.1l.18,0Z"/><path class="cls-1" d="M50.85,28.29c.19-.19.38-.36.58-.53C51.24,27.92,51,28.1,50.85,28.29Z"/><path class="cls-1" d="M55.61,26h0Z"/><path class="cls-1" d="M54.53,26.1l.3-.05Z"/><path class="cls-1" d="M55.07,26l.3,0Z"/><path class="cls-1" d="M52.24,27.14l.34-.23Z"/><path class="cls-1" d="M44,88.62l-.66-.32Z"/><path class="cls-1" d="M45.3,89.18l-.66-.28Z"/><path class="cls-1" d="M46.59,89.67l-.66-.25Z"/><path class="cls-1" d="M47.9,90.1l-.66-.21Z"/><path class="cls-1" d="M36.89,83.91c-.37-.33-.72-.66-1.07-1C36.17,83.25,36.52,83.58,36.89,83.91Z"/><path class="cls-1" d="M42.76,88l-.65-.36Z"/><path class="cls-1" d="M41.53,87.31c-.22-.13-.44-.26-.65-.4C41.09,87.05,41.31,87.18,41.53,87.31Z"/><path class="cls-1" d="M38,84.86c-.25-.2-.49-.41-.73-.62C37.51,84.45,37.75,84.66,38,84.86Z"/><path class="cls-1" d="M40.32,86.56c-.22-.14-.44-.3-.65-.45C39.88,86.26,40.1,86.42,40.32,86.56Z"/><path class="cls-1" d="M39.14,85.75l-.67-.52Z"/><path class="cls-1" d="M99,45.7a2.17,2.17,0,0,0-.29.24l-.08.08A3.68,3.68,0,0,1,99,45.7Z"/><path class="cls-1" d="M99.13,45.61a4.15,4.15,0,0,1,.57-.35A4.15,4.15,0,0,0,99.13,45.61Z"/><path class="cls-1" d="M99.71,45.26a4.78,4.78,0,0,1,.62-.26A3.7,3.7,0,0,0,99.71,45.26Z"/><path class="cls-1" d="M92.48,16.61l.22-.32-.22.32Z"/><path class="cls-1" d="M57.38,26.39l.17.09Z"/><path class="cls-1" d="M101.07,44.8a5.06,5.06,0,0,0-.67.17A5.06,5.06,0,0,1,101.07,44.8Z"/><path class="cls-1" d="M72.33,85.87a19.68,19.68,0,0,1-2.44,1.8A19.34,19.34,0,0,0,73.33,85l31-31a8.83,8.83,0,0,0,1.8-2.5,28.43,28.43,0,0,1-3.18,3.81Z"/><path class="cls-1" d="M92,10.3a4.25,4.25,0,0,1,.35.39A4.25,4.25,0,0,0,92,10.3Z"/><path class="cls-1" d="M92.43,10.74a4.44,4.44,0,0,1,.27.38A4.44,4.44,0,0,0,92.43,10.74Z"/><path class="cls-1" d="M57.79,26.61l.16.1Z"/><path class="cls-1" d="M58.19,26.89l.13.1Z"/><path class="cls-1" d="M49.22,90.46l-.66-.17Z"/><path class="cls-1" d="M69.82,87.73l-.73.43Z"/><path class="cls-1" d="M58.17,91.31l-.39,0Z"/><path class="cls-1" d="M56.87,91.36h0Z"/><path class="cls-1" d="M59.4,91.2l-.42,0Z"/><path class="cls-1" d="M63,90.59l-.42.09Z"/><path class="cls-1" d="M66.83,89.29l-.66.27Z"/><path class="cls-1" d="M65.75,89.72l-.63.23Z"/><path class="cls-1" d="M60.62,91.05l-.45.06Z"/><path class="cls-1" d="M67.86,88.81l-.67.32Z"/><path class="cls-1" d="M61.8,90.84l-.44.08Z"/><path class="cls-1" d="M55.84,91.35h0Z"/><path class="cls-1" d="M68.85,88.29c-.22.13-.45.25-.68.37C68.4,88.54,68.63,88.42,68.85,88.29Z"/><path class="cls-1" d="M50.54,90.76l-.66-.14Z"/><path class="cls-1" d="M54.52,91.3l-.63,0Z"/><path class="cls-1" d="M51.87,91l-.66-.11Z"/><path class="cls-1" d="M53.19,91.18l-.64-.08Z"/><path class="cls-1" d="M110,29.6a3.85,3.85,0,0,0-.09-.67s0,0,0-.06q-.08-.32-.18-.63l0-.08a3.93,3.93,0,0,0-.3-.62.93.93,0,0,0,0-.1,6.3,6.3,0,0,0-.37-.53l0-.05h0a3.9,3.9,0,0,0-.33-.38,4.83,4.83,0,0,0-6.82,0L73.69,54.58h0l0,0a1,1,0,0,1-1.38,0,1,1,0,0,1,0-1.38L98.44,27.06l4.51-4.5a4.82,4.82,0,0,0-7.1-6.51L92.7,19.19h0L65.49,46.4l0,0h0a1,1,0,0,1-1.38,0,1,1,0,0,1,0-1.38L92.48,16.61l.22-.32h0a4.81,4.81,0,0,0,0-5.16h0a4.44,4.44,0,0,0-.27-.38l0-.05c-.11-.13-.22-.26-.35-.39a4.83,4.83,0,0,0-6.65-.16L46.74,48.8a1,1,0,0,1-1.38,0,1,1,0,0,1,0-1.38L58.29,34.49c2-2.13,2.22-5.35.38-7.19L58.32,27l-.13-.09L58,26.71l-.16-.1-.23-.13-.17-.09-.25-.1L57,26.22l-.26-.08-.18,0a2.8,2.8,0,0,0-.28-.06l-.18,0-.3,0h-.39l-.31,0-.24,0-.3.05-.25.06-.31.1a1.25,1.25,0,0,0-.25.09l-.31.13-.26.11-.32.18-.25.14-.34.23L52,27.3l-.37.3c-.07.06-.14.1-.2.16s-.39.35-.58.54l-15,15h0a28,28,0,0,0,0,39.56c.35.36.7.69,1.07,1,.12.12.25.22.38.34l.73.61c.15.13.32.25.47.37l.67.52.53.37.65.45.56.34c.22.14.43.28.65.4s.39.22.58.33l.66.36c.2.11.4.2.6.3l.65.32.62.28.66.28.63.25.66.24.65.22.66.21.66.19.66.17.66.16.66.14.68.14.65.1.68.11.65.07.69.07.63,0,.7,0,.62,0h1q.45,0,.9,0l.39,0,.81-.06.43,0c.26,0,.51,0,.77-.09l.44-.06.74-.13.44-.08.74-.16.42-.09.95-.26.7-.21.51-.17.64-.23.42-.16.65-.27.36-.16.67-.32.31-.15.69-.37.23-.13.73-.43.08-.06a19.58,19.58,0,0,0,2.43-1.8L102.9,55.3a28.39,28.39,0,0,0,3.19-3.81h0a4.89,4.89,0,0,0,.2-.48v0c.06-.16.11-.32.15-.47a0,0,0,0,0,0,0c0-.15.07-.3.1-.45v0a3.34,3.34,0,0,0,0-.43.13.13,0,0,1,0-.06c0-.14,0-.27,0-.41V49l0-.38a.09.09,0,0,1,0,0,4.16,4.16,0,0,0-.2-.79v0a4.45,4.45,0,0,0-1.06-1.64,4.83,4.83,0,0,0-4.24-1.34h0a5.06,5.06,0,0,0-.67.17l-.07,0a3.7,3.7,0,0,0-.62.26h0a4.73,4.73,0,0,0-.56.35L99,45.7a2.73,2.73,0,0,0-.37.32L81.86,62.8a1,1,0,0,1-1.38,0,1,1,0,0,1,0-1.38l20.58-20.59,7.59-7.58a5.46,5.46,0,0,0,.56-.71h0a6.47,6.47,0,0,0,.34-.63l0-.09a4.88,4.88,0,0,0,.23-.64s0-.06,0-.09a3.82,3.82,0,0,0,.12-.66s0,0,0,0a5.15,5.15,0,0,0,0-.68Z"/><path class="cls-1" d="M63.28,25.57,81.22,7.63a27.83,27.83,0,0,0-17.86,8.12L57.6,21.51A9.27,9.27,0,0,1,62,24,9.67,9.67,0,0,1,63.28,25.57Z"/><path class="cls-1" d="M32.48,40l15-15a12.13,12.13,0,0,1,6-3.46l-5.74-5.74A28,28,0,0,0,8.19,55.3L23.88,71A32.7,32.7,0,0,1,32.48,40Z"/><path class="cls-1" d="M47.88,95l6.76,6.76h0l.92.69.87-.69h0l6.29-6.29a32.13,32.13,0,0,1-6.33.63A33.94,33.94,0,0,1,47.88,95Z"/></svg>