<svg id="Layer_1" data-name="Layer 1" xmlns="http://www.w3.org/2000/svg" viewBox="0 0 110 110"><defs><style>.cls-1{fill:#0a4ca4;}</style></defs><path class="cls-1" d="M38.92,41.72h6.4A26.32,26.32,0,0,1,48,35.39a20.93,20.93,0,0,0-9,6.33Z"/><path class="cls-1" d="M43.66,56.9H34.23a20.67,20.67,0,0,0,2.21,7.58h8A51.77,51.77,0,0,1,43.66,56.9Z"/><path class="cls-1" d="M45.32,68.28h-6.4a21,21,0,0,0,9,6.33A26.73,26.73,0,0,1,45.32,68.28Z"/><path class="cls-1" d="M55,34.14c-2,0-4.21,2.89-5.71,7.58H60.71C59.21,37,57,34.14,55,34.14Z"/><path class="cls-1" d="M64.68,41.72h6.4a21,21,0,0,0-9-6.33A26.73,26.73,0,0,1,64.68,41.72Z"/><path class="cls-1" d="M75.77,56.9H66.34a51.77,51.77,0,0,1-.78,7.58h8a20.67,20.67,0,0,0,2.21-7.58Z"/><path class="cls-1" d="M71.08,68.28h-6.4A26.32,26.32,0,0,1,62,74.61,20.93,20.93,0,0,0,71.08,68.28Z"/><path class="cls-1" d="M55,75.86c2,0,4.21-2.89,5.71-7.58H49.29C50.79,73,53,75.86,55,75.86Z"/><path class="cls-1" d="M62.55,56.9H47.45a47.4,47.4,0,0,0,.88,7.58H61.67a46.28,46.28,0,0,0,.88-7.58Z"/><path class="cls-1" d="M44.44,45.52h-8a20.67,20.67,0,0,0-2.21,7.58h9.43a51.77,51.77,0,0,1,.78-7.58Z"/><path class="cls-1" d="M66.34,53.1h9.43a20.67,20.67,0,0,0-2.21-7.58h-8A51.77,51.77,0,0,1,66.34,53.1Z"/><path class="cls-1" d="M47.45,53.1h15.1a47.4,47.4,0,0,0-.88-7.58H48.33a46.28,46.28,0,0,0-.88,7.58Z"/><path class="cls-1" d="M92.93,34.14A17.07,17.07,0,1,0,75.86,17.07,17.09,17.09,0,0,0,92.93,34.14ZM94.83,19H91A5.69,5.69,0,1,1,91,7.59V3.79h3.8v3.8a5.7,5.7,0,0,1,5.69,5.69h-3.8a1.9,1.9,0,0,0-1.89-1.9H91a1.9,1.9,0,0,0,0,3.79h3.8a5.69,5.69,0,0,1,0,11.38v3.79H91V26.55a5.7,5.7,0,0,1-5.69-5.69h3.8A1.9,1.9,0,0,0,91,22.76h3.8a1.9,1.9,0,0,0,0-3.79Z"/><path class="cls-1" d="M92.84,78.52a7,7,0,0,0-4.55,1.78A1.9,1.9,0,0,0,87.24,82v5.24A3.79,3.79,0,0,0,91,91h3.8a3.79,3.79,0,0,0,3.79-3.79V82a1.9,1.9,0,0,0-1.05-1.7A7,7,0,0,0,92.84,78.52Z"/><path class="cls-1" d="M92.93,94.83A17.09,17.09,0,0,0,76,110H109.9A17.1,17.1,0,0,0,92.93,94.83Z"/><path class="cls-1" d="M29.46,88.21c-.09-.24-.18-.48-.29-.71l-.37-.82,2.05-4.1-3.43-3.43-4.1,2-.82-.37c-.24-.11-.48-.2-.72-.3L21,80.21l-1.46-4.35H14.64l-1.45,4.35-.84.32c-.24.1-.48.19-.71.3l-.83.37-4.1-2L3.28,82.58l2.05,4.1L5,87.5c-.11.23-.2.47-.29.71l-.32.84L0,90.51v4.85l4.36,1.45.32.85c.09.24.18.47.29.71l.37.82-2.06,4.1,3.43,3.43,4.1-2,.83.36c.23.11.47.2.71.3l.84.32L14.64,110H19.5L21,105.65l.83-.32c.25-.1.49-.19.72-.3l.82-.36,4.1,2,3.44-3.43-2.06-4.1.37-.83c.11-.23.2-.47.29-.71l.32-.84,4.36-1.45V90.5l-4.36-1.45ZM17.07,100.52a7.59,7.59,0,1,1,7.59-7.59A7.59,7.59,0,0,1,17.07,100.52Z"/><path class="cls-1" d="M11.38,0H19V3.79H11.38Z"/><path class="cls-1" d="M30.34,0H22.76V7.59H7.59V0H0V26.55H30.34Z"/><path class="cls-1" d="M91,41.72h3.8V68.26H91Z"/><path class="cls-1" d="M37.93,15.17H68.28V19H37.93Z"/><path class="cls-1" d="M15.17,34.14H19V68.28h-3.8Z"/><path class="cls-1" d="M41.72,91H75.86v3.8H41.72Z"/></svg>