<svg id="Layer_3" data-name="Layer 3" xmlns="http://www.w3.org/2000/svg" viewBox="0 0 110 110"><defs><style>.cls-1{fill:#0a4ca4;}</style></defs><g id="Better_Access" data-name="Better Access"><polyline class="cls-1" points="18.82 63.53 19.45 98.3 1.13 98.63 0.5 63.86"/><path class="cls-1" d="M35.56,58a3.75,3.75,0,0,1,3.55-.17L66.24,70.75a3,3,0,0,1,1.45,3.82l-.47,1.28h0a2.59,2.59,0,0,1-3.42,1.84L44.06,70.26a1.74,1.74,0,0,0-2.24,1.23A2.19,2.19,0,0,0,43,74l19.84,7.42a5.2,5.2,0,0,0,2.07.36,6.27,6.27,0,0,0,5.45-3.65l34.2-10.07a3.68,3.68,0,0,1,3.06.43,4.17,4.17,0,0,1,1.83,2.73A4.5,4.5,0,0,1,107,76.31L59,97.58a3.36,3.36,0,0,1-2.76,0L24.34,85.79,24,65Z"/><path class="cls-1" d="M68.94,26.16A6.85,6.85,0,1,0,75.79,33,6.85,6.85,0,0,0,68.94,26.16Zm2.51,5.76H70.18c-.13,1.21-1.09,2-2.61,2,.93,1,2,2.17,3,3.41H69.37L66.46,34v-.75h.65c1.27,0,2-.52,2-1.36H66.46v-.59h2.66c-.15-.68-.8-1-1.83-1h-.83v-.78h5v.59h-2a1.73,1.73,0,0,1,.66,1.21h1.3v.59Z"/><path class="cls-1" d="M85.16,49.23v-27a1.34,1.34,0,0,0-1.35-1.35h-10a9.48,9.48,0,0,0,4.61-8.12,1.36,1.36,0,0,0-1.35-1.35A9.46,9.46,0,0,0,68.94,16a9.49,9.49,0,0,0-8.12-4.62,1.37,1.37,0,0,0-1.35,1.35,9.49,9.49,0,0,0,4.62,8.12h-10a1.35,1.35,0,0,0-1.35,1.35v27H28.37v5.41H109.5V49.23ZM55.69,31.11a1.35,1.35,0,0,1,0-1.62l4.05-5.41a1.36,1.36,0,0,1,1.08-.54H77.05a1.34,1.34,0,0,1,1.08.54l4.06,5.41a1.35,1.35,0,0,1,0,1.62L71.64,45.17a3.36,3.36,0,0,1-2.7,1.36h0a3.37,3.37,0,0,1-2.71-1.36Z"/></g></svg>