<svg id="Layer_1" data-name="Layer 1" xmlns="http://www.w3.org/2000/svg" viewBox="0 0 110 110"><defs><style>.cls-1{fill:#0a4ca4;}</style></defs><path class="cls-1" d="M92.14,2.62V15.71h13.1ZM89.52,21a2.72,2.72,0,0,1-2.62-2.62V0H24.05V44.45a26.48,26.48,0,0,1,3-.16,28.1,28.1,0,0,1,19.75,8.09H92.14a2.62,2.62,0,1,1,0,5.24H51a27.92,27.92,0,0,1,4.15,13.09h37a2.62,2.62,0,0,1,0,5.24H55a28,28,0,0,1-5.2,13.1H92.14a2.62,2.62,0,0,1,0,5.24H44.79A28.08,28.08,0,0,1,27,100.6a26.48,26.48,0,0,1-3-.16V110h83.81V21Zm2.62,18.34H63.33a2.62,2.62,0,0,1,0-5.24H92.14a2.62,2.62,0,1,1,0,5.24Z"/><path class="cls-1" d="M27,47.56A24.88,24.88,0,1,0,51.91,72.44,24.88,24.88,0,0,0,27,47.56Zm0,39.29a14.41,14.41,0,1,1,9.16-25.5v-2a1.31,1.31,0,1,1,2.62,0v5.24a1.31,1.31,0,0,1-1.31,1.3H32.26a1.31,1.31,0,1,1,0-2.61h2.16a11.79,11.79,0,1,0,4.39,9.16,1.31,1.31,0,1,1,2.62,0A14.43,14.43,0,0,1,27,86.85Zm4.85-11.4a1.31,1.31,0,0,1-1.82,1.88l0,0L26.1,73.37a1.3,1.3,0,0,1-.38-.93V64.59a1.31,1.31,0,1,1,2.61,0V71.9Z"/></svg>