<svg id="Layer_1" data-name="Layer 1" xmlns="http://www.w3.org/2000/svg" viewBox="0 0 110 110"><defs><style>.cls-1{fill:#0a4ca4;}</style></defs><path class="cls-1" d="M12,.07V99.26h8.07V7.65H68.68V.07Z"/><path class="cls-1" d="M83.83,13.1V24.91H95.64Z"/><polygon class="cls-1" points="49.9 59.75 53.23 67.53 46.56 67.53 49.9 59.75"/><path class="cls-1" d="M81.47,29.64a2.46,2.46,0,0,1-2.36-2.37V10.74H22.43v99.19H98V29.64ZM56.56,75.3l-1.67-3.89h-10l-.84,2-.83,1.94H39l8.33-19.44h5.13L60.79,75.3ZM81,57.81H79a27.78,27.78,0,0,1-.79,4.87,27.35,27.35,0,0,1-2.61,6.45A14.83,14.83,0,0,0,78.5,71a12.5,12.5,0,0,0,1.2.48l-1.29,3.67a15.75,15.75,0,0,1-1.85-.78,17.71,17.71,0,0,1-3.12-2,27.92,27.92,0,0,1-6.92,6.48l-2.15-3.25.54-.35.51-.37c.44-.33.87-.66,1.28-1a24.57,24.57,0,0,0,2.67-2.63c.42-.5.83-1,1.21-1.53A32.62,32.62,0,0,1,65.9,63l-.12-.23-.12-.23,3.46-1.77.11.21A30.37,30.37,0,0,0,72,65.36c.23.3.46.59.71.89a23.88,23.88,0,0,0,1.81-4.93,23.31,23.31,0,0,0,.56-3.51H65.45V53.92h5.83V50h3.89v3.89H81Z"/></svg>