<svg id="Layer_1" data-name="Layer 1" xmlns="http://www.w3.org/2000/svg" viewBox="0 0 110 110"><defs><style>.cls-1{fill:#0a4ca4;}</style></defs><polygon class="cls-1" points="110 34.8 110 67.58 102.29 67.58 102.29 47.97 62.66 87.6 41.33 66.29 5.45 102.17 0 96.71 41.33 55.38 62.66 76.7 96.83 42.51 77.24 42.51 77.24 34.8 110 34.8"/><path class="cls-1" d="M42,11A11.82,11.82,0,1,0,53.82,22.82,11.83,11.83,0,0,0,42,11Zm4.73,26H37.27c-7.82,0-14.18,5.66-14.18,12.61V63h7.42L41.16,52.35,51.82,63h9.09V49.61C60.91,42.66,54.55,37,46.73,37Z"/></svg>