<svg id="Layer_1" data-name="Layer 1" xmlns="http://www.w3.org/2000/svg" viewBox="0 0 110 110"><defs><style>.cls-1{fill:#0a4ca4;}</style></defs><polygon class="cls-1" points="102.59 88.12 95.87 88.12 95.87 95.53 110 95.53 110 81.4 102.59 81.4 102.59 88.12"/><rect class="cls-1" x="67.04" y="88.12" width="19.22" height="7.41"/><rect class="cls-1" x="14.47" y="23.74" width="7.41" height="19.22"/><polygon class="cls-1" points="21.88 7.41 28.6 7.41 28.6 0 14.47 0 14.47 14.13 21.88 14.13 21.88 7.41"/><rect class="cls-1" x="67.04" width="19.22" height="7.41"/><rect class="cls-1" x="38.21" width="19.22" height="7.41"/><polygon class="cls-1" points="95.87 0 95.87 7.41 102.59 7.41 102.59 14.13 110 14.13 110 0 95.87 0"/><rect class="cls-1" x="102.59" y="23.74" width="7.41" height="19.22"/><rect class="cls-1" x="102.59" y="52.57" width="7.41" height="19.22"/><polygon class="cls-1" points="66.23 25.01 79.78 25.01 52.34 52.34 0 52.34 0 110 57.66 110 57.66 57.66 84.99 30.22 84.99 43.77 92.52 43.77 92.52 17.48 66.23 17.48 66.23 25.01"/></svg>