<svg id="Layer_1" data-name="Layer 1" xmlns="http://www.w3.org/2000/svg" viewBox="0 0 110 110"><defs><style>.cls-1{fill:#0a4ca4;}</style></defs><path class="cls-1" d="M38.14,48.36,46.76,57a4.62,4.62,0,0,0,6.47,0l4-4a4.62,4.62,0,0,0,0-6.47L48.6,37.9A17.55,17.55,0,0,1,71.2,60.34l36.42,36.41a7.49,7.49,0,0,1,0,10.63h0a7.49,7.49,0,0,1-10.63,0L60.66,71a17.62,17.62,0,0,1-22.52-22.6ZM102.82,105a2.58,2.58,0,0,0,2.56-2.55,2.56,2.56,0,1,0-5.11,0A2.57,2.57,0,0,0,102.82,105Z"/><path class="cls-1" d="M96.66,43.5a44.08,44.08,0,0,0-4.11-9.85l6.74-12.1L88.46,10.72l-12.1,6.74a44.23,44.23,0,0,0-9.86-4.11L62.67,0H47.34L44.11,11.25l-.61,2.1a44.15,44.15,0,0,0-9.85,4.11l-.19-.11L21.55,10.72,10.71,21.55l6,10.8.72,1.3a44.08,44.08,0,0,0-4.11,9.85L11.56,44,0,47.34V62.67L13.35,66.5a43.77,43.77,0,0,0,4.11,9.86l-6.75,12.1L21.55,99.29l12.1-6.74a43.69,43.69,0,0,0,9.85,4.11L47.34,110H62.67L66.5,96.66a43.77,43.77,0,0,0,9.86-4.11l.9.5-4-4L61.56,77.32A23.17,23.17,0,0,1,36.38,68.9l0,0a23.1,23.1,0,0,1-3-22.42A23.23,23.23,0,0,1,55,31.75a22.82,22.82,0,0,1,8.72,1.71,23.41,23.41,0,0,1,9.7,7.39A23.07,23.07,0,0,1,77.49,61a.66.66,0,0,0,0,.15L92.61,76.26s0-.08.07-.12a44,44,0,0,0,4-9.64L110,62.67V47.34Z"/></svg>