<?xml version="1.0" encoding="UTF-8"?>
<svg width="110px" height="110px" viewBox="0 0 110 110" version="1.1" xmlns="http://www.w3.org/2000/svg" xmlns:xlink="http://www.w3.org/1999/xlink">
    <title>NXTpatient_data_privacy@svg</title>
    <g id="NXTpatient_data_privacy" stroke="none" stroke-width="1" fill="none" fill-rule="evenodd">
        <g id="insurance" transform="translate(13.210938, 0.000000)" fill="#0A4CA4" fill-rule="nonzero">
            <polygon id="Path" points="62.3046875 1.88783203 62.3046875 21.484375 81.9012305 21.484375"></polygon>
            <path d="M48.527832,41.25 L35.2612305,41.25 C32.7501367,45.633457 28.5099805,48.6230078 23.6328125,49.5436133 L23.6328125,65.0112891 C23.6328125,76.6678516 30.9312695,86.7932227 41.8945312,90.5046484 C52.857793,86.7932227 60.15625,76.6678516 60.15625,65.0112891 L60.15625,49.5436133 C55.279082,48.6230078 51.0389258,45.6332422 48.527832,41.25 L48.527832,41.25 Z M53.2883398,62.1590234 L41.1350586,74.3123047 C40.5057813,74.941582 39.6809961,75.2563281 38.8564258,75.2563281 C38.0318555,75.2563281 37.2068555,74.9417969 36.577793,74.3123047 L30.5011523,68.2356641 C29.2425977,66.9771094 29.2425977,64.9367383 30.5011523,63.6781836 C31.7594922,62.4196289 33.8000781,62.4196289 35.0586328,63.6781836 L38.8566406,67.4759766 L48.7312891,57.601543 C49.9896289,56.3429883 52.0302148,56.3429883 53.2887695,57.601543 C54.5468945,58.8600977 54.5468945,60.9004688 53.2883398,62.1590234 L53.2883398,62.1590234 Z" id="Shape"></path>
            <path d="M59.0820313,27.9296875 C57.3022656,27.9296875 55.859375,26.4867969 55.859375,24.7070312 L55.859375,0 L11.8164062,0 C5.30083984,0 0,5.30083984 0,11.8164062 L0,98.1835938 C0,104.69916 5.30083984,110 11.8164062,110 L71.9726562,110 C78.4882227,110 83.7890625,104.69916 83.7890625,98.1835938 L83.7890625,27.9296875 L59.0820313,27.9296875 Z M66.6015625,65.0110742 C66.6015625,72.2414258 64.3201367,79.1295313 60.0041406,84.9305273 C55.6881445,90.7313086 49.7459961,94.8958398 42.8205078,96.9733789 C42.5184375,97.064043 42.2064844,97.109375 41.8945313,97.109375 C41.5825781,97.109375 41.270625,97.064043 40.9685547,96.9733789 C34.0430664,94.8958398 28.100918,90.7313086 23.7849219,84.9305273 C19.4689258,79.1295313 17.1875,72.2414258 17.1875,65.0110742 L17.1875,46.6210938 C17.1875,44.8413281 18.6303906,43.3984375 20.4101563,43.3984375 C24.4825195,43.3984375 28.1436719,41.1357031 29.9646875,37.493457 L30.4182227,36.5863867 C30.9641406,35.4943359 32.0800391,34.8046875 33.3007813,34.8046875 L50.4882813,34.8046875 C51.7090234,34.8046875 52.8249219,35.4943359 53.3708398,36.5861719 L53.824375,37.493457 C55.6453906,41.1357031 59.306543,43.3984375 63.3789062,43.3984375 C65.1586719,43.3984375 66.6015625,44.8413281 66.6015625,46.6210938 L66.6015625,65.0110742 Z" id="Shape"></path>
        </g>
    </g>
</svg>