<?xml version="1.0" encoding="UTF-8"?>
<svg width="110px" height="110px" viewBox="0 0 110 110" version="1.1" xmlns="http://www.w3.org/2000/svg" xmlns:xlink="http://www.w3.org/1999/xlink">
    <title>Capabilities_EmerginBiotech_Biotech</title>
    <g id="Page-1" stroke="none" stroke-width="1" fill="none" fill-rule="evenodd">
        <g id="Capabilities_EmerginBiotech_Biotech" transform="translate(0.687092, 0.675000)" fill="#0A4CA4" fill-rule="nonzero">
            <path d="M76.9129077,6.925 C75.7129077,8.625 74.8129077,10.425 74.3129077,12.425 L96.2129077,34.325 C98.1129077,33.725 100.012908,32.925 101.712908,31.725 C101.712908,31.725 76.9129077,6.925 76.9129077,6.925 Z M107.512908,33.925 C102.612908,38.625 96.8129077,40.425 90.6129077,40.725 C84.6129077,40.925 78.4129077,39.625 72.4129077,38.125 C67.1129077,36.825 61.4129077,35.925 56.1129077,36.325 L72.3129077,52.525 C72.4129077,49.625 72.2129077,46.725 71.9129077,43.725 C73.7129077,44.125 75.6129077,44.625 77.5129077,44.925 C77.9129077,48.625 77.9129077,52.325 77.4129077,55.725 C76.7129077,61.425 74.6129077,66.725 70.7129077,70.725 C70.6129077,70.825 70.6129077,70.825 70.5129077,70.925 C65.7129077,75.625 59.9129077,77.325 53.7129077,77.625 C51.0129077,77.725 48.2129077,77.525 45.4129077,77.125 C45.1129077,75.225 44.7129077,73.325 44.3129077,71.425 C47.1129077,71.925 49.8129077,72.225 52.3129077,72.225 L36.3129077,56.225 C36.3129077,61.225 37.5129077,66.625 38.7129077,71.825 C40.4129077,78.525 41.3129077,85.925 40.4129077,92.725 C39.6129077,98.525 37.6129077,103.725 33.7129077,107.725 C32.6129077,108.825 30.9129077,108.825 29.8129077,107.825 L0.812907737,78.825 C-0.287092263,77.725 -0.287092263,76.025 0.912907737,74.925 C4.81290774,71.025 10.1129077,69.025 15.9129077,68.225 C19.4129077,67.725 23.1129077,67.725 26.7129077,68.125 C27.0129077,70.025 27.5129077,71.925 27.9129077,73.725 C24.9129077,73.425 21.9129077,73.225 19.0129077,73.425 L35.3129077,89.525 C35.6129077,84.225 34.8129077,78.525 33.5129077,73.125 C32.0129077,67.125 30.7129077,60.925 30.9129077,54.925 C31.2129077,48.725 32.9129077,42.925 37.6129077,38.125 C37.7129077,38.025 37.7129077,38.025 37.8129077,37.925 C41.7129077,34.025 47.1129077,31.925 52.8129077,31.225 C59.6129077,30.325 67.0129077,31.225 73.7129077,32.925 C78.9129077,34.125 84.3129077,35.225 89.3129077,35.225 L73.3129077,19.225 C73.3129077,21.825 73.6129077,24.525 74.1129077,27.325 C72.2129077,26.825 70.4129077,26.425 68.5129077,26.125 C68.1129077,23.325 67.8129077,20.625 67.9129077,17.925 C68.2129077,11.725 69.9129077,5.925 74.7129077,1.025 C74.8129077,0.925 74.8129077,0.925 74.9129077,0.825 C76.0129077,-0.275 77.7129077,-0.275 78.7129077,0.825 L107.712908,29.825 C108.812908,30.925 108.812908,32.625 107.712908,33.625 C107.612908,33.825 107.612908,33.925 107.512908,33.925 Z M6.91290774,77.025 L31.6129077,101.725 C32.8129077,100.125 33.7129077,98.225 34.2129077,96.125 L12.6129077,74.325 C10.5129077,74.925 8.61290774,75.725 6.91290774,77.025 Z M49.5129077,37.425 C47.4129077,37.925 45.5129077,38.825 43.9129077,40.025 L68.6129077,64.725 C69.8129077,63.125 70.6129077,61.225 71.2129077,59.125 C71.2129077,59.125 49.5129077,37.425 49.5129077,37.425 Z M40.0129077,43.825 C38.8129077,45.625 37.9129077,47.325 37.3129077,49.425 L59.2129077,71.325 C61.2129077,70.625 63.0129077,69.925 64.8129077,68.625 C64.8129077,68.625 40.0129077,43.825 40.0129077,43.825 Z" id="Shape"></path>
        </g>
    </g>
</svg>