<?xml version="1.0" encoding="UTF-8"?>
<svg width="110px" height="110px" viewBox="0 0 110 110" version="1.1" xmlns="http://www.w3.org/2000/svg" xmlns:xlink="http://www.w3.org/1999/xlink">
    <title>Capabilities_EmerginBiotech_FinancialStructure</title>
    <g id="Page-1" stroke="none" stroke-width="1" fill="none" fill-rule="evenodd">
        <g id="Capabilities_EmerginBiotech_FinancialStructure" transform="translate(0.200000, 0.800000)" fill-rule="nonzero">
            <g id="Group" transform="translate(0.000000, 0.000000)">
                <path d="M48.3,74.9 L48.6,75.2 C48.3,75.4 47.9,75.5 47.5,75.6 L48.3,74.9 Z" id="Path" fill="#6D6E71"></path>
                <path d="M59.8,40.6 L59.7,67.6 C58.7,68.7 57.6,69.6 56.5,70.5 L48.3,62.3 L32.3,78.3 C31.7,78.3 31.1,78.3 30.5,78.3 C19,78.3 7.5,75 0,67.5 L0,40.5 C0.4,35.7 4.1,32.8 8.9,32.8 L17.3,32.7 L25.8,48.3 L26.9,40.4 L25.6,37.8 C24.2,34.9 26.1,32.7 27.5,32.7 L32.2,32.7 C33.5,32.7 35.5,34.9 34.1,37.8 L32.8,40.6 L33.9,48.5 L42.4,32.9 L50.2,33 C54.9,33 59.2,36 59.8,40.6 Z" id="Path" fill="#0A4CA4"></path>
                <path d="M19.3,13.6 C19.3,2 22.5,-3.55271368e-15 29.9,-3.55271368e-15 C37.3,-3.55271368e-15 40.6,2.1 40.6,13.6 C40.6,21.6 36.6,29 29.8,29 C23.2,29.1 19.3,23.5 19.3,13.6 Z" id="Path" fill="#0A4CA4"></path>
            </g>
            <polygon id="Path" fill="#0A4CA4" points="109.6 48.4 109.6 77.5 102.8 77.5 102.8 60.1 67.5 95.4 48.5 76.4 16.5 108.3 11.7 103.5 48.5 66.7 67.5 85.7 97.9 55.2 80.5 55.2 80.5 48.4"></polygon>
            <path d="M79.6,3.4 C71.7,3.4 65.2,9.8 65.2,17.8 C65.2,25.8 71.7,32.2 79.6,32.2 C87.5,32.2 94,25.8 94,17.8 C94,9.8 87.5,3.4 79.6,3.4 Z M79.6,12.7 C78.6,12.7 77.7,13.4 77.7,14.5 C77.7,15.6 78.6,15.9 80.3,16.4 C83.4,17.4 85.2,18.8 85.2,21.6 C85.2,24 83.4,25.7 81,26.1 L81,28.1 L78.2,28.1 L78.2,26.1 C75.8,25.5 74,23.3 74,20.7 L77.7,20.7 L77.7,21.2 C77.7,22.2 78.5,23.1 79.6,23.1 C80.6,23.1 81.5,22.4 81.5,21.3 C81.5,20.3 80.3,19.9 78.9,19.4 C75.9,18.4 74,17 74,14.2 C74,11.8 75.8,10.1 78.2,9.7 L78.2,7.7 L81,7.7 L81,9.7 C83.4,10.3 85.2,12.5 85.2,15.1 L81.5,15.1 L81.5,14.6 C81.5,13.5 80.6,12.7 79.6,12.7 Z" id="Shape" fill="#0A4CA4"></path>
        </g>
    </g>
</svg>