<?xml version="1.0" encoding="UTF-8"?>
<svg width="110px" height="110px" viewBox="0 0 110 110" version="1.1" xmlns="http://www.w3.org/2000/svg" xmlns:xlink="http://www.w3.org/1999/xlink">
    <title>Omnichannel_personalisation@svg</title>
    <g id="Omnichannel_personalisation" stroke="none" stroke-width="1" fill="none" fill-rule="evenodd">
        <g id="network" fill="#0A4CA4" fill-rule="nonzero">
            <path d="M58.0078125,6.66015625 C58.0078125,3.10041016 55.1222461,0 51.5625,0 C48.0027539,0 45.1171875,3.10041016 45.1171875,6.66015625 C45.1171875,10.2194727 48.0027539,13.1054688 51.5625,13.1054688 C55.1222461,13.1054688 58.0078125,10.2194727 58.0078125,6.66015625 Z" id="Path"></path>
            <circle id="Oval" cx="51.5625" cy="55" r="6.4453125"></circle>
            <path d="M51.5625,90.4492188 C46.2229883,90.4492188 41.8945312,94.7776758 41.8945312,100.117188 C41.8945312,105.456699 46.2229883,110 51.5625,110 C56.9020117,110 61.2304688,105.456699 61.2304688,100.117188 C61.2304688,94.7776758 56.9020117,90.4492188 51.5625,90.4492188 Z" id="Path"></path>
            <circle id="Oval" cx="9.66796875" cy="80.78125" r="6.4453125"></circle>
            <circle id="Oval" cx="93.4570312" cy="80.78125" r="6.4453125"></circle>
            <circle id="Oval" cx="93.4570312" cy="32.4414062" r="9.66796875"></circle>
            <circle id="Oval" cx="9.66796875" cy="32.4414062" r="9.66796875"></circle>
            <path d="M48.3398438,67.4330078 C42.7953711,65.9920508 38.671875,60.9900586 38.671875,55 C38.671875,54.074668 38.7792969,53.1757617 38.9653516,52.3052148 L21.3354883,43.49125 C18.3968555,46.5929492 14.2675586,48.5546875 9.66796875,48.5546875 L9.66796875,67.890625 C16.7773633,67.890625 22.5585938,73.6718555 22.5585938,80.78125 C22.5585938,82.4613281 22.213125,84.0569727 21.6261719,85.5299414 L37.049375,93.2404687 C39.1875,88.7506641 43.3584766,85.5185547 48.3398438,84.4780664 L48.3398438,67.4330078 L48.3398438,67.4330078 Z" id="Path"></path>
            <path d="M40.5852734,13.327832 L23.6616016,24.6090625 C24.9712891,26.9381836 25.78125,29.5846289 25.78125,32.4414063 C25.78125,34.3973438 25.3788477,36.2495117 24.7375391,37.9854492 L41.8945312,46.5628711 C44.2588867,43.8569141 47.6938086,42.109375 51.5625,42.109375 C55.4311914,42.109375 58.8661133,43.8569141 61.2304688,46.5628711 L78.3874609,37.9854492 C77.7461523,36.2495117 77.34375,34.3973438 77.34375,32.4414062 C77.34375,29.5846289 78.1537109,26.9381836 79.4633984,24.6090625 L62.5397266,13.327832 C60.2752734,17.0420508 56.2231055,19.5507812 51.5625,19.5507812 C46.9018945,19.5507812 42.8497266,17.0420508 40.5852734,13.327832 Z" id="Path"></path>
            <path d="M93.4570312,67.890625 L93.4570312,48.5546875 C88.8574414,48.5546875 84.7281445,46.5929492 81.7895117,43.49125 L64.1596484,52.3052148 C64.3457031,53.1757617 64.453125,54.074668 64.453125,55 C64.453125,60.9900586 60.3296289,65.9920508 54.7851562,67.4330078 L54.7851562,84.4778516 C59.7663086,85.5183398 63.9372852,88.7504492 66.0754102,93.2402539 L81.4986133,85.5297266 C80.911875,84.0569727 80.5664062,82.4613281 80.5664062,80.78125 C80.5664062,73.6718555 86.3476367,67.890625 93.4570312,67.890625 Z" id="Path"></path>
            <path d="M93.4570312,67.890625 L93.4570312,48.5546875 C88.8574414,48.5546875 84.7281445,46.5929492 81.7895117,43.49125 L64.1596484,52.3052148 C64.3457031,53.1757617 64.453125,54.074668 64.453125,55 C64.453125,60.9900586 60.3296289,65.9920508 54.7851562,67.4330078 L54.7851562,84.4778516 C59.7663086,85.5183398 63.9372852,88.7504492 66.0754102,93.2402539 L81.4986133,85.5297266 C80.911875,84.0569727 80.5664062,82.4613281 80.5664062,80.78125 C80.5664062,73.6718555 86.3476367,67.890625 93.4570312,67.890625 Z" id="Path-Copy"></path>
        </g>
    </g>
</svg>