<?xml version="1.0" encoding="UTF-8"?>
<svg width="110px" height="110px" viewBox="0 0 110 110" version="1.1" xmlns="http://www.w3.org/2000/svg" xmlns:xlink="http://www.w3.org/1999/xlink">
    <title>Marketing_efficiency@svg</title>
    <g id="Marketing_efficiency" stroke="none" stroke-width="1" fill="none" fill-rule="evenodd">
        <g id="energy" transform="translate(0.000000, 0.001471)" fill="#0A4CA4" fill-rule="nonzero">
            <path d="M6.07763592,43.0770923 C6.46704095,43.2357078 6.87910538,43.3145958 7.29116981,43.3145958 C7.71750118,43.3145958 8.14383255,43.2298332 8.54414758,43.0603076 L18.1836007,38.9925358 C19.8226265,38.3001668 20.5913658,36.4102096 19.898997,34.7703445 C19.2074674,33.1304793 17.3166708,32.3625792 15.6768057,33.0541088 L13.3193947,34.0494416 C20.635006,17.3956627 37.1880768,6.44532465 55.6059275,6.44532465 C76.6640119,6.44532465 95.0533288,20.6846246 100.325403,41.07216 C100.70138,42.5248758 102.008908,43.4891567 103.443161,43.4891567 C103.710037,43.4891567 103.98195,43.4555873 104.252183,43.3859307 C105.975133,42.9402971 107.010749,41.1820998 106.565115,39.4591502 C100.557871,16.2257692 79.6021735,0 55.6059275,0 C34.5,0 15.5450459,12.6204157 7.28025981,31.7776325 L6.19261127,29.1995026 C5.50024225,27.5604768 3.61028529,26.7917375 1.97042003,27.4832672 C0.330554773,28.175636 -0.437345074,30.0664323 0.254184551,31.7054584 L4.32195656,41.3449113 C4.65429339,42.1321138 5.2853981,42.7556652 6.07763592,43.0770923 Z" id="Path"></path>
            <path d="M109.745815,77.6393065 L105.678043,68.0006928 C105.345707,67.2126511 104.713763,66.5899387 103.922364,66.2676724 C103.130126,65.9462456 102.243055,65.9521201 101.455852,66.2844574 L91.8163993,70.3530685 C90.1773735,71.0445982 89.4086342,72.9353945 90.101003,74.5752596 C90.7925326,76.2151248 92.6833292,76.9830247 94.3231943,76.2906559 L97.0213348,75.1518141 C89.8886766,92.252066 73.103977,103.553204 54.3949116,103.553204 C33.3359881,103.553204 14.9466712,89.3139044 9.67459716,68.9263689 C9.22896333,67.2025803 7.4707662,66.1686428 5.74781663,66.6125981 C4.02486727,67.0582319 2.98925119,68.8164292 3.43488502,70.5393786 C9.44212912,93.7727598 30.3978265,109.998529 54.3949116,109.998529 C75.6191642,109.998529 94.6689591,97.2354435 102.858214,77.8961123 L103.807389,80.1452621 C104.326875,81.3764199 105.521107,82.115786 106.778281,82.115786 C107.19538,82.115786 107.620872,82.0343801 108.02958,81.8614978 C109.669445,81.169129 110.437345,79.2791716 109.745815,77.6393065 L109.745815,77.6393065 Z" id="Path"></path>
            <path d="M48.5378906,90.4720487 C48.8945655,90.6012908 49.2638289,90.6625551 49.6288961,90.6625551 C50.5713571,90.6625551 51.4886408,90.2488121 52.1130317,89.4935006 L79.1095425,56.8380284 C79.9051373,55.8754258 80.0729843,54.5410421 79.5417486,53.4114319 C79.0096735,52.2826607 77.8741886,51.561758 76.6262462,51.561758 L64.8828311,51.561758 L64.8828311,22.3437921 C64.8828311,20.9842315 64.0301684,19.771537 62.7511743,19.3107968 C61.4730194,18.8508962 60.0429629,19.2428188 59.1760333,20.2901841 L32.1795224,52.9456565 C31.3839276,53.9074196 31.2160806,55.2426426 31.7473163,56.3714136 C32.2793914,57.5010239 33.4157155,58.2219268 34.6636579,58.2219268 L46.407073,58.2219268 L46.407073,87.4398928 C46.4062338,88.7994532 47.2588965,90.0121479 48.5378906,90.4720487 L48.5378906,90.4720487 Z" id="Path"></path>
        </g>
    </g>
</svg>