<?xml version="1.0" encoding="UTF-8"?>
<svg width="110px" height="110px" viewBox="0 0 110 110" version="1.1" xmlns="http://www.w3.org/2000/svg" xmlns:xlink="http://www.w3.org/1999/xlink">
    <title>MLR_Automated_review@svg</title>
    <g id="MLR_Automated_review" stroke="none" stroke-width="1" fill="none" fill-rule="evenodd">
        <g id="guest-list" transform="translate(6.735036, 0.000000)" fill="#0A4CA4" fill-rule="nonzero">
            <path d="M70.9906376,98.1564191 C70.9906376,92.2230354 73.6916507,86.7059354 78.2177424,83.0695185 C77.202474,81.1072532 76.6629584,78.917846 76.6629584,76.6648906 C76.6629584,70.9616544 80.1037928,66.0495504 85.0171849,63.8878382 L85.0171849,0 L0,0 L0,109.921209 L70.9908523,109.921209 L70.9908523,98.1564191 L70.9906376,98.1564191 Z M13.9546263,68.0566859 L13.9546263,61.6159901 L45.9434156,61.6159901 L45.9434156,68.0566859 L13.9546263,68.0566859 Z M45.9434156,80.7233877 L45.9434156,87.1640836 L13.9546263,87.1640836 L13.9546263,80.7233877 L45.9434156,80.7233877 Z M13.9546263,48.9492883 L13.9546263,42.5085925 L45.9434156,42.5085925 L45.9434156,48.9492883 L13.9546263,48.9492883 Z M13.9546263,29.8418907 L13.9546263,23.4011948 L45.9434156,23.4011948 L45.9434156,29.8418907 L13.9546263,29.8418907 Z M62.6514393,88.0535437 L54.7727508,82.879518 L58.3082634,77.495955 L61.8682507,79.8339276 L67.9690925,73.9054818 L72.4576134,78.5245342 L62.6514393,88.0535437 Z M62.6514393,68.946146 L54.7727508,63.7721204 L58.3082634,58.3885574 L61.8682507,60.72653 L67.9690925,54.7980842 L72.4576134,59.4171365 L62.6514393,68.946146 Z M62.6514393,49.8387484 L54.7727508,44.6647227 L58.3082634,39.2811598 L61.8682507,41.6191324 L67.9690925,35.6906866 L72.4576134,40.3097389 L62.6514393,49.8387484 Z M62.6514393,30.7313508 L54.7727508,25.5573251 L58.3082634,20.1737622 L61.8682507,22.5117348 L67.9690925,16.5832889 L72.4576134,21.2023413 L62.6514393,30.7313508 Z" id="XMLID_1042_"></path>
            <path d="M96.7300197,86.9285688 L93.1223713,84.8722693 L96.0118821,81.8897977 C97.3779537,80.4799294 98.130227,78.6241503 98.130227,76.6646759 C98.130227,72.5218057 94.7598108,69.1513895 90.6169406,69.1513895 C86.4740703,69.1513895 83.1036542,72.5218057 83.1036542,76.6646759 C83.1036542,78.5545908 83.8091251,80.3614206 85.0899648,81.7519669 L87.902402,84.8055007 L84.2455896,86.7703424 C80.0423915,89.0290944 77.4315481,93.391807 77.4315481,98.1562044 L77.4315481,110 L103.264964,110 L103.264964,98.1562044 C103.264964,93.5283498 100.760822,89.225965 96.7300197,86.9285688 L96.7300197,86.9285688 Z" id="XMLID_1058_"></path>
        </g>
    </g>
</svg>