<?xml version="1.0" encoding="UTF-8"?>
<svg width="110px" height="110px" viewBox="0 0 110 110" version="1.1" xmlns="http://www.w3.org/2000/svg" xmlns:xlink="http://www.w3.org/1999/xlink">
    <title>clinical_trial_disclosures_domain_expertise</title>
    <g id="clinical_trial_disclosures_domain_expertise" stroke="none" stroke-width="1" fill="none" fill-rule="evenodd">
        <path d="M55.5,0 C57.9380904,0 60.2447047,0.562916126 62.2969645,1.56587 L62.6787481,1.75903592 L62.8275803,1.81381303 C67.3150277,3.48481131 71.0769377,6.64625549 73.51148,10.6963152 C80.5412068,8.78429872 88.3704553,10.5887094 93.890873,16.109127 C99.3966726,21.6149266 101.206119,29.4173456 99.3192125,36.4326843 C105.969383,39.9561602 110.5,46.948989 110.5,55 C110.5,63.051011 105.969383,70.0438398 99.3186219,73.568014 C101.206119,80.5826544 99.3966726,88.3850734 93.890873,93.890873 C88.4996688,99.2820772 80.906452,101.129196 74.0063537,99.4322285 C70.4642335,106.020791 63.5052044,110.5 55.5,110.5 C47.4001664,110.5 40.3713879,105.914268 36.8682558,99.1973947 C29.7423759,101.279673 21.7292565,99.5110024 16.109127,93.890873 C10.4763626,88.2581085 8.71239418,80.2215825 10.8172217,73.0832839 C4.64135722,69.4275004 0.5,62.6973831 0.5,55 C0.5,47.3026169 4.64135722,40.5724996 10.8174808,36.916239 C8.71239418,29.7784175 10.4763626,21.7418915 16.109127,16.109127 C21.8537,10.364554 30.0984096,8.6438901 37.3407074,10.9471352 C39.7947366,6.73196108 43.6754533,3.44886373 48.3212519,1.75903592 C50.4674821,0.635479533 52.909529,0 55.5,0 Z M68.7,40 L51,61.6 L39.3,52 L36,55.9 L52.3,69.4 L55.6,65.5 L73.2,43.9 L68.7,40 Z" id="Combined-Shape" fill="#0a4ca4" fill-rule="nonzero"></path>
    </g>
</svg>