<?xml version="1.0" encoding="UTF-8"?>
<svg width="110px" height="110px" viewBox="0 0 110 110" version="1.1" xmlns="http://www.w3.org/2000/svg" xmlns:xlink="http://www.w3.org/1999/xlink">
    <title>clinical_trial_disclosures_proprietary_platforms</title>
    <g id="clinical_trial_disclosures_proprietary_platforms" stroke="none" stroke-width="1" fill="none" fill-rule="evenodd">
        <g id="Group" transform="translate(10.000000, -0.000000)" fill="#0a4ca4" fill-rule="nonzero">
            <path d="M45.2,5.4 C51.3,9.3 66.9,18.5 86,22.9 C85.8,55.1 81.7,78.9 45.2,105.2 C8.7,79 4.7,55.2 4.4,22.9 C23.5,18.5 39.1,9.3 45.2,5.4 M45.2,-7.10542736e-15 L42.8,1.6 C37.1,5.3 22,14.2 3.5,18.5 L-2.27373675e-13,19.3 L-2.27373675e-13,22.9 C0.2,54.4 3.5,80.7 42.6,108.8 L45.2,110.7 L47.8,108.8 C86.9,80.7 90.2,54.4 90.4,22.9 L90.4,19.3 L86.9,18.5 C68.4,14.2 53.2,5.3 47.6,1.6 L45.2,-7.10542736e-15 L45.2,-7.10542736e-15 Z" id="Shape"></path>
            <path d="M45,11.9 C45.1,11.8 45.3,11.8 45.4,11.9 C51.8,15.8 64.8,22.8 80.4,27.1 C80.5,27.1 80.7,27.3 80.7,27.5 C80.3,52.3 77.3,74.7 45.5,98.8 C45.4,98.9 45.3,98.9 45.2,98.9 C45.1,98.9 45,98.9 44.9,98.8 C13.2,74.7 10.2,52.2 9.7,27.5 C9.7,27.3 9.8,27.2 10,27.1 C25.7,22.8 38.6,15.7 45,11.9 Z M59.3640777,37 L57.6553398,39.0861813 L41.2621359,59.1456166 L31.3300971,50.961367 L29.2475728,49.2496285 L27.538835,51.3358098 L24.7087379,54.8127786 L23,56.8989599 L25.0825243,58.6106984 L40.5145631,71.2882615 L42.5970874,73 L44.3058252,70.9138187 L47.1893204,67.4368499 L48.8980583,65.3506686 L65.2912621,45.2912333 L67,43.2585438 L64.9174757,41.5468053 L61.4466019,38.7117385 L59.3640777,37 Z" id="Shape"></path>
            <polygon id="Path" points="41.6960352 62.7777778 29.8017621 53.0753296 27 56.5028249 42.277533 69 45.0792952 65.5725047 45.0792952 65.5725047 63 43.7947269 59.6167401 41"></polygon>
        </g>
    </g>
</svg>