<svg id="Layer_1" data-name="Layer 1" xmlns="http://www.w3.org/2000/svg" viewBox="0 0 110 110"><defs><style>.cls-1{fill:#0a4ca4;}</style></defs><path class="cls-1" d="M90.45,64.28l-7.79-9.2a1.5,1.5,0,0,1,1.82-2.32c1.21.6,3.23.46,5.69-.41a36.25,36.25,0,0,1,6.13-1.58,1.5,1.5,0,0,1,1.44.55c.14.18,3.61,4.46,8.56,3.19a3.56,3.56,0,0,0,2.86-2.86,5.56,5.56,0,0,0-1.65-5.19l-4-3.79c-2.9-2.77-5.07-5-7-7.13a10.17,10.17,0,0,0-6.27-3.44,1.5,1.5,0,0,1-1.34-1.49l.14-2H88.1A3.13,3.13,0,0,1,85,25.49V23.55a24.24,24.24,0,0,0-3,4,1.46,1.46,0,0,1-.91.68c-.77.2-18.86,5.18-17.06,26.47a55.61,55.61,0,0,0,3.13,14.06c.32.81,2.8,7.13,2.27,12H98.47C99.87,76,93.13,67.18,90.45,64.28Zm11.9,22.43a3,3,0,0,0-3-3h-31a3,3,0,0,0-3,3V93.1h36.95ZM58.19,107a1,1,0,0,0,1,1h48.71a1,1,0,0,0,1-1V97.1a1,1,0,0,0-1-1H59.18a1,1,0,0,0-1,1V107Z"/><path class="cls-1" d="M13.79,12.13V10.72A2.11,2.11,0,0,1,15.91,8.6h4.35V4.12A2.11,2.11,0,0,1,22.38,2H23.8a2.11,2.11,0,0,1,2.12,2.12V8.48h4.36A2.11,2.11,0,0,1,32.4,10.6V12a2.11,2.11,0,0,1-2.12,2.12H25.92v4.36a2.11,2.11,0,0,1-2.12,2.12H22.38a2.11,2.11,0,0,1-2.12-2.12V14.13H15.91A2,2,0,0,1,13.79,12.13ZM44.17,95.87A63.23,63.23,0,0,1,33.46,78c-.36-1-.83-23.21-.83-23.21H37a2.11,2.11,0,0,0,2.12-2.12V46.4A2.11,2.11,0,0,0,37,44.28H9.55A2.11,2.11,0,0,0,7.43,46.4v6.24a2.11,2.11,0,0,0,2.12,2.12h4.24s-.59,22.15-.95,23.09a65,65,0,0,1-10.71,18A6.44,6.44,0,0,0,.71,99.64v6.24A2.11,2.11,0,0,0,2.83,108H43.58a2.11,2.11,0,0,0,2.12-2.12V99.64A7,7,0,0,0,44.17,95.87ZM13,35.8a3.74,3.74,0,0,0,3.06,2H30.39a3.76,3.76,0,0,0,3.07-2l4-9.07a1.33,1.33,0,0,0-1.3-2H10.25a1.33,1.33,0,0,0-1.29,2Z"/></svg>