<svg id="Layer_1" data-name="Layer 1" xmlns="http://www.w3.org/2000/svg" viewBox="0 0 110 110"><defs><style>.cls-1{fill:#0a4ca4;}</style></defs><path class="cls-1" d="M49.39,55.09h-.12a.37.37,0,0,1-.34-.35V53.12a.37.37,0,0,1,.34-.35h.12a.37.37,0,0,1,.35.35v1.74C49.74,55,49.51,55.09,49.39,55.09Z"/><path class="cls-1" d="M49.51,46.3H49c-.69,0-1.15.69-1.15,1.5v.93L44.65,49a.59.59,0,0,0,0,1.15h0L47.89,50v5.2c0,.81.57,1.51,1.15,1.51h.47c.69,0,1.15-.7,1.15-1.51V47.92C50.66,47,50.2,46.3,49.51,46.3Z"/><path class="cls-1" d="M55.06,8.24V0L30.65,8.24H30V98.82H3v2.66H31.11l23.83,8.09V10.9H80.39V32.36a9.51,9.51,0,0,1,2.66-1.07v-23Zm-4.28,47h-.12a2.83,2.83,0,0,1,0,.3c0,.07,0,.14,0,.21a1.37,1.37,0,0,1-.87,1,.52.52,0,0,1-.21,0H49a.57.57,0,0,1-.22,0,.46.46,0,0,1-.21-.08,1.35,1.35,0,0,1-.7-1.09,2.83,2.83,0,0,1,0-.3V50l-3.24.11a.59.59,0,0,1,0-1.15L48,48.84v-.92a1.43,1.43,0,0,1,1.16-1.51h.46a1,1,0,0,1,.63.23.38.38,0,0,1,.1.12,1.61,1.61,0,0,1,.43,1.16Zm44,43.62v2.66H107V98.82ZM80.39,51.3a16.84,16.84,0,0,1,2.66-.61v-.77a9.51,9.51,0,0,1-2.66-1.07Z"/><circle class="cls-1" cx="85.26" cy="40.6" r="8.3"/><path class="cls-1" d="M85.32,53.19A14.75,14.75,0,0,0,70.61,67.9V84.78a3.08,3.08,0,0,0,3.07,3.07h3.7v16.89A5.26,5.26,0,0,0,82.62,110h6.12A5.26,5.26,0,0,0,94,104.74V87.85h3A3.08,3.08,0,0,0,100,84.78V67.9A14.76,14.76,0,0,0,85.32,53.19Z"/><path class="cls-1" d="M96.83,10.13a19.58,19.58,0,0,0,5.88,2.52c0,4.64-.62,8.07-5.88,11.86C91.57,20.73,91,17.3,91,12.65a20.11,20.11,0,0,0,5.88-2.52m0-.78-.35.23A18.5,18.5,0,0,1,90.82,12l-.5.11v.52c0,4.54.5,8.33,6.14,12.38l.37.27L97.2,25c5.64-4.05,6.11-7.84,6.14-12.38v-.52l-.5-.11a18.27,18.27,0,0,1-5.66-2.44l-.35-.23Z"/><path class="cls-1" d="M101.89,13.26a21,21,0,0,1-5-2.19,0,0,0,0,0,0,0,21.41,21.41,0,0,1-5.05,2.19s0,0,0,.05c.07,3.56.51,6.8,5.07,10.28h.09c4.58-3.48,5-6.7,5.07-10.28C101.94,13.28,101.92,13.26,101.89,13.26ZM99,18.2H97.71s0,0,0,0v1.31H96V18.2H94.61V16.45H96V15.1h1.74v1.35h1.36V18.2Z"/></svg>