<?xml version="1.0" encoding="UTF-8"?>
<svg width="110px" height="110px" viewBox="0 0 110 110" version="1.1" xmlns="http://www.w3.org/2000/svg" xmlns:xlink="http://www.w3.org/1999/xlink">
    <title>NXTadverse_domain_led@svg</title>
    <g id="NXTadverse_domain_led" stroke="none" stroke-width="1" fill="none" fill-rule="evenodd">
        <g id="technology" transform="translate(0.000000, 1.860429)" fill="#0A4CA4" fill-rule="nonzero">
            <path d="M3.07214134,62.019582 L10.2503655,63.1960738 C11.3844531,68.6925642 13.5548279,73.9230808 16.6454647,78.6077558 L12.394576,84.5405587 C11.512568,85.7412299 11.5277252,87.3798376 12.4319278,88.5640885 C13.5037623,89.874289 14.6427219,91.1281911 15.8439345,92.3209229 C17.0557933,93.5347665 18.3050038,94.653336 19.5915662,95.734734 C20.7765389,96.640741 22.4173119,96.6558983 23.6188854,95.7720858 L29.5478989,91.5192123 C34.2280628,94.6116535 39.4547901,96.7834718 44.9483935,97.9181008 L46.1230808,105.101919 C46.3468308,106.571451 47.5193529,107.713658 48.9942983,107.898613 C50.0159696,108.014277 51.0452195,108.085011 52.0968444,108.13734 C52.6074996,108.162241 53.1062455,107.977828 53.4777787,107.626685 C53.849312,107.275541 54.061694,106.787983 54.0656638,106.276606 L54.0656638,91.334799 C54.0602505,90.3275632 53.2601638,89.5043798 52.2534694,89.470276 C33.4120972,88.4935351 18.6361177,72.9317241 18.6361177,54.0650898 C18.6361177,35.1984555 33.4120972,19.6366444 52.2534694,18.6599036 C53.2601638,18.6257998 54.0602505,17.8027968 54.0656638,16.7953806 L54.0656638,1.86656545 C54.0631376,1.35554937 53.8521991,0.867630063 53.4815681,0.515584733 C53.110937,0.163539403 52.6127324,-0.0217761034 52.1022577,0.00204244276 C51.0544221,0.0455293338 50.0184958,0.118969851 48.9941179,0.222003108 C47.5188116,0.423017202 46.350981,1.56973584 46.1229004,3.0410724 L44.948213,10.2248903 C39.4547901,11.3611432 34.2282433,13.5333224 29.5477185,16.6255832 L23.6187049,12.3709052 C22.4171315,11.4869123 20.7763584,11.5020696 19.5913858,12.408257 C18.2847941,13.4815351 17.0339596,14.621036 15.8437541,15.8220682 C14.6335193,17.0061386 13.4941988,18.2605821 12.4317473,19.5789025 C11.5237555,20.7645969 11.5085982,22.4075353 12.3943955,23.6098305 L16.6452842,29.5426334 C13.5553692,34.2256844 11.3849944,39.4540357 10.250185,44.9487217 L3.0719609,46.1234091 C1.60206789,46.3478808 0.460040783,47.5211247 0.275266607,48.9966114 C-0.0917555357,52.3425758 -0.0917555357,55.7186743 0.275266607,59.0646387 C0.441094213,60.5644853 1.58348221,61.7716526 3.07214134,62.019582 Z" id="Shape_133_"></path>
            <path d="M52.2827012,26.1603999 C37.5529153,27.0934734 26.083744,39.3122071 26.083744,54.0714053 C26.083744,68.8306035 37.5530958,81.0493372 52.2827012,81.9824107 C52.7513131,82.0018986 53.2074743,81.8281315 53.5443624,81.5017092 C53.8812505,81.1752868 54.0694531,80.7248998 54.0652017,80.255927 L54.0652017,27.8868836 C54.0696335,27.4177304 53.8814309,26.9675238 53.5443624,26.6411014 C53.2074743,26.3146791 52.7513131,26.140912 52.2827012,26.1603999 Z" id="Shape_132_"></path>
            <path d="M67.1164226,27.9689854 L57.7941685,27.9689854 L57.7941685,31.697851 L67.1164226,31.697851 C70.2018266,31.6886483 72.7006086,29.1898663 72.7098112,26.1044624 L72.7098112,14.574662 C75.2782444,13.6666702 76.8188713,11.0403146 76.358199,8.35531484 C75.8975266,5.67031509 73.5696246,3.70781125 70.8452882,3.70781125 C68.1211322,3.70781125 65.7930498,5.67031509 65.3323774,8.35531484 C64.8717051,11.0403146 66.412332,13.6666702 68.9807652,14.574662 L68.9807652,26.1044624 C68.9807652,27.1342536 68.1460334,27.9689854 67.1164226,27.9689854 L67.1164226,27.9689854 Z" id="Shape_131_"></path>
            <path d="M57.793988,39.1557625 L76.4386768,39.1557625 C77.468468,39.1557625 78.3031998,38.3210308 78.3031998,37.2912395 C78.3031998,36.2614483 77.468468,35.4267165 76.4386768,35.4267165 L57.793988,35.4267165 L57.793988,39.1557625 Z" id="Shape_130_"></path>
            <path d="M57.793988,80.1738252 L67.1162422,80.1738252 C68.1460334,80.1738252 68.9807652,81.008557 68.9807652,82.0383482 L68.9807652,93.5681486 C66.412332,94.4761404 64.8717051,97.102496 65.3323774,99.7874958 C65.7930498,102.472496 68.1209518,104.434999 70.8452882,104.434999 C73.5694442,104.434999 75.8975266,102.472496 76.358199,99.7874958 C76.8188713,97.102496 75.2782444,94.4761404 72.7098112,93.5681486 L72.7098112,82.0383482 C72.7006086,78.9529443 70.2018266,76.4541623 67.1164226,76.4449596 L57.793988,76.4449596 L57.793988,80.1738252 L57.793988,80.1738252 Z" id="Shape_129_"></path>
            <path d="M85.7609309,61.5293169 L57.793988,61.5293169 L57.793988,65.2581825 L85.7609309,65.2581825 C86.7907222,65.2581825 87.625454,66.0929142 87.625454,67.1227055 L87.625454,76.7881632 C85.0570207,77.6961551 83.5163939,80.3225107 83.9770662,83.0075104 C84.4377385,85.6925102 86.7656405,87.655014 89.489977,87.655014 C92.214133,87.655014 94.5422154,85.6925102 95.0028877,83.0075104 C95.4635601,80.3225107 93.9229332,77.6961551 91.3545,76.7881632 L91.3545,67.1227055 C91.3451169,64.0373015 88.8463349,61.5385195 85.7609309,61.5293169 L85.7609309,61.5293169 Z" id="Shape_128_"></path>
            <path d="M104.40562,48.4780077 C102.043794,48.4877607 99.9425294,49.9800287 99.1552543,52.2068823 L57.793988,52.2068823 L57.793988,55.9357479 L99.1552543,55.9357479 C100.107996,58.6104623 102.916239,60.1444128 105.681716,59.5005903 C108.447194,58.8567678 110.289161,56.2403365 109.962559,53.4198237 C109.636136,50.5994913 107.244899,48.4729643 104.40562,48.4780077 L104.40562,48.4780077 Z" id="Shape_127_"></path>
            <path d="M78.3031998,70.8515711 C78.3031998,69.8217798 77.468468,68.987048 76.4386768,68.987048 L57.793988,68.987048 L57.793988,72.7159137 L76.4386768,72.7159137 C77.468468,72.7160941 78.3031998,71.8813623 78.3031998,70.8515711 Z" id="Shape_126_"></path>
            <path d="M91.3543195,41.0202856 L91.3543195,31.3548278 C93.9227528,30.4468359 95.4633796,27.8204803 95.0027073,25.1354806 C94.542035,22.4504809 92.214133,20.487977 89.4897965,20.487977 C86.7656405,20.487977 84.4375581,22.4504809 83.9768857,25.1354806 C83.5162134,27.8204803 85.0568403,30.4468359 87.6252735,31.3548278 L87.6252735,41.0202856 C87.6252735,42.0500768 86.7905417,42.8848086 85.7607505,42.8848086 L57.7938076,42.8848086 L57.7938076,46.6136741 L85.7607505,46.6136741 C88.8463349,46.6042911 91.3451169,44.1055091 91.3543195,41.0202856 L91.3543195,41.0202856 Z" id="Shape_125_"></path>
        </g>
    </g>
</svg>