<?xml version="1.0" encoding="UTF-8"?>
<svg width="110px" height="110px" viewBox="0 0 110 110" version="1.1" xmlns="http://www.w3.org/2000/svg" xmlns:xlink="http://www.w3.org/1999/xlink">
    <title>clinical_trial_disclosures_Increase_effectiveness</title>
    <g id="clinical_trial_disclosures_Increase_effectiveness" stroke="none" stroke-width="1" fill="none" fill-rule="evenodd">
        <g id="Group" transform="translate(-0.000000, 0.000000)" fill="#0a4ca4" fill-rule="nonzero">
            <path d="M16.1,11.8 L16.1,23.4 L65.7,23.4 L65.7,11.8 L81.7,11.8 L81.699,60.581 L62.2,84.4 L44.328,69.699 L72.5,69.7 L72.5,64.7 L33,64.7 L33,69.7 L36.582,69.699 L36.5,69.8 L31.2,76.3 L28,80.2 L31.9,83.4 L36.412,87.099 L33,87.1 L33,92.1 L42.508,92.099 L60.8,107.1 L64.7,110.3 L67.9,106.4 L73.3,99.9 L76.5,96 L81.699,89.649 L81.7,110.7 L-3.41060513e-13,110.7 L-3.41060513e-13,11.8 L16.1,11.8 Z M22.5,83 L9.3,83 L9.3,96.2 L22.5,96.2 L22.5,83 Z M22.5,60.6 L9.3,60.6 L9.3,73.8 L22.5,73.8 L22.5,60.6 Z M22.5,38.2 L9.3,38.2 L9.3,51.4 L22.5,51.4 L22.5,38.2 Z M72.5,42.3 L33,42.3 L33,47.3 L72.5,47.3 L72.5,42.3 Z M52.1,0 L52.1,6.6 L60.7,6.6 L60.7,18.5 L21.1,18.5 L21.1,6.6 L29.7,6.6 L29.7,0 L52.1,0 Z" id="Combined-Shape"></path>
            <polygon id="Path" points="62.8 91.3 40.3 72.9 35 79.4 63.9 103.1 69.2 96.6 69.2 96.6 103.1 55.3 96.7 50"></polygon>
        </g>
    </g>
</svg>