<svg id="Layer_1" data-name="Layer 1" xmlns="http://www.w3.org/2000/svg" viewBox="0 0 110 110"><defs><style>.cls-1{fill:#0a4ca4;}</style></defs><circle class="cls-1" cx="68.75" cy="65.31" r="6.88"/><path class="cls-1" d="M65.31,75.17a3.43,3.43,0,0,0-3.43,3.44V89.38l5-3.32a3.49,3.49,0,0,1,3.82,0l5,3.32V78.61a3.43,3.43,0,0,0-3.43-3.44Z"/><path class="cls-1" d="M92.81,0H17.19a3.44,3.44,0,0,0-3.44,3.44V106.56A3.44,3.44,0,0,0,17.19,110H92.81a3.44,3.44,0,0,0,3.44-3.44V3.44A3.44,3.44,0,0,0,92.81,0ZM59,24.06a3.44,3.44,0,0,1,4.86,0l2.43,2.43,7.29-7.29a3.44,3.44,0,0,1,4.86,4.86l-9.72,9.72a3.43,3.43,0,0,1-4.86,0L59,28.92A3.42,3.42,0,0,1,59,24.06Zm-28.1-6.87H48.12a3.44,3.44,0,1,1,0,6.87H30.93a3.44,3.44,0,0,1,0-6.87ZM44.69,92.81H30.93a3.44,3.44,0,0,1,0-6.87H44.69a3.44,3.44,0,0,1,0,6.87Zm0-17.19H30.93a3.44,3.44,0,0,1,0-6.87H44.69a3.44,3.44,0,0,1,0,6.87Zm0-17.18H30.93a3.44,3.44,0,0,1,0-6.88H44.69a3.44,3.44,0,0,1,0,6.88Zm3.43-17.19H30.93a3.44,3.44,0,0,1,0-6.87H48.12a3.44,3.44,0,1,1,0,6.87ZM82.5,92.81a3.43,3.43,0,0,1-1.81,3,3.37,3.37,0,0,1-1.63.41,3.42,3.42,0,0,1-1.91-.58l-8.4-5.6-8.4,5.6A3.44,3.44,0,0,1,55,92.81V65.31a13.75,13.75,0,0,1,27.5,0Z"/></svg>