<svg id="Layer_1" data-name="Layer 1" xmlns="http://www.w3.org/2000/svg" viewBox="0 0 110 110"><defs><style>.cls-1,.cls-2{fill:#0a4ca4;}.cls-1{fill-rule:evenodd;}</style></defs><path class="cls-1" d="M40.94,32.3A12.62,12.62,0,0,1,53.52,19.72H80.19a12.6,12.6,0,1,1,0,25.19H53.52A12.65,12.65,0,0,1,40.94,32.3Zm8.55-3.75v.23c0,.09,0,.19,0,.28a2.39,2.39,0,0,0,.12.46,2.93,2.93,0,0,0,.23.43,2.47,2.47,0,0,0,.9.86,2.38,2.38,0,0,0,1.17.35h7.43a2.5,2.5,0,0,0,.54-.07l.24-.08.23-.08a2.12,2.12,0,0,0,.2-.12,2.35,2.35,0,0,0,.58-.47,1.46,1.46,0,0,0,.16-.19c.05-.07.11-.13.15-.2a2.5,2.5,0,0,0,.28-.7,2.63,2.63,0,0,0,.08-.74,2.85,2.85,0,0,0-.08-.51,2,2,0,0,0-.16-.47,1,1,0,0,0-.12-.19,2.37,2.37,0,0,0-.5-.59,2.55,2.55,0,0,0-.63-.39,2.44,2.44,0,0,0-.7-.2,2.43,2.43,0,0,1-.27,0H52c-.09,0-.18,0-.27,0l-.23,0-.24.08-.23.08a3.12,3.12,0,0,0-.43.27,2.68,2.68,0,0,0-.67.75,2.93,2.93,0,0,0-.23.43,2.39,2.39,0,0,0-.12.46c0,.09,0,.19,0,.28Zm19.88-3.83V39.91H80.19a7.6,7.6,0,1,0,0-15.19Z"/><polyline class="cls-2" points="18.52 54.84 18.52 89.98 0 89.98 0 54.84"/><path class="cls-2" d="M35.54,49.56a3.8,3.8,0,0,1,3.59-.1L66.31,63a3,3,0,0,1,1.39,3.88l-.5,1.3h0A2.61,2.61,0,0,1,63.72,70L43.91,62.1a1.75,1.75,0,0,0-2.29,1.2,2.22,2.22,0,0,0,1.09,2.59l19.91,7.86a5.21,5.21,0,0,0,2.09.4,6.36,6.36,0,0,0,5.58-3.58L105,61a3.72,3.72,0,0,1,3.09.5,4.16,4.16,0,0,1,1.79,2.79,4.53,4.53,0,0,1-2.49,5.07L58.54,90a3.39,3.39,0,0,1-2.79,0L23.69,77.44v-21Z"/></svg>