<svg id="Layer_1" data-name="Layer 1" xmlns="http://www.w3.org/2000/svg" viewBox="0 0 110 110"><defs><style>.cls-1{fill:#0a4ca4;}</style></defs><title>Close the gap</title><g id="noun_bridge_668233" data-name="noun bridge 668233"><path id="Shape" class="cls-1" d="M107.37,43.48h-12V14a2.64,2.64,0,0,0-2.63-2.64H81.24A2.64,2.64,0,0,0,78.6,14v4.21C74.39,21.42,65.65,24.1,55,24.1s-19.39-2.68-23.6-5.94V14a2.64,2.64,0,0,0-2.64-2.64H17.28A2.64,2.64,0,0,0,14.64,14V43.48h-12A2.64,2.64,0,0,0,0,46.12V58.49a2.64,2.64,0,0,0,2.64,2.64h12V82.82a2.63,2.63,0,0,0,2.63,2.63H28.76a2.64,2.64,0,0,0,2.64-2.63V61.13H78.6V82.82a2.64,2.64,0,0,0,2.64,2.63H92.73a2.63,2.63,0,0,0,2.63-2.63V61.13h12A2.64,2.64,0,0,0,110,58.49V46.12A2.64,2.64,0,0,0,107.37,43.48Zm-28.77,0H67.94V28.12a39.59,39.59,0,0,0,10.66-3.7V43.48ZM62.67,29V43.48H47.33V29a67.42,67.42,0,0,0,7.67.43A67.29,67.29,0,0,0,62.67,29Zm-20.61-.83V43.48H31.4V24.42A39.59,39.59,0,0,0,42.06,28.12ZM5.27,55.85V48.76h9.37v7.09Zm26.13,0V48.76H78.6v7.09Zm73.33,0H95.36V48.76h9.37Z"/></g></svg>