<?xml version="1.0" encoding="UTF-8"?>
<svg width="110px" height="97px" viewBox="0 0 110 97" version="1.1" xmlns="http://www.w3.org/2000/svg" xmlns:xlink="http://www.w3.org/1999/xlink">
    <title>Cloud_NEXT Medical Information</title>
    <g id="Page-1" stroke="none" stroke-width="1" fill="none" fill-rule="evenodd">
        <g id="Cloud_NEXT-Medical-Information" transform="translate(-0.000000, 0.000000)" fill="#0A4CA4" fill-rule="nonzero">
            <path d="M72.874972,0 C59.2854054,0 48.2395554,11.0440485 48.2395554,24.6207392 C48.2395554,25.1456515 48.2624945,25.6704246 48.2854334,26.1951974 C48.3999888,27.7696556 48.6292393,29.2985724 49.0187835,30.7588284 C51.7458723,41.3464858 61.4166385,49.2187774 72.8749718,49.2187774 C74.6166609,49.2187774 76.3354109,49.0361931 77.9854836,48.671164 C79.4979219,48.3745168 80.9416832,47.9181259 82.3395664,47.3248315 C91.2312443,43.605461 97.5103885,34.8205269 97.5103885,24.6207392 C97.5103885,11.0440485 86.4417393,0 72.874972,0 Z M83.4167226,19.7149196 L70.3312555,32.7441364 C69.8728942,33.1775476 69.2999775,33.4058127 68.7041217,33.4058127 C68.1541442,33.4058127 67.5812275,33.2003879 67.1458051,32.789678 L62.3792391,28.3174088 C61.4395774,27.4503078 61.4166385,26.0127528 62.2645439,25.0771306 C63.1353885,24.1644879 64.6020886,24.1188071 65.5188112,24.9859082 L68.6583833,27.9522405 L80.1624549,16.4974822 C81.0562383,15.60768 82.5229387,15.60768 83.4167221,16.4974822 C84.3105063,17.3874231 84.3105063,18.824978 83.4167226,19.7149196 Z" id="Shape"></path>
            <path d="M110,77.0112737 C110,88.0324817 100.993767,97 89.9249775,97 L20.0520833,97 C9.00623327,97 0,88.0324817 0,77.0112737 C0,71.3067349 2.38342294,66.0129063 6.62295013,62.2023134 C5.84372181,60.2855269 5.45417767,58.1862957 5.45417767,56.0870644 C5.45417767,46.9826429 12.9020943,39.5667424 22.068761,39.5667424 C23.4666442,39.5667424 24.8417281,39.7264862 26.193733,40.0915155 C30.9374998,32.6070938 36.7125447,28.1805054 43.7479781,26.7429504 C43.8854726,28.6139166 44.1604614,30.3252783 44.5729446,31.8997364 C47.8958893,44.7920498 59.5374553,53.7824086 72.874972,53.7824086 C74.9604671,53.7824086 77.0000839,53.5542828 78.8791275,53.1434334 C80.460383,52.8469256 82.0416387,52.3676942 83.5542171,51.728719 C83.9667004,53.7595681 84.172872,55.813258 84.1500729,57.8896487 C86.0292563,57.3420354 87.977117,57.0453882 89.9249778,57.0453882 C100.993767,57.0453879 110,66.0129063 110,77.0112737 Z" id="Path"></path>
        </g>
    </g>
</svg>