<?xml version="1.0" encoding="UTF-8"?>
<svg width="110px" height="110px" viewBox="0 0 110 110" version="1.1" xmlns="http://www.w3.org/2000/svg" xmlns:xlink="http://www.w3.org/1999/xlink">
    <title>Co-commercialisation_5@svg</title>
    <g id="Co-commercialisation_5" stroke="none" stroke-width="1" fill="none" fill-rule="evenodd">
        <g id="noun_equity-crowdfunding_1972684" transform="translate(3.000000, 0.000000)" fill="#0A4CA4" fill-rule="nonzero">
            <g id="Group">
                <path d="M59.7037037,11.5789474 L59.7037037,7.71929825 C59.7037037,3.45631579 56.2543704,0 52,0 C47.7456296,0 44.2962963,3.45631579 44.2962963,7.71929825 L44.2962963,11.5789474 C44.2962963,15.8419298 47.7456296,19.2982456 52,19.2982456 C56.2543704,19.2982456 59.7037037,15.8419298 59.7037037,11.5789474 Z" id="Path"></path>
                <path d="M90.5185185,11.5789474 L90.5185185,7.71929825 C90.5185185,3.45631579 87.0691852,0 82.8148148,0 C78.5604444,0 75.1111111,3.45631579 75.1111111,7.71929825 L75.1111111,11.5789474 C75.1111111,15.8419298 78.5604444,19.2982456 82.8148148,19.2982456 C87.0691852,19.2982456 90.5185185,15.8419298 90.5185185,11.5789474 Z" id="Path"></path>
                <path d="M28.8888889,11.5789474 L28.8888889,7.71929825 C28.8888889,3.45631579 25.4395556,0 21.1851852,0 C16.9308148,0 13.4814815,3.45631579 13.4814815,7.71929825 L13.4814815,11.5789474 C13.4814815,15.8419298 16.9308148,19.2982456 21.1851852,19.2982456 C25.4395556,19.2982456 28.8888889,15.8419298 28.8888889,11.5789474 Z" id="Path"></path>
                <path d="M104,36.6666667 L104,32.8070175 L59.4302222,32.8070175 C58.5693333,29.4857895 55.5802963,27.0175439 52,27.0175439 C48.4197037,27.0175439 45.4306667,29.4857895 44.5697778,32.8070175 L0,32.8070175 L0,36.6666667 L19.2592593,36.6666667 L19.2592593,52.2191228 C10.6060741,53.1821053 3.85185185,60.5482456 3.85185185,69.4736842 C3.85185185,79.0514035 11.6268148,86.8421053 21.1851852,86.8421053 C30.7435556,86.8421053 38.5185185,79.0514035 38.5185185,69.4736842 C38.5185185,60.5482456 31.7642963,53.1821053 23.1111111,52.2191228 L23.1111111,36.6666667 L44.5697778,36.6666667 C45.0917037,38.6794737 46.3974815,40.3584211 48.1481481,41.3831579 L48.1481481,94.5614035 L36.5925926,94.5614035 L36.5925926,102.280702 C32.3382222,102.280702 28.8888889,105.737018 28.8888889,110 L75.1111111,110 C75.1111111,105.737018 71.6617778,102.280702 67.4074074,102.280702 L67.4074074,94.5614035 L55.8518519,94.5614035 L55.8518519,41.3831579 C57.6025185,40.3603509 58.9082963,38.6794737 59.4302222,36.6666667 L80.8888889,36.6666667 L80.8888889,52.2191228 C72.2357037,53.1821053 65.4814815,60.5482456 65.4814815,69.4736842 C65.4814815,79.0514035 73.2564444,86.8421053 82.8148148,86.8421053 C92.3731852,86.8421053 100.148148,79.0514035 100.148148,69.4736842 C100.148148,60.5482456 93.3939259,53.1821053 84.7407407,52.2191228 L84.7407407,36.6666667 L104,36.6666667 Z M30.8148148,63.6842105 L26.962963,63.6842105 C26.962963,62.6189474 26.1001481,61.754386 25.037037,61.754386 L17.3333333,61.754386 C16.2702222,61.754386 15.4074074,62.6189474 15.4074074,63.6842105 L15.4074074,65.6140351 C15.4074074,66.6792982 16.2702222,67.5438596 17.3333333,67.5438596 L25.037037,67.5438596 C28.2225185,67.5438596 30.8148148,70.1414035 30.8148148,73.3333333 L30.8148148,75.2631579 C30.8148148,78.4550877 28.2225185,81.0526316 25.037037,81.0526316 L23.1111111,81.0526316 L23.1111111,82.9824561 L19.2592593,82.9824561 L19.2592593,81.0526316 L17.3333333,81.0526316 C14.1478519,81.0526316 11.5555556,78.4550877 11.5555556,75.2631579 L15.4074074,75.2631579 C15.4074074,76.3284211 16.2702222,77.1929825 17.3333333,77.1929825 L25.037037,77.1929825 C26.1001481,77.1929825 26.962963,76.3284211 26.962963,75.2631579 L26.962963,73.3333333 C26.962963,72.2680702 26.1001481,71.4035088 25.037037,71.4035088 L17.3333333,71.4035088 C14.1478519,71.4035088 11.5555556,68.8059649 11.5555556,65.6140351 L11.5555556,63.6842105 C11.5555556,60.4922807 14.1478519,57.8947368 17.3333333,57.8947368 L19.2592593,57.8947368 L19.2592593,55.9649123 L23.1111111,55.9649123 L23.1111111,57.8947368 L25.037037,57.8947368 C28.2225185,57.8947368 30.8148148,60.4922807 30.8148148,63.6842105 Z M92.4444444,63.6842105 L88.5925926,63.6842105 C88.5925926,62.6189474 87.7297778,61.754386 86.6666667,61.754386 L78.962963,61.754386 C77.8998519,61.754386 77.037037,62.6189474 77.037037,63.6842105 L77.037037,65.6140351 C77.037037,66.6792982 77.8998519,67.5438596 78.962963,67.5438596 L86.6666667,67.5438596 C89.8521481,67.5438596 92.4444444,70.1414035 92.4444444,73.3333333 L92.4444444,75.2631579 C92.4444444,78.4550877 89.8521481,81.0526316 86.6666667,81.0526316 L84.7407407,81.0526316 L84.7407407,82.9824561 L80.8888889,82.9824561 L80.8888889,81.0526316 L78.962963,81.0526316 C75.7774815,81.0526316 73.1851852,78.4550877 73.1851852,75.2631579 L77.037037,75.2631579 C77.037037,76.3284211 77.8998519,77.1929825 78.962963,77.1929825 L86.6666667,77.1929825 C87.7297778,77.1929825 88.5925926,76.3284211 88.5925926,75.2631579 L88.5925926,73.3333333 C88.5925926,72.2680702 87.7297778,71.4035088 86.6666667,71.4035088 L78.962963,71.4035088 C75.7774815,71.4035088 73.1851852,68.8059649 73.1851852,65.6140351 L73.1851852,63.6842105 C73.1851852,60.4922807 75.7774815,57.8947368 78.962963,57.8947368 L80.8888889,57.8947368 L80.8888889,55.9649123 L84.7407407,55.9649123 L84.7407407,57.8947368 L86.6666667,57.8947368 C89.8521481,57.8947368 92.4444444,60.4922807 92.4444444,63.6842105 Z" id="Shape"></path>
                <path d="M52,23.1578947 C56.186963,23.1578947 59.9540741,25.4312281 61.9801481,28.9473684 L66.2653333,28.9473684 C63.9811852,23.2929825 58.4634074,19.2982456 52.0019259,19.2982456 C45.5385185,19.2982456 40.0226667,23.2929825 37.7385185,28.9473684 L42.0237037,28.9473684 C44.0459259,25.4312281 47.813037,23.1578947 52,23.1578947 Z" id="Path"></path>
                <path d="M82.8148148,19.2982456 C76.3514074,19.2982456 70.8355556,23.2929825 68.5514074,28.9473684 L97.0801481,28.9473684 C94.7940741,23.2929825 89.2782222,19.2982456 82.8148148,19.2982456 Z" id="Path"></path>
                <path d="M21.1851852,19.2982456 C14.7217778,19.2982456 9.20592593,23.2929825 6.92177778,28.9473684 L35.4505185,28.9473684 C33.1644444,23.2929825 27.6485926,19.2982456 21.1851852,19.2982456 Z" id="Path"></path>
            </g>
        </g>
    </g>
</svg>