<?xml version="1.0" encoding="UTF-8"?>
<svg width="110px" height="110px" viewBox="0 0 110 110" version="1.1" xmlns="http://www.w3.org/2000/svg" xmlns:xlink="http://www.w3.org/1999/xlink">
    <title>Co-Promotion_2@svg</title>
    <g id="Co-Promotion_2" stroke="none" stroke-width="1" fill="none" fill-rule="evenodd">
        <g id="delivery-cube-box-package-with-four-arrows-in-different-directions" fill="#0A4CA4" fill-rule="nonzero">
            <path d="M30.9558333,69.6398856 L30.9047832,46.3587092 C30.9022712,45.2980719 31.985915,44.580915 32.9609967,44.9979085 L52.5837745,53.3861275 C53.1260458,53.6179902 53.4781536,54.1501961 53.4795915,54.7399183 L53.5306416,78.0212745 C53.5331536,79.081732 52.4495098,79.7990686 51.4742484,79.3818954 L31.8514706,70.9936765 C31.3093791,70.7618137 30.9570915,70.2296078 30.9558333,69.6398856 Z M77.9188235,44.7728711 C78.6972712,44.7708987 79.3955556,45.3969281 79.3977124,46.2470915 L79.4487626,69.5284477 C79.4501961,70.1179902 79.1004248,70.6519935 78.559232,70.8865523 L58.9763562,79.3676961 C58.783317,79.4514542 58.5852451,79.4904575 58.3925654,79.4910006 C57.6141176,79.4927941 56.9156536,78.8667647 56.9136765,78.016781 L56.8626273,54.7356046 C56.8613725,54.1458824 57.2109641,53.6120588 57.7521569,53.3775 L77.3350327,44.8963562 C77.5280719,44.8124183 77.7257843,44.773415 77.9188235,44.7728711 L77.9188235,44.7728711 Z M54.8608824,29.4120537 C55.0648856,29.4115196 55.2690686,29.453219 55.459951,29.5375163 L76.1052614,38.6387582 C77.2766176,39.1551471 77.2803922,40.8155719 76.1115523,41.3373529 L55.5093791,50.5360131 C55.3188562,50.6210294 55.1150327,50.6638072 54.9110294,50.6643516 C54.7070261,50.6648856 54.5028431,50.6231863 54.3121405,50.5388889 L33.6666503,41.4376471 C32.4954739,40.9212582 32.4915196,39.2608333 33.6603595,38.7390523 L54.2627124,29.5402124 C54.4530556,29.4551961 54.6568791,29.412598 54.8608824,29.4120537 L54.8608824,29.4120537 Z M59.600768,96.6193627 L59.600768,85.4647876 L50.419183,85.4647876 L50.419183,96.6193627 L41.623317,96.6193627 L55.0084477,110 L68.3955556,96.6193627 L59.600768,96.6193627 L59.600768,96.6193627 Z M96.6193627,50.399232 L85.4647876,50.399232 L85.4647876,59.580817 L96.6193627,59.580817 L96.6193627,68.376683 L110,54.9915523 L96.6193627,41.6042647 L96.6193627,50.399232 L96.6193627,50.399232 Z M50.399232,13.3806373 L50.399232,24.5352124 L59.580817,24.5352124 L59.580817,13.3806373 L68.376683,13.3806373 L54.9915523,0 L41.6042647,13.3806373 L50.399232,13.3806373 Z M13.3806373,59.600768 L24.5352124,59.600768 L24.5352124,50.419183 L13.3806373,50.419183 L13.3806373,41.623317 L0,55.0084477 L13.3806373,68.3955556 L13.3806373,59.600768 Z" id="Shape"></path>
        </g>
    </g>
</svg>