<svg id="Layer_1" data-name="Layer 1" xmlns="http://www.w3.org/2000/svg" viewBox="0 0 110 110"><defs><style>.cls-1{fill:#0a4ca4;}</style></defs><path class="cls-1" d="M45.76,53.44,61,27,45.76.57H15.21L0,27,15.21,53.44Zm6-26.3,2.7,1.57L43.77,47.18l-2.7-1.56Zm-45-1.84L17.34,6.82,20,8.39,9.38,26.86Zm88.11,3.83H64.24L48.89,55.57,64.24,82H94.79L110,55.57ZM58.27,55.43l-2.7-1.57L66.23,35.39,68.93,37ZM92.66,75.75,90,74.19l10.66-18.48,2.7,1.56ZM15.21,56.56,0,83l15.21,26.43H45.76L61,83,45.76,56.56Zm15.35,38A11.51,11.51,0,1,1,42.07,83,11.47,11.47,0,0,1,30.56,94.51Z"/></svg>