<svg id="Layer_1" data-name="Layer 1" xmlns="http://www.w3.org/2000/svg" viewBox="0 0 110 110"><defs><style>.cls-1{fill:#0a4ca4;}</style></defs><path class="cls-1" d="M71.18,6.88a5.44,5.44,0,0,0-7.52,0,5.31,5.31,0,0,0-.73,6.61l-2.28,3.23a1.77,1.77,0,0,0-.33,1v8.87h3.55v-8.3l1.86-2.64a5.37,5.37,0,0,0,1.69.3,5.32,5.32,0,0,0,3.76-9.09Zm-2.51,5a1.73,1.73,0,0,1-1.25.5,1.73,1.73,0,0,1-1.77-1.75,1.79,1.79,0,0,1,.51-1.26,1.81,1.81,0,0,1,1.26-.52,1.77,1.77,0,0,1,1.25.52,1.77,1.77,0,0,1,0,2.51Z"/><path class="cls-1" d="M55,0a5.31,5.31,0,0,0-1.77,10.32V26.61h3.54V10.32A5.31,5.31,0,0,0,55,0Zm0,7.1a1.78,1.78,0,1,1,1.77-1.78A1.78,1.78,0,0,1,55,7.1Z"/><path class="cls-1" d="M49.35,16.72l-2.28-3.23a5.24,5.24,0,0,0,.83-2.84,5.31,5.31,0,0,0-1.55-3.77,5.46,5.46,0,0,0-7.53,0A5.33,5.33,0,0,0,42.58,16a5.37,5.37,0,0,0,1.69-.3l1.86,2.64v8.3h3.55V17.74A1.77,1.77,0,0,0,49.35,16.72ZM43.84,11.9a1.82,1.82,0,0,1-2.51,0,1.77,1.77,0,0,1,0-2.51,1.77,1.77,0,0,1,1.25-.52,1.81,1.81,0,0,1,1.26.52,1.8,1.8,0,0,1,0,2.51Z"/><path class="cls-1" d="M56.77,99.68V83.39H53.23V99.68a5.32,5.32,0,1,0,3.54,0ZM55,106.45a1.78,1.78,0,1,1,1.77-1.77A1.77,1.77,0,0,1,55,106.45Z"/><path class="cls-1" d="M46.13,83.39v8.3l-1.89,2.67a5.42,5.42,0,0,0-5.42,1.23,5.32,5.32,0,1,0,8.25.92l2.28-3.23a1.77,1.77,0,0,0,.33-1V83.39Zm-2.29,17.22a1.82,1.82,0,0,1-2.51,0,1.77,1.77,0,0,1,0-2.51,1.77,1.77,0,0,1,1.25-.52,1.81,1.81,0,0,1,1.26.52,1.8,1.8,0,0,1,0,2.51Z"/><path class="cls-1" d="M71.18,95.59a5.22,5.22,0,0,0-3.72-1.49,5.74,5.74,0,0,0-1.7.26l-1.89-2.67v-8.3H60.32v8.87a1.77,1.77,0,0,0,.33,1l2.28,3.23a5.24,5.24,0,0,0-.83,2.84,5.32,5.32,0,1,0,9.08-3.76Zm-2.51,5a1.82,1.82,0,0,1-2.51,0,1.8,1.8,0,0,1,0-2.51,1.81,1.81,0,0,1,1.26-.52,1.77,1.77,0,0,1,1.25.52,1.77,1.77,0,0,1,0,2.51Z"/><path class="cls-1" d="M104.68,49.68a5.33,5.33,0,0,0-5,3.55H83.39v3.54H99.68a5.31,5.31,0,1,0,5-7.09Zm0,7.09A1.77,1.77,0,1,1,106.45,55,1.78,1.78,0,0,1,104.68,56.77Z"/><path class="cls-1" d="M103.12,63.66a5.47,5.47,0,0,0-6.6-.72l-3.24-2.29a1.77,1.77,0,0,0-1-.33H83.39v3.55h8.3l2.64,1.86a5.37,5.37,0,0,0-.3,1.69,5.33,5.33,0,1,0,9.09-3.76Zm-2.51,5a1.82,1.82,0,0,1-2.51,0,1.77,1.77,0,0,1-.52-1.25,1.81,1.81,0,0,1,.52-1.26,1.8,1.8,0,0,1,2.51,0,1.81,1.81,0,0,1,.52,1.26A1.77,1.77,0,0,1,100.61,68.67Z"/><path class="cls-1" d="M103.12,38.82a5.46,5.46,0,0,0-7.53,0A5.3,5.3,0,0,0,94,42.58a5.37,5.37,0,0,0,.3,1.69l-2.64,1.86h-8.3v3.55h8.87a1.77,1.77,0,0,0,1-.33l3.23-2.28a5.24,5.24,0,0,0,2.84.83,5.32,5.32,0,0,0,3.77-9.08Zm-2.51,5a1.78,1.78,0,0,1-3-1.26,1.77,1.77,0,0,1,.52-1.25,1.77,1.77,0,0,1,2.51,0,1.77,1.77,0,0,1,.52,1.25A1.81,1.81,0,0,1,100.61,43.84Z"/><path class="cls-1" d="M10.32,53.23a5.32,5.32,0,1,0,0,3.54H26.61V53.23Zm-5,3.54A1.77,1.77,0,1,1,7.1,55,1.77,1.77,0,0,1,5.32,56.77Z"/><path class="cls-1" d="M18.31,46.13l-2.64-1.86a5.37,5.37,0,0,0,.3-1.69,5.3,5.3,0,0,0-1.56-3.76,5.45,5.45,0,0,0-7.53,0,5.32,5.32,0,0,0,3.77,9.08,5.24,5.24,0,0,0,2.84-.83l3.23,2.28a1.77,1.77,0,0,0,1,.33h8.87V46.13ZM11.9,43.84a1.78,1.78,0,0,1-3-1.26,1.77,1.77,0,0,1,.52-1.25,1.77,1.77,0,0,1,2.51,0,1.77,1.77,0,0,1,.52,1.25A1.81,1.81,0,0,1,11.9,43.84Z"/><path class="cls-1" d="M17.74,60.32a1.77,1.77,0,0,0-1,.33l-3.24,2.29a5.47,5.47,0,0,0-6.6.72A5.32,5.32,0,1,0,16,67.42a5.37,5.37,0,0,0-.3-1.69l2.64-1.86h8.3V60.32ZM11.9,68.67a1.81,1.81,0,0,1-2.51,0,1.77,1.77,0,0,1-.52-1.25,1.81,1.81,0,0,1,.52-1.26,1.8,1.8,0,0,1,2.51,0,1.81,1.81,0,0,1,.52,1.26A1.77,1.77,0,0,1,11.9,68.67Z"/><path class="cls-1" d="M78.06,30.16H31.94a1.78,1.78,0,0,0-1.78,1.78V78.06a1.78,1.78,0,0,0,1.78,1.78H78.06a1.78,1.78,0,0,0,1.78-1.78V31.94a1.8,1.8,0,0,0-1.19-1.68A1.87,1.87,0,0,0,78.06,30.16ZM76.29,76.29H33.71V33.71H76.29Z"/><path class="cls-1" d="M57.45,52.37a3.56,3.56,0,0,1,.06,5A3.56,3.56,0,0,1,55,58.48,3.57,3.57,0,0,1,51.4,55a3.55,3.55,0,0,1,3.51-3.6H55A3.51,3.51,0,0,1,57.45,52.37Z"/><path class="cls-1" d="M69.14,53.41l-1.83,0h0a1.76,1.76,0,0,1-1.71-1.31,10.86,10.86,0,0,0-1.2-2.8,1.78,1.78,0,0,1,.24-2.16l1.28-1.31-2-2-1.28,1.31a1.77,1.77,0,0,1-2.15.3,10.74,10.74,0,0,0-2.84-1.13,1.77,1.77,0,0,1-1.35-1.7l0-1.83-2.83,0,0,1.83a1.77,1.77,0,0,1-1.31,1.73,11.06,11.06,0,0,0-2.8,1.2,1.78,1.78,0,0,1-2.17-.24l-1.3-1.28-2,2,1.31,1.28a1.77,1.77,0,0,1,.3,2.15,11.11,11.11,0,0,0-1.14,2.84,1.77,1.77,0,0,1-1.69,1.35l-1.83,0,0,2.83,1.83,0h0a1.78,1.78,0,0,1,1.71,1.31,10.93,10.93,0,0,0,1.2,2.81,1.78,1.78,0,0,1-.24,2.16l-1.28,1.31,2,2,1.28-1.31a1.75,1.75,0,0,1,2.15-.3,11.39,11.39,0,0,0,2.83,1.13,1.77,1.77,0,0,1,1.36,1.7l0,1.83,2.82,0,0-1.83a1.79,1.79,0,0,1,1.31-1.74,10.86,10.86,0,0,0,2.8-1.2,1.77,1.77,0,0,1,2.16.25l1.31,1.27,2-2L64.81,62.6a1.79,1.79,0,0,1-.3-2.16,10.54,10.54,0,0,0,1.13-2.83,1.78,1.78,0,0,1,1.7-1.36l1.83,0Zm-9.09,6.47a7.08,7.08,0,0,1-5,2.15H55a7.12,7.12,0,1,1,5.09-2.15Z"/><path class="cls-1" d="M33.71,33.71V76.29H76.29V33.71ZM72.24,59.22a1.74,1.74,0,0,1-1.25.53l-2.3,0A11.9,11.9,0,0,1,68.22,61l1.65,1.61a1.77,1.77,0,0,1,0,2.5l-4.45,4.57a1.76,1.76,0,0,1-1.25.53,2,2,0,0,1-1.26-.5l-1.64-1.6c-.38.18-.77.35-1.17.5l0,2.29a1.77,1.77,0,0,1-1.75,1.8L52,72.74h0A1.77,1.77,0,0,1,50.25,71l0-2.3A11.9,11.9,0,0,1,49,68.22l-1.61,1.65a1.74,1.74,0,0,1-1.24.53,1.85,1.85,0,0,1-1.26-.5l-4.57-4.45a1.79,1.79,0,0,1,0-2.51l1.6-1.64c-.18-.38-.35-.77-.5-1.17l-2.29,0a1.77,1.77,0,0,1-1.8-1.75L37.26,52A1.77,1.77,0,0,1,39,50.25l2.3,0A11.9,11.9,0,0,1,41.78,49l-1.65-1.61a1.77,1.77,0,0,1,0-2.5l4.45-4.57a1.76,1.76,0,0,1,1.25-.53,1.91,1.91,0,0,1,1.26.5l1.64,1.6c.38-.18.77-.35,1.17-.5l0-2.29a1.77,1.77,0,0,1,1.75-1.8L58,37.26a1.83,1.83,0,0,1,1.26.5A1.79,1.79,0,0,1,59.76,39l0,2.3a11.9,11.9,0,0,1,1.17.47l1.61-1.65a1.76,1.76,0,0,1,1.25-.53,1.74,1.74,0,0,1,1.26.5l4.56,4.45a1.72,1.72,0,0,1,.53,1.25,1.75,1.75,0,0,1-.5,1.26l-1.6,1.64c.18.38.35.77.5,1.17l2.29,0h0a1.78,1.78,0,0,1,1.77,1.75L72.74,58A1.75,1.75,0,0,1,72.24,59.22Z"/></svg>