<?xml version="1.0" encoding="UTF-8"?>
<svg width="110px" height="110px" viewBox="0 0 110 110" version="1.1" xmlns="http://www.w3.org/2000/svg" xmlns:xlink="http://www.w3.org/1999/xlink">
    <title>Commanalytics_dataframeworks@svg</title>
    <g id="Commanalytics_dataframeworks" stroke="none" stroke-width="1" fill="none" fill-rule="evenodd">
        <g id="data-complexity" fill="#0a4ca4" fill-rule="nonzero">
            <path d="M110,19.3359375 L110,0 L90.6640625,0 L90.6640625,15.1851563 L77.5766406,36.0215625 L64.6679688,15.1954687 L64.6679688,0 L45.3320312,0 L45.3320312,15.1954687 L32.4233594,36.0215625 L19.3359375,15.1851563 L19.3359375,0 L0,0 L0,19.3359375 L14.3317969,19.3359375 L26.6116211,38.8867188 L16.328125,38.8867188 L16.328125,71.1132812 L26.6116211,71.1132812 L14.3317969,90.6640625 L0,90.6640625 L0,110 L19.3359375,110 L19.3359375,94.8148437 L32.4233594,73.9784375 L45.3320312,94.8045313 L45.3320312,110 L64.6679688,110 L64.6679688,94.8045312 L77.5766406,73.9784375 L90.6640625,94.8148437 L90.6640625,110 L110,110 L110,90.6640625 L95.6682031,90.6640625 L83.3883789,71.1132812 L93.671875,71.1132812 L93.671875,38.8867188 L83.3883789,38.8867188 L95.6682031,19.3359375 L110,19.3359375 Z M61.4453125,38.8867188 L61.4453125,51.7773438 L48.5546875,51.7773438 L48.5546875,38.8867188 L38.2303711,38.8867188 L50.3486328,19.3359375 L59.6511523,19.3359375 L71.7694141,38.8867188 L61.4453125,38.8867188 Z M35.6640625,51.7773438 L35.6640625,58.2226562 L29.21875,58.2226562 L29.21875,51.7773438 L35.6640625,51.7773438 Z M48.5546875,71.1132812 L48.5546875,58.2226562 L61.4453125,58.2226562 L61.4453125,71.1132812 L71.7696289,71.1132812 L59.6513672,90.6640625 L50.3486328,90.6640625 L38.2303711,71.1132812 L48.5546875,71.1132812 Z M74.3359375,58.2226562 L74.3359375,51.7773438 L80.78125,51.7773438 L80.78125,58.2226562 L74.3359375,58.2226562 Z" id="Shape"></path>
        </g>
    </g>
</svg>