<?xml version="1.0" encoding="UTF-8"?>
<svg width="110px" height="110px" viewBox="0 0 110 110" version="1.1" xmlns="http://www.w3.org/2000/svg" xmlns:xlink="http://www.w3.org/1999/xlink">
    <title>Commanalytics_efficiency@svg</title>
    <g id="Commanalytics_efficiency" stroke="none" stroke-width="1" fill="none" fill-rule="evenodd">
        <g id="increase" transform="translate(0.000000, 13.000000)" fill="#0a4ca4" fill-rule="nonzero">
            <path d="M106.777344,21.484375 L93.8867188,21.484375 C92.1069531,21.484375 90.6640625,22.9272656 90.6640625,24.7070313 C90.6640625,26.4867969 92.1069531,27.9296875 93.8867188,27.9296875 L98.997207,27.9296875 L83.2936328,43.6332617 C81.8793164,36.9958789 77.5371094,31.4301367 71.688418,28.3570117 C75.1458984,25.3992578 77.34375,21.0093555 77.34375,16.1132813 C77.34375,7.22841797 70.115332,6.10622664e-15 61.2304688,6.10622664e-15 C52.3456055,6.10622664e-15 45.1171875,7.22841797 45.1171875,16.1132813 C45.1171875,21.0093555 47.3150391,25.3992578 50.7725195,28.3567969 C45.3771484,31.191875 41.2633203,36.1474609 39.5475781,42.109375 C39.1441016,41.6472461 38.7217188,41.1984375 38.2778516,40.7661719 C36.6976758,39.2263867 34.9284375,37.9452734 33.0240625,36.9443164 C36.4772461,33.9865625 38.671875,29.5994531 38.671875,24.7070313 C38.671875,15.822168 31.443457,8.59375 22.5585938,8.59375 C13.6737305,8.59375 6.4453125,15.822168 6.4453125,24.7070313 C6.4453125,29.6031055 8.64316406,33.9930078 12.1006445,36.9505469 C4.91369141,40.7270703 0,48.2667969 0,56.9335938 L0,80.5664062 C0,82.3461719 1.44289062,83.7890625 3.22265625,83.7890625 L29.4335938,83.7890625 C30.288457,83.7890625 31.1080859,83.4496094 31.7122266,82.8450391 L55.2148438,59.3426367 L63.6783984,67.8061914 C64.9367383,69.0645312 66.9773242,69.0645312 68.2358789,67.8061914 L103.554688,32.487168 L103.554688,37.5976562 C103.554688,39.3774219 104.997578,40.8203125 106.777344,40.8203125 C108.557109,40.8203125 110,39.3774219 110,37.5976562 L110,24.7070312 C110,22.9272656 108.557109,21.484375 106.777344,21.484375 Z" id="Shape"></path>
        </g>
    </g>
</svg>