<?xml version="1.0" encoding="UTF-8"?>
<svg width="110px" height="110px" viewBox="0 0 110 110" version="1.1" xmlns="http://www.w3.org/2000/svg" xmlns:xlink="http://www.w3.org/1999/xlink">
    <title>Commanalytics_mlengines@svg</title>
    <g id="Commanalytics_mlengines" stroke="none" stroke-width="1" fill="none" fill-rule="evenodd">
        <g id="settings-gears" fill="#0a4ca4" fill-rule="nonzero">
            <path d="M7.22167897,39.743602 C7.79989474,41.7260561 8.60231662,43.6377082 9.6171443,45.4313571 L6.72606545,49.0776566 C5.7820397,50.2694891 5.8882426,51.9687354 6.95027157,53.0425647 L11.9300074,58.0223005 C13.0038367,59.0961298 14.703083,59.1904144 15.8949155,58.2463886 L19.5176143,55.3789104 C21.3820652,56.4528577 23.3645193,57.2905626 25.4295756,57.8805787 L25.9723904,62.5417058 C26.1493952,64.052147 27.42383,65.1849779 28.9342712,65.1849779 L35.9790633,65.1849779 C37.4895045,65.1849779 38.7639393,64.052029 38.9409441,62.5417058 L39.4601583,58.0457832 C41.6786188,57.4675674 43.8026767,56.6061439 45.7969311,55.4851133 L49.3016267,58.258189 C50.4934592,59.2022147 52.1927055,59.0960118 53.2665348,58.0339828 L58.2462706,53.054247 C59.3200999,51.9804177 59.4145025,50.2811714 58.4704768,49.0893389 L55.7446024,45.6318446 C56.8774333,43.6728732 57.7624574,41.5843342 58.3524735,39.4012747 L62.5533881,38.9174615 C64.0639473,38.7404566 65.1966602,37.4660219 65.1966602,35.9555807 L65.1966602,28.9107885 C65.1966602,27.4003473 64.0638293,26.1259126 62.5533881,25.9489077 L58.4114751,25.4650945 C57.8449417,23.3056357 56.9954365,21.2405793 55.9099249,19.3053265 L58.4587944,16.0838387 C59.4028202,14.8920062 59.2966173,13.1927598 58.2345883,12.1189305 L53.2666528,7.15099504 C52.1928235,6.07716575 50.4935772,5.98276318 49.3017447,6.92678892 L46.1746594,9.40485651 C44.145004,8.21302401 41.9736268,7.30439922 39.6962827,6.69078249 L39.2242698,2.64327209 C39.047265,1.1328309 37.7728302,0 36.262389,0 L29.2175969,0 C27.7071557,0 26.4327209,1.1328309 26.2557161,2.64327209 L25.7837032,6.69078249 C23.4472395,7.31619955 21.2169787,8.26022529 19.140122,9.49925909 L15.8950335,6.92678892 C14.703201,5.98276318 13.0039547,6.08896607 11.9301254,7.15099504 L6.95038957,12.1307309 C5.87656028,13.2045601 5.78215771,14.9038065 6.72618345,16.095639 L9.44025748,19.5295327 C8.35462787,21.4883861 7.52860534,23.5770431 6.98579053,25.7483023 L2.64327209,26.2439158 C1.1328309,26.4209206 0,27.6953554 0,29.2057966 L0,36.2505887 C0,37.7610299 1.1328309,39.0354647 2.64327209,39.2124695 L7.22167897,39.743602 Z M32.7457751,20.6860822 C39.1651502,20.6860822 44.3926928,25.9136248 44.3926928,32.3329999 C44.3926928,38.752375 39.1651502,43.9799175 32.7457751,43.9799175 C26.326518,43.9799175 21.0988575,38.752375 21.0988575,32.3329999 C21.0988575,25.9136248 26.3264,20.6860822 32.7457751,20.6860822 Z" id="Shape"></path>
            <path d="M102.391157,41.4782493 L98.6740553,38.3393637 C97.5295421,37.3717373 95.841978,37.4189386 94.7564664,38.4455666 L92.7032104,40.369019 C90.9686811,39.5311962 89.1278309,38.9411801 87.2278611,38.5989708 L86.6498813,35.7668935 C86.3548733,34.3036536 84.9978363,33.2888259 83.5107597,33.4068292 L78.6608274,33.8198404 C77.1739869,33.949644 76.005755,35.1650771 75.9585537,36.663718 L75.8642692,39.5429965 C73.9997003,40.2156149 72.2414524,41.13604 70.6366086,42.2924715 L68.1822596,40.6640271 C66.9311895,39.8380046 65.2674621,40.074011 64.2999538,41.2186422 L61.1610681,44.9593442 C60.1933237,46.1039755 60.240525,47.7914215 61.267035,48.8770511 L63.4148116,51.1661955 C62.6712733,52.8418412 62.1402588,54.6002072 61.8335685,56.4055384 L58.7654848,57.0309555 C57.3022449,57.3259635 56.2874172,58.6830006 56.4054204,60.1699591 L56.8184317,65.0198914 C56.9482352,66.5067319 58.1636684,67.6749638 59.6623093,67.7221651 L62.9781997,67.82825 C63.5802521,69.4094931 64.3707557,70.908252 65.3264637,72.3123723 L63.4739312,75.1090486 C62.6479087,76.3598827 62.8839151,78.0237281 64.0284283,78.9913545 L67.7455297,82.1302401 C68.8902789,83.0978665 70.577607,83.0506652 71.6633546,82.0240372 L74.0942209,79.7465751 C75.6872643,80.4899953 77.362792,81.0446105 79.085639,81.3750195 L79.7583754,84.7027102 C80.0533834,86.1659501 81.4104204,87.1807778 82.897261,87.0627746 L87.7471933,86.6497633 C89.2340338,86.5199598 90.4022657,85.3046446 90.449467,83.8058858 L90.5556699,80.5488789 C92.3257181,79.9234619 94.0012458,79.0738387 95.547088,78.0237281 L98.2258791,79.7937763 C99.4767132,80.6197989 101.140441,80.3837924 102.108185,79.2391612 L105.247071,75.5220598 C106.214579,74.3774286 106.167378,72.6899826 105.140868,71.604353 L102.981291,69.3152085 C103.77203,67.6395628 104.350364,65.8695146 104.680537,64.052147 L107.630618,63.4503306 C109.093857,63.1553225 110.108685,61.7982855 109.990682,60.311327 L109.577671,55.4613947 C109.447867,53.9745541 108.232434,52.8063223 106.733793,52.759121 L103.771912,52.6647184 C103.158178,50.9418714 102.332155,49.313545 101.305645,47.8029858 L102.922171,45.3721195 C103.771912,44.1215214 103.535906,42.4458757 102.391157,41.4782493 Z M84.1126941,69.515696 C78.8733512,69.9642262 74.2473891,66.0582017 73.8108952,60.8189768 C73.3623649,55.5796339 77.2685075,50.9537897 82.5076144,50.5171778 C87.7469573,50.0687656 92.3729194,53.9747901 92.8094133,59.214015 C93.2579436,64.4534759 89.351801,69.0792021 84.1126941,69.515696 Z" id="Shape"></path>
            <path d="M24.1905418,82.56697 C22.7037012,82.7203742 21.55907,83.9710903 21.5472697,85.4698491 L21.5114991,88.4553306 C21.4882681,89.9539715 22.5974983,91.2284062 24.0843389,91.4173294 L26.2791988,91.7004191 C26.6450087,93.0339735 27.1642229,94.3084082 27.8368412,95.512041 L26.4208026,97.2584887 C25.4767769,98.4266025 25.5475788,100.102366 26.5978074,101.176196 L28.6864644,103.312054 C29.7366931,104.385883 31.4123388,104.503886 32.6041713,103.583461 L34.3623012,102.226424 C35.601335,102.958044 36.9112887,103.536378 38.2800081,103.937471 L38.5160145,106.203133 C38.6694187,107.689973 39.9202528,108.834604 41.4188937,108.846405 L44.4044931,108.882175 C45.903016,108.905406 47.1775687,107.796176 47.3663739,106.309336 L47.6377813,104.161677 C49.1247399,103.795749 50.5407785,103.241252 51.8858972,102.509632 L53.5379422,103.843068 C54.7061741,104.787094 56.3819378,104.716292 57.4557671,103.666063 L59.5916253,101.577406 C60.6654546,100.527296 60.7834578,98.8515321 59.8631507,97.6596996 L58.6002803,96.0193369 C59.3791015,94.7213015 59.981036,93.3406638 60.3940472,91.8892242 L62.3529006,91.6886188 C63.8397412,91.5352146 64.9842544,90.2843805 64.9961727,88.7857396 L65.031829,85.8001402 C65.0551743,84.3016173 63.9459441,83.0270645 62.4591035,82.8382594 L60.5473334,82.5904526 C60.1815234,81.1508133 59.6388266,79.7583754 58.9308073,78.46034 L60.1226398,76.9971001 C61.0666656,75.8288682 60.9958636,74.1532225 59.945635,73.0793932 L57.857096,70.943535 C56.8068674,69.8695877 55.1309857,69.7515844 53.9392712,70.6721275 L52.5113142,71.7695575 C51.1661955,70.9553353 49.7264383,70.3299182 48.2161151,69.9051066 L48.0271919,68.0524561 C47.8737877,66.5654975 46.6230716,65.4209843 45.1243127,65.409184 L42.1388313,65.3734134 C40.6401904,65.3501824 39.3657557,66.4594126 39.1768325,67.9462532 L38.9408261,69.7872214 C37.3833016,70.1883144 35.8846607,70.8020491 34.4922228,71.604353 L33.0171825,70.4007201 C31.8489507,69.4566944 30.173187,69.5276143 29.0993577,70.577725 L26.9516991,72.6783003 C25.8778698,73.7284109 25.7598666,75.4041746 26.6802917,76.5958891 L27.9429261,78.2244515 C27.2113062,79.5224869 26.6330904,80.9030066 26.2554801,82.3545642 L24.1905418,82.56697 Z M43.4604674,79.1919599 C47.7439842,79.2391612 51.1777598,82.7675754 51.1306766,87.0510923 C51.0834753,91.3346091 47.555061,94.7683848 43.2715442,94.7213015 C38.9880274,94.6741002 35.5542517,91.145804 35.601335,86.8621691 C35.6486543,82.5787703 39.1769505,79.1448766 43.4604674,79.1919599 Z" id="Shape"></path>
        </g>
    </g>
</svg>