<?xml version="1.0" encoding="UTF-8"?>
<svg width="110px" height="110px" viewBox="0 0 110 110" version="1.1" xmlns="http://www.w3.org/2000/svg" xmlns:xlink="http://www.w3.org/1999/xlink">
    <title>Commanalytics_report@svg</title>
    <g id="Commanalytics_report" stroke="none" stroke-width="1" fill="none" fill-rule="evenodd">
        <g id="profit-report" transform="translate(18.000000, 0.000000)" fill="#0a4ca4" fill-rule="nonzero">
            <path d="M81.9014453,22.5547266 C75.7640039,16.4245898 67.2044141,7.85296875 61.2304688,1.88632813 L61.2304688,22.5577344 L81.9014453,22.5547266 Z" id="Path"></path>
            <path d="M83.7890625,28.9998242 L54.7851562,29.0047656 L54.7851562,0 L0,0 L0,105.468301 L27.3983789,78.1801367 L37.0605469,87.8423047 L56.5825391,68.3203125 L48.3398437,68.3203125 L48.3398437,61.875 L67.6757812,61.875 L67.6757812,81.2109375 L61.2304687,81.2109375 L61.2304687,72.7873438 L37.0605469,96.9572656 L27.3867773,87.2834961 L4.58261719,110 L83.7890625,110 L83.7890625,28.9998242 Z M41.8947461,45.0606836 L16.1132812,45.0606836 L16.1132812,38.6153711 L41.8947461,38.6153711 L41.8947461,45.0606836 Z M41.8947461,29.0039062 L16.1132812,29.0039062 L16.1132812,22.5585938 L41.8947461,22.5585938 L41.8947461,29.0039062 Z" id="Shape"></path>
        </g>
    </g>
</svg>