<?xml version="1.0" encoding="UTF-8"?>
<svg width="107px" height="110px" viewBox="0 0 107 110" version="1.1" xmlns="http://www.w3.org/2000/svg" xmlns:xlink="http://www.w3.org/1999/xlink">
    <title>content and campaigns</title>
    <g id="Page-1" stroke="none" stroke-width="1" fill="none" fill-rule="evenodd">
        <g id="Desktop-HD" transform="translate(-838.000000, -368.000000)" fill="#0a4ca4" fill-rule="nonzero">
            <g id="noun_efficiency_3764428" transform="translate(838.536783, 368.000000)">
                <path d="M84.5922204,62.6437289 C83.5021794,66.8735283 81.5248928,70.7520509 78.8740252,74.0656359 C78.1714715,74.9456359 78.3127074,76.2276146 79.1927074,76.9301663 C80.0690876,77.632718 81.3546861,77.4914841 82.053618,76.611482 C85.0630041,72.8524663 87.3010315,68.456082 88.539552,63.6577211 C88.8184,62.5713 88.1629243,61.45953 87.0728833,61.1770602 C85.9864622,60.8982122 84.8746902,61.5536859 84.5922204,62.6437289 L84.5922204,62.6437289 Z" id="Path"></path>
                <path d="M57.0375463,26.4937037 C57.0314352,27.6140741 56.1208796,28.5185185 55.0005093,28.5185185 C40.3847685,28.5185185 28.5190278,40.3842593 28.5190278,55 C28.5190278,69.6157407 40.3847685,81.4814815 55.0005093,81.4814815 C56.1249537,81.4814815 57.0375463,82.3940741 57.0375463,83.5185185 L57.0375463,107.962963 C57.0375463,109.087407 56.1249537,110 55.0005093,110 C52.124213,110 49.2458796,109.773889 46.3960648,109.323704 C45.5975463,109.19537 44.9477315,108.608704 44.7440278,107.824444 L42.8231019,100.452407 C38.8488426,99.387037 35.0334722,97.8062963 31.4727315,95.7509259 L24.90125,99.605 C24.2025463,100.014444 23.3266204,99.9716667 22.6727315,99.495 C18.0038426,96.1033333 13.8971759,91.9966667 10.5055093,87.3277778 C10.0288426,86.6738889 9.98606481,85.797963 10.3955093,85.0992593 L14.2495833,78.5277778 C12.1921759,74.967037 10.6114352,71.1496296 9.54810185,67.1774074 L2.17606481,65.2564815 C1.39180556,65.0527778 0.805138889,64.402963 0.676805556,63.6044444 C-0.225601852,57.9027778 -0.225601852,52.0972222 0.676805556,46.3955556 C0.805138889,45.597037 1.39180556,44.9472222 2.17606481,44.7435185 L9.54810185,42.8225926 C10.6134722,38.8483333 12.194213,35.032963 14.2495833,31.4722222 L10.3955093,24.9007407 C9.98606481,24.202037 10.0288426,23.3261111 10.5055093,22.6722222 C13.8971759,18.0033333 18.0038426,13.8966667 22.6727315,10.505 C23.3266204,10.0283333 24.2025463,9.98555556 24.90125,10.395 L31.4727315,14.2490741 C35.0334722,12.1916667 38.8508796,10.6109259 42.8231019,9.54759259 L44.7440278,2.17555556 C44.9477315,1.3912963 45.5975463,0.80462963 46.3960648,0.676296296 C49.2458796,0.226111111 52.124213,0 55.0005093,0 C56.1249537,0 57.0375463,0.912592593 57.0375463,2.03703704 L57.0375463,26.4814815 L57.0375463,26.4937037 Z M61.1116204,4.4387037 C86.3423611,7.45962963 105.926435,28.9605556 105.926435,55 C105.926435,81.0394444 86.3423611,102.54037 61.1116204,105.561296 L61.1116204,93.222963 C79.573287,90.2896296 93.704213,74.2825926 93.704213,55 C93.704213,35.7174074 79.573287,19.7103704 61.1116204,16.777037 L61.1116204,4.4387037 Z" id="Shape"></path>
                <path d="M55.4527315,44.825 C62.8634722,39.9442593 74.3014352,32.8961111 74.3014352,32.8961111 C75.1060648,32.4011111 76.1449537,32.5212963 76.8110648,33.1894444 C77.479213,33.8555556 77.5993981,34.8944444 77.1043981,35.6990741 C77.1043981,35.6990741 70.05625,47.137037 65.1755093,54.5477778 C65.1816204,54.6985185 65.1856944,54.8492593 65.1856944,55 C65.1856944,60.6222222 60.6227315,65.1851852 55.0005093,65.1851852 C49.378287,65.1851852 44.8153241,60.6222222 44.8153241,55 C44.8153241,49.3777778 49.378287,44.8148148 55.0005093,44.8148148 C55.15125,44.8148148 55.3019907,44.8188889 55.4527315,44.825 Z" id="Path"></path>
                <path d="M89.6301389,55 C89.6301389,56.1250245 88.7181263,57.037037 87.5931019,57.037037 C86.4680774,57.037037 85.5560648,56.1250245 85.5560648,55 C85.5560648,53.8749755 86.4680774,52.962963 87.5931019,52.962963 C88.7181263,52.962963 89.6301389,53.8749755 89.6301389,55 Z" id="Path"></path>
            </g>
        </g>
    </g>
</svg>