<svg id="Layer_1" data-name="Layer 1" xmlns="http://www.w3.org/2000/svg" viewBox="0 0 110 110"><defs><style>.cls-1{fill:#0a4ca4;}</style></defs><path class="cls-1" d="M108.17,45.83a16.5,16.5,0,1,0-16.5,16.5h0A16.5,16.5,0,0,0,108.17,45.83ZM95.33,38.5H99v3.67H95.33Zm-11,0H88v3.67H84.33ZM82.5,47.67h3.67a5.5,5.5,0,0,0,11,0h3.66a9.17,9.17,0,0,1-18.33,0Z"/><path class="cls-1" d="M69.67,110a22,22,0,1,0-22-22,22,22,0,0,0,22,22ZM58.62,80.33A5.85,5.85,0,0,1,66.89,80c.13.12.26.25.38.38l2.4,2.55,2.4-2.55A5.84,5.84,0,0,1,80.34,80a4.31,4.31,0,0,1,.37.37,6.77,6.77,0,0,1,0,9.18l-11,11.73L58.62,89.51A6.79,6.79,0,0,1,58.62,80.33Z"/><path class="cls-1" d="M23.83,73.33A14.67,14.67,0,1,0,38.5,88h0A14.66,14.66,0,0,0,23.84,73.33Zm7.34,16.5h-5.5v5.5H22v-5.5H16.5V86.17H22v-5.5h3.67v5.5h5.5Z"/><path class="cls-1" d="M67.83,33a33,33,0,1,0-33,33h0A33,33,0,0,0,67.83,33ZM22,45.83a1.83,1.83,0,0,1-1.83,1.84h-5.5a1.84,1.84,0,0,1-1.84-1.84h0V25.67a1.84,1.84,0,0,1,1.84-1.84h5.5A1.83,1.83,0,0,1,22,25.67Zm34.83-6.41a2.75,2.75,0,0,1-2.75,2.75H52.25a2.75,2.75,0,0,1,0,5.5H29.33l-2.09-1.83H25.67V25.67h4.08a7.33,7.33,0,0,0,6.86-4.76l2.82-7.5a3.71,3.71,0,0,1,7.08,2.2L44,25.67H57.75a2.75,2.75,0,0,1,0,5.5H55.92a2.75,2.75,0,0,1,0,5.5H54.08a2.75,2.75,0,0,1,2.75,2.75Z"/></svg>