<svg id="Layer_1" data-name="Layer 1" xmlns="http://www.w3.org/2000/svg" viewBox="0 0 110 110"><defs><style>.cls-1{fill:#0a4ca4;}</style></defs><circle class="cls-1" cx="55" cy="11.17" r="11.17"/><path class="cls-1" d="M46.58,60V39.36a8.55,8.55,0,0,1,9.62-8.42,8.22,8.22,0,0,1,5.68,3.44H71.5a17.58,17.58,0,0,0-10-11A13.57,13.57,0,0,1,55,24.92a13.4,13.4,0,0,1-6.36-1.54,18.35,18.35,0,0,0-10.83,16.5V59.81C39.19,60.16,39.7,60,46.58,60Z"/><path class="cls-1" d="M72.19,70.12V55.34a4.3,4.3,0,0,0-8.6,0V70.47A8.54,8.54,0,0,1,54,78.89a8.21,8.21,0,0,1-5.67-3.44H38.67a17.62,17.62,0,0,0,10,11,13.6,13.6,0,0,1,6.53-1.54,13.38,13.38,0,0,1,6.36,1.54A18,18,0,0,0,72.19,70.12Z"/><circle class="cls-1" cx="55" cy="98.83" r="11.17"/><path class="cls-1" d="M86.45,48.64A17.93,17.93,0,0,0,70.12,37.81H50.19C49.84,39,50,39.53,50,46.41H70.64A8.55,8.55,0,0,1,79.06,56a8.18,8.18,0,0,1-3.44,5.67v9.63a17.13,17.13,0,0,0,11-10,13.49,13.49,0,0,1-1.55-6.53A11.31,11.31,0,0,1,86.45,48.64Z"/><circle class="cls-1" cx="98.83" cy="55" r="11.17"/><path class="cls-1" d="M23.55,61.36A17.77,17.77,0,0,0,39.88,72H59.81c.35-1.38.17-1.72.17-8.6H39.36a8.55,8.55,0,0,1-8.42-9.62,8.18,8.18,0,0,1,3.44-5.67V38.5a18,18,0,0,0-11,10A13.57,13.57,0,0,1,24.92,55,11.57,11.57,0,0,1,23.55,61.36Z"/><circle class="cls-1" cx="11.17" cy="55" r="11.17"/></svg>