<svg id="Layer_1" data-name="Layer 1" xmlns="http://www.w3.org/2000/svg" viewBox="0 0 110 110"><defs><style>.cls-1{fill:#0a4ca4;}</style></defs><title>data driven decisions</title><g id="Page-1"><g id="Desktop-HD"><g id="data-driven-decisions"><g id="Group"><path id="Path" class="cls-1" d="M32.55,12.35c-.06,6.53-5.87,12.35-12.22,12.23a12.7,12.7,0,0,1-12-12.48A12.36,12.36,0,0,1,20.57,0,12.34,12.34,0,0,1,32.55,12.35Z"/><path id="Shape" class="cls-1" d="M40.54,38c0-.53-.14-1.72-.26-2.86-.1-.92-.2-1.78-.21-2.1a3.07,3.07,0,0,0-2.36-2.91L37.47,30c-1.78-.56-3.61-1.19-5.17-1.73l-.61-.23a13.84,13.84,0,0,0-3.12-.94l-.21,0a1.74,1.74,0,0,0-1.12,1.24c0,.13-.52,1.66-1.13,3.66-.8,2.61-1.84,6-2.49,8.09l-.74-5.69a1.64,1.64,0,0,0,0-.23l-.09-.72c0-.34-.07-.58-.08-.7.11-.28.23-.54.38-.9l.16-.37.17-.33a1.93,1.93,0,0,0,.28-.94,5.81,5.81,0,0,0-.46-1.37,1,1,0,0,0-.68-.46l-.19,0a.7.7,0,0,0-.24,0c-.26,0-.88,0-1.68,0s-1.41,0-1.64,0a.76.76,0,0,0-.27,0l-.24,0a.93.93,0,0,0-.58.39,5.5,5.5,0,0,0-.51,1.44,1.82,1.82,0,0,0,.28.92l.17.34c0,.1.09.21.17.37l0,.1c.12.27.23.52.34.8,0,.13,0,.37-.08.7l-.09.72c0,.07,0,.15,0,.17l-.74,5.75c-.64-2.06-1.69-5.48-2.49-8.09L13.64,28.4a1.78,1.78,0,0,0-1.13-1.24l-.21,0a13.84,13.84,0,0,0-3.12.94l-.61.23C7,28.85,5.18,29.48,3.4,30l-.24.07A3.06,3.06,0,0,0,.8,33c0,.32-.11,1.18-.21,2.09C.47,36.26.34,37.45.33,38,.19,44.43.18,51.5.32,59.6a12.5,12.5,0,0,0,.94,4.51A16.65,16.65,0,0,0,4,68.51s.07.09.12.15a5.84,5.84,0,0,1,.48.74c0,.6,0,1.19.08,1.8.17,3.76.35,8,.49,12.2,0,.33,0,.65.07.92v5.3c0,2.64,0,5.29,0,7.94,0,7.32,5,12.43,12.22,12.43h6c7.17,0,12.18-5.11,12.19-12.43,0-2.65,0-5.3,0-8V84.37c0-.32.07-.64.08-1,.13-4.17.32-8.44.49-12.21,0-.6.05-1.19.08-1.79a5.75,5.75,0,0,1,.49-.76l.12-.15a16.45,16.45,0,0,0,2.7-4.38,12.51,12.51,0,0,0,.94-4.52C40.68,51.5,40.68,44.43,40.54,38Z"/><g id="Path-2" data-name="Path"><path class="cls-1" d="M70.53,90.54a6.24,6.24,0,0,0-2.16-.31l-7.65,0H55.57V60.09h4.17c2.89,0,5.87,0,8.84,0a5.16,5.16,0,0,0,2.43-.5,3.79,3.79,0,0,0,2-4.45A4,4,0,0,0,68.83,52H55.58V20.94H68.47A4.76,4.76,0,0,0,72,19.63a3.84,3.84,0,0,0,1.06-2.82c0-2.4-1.83-3.95-4.57-3.95H52.71c-3.83,0-5.18,1.38-5.18,5.28V86.19c0,3.29,0,3.33,0,7.52,0,2.75,1.52,4.54,3.85,4.56,2.95,0,5.92,0,8.83,0s6.12,0,9.13,0A3.74,3.74,0,0,0,73,94.86,3.8,3.8,0,0,0,70.53,90.54Z"/><path class="cls-1" d="M100,93.51c2,2,3.9,4,5.79,6a4.05,4.05,0,0,1-1.39,6.82,3.87,3.87,0,0,1-4.25-1.14c-2-1.89-3.93-3.76-6-5.76-2,2.09-3.93,4-5.84,6a3.87,3.87,0,0,1-4.22,1.25A4,4,0,0,1,82.44,100c1.43-1.6,3-3.12,4.52-4.62A10.76,10.76,0,0,0,88.3,94c-2.33-2.32-4.08-4-5.92-5.93a4.13,4.13,0,0,1-.2-6c1.62-1.62,3.88-1.63,5.72.18s3.71,4,5.69,6.15C96,85.92,98,83.85,100,81.9c2.48-2.37,5.87-1.36,6.74,1.95a4,4,0,0,1-1.35,3.94c-1.73,1.81-3.49,3.6-5.23,5.4A1.35,1.35,0,0,0,100,93.51Z"/><path class="cls-1" d="M100,16.07c2,2.05,3.9,4,5.79,6a4.05,4.05,0,0,1-1.39,6.82,3.86,3.86,0,0,1-4.25-1.14l-6-5.75-5.84,6a3.87,3.87,0,0,1-4.22,1.25,4,4,0,0,1-1.64-6.67c1.43-1.61,3-3.12,4.52-4.62a10,10,0,0,0,1.34-1.39c-2.33-2.32-4.08-4-5.92-5.92a4.13,4.13,0,0,1-.2-5.95C83.8,3,86.06,3,87.9,4.82s3.71,4,5.69,6.15C96,8.49,98,6.42,100,4.46c2.48-2.36,5.87-1.35,6.74,2a4,4,0,0,1-1.35,3.94c-1.73,1.8-3.49,3.59-5.23,5.39A1.91,1.91,0,0,0,100,16.07Z"/><path class="cls-1" d="M108.31,40.42h-.22a2.59,2.59,0,0,0-.83.29l-.24.13-.68.37a21,21,0,0,0-1.86,1.11c-4.35,2.93-8.49,6.27-12.54,9.53l-.25.19L88.8,54.42l-.67.55L87,54c-1.16-1-2.48-2.11-3.81-3.17a11,11,0,0,0-2.47-1.39,1.67,1.67,0,0,0-2,.39,2,2,0,0,0-.31,1.66,10.69,10.69,0,0,0,.48,1.66,50.94,50.94,0,0,0,5.55,9.94A4.23,4.23,0,0,0,87.89,65,4.43,4.43,0,0,0,91,63.65c.79-.78,1.6-1.62,2.41-2.47,2.83-3,5.83-6.16,8.68-9.42.89-1,1.76-2,2.65-3.06l1.83-2.13.14-.16c2.12-2.37,3.12-4,3-5C109.75,41,109.47,40.42,108.31,40.42Z"/></g></g></g></g></g></svg>