<?xml version="1.0" encoding="utf-8"?>
<!-- Generator: Adobe Illustrator 25.0.1, SVG Export Plug-In . SVG Version: 6.00 Build 0)  -->
<svg version="1.1" id="Layer_1" xmlns="http://www.w3.org/2000/svg" xmlns:xlink="http://www.w3.org/1999/xlink" x="0px" y="0px"
	 viewBox="0 0 110 110" style="enable-background:new 0 0 110 110;" xml:space="preserve">
<style type="text/css">
	.st0{fill:#0a4ca4;}
</style>
<g>
	<path class="st0" d="M38.4,59.7v-1.2h-1.5v1.2h-1.2v1.5h1.2v1.2h1.5v-1.1c0,0,0,0,0,0h1.2v-1.5H38.4z M38.4,59.7v-1.2h-1.5v1.2
		h-1.2v1.5h1.2v1.2h1.5v-1.1c0,0,0,0,0,0h1.2v-1.5H38.4z M38.4,59.7v-1.2h-1.5v1.2h-1.2v1.5h1.2v1.2h1.5v-1.1c0,0,0,0,0,0h1.2v-1.5
		H38.4z M38.4,59.7v-1.2h-1.5v1.2h-1.2v1.5h1.2v1.2h1.5v-1.1c0,0,0,0,0,0h1.2v-1.5H38.4z M37.7,54.2c-0.8,0.5-2.7,1.6-5.1,2.2
		c0,4.1,0.5,7.1,5.1,10.4c4.6-3.3,5.1-6.3,5.1-10.4C40.4,55.9,38.4,54.7,37.7,54.2z M37.7,66C37.7,66,37.7,66,37.7,66
		C37.6,66,37.6,66,37.7,66c-4.1-3-4.5-5.9-4.5-9c0,0,0,0,0-0.1c2-0.5,3.6-1.4,4.4-1.9c0,0,0,0,0.1,0c0.8,0.5,2.4,1.4,4.4,1.9
		c0,0,0.1,0,0,0.1C42.1,60.1,41.7,62.9,37.7,66z M38.4,58.6h-1.5v1.2h-1.2v1.5h1.2v1.2h1.5v-1.1c0,0,0,0,0,0h1.2v-1.5h-1.2V58.6z
		 M37.7,54.2c-0.8,0.5-2.7,1.6-5.1,2.2c0,4.1,0.5,7.1,5.1,10.4c4.6-3.3,5.1-6.3,5.1-10.4C40.4,55.9,38.4,54.7,37.7,54.2z M37.7,66
		C37.7,66,37.7,66,37.7,66C37.6,66,37.6,66,37.7,66c-4.1-3-4.5-5.9-4.5-9c0,0,0,0,0-0.1c2-0.5,3.6-1.4,4.4-1.9c0,0,0,0,0.1,0
		c0.8,0.5,2.4,1.4,4.4,1.9c0,0,0.1,0,0,0.1C42.1,60.1,41.7,62.9,37.7,66z M38.4,58.6h-1.5v1.2h-1.2v1.5h1.2v1.2h1.5v-1.1
		c0,0,0,0,0,0h1.2v-1.5h-1.2V58.6z M63.1,44.9H46.9c-13.5,0-24.4,9.7-24.4,21.7v23.1h14c1.8-8.6,9.5-15.1,18.6-15.1
		s16.8,6.5,18.6,15.1h14V66.6C87.6,54.7,76.6,44.9,63.1,44.9z M43.4,56.4c0,4-0.4,7.3-5.4,10.8l-0.3,0.2l-0.3-0.2
		c-4.9-3.5-5.4-6.9-5.4-10.8V56l0.4-0.1c2.3-0.5,4.2-1.7,5-2.1l0.3-0.2l0.3,0.2c0.7,0.5,2.6,1.6,5,2.1l0.4,0.1V56.4z M32.5,56.4
		c0,4.1,0.5,7.1,5.1,10.4c4.6-3.3,5.1-6.3,5.1-10.4c-2.4-0.6-4.4-1.7-5.1-2.2C36.9,54.7,34.9,55.8,32.5,56.4z M42.1,56.9
		C42.1,56.9,42.1,57,42.1,56.9c0,3.2-0.4,6-4.4,9c0,0,0,0,0,0c0,0,0,0,0,0c-4-3-4.4-5.9-4.4-9c0,0,0,0,0-0.1c2-0.5,3.6-1.4,4.4-1.9
		c0,0,0,0,0.1,0C38.5,55.5,40.1,56.4,42.1,56.9z M36.9,59.7h-1.2v1.5h1.2v1.2h1.5v-1.1c0,0,0,0,0,0h1.2v-1.5h-1.2v-1.2h-1.5V59.7z
		 M38.4,59.7v-1.2h-1.5v1.2h-1.2v1.5h1.2v1.2h1.5v-1.1c0,0,0,0,0,0h1.2v-1.5H38.4z M38.4,59.7v-1.2h-1.5v1.2h-1.2v1.5h1.2v1.2h1.5
		v-1.1c0,0,0,0,0,0h1.2v-1.5H38.4z M37.7,54.2c-0.8,0.5-2.7,1.6-5.1,2.2c0,4.1,0.5,7.1,5.1,10.4c4.6-3.3,5.1-6.3,5.1-10.4
		C40.4,55.9,38.4,54.7,37.7,54.2z M37.7,66C37.7,66,37.7,66,37.7,66C37.6,66,37.6,66,37.7,66c-4.1-3-4.5-5.9-4.5-9c0,0,0,0,0-0.1
		c2-0.5,3.6-1.4,4.4-1.9c0,0,0,0,0.1,0c0.8,0.5,2.4,1.4,4.4,1.9c0,0,0.1,0,0,0.1C42.1,60.1,41.7,62.9,37.7,66z M38.4,58.6h-1.5v1.2
		h-1.2v1.5h1.2v1.2h1.5v-1.1c0,0,0,0,0,0h1.2v-1.5h-1.2V58.6z M38.4,59.7v-1.2h-1.5v1.2h-1.2v1.5h1.2v1.2h1.5v-1.1c0,0,0,0,0,0h1.2
		v-1.5H38.4z M38.4,59.7v-1.2h-1.5v1.2h-1.2v1.5h1.2v1.2h1.5v-1.1c0,0,0,0,0,0h1.2v-1.5H38.4z M37.7,54.2c-0.8,0.5-2.7,1.6-5.1,2.2
		c0,4.1,0.5,7.1,5.1,10.4c4.6-3.3,5.1-6.3,5.1-10.4C40.4,55.9,38.4,54.7,37.7,54.2z M37.7,66C37.7,66,37.7,66,37.7,66
		C37.6,66,37.6,66,37.7,66c-4.1-3-4.5-5.9-4.5-9c0,0,0,0,0-0.1c2-0.5,3.6-1.4,4.4-1.9c0,0,0,0,0.1,0c0.8,0.5,2.4,1.4,4.4,1.9
		c0,0,0.1,0,0,0.1C42.1,60.1,41.7,62.9,37.7,66z M38.4,58.6h-1.5v1.2h-1.2v1.5h1.2v1.2h1.5v-1.1c0,0,0,0,0,0h1.2v-1.5h-1.2V58.6z
		 M38.4,59.7v-1.2h-1.5v1.2h-1.2v1.5h1.2v1.2h1.5v-1.1c0,0,0,0,0,0h1.2v-1.5H38.4z M38.4,59.7v-1.2h-1.5v1.2h-1.2v1.5h1.2v1.2h1.5
		v-1.1c0,0,0,0,0,0h1.2v-1.5H38.4z M55,0.1c-11.2,0-20.4,9.1-20.4,20.4c0,11.2,9.1,20.4,20.4,20.4s20.4-9.1,20.4-20.4
		C75.4,9.2,66.2,0.1,55,0.1z"/>
	<path class="st0" d="M55,77.9c-8.8,0-16,7.2-16,16s7.2,16,16,16s16-7.2,16-16S63.8,77.9,55,77.9z M61,87.1l2.8,2.8L53,100.7
		l-6.8-6.8l2.8-2.8l4,4L61,87.1z"/>
</g>
</svg>
