<?xml version="1.0" encoding="utf-8"?>
<!-- Generator: Adobe Illustrator 25.0.1, SVG Export Plug-In . SVG Version: 6.00 Build 0)  -->
<svg version="1.1" id="Layer_1" xmlns="http://www.w3.org/2000/svg" xmlns:xlink="http://www.w3.org/1999/xlink" x="0px" y="0px"
	 viewBox="0 0 110 110" style="enable-background:new 0 0 110 110;" xml:space="preserve">
<style type="text/css">
	.st0{fill:#0a4ca4;}
</style>
<g id="Page-1">
	<g id="Desktop-HD" transform="translate(-666.000000, -3756.000000)">
		<g id="differenciated-insights" transform="translate(666.000000, 3756.000000)">
			<g id="noun_Modeling-API_1891548" transform="translate(0.000000, 0.000000)">
				<g id="Group" transform="translate(-0.000000, -0.000000)">
					<path id="Path" class="st0" d="M90.7,13.4C81.6,5.4,69.9,0.5,57.1,0v17.4c8,0.5,15.4,3.5,21.3,8.3L90.7,13.4z"/>
					<path id="Path_1_" class="st0" d="M1.1,49.9h17.5c0.9-8.3,4.6-15.7,10.1-21.4L16.3,16.2C7.7,25.1,2.1,36.8,1.1,49.9z"/>
					<path id="Path_2_" class="st0" d="M52.9,17.4V0C40.1,0.5,28.4,5.4,19.3,13.4l12.3,12.3C37.5,20.9,44.9,17.9,52.9,17.4z"/>
					<path id="Path_3_" class="st0" d="M91.4,49.9h17.5c-1-13.1-6.6-24.8-15.3-33.7L81.3,28.5C86.8,34.2,90.5,41.6,91.4,49.9z"/>
					<path id="Path_4_" class="st0" d="M91.7,54c0,8.9-3.2,17-8.4,23.3l12.3,12.3c8.4-9.5,13.5-22,13.5-35.7H91.7L91.7,54z"/>
					<path id="Path_5_" class="st0" d="M0.9,54c0,13.7,5.1,26.1,13.5,35.7l12.3-12.3C21.5,71,18.3,62.9,18.3,54H0.9L0.9,54z"/>
					<polygon id="Path_6_" class="st0" points="31.6,90.7 43.8,90.7 43.8,110 66.2,110 66.2,90.7 78.4,90.7 55,67.4 					"/>
					<path id="Path_7_" class="st0" d="M76.4,49.9c-0.4-4.4-2.2-8.4-4.8-11.7c-0.9-1.1-1.8-2-2.9-2.9c-3.2-2.7-7.3-4.5-11.7-4.9
						c-0.7-0.1-1.5-0.1-2.2-0.1c-0.6,0-1.3,0-1.9,0.1c-4.5,0.4-8.5,2.1-11.8,4.8C40,36,39.1,37,38.2,38.1c-2.7,3.3-4.5,7.4-5,11.8
						c-0.1,0.7-0.1,1.4-0.1,2.1h5.5c0-0.7,0.1-1.4,0.1-2.1c0.4-3,1.6-5.7,3.3-7.9c0.4-0.5,0.8-1,1.3-1.5c0.5-0.5,1.1-1,1.7-1.4
						c2.2-1.7,4.9-2.9,7.9-3.2c0.6-0.1,1.3-0.1,1.9-0.1c0.8,0,1.5,0.1,2.2,0.2c2.9,0.4,5.6,1.6,7.8,3.3c0.5,0.4,1,0.8,1.5,1.3
						c0.5,0.5,1,1.1,1.4,1.7c1.7,2.2,2.8,4.8,3.2,7.7c0.1,0.5,0.1,1,0.1,1.5l-4.5,0l2.7,2.7l4.9,4.9l4.9-4.9l2.7-2.7h-5
						C76.5,50.9,76.5,50.4,76.4,49.9z"/>
				</g>
			</g>
		</g>
	</g>
</g>
</svg>
