<?xml version="1.0" encoding="UTF-8"?>
<svg width="110px" height="110px" viewBox="0 0 110 110" version="1.1" xmlns="http://www.w3.org/2000/svg" xmlns:xlink="http://www.w3.org/1999/xlink">
    <title>NXTadverse_end_automation@svg</title>
    <g id="NXTadverse_end_automation" stroke="none" stroke-width="1" fill="none" fill-rule="evenodd">
        <g id="process-(1)" fill="#0A4CA4" fill-rule="nonzero">
            <path d="M90.4492188,19.5507812 L90.4492188,32.4542969 C92.6083984,32.1449219 94.8019531,32.1556641 96.8945313,32.4542969 L96.8945313,16.328125 C96.8945313,14.5492187 95.4507813,13.1054688 93.671875,13.1054688 L77.5457031,13.1054688 C77.8542188,15.2644336 77.8445508,17.4592773 77.5457031,19.5507812 L90.4492188,19.5507812 Z" id="Path"></path>
            <path d="M71.1261719,58.2226562 C70.8167969,56.0634766 70.8275391,53.8699219 71.1261719,51.7773438 L38.8738281,51.7773438 C39.1823438,53.9363086 39.1726758,56.1311523 38.8738281,58.2226562 L71.1261719,58.2226562 Z" id="Path"></path>
            <path d="M108.605664,91.0185547 L94.7826172,81.4902344 C92.6404102,80.015332 89.7294922,81.5591992 89.7294922,84.1435547 L89.7294922,90.4492187 L77.5457031,90.4492187 C77.8542188,92.6083984 77.8445508,94.8028125 77.5457031,96.8945312 L89.7294922,96.8945312 L89.7294922,103.200195 C89.7294922,105.80582 92.6614648,107.317676 94.7826172,105.853516 L108.605664,96.3251953 C110.461055,95.0458008 110.464922,92.3007422 108.605664,91.0185547 L108.605664,91.0185547 Z" id="Path"></path>
            <path d="M19.5507812,90.4492188 L19.5507812,77.5457031 C17.3787109,77.8550781 15.1851563,77.8421875 13.1054688,77.5457031 L13.1054688,93.671875 C13.1054688,95.4507813 14.5492187,96.8945313 16.328125,96.8945313 L32.4542969,96.8945313 C32.1457812,94.7353516 32.1554492,92.5409375 32.4542969,90.4492188 L19.5507812,90.4492188 Z" id="Path"></path>
            <path d="M55,0 C46.2898047,0 39.1511914,6.85587891 38.6957227,15.4547852 C38.5036523,14.7651367 38.0842773,14.1276953 37.4268555,13.6745898 L23.6023047,4.14691406 C21.4667578,2.67544922 18.5508984,4.20835937 18.5508984,6.80044922 L18.5508984,13.1054688 L9.8828125,13.1054688 C8.10304688,13.1054688 6.66015625,14.5483594 6.66015625,16.328125 C6.66015625,18.1078906 8.10304688,19.5507812 9.8828125,19.5507812 L18.5511133,19.5507812 L18.5511133,25.8558008 C18.5511133,28.4680859 21.4856641,29.9687695 23.6025195,28.5093359 L37.4270703,18.9816602 C38.0836328,18.5291992 38.5036523,17.8913281 38.6959375,17.2003906 C39.1507617,25.7997266 46.289375,32.65625 55,32.65625 C64.0032422,32.65625 71.328125,25.331582 71.328125,16.328125 C71.328125,7.32466797 64.0032422,0 55,0 Z" id="Path"></path>
            <circle id="Oval" cx="55" cy="93.671875" r="16.328125"></circle>
            <circle id="Oval" cx="93.671875" cy="55" r="16.328125"></circle>
            <circle id="Oval" cx="16.328125" cy="55" r="16.328125"></circle>
        </g>
    </g>
</svg>