<?xml version="1.0" encoding="UTF-8"?>
<svg width="110px" height="110px" viewBox="0 0 110 110" version="1.1" xmlns="http://www.w3.org/2000/svg" xmlns:xlink="http://www.w3.org/1999/xlink">
    <title>Forecasting_excel@svg</title>
    <g id="Forecasting_excel" stroke="none" stroke-width="1" fill="none" fill-rule="evenodd">
        <g id="speedometer" transform="translate(0.000000, 10.000000)" fill="#0a4ca4" fill-rule="nonzero">
            <path d="M51.7773438,0 C39.3675994,0.712509102 27.7349854,5.5305482 18.4555817,13.8020326 L32.2164917,27.5621032 C35.2444458,26.4870452 38.50235,25.8995819 41.8945312,25.8995819 C45.3630828,25.8995819 48.6914826,26.5130615 51.7773438,27.6351165 L51.7773438,0 Z" id="Path"></path>
            <path d="M64.2877961,36.4907073 L90.3182983,12.7412416 C81.2495423,5.11848455 70.0919343,0.68145752 58.2226562,0 L58.2226562,30.9458922 C60.4969789,32.5001527 62.5396729,34.3691253 64.2877961,36.4907073 L64.2877961,36.4907073 Z" id="Path"></path>
            <path d="M0,54.9043275 L0,58.1269837 L12.890625,58.1269837 L12.890625,54.9043275 C12.890625,44.7252654 18.1618499,35.7555389 26.1169434,30.5783081 L13.8985443,18.359909 C4.91455078,28.438263 0,41.292801 0,54.9043275 Z" id="Path"></path>
            <path d="M92.9098511,58.1269837 L110,58.1269837 L110,54.9043275 C110,50.2180482 109.415054,45.6224059 108.285446,41.1979674 L92.9098511,58.1269837 Z" id="Path"></path>
            <path d="M54.9991608,58.2352448 C51.5557861,58.2352448 48.3180238,59.5763397 45.8834075,62.0109557 C40.8580779,67.0371247 40.8580779,75.2146149 45.8834075,80.2407837 C48.3180238,82.6753997 51.5557861,84.0164948 54.9991608,84.0164948 C58.4416961,84.0164948 61.6794587,82.6753997 64.1140747,80.2407837 C69.1402435,75.2146149 69.1402435,67.0371247 64.1140747,62.0109557 C61.6794587,59.5763397 58.4416961,58.2352448 54.9991608,58.2352448 Z" id="Path"></path>
            <path d="M96.2902832,16.0176087 L56.9721986,51.8898011 C61.3907624,52.3345947 65.4887389,54.2707062 68.671112,57.4530793 C71.9306947,60.7126618 73.7778473,64.8567962 74.219284,69.1201019 L110,29.7231292 L110,16.0176087 L96.2902832,16.0176087 Z" id="Path"></path>
        </g>
    </g>
</svg>