<?xml version="1.0" encoding="UTF-8"?>
<svg width="110px" height="110px" viewBox="0 0 110 110" version="1.1" xmlns="http://www.w3.org/2000/svg" xmlns:xlink="http://www.w3.org/1999/xlink">
    <title>Forecasting_manufacturing@svg</title>
    <g id="Forecasting_manufacturing" stroke="none" stroke-width="1" fill="none" fill-rule="evenodd">
        <g id="3d-printer" transform="translate(0.000000, 0.000000)" fill="#0a4ca4" fill-rule="nonzero">
            <path d="M55,90.8743945 C46.2311523,90.8743945 39.0970508,98.0084961 39.0970508,106.777344 L70.9031641,106.777344 C70.9031641,98.0084961 63.7688477,90.8743945 55,90.8743945 Z" id="Path"></path>
            <path d="M65.4712695,30.4863281 L70.2429492,30.4863281 L70.2429492,13.688125 L110,13.688125 L110,7.2428125 L70.2431641,7.2428125 L70.2431641,6.10622664e-15 L39.7568359,6.10622664e-15 L39.7568359,7.2428125 L0,7.2428125 L0,13.688125 L39.7568359,13.688125 L39.7568359,30.4863281 L44.5285156,30.4863281 L48.3879688,41.8855078 L51.7773438,41.8855078 L51.7773438,58.3736914 L46.2487695,58.3736914 L43.9327539,70.4517773 C41.5625977,71.1730078 39.2908398,72.1198242 37.1421875,73.2673047 L26.9613867,66.3626563 L14.5850977,78.7389453 L21.4897461,88.9197461 C20.3422656,91.0683984 19.3954492,93.3399414 18.6742188,95.7103125 L6.59613281,98.0263281 L6.59613281,106.777344 L32.6515234,106.777344 C32.6515234,94.4545508 42.6769922,84.429082 54.9997852,84.429082 C67.3225781,84.429082 77.3482617,94.4545508 77.3482617,106.777344 L103.403652,106.777344 L103.403652,98.0261133 L91.3255664,95.7100977 C90.6043359,93.3399414 89.6575195,91.0681836 88.5100391,88.9195313 L95.4146875,78.7387305 L83.0383984,66.3624414 L72.8575977,73.2670898 C70.7089453,72.1196094 68.4374023,71.172793 66.0670312,70.4515625 L63.7510156,58.3734766 L58.2226562,58.3734766 L58.2226562,41.885293 L61.6118164,41.885293 L61.6118164,41.8855078 L65.4712695,30.4863281 Z" id="Path"></path>
        </g>
    </g>
</svg>