<?xml version="1.0" encoding="UTF-8"?>
<svg width="110px" height="110px" viewBox="0 0 110 110" version="1.1" xmlns="http://www.w3.org/2000/svg" xmlns:xlink="http://www.w3.org/1999/xlink">
    <title>Forecasting_patientanalytics@svg</title>
    <g id="Forecasting_patientanalytics" stroke="none" stroke-width="1" fill="none" fill-rule="evenodd">
        <g id="magnifying-glass" fill="#0a4ca4" fill-rule="nonzero">
            <path d="M104.133406,16.775 C104.958406,15.2165945 105.416811,13.3834055 105.416811,11.4584055 C105.416594,5.13340551 100.283406,0 93.9584055,0 C87.6334055,0 82.5,5.13340551 82.5,11.4584055 C82.5,17.7834055 87.6334055,22.916811 93.9584055,22.916811 C95.8834055,22.916811 97.716811,22.4584055 99.275,21.6334055 L104.133406,26.491811 C104.8025,27.1656693 105.6825,27.5002165 106.5625,27.5002165 C107.4425,27.5002165 108.3225,27.1656693 108.991594,26.491811 C110.334547,25.1488583 110.334547,22.971811 108.991594,21.6288583 L104.133406,16.775 Z M89.375,11.4584055 C89.375,8.9375 91.4375,6.875 93.9584055,6.875 C96.479311,6.875 98.541811,8.9375 98.541811,11.4584055 C98.541811,13.979311 96.479311,16.041811 93.9584055,16.041811 C91.4375,16.0415945 89.375,13.9790945 89.375,11.4584055 Z" id="Shape"></path>
            <path d="M8.02090551,27.5 L65.3125,27.5 C69.7125,27.5 73.3334055,23.8790945 73.3334055,19.4790945 L73.3334055,8.02090551 C73.3334055,3.62090551 69.7125,0 65.3125,0 L8.02090551,0 C3.62090551,0 -5.49560397e-14,3.62090551 -5.49560397e-14,8.02090551 L-5.49560397e-14,19.479311 C-5.49560397e-14,23.8790945 3.62090551,27.5 8.02090551,27.5 Z" id="Path"></path>
            <path d="M101.979094,36.6665945 L44.6875,36.6665945 C40.2875,36.6665945 36.6665945,40.2875 36.6665945,44.6875 L36.6665945,101.979094 C36.6665945,106.379094 40.2875,110 44.6875,110 L101.979094,110 C106.379094,110 110,106.379094 110,101.979094 L110,44.6875 C110,40.2875 106.379094,36.6665945 101.979094,36.6665945 Z M73.3334055,55 C77.1375,55 80.2084055,58.0709055 80.2084055,61.875 C80.2084055,65.6790945 77.1375,68.75 73.3334055,68.75 C69.529311,68.75 66.4584055,65.6790945 66.4584055,61.875 C66.4584055,58.0709055 69.5290945,55 73.3334055,55 Z M87.0834055,83.6459055 C87.0834055,85.525 85.525,87.0834055 83.6459055,87.0834055 L63.0209055,87.0834055 C61.141811,87.0834055 59.5834055,85.525 59.5834055,83.6459055 L59.5834055,81.95 C59.5834055,77.1834055 63.891811,73.3334055 69.2084055,73.3334055 L77.4584055,73.3334055 C82.775,73.3334055 87.0834055,77.1834055 87.0834055,81.95 L87.0834055,83.6459055 Z" id="Shape"></path>
            <circle id="Oval" cx="13.75" cy="93.9584055" r="13.75"></circle>
            <path d="M3.4375,57.2915945 L24.0625,57.2915945 C25.96,57.2915945 27.5,55.7515945 27.5,53.8540945 C27.5,51.9565945 25.96,50.4165945 24.0625,50.4165945 L3.4375,50.4165945 C1.54,50.4165945 -4.88498131e-14,51.9565945 -4.88498131e-14,53.8540945 C-4.88498131e-14,55.7515945 1.54,57.2915945 3.4375,57.2915945 Z" id="Path"></path>
            <path d="M3.4375,71.0415945 L24.0625,71.0415945 C25.96,71.0415945 27.5,69.5015945 27.5,67.6040945 C27.5,65.7065945 25.96,64.1665945 24.0625,64.1665945 L3.4375,64.1665945 C1.54,64.1665945 -4.88498131e-14,65.7065945 -4.88498131e-14,67.6040945 C-4.88498131e-14,69.5015945 1.54,71.0415945 3.4375,71.0415945 Z" id="Path"></path>
            <path d="M3.4375,43.5415945 L24.0625,43.5415945 C25.96,43.5415945 27.5,42.0015945 27.5,40.1040945 C27.5,38.2065945 25.96,36.6665945 24.0625,36.6665945 L3.4375,36.6665945 C1.54,36.6665945 -4.88498131e-14,38.2065945 -4.88498131e-14,40.1040945 C-4.88498131e-14,42.0015945 1.54,43.5415945 3.4375,43.5415945 Z" id="Path"></path>
        </g>
    </g>
</svg>