<?xml version="1.0" encoding="UTF-8"?>
<svg width="110px" height="110px" viewBox="0 0 110 110" version="1.1" xmlns="http://www.w3.org/2000/svg" xmlns:xlink="http://www.w3.org/1999/xlink">
    <title>Forecasting_research@svg</title>
    <g id="Forecasting_research" stroke="none" stroke-width="1" fill="none" fill-rule="evenodd">
        <g id="investigation" transform="translate(18.501953, 0.000000)" fill="#0a4ca4" fill-rule="nonzero">
            <polygon id="Path" points="5.11972656 0 19.0115234 0 19.0115234 13.8896484 5.11972656 13.8896484"></polygon>
            <path d="M67.0033203,55.2384766 C67.0033203,59.9263672 66.2556641,64.8441406 64.7861328,69.2892578 L44.8335937,69.2892578 C48.0165039,56.3949805 44.7433594,42.6858008 35.5888672,32.9613281 C40.1891016,29.7565039 42.1667383,23.7597852 40.3927734,18.4378906 C55.8486328,23.5253906 67.0033203,38.0789063 67.0033203,55.2384766 Z" id="Path"></path>
            <polygon id="Path" points="73.4980469 103.591211 73.4980469 110 0 110 0 103.591211 43.3533203 103.591211 43.3533203 94.4990234 31.9880859 94.4990234 31.9880859 88.3029297 6.10622664e-15 88.3029297 6.10622664e-15 81.8576172 31.9880859 81.8576172 31.9880859 75.7345703 61.8964844 75.7345703 61.8964844 94.4990234 49.7986328 94.4990234 49.7986328 103.591211"></polygon>
            <path d="M24.1333984,34.5769531 L24.1333984,59.1078125 L15.2861328,59.1078125 L15.2861328,69.2033203 L8.84082031,69.2033203 L8.84082031,59.1078125 L0,59.1078125 L0,19.7935547 L15.7716797,19.7935547 C14.4628516,26.045293 18.0816797,32.4957617 24.1333984,34.5769531 L24.1333984,34.5769531 Z" id="Path"></path>
            <circle id="Oval" cx="28.2702148" cy="22.4844727" r="6.38042969"></circle>
        </g>
    </g>
</svg>