<?xml version="1.0" encoding="UTF-8"?>
<svg width="110px" height="110px" viewBox="0 0 110 110" version="1.1" xmlns="http://www.w3.org/2000/svg" xmlns:xlink="http://www.w3.org/1999/xlink">
    <title>Future Ready Healthcare_2@svg</title>
    <g id="Future-Ready-Healthcare_2" stroke="none" stroke-width="1" fill="none" fill-rule="evenodd">
        <g id="triple-circular-arrows-symbol" transform="translate(-0.000000, 0.000000)" fill="#0A4CA4" fill-rule="nonzero">
            <path d="M21.1406531,37.2550542 L30.1792523,54.6784009 L39.2184727,72.1025758 L25.9611013,71.5048336 C26.8395981,77.3658957 29.4314017,82.8354336 33.5189066,87.3086654 C38.9511761,93.2539953 46.3735732,96.7278155 54.418765,97.0907673 L54.418765,97.0907673 L53.8968017,108.658435 C42.7622744,108.156348 32.4892661,103.348116 24.9707997,95.1196881 C18.7890231,88.3546625 15.0804126,79.9425849 14.2350432,70.9764519 L14.2350432,70.9764519 L-1.77635684e-14,70.3344018 L10.5703266,53.7943139 L21.1406531,37.2550542 Z M105.021877,39.7238723 C110.291615,49.5457271 111.421052,60.8318122 108.202313,71.5031772 C105.555642,80.2769644 100.228552,87.7695501 92.9597828,93.0860809 L92.9597828,93.0860809 L99.69665,105.642601 L80.0771649,105.030987 L60.4576798,104.419372 L70.7969428,87.7347664 L81.136413,71.048918 L87.4107392,82.742884 C91.9957759,78.987274 95.3666941,73.9604008 97.1164411,68.159175 C99.4419833,60.4491909 98.6260145,52.2948857 94.818436,45.1985863 L94.818436,45.1985863 Z M60,38 C64.8702659,38 68.8196312,41.9639583 68.8196312,46.8543109 C68.8196312,51.1509883 65.7727965,54.730723 61.7315814,55.538657 C69.3837772,55.538657 75,61.6464044 75,68.7184878 L75,68.7184878 L75,71.415092 C75,72.7823649 73.8972886,73.88954 72.5356812,73.88954 L72.5356812,73.88954 L47.4643188,73.88954 C46.1027114,73.88954 45,72.7821932 45,71.415092 L45,71.415092 L45,68.7184878 C45,61.6369619 50.6261803,55.538657 58.2684186,55.538657 C54.2272035,54.730723 51.1803688,51.1509883 51.1803688,46.8543109 C51.1803688,41.9639583 55.1297341,38 60,38 Z M78.6485466,1.84741111e-13 L87.899161,17.312577 L97.1491543,34.6255682 L77.5309115,33.9799983 L57.9122545,33.3348426 L64.9182818,22.0725678 C51.7335836,17.0972491 36.4024382,21.9497894 28.6825158,34.359928 L28.6825158,34.359928 L18.8503087,28.243578 C29.9512945,10.3982712 52.4220121,3.84422567 71.1195207,12.1037103 L71.1195207,12.1037103 L78.6485466,1.84741111e-13 Z" id="Combined-Shape"></path>
        </g>
    </g>
</svg>