<?xml version="1.0" encoding="UTF-8"?>
<svg width="110px" height="110px" viewBox="0 0 110 110" version="1.1" xmlns="http://www.w3.org/2000/svg" xmlns:xlink="http://www.w3.org/1999/xlink">
    <title>Future Ready Healthcare_1@svg</title>
    <g id="Future-Ready-Healthcare_1" stroke="none" stroke-width="1" fill="none" fill-rule="evenodd">
        <g id="Group-3" transform="translate(19.000000, 0.000000)" fill="#0A4CA4" fill-rule="nonzero">
            <path d="M35.5,0 C55.0644444,0 71,16.1408228 71,35.9572785 C71,56.7325949 42.9155556,92.0506329 35.5,101 C28.0844444,92.0506329 0,56.7325949 0,35.9572785 C0,16.1408228 15.9355556,0 35.5,0 Z M39.4630044,22.2229104 L32.7339445,22.2229104 L32.7339445,26.6475713 C27.8033379,27.0110005 23.9009318,31.1664796 23.9009318,36.2257856 C23.9009318,41.5230835 28.177698,45.8327037 33.4348882,45.8327037 L33.4348882,45.8327037 L40.4903076,45.8327037 C42.1748156,45.8327037 43.5450765,47.2134184 43.5450765,48.9105517 C43.5450765,50.607911 42.1748156,51.9886258 40.4903076,51.9886258 L40.4903076,51.9886258 L25.2871181,51.9886258 L25.2871181,58.7690225 L32.7339445,58.7690225 L32.7339445,63.1649797 L39.4630044,63.1649797 L39.4630044,58.7690225 L40.4905319,58.7690225 C45.8854435,58.7690225 50.2743607,54.3466218 50.2743607,48.9105517 C50.2743607,43.4747077 45.8854435,39.052307 40.4905319,39.052307 L40.4905319,39.052307 L33.4351125,39.052307 C31.8885502,39.052307 30.630216,37.7843728 30.630216,36.2257856 C30.630216,34.6671984 31.8883259,33.3992643 33.4351125,33.3992643 L33.4351125,33.3992643 L45.3468944,33.3992643 L45.3468944,26.6188676 L39.4630044,26.6188676 L39.4630044,22.2229104 Z" id="Combined-Shape"></path>
            <path d="M36.5,110 C23.4966667,110 13,108.016949 13,105.423729 C13,103.288136 20.99,101.457627 31.4866667,101 C33.21,103.135593 34.4633333,104.355932 34.62,104.661017 C35.09,105.118644 35.7166667,105.423729 36.3433333,105.423729 C36.97,105.423729 37.5966667,105.118644 38.0666667,104.661017 C38.38,104.355932 39.4766667,103.135593 41.2,101 C52.01,101.457627 60,103.288136 60,105.423729 C60,108.016949 49.5033333,110 36.5,110 Z" id="Path"></path>
        </g>
    </g>
</svg>