<svg id="Layer_1" data-name="Layer 1" xmlns="http://www.w3.org/2000/svg" viewBox="0 0 110 110"><defs><style>.cls-1{fill:#0a4ca4;}</style></defs><title>global expertise</title><g id="Page-1"><g id="Desktop-HD"><g id="global-expertise"><g id="noun_Globe_3777169" data-name="noun Globe 3777169"><g id="Group"><path id="Shape" class="cls-1" d="M55.06,30.26A24.73,24.73,0,1,0,79.78,55,24.74,24.74,0,0,0,55.06,30.26Zm.11,44h0c-.92-.35-2.78-3.71-3.83-10.1h7.32C57.73,70.54,56,73.9,55.17,74.25ZM50.76,58.82c-.11-1.28-.11-2.56-.11-3.83s0-2.67.11-3.83h8.48c.11,1.27.11,2.55.11,3.83s0,2.66-.11,3.83ZM35.68,55A20.6,20.6,0,0,1,36,51.16h9.4c-.11,1.27-.11,2.55-.11,3.83s0,2.55.11,3.83H36A21.64,21.64,0,0,1,35.68,55ZM54.94,35.6h0c.93.35,2.79,3.72,3.83,10.1H51.46C52.39,39.43,54.13,36.07,54.94,35.6ZM64.69,51h9.4a21.57,21.57,0,0,1,.35,3.83,20.58,20.58,0,0,1-.35,3.83h-9.4c.12-1.28.12-2.55.12-3.83S64.69,52.43,64.69,51ZM72,45.7H64.11a37.68,37.68,0,0,0-2.2-8.82A18.86,18.86,0,0,1,72,45.7ZM48.21,36.88A37.68,37.68,0,0,0,46,45.7h-7.9A18.88,18.88,0,0,1,48.21,36.88ZM38.11,64.15H46A37.9,37.9,0,0,0,48.21,73,18.46,18.46,0,0,1,38.11,64.15ZM61.91,73a37.9,37.9,0,0,0,2.2-8.83H72A18.44,18.44,0,0,1,61.91,73Z"/><path id="Path" class="cls-1" d="M49,11.93H52.5V22.14a2.67,2.67,0,0,0,5.34,0V11.93h3.49a2.4,2.4,0,0,0,2-1.17,2.15,2.15,0,0,0-.23-2.2L56.92.78a2.21,2.21,0,0,0-3.37,0L47.4,8.56a2.15,2.15,0,0,0-.23,2.2A2.05,2.05,0,0,0,49,11.93Z"/><path id="Path-2" data-name="Path" class="cls-1" d="M18.15,29.22a1.42,1.42,0,0,0,.7.12,2.17,2.17,0,0,0,1.5-.59l2.44-2.43L30,33.51a2.48,2.48,0,0,0,1.86.82,2.31,2.31,0,0,0,1.85-.82,2.72,2.72,0,0,0,0-3.83l-7.08-7.19,2.44-2.44a2,2,0,0,0,.46-2.21,2,2,0,0,0-1.74-1.39l-9.86-1.16a1.93,1.93,0,0,0-1.74.58,2,2,0,0,0-.58,1.74l1.16,9.87A2.16,2.16,0,0,0,18.15,29.22Z"/><path id="Path-3" data-name="Path" class="cls-1" d="M78.39,34.44a2.3,2.3,0,0,0,1.85-.81l7.2-7.2,2.44,2.44a1.9,1.9,0,0,0,1.51.58,1.52,1.52,0,0,0,.69-.11,2,2,0,0,0,1.4-1.75l1.16-9.86A1.93,1.93,0,0,0,94.06,16a2,2,0,0,0-1.75-.58l-9.86,1.16a2.14,2.14,0,0,0-1.28,3.6l2.44,2.43-7.2,7.2a2.73,2.73,0,0,0,2,4.64Z"/><path id="Path-4" data-name="Path" class="cls-1" d="M61.09,98.05H57.61V87.83a2.67,2.67,0,0,0-5.34,0V98.05H48.79a2.38,2.38,0,0,0-2,1.16,2.15,2.15,0,0,0,.23,2.2l6.15,7.78a2.29,2.29,0,0,0,1.74.81,2.47,2.47,0,0,0,1.74-.81l6.15-7.78a2.18,2.18,0,0,0,.24-2.2A2.24,2.24,0,0,0,61.09,98.05Z"/><path id="Path-5" data-name="Path" class="cls-1" d="M92,80.64a2.15,2.15,0,0,0-2.21.46l-2.44,2.44-7.19-7.2a2.71,2.71,0,0,0-3.83,3.83l7.19,7.2L81.06,89.8A2,2,0,0,0,80.59,92a2,2,0,0,0,1.74,1.39l9.87,1.16h.23A2.2,2.2,0,0,0,93.94,94a2,2,0,0,0,.58-1.74l-1.16-9.86A2.3,2.3,0,0,0,92,80.64Z"/><path id="Path-6" data-name="Path" class="cls-1" d="M109.38,53.36l-7.78-6.15A2.17,2.17,0,0,0,99.39,47a2.26,2.26,0,0,0-1.16,2v3.48H88a2.67,2.67,0,0,0,0,5.34H98.23v3.48a2.42,2.42,0,0,0,1.16,2,2.88,2.88,0,0,0,.93.23A1.74,1.74,0,0,0,101.6,63l7.78-6.15a2.28,2.28,0,0,0,.81-1.74A2.48,2.48,0,0,0,109.38,53.36Z"/><path id="Path-7" data-name="Path" class="cls-1" d="M22.21,57.54a2.67,2.67,0,0,0,0-5.34H12V48.72a2.43,2.43,0,0,0-1.16-2A2.17,2.17,0,0,0,8.63,47L.86,53.13A2.25,2.25,0,0,0,0,54.87a2.44,2.44,0,0,0,.82,1.74l7.77,6.15a1.74,1.74,0,0,0,1.28.47,2.12,2.12,0,0,0,.93-.24A2.25,2.25,0,0,0,12,61V57.54Z"/><path id="Path-8" data-name="Path" class="cls-1" d="M29.76,76.23l-7.2,7.19L20.24,81A2,2,0,0,0,18,80.52a2,2,0,0,0-1.39,1.74l-1.16,9.87a1.93,1.93,0,0,0,.58,1.74,2.2,2.2,0,0,0,1.51.58h.23l9.87-1.16a2.19,2.19,0,0,0,1.74-1.4,2.16,2.16,0,0,0-.47-2.2l-2.43-2.44,7.19-7.19a2.72,2.72,0,0,0,0-3.83A2.86,2.86,0,0,0,29.76,76.23Z"/></g></g></g></g></g></svg>