<?xml version="1.0" encoding="UTF-8"?>
<svg width="110px" height="110px" viewBox="0 0 110 110" version="1.1" xmlns="http://www.w3.org/2000/svg" xmlns:xlink="http://www.w3.org/1999/xlink">
    <title>NXReg_dashboard@svg</title>
    <g id="NXReg_dashboard" stroke="none" stroke-width="1" fill="none" fill-rule="evenodd">
        <g id="web-analysis" transform="translate(0.000000, 3.984127)" fill="#0A4CA4" fill-rule="nonzero">
            <path d="M107.380952,0 L2.61904762,0 C1.17258756,0 1.24063017e-14,1.17258756 1.24063017e-14,2.61904762 L1.24063017e-14,21.8253968 L110,21.8253968 L110,2.61904762 C110,1.17258756 108.827412,0 107.380952,0 Z M13.0952381,13.0952381 C11.648778,13.0952381 10.4761905,11.9226505 10.4761905,10.4761905 C10.4761905,9.02973042 11.648778,7.85714286 13.0952381,7.85714286 C14.5416982,7.85714286 15.7142857,9.02973042 15.7142857,10.4761905 C15.7142857,11.9226505 14.5416982,13.0952381 13.0952381,13.0952381 Z M23.5714286,13.0952381 C22.1249685,13.0952381 20.952381,11.9226505 20.952381,10.4761905 C20.952381,9.02973042 22.1249685,7.85714286 23.5714286,7.85714286 C25.0178886,7.85714286 26.1904762,9.02973042 26.1904762,10.4761905 C26.1904762,11.9226505 25.0178886,13.0952381 23.5714286,13.0952381 L23.5714286,13.0952381 Z M34.047619,13.0952381 C32.601159,13.0952381 31.4285714,11.9226505 31.4285714,10.4761905 C31.4285714,9.02973042 32.601159,7.85714286 34.047619,7.85714286 C35.4940791,7.85714286 36.6666667,9.02973042 36.6666667,10.4761905 C36.6666667,11.9226505 35.4940791,13.0952381 34.047619,13.0952381 Z" id="Shape"></path>
            <path d="M70.4763889,64.5922619 C69.738502,64.5249787 69.0636425,64.1482945 68.6190476,63.5555556 L65.1924603,58.9872817 L58.5976984,65.5820437 C57.5749107,66.6047635 55.9167162,66.6047635 54.8939286,65.5820437 L51.3318056,62.0199206 L45.1371032,67.0882143 C48.3611623,74.2019555 56.1118663,78.1019484 63.7457767,76.4517114 C71.3796872,74.8014744 76.8274836,68.0483364 76.8253974,60.2380952 C76.8253974,60.1289683 76.8192857,60.0228968 76.8171032,59.9150794 L72.490873,63.909127 C71.9459335,64.4110247 71.2142134,64.6591594 70.4763889,64.5922619 L70.4763889,64.5922619 Z" id="Path"></path>
            <path d="M43.7031746,61.4939286 L49.8492063,56.4651389 C50.8904706,55.6129821 52.4080397,55.6884643 53.3596032,56.6397421 L56.7460317,60.0261706 L63.6243056,53.1481151 C64.161159,52.6112667 64.9045547,52.3337993 65.6618673,52.3876089 C66.4191798,52.4414185 67.1158751,52.8212092 67.5714286,53.4285714 L71.0691667,58.0922222 L75.5765476,53.9305556 C72.5653788,46.6034761 64.7929918,42.4286954 57.0215201,43.9640974 C49.2500485,45.4994994 43.6492774,52.3164017 43.6507933,60.2380952 C43.6507933,60.6610714 43.672619,61.0788095 43.7031746,61.4939286 L43.7031746,61.4939286 Z" id="Path"></path>
            <path d="M0,100.396825 C0,101.843285 1.17258756,103.015873 2.61904762,103.015873 L107.380952,103.015873 C108.827412,103.015873 110,101.843285 110,100.396825 L110,24.4444444 L0,24.4444444 L0,100.396825 Z M79.6155556,50.2032143 L90.4970437,40.1587302 L86.4285714,40.1587302 C84.9821114,40.1587302 83.8095238,38.9861426 83.8095238,37.5396825 C83.8095238,36.0932225 84.9821114,34.9206349 86.4285714,34.9206349 L95.1587302,34.9206349 C96.4390309,34.9206349 97.5316996,35.8461904 97.7422024,37.1090675 L99.4882341,47.5852579 C99.6420781,48.5082437 99.2918287,49.4431924 98.5694216,50.0379181 C97.8470145,50.6326437 96.8622005,50.7967932 95.9859494,50.4685331 C95.1096983,50.140273 94.4751336,49.3694738 94.3212897,48.4464881 L93.6447024,44.3825992 L81.5534325,55.5430159 C82.9557934,61.9117191 81.4338484,68.5737818 77.4050794,73.701746 L93.5185516,89.8152183 C94.1891771,90.4750089 94.4544083,91.4437954 94.2133848,92.3531744 C93.9723614,93.2625533 93.2621168,93.9727979 92.3527378,94.2138213 C91.4433589,94.4548448 90.4745724,94.1896136 89.8147817,93.5189881 L73.7013095,77.4055159 C68.6244219,81.3939631 62.0410732,82.9275363 55.7242624,81.5932201 C49.4074515,80.258904 44.0067047,76.1938995 40.9765278,70.4929762 L33.9600992,76.2330556 C33.2359488,76.8256628 32.250654,76.9869248 31.3753659,76.6560957 C30.5000778,76.3252667 29.8677735,75.5526074 29.7166358,74.6291711 C29.5654981,73.7057348 29.9184885,72.7718136 30.6426389,72.1792063 L39.0135516,65.3303968 C36.4385326,54.6016686 42.2761436,43.6386878 52.6152526,39.7865251 C62.9543616,35.9343623 74.5422297,40.4049286 79.615119,50.202996 L79.6155556,50.2032143 Z M13.0952381,33.1746032 L42.7777778,33.1746032 C44.2242378,33.1746032 45.3968253,34.3471908 45.3968253,35.7936508 C45.3968253,37.2401108 44.2242378,38.4126984 42.7777778,38.4126984 L13.0952381,38.4126984 C11.648778,38.4126984 10.4761905,37.2401109 10.4761905,35.7936508 C10.4761905,34.3471907 11.648778,33.1746032 13.0952381,33.1746032 L13.0952381,33.1746032 Z M13.0952381,45.3968254 L34.047619,45.3968254 C35.4940791,45.3968254 36.6666667,46.569413 36.6666667,48.015873 C36.6666667,49.4623331 35.4940791,50.6349206 34.047619,50.6349206 L13.0952381,50.6349206 C11.648778,50.6349206 10.4761905,49.4623331 10.4761905,48.015873 C10.4761905,46.569413 11.648778,45.3968254 13.0952381,45.3968254 Z M13.0952381,57.6190476 L27.0634921,57.6190476 C28.5099521,57.6190476 29.6825397,58.7916352 29.6825397,60.2380952 C29.6825397,61.6845553 28.5099521,62.8571429 27.0634921,62.8571429 L13.0952381,62.8571429 C11.648778,62.8571429 10.4761905,61.6845553 10.4761905,60.2380952 C10.4761905,58.7916352 11.648778,57.6190476 13.0952381,57.6190476 Z M13.0952381,69.8412698 L21.8253968,69.8412698 C23.2718569,69.8412698 24.4444444,71.0138574 24.4444444,72.4603175 C24.4444444,73.9067775 23.2718569,75.0793651 21.8253968,75.0793651 L13.0952381,75.0793651 C11.648778,75.0793651 10.4761905,73.9067775 10.4761905,72.4603175 C10.4761905,71.0138574 11.648778,69.8412698 13.0952381,69.8412698 Z M13.0952381,82.0634921 L42.9960317,82.0634921 C44.4424918,82.0634921 45.6150794,83.2360796 45.6150794,84.6825397 C45.6150794,86.1289997 44.4424918,87.3015873 42.9960317,87.3015873 L13.0952381,87.3015873 C11.648778,87.3015873 10.4761905,86.1289997 10.4761905,84.6825397 C10.4761905,83.2360796 11.648778,82.0634921 13.0952381,82.0634921 L13.0952381,82.0634921 Z" id="Shape"></path>
        </g>
    </g>
</svg>