<svg xmlns="http://www.w3.org/2000/svg" viewBox="0 0 34.71 34.29"><defs><style>.cls-1{fill:#12bdcf;}</style></defs><g id="Layer_6" data-name="Layer 6"><g id="NewGroupe7"><g id="NewGroup0-4"><path class="cls-1" d="M17.36,12.71a4.43,4.43,0,1,0,4.43,4.43A4.43,4.43,0,0,0,17.36,12.71Zm0,7.93a3.5,3.5,0,1,1,3.49-3.5A3.5,3.5,0,0,1,17.36,20.64Z"/><path class="cls-1" d="M24.72,19.31a.46.46,0,0,0,.46-.47v-3.4a.46.46,0,0,0-.46-.46l-1,0h-.07l0-.06a5.11,5.11,0,0,0-.27-.64l0-.06.05,0,.68-.68a.47.47,0,0,0,0-.66l-2.4-2.4a.45.45,0,0,0-.33-.14.47.47,0,0,0-.33.14l-.69.67-.05.05-.06,0a5.73,5.73,0,0,0-.64-.26l-.07,0v-1a.46.46,0,0,0-.46-.46h-3.4a.46.46,0,0,0-.47.46v1l-.07,0a4.42,4.42,0,0,0-.63.27l-.07,0-.05-.05-.68-.68a.45.45,0,0,0-.33-.14.47.47,0,0,0-.33.14l-2.4,2.4a.47.47,0,0,0,0,.66l.67.69.05.05,0,.06c-.1.22-.18.42-.26.64L11,15H10a.46.46,0,0,0-.44.46v3.4a.47.47,0,0,0,.47.47h1l0,.07a6,6,0,0,0,.27.63l0,.07,0,.05-.68.68a.47.47,0,0,0,0,.66l2.4,2.4a.46.46,0,0,0,.33.13.44.44,0,0,0,.33-.13l.7-.67,0-.05.06,0c.21.1.42.18.64.26l.06,0v1a.47.47,0,0,0,.47.47h3.4a.47.47,0,0,0,.46-.47l0-1v-.07l.06,0c.22-.08.43-.17.64-.27l.06,0,.05.05.68.68a.46.46,0,0,0,.33.13.44.44,0,0,0,.33-.13l2.4-2.4a.47.47,0,0,0,0-.66l-.67-.7-.05-.05,0-.06a5,5,0,0,0,.26-.64l0-.06h1Zm-1.94-.23a4.93,4.93,0,0,1-.22.53,1.06,1.06,0,0,0,.19,1.19l.28.28.07.07-.07.07-1.6,1.6-.07.07-.07-.07L21,22.54a1,1,0,0,0-.72-.3,1,1,0,0,0-.46.11l-.54.22a1,1,0,0,0-.7,1V24H16.12v-.5a1,1,0,0,0-.7-1l-.53-.22a1.07,1.07,0,0,0-.46-.11,1,1,0,0,0-.73.3l-.28.28-.07.07-.07-.07-1.6-1.6-.07-.07.07-.07L12,20.8a1,1,0,0,0,.19-1.19c-.08-.17-.15-.35-.22-.53a1,1,0,0,0-1-.7h-.5V15.91H11a1,1,0,0,0,1-.7c.07-.19.14-.37.22-.54A1,1,0,0,0,12,13.49l-.28-.28-.07-.07.07-.07,1.6-1.6.07-.07.07.07.28.27a1,1,0,0,0,.73.3,1.06,1.06,0,0,0,.46-.1,4.93,4.93,0,0,1,.53-.22,1,1,0,0,0,.7-1v-.49h2.47v.49a1,1,0,0,0,.7,1,5.09,5.09,0,0,1,.54.22A1.06,1.06,0,0,0,21,11.75l.28-.28.07-.07.07.07,1.6,1.6.07.07-.07.07-.27.28a1,1,0,0,0-.2,1.18c.08.18.16.36.22.54a1,1,0,0,0,1,.7h.49v2.47h-.49A1,1,0,0,0,22.78,19.08Z"/><path class="cls-1" d="M6,30H6l.12-.15A1.79,1.79,0,0,0,6,30Z"/><path class="cls-1" d="M5.08,29h0l.15.12Z"/><polygon class="cls-1" points="8.05 29.47 8.05 29.47 8.05 29.47 8.05 29.47"/><path class="cls-1" d="M7,29H7c-.06,0-.1-.08-.16-.11Z"/><path class="cls-1" d="M8.1,29.38h0v0l.2.2h0A.58.58,0,0,0,8.76,29a.57.57,0,0,0-.41-.55,2.09,2.09,0,0,1-1.76-1.77A.59.59,0,0,0,6,26.3a.58.58,0,0,0-.55.41,2.11,2.11,0,0,1-1.77,1.77A.58.58,0,0,0,3.3,29a.59.59,0,0,0,.41.56,2.1,2.1,0,0,1,1.77,1.76.57.57,0,0,0,.55.41.58.58,0,0,0,.56-.4,2,2,0,0,1,1.59-1.72L8,29.56H8l-.37-.19H8.1Zm-1-.26a2.31,2.31,0,0,0-.93.93L6,30.2,6,30.05A2.44,2.44,0,0,0,5,29.12L4.87,29,5,29A2.51,2.51,0,0,0,6,28L6,27.87l.09.15a2.38,2.38,0,0,0,.93.93L7.2,29Z"/><path class="cls-1" d="M26.64,5.24h0c.16.07.29.16.44.24C26.91,5.4,26.79,5.32,26.64,5.24Z"/><path class="cls-1" d="M30.73,5.27l0,0A3.61,3.61,0,0,1,30.32,5C30.45,5.1,30.58,5.19,30.73,5.27Z"/><path class="cls-1" d="M28.67,7.3v0c.07-.16.16-.3.23-.44C28.83,7,28.75,7.15,28.67,7.3Z"/><path class="cls-1" d="M29.29,1.84a.63.63,0,0,0-.61-.45.64.64,0,0,0-.61.45,3.37,3.37,0,0,1-2.81,2.81.62.62,0,0,0-.44.6.63.63,0,0,0,.45.61,3.35,3.35,0,0,1,2.8,2.81.64.64,0,0,0,.61.45.63.63,0,0,0,.61-.45A3.35,3.35,0,0,1,32.1,5.86a.62.62,0,0,0,.44-.61.61.61,0,0,0-.44-.6l-.07,0h0A3.33,3.33,0,0,1,29.29,1.84Zm1.51,3.5a3.62,3.62,0,0,0-2,2l-.09.2-.09-.2a3.63,3.63,0,0,0-2-2l-.21-.09.21-.09a3.64,3.64,0,0,0,2-2l.09-.21.09.21a3.63,3.63,0,0,0,2,2l.2.09Z"/><path class="cls-1" d="M34.24,17.14A16.88,16.88,0,0,0,31.5,7.91l-.78.51A16,16,0,0,1,8.64,30.51l-.52.77A16.88,16.88,0,0,0,34.24,17.14Z"/><path class="cls-1" d="M31.6,7.89l-.05-.08h0Z"/><polygon class="cls-1" points="30.63 8.37 30.62 8.37 30.62 8.37 30.63 8.37"/><polygon class="cls-1" points="8.02 31.26 8.01 31.27 8.01 31.27 8.02 31.26"/><path class="cls-1" d="M17.36,1.19a15.91,15.91,0,0,1,8,2.15l.47-.8A16.88,16.88,0,0,0,3.62,27l.75-.55a16,16,0,0,1,13-25.22Z"/><polygon class="cls-1" points="4.47 26.47 4.47 26.46 4.47 26.46 4.47 26.47"/><path class="cls-1" d="M17.36,6.28A10.85,10.85,0,0,1,28.19,16.57v.11H27a.47.47,0,0,0-.41.25.46.46,0,0,0,0,.49l1.7,2.27a.49.49,0,0,0,.37.18.46.46,0,0,0,.37-.18l1.7-2.27a.46.46,0,0,0,.05-.49.48.48,0,0,0-.42-.25H29.12v-.1A11.79,11.79,0,0,0,6,14.1l.91.23A10.85,10.85,0,0,1,17.36,6.28ZM29.25,17.61h.2l-.12.16-.57.75-.08.11-.08-.11L28,17.77l-.12-.16h1.33Z"/><polygon class="cls-1" points="28.68 18.46 28.68 18.46 28.78 18.34 28.68 18.46"/><polygon class="cls-1" points="29.23 17.74 29.25 17.71 28.84 17.71 29.23 17.74"/><path class="cls-1" d="M28.09,16.58c0-.18,0-.34-.06-.52,0,.17,0,.34,0,.52Z"/><path class="cls-1" d="M5.91,14l-.06.17h0A1.09,1.09,0,0,1,5.91,14Z"/><polygon class="cls-1" points="5.49 17.68 5.47 17.71 5.87 17.71 5.49 17.68"/><path class="cls-1" d="M6.93,19.78,7,20Z"/><polygon class="cls-1" points="27.49 20.93 27.49 20.93 27.49 20.93 27.49 20.93"/><path class="cls-1" d="M6.92,19.73c-.06-.29-.12-.59-.17-.89h0C6.79,19.14,6.85,19.44,6.92,19.73Z"/><polygon class="cls-1" points="6.57 17.71 6.6 17.71 6.4 17.44 6.57 17.71"/><path class="cls-1" d="M28.41,21.53l.07-.18h0Z"/><path class="cls-1" d="M17.36,28A10.8,10.8,0,0,1,6.64,18.86v-.12h1.1a.47.47,0,0,0,.42-.26A.44.44,0,0,0,8.1,18L6.41,15.73A.49.49,0,0,0,6,15.56a.45.45,0,0,0-.37.17L4,18a.44.44,0,0,0,0,.48.46.46,0,0,0,.41.26H5.69v.09a11.68,11.68,0,0,0,11.66,10.1,11.84,11.84,0,0,0,11-7.57L27.5,21A10.92,10.92,0,0,1,17.36,28ZM5.47,17.81h-.2l.12-.16L6,16.89l.08-.1.08.1.57.76.12.16H5.47Z"/></g></g></g></svg>