<svg id="Layer_1" data-name="Layer 1" xmlns="http://www.w3.org/2000/svg" viewBox="0 0 110 110"><defs><style>.cls-1{fill:#0a4ca4;}</style></defs><path class="cls-1" d="M103,30,97.31,30,91.14,41.29l-.82-5.73,1-1.91c1-2.08-.39-3.69-1.36-3.69H86.53c-1,0-2.41,1.61-1.37,3.69l1,1.91-.82,5.73L79.12,30,73,30c-3.49,0-6.17,2.08-6.48,5.56V55.15C72,60.64,80.32,63,88.68,63c8.54,0,15.7-2.16,21.19-7.87l0-19.57C109.49,32.18,106.38,30,103,30Z"/><path class="cls-1" d="M80.52,16c0-8.39,2.29-9.85,7.7-9.85S96,7.61,96,16c0,5.77-2.91,11.2-7.81,11.2S80.52,23.1,80.52,16Z"/><polygon class="cls-1" points="26.34 53 36.68 45.5 47.02 53 43.07 40.85 53.42 33.34 40.63 33.34 36.68 21.18 32.73 33.34 19.95 33.34 30.29 40.85 26.34 53"/><polyline class="cls-1" points="18.55 68.56 18.55 103.59 0.09 103.59 0.09 68.56"/><path class="cls-1" d="M35.52,63.3a3.79,3.79,0,0,1,3.57-.09L66.18,76.7a3,3,0,0,1,1.39,3.87l-.5,1.29h0a2.6,2.6,0,0,1-3.47,1.79L43.85,75.81A1.75,1.75,0,0,0,41.57,77a2.22,2.22,0,0,0,1.09,2.58l19.85,7.84a5.13,5.13,0,0,0,2.08.4,6.33,6.33,0,0,0,5.56-3.58l34.63-9.52a3.74,3.74,0,0,1,3.08.49A4.2,4.2,0,0,1,109.64,78a4.52,4.52,0,0,1-2.48,5.06L58.44,103.59a3.37,3.37,0,0,1-2.78,0L23.71,91.09V70.15Z"/></svg>