<svg id="Layer_1" data-name="Layer 1" xmlns="http://www.w3.org/2000/svg" viewBox="0 0 110 110"><defs><style>.cls-1{fill:#0a4ca4;}</style></defs><path class="cls-1" d="M11.47,53.6V80.39H31.55V53.6ZM24.88,73.72H18.15V60.32h6.73ZM45,26.8V70.5a17.35,17.35,0,0,1,6.66-3.07V33.52h6.72V67.24a17.3,17.3,0,0,1,6.68,2.61v-43ZM78.46,0V80.39H98.53V0ZM91.85,73.67H85.13V6.74h6.72Z"/><rect class="cls-1" x="18.15" y="60.32" width="6.73" height="13.4"/><path class="cls-1" d="M58.38,33.52V67.24A17.13,17.13,0,0,0,55.5,67a17.38,17.38,0,0,0-3.84.43V33.52Z"/><rect class="cls-1" x="85.13" y="6.74" width="6.72" height="66.93"/><path class="cls-1" d="M68.58,84.38a13.54,13.54,0,1,0-5.35,10.84l2.1,2.1L65,97.7a.72.72,0,0,0,0,1h0L76,109.79a.72.72,0,0,0,1,0h0l3.32-3.32a.72.72,0,0,0,0-1h0L69.33,94.39a.72.72,0,0,0-1,0h0l-.38.38-2.1-2.1A13.55,13.55,0,0,0,68.58,84.38Zm-20.7,7.09a10,10,0,1,1,14.19,0A10,10,0,0,1,47.88,91.47Z"/></svg>