<svg id="Layer_1" data-name="Layer 1" xmlns="http://www.w3.org/2000/svg" viewBox="0 0 110 110"><defs><style>.cls-1,.cls-2{fill:#0a4ca4;}.cls-2{fill-rule:evenodd;}</style></defs><path class="cls-1" d="M52.84,35.23v18.1H26.36A97,97,0,0,1,28.51,34a1.81,1.81,0,0,0,.31.09l.57.18a6,6,0,0,0,.65.2l.81.23.58.15c.24.06.46.13.7.18l.89.19.53.11.68.15.87.15.65.1.62.1,1,.13L38,36l.56.07,1.26.09.48,0,.43,0c1.46.07,2.93.06,4.38,0,.16,0,.3,0,.45,0l.42,0c.45,0,.88-.06,1.32-.09L47.8,36l.63-.06,1-.13a5.58,5.58,0,0,0,.59-.09l.65-.11.9-.15.63-.13.58-.12Z"/><path class="cls-1" d="M16,23.45l.26.21.57.46.6.44.48.35.55.4.74.49.34.23.6.39.7.42.41.24c.2.12.4.25.61.36s.46.26.7.38l.44.24.62.32.69.34.47.22.64.3.65.28.18.07c2.06-7.37,4.93-13.12,8.31-16.7a42.41,42.41,0,0,0-19.68,9.63l.37.32Z"/><path class="cls-1" d="M52.84,21V31.81L52,32l-.48.1-.62.14-.8.13-.63.1a5.25,5.25,0,0,1-.55.09c-.32.05-.64.08-1,.12l-.57.06-.46.06c-.38,0-.77.06-1.16.09l-.47,0-.39,0a39.27,39.27,0,0,1-4.06,0l-.39,0-.49,0-1.14-.09-.5-.06-.63-.07c-.29,0-.58-.06-.87-.11a4.68,4.68,0,0,1-.54-.09l-.67-.11c-.26,0-.51-.08-.77-.12l-.6-.14L33.65,32l-.73-.17c-.21,0-.44-.11-.65-.16l-.58-.16c-.23,0-.47-.11-.7-.18s-.45-.13-.66-.21l-.57-.18-.46-.14c3.14-11.55,8.3-18.69,13.6-18.69C46.48,12.07,50,15.3,52.84,21Z"/><path class="cls-1" d="M28.81,75.88l.54-.16.7-.22.84-.22.54-.15.71-.18.93-.2.46-.1.7-.15c.3-.06.59-.11.89-.15l.61-.1.65-.11.95-.11L38,74l.54-.06,1.29-.1.45,0,.44,0c.72,0,1.46,0,2.19,0s1.46,0,2.19,0l.44,0,.5,0q.61,0,1.23.09l.54.06.68.08,1,.11.62.1.7.12c.27,0,.54.08.81.14s.47.09.71.15l.55.11.85.19.65.17.59.15.85.23.63.19.66.21.24.08a97,97,0,0,0,2.15-19.31H26.36A97.88,97.88,0,0,0,28.51,76Z"/><path class="cls-1" d="M54.75,13.74H52.84v1a20,20,0,0,0-1.58-1.89C52.44,13.13,53.6,13.41,54.75,13.74Z"/><path class="cls-1" d="M56.1,79.11l-.61-.19c-.23-.07-.45-.15-.68-.21l-.71-.19-.54-.14c-.23-.06-.45-.13-.68-.18l-.8-.17-.53-.12-.62-.13-.77-.13-.66-.1a5.25,5.25,0,0,0-.55-.09c-.3,0-.6-.08-.9-.11l-.63-.08-.47,0c-.43,0-.86-.07-1.3-.09l-.3,0-.42,0c-1.34-.06-2.71-.06-4.06,0l-.42,0-.28,0c-.45,0-.88.05-1.32.09l-.45,0-.64.08c-.3,0-.61.06-.91.11l-.54.08-.67.12c-.26,0-.51.08-.76.12l-.7.15-.54.12-.72.15-.65.17-.45.12-.83.22-.61.19-.61.19-.46.14c3.12,11.57,8.29,18.7,13.59,18.7S53.37,90.8,56.49,79.24Z"/><path class="cls-1" d="M69.89,86.61l-.37-.31L69,85.89l-.85-.63-.2-.14-.58-.42-.78-.52L66.28,84l-.58-.38-.7-.42-.4-.24c-.2-.12-.41-.25-.62-.36l-.64-.35L62.89,82l-.68-.36-.65-.31-.5-.25-.64-.3-.68-.28-.16-.07c-2.06,7.37-4.93,13.12-8.31,16.7A42.59,42.59,0,0,0,71,87.49l-.37-.33Z"/><path class="cls-1" d="M62.78,56.67a98.68,98.68,0,0,1-2.37,20.46l.05,0,.55.23.8.34.66.31.56.27.72.35c.24.12.49.25.73.39l.43.22.74.41.63.37.42.25c.27.16.54.32.8.49s.43.27.64.41l.5.33.67.45.62.45.31.23.82.6.75.6L72,84l.77.62.64.57A42.53,42.53,0,0,0,85.8,56.67Z"/><path class="cls-1" d="M15.82,82.46l.67-.49c.29-.2.57-.39.86-.57l.27-.18.68-.45.74-.45.4-.23.71-.43L21,79.2l.28-.15.76-.4.89-.43.33-.16.72-.34.76-.33.54-.22.1,0A98.68,98.68,0,0,1,23,56.67H0A42.56,42.56,0,0,0,12.39,85.19l.65-.56.71-.58.39-.31.6-.49c.23-.18.47-.35.71-.52Z"/><path class="cls-1" d="M26.06,80.48l-.67.28-.66.32-.41.19-.73.35L23,82l-.26.14c-.3.16-.6.31-.89.48l-.7.41-.26.16-.75.45-.6.39-.33.22-.75.5-.62.44-.28.21c-.24.18-.49.35-.72.54s-.44.34-.65.51l-.28.23-.65.53-.38.33a42.53,42.53,0,0,0,19.69,9.62c-3.38-3.58-6.26-9.32-8.31-16.7Z"/><path class="cls-1" d="M25.39,32.87l-.05,0-.53-.22L24,32.28l-.7-.33-.41-.2-.83-.4c-.23-.11-.46-.24-.7-.37l-.4-.21-.8-.43-.74-.44-.36-.22-.75-.45c-.23-.14-.45-.3-.68-.45l-.41-.26L16.49,28l-.63-.45-.38-.28c-.25-.18-.5-.36-.74-.55l-.62-.5L13.77,26,13,25.38c-.21-.19-.42-.38-.64-.56h0A42.53,42.53,0,0,0,0,53.33H23A98.68,98.68,0,0,1,25.39,32.87Z"/><path class="cls-2" d="M82.81,49c0-4,0-9.63,0-15.28,0-.82,0-1.65,0-2.46,0-5.47,0-10.71,0-14.18a24.88,24.88,0,0,0-11-2.74A23.85,23.85,0,0,0,61,17.09V47.3a24.53,24.53,0,0,1,11-3A14.24,14.24,0,0,1,82.81,49Z"/><path class="cls-2" d="M84.11,49.2a14.24,14.24,0,0,1,10.83-4.69,24.4,24.4,0,0,1,11,3V17.27a23.85,23.85,0,0,0-10.8-2.73c-.36,0-.73,0-1.09,0v8.88l-3.38-3-3.37,3V15.94a28.7,28.7,0,0,0-3.2,1.34c0,4,0,10.31,0,16.64C84.1,39.57,84.11,45.21,84.11,49.2Z"/><path class="cls-2" d="M107.17,19.17V48.54a.65.65,0,0,1-.32.55.62.62,0,0,1-.62,0,23.86,23.86,0,0,0-11.29-3.31,13,13,0,0,0-9.12,3.5c7.33-2.5,16.29-1,21.45,2.36,0,0,0,0,0,0H110V19.17Z"/><path class="cls-2" d="M81.12,49.12A13,13,0,0,0,72,45.6a23.86,23.86,0,0,0-11.29,3.31.62.62,0,0,1-.62,0,.65.65,0,0,1-.32-.55V19.17H56.82V51.69h3.27C65.37,48.3,73.83,46.31,81.12,49.12Z"/><path class="cls-2" d="M83.85,51.46a.65.65,0,0,1-.37.14.69.69,0,0,1-.2,0,.63.63,0,0,1-.24-.16l-.08,0c-6.54-3.72-14.66-2.55-20.3.3H78.29a2.72,2.72,0,0,1,2.27,1.16,2.47,2.47,0,0,0,2,1h1.68a2.47,2.47,0,0,0,2-1,2.72,2.72,0,0,1,2.27-1.16h16.19C99.1,49,90.27,48.19,83.85,51.46Z"/></svg>