<svg id="Layer_1" data-name="Layer 1" xmlns="http://www.w3.org/2000/svg" viewBox="0 0 110 110"><defs><style>.cls-1{fill:#0a4ca4;}</style></defs><path class="cls-1" d="M58.28,23.38l-.31.09-.56.18-.68.21-.87.23-.57.15-.68.18-.93.2-.59.13-.63.13c-.3.06-.61.11-.92.15l-.66.11-.6.1c-.33.05-.67.08-1,.12l-.63.07-.55.07c-.45,0-.89.07-1.34.09l-.44,0c-.14,0-.29,0-.44,0-1.47.07-3,.07-4.46,0l-.45,0-.49,0c-.42,0-.85-.05-1.27-.09l-.57-.07-.58-.06-1-.13-.63-.1L35.72,25l-.89-.15c-.23,0-.46-.1-.69-.15l-.55-.11-.91-.2-.7-.18-.59-.16-.83-.22-.65-.2-.58-.19-.33-.1A98.91,98.91,0,0,0,26.82,43H60.47A98.06,98.06,0,0,0,58.28,23.38Z"/><path class="cls-1" d="M16.24,12.62l.27.21.59.47.6.45.49.35.56.41c.25.17.5.34.76.5l.34.23.61.4c.23.15.47.29.71.43l.42.25.62.36.71.39.45.24.63.33.71.34.47.22.65.31.66.28.19.08c2.09-7.51,5-13.35,8.45-17a43.25,43.25,0,0,0-20,9.79l.39.33Z"/><path class="cls-1" d="M30.27,20.2l.58.19.68.2.71.2.59.15.66.17.74.17.63.13.62.13.78.13.68.11.55.09.88.11.65.07c.16,0,.33.05.5.06.38,0,.78.06,1.16.08l.5,0,.39,0a40.83,40.83,0,0,0,4.14,0l.39,0,.48,0c.39,0,.79-.05,1.18-.09l.48-.05.57-.07c.33,0,.66-.07,1-.12l.56-.09.64-.11.81-.13.64-.14.49-.1.86-.19c.2,0,.39-.1.59-.15l.57-.15.81-.21.61-.19.61-.2.49-.15C54.29,8.3,49,1,43.65,1S33,8.3,29.82,20.06Z"/><path class="cls-1" d="M29.31,66l.55-.17c.24-.08.47-.16.71-.22l.86-.23L32,65.2c.24-.06.48-.13.72-.18s.63-.14,1-.21l.47-.1c.24,0,.48-.11.72-.15l.9-.16.62-.1.66-.11,1-.12.67-.07.55-.07,1.31-.09.46,0,.44,0c.74,0,1.49-.06,2.23-.06s1.49,0,2.23.06l.45,0,.51,0,1.26.09.54.06.69.08,1,.12.63.1.71.12.82.14.73.15.55.12c.3.07.59.12.88.2l.65.16.6.16.87.23.63.2L58,66l.25.08a98.81,98.81,0,0,0,2.18-19.64H26.82A99.54,99.54,0,0,0,29,66.06Z"/><path class="cls-1" d="M60.72,18.82l.75-.32.63-.29.45-.22q.38-.16.75-.36c.21-.1.4-.21.61-.32l.53-.28.65-.35.58-.35.41-.24.76-.46.61-.4.21-.14.88-.59.6-.43.32-.23c.25-.18.5-.36.74-.55l.55-.44.31-.25c.25-.2.5-.4.74-.61l.38-.32a43.06,43.06,0,0,0-20-9.79c3.44,3.64,6.37,9.48,8.46,17Z"/><path class="cls-1" d="M71.18,16.8l-.67.48c-.25.18-.51.35-.76.51l-.34.23-.73.48-.71.43-.5.29-.68.41L66,20l-.51.27c-.22.12-.44.24-.67.35s-.54.27-.81.39l-.44.21-.72.34c-.25.12-.51.23-.77.33l-.53.23-.12.05A100.62,100.62,0,0,1,63.87,43H87.29A43.31,43.31,0,0,0,74.68,14l-.66.58-.73.6-.39.31-.61.49c-.24.19-.49.37-.74.55Z"/><path class="cls-1" d="M57.07,69.25l-.62-.2-.69-.21-.72-.2-.55-.14-.69-.18L53,68.15,52.45,68l-.64-.13L51,67.76l-.67-.11-.56-.09-.92-.11-.64-.07-.47-.06c-.44,0-.88-.06-1.33-.09l-.3,0-.43,0c-1.36-.06-2.76-.06-4.13,0l-.43,0-.28,0-1.35.09-.46.06-.65.07-.92.11-.55.09-.69.12-.77.13-.71.15-.55.11-.73.16-.66.18-.45.11-.85.23-.62.19-.62.2-.47.14c3.17,11.77,8.43,19,13.83,19s10.64-7.25,13.82-19Z"/><path class="cls-1" d="M65.27,82.68a43.15,43.15,0,0,1-13.12,4.88C55.5,84,58.36,78.4,60.44,71.18a5.68,5.68,0,0,0,.91,1.48l1.93,2.17a6,6,0,0,1,1.44,3.49L65,81.21A6.51,6.51,0,0,0,65.27,82.68Z"/><path class="cls-1" d="M70.51,50.61A6.07,6.07,0,0,0,65,56.15l-.24,2.9a6,6,0,0,1-1.44,3.49l-1.11,1.25a102.9,102.9,0,0,0,1.7-17.37h16a6.43,6.43,0,0,0-.82.58L76.9,48.93a6.16,6.16,0,0,1-3.5,1.44Z"/><path class="cls-1" d="M87.29,46.42c0,.26,0,.52,0,.79L87,47a6.43,6.43,0,0,0-.82-.58Z"/><path class="cls-1" d="M16.09,72.66c.23-.17.45-.34.69-.5l.87-.59.27-.18.7-.45.76-.46.4-.24.72-.43.87-.47.29-.16.77-.4c.31-.16.61-.3.91-.44l.34-.16.73-.35.77-.33.55-.23.1,0a99.94,99.94,0,0,1-2.41-20.81H0a43.33,43.33,0,0,0,12.61,29l.66-.58.71-.59.4-.32.62-.49.71-.53Z"/><path class="cls-1" d="M26.51,70.64l-.67.29c-.24.1-.46.21-.68.32l-.42.19L24,71.8l-.63.33-.26.15-.91.48-.71.43-.27.15-.76.46-.61.4-.34.23c-.26.16-.51.33-.76.5l-.63.46-.29.21-.73.54c-.23.17-.44.35-.66.52l-.29.24q-.33.25-.66.54c-.13.1-.26.22-.38.33a43.26,43.26,0,0,0,20,9.79c-3.44-3.64-6.36-9.49-8.46-17Z"/><path class="cls-1" d="M25.83,22.21l0,0L25.24,22c-.28-.12-.56-.23-.83-.36s-.48-.22-.71-.33l-.43-.2-.83-.41-.72-.38-.4-.21-.82-.44-.75-.45L19.38,19l-.76-.46-.7-.45-.41-.28-.73-.49-.64-.46-.39-.29c-.25-.18-.51-.36-.75-.55l-.63-.51L14,15.18l-.74-.6L12.62,14h0A43.31,43.31,0,0,0,0,43H23.42A100.62,100.62,0,0,1,25.83,22.21Z"/><path class="cls-1" d="M75.88,92c-.23-.23-.46-.23-.68-.34l-2.73-.23a10.21,10.21,0,0,1-7-3.63l-6,12.82a1.79,1.79,0,0,0,1.92,2.5L67.14,102a1.77,1.77,0,0,1,1.82.91l2.83,5.1a1.72,1.72,0,0,0,3.06-.11l5.9-12.48A11.06,11.06,0,0,1,78,93.67Z"/><path class="cls-1" d="M109.8,100.7l-6-12.82a10.11,10.11,0,0,1-7,3.63L94,91.74a1,1,0,0,0-.68.34l-2,1.7a13.8,13.8,0,0,1-2.72,1.71L94.48,108a1.72,1.72,0,0,0,3.06.12l2.84-5.11a1.74,1.74,0,0,1,1.82-.9L108,103.2A1.72,1.72,0,0,0,109.8,100.7Z"/><path class="cls-1" d="M93.69,87.2,96.41,87a5.71,5.71,0,0,0,5.22-5.22l.23-2.72a5.62,5.62,0,0,1,1.36-3.29l1.81-2a5.81,5.81,0,0,0,0-7.48l-1.81-2a5.62,5.62,0,0,1-1.36-3.29l-.23-2.72a5.72,5.72,0,0,0-5.22-5.22l-2.72-.22a5.7,5.7,0,0,1-3.29-1.37l-2-1.81a5.82,5.82,0,0,0-7.49,0l-2,1.81a5.75,5.75,0,0,1-3.29,1.37l-2.73.22a5.72,5.72,0,0,0-5.22,5.22l-.22,2.72A5.75,5.75,0,0,1,66,64.17l-1.82,2a5.83,5.83,0,0,0,0,7.48l1.82,2A5.75,5.75,0,0,1,67.37,79l.22,2.72A5.72,5.72,0,0,0,72.81,87l2.73.22a5.75,5.75,0,0,1,3.29,1.37l2,1.81a5.82,5.82,0,0,0,7.49,0l2-1.81A5.7,5.7,0,0,1,93.69,87.2ZM84.61,82a12,12,0,1,1,12-12A12,12,0,0,1,84.61,82Z"/><path class="cls-1" d="M91.42,66.78,88,66.1a1.29,1.29,0,0,1-.79-.56l-1.59-3a1.17,1.17,0,0,0-2,0l-1.7,3c-.11.34-.46.45-.8.56l-3.4.68a1.13,1.13,0,0,0-.57,1.93l2.27,2.5a1.25,1.25,0,0,1,.34.91l-.45,3.4a1.08,1.08,0,0,0,1.59,1.13l3.06-1.47a1.49,1.49,0,0,1,1,0L88,76.65a1.14,1.14,0,0,0,1.59-1.13l-.45-3.4a1.25,1.25,0,0,1,.34-.91l2.27-2.5A1,1,0,0,0,91.42,66.78Z"/></svg>