<svg id="Layer_1" data-name="Layer 1" xmlns="http://www.w3.org/2000/svg" viewBox="0 0 110 110"><defs><style>.cls-1{fill:#0a4ca4;}</style></defs><path class="cls-1" d="M80.64,59.33V50.67l-7.53-2.16A23.92,23.92,0,0,0,70.79,43l3.81-6.83L68.48,30l-6.83,3.81a23.92,23.92,0,0,0-5.56-2.32L53.93,24H45.27l-2.16,7.53a24.11,24.11,0,0,0-5.56,2.32L30.72,30,24.6,36.12,28.41,43a24.36,24.36,0,0,0-2.32,5.56l-7.53,2.16v8.66l7.53,2.16a24.36,24.36,0,0,0,2.32,5.56L24.6,73.88,30.72,80l6.83-3.81a24.11,24.11,0,0,0,5.56,2.32L45.27,86h8.66l2.16-7.53a23.92,23.92,0,0,0,5.56-2.32L68.48,80l6.12-6.12-3.81-6.83a23.92,23.92,0,0,0,2.32-5.56Zm-31,8.8A13.13,13.13,0,1,1,62.73,55,13.17,13.17,0,0,1,49.6,68.13Z"/><path class="cls-1" d="M97.33,35.82l12.42,18.89-7.69.41a46.77,46.77,0,0,1-.54,7.55,51,51,0,0,1-47,43.06l-5-7.29A43.33,43.33,0,0,0,93.69,63.35a35,35,0,0,0,.68-7.56l-7.29.41ZM81.81,24.21a43.36,43.36,0,0,1,7.7,10.26l4-8a48.27,48.27,0,0,0-6.35-7.69,51.27,51.27,0,0,0-61.41-8.1L21.62,4.37,11.49,24.61,34,23.26,30,17.06A43.37,43.37,0,0,1,81.81,24.21ZM25.4,99.12,22,106l22.54-1.35L32,85.75l-3.24,6.62a39.55,39.55,0,0,1-8.37-6.62A43.68,43.68,0,0,1,14.33,31.9l-8.91.54A51.28,51.28,0,0,0,15.14,91,42.46,42.46,0,0,0,25.4,99.12Z"/><path class="cls-1" d="M56.51,48.25l-1,1c-2.83,2.83-5.85,6.05-8.68,8.93L42.9,55l-1.12-.93-1.85,2.25,1.12.92L46,61.31l1,.85.93-.94c3.13-3.13,6.52-6.8,9.59-9.88l1-1-2.06-2Z"/></svg>