<svg id="Layer_1" data-name="Layer 1" xmlns="http://www.w3.org/2000/svg" viewBox="0 0 110 110"><defs><style>.cls-1{fill:#0a4ca4;}</style></defs><path class="cls-1" d="M58.15,31.32l1.13.51a133.9,133.9,0,0,1,15.65,7.86c7.29-4.75,12.84-10.88,13.42-19.9h7.08L80.77,0,66.11,19.79h6.73C71.75,24,66.18,27.5,58.15,31.32Z"/><path class="cls-1" d="M74.93,88.57a133.9,133.9,0,0,1-15.65,7.86l-1.13.5c9,4.28,14.91,8.12,14.91,13.07H88.44C88.44,100.11,82.63,93.58,74.93,88.57Z"/><path class="cls-1" d="M52,51.06l-1.12-.5A133.24,133.24,0,0,1,35.25,42.7c-7.7,5-13.51,11.54-13.51,21.43s5.81,16.41,13.51,21.43A133.24,133.24,0,0,1,50.91,77.7L52,77.2c-9-4.29-14.91-8.12-14.91-13.07S43.05,55.34,52,51.06Z"/><path class="cls-1" d="M72.5,41.19a146.23,146.23,0,0,0-14.27-7l-3.14-1.42c-9.65-4.41-16.52-8.21-17.75-13h6.55L29.23,0,14.57,19.79h7.26c.64,10,7.41,16.45,15.85,21.4a146.23,146.23,0,0,0,14.27,7l3.14,1.42c10.67,4.88,18,9,18,14.5s-7.3,9.61-18,14.49L52,80a146.23,146.23,0,0,0-14.27,7c-8.88,5.21-15.94,12-15.94,22.94H37.12c0-5.49,7.3-9.62,18-14.49l3.14-1.42a148.62,148.62,0,0,0,14.27-7c8.87-5.2,15.94-12,15.94-22.93S81.37,46.4,72.5,41.19Z"/></svg>