<?xml version="1.0" encoding="utf-8"?>
<!-- Generator: Adobe Illustrator 25.2.1, SVG Export Plug-In . SVG Version: 6.00 Build 0)  -->
<svg version="1.1" id="Layer_1" xmlns="http://www.w3.org/2000/svg" xmlns:xlink="http://www.w3.org/1999/xlink" x="0px" y="0px"
	 viewBox="0 0 135 200" style="enable-background:new 0 0 135 200;" xml:space="preserve">
<style type="text/css">
	.st0{fill:#0a4ca4;}
</style>
<g id="Page-1">
	<g id="Desktop-HD" transform="translate(-1033.000000, -2830.000000)">
		<g id="higher-marketing" transform="translate(1033.000000, 2830.000000)">
			<g id="noun_business-report_1726789" transform="translate(-0.000000, 0.000000)">
				<path id="Shape" class="st0" d="M131.7,45H3.3c-1.7,0-3.1,1.4-3.1,3.1v85.6c0,1.7,1.4,3.1,3.1,3.1h61.1v12.2H52.2
					c-1.7,0-3.1,1.4-3.1,3.1s1.4,3.1,3.1,3.1h30.6c1.7,0,3.1-1.4,3.1-3.1s-1.4-3.1-3.1-3.1H70.6v-12.2h61.1c1.7,0,3.1-1.4,3.1-3.1
					V48.1C134.7,46.4,133.4,45,131.7,45z M98.1,87.8c0,1.7-1.4,3.1-3.1,3.1s-3.1-1.4-3.1-3.1v-4.9l-19.2,19.2
					c-0.6,0.6-1.4,0.9-2.2,0.9s-1.6-0.3-2.2-0.9L58.3,92.1l-16.2,16.2c-0.6,0.6-1.4,0.9-2.2,0.9c-0.8,0-1.6-0.3-2.2-0.9
					c-0.6-0.6-0.9-1.4-0.9-2.2s0.3-1.6,0.9-2.2l18.3-18.3c0.6-0.6,1.4-0.9,2.2-0.9c0.8,0,1.6,0.3,2.2,0.9l10.1,10.1l17.1-17.1h-4.9
					c-1.7,0-3.1-1.4-3.1-3.1c0-1.7,1.4-3.1,3.1-3.1H95c1.7,0,3.1,1.4,3.1,3.1V87.8z"/>
			</g>
		</g>
	</g>
</g>
</svg>
