<svg width="110" height="110" viewBox="0 0 110 110" fill="none" xmlns="http://www.w3.org/2000/svg">
<g clip-path="url(#clip0)">
<rect width="110" height="110" fill="white"/>
<path d="M3 24.5084V10.305C3 10.305 5.73548 10.3049 9.09761 10.3049H100.902C104.265 10.3049 107 10.305 107 10.305V24.5084H3Z" fill="#0a4ca4"/>
<path d="M107 30.7644H3L3 99.6953C3 99.6953 5.73 99.6953 9.09761 99.6953H100.902C104.27 99.6953 107 99.6953 107 99.6953V30.7644ZM40.5091 74.6577C41.8343 75.6959 42.0664 77.6109 41.0274 78.9355C40.4262 79.7019 39.5306 80.1024 38.6261 80.1026C37.968 80.1026 37.3052 79.8906 36.7472 79.4535L24.1413 69.5773C23.4041 68.9998 22.9735 68.1156 22.9735 67.1794C22.9735 66.2432 23.4041 65.359 24.1413 64.7815L36.7472 54.9054C38.0722 53.8672 39.9889 54.0994 41.0274 55.4234C42.0664 56.748 41.8343 58.6628 40.5091 59.7012L30.9638 67.1794L40.5091 74.6577ZM62.2093 52.2437L53.7857 83.6907C53.4209 85.0522 52.189 85.9504 50.8424 85.9504C50.5814 85.9504 50.3163 85.9167 50.0521 85.846C48.4255 85.4107 47.46 83.7404 47.8955 82.1148L56.3189 50.6678C56.7542 49.0422 58.4251 48.0772 60.0523 48.5124C61.6792 48.9477 62.6446 50.618 62.2093 52.2437ZM85.8587 69.5771L73.2528 79.4533C72.6948 79.8904 72.0318 80.1024 71.3739 80.1024C70.4694 80.1024 69.5738 79.7017 68.9726 78.9353C67.9336 77.6107 68.1657 75.6959 69.4909 74.6575L79.0362 67.1792L69.4909 59.701C68.1276 58.6327 67.9212 56.6362 69.066 55.3098C70.1383 54.0675 72.0284 53.9458 73.3204 54.9582L85.8589 64.7815C86.5961 65.359 87.0267 66.2432 87.0267 67.1794C87.0267 68.1156 86.5961 68.9996 85.8587 69.5771Z" fill="#0a4ca4"/>
</g>
<defs>
<clipPath id="clip0">
<rect width="110" height="110" fill="white"/>
</clipPath>
</defs>
</svg>
