<svg width="110" height="110" viewBox="0 0 110 110" fill="none" xmlns="http://www.w3.org/2000/svg">
<g clip-path="url(#clip0)">
<rect width="110" height="110" fill="white"/>
<path d="M42.1094 84.0039C43.2465 84.0039 44.3552 83.8067 45.4806 83.716C45.4008 82.7451 45.332 81.7715 45.332 80.7812C45.332 61.2347 61.2347 45.332 80.7812 45.332C81.7715 45.332 82.7451 45.4008 83.716 45.4806C83.8067 44.3552 84.0039 43.2465 84.0039 42.1094C84.0039 19.0095 65.2093 0 42.1094 0C19.0095 0 0 19.0095 0 42.1094C0 65.2093 19.0095 84.0039 42.1094 84.0039V84.0039ZM38.8867 13.1055H45.332V38.8867H71.1133V45.332H38.8867V13.1055Z" fill="#0a4ca4"/>
<path d="M80.7812 51.7773C64.788 51.7773 51.7773 64.788 51.7773 80.7812C51.7773 96.7745 64.788 110 80.7812 110C96.7745 110 110 96.7745 110 80.7812C110 64.788 96.7745 51.7773 80.7812 51.7773ZM77.5586 95.0063L65.6121 83.0598L70.1691 78.5027L77.5586 85.8922L91.3934 72.0574L95.9504 76.6145L77.5586 95.0063Z" fill="#0a4ca4"/>
</g>
<defs>
<clipPath id="clip0">
<rect width="110" height="110" fill="white"/>
</clipPath>
</defs>
</svg>
