<svg width="110" height="110" viewBox="0 0 110 110" fill="none" xmlns="http://www.w3.org/2000/svg">
<g clip-path="url(#clip0)">
<rect width="110" height="110" fill="white"/>
<path d="M28.75 86.5C28.75 86.1539 28.8526 85.8155 29.0449 85.5278C29.2372 85.24 29.5105 85.0157 29.8303 84.8832C30.1501 84.7508 30.5019 84.7161 30.8414 84.7836C31.1809 84.8512 31.4927 85.0178 31.7374 85.2626C31.9822 85.5073 32.1489 85.8191 32.2164 86.1586C32.2839 86.4981 32.2492 86.8499 32.1168 87.1697C31.9843 87.4895 31.76 87.7628 31.4722 87.9551C31.1845 88.1474 30.8461 88.25 30.5 88.25C30.036 88.2495 29.5912 88.0649 29.2631 87.7369C28.9351 87.4088 28.7505 86.964 28.75 86.5ZM30.5 49.75C29.1015 49.7506 27.7236 50.0866 26.4819 50.7299C25.2402 51.3731 24.1709 52.3049 23.3637 53.4469L29.585 69H39.25V58.5C39.2474 56.1802 38.3247 53.9561 36.6843 52.3157C35.0439 50.6753 32.8198 49.7526 30.5 49.75V49.75ZM18.25 58.5C18.25 55.2511 19.5406 52.1353 21.8379 49.8379C24.1353 47.5406 27.2511 46.25 30.5 46.25C33.7489 46.25 36.8647 47.5406 39.1621 49.8379C41.4594 52.1353 42.75 55.2511 42.75 58.5V69H48V58.5C48 53.8587 46.1563 49.4075 42.8744 46.1256C39.5925 42.8438 35.1413 41 30.5 41C25.8587 41 21.4075 42.8438 18.1256 46.1256C14.8437 49.4075 13 53.8587 13 58.5V62H18.25V58.5ZM6 102.25V74.25C6.00052 73.786 6.18506 73.3412 6.51314 73.0131C6.84121 72.6851 7.28603 72.5005 7.75 72.5H53.25C53.714 72.5005 54.1588 72.6851 54.4869 73.0131C54.8149 73.3412 54.9995 73.786 55 74.25V102.25C54.9995 102.714 54.8149 103.159 54.4869 103.487C54.1588 103.815 53.714 103.999 53.25 104H7.75C7.28603 103.999 6.84121 103.815 6.51314 103.487C6.18506 103.159 6.00052 102.714 6 102.25V102.25ZM25.25 86.5C25.2514 87.5853 25.5885 88.6435 26.2152 89.5295C26.8418 90.4156 27.7272 91.0861 28.75 91.449V95.25H32.25V91.449C33.1575 91.1282 33.9593 90.564 34.5678 89.8182C35.1763 89.0725 35.568 88.1738 35.7002 87.2204C35.8324 86.2669 35.7 85.2955 35.3174 84.4123C34.9348 83.5291 34.3167 82.7681 33.5308 82.2124C32.7448 81.6568 31.8213 81.3279 30.861 81.2617C29.9008 81.1955 28.9408 81.3946 28.0861 81.8371C27.2313 82.2797 26.5147 82.9487 26.0145 83.7711C25.5143 84.5934 25.2499 85.5375 25.25 86.5V86.5ZM97 62.5379V21.75H30.5V30.5H35.75V27H39.25V30.5H44.5V27H48V30.5H53.25V27H56.75V30.5H62V27H65.5V30.5H70.75V27H74.25V30.5H79.4453C79.4635 30.5 79.4818 30.5 79.5 30.5V27H83V31.4726C84.3328 32.2591 85.3679 33.4646 85.9439 34.901L88.25 40.6655V27H91.75V49.4144L97 62.5379ZM53.25 69C54.6419 69.0016 55.9764 69.5552 56.9606 70.5394C57.9448 71.5236 58.4984 72.8581 58.5 74.25H97.9157L82.6938 36.2009C82.4347 35.5511 81.9866 34.9939 81.4075 34.6016C80.8284 34.2092 80.1448 33.9997 79.4453 34H18.1691C17.8832 33.9998 17.6016 34.0698 17.3491 34.2037C17.0965 34.3376 16.8806 34.5315 16.7204 34.7682C16.5601 35.0049 16.4603 35.2774 16.4298 35.5616C16.3993 35.8458 16.4389 36.1332 16.5453 36.3986L18.4972 41.2785C21.6443 39.0816 25.3336 37.7897 29.1638 37.5433C32.994 37.2969 36.8184 38.1055 40.2211 39.881C43.6238 41.6566 46.4744 44.3313 48.463 47.614C50.4516 50.8967 51.502 54.6619 51.5 58.5V69H53.25ZM82.7003 6.00001H102.25C102.714 6.00053 103.159 6.18507 103.487 6.51315C103.815 6.84122 103.999 7.28604 104 7.75001V72.5C103.999 72.964 103.815 73.4088 103.487 73.7369C103.159 74.0649 102.714 74.2495 102.25 74.25C102.084 74.2499 101.921 74.2001 101.783 74.1069C101.644 74.0137 101.537 73.8803 101.475 73.7246L100.052 70.1666C100.34 69.8466 100.5 69.4309 100.5 69V20C100.5 19.5359 100.316 19.0908 99.9874 18.7626C99.6592 18.4344 99.2141 18.25 98.75 18.25H37.5V14.75C37.5005 14.286 37.6851 13.8412 38.0131 13.5131C38.3412 13.1851 38.786 13.0005 39.25 13H72.7997C73.4897 13.0018 74.1732 12.8668 74.8107 12.6027C75.4482 12.3386 76.027 11.9508 76.5136 11.4615L81.4615 6.51341C81.6238 6.35012 81.8168 6.22066 82.0295 6.13253C82.2421 6.0444 82.4701 5.99935 82.7003 6.00001V6.00001ZM97 13H100.5V9.50001H97V13ZM90 13H93.5V9.50001H90V13ZM83 13H86.5V9.50001H83V13Z" fill="#0a4ca4"/>
</g>
<defs>
<clipPath id="clip0">
<rect width="110" height="110" fill="white"/>
</clipPath>
</defs>
</svg>
