<svg width="110" height="110" viewBox="0 0 110 110" fill="none" xmlns="http://www.w3.org/2000/svg">
<g clip-path="url(#clip0)">
<rect width="110" height="110" fill="white"/>
<g clip-path="url(#clip1)">
<rect width="110" height="110" fill="white"/>
<path d="M27.9281 42.7137C39.8974 42.7137 49.785 32.8261 49.785 20.8568C49.785 8.71415 40.0708 -1 27.9281 -1C15.7854 -1 6.07129 8.88762 6.07129 20.8568C6.07129 32.8261 15.9589 42.7137 27.9281 42.7137Z" fill="#0a4ca4"/>
<path d="M27.9282 49.8258C31.2241 49.8258 34.6934 49.6524 37.8158 49.3054C40.7647 44.2749 45.2749 39.9382 50.4789 37.1627C49.785 36.8158 48.9177 36.6423 48.0504 36.2954C43.3667 42.3668 36.0811 46.3565 27.9282 46.3565C19.7752 46.3565 12.4896 42.3668 7.80601 36.2954C2.602 38.0301 0 40.1117 0 41.6729C0 44.9688 10.9284 49.8258 27.9282 49.8258Z" fill="#0a4ca4"/>
<path d="M27.9282 69.7746C30.0098 69.7746 32.0914 69.7746 34.173 69.6011C33.3057 64.2236 33.8261 58.4992 35.9077 53.2952C33.3057 53.4687 30.7037 53.6421 27.9282 53.6421C16.8263 53.6421 5.55094 51.5605 0 47.5708V61.7951C0 65.091 10.9284 69.7746 27.9282 69.7746Z" fill="#0a4ca4"/>
<path d="M27.9282 89.8967C33.9995 89.8967 39.8974 89.2028 44.7545 88.162C40.4178 84.5192 36.775 79.3152 35.0403 73.4173C32.6118 73.5908 30.3567 73.5908 27.9282 73.5908C16.8263 73.5908 5.55094 71.6826 0 67.6929V81.7437C0 85.0396 10.9284 89.8967 27.9282 89.8967Z" fill="#0a4ca4"/>
<path d="M48.7442 90.9375C43.0198 92.6721 35.7342 93.7129 27.9282 93.7129C16.8263 93.7129 5.55094 91.6313 0 87.6416V101.692C0 104.988 10.9284 109.845 28.1017 109.845C45.2749 109.845 56.2033 104.988 56.2033 101.692L56.0298 93.8864C53.2544 93.366 50.9993 92.3252 48.7442 90.9375Z" fill="#0a4ca4"/>
<path d="M83.9579 83.8253C94.7129 73.0704 94.7129 55.8971 83.9579 45.1422C73.3765 34.5607 56.0298 34.2138 45.2748 45.1422C27.9281 62.4889 40.4177 91.8048 64.5296 91.8048C71.8153 91.9783 78.7539 89.0293 83.9579 83.8253ZM81.5294 81.3968C77.0193 85.9069 70.9479 88.3355 64.5296 88.3355C43.5401 88.3355 32.6117 62.6623 47.7033 47.5707C56.8971 38.377 71.9887 38.03 81.5294 47.5707C90.8966 56.9379 90.8966 72.0296 81.5294 81.3968Z" fill="#0a4ca4"/>
<g clip-path="url(#clip2)">
<path d="M64.5296 45.3499C53.9919 45.3499 45.4482 53.8935 45.4482 64.4312C45.4482 74.9689 53.9919 83.5126 64.5296 83.5126C75.0673 83.5126 83.611 74.9689 83.611 64.4312C83.611 53.8935 75.0673 45.3499 64.5296 45.3499ZM69.1783 59.6609H70.4925C71.1508 59.6609 71.6851 60.1952 71.6851 60.8535C71.6851 61.5118 71.1508 62.0461 70.4925 62.0461H69.1783C68.625 64.7651 66.2159 66.8164 63.337 66.8164H61.4456L68.9493 74.3201C69.4144 74.7853 69.4144 75.5413 68.9493 76.0065C68.718 76.2402 68.4127 76.3571 68.1074 76.3571C67.8021 76.3571 67.4968 76.2402 67.263 76.0088L57.7223 66.4682C57.3813 66.1247 57.2787 65.6143 57.4647 65.1682C57.6484 64.7222 58.0849 64.4312 58.5667 64.4312H63.337C64.8898 64.4312 66.2016 63.4318 66.6953 62.0461H58.5667C57.9084 62.0461 57.3741 61.5118 57.3741 60.8535C57.3741 60.1952 57.9084 59.6609 58.5667 59.6609H66.6953C66.2016 58.2751 64.8898 57.2757 63.337 57.2757H58.5667C57.9084 57.2757 57.3741 56.7414 57.3741 56.0831C57.3741 55.4248 57.9084 54.8905 58.5667 54.8905H63.337H70.4925C71.1508 54.8905 71.6851 55.4248 71.6851 56.0831C71.6851 56.7414 71.1508 57.2757 70.4925 57.2757H68.0764C68.6035 57.9722 68.9994 58.7736 69.1783 59.6609Z" fill="#0a4ca4"/>
</g>
<path d="M107.029 92.8458C104.947 90.7642 97.488 85.0398 90.7228 80.7031C89.5086 82.7847 87.9474 84.6929 86.2127 86.4275C84.478 88.1622 82.5699 89.7234 80.4883 90.9377C84.825 97.7029 90.5494 105.162 92.631 107.244C96.4472 111.06 102.866 111.233 106.855 107.244C111.018 103.08 111.018 96.6621 107.029 92.8458Z" fill="#0a4ca4"/>
</g>
</g>
<defs>
<clipPath id="clip0">
<rect width="110" height="110" fill="white"/>
</clipPath>
<clipPath id="clip1">
<rect width="110" height="110" fill="white"/>
</clipPath>
<clipPath id="clip2">
<rect width="38.1627" height="38.1627" fill="white" transform="translate(45.4482 45.3499)"/>
</clipPath>
</defs>
</svg>
