<svg width="110" height="110" viewBox="0 0 110 110" fill="none" xmlns="http://www.w3.org/2000/svg">
<g clip-path="url(#clip0)">
<rect width="110" height="110" fill="white"/>
<path d="M104.444 31.3333H78.5713V13.7143C78.5713 10.5714 76.1585 8 73.0156 8H37.7775C34.6347 8 31.9047 10.5714 31.9047 13.7143V31.3333H5.87276C2.71657 31.3333 -9.65297e-05 31.3333 -9.65297e-05 31.3333C-9.65297e-05 31.3333 0.499903 102.286 -9.65297e-05 102.286C-0.500097 102.286 2.71657 102.286 5.87276 102.286H104.444C107.6 102.286 110.5 102.286 110 102.286C109.5 102.286 110 31.3333 110 31.3333C110 31.3333 107.6 31.3333 104.444 31.3333ZM39.5237 15.619H70.9523V31.3333H39.5237V15.619ZM74.7618 74.6667H62.857V86.5714H47.1428V74.6667H35.238V58.9524H47.1428V47.0476H62.857V58.9524H74.7618V74.6667Z" fill="#0a4ca4"/>
</g>
<defs>
<clipPath id="clip0">
<rect width="110" height="110" fill="white"/>
</clipPath>
</defs>
</svg>
