<svg width="110" height="110" viewBox="0 0 110 110" fill="none" xmlns="http://www.w3.org/2000/svg">
<g clip-path="url(#clip0)">
<rect width="110" height="110" fill="white"/>
<path d="M100.872 16H8.89706L4.44853 16L0 16V84.1375C0 89.0867 0.000366926 93 0.000366926 93H16.4076C19.7584 90.3528 25.8824 88.6263 32.8151 88.6263C39.7479 88.6263 45.8719 90.3528 49.2227 93H63.666C67.0168 90.3528 73.1408 88.6263 80.0735 88.6263C87.0063 88.6263 93.1303 90.3528 96.4811 93H110C110 93 110 88.9716 110 84.1375V16.0001C110 16.0001 105.84 16 100.872 16ZM20.7983 41.3214C21.2605 40.4006 21.8382 39.4798 22.5315 38.7892C23.2248 38.0987 24.1492 37.5232 25.0735 37.0628C25.9979 36.6024 27.0378 36.4873 28.1933 36.4873C29.3487 36.4873 30.3887 36.7175 31.313 37.0628C32.2374 37.5232 33.1618 38.0987 33.8551 38.7892C34.5483 39.4798 35.1261 40.4006 35.5882 41.3214C36.0504 42.2422 36.166 43.278 36.166 44.429C36.166 45.58 35.9349 46.6158 35.5882 47.5366C35.1261 48.4574 34.5483 49.3782 33.8551 50.0688C33.1618 50.7593 32.2374 51.3348 31.313 51.7952C30.3887 52.2556 29.3487 52.3707 28.1933 52.3707C27.0378 52.3707 25.9979 52.1405 25.0735 51.7952C24.1492 51.3348 23.2248 50.7593 22.5315 50.0688C21.8382 49.3782 21.2605 48.4574 20.7983 47.5366C20.3361 46.6158 20.2206 45.58 20.2206 44.429C20.105 43.3931 20.3361 42.3572 20.7983 41.3214ZM44.7164 70.9013H11.5546L10.9769 63.8804C10.9769 59.5067 18.7185 55.8236 28.1933 55.8236C37.6681 55.8236 45.4097 59.3916 45.4097 63.8804L44.7164 70.9013ZM96.1345 69.6353H57.1954C55.4622 69.6353 54.0756 68.2541 54.0756 66.5277C54.0756 64.8012 55.4622 63.42 57.1954 63.42H96.1345C97.8677 63.42 99.2542 64.8012 99.2542 66.5277C99.2542 68.2541 97.8677 69.6353 96.1345 69.6353ZM96.1345 56.7444H57.1954C55.4622 56.7444 54.0756 55.3632 54.0756 53.6368C54.0756 51.9103 55.4622 50.5291 57.1954 50.5291H96.1345C97.8677 50.5291 99.2542 51.9103 99.2542 53.6368C99.2542 55.3632 97.8677 56.7444 96.1345 56.7444ZM96.1345 43.8535H57.1954C55.4622 43.8535 54.0756 42.4723 54.0756 40.7459C54.0756 39.0194 55.4622 37.6383 57.1954 37.6383H96.1345C97.8677 37.6383 99.2542 39.0194 99.2542 40.7459C99.2542 42.4723 97.8677 43.8535 96.1345 43.8535Z" fill="#0a4ca4"/>
</g>
<defs>
<clipPath id="clip0">
<rect width="110" height="110" fill="white"/>
</clipPath>
</defs>
</svg>
