<svg width="110" height="110" viewBox="0 0 110 110" fill="none" xmlns="http://www.w3.org/2000/svg">
<g clip-path="url(#clip0)">
<rect width="110" height="110" fill="white"/>
<path d="M67.4978 85C68.2326 85 68.9577 84.6777 69.4534 84.0625C70.3152 82.9834 70.1394 81.411 69.0627 80.5468L57.5003 71.297V57.5001C57.5003 56.1182 56.3821 55 55.0002 55C53.6184 55 52.5002 56.118 52.5002 57.4998V71.2986L40.9378 80.5466C39.861 81.411 39.6853 82.9832 40.5471 84.0622C41.0428 84.6775 41.7677 84.9997 42.5027 84.9997C43.0495 84.9997 43.6014 84.8216 44.0627 84.4529L55.0002 75.703L65.9376 84.4529C66.3991 84.8216 66.9508 85 67.4978 85Z" fill="#0a4ca4"/>
<path d="M65.9026 26.2449H62.277L53.7273 34.2535L45.0693 26.2449H44.2034C36.6277 27.9765 31 33.7665 31 41.7211V50.0003H78.8896V41.7211C78.8896 33.8206 73.3701 28.0306 65.9026 26.2449Z" fill="#0a4ca4"/>
<path d="M54.16 24.6753C60.9739 24.6753 66.4976 19.1516 66.4976 12.3377C66.4976 5.52376 60.9739 0 54.16 0C47.346 0 41.8223 5.52376 41.8223 12.3377C41.8223 19.1516 47.346 24.6753 54.16 24.6753Z" fill="#0a4ca4"/>
<path d="M34.9026 86.2449H31.277L22.7273 94.2535L14.0693 86.2449H13.2034C5.62768 87.9765 0 93.7665 0 101.721V110H47.8896V101.721C47.8896 93.8206 42.3701 88.0306 34.9026 86.2449Z" fill="#0a4ca4"/>
<path d="M23.16 84.6753C29.9739 84.6753 35.4976 79.1516 35.4976 72.3377C35.4976 65.5238 29.9739 60 23.16 60C16.346 60 10.8223 65.5238 10.8223 72.3377C10.8223 79.1516 16.346 84.6753 23.16 84.6753Z" fill="#0a4ca4"/>
<path d="M96.9026 86.2449H93.277L84.7273 94.2535L76.0693 86.2449H75.2034C67.6277 87.9765 62 93.7665 62 101.721V110H109.89V101.721C109.89 93.8206 104.37 88.0306 96.9026 86.2449Z" fill="#0a4ca4"/>
<path d="M85.16 84.6753C91.9739 84.6753 97.4976 79.1516 97.4976 72.3377C97.4976 65.5238 91.9739 60 85.16 60C78.346 60 72.8223 65.5238 72.8223 72.3377C72.8223 79.1516 78.346 84.6753 85.16 84.6753Z" fill="#0a4ca4"/>
</g>
<defs>
<clipPath id="clip0">
<rect width="110" height="110" fill="white"/>
</clipPath>
</defs>
</svg>
