<svg width="110" height="110" viewBox="0 0 110 110" fill="none" xmlns="http://www.w3.org/2000/svg">
<g clip-path="url(#clip0)">
<rect width="110" height="110" fill="white"/>
<path d="M66.4787 25.957C66.4787 38.0834 56.648 47.9133 44.5217 47.9133C32.3953 47.9133 22.5654 38.0834 22.5654 25.957C22.5654 13.8307 32.3953 4 44.5217 4C56.648 4 66.4787 13.8307 66.4787 25.957Z" fill="#0a4ca4"/>
<path d="M55.6498 95.3404C53.3622 91.3795 53.819 86.5003 56.5416 83.0444C53.819 79.5885 53.3622 74.7141 55.6498 70.7484L59.2031 64.6004C61.157 61.2152 64.8019 59.1117 68.7146 59.1117C69.2501 59.1117 69.7767 59.1511 70.2994 59.2259C70.4449 58.8657 70.6291 58.5272 70.8092 58.1846C68.4379 57.2495 65.8778 56.6963 63.1857 56.6963H25.8595C14.3579 56.6963 5 66.0542 5 77.5549V96.2185C5 96.2185 6.47549 96.2185 8.29351 96.2185H56.1548L55.6498 95.3404Z" fill="#0a4ca4"/>
<path d="M90.8476 92.7486C92.1417 91.94 93.3138 90.9539 94.3294 89.8235L97.9908 91.9379L101.325 86.1633L97.6706 84.0535C98.1352 82.6351 98.4085 81.1305 98.4597 79.571L102.617 78.838L101.458 72.2715L97.3022 73.0045C96.7278 71.5809 95.9572 70.2571 95.0226 69.0675L97.7395 65.83L92.6317 61.5443L89.9171 64.779C88.5912 64.0685 87.1553 63.5374 85.6421 63.2187V59H78.9744V63.2187C77.461 63.5374 76.0251 64.0685 74.6991 64.779L71.9846 61.5443L66.8768 65.8301L69.5934 69.0676C68.659 70.2573 67.8884 71.5812 67.314 73.0046L63.1577 72.2717L62 78.8381L66.1565 79.5711C66.2077 81.1308 66.4811 82.6351 66.9457 84.0539L63.2913 86.1636L66.6253 91.938L70.2869 89.8243C71.3022 90.9542 72.4743 91.9405 73.7685 92.749L72.3232 96.7195L78.589 98.9997L80.0323 95.0345C80.7762 95.1398 81.5358 95.1956 82.3082 95.1956C83.0807 95.1956 83.8404 95.1401 84.5843 95.0345L86.0275 99L92.293 96.7192L90.8476 92.7486ZM82.3079 87.5488C77.6127 87.5488 73.7928 83.7291 73.7928 79.0337C73.7928 74.3386 77.6127 70.5186 82.3079 70.5186C87.0032 70.5186 90.823 74.3386 90.823 79.0337C90.823 83.7291 87.0033 87.5488 82.3079 87.5488Z" fill="#0a4ca4"/>
</g>
<defs>
<clipPath id="clip0">
<rect width="110" height="110" fill="white"/>
</clipPath>
</defs>
</svg>
