<svg width="110" height="110" viewBox="0 0 110 110" fill="none" xmlns="http://www.w3.org/2000/svg">
<g clip-path="url(#clip0)">
<rect width="110" height="110" fill="white"/>
<path d="M43.9998 0.0375977V6.6377H35.3998V18.5376H74.9998V6.6377H66.3998V0.0375977H43.9998ZM14.2998 11.8376V110.738H95.9998V11.8376H79.9998V23.4377H30.3998V11.8376H14.2998ZM23.5998 38.2378H36.7998V51.4377H23.5998V38.2378ZM47.2998 42.3376H86.7998V47.3376H47.2998V42.3376ZM23.5998 60.6377H36.7998V73.8376H23.5998V60.6377ZM47.2998 64.7378H86.7998V69.7378H47.2998V64.7378ZM23.5998 83.0376H36.7998V96.2378H23.5998V83.0376ZM47.2998 87.1377H86.7998V92.1377H47.2998V87.1377Z" fill="#0a4ca4"/>
</g>
<defs>
<clipPath id="clip0">
<rect width="110" height="110" fill="white"/>
</clipPath>
</defs>
</svg>
