<svg width="110" height="110" viewBox="0 0 110 110" fill="none" xmlns="http://www.w3.org/2000/svg">
<g clip-path="url(#clip0)">
<rect width="110" height="110" fill="white"/>
<path d="M106.409 14.0142H53.7112C54.0587 15.5198 54.1745 17.0255 54.1745 18.5311C54.1745 19.4577 54.1745 20.3843 54.0587 21.3108H102.703V67.6388H31.0105V44.359C30.084 44.4748 29.1574 44.4748 28.2308 44.4748C26.7252 44.4748 25.2195 44.359 23.7139 44.0115V86.5175C23.7139 86.5175 25.3353 86.5175 27.3043 86.5175H54.2903L36 97.1729C35.1893 98.2153 33.7994 102.616 33.7994 102.616C33.7994 102.616 47.457 102.616 48.731 102.616H84.9826C86.2566 102.616 96 102.616 96 102.616C96 102.616 93.8107 98.2153 93 97.1729L79.4233 86.5175H106.409C108.378 86.5175 110 86.5175 110 86.5175V14.0142C110 14.0142 108.378 14.0142 106.409 14.0142ZM66.9147 82.3479C64.83 82.3479 62.9768 80.6106 62.9768 78.4101C62.9768 76.3253 64.7141 74.4722 66.9147 74.4722C69.1153 74.4722 70.8526 76.2095 70.8526 78.4101C70.7368 80.6106 68.9995 82.3479 66.9147 82.3479Z" fill="#0a4ca4"/>
<path d="M28.2311 37.0624C38.4233 37.0624 46.7623 28.7233 46.7623 18.5312C46.7623 8.33904 38.4233 0 28.2311 0C18.039 0 9.69992 8.33904 9.69992 18.5312C9.69992 22.2374 10.8581 25.712 12.7112 28.6075L1.12924 40.1895C-0.376415 41.6952 -0.376415 44.1274 1.12924 45.6331C2.6349 47.1387 5.06712 47.1387 6.57278 45.6331L18.1548 34.0511C21.0503 35.9042 24.5249 37.0624 28.2311 37.0624ZM28.2311 7.75994C34.1379 7.75994 39.0024 12.6244 39.0024 18.5312C39.0024 24.438 34.1379 29.3024 28.2311 29.3024C22.3243 29.3024 17.4599 24.438 17.4599 18.5312C17.4599 12.5086 22.3243 7.75994 28.2311 7.75994Z" fill="#0a4ca4"/>
<path d="M92.8582 37.0625C92.1632 32.5455 88.2254 28.9551 83.4767 28.9551C82.3185 28.9551 81.2762 29.1867 80.3496 29.5342L84.4033 37.0625H92.8582Z" fill="#0a4ca4"/>
<path d="M73.748 38.5682C73.748 43.8959 78.0334 48.1812 83.3611 48.1812C88.1097 48.1812 92.0476 44.7066 92.7425 40.0738H83.3611C82.782 40.0738 82.3187 39.7264 81.9713 39.2631L77.4543 30.9241C75.2537 32.7772 73.748 35.5569 73.748 38.5682Z" fill="#0a4ca4"/>
<path d="M41.5502 48.6445C41.7819 48.8762 42.1293 48.992 42.4768 48.992C42.9401 48.992 43.4034 48.7603 43.7508 48.4129L49.5418 40.6529L54.4062 44.2434C54.7537 44.475 55.217 44.5908 55.5644 44.5908C56.0277 44.475 56.3752 44.3592 56.6068 44.0117L62.3978 36.2518L64.0193 37.41C64.3668 37.6416 64.83 37.7574 65.1775 37.5258C65.525 37.2942 65.7566 36.9467 65.8724 36.4834L66.1041 30.1133C66.1041 29.7659 65.9882 29.4184 65.6408 29.1868C65.2933 28.9551 64.9459 28.9551 64.5984 29.0709L58.5758 31.1557C58.1125 31.2715 57.8808 31.619 57.765 32.0823C57.6492 32.5456 57.8808 32.893 58.2283 33.1246L59.8498 34.2828L54.9853 40.6529L50.1209 37.0625C49.7734 36.8309 49.3102 36.7151 48.9627 36.7151C48.4994 36.8309 48.152 36.9467 47.9203 37.2942L41.2028 46.3281C40.7395 47.1389 40.8553 48.0654 41.5502 48.6445Z" fill="#0a4ca4"/>
<path d="M42.0141 52.0032C41.435 52.0032 40.9717 52.4665 40.9717 53.0456V59.0682C40.9717 59.6473 41.435 60.1106 42.0141 60.1106H46.2994C46.8785 60.1106 47.3418 59.6473 47.3418 59.0682V53.0456C47.3418 52.4665 46.8785 52.0032 46.2994 52.0032H42.0141Z" fill="#0a4ca4"/>
<path d="M51.7426 47.6021C51.1635 47.6021 50.7002 48.0653 50.7002 48.6444V59.0682C50.7002 59.6473 51.1635 60.1106 51.7426 60.1106H56.0279C56.607 60.1106 57.0703 59.6473 57.0703 59.0682V48.6444C57.0703 48.0653 56.607 47.6021 56.0279 47.6021H51.7426Z" fill="#0a4ca4"/>
<path d="M61.3559 43.3167C60.7768 43.3167 60.3135 43.7799 60.3135 44.359V59.0682C60.3135 59.6473 60.7768 60.1105 61.3559 60.1105H65.6412C66.2203 60.1105 66.6836 59.6473 66.6836 59.0682V44.4748C66.6836 43.8958 66.2203 43.4325 65.6412 43.4325H61.3559V43.3167Z" fill="#0a4ca4"/>
<path d="M73.748 59.0682C73.748 59.6473 74.2113 60.1106 74.7904 60.1106H91.7001C92.2792 60.1106 92.7425 59.6473 92.7425 59.0682V54.7829C92.7425 54.2038 92.2792 53.7405 91.7001 53.7405H74.9062C74.3271 53.7405 73.8639 54.2038 73.8639 54.7829V59.0682H73.748Z" fill="#0a4ca4"/>
</g>
<defs>
<clipPath id="clip0">
<rect width="110" height="110" fill="white"/>
</clipPath>
</defs>
</svg>
