<svg width="110" height="110" viewBox="0 0 110 110" fill="none" xmlns="http://www.w3.org/2000/svg">
<g clip-path="url(#clip0)">
<rect width="110" height="110" fill="white"/>
<path d="M0.112341 78.7691C0.224683 79.8925 1.01107 80.9036 2.24683 81.1283L8.65029 82.2517C9.32433 84.7232 10.2231 87.0824 11.5712 89.2168L7.75155 94.4969C7.07751 95.508 7.18985 96.8561 7.97624 97.6424L10.2231 99.8893L12.4699 102.136C13.3686 102.922 14.6044 103.147 15.6154 102.361L20.8955 98.5412C23.03 99.8893 25.5015 100.788 27.973 101.462L29.0964 107.866C29.3211 109.101 30.3322 109.888 31.5679 109.888H34.8258H38.0837C39.3195 109.888 40.3305 108.989 40.5552 107.866L41.6786 101.35C44.1502 100.676 46.5093 99.6646 48.6438 98.4288L53.9239 102.248C54.9349 102.922 56.283 102.81 57.0694 102.024L59.3162 99.7769L61.5631 97.5301C62.3495 96.6314 62.5741 95.3956 61.7878 94.3845L57.9681 88.9922C59.2039 86.8577 60.215 84.4985 60.7767 82.027L67.1801 80.9036C68.4159 80.6789 69.2023 79.6678 69.2023 78.4321V75.1742V71.9163C69.2023 70.6805 68.3036 69.6694 67.1801 69.4448L60.6643 68.3213C59.9903 65.8498 58.9792 63.4907 57.7435 61.3562L61.4507 56.0761C62.1248 55.0651 62.0124 53.717 61.226 52.9306L58.9792 50.6838L56.7324 48.4369C55.8337 47.6505 54.5979 47.4259 53.5868 48.2122L48.1944 52.0319C46.06 50.7961 43.8131 49.8974 41.454 49.2233L40.3306 42.8199C40.1059 41.5841 39.0948 40.7977 37.859 40.7977H34.6011H31.3432C30.1075 40.7977 29.0964 41.6964 28.8717 42.8199L27.7483 49.2233C25.2768 49.8974 22.9176 50.7961 20.7832 52.1442L15.5031 48.3246C14.492 47.6505 13.1439 47.7629 12.3576 48.5493L10.1107 50.7961L7.8639 53.0429C7.07751 53.9417 6.85282 55.1774 7.63921 56.1885L11.4588 61.4685C10.2231 63.603 9.21199 65.9622 8.53794 68.4337L2.13449 69.5571C0.898731 70.1188 0 71.1299 0 72.3656V75.6235L0.112341 78.7691ZM22.4683 81.0159L31.6803 71.8039L28.1977 68.3213C27.8607 67.9843 28.0853 67.3103 28.5347 67.3103L43.4761 65.8498C43.9255 65.8498 44.3748 66.1869 44.3748 66.7486L42.9144 81.69C42.9144 82.2517 42.2404 82.4764 41.9033 82.027L38.4207 78.5444L29.2088 87.7564C28.7594 88.2058 28.1977 88.2058 27.7483 87.7564L22.4683 82.364C22.1312 82.027 22.1312 81.3529 22.4683 81.0159ZM109.083 33.9449L104.365 31.024C104.702 28.8895 104.59 26.755 104.365 24.7329L108.971 21.812C109.87 21.2503 110.207 20.1269 109.758 19.2282L108.634 16.7567L107.623 14.2851C107.286 13.3864 106.275 12.8247 105.264 13.0494L99.8715 14.2851C98.6357 12.6 97.0629 11.0272 95.2655 9.79149L96.3889 4.51145C96.6136 3.50038 96.1642 2.4893 95.1531 2.15228L92.6816 1.14121L90.2101 0.130134C89.3114 -0.20689 88.188 0.130134 87.6263 0.916524L84.7054 5.63486C82.5709 5.41018 80.4364 5.41018 78.4143 5.7472L75.4934 1.14121C74.9317 0.242476 73.8083 -0.0945484 72.9095 0.354817L70.438 1.36589L67.9665 2.37696C67.0678 2.71399 66.5061 3.72506 66.7308 4.73613L67.9665 10.1285C66.2814 11.3643 64.821 12.9371 63.5852 14.6222L58.3052 13.4988C57.2941 13.2741 56.283 13.8358 55.946 14.7345L54.9349 17.206L53.9239 19.7899C53.5868 20.6886 53.9239 21.812 54.7102 22.3737L59.4286 25.2946C59.2039 27.4291 59.2039 29.5636 59.5409 31.5857L55.0473 34.5066C54.1485 35.0683 53.8115 36.1917 54.2609 37.0904L55.272 39.562L56.283 42.0335C56.62 42.9322 57.6311 43.4939 58.6422 43.2692L64.0346 42.0335C65.2703 43.6062 66.7308 45.0667 68.4159 46.3024L67.2925 51.5825C67.0678 52.5936 67.6295 53.6046 68.5282 53.9417L70.9997 54.9527L73.4713 55.9638C74.37 56.3008 75.4934 55.9638 76.0551 55.1774L78.976 50.4591C81.1105 50.6838 83.245 50.6838 85.2671 50.4591L88.188 55.0651C88.7497 55.9638 89.8731 56.3008 90.7718 55.8515L93.2433 54.8404L95.7148 53.8293C96.6136 53.4923 97.1753 52.4812 96.9506 51.4701L95.7148 46.0778C97.4 44.842 98.8604 43.2692 100.096 41.5841L105.489 42.8199C106.5 43.0445 107.511 42.4828 107.848 41.5841L108.859 39.1126L109.87 36.6411C110.207 35.5177 109.87 34.5066 109.083 33.9449ZM92.1199 23.4971L84.3684 31.2487L87.2892 34.1696C87.6263 34.5066 87.4016 35.0683 86.9522 35.0683L74.37 36.3041C73.9206 36.3041 73.5836 35.967 73.6959 35.63L74.9317 23.0478C74.9317 22.5984 75.4934 22.3737 75.8304 22.7107L78.7513 25.6316L86.5029 17.8801C86.8399 17.543 87.4016 17.543 87.7386 17.8801L92.1199 22.2614C92.4569 22.5984 92.4569 23.1601 92.1199 23.4971Z" fill="#0a4ca4"/>
</g>
<defs>
<clipPath id="clip0">
<rect width="110" height="110" fill="white"/>
</clipPath>
</defs>
</svg>
