<svg width="110" height="110" viewBox="0 0 110 110" fill="none" xmlns="http://www.w3.org/2000/svg">
<g clip-path="url(#clip0)">
<rect width="110" height="110" fill="white"/>
<path d="M18.2133 49.3284H11.9195C10.1397 49.3284 8.69684 47.8855 8.69684 46.1057C8.69684 44.3259 10.1397 42.883 11.9195 42.883H24.3534C29.272 39.1112 35.2657 37.0668 41.5793 37.0668C45.1642 37.0668 48.646 37.7261 51.8864 38.9858V12.4599C51.8864 7.41641 47.9254 3.18506 42.8843 3.02844C42.7521 3.02457 42.6192 3.02242 42.4857 3.02242H3.32574C-0.896645 3.02242 0.103516 2.52246 0.103086 6.24508V60.0211H13.7242C14.4615 56.1774 15.9846 52.5491 18.2133 49.3284ZM11.9195 17.1018H38.023C39.8028 17.1018 41.2457 18.5447 41.2457 20.3244C41.2457 22.1042 39.8028 23.5471 38.023 23.5471H11.9195C10.1397 23.5471 8.69684 22.1042 8.69684 20.3244C8.69684 18.5447 10.1397 17.1018 11.9195 17.1018ZM11.9195 29.9924H38.023C39.8028 29.9924 41.2457 31.4353 41.2457 33.2151C41.2457 34.9948 39.8028 36.4377 38.023 36.4377H11.9195C10.1397 36.4377 8.69684 34.9948 8.69684 33.2151C8.69684 31.4351 10.1397 29.9924 11.9195 29.9924Z" fill="#0a4ca4"/>
<path d="M106.88 3.02254H67.7203C67.5868 3.02254 67.4538 3.02469 67.3215 3.02877C62.2804 3.18539 58.3193 7.41652 58.3193 12.4602V42.5181C59.4862 43.3739 60.596 44.3235 61.6382 45.3655C65.6994 49.4264 68.376 54.5025 69.4345 60.0212H110.103L110 5.50008C110 3.00007 112.5 3 106.88 3.02254ZM98.2865 49.3285H85.0736C83.2938 49.3285 81.851 47.8856 81.851 46.1058C81.851 44.326 83.2938 42.8832 85.0736 42.8832H98.2865C100.066 42.8832 101.509 44.326 101.509 46.1058C101.509 47.8856 100.066 49.3285 98.2865 49.3285ZM98.2865 36.4378H72.183C70.4032 36.4378 68.9603 34.995 68.9603 33.2152C68.9603 31.4354 70.4032 29.9925 72.183 29.9925H98.2865C100.066 29.9925 101.509 31.4354 101.509 33.2152C101.509 34.995 100.066 36.4378 98.2865 36.4378ZM98.2865 23.5472H72.183C70.4032 23.5472 68.9603 22.1043 68.9603 20.3246C68.9603 18.5448 70.4032 17.1019 72.183 17.1019H98.2865C100.066 17.1019 101.509 18.5448 101.509 20.3246C101.509 22.1043 100.066 23.5472 98.2865 23.5472Z" fill="#0a4ca4"/>
<path d="M13.1295 66.4438H0V77.0135C0 78.7933 3.74317e-05 80.2362 3.74317e-05 80.2362H17.2865C14.7437 76.1071 13.307 71.3863 13.1295 66.4438Z" fill="#0a4ca4"/>
<path d="M67.8222 66.4438C67.7273 69.0888 67.2684 71.6691 66.4756 74.1303L72.5814 80.2362H109.999C109.999 78.5 109.999 77.0135 109.999 77.0135V66.4438H67.8222Z" fill="#0a4ca4"/>
<path d="M56.9785 49.9002C48.4312 41.3526 34.5233 41.3526 25.9757 49.9002C21.835 54.0406 19.5547 59.5458 19.5547 65.4014C19.5547 71.2571 21.835 76.7623 25.9757 80.9028C30.1162 85.0435 35.6213 87.3238 41.4771 87.3238C47.3327 87.3238 52.8379 85.0435 56.9785 80.9028C61.1192 76.7623 63.3996 71.2571 63.3996 65.4014C63.3994 59.5458 61.1192 54.0406 56.9785 49.9002Z" fill="#0a4ca4"/>
<path d="M80.7336 95.5017L65.591 80.3591C64.4521 82.1875 63.0969 83.8995 61.5358 85.4606C59.9748 87.0216 58.2629 88.3767 56.4346 89.5156L71.5772 104.658C74.1057 107.187 78.2051 107.187 80.7336 104.658C83.2621 102.13 83.2621 98.0302 80.7336 95.5017Z" fill="#0a4ca4"/>
</g>
<defs>
<clipPath id="clip0">
<rect width="110" height="110" fill="white"/>
</clipPath>
</defs>
</svg>
