<svg width="110" height="110" viewBox="0 0 110 110" fill="none" xmlns="http://www.w3.org/2000/svg">
<g clip-path="url(#clip0)">
<rect width="110" height="110" fill="white"/>
<path d="M29.8758 60.5427C22.353 60.5427 16.2324 66.6633 16.2324 74.1861C16.2324 81.709 22.353 87.8295 29.8758 87.8295C34.0936 87.8295 38.0974 85.836 40.6746 82.5018C41.2292 79.8945 42.1927 77.4404 43.4768 75.1904C43.5001 74.8581 43.5192 74.5242 43.5192 74.1861C43.5192 66.6633 37.3987 60.5427 29.8758 60.5427ZM21.3454 79.8262C20.2337 78.1424 19.6433 76.193 19.6433 74.1861C19.6433 68.5427 24.2324 63.9536 29.8758 63.9536C31.8827 63.9536 33.8321 64.544 35.5159 65.6557L33.6314 68.5003C32.5089 67.7566 31.2115 67.3644 29.8758 67.3644C26.1136 67.3644 23.0541 70.4239 23.0541 74.1861C23.0541 75.5218 23.4463 76.8192 24.19 77.9401L21.3454 79.8262ZM29.8758 84.4187C27.869 84.4187 25.9195 83.8283 24.2358 82.7166L26.1202 79.872C27.2427 80.6156 28.5401 81.0078 29.8758 81.0078C33.6381 81.0078 36.6975 77.9484 36.6975 74.1861C36.6975 72.8504 36.3053 71.553 35.5617 70.4322L38.4063 68.5477C39.518 70.2298 40.1084 72.1793 40.1084 74.1861C40.1084 79.8295 35.5192 84.4187 29.8758 84.4187Z" fill="#0a4ca4"/>
<path d="M40.1102 87.7836C37.184 89.9804 33.6008 91.2403 29.876 91.2403C20.472 91.2403 12.8217 83.59 12.8217 74.186C12.8217 64.782 20.472 57.1318 29.876 57.1318C38.1408 57.1318 45.0474 63.0441 46.5996 70.8601C47.4607 69.8916 48.3767 68.9723 49.3743 68.1454C48.9304 66.7056 48.3625 65.3158 47.6264 64.0334L47.0818 63.0841L49.3551 59.9014L44.1622 54.7085L40.9804 56.9819L40.0302 56.4373C38.5447 55.5846 36.9367 54.9184 35.2462 54.4612L34.1903 54.1747L33.5458 50.3101H26.2045L25.5599 54.1731L24.504 54.4595C22.8153 54.9184 21.2056 55.5829 19.72 56.4356L18.7699 56.9802L15.588 54.7069L10.3951 59.8997L12.6685 63.0816L12.1239 64.0317C11.2712 65.5173 10.605 67.1253 10.1478 68.8158L9.86302 69.8717L6 70.5162V77.8575L9.86302 78.5021L10.1495 79.5579C10.6083 81.2467 11.2728 82.8564 12.1255 84.342L12.6701 85.2921L10.3968 88.474L15.5897 93.6669L18.7715 91.3935L19.7217 91.9381C21.2073 92.7908 22.8153 93.457 24.5057 93.9142L25.5616 94.2006L26.2061 98.062H33.5475L34.192 94.199L35.2479 93.9125C36.9367 93.4537 38.5463 92.7892 40.0319 91.9364L40.4358 91.7041C40.2401 90.4367 40.1085 89.1493 40.1085 87.8294C40.1085 87.8144 40.1102 87.7986 40.1102 87.7836Z" fill="#0a4ca4"/>
<path d="M65.6901 65.6589C53.4656 65.6589 43.5195 75.605 43.5195 87.8295C43.5195 100.054 53.4656 110 65.6901 110C77.9145 110 87.8606 100.054 87.8606 87.8295C87.8606 75.605 77.9145 65.6589 65.6901 65.6589ZM65.6901 106.589C55.3468 106.589 46.9304 98.1728 46.9304 87.8295C46.9304 83.5134 48.436 79.2973 51.1681 75.9581L53.807 78.1207C51.9342 80.4074 50.7776 83.2028 50.4487 86.124H53.7521V89.5349H50.442C51.2314 96.6381 56.8815 102.288 63.9846 103.078V99.7675H67.3955V103.071C70.3184 102.742 73.1122 101.585 75.3988 99.7125L77.5614 102.351C74.2222 105.084 70.0061 106.589 65.6901 106.589ZM70.8063 86.124V89.5349H63.9846V79.3023H67.3955V86.124H70.8063ZM80.212 99.7008L77.5731 97.5382C79.4459 95.2516 80.6026 92.4561 80.9315 89.5349H77.6281V86.124H80.9381C80.1487 79.0209 74.4987 73.3708 67.3955 72.5814V75.8915H63.9846V72.5881C61.0618 72.917 58.268 74.0736 55.9813 75.9465L53.8187 73.3075C57.1579 70.5754 61.374 69.0698 65.6901 69.0698C76.0334 69.0698 84.4498 77.4862 84.4498 87.8295C84.4498 92.1455 82.9442 96.3616 80.212 99.7008Z" fill="#0a4ca4"/>
<path d="M94.6822 11.0852V14.4961H99.0923L89.5659 24.0225L84.4496 18.9062L76.4088 26.947C75.7418 26.6264 75.0048 26.434 74.217 26.434C71.3966 26.434 69.1008 28.7299 69.1008 31.5503C69.1008 32.4322 69.3464 33.2507 69.7403 33.9752L60.8259 43.8805C60.2222 43.6299 59.5627 43.4883 58.8682 43.4883C58.8357 43.4883 58.8066 43.4966 58.7741 43.4966L51.9166 25.2099C53.0291 24.2714 53.7519 22.8833 53.7519 21.3178C53.7519 18.4973 51.4561 16.2015 48.6356 16.2015C45.8152 16.2015 43.5194 18.4973 43.5194 21.3178C43.5194 21.7183 43.576 22.1039 43.6643 22.4778L32.987 30.9274C32.1202 30.2596 31.0509 29.8449 29.876 29.8449C27.6559 29.8449 25.7798 31.2755 25.0736 33.2557H15.9186C15.2125 31.2755 13.3363 29.8449 11.1163 29.8449C8.29583 29.8449 6 32.1407 6 34.9612C6 37.7816 8.29583 40.0774 11.1163 40.0774C13.3363 40.0774 15.2125 38.6468 15.9186 36.6666H25.0753C25.7814 38.6468 27.6576 40.0774 29.8776 40.0774C32.6981 40.0774 34.9939 37.7816 34.9939 34.9612C34.9939 34.5606 34.9373 34.1751 34.849 33.8012L45.5262 25.3515C46.3914 26.0193 47.4607 26.434 48.6356 26.434C48.6681 26.434 48.6973 26.4257 48.7297 26.4257L55.5873 44.7124C54.4747 45.6509 53.7519 47.039 53.7519 48.6046C53.7519 51.425 56.0478 53.7209 58.8682 53.7209C61.6887 53.7209 63.9845 51.425 63.9845 48.6046C63.9845 47.7227 63.7405 46.9041 63.3449 46.1797L72.2593 36.2744C72.863 36.525 73.5225 36.6666 74.217 36.6666C77.0375 36.6666 79.3333 34.3708 79.3333 31.5503C79.3333 30.7626 79.141 30.0256 78.8204 29.3586L84.4496 23.7293L89.5659 28.8456L101.504 16.9076V21.3178H104.915V11.0852H94.6822ZM11.1163 36.6666C10.1753 36.6666 9.41085 35.9022 9.41085 34.9612C9.41085 34.0202 10.1753 33.2557 11.1163 33.2557C12.0573 33.2557 12.8217 34.0202 12.8217 34.9612C12.8217 35.9022 12.0573 36.6666 11.1163 36.6666ZM29.876 36.6666C28.935 36.6666 28.1705 35.9022 28.1705 34.9612C28.1705 34.0202 28.935 33.2557 29.876 33.2557C30.8169 33.2557 31.5814 34.0202 31.5814 34.9612C31.5814 35.9022 30.8169 36.6666 29.876 36.6666ZM46.9302 21.3178C46.9302 20.3768 47.6947 19.6123 48.6356 19.6123C49.5766 19.6123 50.3411 20.3768 50.3411 21.3178C50.3411 22.2587 49.5766 23.0232 48.6356 23.0232C47.6947 23.0232 46.9302 22.2587 46.9302 21.3178ZM58.8682 50.31C57.9272 50.31 57.1628 49.5456 57.1628 48.6046C57.1628 47.6636 57.9272 46.8992 58.8682 46.8992C59.8092 46.8992 60.5736 47.6636 60.5736 48.6046C60.5736 49.5456 59.8092 50.31 58.8682 50.31ZM74.217 33.2557C73.2761 33.2557 72.5116 32.4913 72.5116 31.5503C72.5116 30.6093 73.2761 29.8449 74.217 29.8449C75.158 29.8449 75.9225 30.6093 75.9225 31.5503C75.9225 32.4913 75.158 33.2557 74.217 33.2557Z" fill="#0a4ca4"/>
<path d="M70.8057 48.6047V62.7611C73.2222 63.2524 75.5106 64.0918 77.6274 65.2118V48.6047H70.8057Z" fill="#0a4ca4"/>
<path d="M57.1631 57.1301V63.7337C59.3207 62.9692 61.6057 62.4904 63.9848 62.333V57.1301H57.1631Z" fill="#0a4ca4"/>
<path d="M84.4502 70.4786C88.3099 74.6481 90.7873 80.0966 91.1903 86.1239H91.2719V40.0774H84.4502V70.4786Z" fill="#0a4ca4"/>
<path d="M98.0928 26.4341H104.914V86.124H98.0928V26.4341Z" fill="#0a4ca4"/>
</g>
<defs>
<clipPath id="clip0">
<rect width="110" height="110" fill="white"/>
</clipPath>
</defs>
</svg>
