<svg width="110" height="110" viewBox="0 0 110 110" fill="none" xmlns="http://www.w3.org/2000/svg">
<g clip-path="url(#clip0)">
<rect width="110" height="110" fill="white"/>
<path d="M88 0H38.5L11 27.5V110C11 110 15.925 110 22 110H88C94.075 110 99 110 99 110V3.91006e-05C99 3.91006e-05 94.075 0 88 0ZM19.25 33L44 8.25V33H19.25ZM82.5 49.5C82.2321 49.5 82.0025 49.3845 81.745 49.3476L65.6015 69.5258C65.8402 70.1418 66 70.7997 66 71.5C66 74.5373 63.5377 77 60.5 77C57.4623 77 55 74.5373 55 71.5C55 71.3869 55.0574 71.2929 55.0641 71.1814L46.3915 65.3988C45.6613 65.7573 44.8681 66 44 66C43.7878 66 43.6082 65.9026 43.4025 65.8791L32.5555 80.3408C32.8392 81.0045 33 81.7326 33 82.5C33 85.5373 30.5377 88 27.5 88C24.4623 88 22 85.5373 22 82.5C22 79.4623 24.4623 77 27.5 77C27.7122 77 27.8924 77.0973 28.0982 77.1208L38.9441 62.6589C38.6605 61.9955 38.5 61.2671 38.5 60.5C38.5 57.4623 40.9623 55 44 55C47.0377 55 49.5 57.4623 49.5 60.5C49.5 60.6131 49.4423 60.7075 49.4355 60.8189L58.1092 66.6005C58.8393 66.2427 59.6322 66 60.5 66C60.7682 66 60.9982 66.1151 61.256 66.1524L77.3981 45.9732C77.1598 45.3575 77 44.6999 77 44C77 40.9623 79.4623 38.5 82.5 38.5C85.5377 38.5 88 40.9623 88 44C88 47.0374 85.5377 49.5 82.5 49.5Z" fill="#0a4ca4"/>
</g>
<defs>
<clipPath id="clip0">
<rect width="110" height="110" fill="white"/>
</clipPath>
</defs>
</svg>
