<svg width="110" height="110" viewBox="0 0 110 110" fill="none" xmlns="http://www.w3.org/2000/svg">
<g clip-path="url(#clip0)">
<rect width="110" height="110" fill="white"/>
<path d="M68.0229 58.3366C69.8062 58.3366 71.2519 56.8909 71.2519 55.1076C71.2519 53.3243 69.8062 51.8787 68.0229 51.8787C66.2396 51.8787 64.7939 53.3243 64.7939 55.1076C64.7939 56.8909 66.2396 58.3366 68.0229 58.3366Z" fill="#0a4ca4"/>
<path d="M42.1919 77.7104C43.9752 77.7104 45.4208 76.2647 45.4208 74.4814C45.4208 72.6981 43.9752 71.2524 42.1919 71.2524C40.4085 71.2524 38.9629 72.6981 38.9629 74.4814C38.9629 76.2647 40.4085 77.7104 42.1919 77.7104Z" fill="#0a4ca4"/>
<path d="M42.1919 38.9628C43.9752 38.9628 45.4208 37.5172 45.4208 35.7338C45.4208 33.9505 43.9752 32.5049 42.1919 32.5049C40.4085 32.5049 38.9629 33.9505 38.9629 35.7338C38.9629 37.5172 40.4085 38.9628 42.1919 38.9628Z" fill="#0a4ca4"/>
<path d="M102.394 44.8468C101.171 39.1994 98.9225 33.7694 95.804 28.9197L100.502 22.8748L87.3404 9.71294L81.2956 14.4113C76.4459 11.2928 71.0159 9.04432 65.3684 7.82098L64.4161 0H45.7992L44.8468 7.82098C39.1994 9.04454 33.7694 11.2928 28.9197 14.4113L22.8748 9.71294L9.71294 22.8748L14.4113 28.9197C11.2928 33.7694 9.04432 39.1994 7.82098 44.8468L0 45.7992V64.4161L7.82098 65.3684C9.04454 71.0159 11.2928 76.4459 14.4113 81.2956L9.71294 87.3404L22.8748 100.502L28.9197 95.804C33.7694 98.9225 39.1994 101.171 44.8468 102.394L45.7992 110.215H64.4161L65.3684 102.394C71.0159 101.171 76.4459 98.9225 81.2956 95.804L87.3404 100.502L100.502 87.3404L95.804 81.2956C98.9225 76.4459 101.171 71.0159 102.394 65.3684L110 64.4161V45.7992L102.394 44.8468ZM84.1683 77.7104H51.2839C49.9465 81.4607 46.3959 84.1683 42.1918 84.1683C37.9877 84.1683 34.4371 81.4607 33.0997 77.7104H26.047V71.2524H33.0997C34.4371 67.5021 37.9877 64.7945 42.1918 64.7945C46.3959 64.7945 49.9465 67.5021 51.2839 71.2524H84.1683V77.7104ZM84.1683 58.3366H77.1156C75.7782 62.0869 72.2276 64.7945 68.0235 64.7945C63.8194 64.7945 60.2688 62.0869 58.9314 58.3366H26.047V51.8787H58.9314C60.2688 48.1283 63.8194 45.4207 68.0235 45.4207C72.2276 45.4207 75.7782 48.1283 77.1156 51.8787H84.1683V58.3366ZM84.1683 38.9628H51.2839C49.9465 42.7132 46.3959 45.4207 42.1918 45.4207C37.9877 45.4207 34.4371 42.7132 33.0997 38.9628H26.047V32.5049H33.0997C34.4371 28.7546 37.9877 26.047 42.1918 26.047C46.3959 26.047 49.9465 28.7546 51.2839 32.5049H84.1683V38.9628Z" fill="#0a4ca4"/>
</g>
<defs>
<clipPath id="clip0">
<rect width="110" height="110" fill="white"/>
</clipPath>
</defs>
</svg>
