<svg width="110" height="110" viewBox="0 0 110 110" fill="none" xmlns="http://www.w3.org/2000/svg">
<g clip-path="url(#clip0)">
<rect width="110" height="110" fill="white"/>
<path d="M0.588883 28.0776C2.15306 28.6219 2.96493 29.4336 3.50898 30.9977C3.7821 31.7829 4.87702 31.7829 5.15015 30.9977C5.69441 29.4336 6.50584 28.6217 8.07024 28.0776C8.85542 27.8045 8.85542 26.7096 8.07024 26.4365C6.50562 25.8922 5.69419 25.0806 5.15015 23.5164C4.87702 22.7312 3.7821 22.7312 3.50898 23.5164C2.96471 25.0806 2.15306 25.8924 0.588883 26.4365C-0.196294 26.7096 -0.196294 27.8043 0.588883 28.0776Z" fill="#0a4ca4"/>
<path d="M72.8211 95.9968C71.2569 95.4525 70.4451 94.6409 69.9015 93.0767C69.6279 92.2915 68.5334 92.2915 68.2603 93.0767C67.7156 94.6409 66.9044 95.4527 65.3402 95.9968C64.5546 96.2699 64.5546 97.3648 65.3402 97.6377C66.9044 98.1824 67.7158 98.9941 68.2603 100.558C68.5334 101.343 69.6279 101.343 69.9015 100.558C70.4453 98.9941 71.2571 98.1822 72.8211 97.6377C73.6067 97.3648 73.6067 96.2699 72.8211 95.9968Z" fill="#0a4ca4"/>
<path d="M101.95 25.5249C106.245 25.5249 109.74 22.0308 109.74 17.7351C109.74 15.9892 109.155 14.3806 108.181 13.0801L110 10.6908L107.779 9L106.127 11.1709C104.918 10.3992 103.487 9.94535 101.95 9.94535C97.6547 9.94535 94.1602 13.4399 94.1602 17.7351C94.1599 22.031 97.6545 25.5249 101.95 25.5249ZM101.95 12.7366C102.852 12.7366 103.698 12.9804 104.429 13.4007L101.533 17.2067L100.098 15.596L98.0143 17.451L100.575 20.3276C100.839 20.6259 101.219 20.7955 101.617 20.7955C101.634 20.7955 101.652 20.7947 101.67 20.7942C102.087 20.7788 102.474 20.5767 102.727 20.2453L106.386 15.4392C106.743 16.1277 106.949 16.9071 106.949 17.7353C106.949 20.4922 104.707 22.7345 101.95 22.7345C99.1933 22.7345 96.951 20.4922 96.951 17.7353C96.9507 14.979 99.1931 12.7366 101.95 12.7366Z" fill="#0a4ca4"/>
<path d="M101.882 58.9675C97.5864 58.9675 94.0918 62.4617 94.0918 66.7573C94.0918 71.0525 97.5864 74.5471 101.882 74.5471C106.178 74.5471 109.672 71.0525 109.672 66.7573C109.672 62.4617 106.178 58.9675 101.882 58.9675ZM101.882 61.7581C102.675 61.7581 103.423 61.949 104.09 62.2786L102.154 64.4274L100.063 62.1058C100.627 61.8839 101.239 61.7581 101.882 61.7581ZM96.8828 66.7573C96.8828 65.6573 97.244 64.6429 97.8476 63.8165L100.276 66.5122L97.6576 69.4191C97.1694 68.6471 96.8828 67.736 96.8828 66.7573ZM101.882 71.7561C101.117 71.7561 100.395 71.578 99.746 71.27L102.154 68.5973L104.387 71.0757C103.65 71.5052 102.795 71.7561 101.882 71.7561ZM106.319 69.0506L104.032 66.5122L106.148 64.1642C106.61 64.9213 106.881 65.8067 106.881 66.7573C106.881 67.5837 106.676 68.3627 106.319 69.0506Z" fill="#0a4ca4"/>
<path d="M107.778 33.665L106.126 35.8359C104.917 35.0642 103.486 34.6108 101.949 34.6108C97.6538 34.6108 94.1592 38.105 94.1592 42.4006C94.1592 46.6958 97.6538 50.1904 101.949 50.1904C106.245 50.1904 109.739 46.6958 109.739 42.4006C109.739 40.6542 109.155 39.0457 108.18 37.7451L110 35.3559L107.778 33.665ZM101.95 47.3994C99.1928 47.3994 96.9504 45.157 96.9504 42.4006C96.9504 39.6438 99.1928 37.4014 101.95 37.4014C102.852 37.4014 103.697 37.6452 104.429 38.0655L101.532 41.872L100.098 40.2608L98.0138 42.1162L100.574 44.9924C100.839 45.2911 101.219 45.4603 101.616 45.4603C101.634 45.4603 101.651 45.4599 101.669 45.4595C102.086 45.4436 102.474 45.2419 102.726 44.9101L106.385 40.1044C106.743 40.7925 106.948 41.572 106.948 42.4006C106.948 45.157 104.706 47.3994 101.95 47.3994Z" fill="#0a4ca4"/>
<path d="M70.2485 64.7048C70.2688 64.2433 70.2791 63.7813 70.2791 63.32C70.2791 58.9357 69.4726 54.7391 68.001 50.8728C68.0006 50.8723 68.0006 50.8719 68.0006 50.8715L37.4499 68.3925C36.8057 68.7574 36.0801 68.95 35.3442 68.95C33.0151 68.95 31.1072 67.0527 31.0973 64.7181L30.9806 28.4951C30.9801 28.4951 30.9801 28.4951 30.9797 28.4951C13.5952 30.576 0.118164 45.3724 0.118164 63.32C0.118164 82.6933 15.823 98.4028 35.1963 98.4028C53.2603 98.4028 68.1277 84.753 70.0612 67.2117C70.1525 66.3846 70.2132 65.5474 70.2485 64.7048ZM11.0072 64.7156H4.75841V61.9248H11.0072V64.7156ZM14.457 86.0359L12.4836 84.0629L16.9027 79.6446L18.8762 81.6176L14.457 86.0359ZM17.1066 47.2006L12.6881 42.7814L14.6606 40.8084L19.0793 45.2272L17.1066 47.2006ZM36.5955 93.7613H33.8047V87.512H36.5955V93.7613ZM55.9417 86.0359L51.5234 81.6176L53.4968 79.6446L57.9151 84.0629L55.9417 86.0359ZM64.2433 64.7156H57.9941V61.9248H64.2433V64.7156Z" fill="#0a4ca4"/>
<path d="M33.8976 64.8655C33.908 64.9672 33.9279 65.0631 33.9583 65.1547C34.1514 65.7583 34.7296 66.1596 35.3436 66.1596C35.5823 66.1596 35.8305 66.0989 36.0645 65.9666L46.8472 59.7866L45.4666 57.4064L36.6375 62.5212V46.2131H33.8467V52.0328L33.8877 64.7084C33.8877 64.7589 33.8926 64.8145 33.8976 64.8655Z" fill="#0a4ca4"/>
<path d="M76.3174 17.7228V40.7041H49.3789V43.4945H76.3174V67.4906C76.3174 68.2619 76.9417 68.8862 77.713 68.8862H81.1024V66.0954H79.1082V43.4947H81.1024V40.7043H79.1082V19.118H81.1024V16.3276H77.713C76.9417 16.3276 76.3174 16.9515 76.3174 17.7228Z" fill="#0a4ca4"/>
<path d="M85.559 12.912C85.2901 12.6223 84.8718 12.5268 84.5038 12.6706C84.1358 12.8149 83.8936 13.1701 83.8936 13.5652V14.898V16.3276V19.1179V20.548V22.1583C83.8936 22.5547 84.1378 22.911 84.508 23.0542C84.8786 23.1971 85.2987 23.0976 85.5658 22.8042L89.5072 18.4634C89.8427 18.0945 89.8403 17.5301 89.5008 17.1646L85.559 12.912Z" fill="#0a4ca4"/>
<path d="M85.5587 62.5415C85.2898 62.2516 84.8715 62.1559 84.5035 62.2997C84.1355 62.4444 83.8933 62.7996 83.8933 63.1943V66.0954H83.8887V68.8862H83.8933V71.7874C83.8933 72.1842 84.1375 72.5401 84.5077 72.6833C84.8784 72.8262 85.2984 72.7267 85.5656 72.4333L89.5069 68.0924C89.8425 67.7236 89.8401 67.1592 89.5005 66.7937L85.5587 62.5415Z" fill="#0a4ca4"/>
<path d="M85.559 37.1597C85.2901 36.8698 84.8718 36.774 84.5038 36.9179C84.1358 37.0626 83.8936 37.4178 83.8936 37.8125V39.5628V40.7043V43.4947V44.6556V46.406C83.8936 46.8028 84.1378 47.1587 84.508 47.3019C84.8786 47.4453 85.2987 47.3458 85.5658 47.0519L89.5072 42.7115C89.8427 42.3422 89.8403 41.7778 89.5008 41.4123L85.559 37.1597Z" fill="#0a4ca4"/>
</g>
<defs>
<clipPath id="clip0">
<rect width="110" height="110" fill="white"/>
</clipPath>
</defs>
</svg>
