<svg width="110" height="110" viewBox="0 0 110 110" fill="none" xmlns="http://www.w3.org/2000/svg">
<g clip-path="url(#clip0)">
<rect width="110" height="110" fill="white"/>
<path d="M0 90.6235L41.0729 90.4857C41.11 90.5474 41.1223 90.5721 41.1717 90.6339C41.1717 90.6339 35.5 101.5 35.2278 102.06C35.9127 102.06 37.1077 102.06 38.2442 102.06H71.7445C72.8809 102.06 75.3638 102.06 75.3638 102.06L68.8169 90.6339C68.8539 90.5721 68.8663 90.5474 68.9157 90.4857L110 90.6235C110 90.6235 110 88.6945 110 86.4834V17.0149C110 17.0149 108.209 17.0124 105.998 17.0124H39.6894C39.22 17.0124 38.8247 17.3953 38.8247 17.877V22.781C38.8247 23.2504 39.2077 23.6457 39.6894 23.6457H101.539C102.095 23.6457 102.552 24.1027 102.552 24.6586V73.3403C102.552 73.8961 102.095 74.3532 101.539 74.3532H8.43732C7.88146 74.3532 7.42441 73.8961 7.42441 73.3403V24.6463C7.42441 24.0904 7.88146 23.6334 8.43732 23.6334H13.7737C14.2431 23.6334 14.6383 23.2504 14.6383 22.7687V17.8647C14.6383 17.3953 14.2554 17 13.7737 17H4.00272C1.79161 17 0.000481784 17.015 0.000481784 17.015V86.4711C0.000481784 88.6945 0 90.6235 0 90.6235Z" fill="#0a4ca4"/>
<path d="M81.6261 31.3347H46.6064V42.8597H81.6261V31.3347Z" fill="#0a4ca4"/>
<path d="M94.4358 47.1953H46.6064V53.3099H94.4358V47.1953Z" fill="#0a4ca4"/>
<path d="M86.073 58.8438H46.6064V61.3884H86.073V58.8438Z" fill="#0a4ca4"/>
<path d="M94.4358 66.7744H46.6064V69.3191H94.4358V66.7744Z" fill="#0a4ca4"/>
<path d="M24.6688 65.2302C25.7187 66.5766 27.7446 66.5766 28.7945 65.2302L35.3908 56.781C35.7614 56.324 35.9467 55.7558 35.9467 55.1628V9.61875C35.9467 8.1735 34.7732 7 33.3279 7H20.1354C18.6901 7 17.5166 8.1735 17.5166 9.61875V55.1628C17.5166 55.7558 17.7019 56.324 18.0725 56.781L24.6688 65.2302ZM28.5969 17.6727H31.8456V51.4571H28.5969V17.6727ZM21.2594 17.6727H24.4958V51.4571H21.2594V17.6727Z" fill="#0a4ca4"/>
</g>
<defs>
<clipPath id="clip0">
<rect width="110" height="110" fill="white"/>
</clipPath>
</defs>
</svg>
