<svg width="110" height="110" viewBox="0 0 110 110" fill="none" xmlns="http://www.w3.org/2000/svg">
<g clip-path="url(#clip0)">
<rect width="110" height="110" fill="white"/>
<path d="M82.5931 84.4758H75.1924V95.1621H82.5931V84.4758Z" fill="#0a4ca4"/>
<path d="M59.0982 11.4007C59.1559 11.4081 59.2131 11.4195 59.2692 11.4347C59.3231 11.4419 59.3765 11.4525 59.4289 11.4667C59.6531 11.5182 59.8596 11.6282 60.0273 11.7856L74.8073 26.5656C74.9645 26.733 75.0745 26.9391 75.1261 27.1629C75.1403 27.2156 75.151 27.2692 75.158 27.3234C75.1733 27.3796 75.1847 27.4369 75.1922 27.4947V51.1862H82.5929V4H10.043V11.4007H59.0982Z" fill="#0a4ca4"/>
<path d="M72.5638 85.6446L58.0425 95.9745C57.846 96.1142 57.6148 96.1972 57.3743 96.2143C57.1338 96.2314 56.8932 96.182 56.6788 96.0715C56.4645 95.961 56.2848 95.7936 56.1593 95.5877C56.0337 95.3818 55.9673 95.1454 55.9672 94.9042V84.4757H49.1268C46.9191 84.4733 44.8025 83.5953 43.2413 82.0343C41.6801 80.4733 40.8018 78.3568 40.7991 76.149V59.513C40.8018 57.3052 41.6801 55.1887 43.2413 53.6277C44.8025 52.0667 46.9191 51.1887 49.1268 51.1863H72.5638V28.8089H59.0977C58.9252 28.8089 58.7543 28.7749 58.5949 28.7089C58.4354 28.6429 58.2906 28.5461 58.1685 28.4241C58.0465 28.302 57.9497 28.1572 57.8837 27.9977C57.8177 27.8383 57.7837 27.6674 57.7837 27.4949V14.0288H0V105.204H72.5638V85.6446ZM22.4416 39.3252H55.2584C55.4314 39.3245 55.6028 39.358 55.7629 39.4237C55.9229 39.4894 56.0684 39.5861 56.191 39.7082C56.3136 39.8303 56.4108 39.9753 56.4772 40.1351C56.5436 40.2949 56.5777 40.4662 56.5777 40.6392C56.5777 40.8122 56.5436 40.9835 56.4772 41.1433C56.4108 41.3031 56.3136 41.4482 56.191 41.5702C56.0684 41.6923 55.9229 41.789 55.7629 41.8547C55.6028 41.9204 55.4314 41.9539 55.2584 41.9532H22.4416C22.2686 41.9539 22.0972 41.9204 21.9372 41.8547C21.7771 41.789 21.6316 41.6923 21.509 41.5702C21.3865 41.4482 21.2892 41.3031 21.2228 41.1433C21.1564 40.9835 21.1223 40.8122 21.1223 40.6392C21.1223 40.4662 21.1564 40.2949 21.2228 40.1351C21.2892 39.9753 21.3865 39.8303 21.509 39.7082C21.6316 39.5861 21.7771 39.4894 21.9372 39.4237C22.0972 39.358 22.2686 39.3245 22.4416 39.3252V39.3252ZM15.1147 58.3028H29.7686C30.1171 58.3028 30.4513 58.4412 30.6977 58.6877C30.9441 58.9341 31.0826 59.2683 31.0826 59.6168C31.0826 59.9653 30.9441 60.2995 30.6977 60.5459C30.4513 60.7924 30.1171 60.9308 29.7686 60.9308H15.1147C14.7662 60.9308 14.432 60.7924 14.1856 60.5459C13.9391 60.2995 13.8007 59.9653 13.8007 59.6168C13.8007 59.2683 13.9391 58.9341 14.1856 58.6877C14.432 58.4412 14.7662 58.3028 15.1147 58.3028ZM15.1147 77.2793H29.7686C29.9416 77.2786 30.113 77.3121 30.2731 77.3778C30.4331 77.4435 30.5786 77.5402 30.7012 77.6623C30.8238 77.7843 30.921 77.9294 30.9874 78.0892C31.0538 78.249 31.0879 78.4203 31.0879 78.5933C31.0879 78.7663 31.0538 78.9376 30.9874 79.0974C30.921 79.2571 30.8238 79.4022 30.7012 79.5243C30.5786 79.6464 30.4331 79.7431 30.2731 79.8088C30.113 79.8745 29.9416 79.908 29.7686 79.9073H15.1147C14.9417 79.908 14.7703 79.8745 14.6102 79.8088C14.4502 79.7431 14.3047 79.6464 14.1821 79.5243C14.0595 79.4022 13.9623 79.2571 13.8959 79.0974C13.8295 78.9376 13.7953 78.7663 13.7953 78.5933C13.7953 78.4203 13.8295 78.249 13.8959 78.0892C13.9623 77.9294 14.0595 77.7843 14.1821 77.6623C14.3047 77.5402 14.4502 77.4435 14.6102 77.3778C14.7703 77.3121 14.9417 77.2786 15.1147 77.2793Z" fill="#0a4ca4"/>
<path d="M60.4111 15.8872V26.1807H70.7068L60.4111 15.8872Z" fill="#0a4ca4"/>
<path d="M104.301 53.8142H49.1273C47.6163 53.8157 46.1676 54.4165 45.0991 55.4849C44.0306 56.5532 43.4295 58.0018 43.4277 59.5128V76.1489C43.4295 77.6599 44.0306 79.1085 45.0991 80.1769C46.1676 81.2452 47.6163 81.846 49.1273 81.8475H57.2818C57.4544 81.8475 57.6253 81.8815 57.7847 81.9475C57.9441 82.0135 58.089 82.1103 58.211 82.2323C58.333 82.3543 58.4298 82.4992 58.4959 82.6586C58.5619 82.8181 58.5959 82.989 58.5958 83.1615V92.3574L73.0262 82.0913C73.2485 81.9329 73.5146 81.8477 73.7875 81.8475H104.301C105.812 81.8458 107.261 81.2449 108.329 80.1766C109.397 79.1082 109.998 77.6598 110 76.1489V59.5128C109.998 58.002 109.397 56.5535 108.329 55.4852C107.261 54.4168 105.812 53.8159 104.301 53.8142V53.8142ZM59.2384 72.4913C58.3173 72.4911 57.4169 72.2178 56.6511 71.7059C55.8854 71.1941 55.2886 70.4666 54.9362 69.6156C54.5839 68.7645 54.4918 67.8281 54.6716 66.9248C54.8514 66.0214 55.2951 65.1916 55.9465 64.5404C56.5978 63.8891 57.4277 63.4457 58.3311 63.266C59.2345 63.0864 60.1709 63.1787 61.0219 63.5312C61.8728 63.8838 62.6002 64.4807 63.1119 65.2466C63.6236 66.0125 63.8967 66.9129 63.8967 67.834C63.8954 69.0689 63.4041 70.2529 62.5308 71.1261C61.6574 71.9992 60.4733 72.4903 59.2384 72.4913ZM76.7139 72.4913C75.7927 72.4913 74.8923 72.2182 74.1263 71.7065C73.3604 71.1947 72.7635 70.4674 72.4109 69.6163C72.0584 68.7653 71.9662 67.8289 72.1459 66.9254C72.3256 66.022 72.7691 65.1921 73.4205 64.5408C74.0718 63.8894 74.9017 63.4458 75.8051 63.2661C76.7085 63.0864 77.645 63.1786 78.496 63.5311C79.347 63.8836 80.0744 64.4806 80.5862 65.2465C81.098 66.0124 81.3711 66.9128 81.3711 67.834C81.3698 69.0688 80.8787 70.2526 80.0055 71.1257C79.1324 71.9989 77.9486 72.49 76.7138 72.4913H76.7139ZM94.1893 72.4913C93.2682 72.4913 92.3677 72.2182 91.6018 71.7064C90.8359 71.1947 90.239 70.4673 89.8865 69.6163C89.534 68.7652 89.4418 67.8288 89.6215 66.9254C89.8012 66.0219 90.2447 65.1921 90.8961 64.5407C91.5474 63.8894 92.3773 63.4458 93.2807 63.2661C94.1842 63.0864 95.1206 63.1786 95.9716 63.5311C96.8227 63.8836 97.55 64.4806 98.0618 65.2465C98.5735 66.0124 98.8467 66.9128 98.8467 67.834C98.8454 69.0688 98.3542 70.2527 97.481 71.1258C96.6079 71.9989 95.424 72.49 94.1892 72.4913H94.1893Z" fill="#0a4ca4"/>
<path d="M59.2382 65.8049C58.8368 65.8051 58.4446 65.9243 58.111 66.1474C57.7775 66.3706 57.5175 66.6876 57.3641 67.0584C57.2107 67.4292 57.1707 67.8372 57.2491 68.2307C57.3275 68.6243 57.5209 68.9858 57.8047 69.2695C58.0885 69.5532 58.4501 69.7463 58.8437 69.8245C59.2373 69.9028 59.6453 69.8625 60.016 69.7089C60.3868 69.5553 60.7036 69.2952 60.9266 68.9615C61.1495 68.6278 61.2685 68.2355 61.2685 67.8342C61.268 67.296 61.054 66.7799 60.6733 66.3994C60.2926 66.0189 59.7764 65.8051 59.2382 65.8049V65.8049Z" fill="#0a4ca4"/>
<path d="M76.7138 69.8635C77.8346 69.8635 78.7431 68.9549 78.7431 67.8342C78.7431 66.7135 77.8346 65.8049 76.7138 65.8049C75.5931 65.8049 74.6846 66.7135 74.6846 67.8342C74.6846 68.9549 75.5931 69.8635 76.7138 69.8635Z" fill="#0a4ca4"/>
<path d="M94.1884 69.8635C95.3092 69.8635 96.2177 68.9549 96.2177 67.8342C96.2177 66.7135 95.3092 65.8049 94.1884 65.8049C93.0677 65.8049 92.1592 66.7135 92.1592 67.8342C92.1592 68.9549 93.0677 69.8635 94.1884 69.8635Z" fill="#0a4ca4"/>
</g>
<defs>
<clipPath id="clip0">
<rect width="110" height="110" fill="white"/>
</clipPath>
</defs>
</svg>
