<svg width="110" height="110" viewBox="0 0 110 110" fill="none" xmlns="http://www.w3.org/2000/svg">
<g clip-path="url(#clip0)">
<rect width="110" height="110" fill="white"/>
<path d="M58.2512 86.6832V86.6817C50.7302 84.5447 43.1846 90.2313 43.1846 98.0799C43.1846 104.612 48.4986 109.926 55.0303 109.926C61.5621 109.926 66.8761 104.612 66.8761 98.0799C66.8761 92.6648 63.2221 88.09 58.2512 86.6832V86.6832Z" fill="#0a4ca4"/>
<path d="M98.1547 86.2341C92.7397 86.2341 88.165 89.8876 86.7579 94.8581H80.6754V79.2476C80.6754 75.4899 77.6198 72.4343 73.8621 72.4343H64.6934V78.8761H73.8621C74.0683 78.8761 74.2336 79.0436 74.2336 79.2476V95.3262C74.2336 98.6201 76.9134 101.3 80.2073 101.3H86.7575C88.1641 106.271 92.7393 109.925 98.1547 109.925C104.686 109.925 110 104.611 110 98.0796C110 91.5479 104.686 86.2341 98.1547 86.2341V86.2341Z" fill="#0a4ca4"/>
<path d="M22.5335 63.5564C22.6076 63.5564 21.8161 63.5581 51.8094 63.4944V80.0765C53.8709 79.7083 56.0807 79.6887 58.2511 80.0765C58.2511 79.2492 58.2511 66.1174 58.2511 63.4806L87.6625 63.4181C99.7556 63.393 110 53.7439 110 41.1558C110 26.2537 96.9545 14.9557 82.8009 17.6206C79.6129 13.0175 74.3779 10.262 68.6303 10.3369C58.4828 -5.81173 33.8605 -2.36023 28.5436 15.9601C8.89262 12.027 -6.06881 33.3009 2.43947 51.0463C6.09217 58.6501 13.9754 63.5568 22.5335 63.5564V63.5564Z" fill="#0a4ca4"/>
<path d="M45.3676 72.4343H36.1988C32.4411 72.4343 29.3856 75.4899 29.3856 79.2476V94.8581H23.3031C21.896 89.8876 17.3213 86.2341 11.9063 86.2341C5.37457 86.2341 0.0605469 91.5479 0.0605469 98.0796C0.0605469 104.611 5.37457 109.925 11.9063 109.925C17.3217 109.925 21.8968 106.271 23.3035 101.3H29.8537C33.1476 101.3 35.8274 98.6201 35.8274 95.3262V79.2476C35.8274 79.0436 35.9927 78.8761 36.1988 78.8761H45.3676V72.4343Z" fill="#0a4ca4"/>
</g>
<defs>
<clipPath id="clip0">
<rect width="110" height="110" fill="white"/>
</clipPath>
</defs>
</svg>
