<svg width="110" height="110" viewBox="0 0 110 110" fill="none" xmlns="http://www.w3.org/2000/svg">
<g clip-path="url(#clip0)">
<rect width="110" height="110" fill="white"/>
<path d="M3.4834 61.1479V57.1199V51.5019C3.4834 50.3359 4.0134 49.1699 4.9674 48.4279C10.0554 44.1879 15.5674 41.4319 16.7334 40.9019C16.8394 40.7959 16.9454 40.6899 16.9454 40.5839V37.6159C16.2034 36.3439 15.7794 34.8599 15.5674 33.5879C15.1434 33.5879 14.5074 32.9519 13.8714 30.6199C13.6594 29.8779 13.5534 29.3479 13.5534 28.8179C13.4474 27.4399 13.9774 27.1219 14.6134 27.1219H14.7194C14.4014 26.2739 14.2954 25.5319 14.2954 24.7899C14.2954 24.0479 14.4014 23.1999 14.5074 22.4579C14.9314 20.7619 15.8854 19.3839 16.9454 18.2179C17.5814 17.4759 18.3234 16.8399 19.1714 16.4159C19.8074 15.9919 20.5494 15.5679 21.2914 15.3559C21.9274 15.1439 22.5634 15.0379 23.1994 14.9319C23.5174 14.9319 23.7294 14.9319 24.0474 14.9319C25.7434 14.9319 27.1214 15.4619 28.0754 15.9919C29.7714 16.9459 30.5134 18.2179 30.5134 18.2179C30.5134 18.2179 32.6334 18.3239 33.2694 21.3979C33.5874 22.7759 33.5874 24.7899 32.9514 27.6519C33.2694 27.7579 33.4814 27.9699 33.5874 28.4999C33.6934 29.0299 33.5874 29.8779 33.2694 31.0439C32.6334 33.3759 31.9974 34.0119 31.5734 34.0119C31.4674 34.0119 31.3614 34.0119 31.2554 33.9059C31.0434 34.9659 30.7254 36.0259 30.3014 37.0859V40.4779C30.3014 40.5839 30.4074 40.6899 30.5134 40.7959C30.8314 41.0079 31.5734 41.3259 32.6334 41.8559C31.1494 43.3399 30.3014 45.3539 30.3014 47.5799V53.5159V61.1479H3.4834ZM105.031 48.3219C99.9434 44.0819 94.4314 41.3259 93.2654 40.7959C93.1594 40.7959 93.1594 40.6899 93.1594 40.4779V37.0859C93.6894 36.0259 94.0074 34.8599 94.1134 33.9059C94.2194 34.0119 94.3254 34.0119 94.4314 34.0119C94.8554 34.0119 95.4914 33.3759 96.1274 31.0439C96.4454 29.8779 96.5514 29.0299 96.4454 28.4999C96.3394 27.9699 96.1274 27.7579 95.8094 27.6519C96.4454 24.7899 96.3394 22.7759 96.1274 21.3979C95.4914 18.3239 93.3714 18.2179 93.3714 18.2179C93.3714 18.2179 92.7354 16.9459 90.9334 15.9919C89.9794 15.3559 88.6014 14.9319 86.9054 14.9319C86.5874 14.9319 86.3754 14.9319 86.0574 14.9319C85.3154 14.9319 84.6794 15.1439 84.1494 15.3559C83.4074 15.6739 82.6654 15.9919 82.0294 16.4159C81.1814 16.9459 80.4394 17.5819 79.8034 18.2179C78.7434 19.2779 77.7894 20.6559 77.3654 22.4579C77.1534 23.1999 77.0474 23.9419 77.1534 24.7899C77.1534 25.5319 77.3654 26.3799 77.5774 27.1219H77.4714C76.9414 27.1219 76.3054 27.4399 76.4114 28.8179C76.4114 29.2419 76.5174 29.8779 76.7294 30.6199C77.3654 32.8459 78.0014 33.4819 78.4254 33.5879C78.6374 34.8599 79.0614 36.3439 79.8034 37.6159V40.5839C79.8034 40.6899 79.6974 40.9019 79.5914 40.9019C79.2734 41.1139 78.5314 41.4319 77.4714 41.9619C78.7434 43.2339 79.5914 45.0359 79.8034 46.8379C79.8034 47.0499 79.8034 47.3679 79.8034 47.5799V53.5159V61.1479H106.515V57.1199V51.5019C106.515 51.1839 106.515 50.8659 106.409 50.6539C106.197 49.6999 105.773 48.9579 105.031 48.3219ZM74.7154 82.3479L72.7014 84.3619L68.6734 80.4399C67.6134 81.9239 66.2354 83.3019 64.7514 84.3619L68.6734 88.2839L66.6594 90.2979C66.4474 90.5099 66.5534 90.9339 66.8714 90.9339L75.6694 91.7819C75.9874 91.7819 76.1994 91.5699 76.1994 91.2519L75.3514 82.4539C75.3514 82.3479 74.9274 82.1359 74.7154 82.3479ZM38.1454 70.6879C38.1454 69.7339 38.2514 68.8859 38.3574 67.9319H32.7394V65.0699C32.7394 64.7519 32.4214 64.5399 32.1034 64.7519L25.3194 70.3699C25.1074 70.5819 25.1074 70.8999 25.3194 71.1119L32.1034 76.7299C32.3154 76.9419 32.7394 76.7299 32.7394 76.4119V73.5499H38.3574C38.2514 72.4899 38.1454 71.6419 38.1454 70.6879ZM77.7894 64.7519C77.5774 64.5399 77.1534 64.7519 77.1534 65.0699V67.9319H71.5354C71.6414 68.7799 71.7474 69.7339 71.7474 70.6879C71.7474 71.6419 71.6414 72.4899 71.5354 73.4439H77.2594V76.3059C77.2594 76.6239 77.5774 76.8359 77.8954 76.6239L84.6794 71.0059C84.8914 70.7939 84.8914 70.4759 84.6794 70.2639L77.7894 64.7519ZM41.3254 80.4399L37.4034 84.3619L35.3894 82.3479C35.1774 82.1359 34.7534 82.2419 34.7534 82.5599L33.7994 91.3579C33.7994 91.6759 34.0114 91.8879 34.3294 91.8879L43.1274 91.0399C43.4454 91.0399 43.5514 90.6159 43.3394 90.4039L41.2194 88.2839L45.1414 84.3619C43.6574 83.3019 42.3854 82.0299 41.3254 80.4399ZM60.6174 92.9479H57.7554V87.3299C56.9074 87.4359 55.9534 87.5419 54.9994 87.5419C54.0454 87.5419 53.1974 87.4359 52.2434 87.3299V92.9479H49.3814C49.0634 92.9479 48.8514 93.2659 49.0634 93.5839L54.6814 100.368C54.8934 100.58 55.2114 100.58 55.4234 100.368L61.0414 93.5839C61.1474 93.2659 60.9354 92.9479 60.6174 92.9479ZM57.0134 53.8339C61.9954 54.4699 66.3414 57.2259 69.0974 61.1479H75.8814V53.5159V47.5799C75.8814 46.3079 75.3514 45.1419 74.3974 44.3999C69.0974 40.0539 63.2674 37.0859 62.1014 36.5559C61.9954 36.4499 61.8894 36.3439 61.8894 36.2379V32.6339C62.4194 31.5739 62.7374 30.4079 62.9494 29.3479C63.0554 29.4539 63.1614 29.4539 63.2674 29.4539C63.6914 29.4539 64.3274 28.8179 65.0694 26.3799C65.8114 23.8359 65.3874 22.9879 64.7514 22.7759C66.7654 13.2359 62.2074 12.9179 62.2074 12.9179C62.2074 12.9179 61.5714 11.6459 59.6634 10.5859C58.6034 9.94992 57.2254 9.41992 55.4234 9.41992C55.1054 9.41992 54.8934 9.41992 54.5754 9.41992C53.8334 9.41992 53.1974 9.63192 52.5614 9.84392C51.7134 10.1619 50.9714 10.4799 50.3354 11.0099C49.4874 11.5399 48.7454 12.1759 48.0034 12.9179C46.9434 14.0839 45.8834 15.4619 45.4594 17.2639C45.0354 18.7479 45.0354 20.4439 45.6714 22.1399H45.5654C44.8234 22.1399 43.9754 22.7759 44.8234 25.7439C45.4594 28.0759 46.0954 28.7119 46.6254 28.8179C46.8374 30.1959 47.2614 31.6799 48.0034 33.0579V36.1319C48.0034 36.2379 47.8974 36.4499 47.7914 36.4499C46.6254 36.9799 40.9014 39.9479 35.4954 44.2939C34.5414 45.0359 34.0114 46.3079 34.0114 47.4739V53.4099V61.0419H40.7954C43.4454 57.0139 47.7914 54.2579 52.8794 53.7279L53.8334 45.8839C49.5934 39.9479 54.1514 39.6299 54.9994 39.6299C55.8474 39.6299 60.4054 39.9479 56.1654 45.8839L57.0134 53.8339ZM68.4614 70.6879C68.4614 78.1079 62.4194 84.1499 54.9994 84.1499C47.5794 84.1499 41.5374 78.1079 41.5374 70.6879C41.5374 63.2679 47.5794 57.2259 54.9994 57.2259C62.4194 57.2259 68.4614 63.2679 68.4614 70.6879Z" fill="#0a4ca4"/>
<path d="M50.0537 65.6001L59.947 75.1401M59.947 65.6001L50.0537 75.1401" stroke="white" stroke-width="5"/>
</g>
<defs>
<clipPath id="clip0">
<rect width="110" height="110" fill="white"/>
</clipPath>
</defs>
</svg>
