<svg width="110" height="110" viewBox="0 0 110 110" fill="none" xmlns="http://www.w3.org/2000/svg">
<g clip-path="url(#clip0)">
<rect width="110" height="110" fill="white"/>
<path d="M30.4286 23.2143H33.1151C33.5429 23.2146 33.9586 23.0727 34.297 22.8108C34.6353 22.549 34.8769 22.1821 34.9839 21.7679C35.4758 19.8528 36.2354 18.0167 37.2403 16.3139C37.4575 15.9456 37.5462 15.5156 37.4925 15.0915C37.4387 14.6673 37.2455 14.273 36.9433 13.9706L35.0436 12.071L40.4976 6.61507L42.3992 8.51471C42.7016 8.81695 43.0959 9.01013 43.52 9.06389C43.9442 9.11765 44.3742 9.02895 44.7424 8.81171C46.4455 7.80737 48.2816 7.04777 50.1964 6.55529C50.6103 6.44842 50.977 6.20706 51.2388 5.86915C51.5006 5.53123 51.6428 5.1159 51.6429 4.68843V2H59.3571V4.68843C59.3572 5.1159 59.4994 5.53123 59.7612 5.86915C60.023 6.20706 60.3897 6.44842 60.8036 6.55529C62.719 7.04799 64.5556 7.80757 66.2595 8.81171C66.6278 9.02895 67.0577 9.11765 67.4819 9.06389C67.906 9.01013 68.3003 8.81695 68.6027 8.51471L70.5004 6.617L75.9544 12.071L74.0567 13.9706C73.7542 14.2728 73.5606 14.667 73.5065 15.0911C73.4524 15.5153 73.5408 15.9454 73.7578 16.3139C74.7634 18.0163 75.523 19.8525 76.0142 21.7679C76.1212 22.1821 76.3628 22.549 76.7011 22.8108C77.0394 23.0727 77.4552 23.2146 77.883 23.2143H80.5714V30.9286H72.4097C72.999 28.3837 73.0063 25.7387 72.431 23.1906C71.8558 20.6426 70.7128 18.2572 69.0874 16.2123C67.4619 14.1675 65.3959 12.5159 63.0433 11.3807C60.6907 10.2454 58.1122 9.65582 55.5 9.65582C52.8878 9.65582 50.3093 10.2454 47.9567 11.3807C45.6041 12.5159 43.5381 14.1675 41.9126 16.2123C40.2872 18.2572 39.1442 20.6426 38.569 23.1906C37.9937 25.7387 38.001 28.3837 38.5903 30.9286H30.4286V23.2143ZM42.5593 30.9286C41.9606 28.9141 41.8406 26.7876 42.2087 24.7185C42.5768 22.6494 43.4229 20.6948 44.6795 19.0104C45.9362 17.326 47.5688 15.9582 49.4474 15.0159C51.3259 14.0737 53.3984 13.5831 55.5 13.5831C57.6016 13.5831 59.6741 14.0737 61.5527 15.0159C63.4312 15.9582 65.0638 17.326 66.3205 19.0104C67.5771 20.6948 68.4232 22.6494 68.7913 24.7185C69.1594 26.7876 69.0394 28.9141 68.4407 30.9286H42.5593ZM90.2143 50.9144L62.3985 63.8956C62.066 64.0508 61.7847 64.2976 61.5876 64.6071C61.3905 64.9166 61.2858 65.2759 61.2857 65.6429V74.0939L49.7143 79.8796V65.6429C49.7141 65.2757 49.6091 64.9163 49.4116 64.6067C49.2141 64.2972 48.9324 64.0505 48.5996 63.8956L20.7857 50.9144V46.3571H90.2143V50.9144ZM96 42.5H15V34.7857H96V42.5Z" fill="#0a4ca4"/>
<g clip-path="url(#clip1)">
<path d="M54.5067 83C47.8501 83 42.4531 88.397 42.4531 95.0536C42.4531 101.71 47.8501 107.107 54.5067 107.107C61.1633 107.107 66.5603 101.71 66.5603 95.0536C66.5603 88.397 61.1633 83 54.5067 83ZM57.4432 92.0402H58.2734C58.6893 92.0402 59.0268 92.3777 59.0268 92.7935C59.0268 93.2094 58.6893 93.5469 58.2734 93.5469H57.4432C57.0937 95.2645 55.5719 96.5603 53.7533 96.5603H52.5585L57.2986 101.3C57.5924 101.594 57.5924 102.072 57.2986 102.366C57.1525 102.513 56.9596 102.587 56.7667 102.587C56.5739 102.587 56.381 102.513 56.2334 102.367L50.2066 96.3403C49.9911 96.1233 49.9263 95.8009 50.0439 95.5191C50.1599 95.2374 50.4356 95.0536 50.74 95.0536H53.7533C54.7342 95.0536 55.5629 94.4223 55.8748 93.5469H50.74C50.3241 93.5469 49.9866 93.2094 49.9866 92.7935C49.9866 92.3777 50.3241 92.0402 50.74 92.0402H55.8748C55.5629 91.1648 54.7342 90.5335 53.7533 90.5335H50.74C50.3241 90.5335 49.9866 90.196 49.9866 89.7801C49.9866 89.3643 50.3241 89.0268 50.74 89.0268H53.7533H58.2734C58.6893 89.0268 59.0268 89.3643 59.0268 89.7801C59.0268 90.196 58.6893 90.5335 58.2734 90.5335H56.7472C57.0801 90.9734 57.3302 91.4797 57.4432 92.0402Z" fill="#0a4ca4"/>
</g>
</g>
<defs>
<clipPath id="clip0">
<rect width="110" height="110" fill="white"/>
</clipPath>
<clipPath id="clip1">
<rect width="24.1071" height="24.1071" fill="white" transform="translate(42.4531 83)"/>
</clipPath>
</defs>
</svg>
