<svg width="110" height="110" viewBox="0 0 110 110" fill="none" xmlns="http://www.w3.org/2000/svg">
<g clip-path="url(#clip0)">
<rect width="110" height="110" fill="white"/>
<path d="M86.4444 0C94.5345 0 101.09 6.5597 101.092 14.6479C101.092 27.3401 86.4444 39.0591 86.4444 39.0591C86.4444 39.0591 71.7965 27.3401 71.7965 14.6479C71.7965 6.5597 78.3543 0 86.4444 0ZM86.4444 20.5117C89.6732 20.5117 92.3018 17.8854 92.3041 14.6498C92.3041 11.4164 89.6732 8.79238 86.4444 8.79238C83.2133 8.79238 80.5846 11.4164 80.5846 14.6498C80.5846 17.8877 83.2133 20.5117 86.4444 20.5117ZM41.2002 99.4231C40.3014 99.4231 39.5727 98.6945 39.5727 97.7956C39.5727 96.8968 40.3014 96.1682 41.2002 96.1682H47.71C48.6089 96.1682 49.3375 96.8968 49.3375 97.7956C49.3375 98.6945 48.6089 99.4231 47.71 99.4231H41.2002ZM54.2199 99.4231C53.3211 99.4231 52.5924 98.6945 52.5924 97.7956C52.5924 96.8968 53.3211 96.1682 54.2199 96.1682H60.7297C61.6286 96.1682 62.3572 96.8968 62.3572 97.7956C62.3572 98.6945 61.6286 99.4231 60.7297 99.4231H54.2199ZM67.5794 99.0057C66.7029 99.205 65.8308 98.6561 65.6315 97.7797C65.4322 96.9032 65.9812 96.0311 66.8577 95.8318C68.762 95.3988 70.54 94.5569 72.0811 93.3713C72.7935 92.8232 73.8153 92.9564 74.3634 93.6688C74.9115 94.3812 74.7784 95.403 74.066 95.951C72.154 97.4221 69.9454 98.4677 67.5794 99.0057ZM78.6955 90.4564C78.2767 91.2517 77.2924 91.5568 76.4972 91.1379C75.7019 90.719 75.3968 89.7348 75.8157 88.9395C76.7173 87.2277 77.2424 85.3383 77.3457 83.3722C77.3929 82.4746 78.1589 81.7852 79.0565 81.8324C79.9541 81.8796 80.6434 82.6455 80.5962 83.5431C80.468 85.9821 79.8154 88.3304 78.6955 90.4564ZM79.3977 76.3538C79.7352 77.1869 79.3336 78.1358 78.5005 78.4734C77.6675 78.8109 76.7185 78.4092 76.381 77.5761C75.6499 75.7716 74.5335 74.1455 73.1162 72.8097C72.4622 72.1932 72.4316 71.1632 73.0481 70.5091C73.6645 69.855 74.6947 69.8246 75.3488 70.4411C77.1055 72.0968 78.49 74.1135 79.3977 76.3538ZM69.1865 66.7443C70.0386 67.0303 70.4976 67.953 70.2116 68.8051C69.9256 69.6572 69.0028 70.1161 68.1507 69.83C66.7918 69.3739 65.3609 69.136 63.9015 69.1307L62.1673 69.1307C61.2684 69.1306 60.5398 68.4019 60.5398 67.5031C60.5399 66.6043 61.2686 65.8757 62.1674 65.8757L63.9074 65.8758C65.7218 65.8824 67.4985 66.1777 69.1865 66.7443ZM55.7019 65.8706C56.6004 65.8953 57.3088 66.6437 57.2841 67.5421C57.2594 68.4406 56.5111 69.149 55.6126 69.1243C53.1632 69.0571 50.797 68.4535 48.6493 67.3699C47.8469 66.965 47.5246 65.9862 47.9295 65.1838C48.3344 64.3813 49.3132 64.059 50.1156 64.4639C51.8379 65.3329 53.7342 65.8166 55.7019 65.8706ZM45.6539 60.8094C46.2095 61.516 46.087 62.5391 45.3804 63.0947C44.6738 63.6502 43.6507 63.5278 43.0951 62.8212C41.6012 60.921 40.5384 58.7143 39.9931 56.3453C39.7915 55.4694 40.338 54.5959 41.2139 54.3942C42.0898 54.1926 42.9634 54.7392 43.1651 55.6151C43.6022 57.5141 44.4545 59.2839 45.6539 60.8094ZM43.139 49.7607C42.9453 50.6384 42.0766 51.1929 41.1989 50.9991C40.3212 50.8054 39.7668 49.9369 39.9605 49.0592C40.4847 46.6846 41.5276 44.4686 43.0046 42.5553C43.5538 41.8438 44.576 41.7123 45.2875 42.2615C45.9989 42.8107 46.1304 43.8328 45.5812 44.5443C44.3955 46.0802 43.5592 47.8573 43.139 49.7607ZM50.0236 40.8433C49.2244 41.2544 48.2431 40.9398 47.832 40.1406C47.4208 39.3413 47.7353 38.36 48.5346 37.9489C50.6743 36.8482 53.0359 36.2261 55.4837 36.14C56.382 36.1084 57.1359 36.811 57.1674 37.7092C57.199 38.6075 56.4964 39.3613 55.5981 39.3929C53.6321 39.4621 51.7395 39.9606 50.0236 40.8433ZM62.1366 39.3846C61.2378 39.3846 60.5091 38.6559 60.5091 37.7571C60.5091 36.8583 61.2378 36.1296 62.1366 36.1296H68.6464C69.5453 36.1296 70.2739 36.8583 70.2739 37.7571C70.2739 38.6559 69.5453 39.3846 68.6464 39.3846H62.1366ZM75.1563 39.3846C74.2575 39.3846 73.5288 38.6559 73.5288 37.7571C73.5288 36.8583 74.2575 36.1296 75.1563 36.1296H78.9921C79.8909 36.1296 80.6196 36.8583 80.6196 37.7571C80.6196 38.6559 79.8909 39.3846 78.9921 39.3846H75.1563Z" fill="#0a4ca4"/>
<path d="M34.9026 86.2449H31.277L22.7273 94.2535L14.0693 86.2449H13.2034C5.62768 87.9765 0 93.7665 0 101.721V110H47.8896V101.721C47.8896 93.8206 42.3701 88.0306 34.9026 86.2449Z" fill="#0a4ca4"/>
<path d="M23.16 84.6753C29.9739 84.6753 35.4976 79.1516 35.4976 72.3377C35.4976 65.5238 29.9739 60 23.16 60C16.346 60 10.8223 65.5238 10.8223 72.3377C10.8223 79.1516 16.346 84.6753 23.16 84.6753Z" fill="#0a4ca4"/>
</g>
<defs>
<clipPath id="clip0">
<rect width="110" height="110" fill="white"/>
</clipPath>
</defs>
</svg>
