<svg width="110" height="110" viewBox="0 0 110 110" fill="none" xmlns="http://www.w3.org/2000/svg">
<g clip-path="url(#clip0)">
<rect width="110" height="110" fill="white"/>
<path d="M0 83.3226C0 83.3226 2.85278 83.3194 6.36792 83.3226H106.322C109.837 83.3194 112.69 83.3226 112.69 83.3226V71.2844H0V83.3226Z" fill="#0a4ca4"/>
<path d="M96.7151 16.4095C98.1148 17.8091 100.384 17.8091 101.785 16.4095C103.185 15.0088 103.185 12.7392 101.785 11.3395C100.384 9.93989 98.1148 9.93989 96.7151 11.3395C95.3176 12.7402 95.3176 15.0077 96.7151 16.4095Z" fill="#0a4ca4"/>
<path d="M50.8203 35.3742H55.3156L53.0674 27.4419L50.8203 35.3742Z" fill="#0a4ca4"/>
<path d="M13.4399 10.2908C11.7311 10.2919 10.2597 11.4999 9.92693 13.1767C9.59521 14.8535 10.493 16.5314 12.0724 17.1852C13.6518 17.839 15.473 17.2847 16.4222 15.8636C17.3713 14.4415 17.1841 12.5475 15.9749 11.3384C15.3029 10.6664 14.3912 10.2886 13.4399 10.2908Z" fill="#0a4ca4"/>
<path d="M12.2642 30.4133C10.5543 30.4133 9.08188 31.6214 8.74802 33.2993C8.41416 34.9761 9.31194 36.6561 10.8924 37.3109C12.4718 37.9647 14.2952 37.4126 15.2454 35.9905C16.1956 34.5684 16.0084 32.6733 14.7992 31.4641C14.1283 30.7889 13.2155 30.4112 12.2642 30.4133Z" fill="#0a4ca4"/>
<path d="M13.4398 50.5413C11.731 50.5423 10.2607 51.7515 9.92791 53.4283C9.59619 55.1051 10.494 56.7829 12.0734 57.4357C13.6539 58.0884 15.474 57.5352 16.4232 56.1131C17.3723 54.692 17.184 52.798 15.9748 51.5899C15.3028 50.9169 14.3911 50.5402 13.4398 50.5413Z" fill="#0a4ca4"/>
<path d="M106.322 8.13215e-05H6.36792C2.85278 0.00436156 0 0.000164604 0 0.000164604V67.997H112.69C112.69 67.997 112.005 0 112.69 0C113.375 0 109.837 0.00436156 106.322 8.13215e-05ZM80.9029 41.8298C84.7498 41.834 87.8669 44.9522 87.8711 48.7991C87.8733 50.8311 89.5201 52.4779 91.5532 52.4811H92.5794C93.4108 49.104 96.6317 46.8804 100.084 47.2988C103.536 47.7172 106.132 50.647 106.132 54.1247C106.132 57.6014 103.536 60.5312 100.084 60.9496C96.6317 61.369 93.4108 59.1444 92.5794 55.7683H91.5532C87.7053 55.7641 84.5882 52.6459 84.5839 48.7991C84.5818 46.767 82.935 45.1202 80.9029 45.117H78.5884C74.3766 53.5426 65.7744 58.8726 56.3557 58.8961C55.5297 58.8961 54.6993 58.8555 53.8668 58.7731C45.3523 57.9299 37.8683 52.7733 34.0472 45.117H31.7883C29.7562 45.1202 28.1094 46.767 28.1072 48.7991C28.103 52.6459 24.9848 55.7641 21.138 55.7683H20.1118C19.2803 59.1444 16.0595 61.369 12.6074 60.9496C9.15543 60.5312 6.55946 57.6014 6.55946 54.1247C6.55946 50.647 9.15543 47.7172 12.6074 47.2988C16.0595 46.8804 19.2803 49.104 20.1118 52.4811H21.138C23.1711 52.4779 24.8179 50.8311 24.82 48.7991C24.8243 44.9522 27.9414 41.834 31.7883 41.8298H32.6828C32.0162 39.8277 31.6096 37.7475 31.4715 35.6416H18.9358C18.1043 39.0187 14.8835 41.2423 11.4314 40.8239C7.97943 40.4055 5.38347 37.4757 5.38347 33.998C5.38347 30.5214 7.97943 27.5916 11.4314 27.1721C14.8835 26.7537 18.1043 28.9784 18.9358 32.3544H31.4715C31.4897 32.089 31.51 31.8226 31.5368 31.5561C31.7166 29.7231 32.0996 27.9158 32.6785 26.1684H31.7872C27.9403 26.163 24.8232 23.046 24.819 19.1991C24.8168 17.167 23.17 15.5192 21.1369 15.517H20.1107C19.8132 16.7347 19.1862 17.8476 18.2991 18.7325C16.0905 20.9444 12.6684 21.3874 9.96867 19.8122C7.26891 18.2371 5.972 15.0398 6.81093 12.0286C7.64985 9.01747 10.4138 6.95119 13.5384 6.99934C16.664 7.04642 19.3638 9.1951 20.1107 12.2298H21.138C24.9848 12.2341 28.1019 15.3522 28.1062 19.1991C28.1083 21.2311 29.7551 22.878 31.7883 22.8812H34.0375C38.2493 14.4395 46.8718 9.10522 56.3055 9.10522C65.7391 9.10522 74.3616 14.4395 78.5723 22.8812H80.9008C82.9339 22.878 84.5807 21.2311 84.5828 19.1991C84.5871 15.3522 87.7042 12.2341 91.5521 12.2298H92.5783C93.3263 9.20152 96.0229 7.05819 99.1421 7.01218C102.261 6.96617 105.02 9.02817 105.858 12.034C106.695 15.0398 105.401 18.2318 102.706 19.8047C100.013 21.3788 96.5964 20.9379 94.3899 18.7325C93.5029 17.8476 92.8758 16.7347 92.5783 15.517H91.5521C89.5201 15.5192 87.8722 17.166 87.8701 19.1991C87.8658 23.046 84.7487 26.163 80.9018 26.1684H79.9356C80.6022 28.1694 81.0099 30.2496 81.148 32.3544H93.7533C94.5847 28.9784 97.8056 26.7537 101.258 27.1721C104.71 27.5916 107.306 30.5214 107.306 33.998C107.306 37.4757 104.71 40.4055 101.258 40.8239C97.8056 41.2423 94.5847 39.0187 93.7533 35.6416H81.1469C81.1287 35.908 81.1084 36.1745 81.0827 36.4409C80.9008 38.2739 80.5177 40.0802 79.9399 41.8287L80.9029 41.8298Z" fill="#0a4ca4"/>
<path d="M100.425 37.5838C102.135 37.5838 103.608 36.3757 103.942 34.6989C104.275 33.021 103.378 31.3421 101.797 30.6872C100.218 30.0324 98.3955 30.5856 97.4453 32.0077C96.4951 33.4298 96.6813 35.3249 97.8904 36.534C98.5613 37.2082 99.4741 37.587 100.425 37.5838V37.5838Z" fill="#0a4ca4"/>
<path d="M101.786 56.6586C103.186 55.2578 103.186 52.9883 101.786 51.5886C100.386 50.1879 98.1165 50.1879 96.7157 51.5886C95.3161 52.9883 95.3161 55.2578 96.7157 56.6586C98.1165 58.0561 100.385 58.0561 101.786 56.6586Z" fill="#0a4ca4"/>
<path d="M58.4302 12.4974C48.1726 11.4851 38.6287 17.8605 35.6358 27.7244C32.6428 37.5871 37.0332 48.1914 46.1234 53.0516C55.2136 57.9118 66.4706 55.6732 73.0097 47.7066C79.5499 39.74 79.551 28.2626 73.0129 20.2939C69.3769 15.866 64.1325 13.0613 58.4302 12.4974V12.4974ZM58.1584 42.1166C57.5891 42.1166 57.1504 41.9358 57.0209 41.4457L56.0396 38.0087H50.1222L49.141 41.4468C49.0126 41.9379 48.5728 42.1188 48.0046 42.1188C47.1004 42.1188 45.8858 41.5495 45.8858 40.7234C45.8955 40.6357 45.9126 40.549 45.9372 40.4645L50.9237 24.2135C51.1559 23.4388 52.1115 23.0771 53.0681 23.0771C54.0493 23.0771 55.0049 23.4388 55.2382 24.2135L60.2236 40.4645C60.2503 40.549 60.2685 40.6357 60.2749 40.7234C60.276 41.5228 59.0626 42.1166 58.1584 42.1166ZM65.4176 41.0573C65.4176 41.755 64.5648 42.1166 63.7376 42.1166C62.8848 42.1166 62.0587 41.755 62.0587 41.0573V24.2659C62.0587 23.5426 62.8848 23.2322 63.7376 23.2322C64.5648 23.2322 65.4176 23.5426 65.4176 24.2659V41.0573Z" fill="#0a4ca4"/>
<path d="M85.4651 106.445H70.0284V86.6096H42.6627V106.445H31.8176C30.8482 106.462 30.0713 107.253 30.0713 108.223C30.0713 109.192 30.8482 109.983 31.8176 110H85.4651C86.4345 109.983 87.2114 109.192 87.2114 108.223C87.2114 107.253 86.4345 106.462 85.4651 106.445Z" fill="#0a4ca4"/>
</g>
<defs>
<clipPath id="clip0">
<rect width="110" height="110" fill="white"/>
</clipPath>
</defs>
</svg>
