<svg width="110" height="110" viewBox="0 0 110 110" fill="none" xmlns="http://www.w3.org/2000/svg">
<g clip-path="url(#clip0)">
<rect width="110" height="110" fill="white"/>
<path d="M32.3354 1.88818L14.8877 19.3359H32.3354V1.88818Z" fill="#0a4ca4"/>
<path d="M58.117 45.1171V48.7647L68.4207 41.8944L58.117 35.0242V38.6718H54.8944C43.5489 38.6718 34.1327 47.0904 32.5654 58.0077H39.1051C40.6032 50.6624 47.1114 45.1171 54.8941 45.1171H58.117Z" fill="#0a4ca4"/>
<path d="M38.7812 0V25.7812H13V110H96.7891V0H38.7812ZM25.8906 61.2305C25.8906 46.3257 37.1888 34.0141 51.6719 32.406V22.9836L80.0401 41.8945L51.6719 60.8055V52.1131C47.9205 53.4443 45.2266 57.029 45.2266 61.2305V64.4531H25.8906V61.2305ZM83.8984 61.2305C83.8984 76.1353 72.6002 88.4469 58.1172 90.055V99.4774L29.749 80.5664L58.1172 61.6554V70.3478C61.8686 69.0166 64.5625 65.432 64.5625 61.2305V58.0078H83.8984V61.2305Z" fill="#0a4ca4"/>
<path d="M51.6719 77.3437V73.6961L41.3682 80.5664L51.6719 87.4367V83.7891H54.8945C66.24 83.7891 75.6561 75.3704 77.2234 64.4531H70.6838C69.1857 71.7984 62.6774 77.3437 54.8947 77.3437H51.6719Z" fill="#0a4ca4"/>
</g>
<defs>
<clipPath id="clip0">
<rect width="110" height="110" fill="white"/>
</clipPath>
</defs>
</svg>
