<svg width="110" height="110" viewBox="0 0 110 110" fill="none" xmlns="http://www.w3.org/2000/svg">
<g clip-path="url(#clip0)">
<rect width="110" height="110" fill="white"/>
<path d="M97.8916 33.4036L96.6357 34.6595L99.5707 36.6131L100.824 35.3572L97.8916 33.4036Z" fill="#0a4ca4"/>
<path d="M109.686 21.0111L98.0992 9.42456L91.4102 21.1282L97.9822 27.7002L109.686 21.0111Z" fill="#0a4ca4"/>
<path d="M85.0215 32.7644L86.3408 31.4451L87.6602 32.7644L86.3408 34.0837L85.0215 32.7644Z" fill="#0a4ca4"/>
<path d="M108.394 10.7167C107.575 9.89741 106.348 9.80063 105.385 10.3453L108.765 13.7258C109.31 12.7625 109.213 11.5359 108.394 10.7167Z" fill="#0a4ca4"/>
<path d="M87.2715 26.0137L88.5908 24.6943L94.4109 30.5144L93.0915 31.8337L87.2715 26.0137Z" fill="#0a4ca4"/>
<path d="M15.2559 30.5078L21.0759 24.6878L22.3952 26.0071L16.5752 31.8272L15.2559 30.5078Z" fill="#0a4ca4"/>
<path d="M22.0088 32.7576L23.3281 31.4382L24.6475 32.7576L23.3281 34.0769L22.0088 32.7576Z" fill="#0a4ca4"/>
<path d="M18.2756 21.1282L11.5866 9.42456L0 21.0111L11.7036 27.7002L18.2756 21.1282Z" fill="#0a4ca4"/>
<path d="M11.794 33.4036L8.86133 35.3572L10.115 36.6131L13.0499 34.6595L11.794 33.4036Z" fill="#0a4ca4"/>
<path d="M4.30153 10.3453C3.33823 9.80063 2.1116 9.89741 1.29235 10.7167C0.473094 11.5359 0.376314 12.7625 0.920982 13.7258L4.30153 10.3453Z" fill="#0a4ca4"/>
<path d="M54.8425 12.5014C56.0855 12.5014 57.0932 11.4937 57.0932 10.2507C57.0932 9.00767 56.0855 8 54.8425 8C53.5995 8 52.5918 9.00767 52.5918 10.2507C52.5918 11.4937 53.5995 12.5014 54.8425 12.5014Z" fill="#0a4ca4"/>
<path d="M102.107 59.766C103.35 59.766 104.358 58.7584 104.358 57.5153C104.358 56.2723 103.35 55.2646 102.107 55.2646C100.864 55.2646 99.8564 56.2723 99.8564 57.5153C99.8564 58.7584 100.864 59.766 102.107 59.766Z" fill="#0a4ca4"/>
<path d="M7.57784 59.766C8.82087 59.766 9.82854 58.7584 9.82854 57.5153C9.82854 56.2723 8.82087 55.2646 7.57784 55.2646C6.33482 55.2646 5.32715 56.2723 5.32715 57.5153C5.32715 58.7584 6.33482 59.766 7.57784 59.766Z" fill="#0a4ca4"/>
<path d="M48.6597 12.9471C48.2973 12.1189 48.0903 11.2096 48.0903 10.2508C48.0903 9.62286 48.2051 9.02643 48.3649 8.448C40.2173 9.51708 32.4344 12.5848 25.7656 17.4328L28.4124 21.0744C34.3925 16.7283 41.3607 13.9509 48.6597 12.9471V12.9471Z" fill="#0a4ca4"/>
<path d="M81.2726 21.0744L83.9195 17.4328C77.2506 12.587 69.4677 9.51708 61.3202 8.448C61.48 9.02643 61.5948 9.62286 61.5948 10.2508C61.5948 11.2096 61.3878 12.1189 61.0254 12.9471C68.3244 13.9532 75.2903 16.7283 81.2726 21.0744Z" fill="#0a4ca4"/>
<path d="M102.107 50.7632C102.724 50.7632 103.312 50.8735 103.881 51.0288C103.541 48.436 103.05 45.8635 102.308 43.3674L97.9932 44.6503C98.6414 46.8313 99.0735 49.0797 99.3841 51.3439C100.219 50.977 101.137 50.7632 102.107 50.7632Z" fill="#0a4ca4"/>
<path d="M99.4038 63.6934C98.2402 72.183 94.7359 80.0964 89.1406 86.6707L92.5684 89.5876C98.7916 82.2751 102.665 73.4524 103.901 63.9949C103.327 64.1547 102.733 64.2673 102.107 64.2673C101.144 64.2673 100.232 64.058 99.4038 63.6934V63.6934Z" fill="#0a4ca4"/>
<path d="M5.80469 51.0287C6.37411 50.8734 6.96155 50.7631 7.57824 50.7631C8.54829 50.7631 9.46657 50.9769 10.3016 51.3483C10.6122 49.0841 11.0443 46.8334 11.6925 44.6547L7.37792 43.3718C6.63519 45.8633 6.14454 48.4381 5.80469 51.0287V51.0287Z" fill="#0a4ca4"/>
<path d="M7.57798 64.2673C6.95229 64.2673 6.35811 64.1547 5.78418 63.9949C7.01981 73.4524 10.8933 82.2751 17.1164 89.5876L20.5442 86.6707C14.949 80.0964 11.4424 72.1807 10.2811 63.6934C9.45281 64.058 8.54128 64.2673 7.57798 64.2673Z" fill="#0a4ca4"/>
<path fill-rule="evenodd" clip-rule="evenodd" d="M67.464 50.6767V44.5072C67.464 43.8419 66.9801 43.2371 66.3148 43.1161V34.1643H29.54V101H57.9074L54.7622 97.9757H32.5643V37.1885H39.4596L40.7297 40.2128H54.8832L56.3348 37.1885H63.1091V75.5359H66.2543V60.1728C66.9196 60.0518 67.4035 59.447 67.4035 58.7817V55.092C67.4035 54.4267 66.9196 53.8219 66.2543 53.7009V52.1888C66.9801 51.9469 67.464 51.4025 67.464 50.6767Z" fill="#0a4ca4"/>
<path fill-rule="evenodd" clip-rule="evenodd" d="M81.1346 68.2777C79.2596 66.5841 77.2636 63.9228 75.3886 61.3824C74.0579 59.6284 73.8764 55.5154 72.6667 54.3662C72.0619 53.7614 71.2151 53.1565 70.3078 52.6726V72.0883C70.3078 73.8423 69.5215 75.4149 68.3118 76.5641C67.8884 76.9875 67.5255 77.29 67.1021 77.5924C66.4368 78.0763 65.7715 78.3787 65.0456 78.5601C64.5618 78.6811 64.0779 78.7416 63.5335 78.7416C61.5375 78.7416 59.6625 79.1045 59.2391 77.7133L57.1222 69.1245C55.731 64.4067 46.8397 64.0438 47.9889 69.8503L51.739 87.028C52.0414 88.2982 52.3439 90.4756 53.1906 91.4434L61.1746 100.939H82.4048C82.5862 98.762 82.1628 93.9232 82.4653 91.3829L84.0983 78.4392C84.8242 73.1165 84.4008 71.1205 81.1346 68.2777Z" fill="#0a4ca4"/>
<path fill-rule="evenodd" clip-rule="evenodd" d="M50.952 93.4393C49.7423 91.9877 49.3189 89.8707 49.0165 88.2981C48.956 88.1167 48.956 87.8747 48.8955 87.6933L45.1455 70.5156C44.7221 68.3986 45.1455 66.4631 46.3552 65.0115C47.6254 63.4994 49.6213 62.6526 51.8593 62.6526C55.065 62.6526 58.9965 64.4671 60.1457 68.3986V68.4592V68.5196V43.4185H54.7021H35.5889V95.0119H52.1617L50.952 93.4393Z" fill="#0a4ca4"/>
</g>
<defs>
<clipPath id="clip0">
<rect width="110" height="110" fill="white"/>
</clipPath>
</defs>
</svg>
