<svg width="110" height="110" viewBox="0 0 110 110" fill="none" xmlns="http://www.w3.org/2000/svg">
<g clip-path="url(#clip0)">
<rect width="110" height="110" fill="white"/>
<path d="M90.4444 0C98.5345 0 105.09 6.5597 105.092 14.6479C105.092 27.3401 90.4444 39.0591 90.4444 39.0591C90.4444 39.0591 75.7965 27.3401 75.7965 14.6479C75.7965 6.5597 82.3543 0 90.4444 0ZM90.4444 20.5117C93.6732 20.5117 96.3018 17.8854 96.3041 14.6498C96.3041 11.4164 93.6732 8.79238 90.4444 8.79238C87.2133 8.79238 84.5846 11.4164 84.5846 14.6498C84.5846 17.8877 87.2133 20.5117 90.4444 20.5117ZM45.2002 99.4231C44.3014 99.4231 43.5727 98.6945 43.5727 97.7956C43.5727 96.8968 44.3014 96.1682 45.2002 96.1682H51.71C52.6089 96.1682 53.3375 96.8968 53.3375 97.7956C53.3375 98.6945 52.6089 99.4231 51.71 99.4231H45.2002ZM58.2199 99.4231C57.3211 99.4231 56.5924 98.6945 56.5924 97.7956C56.5924 96.8968 57.3211 96.1682 58.2199 96.1682H64.7297C65.6286 96.1682 66.3572 96.8968 66.3572 97.7956C66.3572 98.6945 65.6286 99.4231 64.7297 99.4231H58.2199ZM71.5794 99.0057C70.7029 99.205 69.8308 98.6561 69.6315 97.7797C69.4322 96.9032 69.9812 96.0311 70.8577 95.8318C72.762 95.3988 74.54 94.5569 76.0811 93.3713C76.7935 92.8232 77.8153 92.9564 78.3634 93.6688C78.9115 94.3812 78.7784 95.403 78.066 95.951C76.154 97.4221 73.9454 98.4677 71.5794 99.0057ZM82.6955 90.4564C82.2767 91.2517 81.2924 91.5568 80.4972 91.1379C79.7019 90.719 79.3968 89.7348 79.8157 88.9395C80.7173 87.2277 81.2424 85.3383 81.3457 83.3722C81.3929 82.4746 82.1589 81.7852 83.0565 81.8324C83.9541 81.8796 84.6434 82.6455 84.5962 83.5431C84.468 85.9821 83.8154 88.3304 82.6955 90.4564ZM83.3977 76.3538C83.7352 77.1869 83.3336 78.1358 82.5005 78.4734C81.6675 78.8109 80.7185 78.4092 80.381 77.5761C79.6499 75.7716 78.5335 74.1455 77.1162 72.8097C76.4622 72.1932 76.4316 71.1632 77.0481 70.5091C77.6645 69.855 78.6947 69.8246 79.3488 70.4411C81.1055 72.0968 82.49 74.1135 83.3977 76.3538ZM73.1865 66.7443C74.0386 67.0303 74.4976 67.953 74.2116 68.8051C73.9256 69.6572 73.0028 70.1161 72.1507 69.83C70.7918 69.3739 69.3609 69.136 67.9015 69.1307L66.1673 69.1307C65.2684 69.1306 64.5398 68.4019 64.5398 67.5031C64.5399 66.6043 65.2686 65.8757 66.1674 65.8757L67.9074 65.8758C69.7218 65.8824 71.4985 66.1777 73.1865 66.7443ZM59.7019 65.8706C60.6004 65.8953 61.3088 66.6437 61.2841 67.5421C61.2594 68.4406 60.5111 69.149 59.6126 69.1243C57.1632 69.0571 54.797 68.4535 52.6493 67.3699C51.8469 66.965 51.5246 65.9862 51.9295 65.1838C52.3344 64.3813 53.3132 64.059 54.1156 64.4639C55.8379 65.3329 57.7342 65.8166 59.7019 65.8706ZM49.6539 60.8094C50.2095 61.516 50.087 62.5391 49.3804 63.0947C48.6738 63.6502 47.6507 63.5278 47.0951 62.8212C45.6012 60.921 44.5384 58.7143 43.9931 56.3453C43.7915 55.4694 44.338 54.5959 45.2139 54.3942C46.0898 54.1926 46.9634 54.7392 47.1651 55.6151C47.6022 57.5141 48.4545 59.2839 49.6539 60.8094ZM47.139 49.7607C46.9453 50.6384 46.0766 51.1929 45.1989 50.9991C44.3212 50.8054 43.7668 49.9369 43.9605 49.0592C44.4847 46.6846 45.5276 44.4686 47.0046 42.5553C47.5538 41.8438 48.576 41.7123 49.2875 42.2615C49.9989 42.8107 50.1304 43.8328 49.5812 44.5443C48.3955 46.0802 47.5592 47.8573 47.139 49.7607ZM54.0236 40.8433C53.2244 41.2544 52.2431 40.9398 51.832 40.1406C51.4208 39.3413 51.7353 38.36 52.5346 37.9489C54.6743 36.8482 57.0359 36.2261 59.4837 36.14C60.382 36.1084 61.1359 36.811 61.1674 37.7092C61.199 38.6075 60.4964 39.3613 59.5981 39.3929C57.6321 39.4621 55.7395 39.9606 54.0236 40.8433ZM66.1366 39.3846C65.2378 39.3846 64.5091 38.6559 64.5091 37.7571C64.5091 36.8583 65.2378 36.1296 66.1366 36.1296H72.6464C73.5453 36.1296 74.2739 36.8583 74.2739 37.7571C74.2739 38.6559 73.5453 39.3846 72.6464 39.3846H66.1366ZM79.1563 39.3846C78.2575 39.3846 77.5288 38.6559 77.5288 37.7571C77.5288 36.8583 78.2575 36.1296 79.1563 36.1296H82.9921C83.8909 36.1296 84.6196 36.8583 84.6196 37.7571C84.6196 38.6559 83.8909 39.3846 82.9921 39.3846H79.1563Z" fill="#0a4ca4"/>
<path d="M38.9026 86.2449H35.277L26.7273 94.2535L18.0693 86.2449H17.2034C9.62768 87.9765 4 93.7665 4 101.721V110H51.8896V101.721C51.8896 93.8206 46.3701 88.0306 38.9026 86.2449Z" fill="#0a4ca4"/>
<path d="M27.16 84.6753C33.9739 84.6753 39.4976 79.1516 39.4976 72.3377C39.4976 65.5238 33.9739 60 27.16 60C20.346 60 14.8223 65.5238 14.8223 72.3377C14.8223 79.1516 20.346 84.6753 27.16 84.6753Z" fill="#0a4ca4"/>
</g>
<defs>
<clipPath id="clip0">
<rect width="110" height="110" fill="white"/>
</clipPath>
</defs>
</svg>
