<svg id="Layer_1" data-name="Layer 1" xmlns="http://www.w3.org/2000/svg" viewBox="0 0 110 110"><defs><style>.cls-1{fill:#0a4ca4;}</style></defs><path class="cls-1" d="M1,10.67v78.8H44.37a2.17,2.17,0,0,0,1.58-.7l5.28-5.92V21.67h2.63V24.4a5.88,5.88,0,0,1,3.28-1h3.39V10.67ZM28.52,63.46l.1-9.2H10.74V45.88H28.62l-.1-9.19L46.64,50.07Z"/><path class="cls-1" d="M109.62,20.53H50.08v78.8H93.44A2.11,2.11,0,0,0,95,98.62l14.06-15.73a2.11,2.11,0,0,0,.54-1.41ZM103,75.6H90.33a2.41,2.41,0,0,0-1.66.68A2.33,2.33,0,0,0,88,77.94L88,93.73H56.44V25.84H103V75.6Z"/><polygon class="cls-1" points="61.9 59.93 80.02 46.55 79.93 55.74 97.8 55.74 97.8 64.12 79.93 64.12 80.02 73.32 61.9 59.93"/></svg>