<svg id="Layer_1" data-name="Layer 1" xmlns="http://www.w3.org/2000/svg" viewBox="0 0 110 110"><defs><style>.cls-1{fill:#0a4ca4;}</style></defs><path class="cls-1" d="M43.33,76.31H57.55v8.36H43.33Zm-11.86.35c-5.59-4.26-11.91,2.06-7.66,7.66C29.41,88.58,35.74,82.25,31.47,76.66Zm54.1-26.91H43.33v8.37H85.57Zm-54.1.35c-5.59-4.26-11.91,2.07-7.66,7.66C29.41,62,35.73,55.7,31.47,50.1Zm54.1-25.44H43.33V33H85.57ZM31.48,25c-5.6-4.26-11.93,2.07-7.66,7.66C29.42,36.93,35.73,30.61,31.48,25ZM9.87,99.73V9.39h90.34V60.83h8.36V1H1.51V108.09H62.36V99.73Zm92.82,8.39-8.33-8.33c-6.14,3.67-14.52,3.95-22.56-1.79a6.18,6.18,0,0,1-1.46-1.47C56.41,77,78.07,55.31,97.63,69.23a6.45,6.45,0,0,1,1.48,1.47c6,8.38,5.42,17.13,1.3,23.32l8.19,8.19ZM77.09,91.27C88.23,99.83,100.94,87.13,92.38,76,81.24,67.42,68.52,80.13,77.09,91.27Z"/></svg>