<svg id="Layer_1" data-name="Layer 1" xmlns="http://www.w3.org/2000/svg" viewBox="0 0 110 110"><defs><style>.cls-1{fill:#0a4ca4;fill-rule:evenodd;}</style></defs><path class="cls-1" d="M65.55,46.17a27.63,27.63,0,0,1,10.58,6.12l4.65-2.68a4.72,4.72,0,0,1,6.43,1.72l3.47,6A4.73,4.73,0,0,1,89,63.77l-4.63,2.68c.1.45-.14.84-.06,1.3C78.45,66.32,72.8,64.88,70,65.12a14.61,14.61,0,0,0-24.65-.78c-4.19.44-8.36,1.87-15.41,5.49a28.69,28.69,0,0,1,.54-3.38L25.8,63.77a4.73,4.73,0,0,1-1.73-6.44l3.47-6A4.73,4.73,0,0,1,34,49.61l4.64,2.68A27.63,27.63,0,0,1,49.2,46.17V40.82a4.73,4.73,0,0,1,4.71-4.72h6.93a4.73,4.73,0,0,1,4.71,4.72v5.35ZM86,.84a4.89,4.89,0,0,1,4.88,4.89c0,4.45-3.25,2.82-3.25,6.2h7.63a7.87,7.87,0,0,1,7.85,7.85v7.63c-3.39,0-1.75-3.25-6.2-3.25a4.89,4.89,0,1,0,0,9.77c4.45,0,2.81-3.24,6.2-3.24v7.63a7.87,7.87,0,0,1-7.85,7.84H87.6c0-3.39,3.25-1.75,3.25-6.2a4.89,4.89,0,1,0-9.77,0c0,4.45,3.25,2.81,3.25,6.2H76.7a7.87,7.87,0,0,1-7.85-7.84V30.69c-3.39,0-1.75,3.24-6.2,3.24a4.89,4.89,0,1,1,0-9.77c4.45,0,2.81,3.25,6.2,3.25V19.78a7.87,7.87,0,0,1,7.85-7.85h7.63c0-3.39-3.25-1.75-3.25-6.2A4.89,4.89,0,0,1,86,.84Zm-54.2,11a16.41,16.41,0,0,1,7.25.58l1.8-2.63a2.81,2.81,0,0,1,3.9-.71l3.39,2.34a2.8,2.8,0,0,1,.72,3.89L47,18A16.08,16.08,0,0,1,49,21.07a16.72,16.72,0,0,1,1.2,3.46l3.17.25a2.81,2.81,0,0,1,2.57,3l-.33,4.11a2.81,2.81,0,0,1-3,2.57l-3.17-.25a16.34,16.34,0,0,1-4.12,6l1.36,2.88a2.8,2.8,0,0,1-1.32,3.73l-3.72,1.77a2.82,2.82,0,0,1-3.74-1.33l-1.36-2.87a16.42,16.42,0,0,1-7.25-.59l-1.81,2.63a2.8,2.8,0,0,1-3.89.72L20.13,44.8a2.81,2.81,0,0,1-.72-3.9l1.81-2.62a16.08,16.08,0,0,1-1.93-3.11,16.63,16.63,0,0,1-1.2-3.45l-3.17-.26a2.81,2.81,0,0,1-2.57-3l.33-4.11a2.81,2.81,0,0,1,3-2.57l3.17.26A16.5,16.5,0,0,1,23,16l-1.36-2.87A2.81,2.81,0,0,1,23,9.43l3.72-1.77A2.82,2.82,0,0,1,30.41,9l1.36,2.88Zm-1.38,8.41a8.69,8.69,0,1,1-4.12,11.57A8.69,8.69,0,0,1,30.39,20.28ZM20.27,71.87H3.42v37.29H20.27V71.87Zm2.54,4v27.22H64.9l38.42-26.66c5.05-3.5,5-13.46-5.38-10.74-5,1.32-11.91,3.68-16.79,5.38a8.84,8.84,0,0,0-2.6,2,58,58,0,0,1-12,8.13,67.94,67.94,0,0,1-15.21,5.32c-3.38.78-4.58-4.36-1.2-5.15a62.55,62.55,0,0,0,14.06-4.88c7.41-3.72,17.57-9.41,2.29-9.63-22-.33-20.23-4.14-43.63,9Z"/></svg>