<svg id="Layer_1" data-name="Layer 1" xmlns="http://www.w3.org/2000/svg" viewBox="0 0 110 110"><defs><style>.cls-1{fill:#0a4ca4;}</style></defs><path class="cls-1" d="M11.63,41.25c.31,7.49,10.64,21.11,10.64,21.11,8.24,11.84,4.19,21,4.19,21l30.39,25.42c.3.36.49.53.52.44,2.05-5.44,7.94-16.62,7.94-16.62,3.34-4.19,8.94-2.72,12-2.35,8.68,1.07,10.84-1.49,10.84-1.49,1.9-1.16,1-6,1-6A4.72,4.72,0,0,1,90.26,78c1.91-2.66.8-3.89.8-3.89-.6-.75-.2-1.15-.2-1.15,2.1-.7,2.25-1.84,2.25-1.84l0-3.85c-.35-2.64.85-2.8.85-2.8,4.79-.1,4.69-3.19,4.69-3.19C98.8,59.62,93,49.44,93,49.44c-2.7-5.19,1.14-8.29,1.39-11,1.19-12.38-3-19.95-8.66-25.94C76.36,2.59,64.29.72,56.39.79,36.17.93,28,7.35,21.79,14.26,8.91,28.63,11.64,41.25,11.63,41.25ZM38.93,54.6,55,62l-.17.39a3.13,3.13,0,0,1-4,1.57c-1.15,1.41-3.94,1.62-6.64.38s-4.36-3.5-4-5.29a3.12,3.12,0,0,1-1.41-4Zm.56-1.22.72-1.57L56.28,59.2l-.71,1.57Zm12.09-29.5L47,25.59,42.34,13.15,47,11.44Zm18-8.82L64,27.11l-4.49-2.06L65.07,13Zm.52,17.32,12.44-4.61,1.72,4.64L71.8,37ZM57.64,56.24,56.83,58,40.74,50.63l.82-1.78a15.15,15.15,0,1,1,16.08,7.39Z"/></svg>