<svg id="Layer_1" data-name="Layer 1" xmlns="http://www.w3.org/2000/svg" viewBox="0 0 110 110"><defs><style>.cls-1{fill:#0a4ca4;}</style></defs><path class="cls-1" d="M89.75,36.2h-7.3V68.93H19.6V31H62.49v-7.3H12.3V76.11H89.75Z"/><path class="cls-1" d="M89.75,79.88H12.3l-10,21.67a5.13,5.13,0,0,0,4.67,7.3H95a5.13,5.13,0,0,0,4.68-7.3Zm-27.61,21H39.9a1.07,1.07,0,0,1-1-1.25l1.25-4.9a1.1,1.1,0,0,1,1-.8H60.89a1.1,1.1,0,0,1,1,.8l1.25,4.9A1,1,0,0,1,62.14,100.86Z"/><path class="cls-1" d="M108.22.5H93.05V15.67h15.17Z"/><path class="cls-1" d="M77,19H89.86V6.08H77Z"/><path class="cls-1" d="M104,19h-11v11h11Z"/><path class="cls-1" d="M89.75,22.28h-11V33.23h11Z"/><path class="cls-1" d="M67.28,33.23H75.6V23.76H66v8.33A1.25,1.25,0,0,0,67.28,33.23Z"/><path class="cls-1" d="M64.54,44.75h8.21V36.54H64.54Z"/><path class="cls-1" d="M61.23,38.59H55.07v6.16h6.16Z"/></svg>