<svg id="Layer_1" data-name="Layer 1" xmlns="http://www.w3.org/2000/svg" viewBox="0 0 110 110"><defs><style>.cls-1{fill:#0a4ca4;}</style></defs><polygon class="cls-1" points="100.93 91.54 93.69 91.54 95.39 94.94 95.39 103.08 99.24 103.08 99.24 94.94 100.93 91.54"/><rect class="cls-1" x="93.47" y="31.92" width="7.69" height="55.78"/><rect class="cls-1" x="95.39" y="8.84" width="3.85" height="7.69"/><path class="cls-1" d="M108.29,30.56l-7.13-7.13V20.38H93.47v7.69h6.89L105,32.72V47.31h3.84V31.92A1.92,1.92,0,0,0,108.29,30.56Z"/><path class="cls-1" d="M41.54,43.46c10.91,0,19.16-11.35,13.6-22.89a13.17,13.17,0,0,0-6.1-6.1C37.5,8.91,26.15,17.16,26.15,28.07A15.4,15.4,0,0,0,41.54,43.46ZM30,33.84V22.3h5.77V16.53H47.31V22.3h5.77V33.84H47.31v5.77H35.77V33.84Z"/><path class="cls-1" d="M66.54,13.81,70.39,10l3.84,3.84V1.15H66.54Z"/><path class="cls-1" d="M81.93,6.92A5.77,5.77,0,0,0,78.08,1.5h0V19.15a2.05,2.05,0,0,1-3.28.67l-4.41-4.41h0l-4.9,4.9a2.06,2.06,0,0,1-2.8-1.85V1.15H1.15v107.7H81.93ZM41.54,8.84c14.23,0,24.85,15.46,16,30.51a13.28,13.28,0,0,1-4.71,4.71c-15.05,8.87-30.51-1.75-30.51-16A19.26,19.26,0,0,1,41.54,8.84ZM12.69,53.08h7.69v3.84H12.69V53.08Zm57.7,42.31H12.69V91.54h57.7v3.85Zm0-9.62H12.69V81.93h57.7v3.84Zm0-9.61H12.69V72.31h57.7v3.85Zm0-9.62H12.69V62.69h57.7v3.85Zm0-9.62H24.23V53.08H70.39v3.84Z"/></svg>