<svg id="Layer_1" data-name="Layer 1" xmlns="http://www.w3.org/2000/svg" viewBox="0 0 110 110"><defs><style>.cls-1{fill:#0a4ca4;}</style></defs><path class="cls-1" d="M47,28.14H62.76a5.85,5.85,0,1,0,11.7,0h5.4V21.61a13.48,13.48,0,0,0-.78-4.72L76.26,8.11a2.17,2.17,0,0,0-1.91-1.35H65.13V1.47H29.91V28h5.4a5.81,5.81,0,0,0,5.85,5.85A5.72,5.72,0,0,0,47,28.14Zm23.82,1.79a1.05,1.05,0,0,1-.31.32c-3,1.9-6-1.13-4.12-4.13a.92.92,0,0,1,.31-.31C69.71,23.9,72.74,26.93,70.83,29.93Zm-5.7-20H73a.85.85,0,0,1,.79.56l1.57,4.84a.57.57,0,0,1-.56.79H65.13Zm-24,20.93c-2.18,0-3.71-2.37-2.22-4.72a1.05,1.05,0,0,1,.32-.31C41.61,24.32,44,25.85,44,28A2.86,2.86,0,0,1,41.16,30.84Z"/><circle class="cls-1" cx="92.24" cy="80.46" r="9.23" transform="translate(-29.87 88.79) rotate(-45)"/><path class="cls-1" d="M100.45,92.38A14.68,14.68,0,0,1,92.35,95a13.39,13.39,0,0,1-8.1-2.59,10.61,10.61,0,0,0-7.09,10v5.06a1,1,0,0,0,1,1h28.58a1,1,0,0,0,1-1V102.4A11.18,11.18,0,0,0,100.45,92.38Z"/><polygon class="cls-1" points="55.95 80.61 52.82 77.54 42.79 87.39 52.82 97.25 55.95 94.12 51.76 89.99 72.17 89.99 72.17 84.74 51.76 84.74 55.95 80.61"/><polygon class="cls-1" points="22.82 44.86 24.44 48.98 29.9 46.78 21.78 65.5 26.6 67.58 34.72 48.87 36.84 54.35 40.9 52.7 35.85 39.58 22.82 44.86"/><polygon class="cls-1" points="68.88 41.67 76.99 60.39 71.54 58.19 69.91 62.3 82.94 67.58 88 54.46 83.94 52.81 81.81 58.3 73.7 39.58 68.88 41.67"/><path class="cls-1" d="M23.27,81.47l.39-10.8-12.4,10.8V70.33h-9v38.14H33.29l1.13,0s0-.8,0-1.09l0-36.68Zm-6.75,20.59h-5.4v-5.4h5.4Zm0-9.45h-5.4v-5.4h5.4Zm11,9.45h-5.4v-5.4h5.4Zm0-9.45h-5.4v-5.4h5.4Z"/></svg>