<svg id="Layer_1" data-name="Layer 1" xmlns="http://www.w3.org/2000/svg" viewBox="0 0 110 110"><defs><style>.cls-1{fill:#0a4ca4;}</style></defs><path class="cls-1" d="M108.6,5H1.4V105.5H108.6ZM38.46,85.82c-3.36,2.56-7.16-1.24-4.6-4.6C37.22,78.65,41,82.45,38.46,85.82Zm23.3,4.46c-3.61,3.78-10.22,3.38-13.69-.38s-3.38-10,.33-13.48,10.38-2.89,13.69.9A9.81,9.81,0,0,1,61.76,90.28Zm14.38-4.46c-3.36,2.56-7.16-1.24-4.6-4.6C74.9,78.65,78.7,82.45,76.14,85.82ZM95.83,17.14V67.81H14.17V17.14Z"/><circle class="cls-1" cx="55" cy="83.52" r="3.14"/><path class="cls-1" d="M82.39,45.83,78.18,58.45,62.48,39.61,60.4,45.83H54.12l-4.2,12.62L34.21,39.61l-2.07,6.22H20.45v15.7h69.1V45.83Z"/><path class="cls-1" d="M20.45,39.55h7.16l4.21-12.63,15.7,18.85,2.08-6.22h6.28l4.2-12.63L75.79,45.77l2.07-6.22H89.55V23.42H20.45Z"/></svg>