<svg id="Layer_1" data-name="Layer 1" xmlns="http://www.w3.org/2000/svg" viewBox="0 0 110 110"><defs><style>.cls-1{fill:#0a4ca4;}</style></defs><path class="cls-1" d="M33.42,4.08,27.08.61,20.73,4.08v7.08l6.35,3.46,6.34-3.46Z"/><path class="cls-1" d="M12.69,10.77,6.35,14.23v7.08l6.34,3.47L19,21.31V14.23Z"/><path class="cls-1" d="M89.27,4.08,82.92.61,76.58,4.08v7.08l6.34,3.46,6.35-3.46Z"/><path class="cls-1" d="M103.65,14.23l-6.34-3.46L91,14.23v7.08l6.35,3.47,6.34-3.47Z"/><path class="cls-1" d="M48.65,8.46v5.08A1.7,1.7,0,0,0,49.54,15L55,18l5.46-3a1.7,1.7,0,0,0,.89-1.49V8.46A1.68,1.68,0,0,0,60.46,7L55.81,4.44a1.67,1.67,0,0,0-1.62,0L49.54,7A1.68,1.68,0,0,0,48.65,8.46Z"/><path class="cls-1" d="M33.42,98.84l-6.34-3.46-6.35,3.46v7.08l6.35,3.47,6.34-3.47Z"/><path class="cls-1" d="M19,88.69l-6.35-3.47L6.35,88.69v7.08l6.34,3.46L19,95.77Z"/><path class="cls-1" d="M89.27,98.84l-6.35-3.46-6.34,3.46v7.08l6.34,3.47,6.35-3.47Z"/><path class="cls-1" d="M103.65,88.69l-6.34-3.47L91,88.69v7.08l6.35,3.46,6.34-3.46Z"/><path class="cls-1" d="M61.35,95.45,55,92l-6.35,3.46v7.09L55,106l6.35-3.46Z"/><path class="cls-1" d="M53.31,20.86v9.06a5,5,0,0,1,3.38,0V20.86A4.91,4.91,0,0,1,53.31,20.86Z"/><path class="cls-1" d="M81.23,46.54a3.38,3.38,0,0,0,3.38-3.39V17.47a4.91,4.91,0,0,1-3.38,0V43.15H78.39a5,5,0,0,1,.3,1.7v1.69Z"/><path class="cls-1" d="M75.31,43.84,55,32.77,34.69,43.84V66.16L55,77.23,75.31,66.16Zm-22.2,1.27-7.42,4.12v7.39a.11.11,0,0,1,0,.07c-1.49,1.65-3.35.62-3.35-.84V47.24l8.48-4.72c1.29-.71,3.09.42,2.37,2.52A.18.18,0,0,1,53.11,45.11Z"/><path class="cls-1" d="M27.08,17.77a4.85,4.85,0,0,1-1.69-.3V43.15a3.38,3.38,0,0,0,3.38,3.39h2.54V44.85a5,5,0,0,1,.3-1.7H28.77V17.47A4.85,4.85,0,0,1,27.08,17.77Z"/><path class="cls-1" d="M14.39,48.23V27.63a5.06,5.06,0,0,1-3.39,0v20.6a5.1,5.1,0,0,0,5.08,5.08H31.31V49.92H16.08A1.69,1.69,0,0,1,14.39,48.23Z"/><path class="cls-1" d="M99,27.63a5.06,5.06,0,0,1-3.39,0v20.6a1.69,1.69,0,0,1-1.69,1.69H78.69v3.39H93.92A5.1,5.1,0,0,0,99,48.23Z"/><path class="cls-1" d="M97.31,82.08a5.18,5.18,0,0,1,1.69.29V61.77a5.1,5.1,0,0,0-5.08-5.08H78.69v3.39H93.92a1.69,1.69,0,0,1,1.69,1.69v20.6A5.19,5.19,0,0,1,97.31,82.08Z"/><path class="cls-1" d="M31.31,56.69H16.08A5.1,5.1,0,0,0,11,61.77v20.6a5.06,5.06,0,0,1,3.39,0V61.77a1.69,1.69,0,0,1,1.69-1.69H31.31Z"/><path class="cls-1" d="M82.92,92.23a4.85,4.85,0,0,1,1.69.3V66.85a3.38,3.38,0,0,0-3.38-3.39H78.69v1.69a5,5,0,0,1-.3,1.7h2.84V92.53A4.85,4.85,0,0,1,82.92,92.23Z"/><path class="cls-1" d="M56.69,89.14V80.08a4.91,4.91,0,0,1-3.38,0v9.06A4.91,4.91,0,0,1,56.69,89.14Z"/><path class="cls-1" d="M28.77,92.53V66.85h2.84a5,5,0,0,1-.3-1.7V63.46H28.77a3.38,3.38,0,0,0-3.38,3.39V92.53A4.91,4.91,0,0,1,28.77,92.53Z"/></svg>