<svg id="Layer_1" data-name="Layer 1" xmlns="http://www.w3.org/2000/svg" viewBox="0 0 110 110"><defs><style>.cls-1{fill:#0a4ca4;}</style></defs><polygon class="cls-1" points="45.78 52.35 60.69 26.52 45.78 0.7 15.96 0.7 1.05 26.52 15.96 52.35 45.78 52.35"/><polygon class="cls-1" points="94.04 29.23 64.22 29.23 49.31 55.05 54.23 63.59 72.81 54.84 69.47 49.28 84.91 51.29 79.64 66.91 75.96 60.77 59.48 72.68 64.22 80.88 94.04 80.88 108.95 55.05 94.04 29.23"/><polygon class="cls-1" points="26.48 85.69 17.53 80.88 50.28 65.45 45.78 57.65 15.96 57.65 1.05 83.48 15.96 109.3 45.78 109.3 60.69 83.48 55.94 75.25 27.18 96.04 26.48 85.69"/><polygon class="cls-1" points="50.28 65.45 55.94 75.25 59.48 72.68 54.23 63.59 50.28 65.45"/></svg>