<svg id="Layer_1" data-name="Layer 1" xmlns="http://www.w3.org/2000/svg" viewBox="0 0 110 110"><defs><style>.cls-1{fill:#0a4ca4;}</style></defs><path class="cls-1" d="M11.7,58.87a1,1,0,0,0,1.34,0l.41-.35a2.2,2.2,0,0,0,1.15-2.09,29.38,29.38,0,0,0-.86-3l.71.72a9.41,9.41,0,0,0,6.72,3A9.12,9.12,0,0,0,27,54.9l.42-.34s-.19,1.72-.21,1.87a2.41,2.41,0,0,0,1.23,2.18l.42.32a1,1,0,0,0,1.25,0c.6-.41,4.44-2.55,5.14-3.12a1,1,0,0,0,.31-1.39l-.41-.6a12.31,12.31,0,0,1-1-6.08A20.34,20.34,0,0,0,32.5,37a12.23,12.23,0,0,0-4-4.56L28,34.36a41.75,41.75,0,0,1-5.87,1.06H21a41.75,41.75,0,0,1-5.87-1.06l-.27-.75c-3,1.71-6.62,5.26-6.74,12.74v2.23a26.27,26.27,0,0,1,0,3.32,10.5,10.5,0,0,1-.84,2.76,1,1,0,0,0,.24,1.22C8.05,56.4,11.17,58.42,11.7,58.87Zm1.12-15.49a31.1,31.1,0,0,1,2-4.63A10.8,10.8,0,0,1,16,37.36,4.43,4.43,0,0,1,20,36.57l3.31,1a4.41,4.41,0,0,1,3,3.18l1.26,5.14L28,47.79a4.46,4.46,0,0,1,.09,1.63l-.29,2.43a8.09,8.09,0,0,1-6.57,3.64c-4.72,0-8.58-4.55-8.58-10.14A11.81,11.81,0,0,1,12.82,43.38Z"/><path class="cls-1" d="M18.6,65.37l-.78-.48,3.43,10.68h.28L25,64.89l-.77.48A5.27,5.27,0,0,1,18.6,65.37Z"/><path class="cls-1" d="M37.19,64.34l.49-.33a6.46,6.46,0,0,0-3.43-2.07l-6.86-1.51-5,16.05h-1.8l-5-16.14L8.67,61.85a6.56,6.56,0,0,0-5.15,5.57C2.9,72.1,2,77.48,1.47,80.83h0L.94,84H31.41l.27-1.71C32.23,79,32.92,74.75,33.4,71A9.81,9.81,0,0,1,37.19,64.34Z"/><path class="cls-1" d="M21,34.29h1.13A33.18,33.18,0,0,0,27,33.42l2.74-10.29a2,2,0,0,0-.34-1.1,2,2,0,0,0-.86-.75c-.41-.19-5.33-1.72-5.33-1.72H19.8s-4.92,1.54-5.34,1.72a2,2,0,0,0-1.16,1.81L16,33.38A32.65,32.65,0,0,0,21,34.29Zm-2.7-8.5h2.4V23.32a.89.89,0,1,1,1.72-.49.82.82,0,0,1,0,.49v2.4h2.4a.89.89,0,0,1,.49,1.71.82.82,0,0,1-.49,0v.1h-2.4v2.41a.89.89,0,0,1-1.72.49,1,1,0,0,1,0-.49V27.53h-2.4a.87.87,0,1,1,0-1.74Z"/><path class="cls-1" d="M78.88,48.22a19.44,19.44,0,0,0,3,6.2v-.1a6.77,6.77,0,0,1-.29-2V50.46a13.38,13.38,0,0,1-1.42-5.14,10.72,10.72,0,0,1,.36-2.76c.35-.35.72-.67,1.09-1H78.1a17,17,0,0,0,.23,2.2h-.28A1.08,1.08,0,0,0,77,44.86v1.35A2,2,0,0,0,78.88,48.22Z"/><path class="cls-1" d="M99.83,43.78h-.24a13.58,13.58,0,0,0,.24-2.2H97a10.61,10.61,0,0,1,.67,3.74,13.39,13.39,0,0,1-1.43,5.14v1.91a6.43,6.43,0,0,1-.27,2v.1a19.47,19.47,0,0,0,3-6.2,2,2,0,0,0,1.9-2V44.86a1.09,1.09,0,0,0-1.08-1.09Z"/><path class="cls-1" d="M94.16,48.83c-.31-.13-3.93-1.28-3.93-1.28H87.64S84,48.7,83.71,48.83a1.46,1.46,0,0,0-.63.55,1.48,1.48,0,0,0-.23.79v2.52A5.63,5.63,0,0,0,83.08,54a6.68,6.68,0,0,0,1,2.11,4.86,4.86,0,0,0,1.6,1.32,6.22,6.22,0,0,0,2.84.65h.84a6.24,6.24,0,0,0,2.85-.65,5,5,0,0,0,1.6-1.32,6.68,6.68,0,0,0,1-2.11A5.62,5.62,0,0,0,95,52.69V50.17a1.39,1.39,0,0,0-.22-.79A1.46,1.46,0,0,0,94.16,48.83Z"/><path class="cls-1" d="M96.42,45.06V43.72A1.51,1.51,0,0,0,95,42.18H91.57a1.51,1.51,0,0,0-1.51,1.51v.21H87.83v-.18a1.52,1.52,0,0,0-1.51-1.51H82.89a1.51,1.51,0,0,0-1.51,1.51v1.34a1.51,1.51,0,0,0,1.51,1.51h3.43a1.52,1.52,0,0,0,1.51-1.51v-.27H90v.27a1.52,1.52,0,0,0,1.51,1.51h3.43A1.52,1.52,0,0,0,96.42,45.06Zm-9.45,0a.62.62,0,0,1-.62.62H82.92a.61.61,0,0,1-.61-.62V43.74a.61.61,0,0,1,.61-.62h3.43a.62.62,0,0,1,.62.62Zm8.57,0a.61.61,0,0,1-.61.62H91.5a.62.62,0,0,1-.62-.62V43.74a.62.62,0,0,1,.62-.62h3.43a.61.61,0,0,1,.61.62Z"/><path class="cls-1" d="M100,37.17a7.55,7.55,0,0,0-7.55-7.54h-7a7.55,7.55,0,0,0-7.54,7.54v3.16H100Z"/><path class="cls-1" d="M54.11,48.2v-.29h2.27v.29A1.59,1.59,0,0,0,58,49.79h2.66l-.24-.94H58a.65.65,0,0,1-.65-.65V46.79a.65.65,0,0,1,.65-.65h1.72l-.23-.94H57.9a1.59,1.59,0,0,0-1.59,1.59V47h-2.2v-.19a1.59,1.59,0,0,0-1.59-1.59H48.85a1.6,1.6,0,0,0-1.6,1.59V48.2a1.6,1.6,0,0,0,1.6,1.59h3.67A1.59,1.59,0,0,0,54.11,48.2Zm-5.91,0V46.79a.65.65,0,0,1,.65-.65h3.67a.65.65,0,0,1,.65.65V48.2a.65.65,0,0,1-.65.65H48.85A.65.65,0,0,1,48.2,48.2Z"/><path class="cls-1" d="M33.19,88.84H77l-.87-4.08c-.57-3.52-1.44-8.73-2-13.27a6.85,6.85,0,0,0-5.35-5.85L67,65.26V67.7a4.18,4.18,0,0,0,2.26,3.79,6.84,6.84,0,0,1,3.84,5.45h-2a4.9,4.9,0,0,0-9.7,0h-2a6.85,6.85,0,0,1,3.74-5.4,4.28,4.28,0,0,0,2.36-3.84V65l-4-.89L56.2,81H54.32L49,64.06l-7.24,1.6a6.62,6.62,0,0,0-.84.24c.07.29,2.3,5,2.3,5a1.91,1.91,0,1,1-1.9,1.91,2,2,0,0,1,.18-.83l.14-.24s-2.21-4.72-2.3-5a6.89,6.89,0,0,0-3,4.76c-.59,4.54-1.47,9.72-2,13.25m32.52-.15a.89.89,0,0,1,.89-.89h.48a.47.47,0,0,1,.48.48h.67a.64.64,0,0,1,.53.24,2,2,0,0,0,1.65-2V77.66h1.25v4.77A3.3,3.3,0,0,1,70,85.69a.73.73,0,0,1-.57.29h-.67a.51.51,0,0,1-.09.27l-1.53-.07a.89.89,0,0,1-.25-.61ZM40.17,70.26l.6,1.26v.11a2.58,2.58,0,0,0,.38,2.89A2.68,2.68,0,1,0,45.2,71a2.74,2.74,0,0,0-1.6-.89L43,68.86a3.91,3.91,0,1,1-3.74,4.08A4,4,0,0,1,40.17,70.26ZM63.82,86h-.69a.7.7,0,0,1-.56-.29h-.14a3.29,3.29,0,0,1-2.73-3.24V77.66H61v4.77a2,2,0,0,0,1.72,2,.65.65,0,0,1,.53-.24h.62a.47.47,0,0,1,.48-.48h.48a.89.89,0,0,1,.89.89v1a.85.85,0,0,1-.2.54L63.83,86S63.82,86,63.82,86Z"/><path class="cls-1" d="M45,62.36a1.08,1.08,0,0,0,1.41,0l.43-.36A2.31,2.31,0,0,0,48,59.79a32.27,32.27,0,0,0-.89-3.2l.73.75a9.83,9.83,0,0,0,7.07,3.12,9.58,9.58,0,0,0,6.15-2.28l.45-.36s-.21,1.72-.21,2a2.39,2.39,0,0,0,1.29,2.3l.43.34a1.08,1.08,0,0,0,1.32,0C65,62,69,59.74,69.8,59.14a1.08,1.08,0,0,0,.3-1.37l-.43-.64a13,13,0,0,1-1-6.38,21.46,21.46,0,0,0-1.88-11.3A12.65,12.65,0,0,0,58.91,33a7.88,7.88,0,0,0-6.7,1.25.87.87,0,0,1-.34.15c-2.47.57-10.52,3.28-10.71,14.8v2.34a24.54,24.54,0,0,1,0,3.43,10.87,10.87,0,0,1-.92,3,1.07,1.07,0,0,0,.26,1.27C41.11,59.78,44.39,61.88,45,62.36Zm1.21-16.18a31.79,31.79,0,0,1,2.1-4.87,12.1,12.1,0,0,1,1.2-1.46A4.7,4.7,0,0,1,53.73,39l3.43,1.07a4.64,4.64,0,0,1,3.23,3.34l1.3,5.46.41,2a4.56,4.56,0,0,1,.11,1.6L61.88,55A8.57,8.57,0,0,1,55,58.85c-4.92,0-9-4.67-9-10.6A12,12,0,0,1,46.16,46.18Z"/><path class="cls-1" d="M52.31,69.28l-.82-.52L55,80h.5L59,68.76l-.83.52A5.56,5.56,0,0,1,52.31,69.28Z"/><path class="cls-1" d="M108.72,80h0c-.53-3.36-1.38-8.22-1.93-12.56a6.58,6.58,0,0,0-5.14-5.61l-6.86-1.53-6,11.65-6-11.65L76,61.8a6.52,6.52,0,0,0-3.43,2.06A9.83,9.83,0,0,1,77.09,71c.5,3.77,1.17,7.9,1.72,11.33L79.08,84h30.36Z"/></svg>