<?xml version="1.0" encoding="utf-8"?>
<!-- Generator: Adobe Illustrator 25.0.1, SVG Export Plug-In . SVG Version: 6.00 Build 0)  -->
<svg version="1.1" id="Layer_1" xmlns="http://www.w3.org/2000/svg" xmlns:xlink="http://www.w3.org/1999/xlink" x="0px" y="0px"
	 viewBox="0 0 110 110" style="enable-background:new 0 0 110 110;" xml:space="preserve">
<style type="text/css">
	.st0{fill:#0a4ca4;}
</style>
<g id="Page-1">
	<g id="Desktop-HD" transform="translate(-478.000000, -3756.000000)">
		<g id="identify-stakeholders" transform="translate(478.000000, 3756.000000)">
			<g id="noun_influence_2276560">
				<path id="Path" class="st0" d="M64,53.9h-0.2l-6.9,6.6c-0.4,0.3-0.8,0.5-1.3,0.5c-0.5,0-0.9-0.2-1.3-0.5l-6.9-6.6h-0.2
					c-5.6,0-10.1,4.4-10.1,9.8v8.1h37v-8.1C74,58.3,69.5,53.9,64,53.9z"/>
				<path id="Path_1_" class="st0" d="M49.4,49.9v0.7l5.6,5.5l5.6-5.5v-0.7c3.3-1.9,5.6-5.5,5.6-9.6c0-6.1-5-11.1-11.2-11.1
					s-11.2,5-11.2,11.1C43.8,44.4,46.1,47.9,49.4,49.9z"/>
				<path id="Path_2_" class="st0" d="M11.3,106.3c0-3-2.5-5.4-5.6-5.4s-5.6,2.4-5.6,5.4v3.6h11.2V106.3z"/>
				<circle id="Oval" class="st0" cx="5.1" cy="97" r="3.9"/>
				<path id="Path_3_" class="st0" d="M104.3,100.9c-3.1,0-5.6,2.4-5.6,5.4v3.6h11.2v-3.6C109.9,103.3,107.4,100.9,104.3,100.9z"/>
				<circle id="Oval_1_" class="st0" cx="104.9" cy="97" r="3.9"/>
				<path id="Path_4_" class="st0" d="M11.3,13.3c0-3-2.5-5.4-5.6-5.4s-5.6,2.4-5.6,5.4v3.6h11.2V13.3z"/>
				<circle id="Oval_2_" class="st0" cx="5.1" cy="4" r="3.9"/>
				<path id="Path_5_" class="st0" d="M104.3,7.9c-3.1,0-5.6,2.4-5.6,5.4v3.6h11.2v-3.6C109.9,10.3,107.4,7.9,104.3,7.9z"/>
				<circle id="Oval_3_" class="st0" cx="104.9" cy="4" r="3.9"/>
				<path id="Shape" class="st0" d="M55,20.3c-19.2,0-34.7,15.6-34.7,34.7S35.8,89.7,55,89.7S89.7,74.2,89.7,55S74.2,20.3,55,20.3z
					 M55,86.1c-17.1,0-31.1-13.9-31.1-31.1S37.9,23.9,55,23.9S86.1,37.9,86.1,55S72.1,86.1,55,86.1z"/>
				<path id="Shape_1_" class="st0" d="M55,9.1C29.7,9.1,9.1,29.7,9.1,55s20.6,45.9,45.9,45.9s45.9-20.6,45.9-45.9S80.3,9.1,55,9.1z
					 M55,97.3c-23.3,0-42.3-19-42.3-42.3s19-42.3,42.3-42.3s42.3,19,42.3,42.3S78.3,97.3,55,97.3z"/>
				<path id="Path_6_" class="st0" d="M10.2,79C6,71.6,3.8,63.1,3.8,54.5C3.8,46.6,5.6,39,9.1,32l-3.3-1.6C2,37.9,0.1,46,0.1,54.5
					c0,9.2,2.4,18.3,6.9,26.3L10.2,79z"/>
				<path id="Path_7_" class="st0" d="M85.3,100.6l-2-3c-8.4,5.7-18.3,8.6-28.6,8.6c-12.2,0-23.9-4.3-33.1-12.1l-2.4,2.7
					c9.9,8.4,22.5,13,35.5,13C65.6,109.9,76.2,106.7,85.3,100.6z"/>
				<path id="Path_8_" class="st0" d="M101.1,32c3.5,7.1,5.2,14.8,5.2,22.9c0,8.1-1.8,15.9-5.4,23.1l3.2,1.7
					c3.8-7.7,5.7-16.1,5.7-24.8c0-8.6-1.9-16.9-5.6-24.5L101.1,32z"/>
				<path id="Path_9_" class="st0" d="M21.4,11.8l2.3,2.8c9.1-7.2,20-10.9,31.7-10.9c11.4,0,22.1,3.6,31.1,10.5l2.2-2.9
					C79,4,67.5,0.1,55.3,0.1C42.9,0.1,31.1,4.1,21.4,11.8z"/>
			</g>
		</g>
	</g>
</g>
</svg>
