<?xml version="1.0" encoding="utf-8"?>
<!-- Generator: Adobe Illustrator 25.0.1, SVG Export Plug-In . SVG Version: 6.00 Build 0)  -->
<svg version="1.1" id="Layer_1" xmlns="http://www.w3.org/2000/svg" xmlns:xlink="http://www.w3.org/1999/xlink" x="0px" y="0px"
	 viewBox="0 0 110 110" style="enable-background:new 0 0 110 110;" xml:space="preserve">
<style type="text/css">
	.st0{fill:#0a4ca4;}
</style>
<g id="Page-1">
	<g id="Desktop-HD" transform="translate(-85.000000, -1766.000000)">
		<g id="Identification-of-data" transform="translate(85.000000, 1766.000000)">
			<g id="data" transform="translate(-0.000000, 0.000000)">
				<g id="Group" transform="translate(-0.000000, 0.000000)">
					<path id="Path" class="st0" d="M102.3,15.7c0,3.6-4.8,7.4-12.9,10.4C80.3,29.4,68,31.2,55,31.2S29.7,29.4,20.6,26
						c-8.1-2.9-12.9-6.8-12.9-10.4s4.8-7.4,12.9-10.4C29.7,1.9,42,0.1,55,0.1s25.3,1.8,34.4,5.2C97.5,8.2,102.3,12.1,102.3,15.7z"/>
					<path id="Path_1_" class="st0" d="M102.3,24.9v17c0,0-4.8,7.4-12.9,10.4C80.3,55.6,68,57.4,55,57.4s-25.3-1.8-34.4-5.2
						C12.5,49.3,7.7,41.9,7.7,41.9v-17c0.5,0.4,1.1,0.8,1.6,1.2c0.2,0.1,0.4,0.3,0.6,0.4c0.2,0.1,0.5,0.3,0.7,0.4
						c0.1,0.1,0.2,0.1,0.3,0.2c0.2,0.1,0.4,0.2,0.6,0.3c0.1,0.1,0.2,0.1,0.2,0.1c0.1,0.1,0.3,0.2,0.4,0.2c0.1,0.1,0.2,0.1,0.3,0.2
						c0.1,0.1,0.3,0.2,0.4,0.2c0.1,0.1,0.2,0.1,0.3,0.2c0.1,0,0.2,0.1,0.2,0.1c0.1,0,0.2,0.1,0.3,0.1c0.4,0.2,0.7,0.3,1.1,0.5
						c0.1,0,0.2,0.1,0.3,0.1c0.2,0.1,0.5,0.2,0.7,0.3c0.1,0.1,0.3,0.1,0.4,0.2c0.1,0.1,0.3,0.1,0.4,0.2c0.1,0.1,0.3,0.1,0.4,0.2
						c0.1,0.1,0.3,0.1,0.4,0.2c0.2,0.1,0.3,0.1,0.5,0.2c0.3,0.1,0.6,0.2,0.9,0.3c9.7,3.5,22.6,5.5,36.2,5.5s26.5-1.9,36.2-5.5
						c0.3-0.1,0.6-0.2,0.9-0.3c0.2-0.1,0.3-0.1,0.5-0.2c0.1-0.1,0.3-0.1,0.4-0.2c0.1-0.1,0.3-0.1,0.4-0.2c0.1-0.1,0.3-0.1,0.4-0.2
						c0.1-0.1,0.3-0.1,0.4-0.2c0.2-0.1,0.5-0.2,0.7-0.3c0.1,0,0.2-0.1,0.3-0.1c0.4-0.2,0.7-0.3,1.1-0.5c0.1,0,0.2-0.1,0.3-0.1
						c0.1,0,0.2-0.1,0.2-0.1c0.1-0.1,0.2-0.1,0.3-0.2c0.1-0.1,0.3-0.2,0.4-0.2c0.1-0.1,0.2-0.1,0.3-0.2c0.1-0.1,0.3-0.2,0.4-0.2
						c0.1-0.1,0.2-0.1,0.2-0.1c0.2-0.1,0.4-0.2,0.6-0.3c0.1-0.1,0.2-0.1,0.3-0.2c0.2-0.1,0.5-0.3,0.7-0.4c0.2-0.1,0.4-0.3,0.6-0.4
						C101.3,25.8,101.8,25.3,102.3,24.9z"/>
					<path id="Path_2_" class="st0" d="M102.3,51.2v17c0,0-4.8,7.4-12.9,10.4C80.3,81.8,68,83.6,55,83.6s-25.3-1.8-34.4-5.2
						C12.5,75.6,7.7,68.1,7.7,68.1v-17c2.7,2.2,6.5,4.2,11.2,5.9c9.7,3.5,22.5,5.4,36.2,5.4s26.5-1.9,36.2-5.4
						C95.8,55.4,99.6,53.4,102.3,51.2z"/>
					<path id="Path_3_" class="st0" d="M7.7,94.3v-17c2.7,2.2,6.5,4.2,11.2,5.9c9.7,3.5,22.5,5.5,36.2,5.5s26.5-1.9,36.2-5.5
						c4.7-1.7,8.4-3.7,11.2-5.9v17c0,0-4.8,7.4-12.9,10.4c-9.1,3.3-21.4,5.2-34.4,5.2s-25.3-1.8-34.4-5.2
						C12.5,101.8,7.7,94.3,7.7,94.3z"/>
				</g>
			</g>
		</g>
	</g>
</g>
</svg>
