<?xml version="1.0" encoding="utf-8"?>
<!-- Generator: Adobe Illustrator 25.0.1, SVG Export Plug-In . SVG Version: 6.00 Build 0)  -->
<svg version="1.1" id="Layer_1" xmlns="http://www.w3.org/2000/svg" xmlns:xlink="http://www.w3.org/1999/xlink" x="0px" y="0px"
	 viewBox="0 0 110 110" style="enable-background:new 0 0 110 110;" xml:space="preserve">
<style type="text/css">
	.st0{fill:#0a4ca4;}
</style>
<g>
	<g>
		<g>
			<path class="st0" d="M38.8,15.4L17.7,52.1H60L38.8,15.4z M38.8,22.6l14.9,25.9H23.9L38.8,22.6z"/>
			<path class="st0" d="M38.8,22.6L23.9,48.5h29.9L38.8,22.6z M40.6,46.4H37v-3.6h3.6V46.4z M40.6,31.6V41H37v-2.6
				c0,0.1-0.1,0.1-0.1,0.2V29h4.4v0.6C41.1,30.2,40.9,30.9,40.6,31.6z"/>
			<path class="st0" d="M41.3,29v0.6c-0.2,0.7-0.4,1.3-0.7,2v-1.4H37v8.2c0,0.1-0.1,0.1-0.1,0.2V29H41.3z"/>
		</g>
	</g>
	<path class="st0" d="M76.2,38.2C76.1,17.2,59,0.1,38,0.2c-10.1,0-19.7,4-26.9,11.2c-14.7,15-14.5,39.2,0.6,53.9
		c13.4,13.2,34.5,14.6,49.6,3.3l5.9,5.9L66,75.5c-0.8,0.8-0.8,2.1,0,2.9c0,0,0,0,0,0l31,30.9c0.8,0.8,2.1,0.8,2.9,0c0,0,0,0,0,0
		l9.3-9.3c0.8-0.8,0.8-2.1,0-2.9c0,0,0,0,0,0L78.3,66.2c-0.8-0.8-2.1-0.8-2.9,0c0,0,0,0,0,0l-1.1,1.1l-5.9-5.9
		C73.5,54.7,76.2,46.6,76.2,38.2z M18.5,58.2c-11-10.9-11.2-28.6-0.3-39.6s28.6-11.2,39.6-0.3c11,10.9,11.2,28.6,0.3,39.6
		C47.3,68.9,29.5,69,18.5,58.2z"/>
</g>
</svg>
