<?xml version="1.0" encoding="utf-8"?>
<!-- Generator: Adobe Illustrator 25.0.1, SVG Export Plug-In . SVG Version: 6.00 Build 0)  -->
<svg version="1.1" id="Layer_1" xmlns="http://www.w3.org/2000/svg" xmlns:xlink="http://www.w3.org/1999/xlink" x="0px" y="0px"
	 viewBox="0 0 110 110" style="enable-background:new 0 0 110 110;" xml:space="preserve">
<style type="text/css">
	.st0{fill:#0a4ca4;}
</style>
<g>
	<g transform="translate(0,-292.76665)">
		<g transform="translate(0.00138151,6.6666667e-6)">
			<g transform="translate(0.001772,1.0552985e-4)">
				<path class="st0" d="M69.6,294.3v6.8h8.5L6.5,366.4l4.6,5l72.2-65.7v9H90v-20.3H69.6z M83.2,301.2L83.2,301.2L83.2,301.2
					L83.2,301.2z"/>
				<rect x="15.5" y="375.6" class="st0" width="20.3" height="27.1"/>
				<rect x="49.4" y="348.5" class="st0" width="20.3" height="54.2"/>
				<rect x="83.2" y="321.4" class="st0" width="20.3" height="81.3"/>
			</g>
		</g>
	</g>
	<path class="st0" d="M25.3,0.1C16.8,0.1,9.8,7,9.8,15.5S16.8,31,25.3,31s15.5-6.9,15.5-15.5S33.9,0.1,25.3,0.1z M25.3,10
		c-1.1,0-2,0.8-2,1.9s1,1.5,2.8,2.1c3.3,1,5.3,2.6,5.3,5.6c0,2.5-1.9,4.4-4.5,4.9v2.2h-3v-2.2c-2.6-0.7-4.5-3-4.5-5.8h4v0.5
		c0,1.1,0.9,2,2,2c1.1,0,2-0.8,2-1.9c0-1.1-1.3-1.6-2.8-2.1c-3.2-1-5.3-2.6-5.3-5.6c0-2.5,1.9-4.4,4.5-4.9V4.5h3v2.2
		c2.6,0.7,4.5,3,4.5,5.8h-4V12C27.3,10.9,26.4,10,25.3,10z"/>
</g>
</svg>
