<?xml version="1.0" encoding="utf-8"?>
<!-- Generator: Adobe Illustrator 25.0.1, SVG Export Plug-In . SVG Version: 6.00 Build 0)  -->
<svg version="1.1" id="Layer_1" xmlns="http://www.w3.org/2000/svg" xmlns:xlink="http://www.w3.org/1999/xlink" x="0px" y="0px"
	 viewBox="0 0 110 110" style="enable-background:new 0 0 110 110;" xml:space="preserve">
<style type="text/css">
	.st0{fill:#0a4ca4;}
</style>
<g>
	<path class="st0" d="M57.6,21.1V38c2.7,0.4,5.3,1.5,7.5,3.2l12-12C71.6,24.5,64.8,21.6,57.6,21.1z"/>
	<path class="st0" d="M52.5,38V21.1c-7.2,0.5-14,3.4-19.5,8.1l11.9,11.9C47.2,39.4,49.8,38.4,52.5,38z"/>
	<path class="st0" d="M80.6,76.7c4.7-5.5,7.5-12.3,8.1-19.5H71.6c-0.4,2.7-1.4,5.2-3.1,7.4L80.6,76.7z"/>
	<path class="st0" d="M57.6,71.4v17c7.2-0.5,14-3.4,19.5-8.1l-12-12C62.8,69.9,60.3,71,57.6,71.4z"/>
	<path class="st0" d="M52.5,88.4V71.4C49.8,71,47.2,70,45,68.4L33,80.3C38.5,85,45.3,87.8,52.5,88.4z"/>
	<path class="st0" d="M41.4,64.8c-1.7-2.2-2.8-4.8-3.2-7.6H21.4c0.5,7.2,3.4,14,8.1,19.5L41.4,64.8z"/>
	<path class="st0" d="M29.5,32.7c-4.7,5.5-7.5,12.3-8.1,19.5h16.8c0.4-2.8,1.5-5.4,3.2-7.6L29.5,32.7z"/>
	<path class="st0" d="M98,48.7c-0.5-7.3-3.4-14.3-8.2-19.8L77.6,41.1c1.6,2.2,2.7,4.8,3.1,7.6H98z"/>
	<path class="st0" d="M58.2,54.7c0,1.8-1.4,3.2-3.2,3.2c-1.8,0-3.2-1.4-3.2-3.2c0-1.7,1.4-3.2,3.2-3.2C56.8,51.5,58.2,53,58.2,54.7z
		"/>
	<rect x="51.5" y="0.1" class="st0" width="7.1" height="16"/>
	<rect x="51.5" y="93.9" class="st0" width="7.1" height="16"/>
	<rect x="93.7" y="51.2" class="st0" width="16" height="7.1"/>
	<rect x="0.3" y="51.2" class="st0" width="16" height="7.1"/>
</g>
</svg>
