<?xml version="1.0" encoding="utf-8"?>
<!-- Generator: Adobe Illustrator 25.0.1, SVG Export Plug-In . SVG Version: 6.00 Build 0)  -->
<svg version="1.1" id="Layer_1" xmlns="http://www.w3.org/2000/svg" xmlns:xlink="http://www.w3.org/1999/xlink" x="0px" y="0px"
	 viewBox="0 0 110 110" style="enable-background:new 0 0 110 110;" xml:space="preserve">
<style type="text/css">
	.st0{fill:#0a4ca4;}
</style>
<g>
	<path class="st0" d="M49.6,47.8l6.5,0l-6.5,4.1V47.8z M59,57.1h-7.5c-0.7,0-1.3-0.4-1.6-1l11-6.9v6C60.8,56.3,60,57.1,59,57.1z
		 M40.3,31c0-8.1,6.4-14.7,14.5-15c0.2,0,0.3,0,0.5,0c8.3,0,15,6.7,15,14.9c0,5.6-3.1,10.7-8,13.2L48.1,44
		C43.3,41.4,40.3,36.4,40.3,31z"/>
	<rect x="77.7" y="29.1" class="st0" width="3.7" height="3.7"/>
	<rect x="29" y="29.1" class="st0" width="3.7" height="3.7"/>
	<rect x="74.4" y="16.9" transform="matrix(0.8661 -0.4999 0.4999 0.8661 0.8372 40.6578)" class="st0" width="3.7" height="3.7"/>
	
		<rect x="32.3" y="41.2" transform="matrix(0.8661 -0.4999 0.4999 0.8661 -16.9717 22.8484)" class="st0" width="3.7" height="3.7"/>
	<rect x="65.5" y="8" transform="matrix(0.5001 -0.8659 0.8659 0.5001 25.1497 63.2893)" class="st0" width="3.7" height="3.7"/>
	<rect x="53.4" y="4.7" class="st0" width="3.7" height="3.7"/>
	<rect x="41.2" y="8" transform="matrix(0.8659 -0.5001 0.5001 0.8659 0.8412 22.8585)" class="st0" width="3.7" height="3.7"/>
	<rect x="32.3" y="16.9" transform="matrix(0.4999 -0.8661 0.8661 0.4999 0.8275 38.967)" class="st0" width="3.7" height="3.7"/>
	<rect x="74.4" y="41.2" transform="matrix(0.4999 -0.8661 0.8661 0.4999 0.8282 87.636)" class="st0" width="3.7" height="3.7"/>
	<g>
		<g>
			<polyline class="st0" points="18.6,69.9 18.6,105 0.2,105 0.2,69.9 			"/>
		</g>
		<path class="st0" d="M35.6,64.7c1.1-0.6,2.4-0.7,3.6-0.1l27.1,13.5c1.4,0.7,2,2.4,1.4,3.9l-0.5,1.3l0,0l0,0
			c-0.5,1.6-2.1,2.4-3.5,1.8l-19.7-7.8c-0.9-0.4-2,0.2-2.3,1.2c-0.3,1,0.2,2.2,1.1,2.6l19.8,7.8c0.7,0.3,1.4,0.4,2.1,0.4
			c2.3,0,4.5-1.4,5.6-3.6l34.6-9.5c1.1-0.3,2.2-0.1,3.1,0.5c0.9,0.6,1.6,1.6,1.8,2.8c0.4,2.1-0.6,4.3-2.5,5.1L58.5,105
			c-0.9,0.4-1.9,0.4-2.8,0l-32-12.5V71.5L35.6,64.7z"/>
	</g>
</g>
</svg>
