<svg id="Layer_1" data-name="Layer 1" xmlns="http://www.w3.org/2000/svg" viewBox="0 0 110 110"><defs><style>.cls-1{fill:#0a4ca4;}</style></defs><title>innovations</title><g id="innovation"><path id="Shape" class="cls-1" d="M65.91,53.83h0v-.34a20.42,20.42,0,0,1,5.78-14.28A22.72,22.72,0,0,0,78,23.57,22.37,22.37,0,0,0,55.82,1.13,22.61,22.61,0,0,0,33,23.45a22.87,22.87,0,0,0,6.24,15.76,20.69,20.69,0,0,1,5.78,14.16v.57h0v3a3.49,3.49,0,0,0,.9,2.6c.8.91,1.82,1.7,2.61,2.5a2.49,2.49,0,0,1,.34.56h7.82L49,65.39v1.13a2.11,2.11,0,0,0,1.48,2.27c.34.22.79.22,1.13.45a4.62,4.62,0,0,1,.79.68,2,2,0,0,0,1.48,1,30.47,30.47,0,0,0,3.17,0,1.41,1.41,0,0,0,1.25-.79,1.57,1.57,0,0,1,1.36-1c.22-.12.56-.23.79-.34a2.14,2.14,0,0,0,1.36-2.27c-.11-1.13,0-2.38,0-3.51a1.44,1.44,0,0,1,.45-.91c.8-.79,1.7-1.47,2.5-2.38a3.32,3.32,0,0,0,1-2.83A29.58,29.58,0,0,0,65.91,53.83Zm-21.08-27a3.41,3.41,0,0,1-3.4-3.4,14,14,0,0,1,14-13.94,3.4,3.4,0,1,1,0,6.8,7.35,7.35,0,0,0-7.36,7.37A3.27,3.27,0,0,1,44.83,26.85Z"/><g id="Group-3"><polyline id="Path" class="cls-1" points="64.95 85.09 86.03 97.76 79.36 108.88 58.27 96.2"/><path id="Path-2" data-name="Path" class="cls-1" d="M67.92,73a2.66,2.66,0,0,1,1.23-2.19L87.07,59.36a2.15,2.15,0,0,1,2.84.57l.59.76h0a1.83,1.83,0,0,1-.18,2.74L78.46,72.48a1.23,1.23,0,0,0-.11,1.81,1.56,1.56,0,0,0,2,.27l11.9-9.11a3.59,3.59,0,0,0,1-1.11,4.44,4.44,0,0,0-.14-4.64l6.79-24.29a2.6,2.6,0,0,1,1.41-1.67,2.87,2.87,0,0,1,2.32-.07A3.17,3.17,0,0,1,105.72,37l-5.26,36.76a2.36,2.36,0,0,1-1,1.67L80.37,90.14l-12.6-7.58Z"/></g><g id="Group-3-Copy"><polyline id="Path-3" data-name="Path" class="cls-1" points="45.05 85.09 23.96 97.76 30.64 108.88 51.73 96.2"/><path id="Path-4" data-name="Path" class="cls-1" d="M42.08,73a2.66,2.66,0,0,0-1.23-2.19L22.93,59.36a2.15,2.15,0,0,0-2.84.57l-.59.76h0a1.83,1.83,0,0,0,.18,2.74l11.86,9.05a1.23,1.23,0,0,1,.11,1.81,1.56,1.56,0,0,1-1.95.27L17.8,65.45a3.59,3.59,0,0,1-1-1.11A4.44,4.44,0,0,1,17,59.7L10.16,35.41a2.6,2.6,0,0,0-1.41-1.67,2.87,2.87,0,0,0-2.32-.07A3.17,3.17,0,0,0,4.28,37L9.54,73.75a2.36,2.36,0,0,0,1,1.67L29.63,90.14l12.6-7.58Z"/></g></g></svg>