<?xml version="1.0" encoding="UTF-8"?>
<svg width="110px" height="110px" viewBox="0 0 110 110" version="1.1" xmlns="http://www.w3.org/2000/svg" xmlns:xlink="http://www.w3.org/1999/xlink">
    <title>Ion_1@svg</title>
    <g id="Ion_1" stroke="none" stroke-width="1" fill="none" fill-rule="evenodd">
        <g id="noun_digital-marketing_3765968" transform="translate(-0.000000, 12.000000)" fill="#0A4CA4" fill-rule="nonzero">
            <g id="Group">
                <path d="M109.239628,71.7892798 C108.689762,71.156011 107.88206,70.7963225 107.022749,70.7963225 L103.791522,70.7963225 L103.791522,8.56062448 C103.791522,3.85228102 99.9418266,0 95.1984141,0 L14.8184459,0 C10.0752433,0 6.22533782,3.85228102 6.22533782,8.56062448 L6.22533782,70.7963227 L2.97732754,70.7963227 C2.11801674,70.7963227 1.31031493,71.156011 0.760238459,71.78928 C0.193168772,72.4229669 -0.0818691201,73.2618913 0.0213487164,74.1008159 C0.829050521,80.8807633 6.60359407,86 13.4608775,86 L96.5389877,86 C103.396271,86 109.171025,80.8807633 109.978726,74.1008155 C110.081736,73.2618911 109.806698,72.4229667 109.239628,71.7892798 Z M14.7670468,9.8104421 C14.7670468,8.85155183 15.5405523,8.0983172 16.4856684,8.0983172 L93.5141986,8.0983172 C94.4595243,8.0983172 95.2328202,8.85155183 95.2328202,9.8104421 L95.2328202,64.4272681 C95.2328202,65.3859493 94.4595243,66.139393 93.5141986,66.139393 L16.4856684,66.139393 C15.5405523,66.139393 14.7670468,65.3859493 14.7670468,64.4272681 L14.7670468,9.8104421 Z M60.3791234,80.1103907 L49.6377383,80.1103907 C48.6754193,80.1103907 47.9191167,79.340018 47.9191167,78.3982658 C47.9191167,77.4565135 48.6754193,76.6861409 49.6377383,76.6861409 L60.3791234,76.6861409 C61.3244492,76.6861409 62.097745,77.4565135 62.097745,78.3982658 C62.097745,79.340018 61.3244492,80.1103907 60.3791234,80.1103907 Z" id="Shape"></path>
                <path d="M47.3692501,46.5697135 L47.6958973,46.3644759 L42.9868909,38.6939809 L38.9307593,41.1595495 C37.9168313,41.7758894 37.1777317,42.7688465 36.8857003,43.9501124 C36.610662,45.1144493 36.7996853,46.3130622 37.4357768,47.3402952 C38.724743,49.4633133 41.5258948,50.1310671 43.6569687,48.8298354 L43.983616,48.6415267 L47.3520472,46.5697135 C47.3692501,46.5697135 47.3692501,46.5697135 47.3692501,46.5697135 Z" id="Path"></path>
                <path d="M46.4585401,51.0385435 L46.11469,51.243781 L49.3113011,56.1577802 C49.4661281,56.3972938 49.6721444,56.5515355 49.9129865,56.6029494 C50.050191,56.6372253 50.342642,56.6712923 50.6174703,56.5001216 C51.0471257,56.2263321 51.2019528,55.6611972 50.9267047,55.2160279 L47.7131005,50.267962 L46.4585401,51.0385435 Z" id="Path"></path>
                <path d="M55.1030473,23.712888 C52.4393096,28.4726454 49.3285038,32.7529577 45.6678315,36.6735816 L50.7206882,44.9090027 C55.910959,43.4537383 61.1354261,42.6319517 66.6007351,42.4607812 L58.987149,30.0478757 L55.1030473,23.712888 Z" id="Path"></path>
                <path d="M70.7940711,27.0345189 C69.9347603,25.6304594 68.3881688,24.8943628 66.8583604,25.0483955 L70.7768681,31.4345879 C71.5845699,30.1164274 71.6361789,28.4212315 70.7940711,27.0345189 Z" id="Path"></path>
                <path d="M69.0238405,34.9785945 L62.8884536,24.9800526 L58.7465167,18.2341718 C58.5060943,17.8402075 58.1794471,17.7035218 57.9388149,17.6521078 C57.8355969,17.617832 57.7153857,17.6006939 57.6123775,17.6006939 C57.3715356,17.6006939 57.1483162,17.6692459 56.9418802,17.7890027 C56.3234113,18.16562 56.1169753,18.9876154 56.4950217,19.6037463 L70.914492,43.0771208 C71.1033055,43.3853952 71.3785534,43.5906329 71.7221938,43.6763227 C72.0658343,43.7620125 72.4266776,43.6934607 72.7189189,43.522081 C73.3375976,43.1454637 73.5440335,42.3408151 73.1657774,41.7244752 L69.0238405,34.9785945 Z" id="Path"></path>
                <path d="M91.795577,11.522567 L18.20429,11.522567 L18.20429,62.7151432 L91.795577,62.7151432 L91.795577,11.522567 Z M74.4719465,46.3644759 C73.7328469,46.8265741 72.8907392,47.0491586 72.0486312,47.0491586 C71.6705848,47.0491586 71.3097415,46.9977447 70.9316951,46.9122638 C70.1237834,46.723955 69.4190898,46.3130618 68.8348172,45.7650649 C62.5790094,45.782203 56.6842548,46.6382654 50.8408992,48.3675283 L50.565861,48.5217701 L53.7626818,53.4524891 C55.0172421,55.4900265 54.3811506,58.1265567 52.3704976,59.3423075 C51.683007,59.7703387 50.9267043,59.9757853 50.1362056,59.9757853 C49.8097682,59.9757853 49.4661277,59.9415094 49.1222776,59.8558194 C48.0051316,59.58203 47.0770088,58.8971382 46.475743,57.938457 L43.0384997,52.6307025 C42.4540173,52.7506684 41.886738,52.8361491 41.3026751,52.8361491 C38.6559306,52.8361491 36.0607952,51.5008506 34.5825959,49.0864869 C33.4828626,47.3060191 33.1564253,45.2001389 33.6374798,43.1626017 C34.1359473,41.1081354 35.4077104,39.3960105 37.1949343,38.3002255 L42.6258374,34.9957326 C46.8365861,30.5956635 50.2910324,25.7504254 53.1609963,20.2031573 C52.5939266,18.25131 53.3502293,16.0597399 55.1890621,14.9468168 C56.2373962,14.2962009 57.5435653,14.1078924 58.7293135,14.3990288 C59.9152716,14.6730273 60.9464026,15.4262619 61.5994871,16.487771 L65.0023244,22.017901 C68.2333414,21.0420818 71.8082086,22.2918995 73.6470415,25.2881181 C75.4858743,28.2843367 74.9702039,32.0166518 72.6159104,34.4479445 L76.0187477,39.9780746 C77.3593233,42.1696444 76.6718325,45.0289683 74.4719465,46.3644759 Z" id="Shape"></path>
            </g>
        </g>
    </g>
</svg>