<?xml version="1.0" encoding="UTF-8"?>
<svg width="110px" height="110px" viewBox="0 0 110 110" version="1.1" xmlns="http://www.w3.org/2000/svg" xmlns:xlink="http://www.w3.org/1999/xlink">
    <title>PatientAnalytics_behaviour@svg</title>
    <g id="PatientAnalytics_behaviour" stroke="none" stroke-width="1" fill="none" fill-rule="evenodd">
        <g id="development" transform="translate(13.000000, 0.000000)" fill="#0A4CA4" fill-rule="nonzero">
            <path d="M60.462155,11.0009126 L61.8139512,12.3524939 C62.4432282,12.9817709 63.2680129,13.2965168 64.0927976,13.2965168 C64.9175823,13.2965168 65.742367,12.9817709 66.371644,12.3524939 C67.630198,11.0939399 67.630198,9.05335502 66.371644,7.79501585 L59.5187766,0.942578127 C58.2353007,-0.341542277 56.1884854,-0.286542307 54.9602244,0.942578127 L48.1075718,7.79501585 C46.8490178,9.05356986 46.8490178,11.0941547 48.1075718,12.3524939 C49.3661258,13.6112627 51.4064958,13.6112627 52.6650498,12.3524939 L54.016846,11.0009126 L54.016846,22.0997347 C56.2834463,23.1823318 58.4439139,24.4898702 60.4623699,26.0105334 L60.4623699,11.0009126 L60.462155,11.0009126 Z" id="Path"></path>
            <circle id="Oval" cx="37.9031437" cy="56.5855756" r="3.22265452"></circle>
            <path d="M84.1347009,75.9651159 L75.2356627,60.7112179 C76.4699394,50.0998759 73.253945,39.5098035 66.3245933,31.4918391 C64.553852,29.4428753 62.5858843,27.610474 60.462155,26.0105334 L60.462155,56.5855756 C60.462155,69.0245923 50.3423753,79.1445869 37.9031437,79.1445869 C25.4639121,79.1445869 15.3441324,69.0248072 15.3441324,56.5855756 C15.3441324,44.146344 25.4639121,34.0265643 37.9031437,34.0265643 C40.5102712,34.0265643 43.0684144,34.4700015 45.5066748,35.3452745 C47.1820254,35.946407 48.0525718,37.791699 47.4514393,39.4670496 C46.8503069,41.1421854 45.0045852,42.0138061 43.3296642,41.4118142 C41.5917941,40.788338 39.7660529,40.4720881 37.9031437,40.4720881 C29.0180703,40.4720881 21.7896563,47.7005022 21.7896563,56.5855756 C21.7896563,65.4706489 29.0182852,72.699063 37.9031437,72.699063 C46.7880022,72.699063 54.0166311,65.4706489 54.0166311,56.5855756 L54.0166311,22.0997347 C48.9946612,19.7012204 43.4491173,18.4136625 37.7506047,18.4136625 C16.9348347,18.4136625 0,35.3484971 0,56.1642672 C0,66.1089494 3.88501744,75.5680849 10.8319864,82.6340772 L10.8319864,106.600529 C10.8319864,108.373419 12.2639192,109.813301 14.0368089,109.823184 L45.7664207,110 L45.7842527,110 C47.5635877,110 49.0069073,108.556251 49.0069073,106.777345 L49.0069073,102.026508 L61.764752,102.026508 C66.3819565,102.026508 70.1382826,98.2725454 70.1382826,93.6581338 L70.1382826,82.7479443 L80.2395858,82.7479443 C83.6957753,82.7479443 85.8921218,78.9898995 84.1347009,75.9651159 L84.1347009,75.9651159 Z M37.9031437,66.253754 C32.5722286,66.253754 28.2349653,61.9167055 28.2349653,56.5855756 C28.2349653,51.2544456 32.5720137,46.9173972 37.9031437,46.9173972 C43.2342736,46.9173972 47.5713221,51.2544456 47.5713221,56.5855756 C47.5713221,61.9167055 43.2342736,66.253754 37.9031437,66.253754 L37.9031437,66.253754 Z" id="Shape"></path>
        </g>
    </g>
</svg>