<?xml version="1.0" encoding="utf-8"?>
<!-- Generator: Adobe Illustrator 25.0.1, SVG Export Plug-In . SVG Version: 6.00 Build 0)  -->
<svg version="1.1" id="Layer_1" xmlns="http://www.w3.org/2000/svg" xmlns:xlink="http://www.w3.org/1999/xlink" x="0px" y="0px"
	 viewBox="0 0 110 110" style="enable-background:new 0 0 110 110;" xml:space="preserve">
<style type="text/css">
	.st0{fill:#0a4ca4;}
</style>
<g id="Page-1">
	<g id="Desktop-HD" transform="translate(-82.000000, -3756.000000)">
		<g id="launch" transform="translate(82.000000, 3756.000000)">
			<g id="noun_launcher_3333475" transform="translate(0.000000, -0.000000)">
				<path id="Path" class="st0" d="M54.5,0.1c-5.1,7.7-10.2,15.5-15.3,23.2h30.6C64.7,15.5,59.6,7.8,54.5,0.1z"/>
				<path id="Path_1_" class="st0" d="M74.7,51.7V89h21.8c1,0,2.1,0,3.1-0.1C91.3,76.5,83,64.1,74.7,51.7z"/>
				<path id="Path_2_" class="st0" d="M10.4,89c0.7,0,1.3,0,2,0h21.8V51.7C26.2,64.1,18.3,76.5,10.4,89z"/>
				<path id="Path_3_" class="st0" d="M63.3,99.3H44.1l-2.9,7.6c-0.3,1-0.7,2-1,2.9c1,0,2.1,0,3.1,0h21c1,0,2,0,3,0
					c-0.3-1-0.6-2-1-3L63.3,99.3z"/>
				<path id="Shape" class="st0" d="M38.6,92.7c0,0.7,0,1.5,0,2.2c0.7,0,1.5,0,2.2,0h27.4c0.7,0,1.5,0,2.2,0c0-0.7,0-1.5,0-2.2V27.7
					H38.6V92.7z M50.1,37.8h8.7c1.2,0,2.2,1,2.2,2.2s-1,2.2-2.2,2.2h-8.7c-1.2,0-2.2-1-2.2-2.2S48.9,37.8,50.1,37.8L50.1,37.8z
					 M50.1,49.2h8.7c1.2,0,2.2,1,2.2,2.2c0,1.2-1,2.2-2.2,2.2h-8.7c-1.2,0-2.2-1-2.2-2.2C47.9,50.2,48.9,49.2,50.1,49.2L50.1,49.2z"
					/>
			</g>
		</g>
	</g>
</g>
</svg>
