<svg id="Layer_1" data-name="Layer 1" xmlns="http://www.w3.org/2000/svg" viewBox="0 0 110 110"><defs><style>.cls-1{fill:#0a4ca4;}</style></defs><polygon class="cls-1" points="86 27.5 91.67 24.37 97.33 27.5 96.25 20.87 100.83 16.17 94.5 15.2 91.67 9.17 88.83 15.2 82.5 16.17 87.08 20.87 86 27.5"/><path class="cls-1" d="M76.74,70.05a31.67,31.67,0,0,0,0-8.1c-3.11-.79-6.26-1.55-8-2.54a24.78,24.78,0,0,0-1-2.95c.78-1.85,2.89-4.39,5-6.91a33.53,33.53,0,0,0-4.6-6.4c-3.17,1.31-6.37,2.65-8.3,2.71-.64-.5-1.3-1-2-1.42-.57-1.87-.3-5.43,0-9A32.46,32.46,0,0,0,50.48,33c-1.92,3.15-3.87,6.35-5.5,7.38-.32,0-.65-.05-1-.05s-.66,0-1,.05c-1.63-1-3.58-4.23-5.5-7.38a32,32,0,0,0-7.37,2.48c.24,3.53.52,7.09,0,9-.68.44-1.34.91-2,1.42-1.93-.06-5.13-1.4-8.3-2.71a33.53,33.53,0,0,0-4.6,6.4c2.07,2.52,4.18,5.06,5,6.91a22.63,22.63,0,0,0-1,2.95c-1.7,1-4.85,1.75-8,2.54a31.67,31.67,0,0,0,0,8.1c3.11.78,6.26,1.55,8,2.54a23.66,23.66,0,0,0,1,3c-.79,1.85-2.9,4.39-5,6.9a33.29,33.29,0,0,0,4.6,6.41c3.17-1.31,6.37-2.65,8.3-2.71.64.5,1.3,1,2,1.42.57,1.87.3,5.43,0,9A32.46,32.46,0,0,0,37.52,99c1.92-3.15,3.87-6.35,5.5-7.38.32,0,.65,0,1,0s.66,0,1,0c1.63,1,3.58,4.23,5.5,7.38a32.46,32.46,0,0,0,7.37-2.48c-.25-3.53-.52-7.09,0-9,.69-.44,1.35-.92,2-1.42,1.93.06,5.13,1.4,8.3,2.71a34,34,0,0,0,4.6-6.4c-2.07-2.52-4.18-5.06-5-6.91a24.82,24.82,0,0,0,1-3C70.48,71.6,73.63,70.84,76.74,70.05ZM44,86.17A20.17,20.17,0,1,1,64.17,66,20.17,20.17,0,0,1,44,86.17Z"/><path class="cls-1" d="M82.49,6.89a14.66,14.66,0,0,1,2.78-1.76l-1.61-3.3A18.42,18.42,0,0,0,80.2,4Z"/><path class="cls-1" d="M103.05,4l-2.28,2.87a14.61,14.61,0,0,1,2.33,2.32L106,6.85A18.5,18.5,0,0,0,103.05,4Z"/><path class="cls-1" d="M104.89,24.69a15.13,15.13,0,0,1-1.75,2.78L106,29.76a18.2,18.2,0,0,0,2.19-3.48Z"/><path class="cls-1" d="M110,18.28h-.61l-3.06.06A15,15,0,0,1,106,21.6l3.58.81A18.67,18.67,0,0,0,110,18.28Z"/><path class="cls-1" d="M109.53,14.18a18.18,18.18,0,0,0-1.37-3.87l-3.3,1.61A14.57,14.57,0,0,1,106,15Z"/><path class="cls-1" d="M80.25,32.68l2.29-2.87a15,15,0,0,1-2.33-2.31l-2.86,2.29A18.43,18.43,0,0,0,80.25,32.68Z"/><path class="cls-1" d="M73.33,18.33v0l3.67,0a14.54,14.54,0,0,1,.36-3.23l-3.58-.8A18.1,18.1,0,0,0,73.33,18.33Z"/><path class="cls-1" d="M77.37,21.63l-3.57.81a17.88,17.88,0,0,0,1.36,3.88l3.3-1.6A14.38,14.38,0,0,1,77.37,21.63Z"/><path class="cls-1" d="M100.82,29.8A15.47,15.47,0,0,1,98,31.55l1.6,3.3a18.77,18.77,0,0,0,3.47-2.19Z"/><path class="cls-1" d="M80.18,9.22,77.31,6.94a17.68,17.68,0,0,0-2.18,3.48L78.43,12A14.61,14.61,0,0,1,80.18,9.22Z"/><path class="cls-1" d="M88.42,32.64a14.8,14.8,0,0,1-3.1-1.08l-1.59,3.3a17.85,17.85,0,0,0,3.88,1.35Z"/><path class="cls-1" d="M88.36,4a14.81,14.81,0,0,1,3.26-.37V0a18,18,0,0,0-4.08.47Z"/><path class="cls-1" d="M94.94,32.63a14.23,14.23,0,0,1-3.26.37v3.67a18.56,18.56,0,0,0,4.08-.46Z"/><path class="cls-1" d="M98,5.09l1.59-3.31A18.45,18.45,0,0,0,95.68.44L94.88,4A14.57,14.57,0,0,1,98,5.09Z"/><path class="cls-1" d="M44,110A44.05,44.05,0,0,0,88,66H84.33A40.33,40.33,0,1,1,44,25.67H64.44l-5.08,4.06,2.29,2.87,9.16-7.34h0a1.89,1.89,0,0,0,.59-.82,1.83,1.83,0,0,0-.59-2l-9.16-7.33-2.29,2.86L64.44,22H44a44,44,0,0,0,0,88Z"/><rect class="cls-1" x="84.33" y="58.67" width="3.67" height="3.67"/><circle class="cls-1" cx="43.96" cy="57.93" r="6.81"/><path class="cls-1" d="M31.89,78.3c0-6.65,5.4-12.55,12.06-12.55s12,5.9,12,12.55"/></svg>