<svg id="Layer_1" data-name="Layer 1" xmlns="http://www.w3.org/2000/svg" viewBox="0 0 110 110"><defs><style>.cls-1{fill:#0a4ca4;}</style></defs><path class="cls-1" d="M51.1,109.85V84.26a1.87,1.87,0,0,0-.54-1.3l-3.65-3.65-2.59,2.58L47.44,85v24.84Z"/><path class="cls-1" d="M38.3,109.85V97.05a1.83,1.83,0,0,0-.53-1.29L34.11,92.1l-2.58,2.59,3.12,3.12v12Z"/><path class="cls-1" d="M58.94,83a1.86,1.86,0,0,0-.53,1.3v25.59h3.65V85l3.12-3.12L62.6,79.31Z"/><circle class="cls-1" cx="38.3" cy="75.12" r="5.48"/><circle class="cls-1" cx="25.51" cy="87.91" r="5.48"/><circle class="cls-1" cx="71.2" cy="75.12" r="5.48"/><circle class="cls-1" cx="84" cy="87.91" r="5.48"/><path class="cls-1" d="M74.86,97.81,78,94.69,75.39,92.1l-3.65,3.66a1.84,1.84,0,0,0-.54,1.29v12.8h3.66Z"/><path class="cls-1" d="M101.84,31.31a51.16,51.16,0,0,0-91.28-5.73L1,30.77l5.68,3A51.19,51.19,0,0,0,13.05,81l3-2.12A47.47,47.47,0,0,1,10,35.5l5.46,2.89L14.21,26.58a47.51,47.51,0,0,1,84.05,5.66l-5.88,1.53,8.92,8a47.56,47.56,0,0,1-7.82,37.18l3,2.12a51.21,51.21,0,0,0,8.46-39.83L109,29.45Z"/><path class="cls-1" d="M51.38,12l-1.82,6.31a20.3,20.3,0,0,0-4.65,1.94l-5.72-3.19-5.13,5.13,3.19,5.72a20.3,20.3,0,0,0-1.94,4.65L29,34.38v7.24l6.31,1.82a20.3,20.3,0,0,0,1.94,4.65l-3.19,5.72,5.13,5.13,5.72-3.19a20.3,20.3,0,0,0,4.65,1.94L51.38,64h7.24l1.82-6.31a20.3,20.3,0,0,0,4.65-1.94l5.72,3.19,5.13-5.13-3.19-5.72a20.3,20.3,0,0,0,1.94-4.65L81,41.62V34.38l-6.31-1.82a20.3,20.3,0,0,0-1.94-4.65l3.19-5.72-5.13-5.13-5.72,3.19a20.3,20.3,0,0,0-4.65-1.94L58.62,12ZM55,27A11,11,0,1,1,44,38,11,11,0,0,1,55,27Zm0,4a7,7,0,1,0,7,7A7,7,0,0,0,55,31Z"/></svg>