<svg id="Layer_1" data-name="Layer 1" xmlns="http://www.w3.org/2000/svg" viewBox="0 0 110 110"><defs><style>.cls-1{fill:#0a4ca4;}</style></defs><path class="cls-1" d="M56.93,5.09l-.81,2.85a9,9,0,0,0-2.1.87L51.44,7.37,49.13,9.68l1.44,2.58a9,9,0,0,0-.87,2.1l-2.85.81v3.27l2.85.82a9.14,9.14,0,0,0,.87,2.09l-1.44,2.58,2.31,2.31L54,24.8a9,9,0,0,0,2.1.87l.81,2.85H60.2L61,25.67a9,9,0,0,0,2.09-.87l2.58,1.44L68,23.93l-1.44-2.58a9.14,9.14,0,0,0,.87-2.09l2.85-.82V15.17l-2.85-.81a9,9,0,0,0-.87-2.1L68,9.68,65.69,7.37,63.11,8.81A9,9,0,0,0,61,7.94L60.2,5.09Zm1.64,6.76a5,5,0,1,1-5,5A5,5,0,0,1,58.57,11.85Z"/><polyline class="cls-1" points="36.67 35.65 39.08 33.76 34.63 0 32.59 1.02"/><path class="cls-1" d="M50.2,65a3.79,3.79,0,1,1-3.79-3.78A3.79,3.79,0,0,1,50.2,65Z"/><path class="cls-1" d="M65.19,47.36a5.6,5.6,0,1,0,5.6,5.6A5.62,5.62,0,0,0,65.19,47.36Zm0,0a5.6,5.6,0,1,0,5.6,5.6A5.62,5.62,0,0,0,65.19,47.36ZM77.81,33.61H40a31.06,31.06,0,0,0-4.23,3.63,32,32,0,0,0-8,13.78A32.49,32.49,0,0,0,26.55,61.9L18.72,81.83H30V93.76a4,4,0,0,0,4,4h9V110H74.06V92.86A31,31,0,0,0,88.44,74.37L90,68.77A32.37,32.37,0,0,0,77.81,33.61ZM55.37,66.21l-2.18.63a6.42,6.42,0,0,1-.66,1.59l1.1,2-1.78,1.76-2-1.1a7,7,0,0,1-1.6.67l-.62,2.17h-2.5l-.63-2.17a7,7,0,0,1-1.6-.67l-2,1.1-1.77-1.76,1.09-2a6.82,6.82,0,0,1-.66-1.59l-2.17-.63V63.72l2.17-.62a7.36,7.36,0,0,1,.66-1.61l-1.09-2L41,57.76l2,1.1a7.52,7.52,0,0,1,1.6-.67L45.17,56h2.5l.62,2.17a7.52,7.52,0,0,1,1.6.67l2-1.1,1.78,1.76-1.1,2a6.9,6.9,0,0,1,.66,1.61l2.18.62Zm23.06-11.4-3.22.92a10.56,10.56,0,0,1-1,2.38L75.85,61l-2.61,2.61L70.33,62A10.48,10.48,0,0,1,68,63L67,66.2H63.34L62.42,63A10.56,10.56,0,0,1,60,62l-2.91,1.62L54.52,61l1.62-2.91a10.56,10.56,0,0,1-1-2.38L52,54.81V51.12l3.21-.93a10.48,10.48,0,0,1,1-2.37l-1.62-2.91,2.61-2.61L60,43.92a10.12,10.12,0,0,1,2.38-1l.92-3.22H67L68,42.94a10,10,0,0,1,2.37,1l2.91-1.62,2.61,2.61-1.62,2.91a10.48,10.48,0,0,1,1,2.37l3.22.93ZM65.19,47.36a5.6,5.6,0,1,0,5.6,5.6A5.62,5.62,0,0,0,65.19,47.36Z"/></svg>