<?xml version="1.0" encoding="UTF-8"?>
<svg width="110px" height="110px" viewBox="0 0 110 110" version="1.1" xmlns="http://www.w3.org/2000/svg" xmlns:xlink="http://www.w3.org/1999/xlink">
    <title>literature_social_media_mon_automated_signal_detection</title>
    <g id="literature_social_media_mon_automated_signal_detection" stroke="none" stroke-width="1" fill="none" fill-rule="evenodd">
        <polygon id="Path-2" fill="#0a4ca4" fill-rule="nonzero" points="110.007064 9.54373115 110.007064 99.9400677 74 99.9400677 74 87.9400677 98.007 87.94 98.007 21.543 54.0086222 21.5437311 54.0086222 9.54373115"></polygon>
        <path d="M76.9352941,50.2117647 L72.1470588,50.2117647 C71.7588235,48.7882353 71.1764706,47.4294118 70.4647059,46.2 L73.8941176,42.7705882 C73.8941176,42.7705882 73.8941176,42.7705882 73.8941176,42.7058824 L67.2294118,36.0411765 C67.2294118,36.0411765 67.2294118,36.0411765 67.1647059,36.0411765 L63.7352941,39.4705882 C62.5058824,38.7588235 61.1470588,38.2411765 59.7235294,37.7882353 L59.7235294,33 L50.2764706,33 L50.2764706,37.8529412 C48.8529412,38.2411765 47.4941176,38.8235294 46.2647059,39.5352941 L42.8352941,36.1058824 C42.8352941,36.1058824 42.8352941,36.1058824 42.7705882,36.1058824 L36.1058824,42.7705882 C36.1058824,42.7705882 36.1058824,42.7705882 36.1058824,42.8352941 L39.5352941,46.2647059 C38.8235294,47.4941176 38.3058824,48.8529412 37.8529412,50.2764706 L33,50.2764706 L33,59.7235294 L37.8529412,59.7235294 C38.2411765,61.1470588 38.8235294,62.5058824 39.5352941,63.7352941 L36.1058824,67.1647059 C36.1058824,67.1647059 36.1058824,67.1647059 36.1058824,67.2294118 L42.7705882,73.8941176 C42.7705882,73.8941176 42.7705882,73.8941176 42.8352941,73.8941176 L46.2647059,70.4647059 C47.4941176,71.1764706 48.8529412,71.6941176 50.2764706,72.1470588 L50.2764706,77 L59.7235294,77 L59.7235294,72.1470588 C61.1470588,71.7588235 62.5058824,71.1764706 63.7352941,70.4647059 L67.1647059,73.8941176 C67.1647059,73.8941176 67.1647059,73.8941176 67.2294118,73.8941176 L73.8941176,67.2294118 C73.8941176,67.2294118 73.8941176,67.2294118 73.8941176,67.1647059 L70.4647059,63.7352941 C71.1764706,62.5058824 71.6941176,61.1470588 72.1470588,59.7235294 L77,59.7235294 L76.9352941,50.2117647 C77,50.2764706 77,50.2117647 76.9352941,50.2117647 Z M50.5983163,63.9092073 C48.6650505,63.0071721 47.1184379,61.525257 46.2162472,59.5923242 C42.414158,51.731731 48.0850708,44 55.4959228,44 C61.2312778,44 66,48.7034697 66,54.502268 C65.9355578,61.8474124 58.3958214,67.4529174 50.5983163,63.9092073 Z" id="Shape" fill="#0a4ca4" fill-rule="nonzero"></path>
        <path d="M93.9676471,52.6058824 L91.5735294,52.6058824 C91.3794118,51.8941176 91.0882353,51.2147059 90.7323529,50.6 L92.4470588,48.8852941 C92.4470588,48.8852941 92.4470588,48.8852941 92.4470588,48.8529412 L89.1147059,45.5205882 C89.1147059,45.5205882 89.1147059,45.5205882 89.0823529,45.5205882 L87.3676471,47.2352941 C86.7529412,46.8794118 86.0735294,46.6205882 85.3617647,46.3941176 L85.3617647,44 L80.6382353,44 L80.6382353,46.4264706 C79.9264706,46.6205882 79.2470588,46.9117647 78.6323529,47.2676471 L76.9176471,45.5529412 C76.9176471,45.5529412 76.9176471,45.5529412 76.8852941,45.5529412 L73.5529412,48.8852941 C73.5529412,48.8852941 73.5529412,48.8852941 73.5529412,48.9176471 L75.2676471,50.6323529 C74.9117647,51.2470588 74.6529412,51.9264706 74.4264706,52.6382353 L72,52.6382353 L72,57.3617647 L74.4264706,57.3617647 C74.6205882,58.0735294 74.9117647,58.7529412 75.2676471,59.3676471 L73.5529412,61.0823529 C73.5529412,61.0823529 73.5529412,61.0823529 73.5529412,61.1147059 L76.8852941,64.4470588 C76.8852941,64.4470588 76.8852941,64.4470588 76.9176471,64.4470588 L78.6323529,62.7323529 C79.2470588,63.0882353 79.9264706,63.3470588 80.6382353,63.5735294 L80.6382353,66 L85.3617647,66 L85.3617647,63.5735294 C86.0735294,63.3794118 86.7529412,63.0882353 87.3676471,62.7323529 L89.0823529,64.4470588 C89.0823529,64.4470588 89.0823529,64.4470588 89.1147059,64.4470588 L92.4470588,61.1147059 C92.4470588,61.1147059 92.4470588,61.1147059 92.4470588,61.0823529 L90.7323529,59.3676471 C91.0882353,58.7529412 91.3470588,58.0735294 91.5735294,57.3617647 L94,57.3617647 L93.9676471,52.6058824 C94,52.6382353 94,52.6058824 93.9676471,52.6058824 Z M80.9324514,59.4286324 C79.9197884,58.9561377 79.109658,58.1798965 78.6370819,57.1674079 C76.6455113,53.0499543 79.6159895,49 83.4978643,49 C86.5020979,49 89,51.4637222 89,54.501188 C88.9662446,58.3486446 85.0168588,61.2848615 80.9324514,59.4286324 Z" id="Shape-Copy" fill="#0a4ca4" fill-rule="nonzero"></path>
        <path d="M36.9676471,52.6058824 L34.5735294,52.6058824 C34.3794118,51.8941176 34.0882353,51.2147059 33.7323529,50.6 L35.4470588,48.8852941 C35.4470588,48.8852941 35.4470588,48.8852941 35.4470588,48.8529412 L32.1147059,45.5205882 C32.1147059,45.5205882 32.1147059,45.5205882 32.0823529,45.5205882 L30.3676471,47.2352941 C29.7529412,46.8794118 29.0735294,46.6205882 28.3617647,46.3941176 L28.3617647,44 L23.6382353,44 L23.6382353,46.4264706 C22.9264706,46.6205882 22.2470588,46.9117647 21.6323529,47.2676471 L19.9176471,45.5529412 C19.9176471,45.5529412 19.9176471,45.5529412 19.8852941,45.5529412 L16.5529412,48.8852941 C16.5529412,48.8852941 16.5529412,48.8852941 16.5529412,48.9176471 L18.2676471,50.6323529 C17.9117647,51.2470588 17.6529412,51.9264706 17.4264706,52.6382353 L15,52.6382353 L15,57.3617647 L17.4264706,57.3617647 C17.6205882,58.0735294 17.9117647,58.7529412 18.2676471,59.3676471 L16.5529412,61.0823529 C16.5529412,61.0823529 16.5529412,61.0823529 16.5529412,61.1147059 L19.8852941,64.4470588 C19.8852941,64.4470588 19.8852941,64.4470588 19.9176471,64.4470588 L21.6323529,62.7323529 C22.2470588,63.0882353 22.9264706,63.3470588 23.6382353,63.5735294 L23.6382353,66 L28.3617647,66 L28.3617647,63.5735294 C29.0735294,63.3794118 29.7529412,63.0882353 30.3676471,62.7323529 L32.0823529,64.4470588 C32.0823529,64.4470588 32.0823529,64.4470588 32.1147059,64.4470588 L35.4470588,61.1147059 C35.4470588,61.1147059 35.4470588,61.1147059 35.4470588,61.0823529 L33.7323529,59.3676471 C34.0882353,58.7529412 34.3470588,58.0735294 34.5735294,57.3617647 L37,57.3617647 L36.9676471,52.6058824 C37,52.6382353 37,52.6058824 36.9676471,52.6058824 Z M23.9324514,59.4286324 C22.9197884,58.9561377 22.109658,58.1798965 21.6370819,57.1674079 C19.6455113,53.0499543 22.6159895,49 26.4978643,49 C29.5020979,49 32,51.4637222 32,54.501188 C31.9662446,58.3486446 28.0168588,61.2848615 23.9324514,59.4286324 Z" id="Shape-Copy-2" fill="#0a4ca4" fill-rule="nonzero"></path>
        <polygon id="Path-2-Copy" fill="#0a4ca4" fill-rule="nonzero" transform="translate(27.004311, 54.741899) scale(-1, 1) translate(-27.004311, -54.741899) " points="54.0086222 9.54373115 54.0086222 99.9400677 -4.54747351e-13 99.9400677 -4.54747351e-13 87.9400677 42.0085586 87.94 42.0085586 21.543 18.0101809 21.5437311 18.0101809 9.54373115"></polygon>
        <polygon id="Triangle" fill="#0a4ca4" transform="translate(36.000000, 16.000000) rotate(-270.000000) translate(-36.000000, -16.000000) " points="36 5 49 27 23 27"></polygon>
        <polygon id="Triangle-Copy" fill="#0a4ca4" transform="translate(75.000000, 94.000000) scale(-1, 1) rotate(-270.000000) translate(-75.000000, -94.000000) " points="75 83 88 105 62 105"></polygon>
    </g>
</svg>