<?xml version="1.0" encoding="UTF-8"?>
<svg width="110px" height="110px" viewBox="0 0 110 110" version="1.1" xmlns="http://www.w3.org/2000/svg" xmlns:xlink="http://www.w3.org/1999/xlink">
    <title>literature_social_media_mon_patient_safety</title>
    <g id="literature_social_media_mon_patient_safety" stroke="none" stroke-width="1" fill="none" fill-rule="evenodd">
        <path d="M40.33899,25.7807155 C52.6812613,19.5266442 67.5862688,21.1297236 78.2912819,29.8626013 C88.996295,38.5954791 93.4632673,52.7955686 89.665435,66.0199762 C89.0932538,68.0088507 88.5244072,69.9986682 87.9588975,71.9894205 C85.5976469,80.315466 80.0486138,87.3952494 72.4972107,91.7163516 L72.4972107,91.7163516 L72.4972107,110 L39.0315534,110 L39.0315534,96.9331239 L29.3728559,96.9331239 C28.2359272,96.9337782 27.1453381,96.4861079 26.3411723,95.6886636 C25.5370064,94.8912194 25.0851878,93.8093741 25.0851805,92.6812867 L25.0851805,92.6812867 L25.0851805,79.9457314 L13,79.9457314 L21.4206959,58.6800444 C20.5669351,44.9553437 27.9967186,32.0347869 40.33899,25.7807155 Z M56.1082057,72.0215728 L52.3466876,72.0215728 L52.3466876,74.02499 L56.1082057,74.02499 L56.1082057,72.0215728 Z M59.4217351,67.9756104 L49.0775605,67.9756104 L49.0775605,69.9790276 L59.4217351,69.9790276 L59.4217351,67.9756104 Z M59.4234932,63.929648 L49.0793186,63.929648 L49.0793186,65.9330652 L59.4234932,65.9330652 L59.4234932,63.929648 Z M54.520351,36 C48.6778873,36 43,40.5468998 43,46.9952305 C43,54.8903021 48.5544549,56.8744038 49.1716166,62 L49.1716166,62 L59.8279413,62 L59.8698607,61.7020495 C60.6607978,56.7943233 65.9997801,54.7354967 65.9997801,46.9952305 C66.040702,40.5882353 60.3628147,36 54.520351,36 Z" id="Combined-Shape" fill="#0a4ca4" fill-rule="nonzero"></path>
        <path d="M110.052197,54.6962719 L110.052197,60.95195 L93.5840239,60.95195 L93.5840239,54.6962719 L110.052197,54.6962719 Z M16.5203708,54.6678021 L16.5203708,60.9234803 L0.0521973387,60.9234803 L0.0521973387,54.6678021 L16.5203708,54.6678021 Z M91.5351325,14.5175959 L95.6698254,18.9409859 L84.02518,31.3986966 L79.890487,26.9753065 L91.5351325,14.5175959 Z M18.7767373,14.3007153 L30.4213828,26.758426 L26.2866898,31.181816 L14.6420444,18.7241054 L18.7767373,14.3007153 Z M58,0 L58,19 L52,19 L52,0 L58,0 Z" id="Combined-Shape" fill="#0a4ca4" fill-rule="nonzero"></path>
    </g>
</svg>