<?xml version="1.0" encoding="UTF-8"?>
<svg width="110px" height="110px" viewBox="0 0 110 110" version="1.1" xmlns="http://www.w3.org/2000/svg" xmlns:xlink="http://www.w3.org/1999/xlink">
    <title>literature_social_media_mon_customized_reports</title>
    <g id="literature_social_media_mon_customized_reports" stroke="none" stroke-width="1" fill="none" fill-rule="evenodd">
        <path d="M88.8,0 L88.8004791,68.5252826 C87.2552603,68.1813825 85.6488122,68 84,68 C71.8497355,68 62,77.8497355 62,90 C62,92.7847501 62.517399,95.4486551 63.4613097,97.900828 L21,97.9 L21,0 L88.8,0 Z M35.5,69.5 L30.5,69.5 L30.5,92.5 L35.5,92.5 L35.5,69.5 Z M42.5,76.4 L37.5,76.4 L37.5,92.5 L42.5,92.5 L42.5,76.4 Z M56.5,76.4 L51.5,76.4 L51.5,92.5 L56.5,92.5 L56.5,76.4 Z M49.5,84.45 L44.5,84.45 L44.5,92.5 L49.5,92.5 L49.5,84.45 Z M79,57 L31,57 L31,62 L79,62 L79,57 Z M79,46 L31,46 L31,51 L79,51 L79,46 Z M79,35 L31,35 L31,40 L79,40 L79,35 Z M33.6974952,9.3375 L33.4825925,9.59881614 C31.9343255,11.5399184 31,14.0219872 31,16.7625 C31,22.6944293 35.4315992,27.5368207 41,27.9 L41,27.9 L41,17.0247962 L33.6974952,9.3375 Z M42.3333333,17.5875 L42.3333333,27.9 C47.5177994,27.5802326 51.7119741,23.4432413 52.3333333,18.187064 L52.3333333,18.187064 L42.3333333,17.5875 Z M42.1568627,5.9 C39.4117647,5.9 36.9019608,6.93623188 35,8.65 L35,8.65 L42.4509804,16.2623188 L53,16.9 C52.9803922,10.8221014 48.1372549,5.9 42.1568627,5.9 Z" id="Combined-Shape" fill="#0a4ca4" fill-rule="nonzero"></path>
        <path d="M77.6214818,74.3078397 C87.2398183,70.6113977 96.434706,75.1562035 100.185252,82.8520746 C100.185252,82.8520746 100.245745,82.912672 100.245745,82.9732694 C100.36673,83.1550617 100.427223,83.3974513 100.548208,83.639841 C100.608701,83.639841 100.608701,83.7004384 100.608701,83.7004384 C100.790179,84.1246202 100.971657,84.5488021 101.092643,84.972984 C101.153135,85.1547762 101.153135,85.275971 101.213628,85.3971659 C101.274121,85.5789581 101.334613,85.7607503 101.395106,85.9425426 C101.455599,86.1243348 101.455599,86.2455296 101.516091,86.4273218 C101.576584,86.6091141 101.576584,86.7909063 101.637077,86.9726985 C101.697569,87.2756856 101.758062,87.5786726 101.818555,87.8816597 C101.818555,88.0634519 101.879047,88.2452442 101.879047,88.4270364 C101.879047,88.6088286 101.93954,88.7906209 101.93954,88.9724131 C102.000033,89.1542053 102.000033,89.3359976 102.000033,89.5177898 L102.000033,89.5177898 L102.000033,90.0631665 C102.000033,90.1843613 102.000033,90.3661535 101.93954,90.4873484 C101.93954,100.182934 94.1359841,108 84.4571549,108 C72.6610818,108 63.5871794,96.2441024 68.245116,83.7610358 C69.8784184,79.4586196 73.2660086,75.9439698 77.6214818,74.3078397 Z M91.5714614,84 L83.14289,94.2857143 L77.5714614,89.7142857 L76.0000328,91.5714286 L83.7619376,98 L85.3333662,96.1428571 L93.7143185,85.8571429 L91.5714614,84 Z" id="Shape" fill="#0a4ca4" fill-rule="nonzero"></path>
    </g>
</svg>