<?xml version="1.0" encoding="UTF-8"?>
<svg width="110px" height="110px" viewBox="0 0 110 110" version="1.1" xmlns="http://www.w3.org/2000/svg" xmlns:xlink="http://www.w3.org/1999/xlink">
    <title>literature_social_media_mon_</title>
    <g id="literature_social_media_mon_" stroke="none" stroke-width="1" fill="none" fill-rule="evenodd">
        <path d="M15,0 C23.2842712,0 30,6.71572875 30,15 C30,23.2842712 23.2842712,30 15,30 C6.71572875,30 0,23.2842712 0,15 C0,6.71572875 6.71572875,0 15,0 Z M11,8 L8,8 L8,22 L11,22 L11,8 Z M15,12 L12,12 L12,22 L15,22 L15,12 Z M19,17 L16,17 L16,22 L19,22 L19,17 Z M23,12 L20,12 L20,22 L23,22 L23,12 Z" id="Combined-Shape" fill="#0a4ca4"></path>
        <path d="M15,110 C23.2842712,110 30,103.284271 30,95 C30,86.7157288 23.2842712,80 15,80 C6.71572875,80 0,86.7157288 0,95 C0,103.284271 6.71572875,110 15,110 Z M14.5,87 L14.5,95.5 L23,95.5 C23,100.19442 19.1944204,104 14.5,104 C9.80557963,104 6,100.19442 6,95.5 C6,90.8909327 9.66845296,87.1386785 14.2448397,87.0037566 L14.5,87 Z M16,86 C20.5475695,86.5254291 23.2142362,89.1920958 24,94 L16,94 L16,86 L16,86 Z" id="Combined-Shape-Copy-3" fill="#0a4ca4"></path>
        <path d="M95,0 C103.284271,0 110,6.71572875 110,15 C110,23.2842712 103.284271,30 95,30 C86.7157288,30 80,23.2842712 80,15 C80,6.71572875 86.7157288,0 95,0 Z M105.743259,7 L97.2019372,7 L97.2019372,10 L100.611,9.999 L96.234829,14.3582987 L92.8610004,11.1520643 L84,19.9846664 L86.1179129,22.1093887 L92.910829,15.3382987 L96.2844205,18.5437318 L102.742,12.11 L102.743259,14.5 L105.743259,14.5 L105.743259,7 Z" id="Combined-Shape" fill="#0a4ca4"></path>
        <path d="M39.2341527,98.5252264 L39.2341527,102.468305 L32,95.2341527 L39.2341527,88 L39.2341527,91.9430789 L70.7658473,91.9430789 L70.7658473,88 L78,95.2341527 L70.7658473,102.468305 L70.7658473,98.5252264 L39.2341527,98.5252264 Z" id="Combined-Shape" fill="#0a4ca4" fill-rule="nonzero"></path>
        <path d="M39.2341527,18.5252264 L39.2341527,22.4683053 L32,15.2341527 L39.2341527,8 L39.2341527,11.9430789 L70.7658473,11.9430789 L70.7658473,8 L78,15.2341527 L70.7658473,22.4683053 L70.7658473,18.5252264 L39.2341527,18.5252264 Z" id="Combined-Shape-Copy-4" fill="#0a4ca4" fill-rule="nonzero"></path>
        <path d="M-0.765847348,58.5252264 L-0.765847348,62.4683053 L-8,55.2341527 L-0.765847348,48 L-0.765847348,51.9430789 L30.7658473,51.9430789 L30.7658473,48 L38,55.2341527 L30.7658473,62.4683053 L30.7658473,58.5252264 L-0.765847348,58.5252264 Z" id="Combined-Shape-Copy-6" fill="#0a4ca4" fill-rule="nonzero" transform="translate(15.000000, 55.234153) rotate(-270.000000) translate(-15.000000, -55.234153) "></path>
        <path d="M95,80 C103.284271,80 110,86.7157288 110,95 C110,103.284271 103.284271,110 95,110 C86.7157288,110 80,103.284271 80,95 C80,86.7157288 86.7157288,80 95,80 Z M92.5,100 C91.1192881,100 90,101.119288 90,102.5 C90,103.880712 91.1192881,105 92.5,105 C93.8807119,105 95,103.880712 95,102.5 C95,101.119288 93.8807119,100 92.5,100 Z M103.5,95 C102.119288,95 101,96.1192881 101,97.5 C101,98.8807119 102.119288,100 103.5,100 C104.880712,100 106,98.8807119 106,97.5 C106,96.1192881 104.880712,95 103.5,95 Z M87.5,92 C86.1192881,92 85,93.1192881 85,94.5 C85,95.8807119 86.1192881,97 87.5,97 C88.8807119,97 90,95.8807119 90,94.5 C90,93.1192881 88.8807119,92 87.5,92 Z M95.5,92 C94.1192881,92 93,93.1192881 93,94.5 C93,95.8807119 94.1192881,97 95.5,97 C96.8807119,97 98,95.8807119 98,94.5 C98,93.1192881 96.8807119,92 95.5,92 Z M92.5,86 C91.1192881,86 90,87.1192881 90,88.5 C90,89.8807119 91.1192881,91 92.5,91 C93.8807119,91 95,89.8807119 95,88.5 C95,87.1192881 93.8807119,86 92.5,86 Z" id="Combined-Shape" fill="#0a4ca4"></path>
        <path d="M28.0838275,57.596052 C26.7838275,40.796052 40.7838275,26.696052 57.5838275,28.096052 C70.7838275,29.096052 81.4838275,39.896052 82.5838275,53.096052 C83.8838275,69.896052 69.8838275,83.896052 53.0838275,82.596052 C39.8838275,81.596052 29.1838275,70.796052 28.0838275,57.596052 Z M44.9583333,40 L42.9583333,40 L42.9581295,50.137038 C41.2541872,50.5954729 40,52.1512709 40,54 C40,55.8487291 41.2541872,57.4045271 42.9581295,57.862962 L42.9581295,57.862962 L42.9583333,70 L44.9583333,70 L44.9586651,57.8843852 C46.7048267,57.454884 48,55.878694 48,54 C48,52.121306 46.7048267,50.545116 44.9586651,50.1156148 L44.9586651,50.1156148 L44.9583333,40 Z M55.9583333,40 L53.9583333,40 L53.9581295,57.137038 C52.2541872,57.5954729 51,59.1512709 51,61 C51,62.8487291 52.2541872,64.4045271 53.9581295,64.862962 L53.9581295,64.862962 L53.9583333,70 L55.9583333,70 L55.9586651,64.8843852 C57.7048267,64.454884 59,62.878694 59,61 C59,59.121306 57.7048267,57.545116 55.9586651,57.1156148 L55.9586651,57.1156148 L55.9583333,40 Z M66.9583333,40 L64.9583333,40 L64.9581295,47.137038 C63.2541872,47.5954729 62,49.1512709 62,51 C62,52.8487291 63.2541872,54.4045271 64.9581295,54.862962 L64.9581295,54.862962 L64.9583333,70 L66.9583333,70 L66.9586651,54.8843852 C68.7048267,54.454884 70,52.878694 70,51 C70,49.121306 68.7048267,47.545116 66.9586651,47.1156148 L66.9586651,47.1156148 L66.9583333,40 Z" id="Combined-Shape" fill="#0a4ca4" fill-rule="nonzero"></path>
    </g>
</svg>