<?xml version="1.0" encoding="UTF-8"?>
<svg width="110px" height="110px" viewBox="0 0 110 110" version="1.1" xmlns="http://www.w3.org/2000/svg" xmlns:xlink="http://www.w3.org/1999/xlink">
    <title>Marketing_commercial@svg</title>
    <g id="Marketing_commercial" stroke="none" stroke-width="1" fill="none" fill-rule="evenodd">
        <g id="performance" transform="translate(0.000000, 0.000000)" fill="#0a4ca4" fill-rule="nonzero">
            <path d="M101.454833,57.7408333 C102.3275,58.3238333 103.374333,58.6666667 104.5,58.6666667 C107.532333,58.6666667 110,56.199 110,53.1666667 C110,50.3488333 107.862333,48.0461667 105.127,47.7308333 L102.7235,37.3156667 L99.6655,40.3736667 L101.550167,48.5411667 C100.021167,49.5183333 99,51.2215 99,53.1666667 C99,53.7368333 99.1118333,54.2776667 99.275,54.7946667 L92.8803333,59.5906667 C92.0058333,59.0095 90.959,58.6666667 89.8333333,58.6666667 C88.3538333,58.6666667 87.0155,59.2606667 86.0255,60.214 L80.5988333,57.5006667 C80.6263333,57.2788333 80.6666667,57.0606667 80.6666667,56.8333333 C80.6666667,53.801 78.199,51.3333333 75.1666667,51.3333333 C72.1343333,51.3333333 69.6666667,53.801 69.6666667,56.8333333 C69.6666667,57.6803333 69.8738333,58.4723333 70.2185,59.1891667 L62.8576667,66.55 C62.139,66.2071667 61.347,66 60.5,66 C57.4676667,66 55,68.4676667 55,71.5 C55,74.5323333 57.4676667,77 60.5,77 C63.5323333,77 66,74.5323333 66,71.5 C66,70.653 65.7928333,69.861 65.4481667,69.1441667 L72.809,61.7833333 C73.5276667,62.1261667 74.3196667,62.3333333 75.1666667,62.3333333 C76.6461667,62.3333333 77.9845,61.7393333 78.9745,60.786 L84.4011667,63.4993333 C84.3736667,63.7211667 84.3333333,63.9393333 84.3333333,64.1666667 C84.3333333,67.199 86.801,69.6666667 89.8333333,69.6666667 C92.8656667,69.6666667 95.3333333,67.199 95.3333333,64.1666667 C95.3333333,63.5965 95.2215,63.0556667 95.0601667,62.5386667 L101.454833,57.7408333 Z" id="Path"></path>
            <path d="M19.6808333,77.0238333 L18.3846667,96.4571667 L20.1666667,98.241 L21.9486667,96.459 L20.6525,77.0256667 C20.4893333,77.0201667 20.3298333,77 20.1666667,77 C20.0035,77 19.844,77.0201667 19.6808333,77.0238333 L19.6808333,77.0238333 Z" id="Path"></path>
            <circle id="Oval" cx="20.1666667" cy="62.3333333" r="11"></circle>
            <path d="M24.3558333,77.4436667 L25.718,97.8743333 L20.1666667,103.425667 L14.6153333,97.8743333 L15.9775,77.4436667 C6.86216667,79.3778333 -3.25665421e-15,87.483 -3.25665421e-15,97.1666667 L-3.25665421e-15,106.333333 L5.5,106.333333 L5.5,91.6666667 L9.16666667,91.6666667 L9.16666667,106.333333 L31.1666667,106.333333 L31.1666667,91.6666667 L34.8333333,91.6666667 L34.8333333,106.333333 L40.3333333,106.333333 L40.3333333,97.1666667 C40.3333333,87.483 33.4711667,79.3778333 24.3558333,77.4436667 L24.3558333,77.4436667 Z" id="Path"></path>
            <path d="M86.1666667,29.3333333 C91.2211667,29.3333333 95.3333333,25.2211667 95.3333333,20.1666667 C95.3333333,15.1121667 91.2211667,11 86.1666667,11 C81.1121667,11 77,15.1121667 77,20.1666667 C77,25.2211667 81.1121667,29.3333333 86.1666667,29.3333333 Z M86.1666667,14.6666667 C89.199,14.6666667 91.6666667,17.1343333 91.6666667,20.1666667 C91.6666667,23.199 89.199,25.6666667 86.1666667,25.6666667 C83.1343333,25.6666667 80.6666667,23.199 80.6666667,20.1666667 C80.6666667,17.1343333 83.1343333,14.6666667 86.1666667,14.6666667 Z" id="Shape"></path>
            <circle id="Oval" cx="86.1666667" cy="20.1666667" r="1.83333333"></circle>
            <path d="M71.4046667,27.5898333 L69.0286667,31.5498333 L74.7835,37.3028333 L78.7416667,34.9268333 L80.9783333,35.849 L82.0985,40.3333333 L90.2348333,40.3333333 L91.355,35.849 L93.5916667,34.9268333 L97.5498333,37.3028333 L103.304667,31.5498333 L100.928667,27.5898333 L101.781167,25.4961667 L102.760167,25.1258333 L106.333333,24.2348333 L106.333333,16.0985 L101.838,14.9765 L100.928667,12.7398333 L103.304667,8.7835 L97.5498333,3.0305 L93.5916667,5.4065 L91.355,4.48433333 L90.2348333,3.25665421e-15 L82.0985,3.25665421e-15 L80.9783333,4.48433333 L78.7416667,5.4065 L74.7835,3.0305 L69.0286667,8.7835 L71.4046667,12.7398333 L70.554,14.8335 L69.5731667,15.2056667 L66,16.0985 L66,24.2348333 L70.4953333,25.3568333 L71.4046667,27.5898333 Z M86.1666667,7.33333333 C93.2415,7.33333333 99,13.09 99,20.1666667 C99,27.2433333 93.2415,33 86.1666667,33 C79.0918333,33 73.3333333,27.2433333 73.3333333,20.1666667 C73.3333333,13.09 79.0918333,7.33333333 86.1666667,7.33333333 Z" id="Shape"></path>
            <polygon id="Path" points="55 80.6666667 66 80.6666667 66 110 55 110"></polygon>
            <polygon id="Path" points="69.6666667 66 80.6666667 66 80.6666667 110 69.6666667 110"></polygon>
            <polygon id="Path" points="84.3333333 73.3333333 95.3333333 73.3333333 95.3333333 110 84.3333333 110"></polygon>
            <polygon id="Path" points="99 62.3333333 110 62.3333333 110 110 99 110"></polygon>
            <path d="M12.8333333,44 L58.6666667,44 L58.6666667,23.8333333 C58.6666667,16.7566667 52.9081667,11 45.8333333,11 L12.8333333,11 C5.7585,11 0,16.7566667 0,23.8333333 L0,31.1666667 C0,38.2433333 5.7585,44 12.8333333,44 Z M22,18.3333333 L51.3333333,18.3333333 L51.3333333,22 L22,22 L22,18.3333333 Z M14.6666667,18.3333333 L18.3333333,18.3333333 L18.3333333,22 L14.6666667,22 L14.6666667,18.3333333 Z M7.33333333,18.3333333 L11,18.3333333 L11,22 L7.33333333,22 L7.33333333,18.3333333 Z M7.33333333,25.6666667 L51.3333333,25.6666667 L51.3333333,29.3333333 L7.33333333,29.3333333 L7.33333333,25.6666667 Z M7.33333333,33 L51.3333333,33 L51.3333333,36.6666667 L7.33333333,36.6666667 L7.33333333,33 Z" id="Shape"></path>
        </g>
    </g>
</svg>