<?xml version="1.0" encoding="utf-8"?>
<!-- Generator: Adobe Illustrator 25.2.1, SVG Export Plug-In . SVG Version: 6.00 Build 0)  -->
<svg version="1.1" id="Layer_1" xmlns="http://www.w3.org/2000/svg" xmlns:xlink="http://www.w3.org/1999/xlink" x="0px" y="0px"
	 viewBox="0 0 126 162" style="enable-background:new 0 0 126 162;" xml:space="preserve">
<style type="text/css">
	.st0{fill:#0a4ca4;}
</style>
<g id="Page-1">
	<g id="Desktop-HD" transform="translate(-77.000000, -2842.000000)">
		<g id="marketing-efficiency" transform="translate(77.000000, 2842.000000)">
			<g id="business" transform="translate(0.000000, 0.000000)">
				<polygon id="Path" class="st0" points="117.1,51.5 112.1,51.5 112.1,40.3 100.6,40.3 100.6,35.3 117.1,35.3 				"/>
				<rect id="Rectangle" x="15.6" y="120.8" class="st0" width="21.7" height="16.1"/>
				<rect id="Rectangle_1_" x="42.4" y="73.3" class="st0" width="21.7" height="63.5"/>
				<rect id="Rectangle_2_" x="69.1" y="93.4" class="st0" width="21.9" height="43.5"/>
				<rect id="Rectangle_3_" x="96" y="76.6" class="st0" width="21.9" height="60.3"/>
				<polygon id="Path_1_" class="st0" points="15.5,84.1 15.7,76.9 55.4,35.2 85.4,63.4 107.1,41.6 110.3,38.6 113.8,42.2 
					110.6,45.2 85.5,70.4 55.6,42.3 				"/>
				<g id="noun_Time_3869860">
					<path id="Shape" class="st0" d="M21.5,25.1c-7.4,0-13.4,6-13.4,13.4s6,13.4,13.4,13.4s13.4-6,13.4-13.4
						C34.9,31.1,28.9,25.1,21.5,25.1z M26,43c-0.5,0.5-1.2,0.5-1.7,0l-3.7-3.7c-0.2-0.2-0.4-0.5-0.4-0.9v-7.3c0-0.7,0.5-1.2,1.2-1.2
						c0.7,0,1.2,0.5,1.2,1.2V38l3.3,3.3C26.5,41.7,26.5,42.5,26,43z"/>
				</g>
			</g>
		</g>
	</g>
</g>
</svg>
