<svg id="Layer_3" data-name="Layer 3" xmlns="http://www.w3.org/2000/svg" viewBox="0 0 110 110"><defs><style>.cls-1{fill:#0a4ca4;}</style></defs><path class="cls-1" d="M93.42,40.64l.92-.54a4.87,4.87,0,0,1,2.13-.66A44.48,44.48,0,0,0,69,13v3.46A41.21,41.21,0,0,1,93.42,40.64Z"/><path class="cls-1" d="M94,41.62a6.21,6.21,0,0,1,2.47-1c.67-.07,1.4-.68,1.11-1.45A46.26,46.26,0,0,0,69.25,11.86,1.15,1.15,0,0,0,67.81,13v3.46a1.17,1.17,0,0,0,.83,1.1A40.47,40.47,0,0,1,92.32,40.94c.52,1.36,2.73.77,2.2-.6a43,43,0,0,0-25.27-25l.84,1.1V13l-1.45,1.1A43.76,43.76,0,0,1,95.37,39.74l1.1-1.44a8.7,8.7,0,0,0-3.62,1.35A1.14,1.14,0,0,0,94,41.62Z"/><path class="cls-1" d="M16.58,40.64A41.21,41.21,0,0,1,41.05,16.42V13A44.48,44.48,0,0,0,13.53,39.44a4.87,4.87,0,0,1,2.13.66Z"/><path class="cls-1" d="M17.68,40.94A40.47,40.47,0,0,1,41.36,17.52a1.17,1.17,0,0,0,.83-1.1V13a1.15,1.15,0,0,0-1.44-1.1A46.26,46.26,0,0,0,12.42,39.13c-.29.77.44,1.38,1.11,1.45a6.21,6.21,0,0,1,2.47,1,1.14,1.14,0,0,0,1.15-2,8.7,8.7,0,0,0-3.62-1.35l1.1,1.44A43.76,43.76,0,0,1,41.36,14.06L39.91,13v3.46l.84-1.1a43,43,0,0,0-25.27,25C15,41.71,17.16,42.3,17.68,40.94Z"/><path class="cls-1" d="M93.42,69.36A41.21,41.21,0,0,1,69,93.58V97A44.48,44.48,0,0,0,96.47,70.56a4.74,4.74,0,0,1-2.13-.66Z"/><path class="cls-1" d="M92.32,69.06A40.47,40.47,0,0,1,68.64,92.48a1.18,1.18,0,0,0-.83,1.1V97a1.15,1.15,0,0,0,1.44,1.1A46.23,46.23,0,0,0,97.58,70.87c.29-.76-.44-1.37-1.11-1.45a6.21,6.21,0,0,1-2.47-1,1.14,1.14,0,0,0-1.15,2,8.71,8.71,0,0,0,3.62,1.36l-1.1-1.45A43.76,43.76,0,0,1,68.64,95.94L70.09,97V93.58l-.84,1.1a43,43,0,0,0,25.27-25C95.05,68.29,92.84,67.7,92.32,69.06Z"/><path class="cls-1" d="M16.58,69.36l-.92.54a4.74,4.74,0,0,1-2.13.66A44.48,44.48,0,0,0,41.05,97V93.58A41.21,41.21,0,0,1,16.58,69.36Z"/><path class="cls-1" d="M16,68.38a6.07,6.07,0,0,1-2.47,1c-.67.08-1.4.69-1.11,1.45A46.23,46.23,0,0,0,40.75,98.14,1.15,1.15,0,0,0,42.19,97V93.58a1.17,1.17,0,0,0-.83-1.1A40.47,40.47,0,0,1,17.68,69.06c-.52-1.36-2.73-.77-2.2.61a43,43,0,0,0,25.27,25l-.84-1.1V97l1.45-1.1A43.76,43.76,0,0,1,14.63,70.26l-1.1,1.45a8.71,8.71,0,0,0,3.62-1.36A1.14,1.14,0,0,0,16,68.38Z"/><path class="cls-1" d="M45.14,21.54l9,5.34a1.64,1.64,0,0,0,1.66,0l9-5.34a1.63,1.63,0,0,0,.81-1.41V9.47a1.66,1.66,0,0,0-.81-1.42l-9-5.33a1.64,1.64,0,0,0-1.66,0l-9,5.33a1.66,1.66,0,0,0-.81,1.42V20.13A1.63,1.63,0,0,0,45.14,21.54ZM47.62,10.4,55,6l7.38,4.36v8.79L55,23.56l-7.38-4.37Z"/><path class="cls-1" d="M44.56,22.53l6.69,3.95c.82.48,1.63,1.05,2.5,1.45,1.4.65,2.47,0,3.64-.65,2.54-1.5,5.11-3,7.63-4.51A3.23,3.23,0,0,0,66.81,20c0-1.21,0-2.42,0-3.63v-5a7.17,7.17,0,0,0-.3-3.13,5.85,5.85,0,0,0-2.56-2L59.71,3.68c-1.05-.62-2.08-1.28-3.15-1.86A3.17,3.17,0,0,0,53.22,2c-2.55,1.46-5.07,3-7.61,4.5-1.24.73-2.33,1.39-2.42,3-.06,1.18,0,2.38,0,3.56V18.6c0,1.57-.06,2.86,1.37,3.93,1.19.87,2.33-1.11,1.16-2-.54-.4-.24-2-.24-2.52V10a1.23,1.23,0,0,1,.8-1.28l7-4.17c.52-.31,1.29-1,2-.82A12.4,12.4,0,0,1,57.6,5.09l3.88,2.29A18.21,18.21,0,0,1,64.14,9c.53.47.38,1.05.38,1.72v8.26c0,.65.15,1.26-.38,1.71a19.61,19.61,0,0,1-2.76,1.63L57.6,24.51a11.79,11.79,0,0,1-2.34,1.38c-.83.22-2.13-.95-2.77-1.33l-6.77-4A1.14,1.14,0,0,0,44.56,22.53Z"/><path class="cls-1" d="M48.19,11.39,55.58,7H54.42l7.39,4.37-.57-1v8.79l.57-1-7.39,4.36h1.16l-7.39-4.36.57,1V10.4a1.15,1.15,0,0,0-2.29,0v7.79c0,.33,0,.67,0,1a1.53,1.53,0,0,0,.94,1.21l3.77,2.23,3.24,1.91a1.15,1.15,0,0,0,1.16,0l4.94-2.92c.76-.45,1.55-.88,2.3-1.36s.71-1,.71-1.75V11.65c0-.81.16-1.69-.57-2.23a18.11,18.11,0,0,0-1.7-1L55.58,5.05a1.2,1.2,0,0,0-1.16,0L47,9.42A1.14,1.14,0,0,0,48.19,11.39Z"/><path class="cls-1" d="M64.86,88.46l-9-5.33a1.6,1.6,0,0,0-1.66,0l-9,5.33a1.63,1.63,0,0,0-.81,1.41v10.67a1.65,1.65,0,0,0,.81,1.41l9,5.33a1.64,1.64,0,0,0,1.66,0l9-5.33a1.65,1.65,0,0,0,.81-1.41V89.87A1.63,1.63,0,0,0,64.86,88.46ZM62.38,99.6,55,104,47.62,99.6V90.81L55,86.44l7.38,4.37Z"/><path class="cls-1" d="M65.44,87.47l-6.69-4c-.82-.48-1.63-1-2.5-1.45-1.4-.65-2.47,0-3.64.65-2.54,1.5-5.11,3-7.63,4.51A3.23,3.23,0,0,0,43.19,90c0,1.21,0,2.42,0,3.63v5a7.17,7.17,0,0,0,.3,3.13,5.85,5.85,0,0,0,2.56,2l4.24,2.51c1.05.62,2.08,1.28,3.15,1.86a3.17,3.17,0,0,0,3.34-.13c2.55-1.46,5.07-3,7.61-4.5,1.24-.73,2.33-1.39,2.42-3,.06-1.18,0-2.38,0-3.56V91.4c0-1.57.06-2.86-1.37-3.93-1.18-.87-2.32,1.11-1.16,2,.54.4.24,2,.24,2.52V100a1.23,1.23,0,0,1-.8,1.28l-7,4.17c-.52.31-1.29,1-2,.82a12.4,12.4,0,0,1-2.32-1.37l-3.88-2.29a18.21,18.21,0,0,1-2.66-1.57c-.53-.47-.38-1-.38-1.72V91.07c0-.65-.15-1.26.38-1.71a19.61,19.61,0,0,1,2.76-1.63l3.78-2.24a11.79,11.79,0,0,1,2.34-1.38c.83-.22,2.13,1,2.77,1.33l6.77,4A1.14,1.14,0,0,0,65.44,87.47Z"/><path class="cls-1" d="M61.81,98.61,54.42,103h1.16l-7.39-4.37.57,1V90.81l-.57,1,7.39-4.36H54.42l7.39,4.36-.57-1V99.6a1.15,1.15,0,0,0,2.29,0V91.81c0-.33,0-.67,0-1a1.53,1.53,0,0,0-.94-1.21l-3.77-2.23-3.24-1.91a1.15,1.15,0,0,0-1.16,0l-4.94,2.92c-.76.45-1.55.88-2.3,1.36s-.71,1-.71,1.75v6.86c0,.81-.16,1.69.57,2.24.52.38,1.14.67,1.7,1L54.42,105a1.15,1.15,0,0,0,1.16,0L63,100.59A1.15,1.15,0,0,0,61.81,98.61Z"/><path class="cls-1" d="M23,61.75a1.65,1.65,0,0,0,.8-1.42V49.67a1.62,1.62,0,0,0-.8-1.41l-9-5.34a1.66,1.66,0,0,0-1.67,0l-9,5.34a1.63,1.63,0,0,0-.81,1.41V60.33a1.66,1.66,0,0,0,.81,1.42l9,5.33a1.66,1.66,0,0,0,1.67,0ZM5.77,59.4V50.6l7.39-4.36,7.38,4.36v8.8l-7.38,4.36Z"/><path class="cls-1" d="M23.59,62.73c1.26-.93,1.37-2,1.37-3.45v-9a3.24,3.24,0,0,0-1.44-3C21.18,45.7,18.7,44.38,16.3,43a7.45,7.45,0,0,0-3-1.4,5.74,5.74,0,0,0-3.07,1.26c-2.46,1.45-5,2.82-7.39,4.36-2.2,1.42-1.52,4.73-1.52,7V59c0,1.21-.11,2.45.86,3.38a13.38,13.38,0,0,0,2.5,1.55L9,66.46a33.23,33.23,0,0,0,2.88,1.68c1.55.72,2.72-.11,4-.86l7.69-4.55a1.14,1.14,0,0,0-1.15-2l-5.93,3.5a30.56,30.56,0,0,1-2.81,1.67c-.68.3-1,.06-1.59-.3L5,61.42c-.54-.32-1.22-.53-1.36-1.2a16.81,16.81,0,0,1,0-3V52.68a16.52,16.52,0,0,1,0-2.9c.14-.68.88-.92,1.43-1.24l3.63-2.15,3.42-2c.61-.35.91-.6,1.59-.29a30.48,30.48,0,0,1,3,1.78l3.75,2.21c.6.35,2,.84,2.22,1.61a13.09,13.09,0,0,1,0,3v5.06c0,.59.36,2.58-.24,3C21.27,61.63,22.41,63.61,23.59,62.73Z"/><path class="cls-1" d="M6.92,59.4V50.6l-.57,1,7.38-4.36H12.58L20,51.59l-.57-1v8.8l.57-1-7.39,4.36h1.15L6.35,58.41a1.14,1.14,0,0,0-1.15,2l7.38,4.37a1.18,1.18,0,0,0,1.15,0l4.95-2.92c.76-.46,1.55-.89,2.3-1.37s.7-1,.7-1.75V51.85c0-.8.17-1.69-.56-2.23a16.1,16.1,0,0,0-1.7-1l-5.69-3.36a1.13,1.13,0,0,0-1.15,0l-6.69,4A4,4,0,0,0,5,49.8a1.77,1.77,0,0,0-.34,1.39V59.4A1.15,1.15,0,0,0,6.92,59.4Z"/><path class="cls-1" d="M106.7,48.26l-9-5.34a1.66,1.66,0,0,0-1.67,0l-9,5.34a1.62,1.62,0,0,0-.8,1.41V60.33a1.65,1.65,0,0,0,.8,1.42l9,5.33a1.66,1.66,0,0,0,1.67,0l9-5.33a1.66,1.66,0,0,0,.81-1.42V49.67A1.63,1.63,0,0,0,106.7,48.26ZM104.23,59.4l-7.39,4.36L89.46,59.4V50.6l7.38-4.36,7.39,4.36Z"/><path class="cls-1" d="M107.28,47.27l-6.69-4c-.82-.49-1.63-1-2.5-1.46-1.4-.65-2.47,0-3.64.66-2.54,1.5-5.11,3-7.63,4.51A3.21,3.21,0,0,0,85,49.84c-.05,1.2,0,2.42,0,3.63v5a7.18,7.18,0,0,0,.29,3.13,5.92,5.92,0,0,0,2.56,2l4.25,2.51c1,.62,2.07,1.28,3.14,1.86a3.17,3.17,0,0,0,3.34-.13c2.56-1.46,5.08-3,7.61-4.5,1.24-.73,2.34-1.4,2.42-3,.06-1.18,0-2.38,0-3.56V51.2c0-1.57.06-2.87-1.37-3.93-1.18-.88-2.32,1.1-1.15,2,.53.4.24,2,.24,2.51v8.06a1.25,1.25,0,0,1-.8,1.28l-7.06,4.17c-.52.31-1.29,1-2,.82a12.4,12.4,0,0,1-2.32-1.37l-3.87-2.29a17.22,17.22,0,0,1-2.66-1.57c-.54-.47-.39-1.05-.39-1.72V50.87c0-.65-.15-1.26.39-1.72a19.85,19.85,0,0,1,2.75-1.62l3.78-2.24a11.59,11.59,0,0,1,2.34-1.38c.83-.22,2.14,1,2.77,1.33l6.78,4A1.14,1.14,0,0,0,107.28,47.27Z"/><path class="cls-1" d="M103.65,58.41l-7.38,4.36h1.15L90,58.41l.57,1V50.6l-.57,1,7.39-4.36H96.27l7.38,4.36-.57-1v8.8a1.15,1.15,0,0,0,2.29,0V51.61c0-.33,0-.67,0-1a1.52,1.52,0,0,0-.94-1.21l-3.77-2.23-3.24-1.91a1.13,1.13,0,0,0-1.15,0l-5,2.92c-.76.45-1.55.88-2.3,1.36s-.7,1-.7,1.75v6.86c0,.81-.17,1.69.56,2.23a18.11,18.11,0,0,0,1.7,1l5.69,3.36a1.18,1.18,0,0,0,1.15,0l7.38-4.37A1.14,1.14,0,0,0,103.65,58.41Z"/><path class="cls-1" d="M59.67,12.51A1.64,1.64,0,0,0,57.41,12l-3.3,2.06L53,12.66a1.64,1.64,0,0,0-2.57,2l2,2.54a1.64,1.64,0,0,0,2.15.37l4.55-2.84a1.64,1.64,0,0,0,.52-2.26Z"/><path class="cls-1" d="M60.66,11.93a2.85,2.85,0,0,0-3.21-1.21,5.69,5.69,0,0,0-1.28.7l-2.64,1.65,1.38.18c-.36-.46-.71-.93-1.08-1.37a2.78,2.78,0,0,0-4.46,3.3c.34.51.77,1,1.15,1.46s.73.95,1.11,1.4a2.84,2.84,0,0,0,3.55.56c1.06-.61,2.08-1.3,3.11-2,.47-.29,1-.58,1.43-.89a2.83,2.83,0,0,0,.94-3.83c-.78-1.24-2.76-.1-2,1.15.08.14.07.15.05.07s.08.39,0,.18c.06.3,0-.05,0,.11s-.1.27,0,.12c-.06.15-.1.17-.26.27-.35.24-.71.45-1.07.68l-3.09,1.92-.29.19a.65.65,0,1,0-.09.05.48.48,0,0,1-.37,0c-.15-.05-.2-.11-.38-.32l-.43-.55-1.18-1.48c-.11-.14-.23-.28-.33-.42l0,0c.23.32,0,0,0-.09.08.16,0-.23,0,0,0,0,0-.36,0-.17a.73.73,0,0,1,.16-.32l.22-.12c-.08,0-.06,0,.07,0-.1,0-.09,0,.06,0s0-.08.16,0c-.15-.09.16.09.17.09s.12.14.17.2c.37.44.71.9,1.07,1.35a1.15,1.15,0,0,0,1.38.18l2.23-1.39,1-.64L58,13s.17-.09.07-.05l.17,0a.45.45,0,0,1,.46.2,1.14,1.14,0,0,0,2-1.15Z"/><path class="cls-1" d="M53,93.07a1.64,1.64,0,0,0-2.57,2l2,2.54A1.66,1.66,0,0,0,54.6,98l4.55-2.85a1.64,1.64,0,1,0-1.74-2.78l-3.3,2.07Z"/><path class="cls-1" d="M53.81,92.26a2.81,2.81,0,0,0-4.5.44,2.86,2.86,0,0,0-.09,2.61,5.55,5.55,0,0,0,.67.94l1.63,2a2.84,2.84,0,0,0,3.66.7c1.3-.75,2.56-1.6,3.84-2.4a3.93,3.93,0,0,0,1.87-1.86A2.81,2.81,0,0,0,58.35,91a5.08,5.08,0,0,0-2.78,1.2l-2,1.27,1.38.18-1.1-1.39a1.15,1.15,0,0,0-1.61,0,1.17,1.17,0,0,0,0,1.62l1.1,1.38a1.13,1.13,0,0,0,1.38.18l3.11-1.94c.22-.14.27-.21.5-.23,0,0-.12,0,0,0s-.14,0,.06,0l.17,0s-.11,0,0,0,0,0,0,0a1.37,1.37,0,0,1,.17.17s0,.1,0,.1a.65.65,0,0,1,0,.18c0-.17,0,0,0,.06,0-.16,0,.12-.05.17,0-.11,0,.06,0,.06s-.18.16-.11.11c-.11.08-.23.14-.35.22l-3.65,2.28-.5.31a.47.47,0,0,1-.55.07.27.27,0,0,1-.1-.06l-.17-.17-.12-.16-.6-.76c-.43-.53-.89-1.06-1.29-1.62.22.32-.05-.15,0,0s0-.18,0-.08V94a.61.61,0,0,1,0-.11c.06-.14.09-.17.14-.2l.16-.09s.19,0,.09,0h.2c-.11,0,.07,0,.06,0,.17.08.15.08.3.26a1.16,1.16,0,0,0,1.61,0A1.18,1.18,0,0,0,53.81,92.26Z"/><path class="cls-1" d="M15.57,52.19l-3.31,2.06-1.1-1.38a1.64,1.64,0,1,0-2.57,2l2,2.53a1.66,1.66,0,0,0,2.16.37L17.31,55a1.64,1.64,0,0,0-1.74-2.78Z"/><path class="cls-1" d="M15,51.2l-3.3,2.07,1.38.18c-.38-.48-.74-1-1.14-1.44a2.8,2.8,0,0,0-4.15.05,2.85,2.85,0,0,0,.06,3.73c.47.6.95,1.19,1.42,1.78a3.58,3.58,0,0,0,2,1.55,3.26,3.26,0,0,0,2.51-.58l3.88-2.43A2.93,2.93,0,0,0,19.16,53,2.81,2.81,0,0,0,15,51.2a1.14,1.14,0,0,0,1.16,2,.5.5,0,0,1,.36-.09l.17.05c-.18-.05.14.12,0,0s.24.27.15.14c.16.23,0-.06.09.19,0,0,0,.22,0,.06,0,.14,0,.16,0,0l-.06.24c0-.18-.12.14,0,0s-.27.23-.15.14l-.06,0c-.14.1-.29.18-.43.27L13,56.35c-.29.18-.58.37-.88.54.13-.07-.22,0,0,0,0,0-.38,0-.18,0,0,0-.34-.13-.19-.06-.28-.14,0,0-.13-.08a3.65,3.65,0,0,1-.35-.43L9.94,54.78l-.45-.56L9.4,54.1c.23.32,0,0,0-.09.07.14,0-.22,0,0,0,0,0-.38,0-.17,0-.13,0-.16,0-.07a.72.72,0,0,1,.12-.21c-.09.13.15-.11,0,0,.18-.12.15-.11.29-.13-.17,0,0,0,.05,0s.17,0,.13,0a.86.86,0,0,1,.36.3c.37.45.72.92,1.09,1.37a1.13,1.13,0,0,0,1.38.18l3.31-2.07C17.39,52.4,16.24,50.42,15,51.2Z"/><path class="cls-1" d="M94.85,52.87a1.64,1.64,0,1,0-2.57,2l2,2.53a1.64,1.64,0,0,0,2.15.37L101,55a1.64,1.64,0,1,0-1.73-2.78h0L96,54.25Z"/><path class="cls-1" d="M95.65,52.06a2.77,2.77,0,0,0-4.58,3,5,5,0,0,0,.66.94l1.63,2A2.83,2.83,0,0,0,97,58.8c1.33-.76,2.6-1.63,3.9-2.44a3.75,3.75,0,0,0,1.86-1.94,2.81,2.81,0,0,0-2.7-3.62A5.27,5.27,0,0,0,97.45,52l-2.08,1.3,1.39.18-1.11-1.39A1.14,1.14,0,1,0,94,53.67l1.1,1.39a1.13,1.13,0,0,0,1.38.18l3.11-1.94a1.71,1.71,0,0,1,.39-.21.33.33,0,0,1,.15,0c-.11,0,.32.11.14,0,.14.06.06,0,.17.11l0,.07s.08.17,0,.07.07.33,0,.17c0,.15,0,.15,0,.06a1.09,1.09,0,0,1,0,.17s-.06.12,0,.08-.22.19-.15.14c-.1.08-.21.13-.31.2l-3.7,2.31-.49.31c-.22.13-.3.16-.5.09l-.09,0c.09,0-.14-.12-.07,0l-.16-.18L95,56.5l-.62-.78c-.42-.53-.89-1.06-1.28-1.62,0,0,.12.22.06.07s-.12-.25-.06-.12,0-.18,0-.08,0-.13,0-.15a.23.23,0,0,1,0-.11c.07-.16.06-.13.16-.21-.08.06.28-.15.14-.08,0,0,.19,0,.09,0h.21c-.11,0,.06,0,0,0,.18.08.15.08.3.25a1.14,1.14,0,0,0,1.61-1.61Z"/><path class="cls-1" d="M66.44,58.39c-.18-.33-.42-.6-.6-.88a10.36,10.36,0,0,0-1.21-1.4,12,12,0,0,0-1.44-1.25A13.23,13.23,0,0,0,55,52.12a13.46,13.46,0,0,0-8.17,2.74,14.87,14.87,0,0,0-2.59,2.55c-.24.33-.47.61-.7,1a13.7,13.7,0,0,0-2.18,7.33v8.82H68.62V65.72A14.29,14.29,0,0,0,66.44,58.39Z"/><path class="cls-1" d="M62.17,42.65A7.2,7.2,0,1,1,55,35.46,7.2,7.2,0,0,1,62.17,42.65Z"/><path class="cls-1" d="M57.53,35.88V49.34a7.16,7.16,0,0,0,4.64-6.73A7.27,7.27,0,0,0,57.53,35.88Z"/><path class="cls-1" d="M79.29,48.46H74.46l-1.62-5-1.62,5H66.39l4,3.19-1.56,5.2,4-3.22,4,3.22-1.55-5.19ZM75.88,55.4l-3-2.43-3,2.43L71,51.48l-3-2.4h3.65l1.21-3.79,1.22,3.79H77.7l-3,2.41Z"/><polygon class="cls-1" points="70.92 53.71 72.84 52.17 74.77 53.71 74.03 51.23 75.93 49.7 73.62 49.7 72.84 47.3 72.08 49.7 69.75 49.7 71.66 51.22 70.92 53.71"/></svg>