<?xml version="1.0" encoding="UTF-8"?>
<svg width="110px" height="110px" viewBox="0 0 110 110" version="1.1" xmlns="http://www.w3.org/2000/svg" xmlns:xlink="http://www.w3.org/1999/xlink">
    <title>Marketing_scope@svg</title>
    <g id="Marketing_scope" stroke="none" stroke-width="1" fill="none" fill-rule="evenodd">
        <g id="contract" transform="translate(13.500000, 0.000000)" fill="#0a4ca4" fill-rule="nonzero">
            <path d="M81.8258203,23.585332 L58.914668,0.674179688 C58.4998047,0.258027344 57.9263867,0 57.2917383,0 L9.16673828,0 C4.11339844,0 0,4.11103516 0,9.16673828 L0,100.833477 C0,105.888965 4.11339844,110 9.16673828,110 L73.3334766,110 C78.3866016,110 82.5,105.888965 82.5,100.833262 L82.5,25.2082617 C82.5,24.5736133 82.2419727,24.0001953 81.8258203,23.585332 Z M16.0417383,22.9167383 L43.5417383,22.9167383 C44.808457,22.9167383 45.8334766,23.9417578 45.8334766,25.2084766 C45.8334766,26.4751953 44.808457,27.5002148 43.5417383,27.5002148 L16.0417383,27.5002148 C14.7750195,27.5002148 13.75,26.4751953 13.75,25.2084766 C13.75,23.9417578 14.7750195,22.9167383 16.0417383,22.9167383 Z M49.7318164,86.4254102 C39.7551172,96.25 37.4320117,96.25 36.6667383,96.25 C33.8200586,96.25 32.7995508,92.9826563 31.7431641,89.4824219 C30.1451562,92.7252734 28.3056641,96.25 25.2082617,96.25 C23.6147656,96.25 21.7080273,95.2004883 19.9132227,93.6024805 C19.0583594,94.452832 18.207793,95.198125 17.4156641,95.7913086 C17.0038086,96.1002539 16.5204102,96.25 16.0415234,96.25 C15.347793,96.25 14.6583594,95.9343945 14.2063281,95.3324023 C13.4498633,94.320918 13.6556836,92.884043 14.6673828,92.1254297 C15.3924805,91.5792969 16.1311133,90.9214453 16.8562109,90.1963477 C15.0345508,87.6831055 13.75,84.8185938 13.75,82.5 C13.75,77.2698438 17.9216211,73.3332617 20.625,73.3332617 C23.2836914,73.3332617 27.5,75.1998242 27.5,80.2082617 C27.5,83.1264844 25.4723047,86.9019336 22.9478906,90.1626172 C23.8833203,91.0355273 24.7338867,91.6149609 25.2306055,91.6665234 C25.7363477,91.3107422 27.1283203,88.4773828 27.799707,87.1167773 C29.1693359,84.3371289 30.0733984,82.4997852 32.0832617,82.4997852 C34.4332227,82.4997852 35.1626172,84.9369727 36.09375,88.0229883 C36.3668164,88.9382227 36.8188477,90.4466406 37.217168,91.3485547 C38.9000391,90.2116016 43.1477148,86.4741797 46.5181836,83.1576367 C47.4222461,82.2735547 48.8724414,82.2780664 49.7586719,83.1844922 C50.6449023,84.0866211 50.6360937,85.5368164 49.7318164,86.4254102 Z M66.4582617,68.75 L34.375,68.75 C33.1082812,68.75 32.0832617,67.7249805 32.0832617,66.4582617 C32.0832617,65.191543 33.1082812,64.1665234 34.375,64.1665234 L66.4582617,64.1665234 C67.7249805,64.1665234 68.75,65.191543 68.75,66.4582617 C68.75,67.7249805 67.7249805,68.75 66.4582617,68.75 Z M66.4582617,55 L16.0417383,55 C14.7750195,55 13.75,53.9749805 13.75,52.7082617 C13.75,51.441543 14.7750195,50.4165234 16.0417383,50.4165234 L66.4584766,50.4165234 C67.7251953,50.4165234 68.7502148,51.441543 68.7502148,52.7082617 C68.7502148,53.9749805 67.7249805,55 66.4582617,55 Z M66.4582617,41.25 L16.0417383,41.25 C14.7750195,41.25 13.75,40.2249805 13.75,38.9582617 C13.75,37.691543 14.7750195,36.6665234 16.0417383,36.6665234 L66.4584766,36.6665234 C67.7251953,36.6665234 68.7502148,37.691543 68.7502148,38.9582617 C68.7502148,40.2249805 67.7249805,41.25 66.4582617,41.25 Z M64.1667383,22.9167383 C61.6378125,22.9167383 59.5834766,20.8600391 59.5834766,18.3334766 L59.5834766,7.82396484 L74.67625,22.9167383 L64.1667383,22.9167383 Z" id="Shape"></path>
            <path d="M20.625,77.9167383 C20.3833008,78.0688477 18.3332617,79.7048828 18.3332617,82.5 C18.3332617,83.6726172 18.995625,85.1453711 19.9267578,86.5641992 C21.6813867,84.1360352 22.9167383,81.6698438 22.9167383,80.2084766 C22.9167383,78.0263086 21.0054883,77.9167383 20.625,77.9167383 Z" id="Path"></path>
        </g>
    </g>
</svg>