<svg id="Layer_3" data-name="Layer 3" xmlns="http://www.w3.org/2000/svg" viewBox="0 0 110 110"><defs><style>.cls-1{fill:#0a4ca4;}.cls-2{fill:#fff;stroke:#0a4ca4;stroke-miterlimit:10;stroke-width:1.34px;}</style></defs><g id="Biotech_Digital" data-name="Biotech Digital"><path class="cls-1" d="M21.52,60.85a5.75,5.75,0,0,1-5.25-3.47H0A16.35,16.35,0,0,0,12.1,71.07,16.78,16.78,0,0,0,21,90.21a16.47,16.47,0,0,0,16.66,16.17,16.92,16.92,0,0,0,14.58-8.63V70.57H40.57v7.24A5.45,5.45,0,0,1,43.84,83a5.75,5.75,0,1,1-8.23-5.36V65.71H52.47V45.78H39.28V36.55H33.72a5.43,5.43,0,0,1-5.15,3.27,5.75,5.75,0,1,1,0-11.5,5.43,5.43,0,0,1,5.15,3.27H44.14v9.52h8.33v-29a16.65,16.65,0,0,0-31.24,7.54A16.72,16.72,0,0,0,12.3,38.83,16.59,16.59,0,0,0,.2,52.52H16.37a5.74,5.74,0,0,1,11,2.28A6,6,0,0,1,21.52,60.85Z"/><path class="cls-1" d="M97.6,38.93a16.82,16.82,0,0,0-8.93-19.14A16.59,16.59,0,0,0,72,3.62a16.94,16.94,0,0,0-14.58,8.63v12.4H68.84a5.57,5.57,0,0,1,5.25-3.27,5.75,5.75,0,1,1,0,11.5,5.57,5.57,0,0,1-5.25-3.27H57.43V84H66l-.1-10.71H76.67A5.45,5.45,0,0,1,81.83,70a5.75,5.75,0,0,1,0,11.5,5.45,5.45,0,0,1-5.16-3.27H70.82V88.92H57.43v8.93a16.65,16.65,0,0,0,31.24-7.54A16.54,16.54,0,0,0,97.6,71.17c.7-.2,1.19-.5,1.79-.7V61.55H80.05V49.94a5.57,5.57,0,0,1-3.28-5.26,5.76,5.76,0,0,1,11.51,0A5.57,5.57,0,0,1,85,49.94v6.75h18.85V67.8A15.47,15.47,0,0,0,110,55.2,17.33,17.33,0,0,0,97.6,38.93Z"/><path class="cls-1" d="M97.6,38.93a16.82,16.82,0,0,0-8.93-19.14A16.59,16.59,0,0,0,72,3.62a16.94,16.94,0,0,0-14.58,8.63v12.4H68.84a5.57,5.57,0,0,1,5.25-3.27,5.75,5.75,0,1,1,0,11.5,5.57,5.57,0,0,1-5.25-3.27H57.43V84H66l-.1-10.71H76.67A5.45,5.45,0,0,1,81.83,70a5.75,5.75,0,0,1,0,11.5,5.45,5.45,0,0,1-5.16-3.27H70.82V88.92H57.43v8.93a16.65,16.65,0,0,0,31.24-7.54A16.54,16.54,0,0,0,97.6,71.17c.7-.2,1.19-.5,1.79-.7V61.55H80.05V49.94a5.57,5.57,0,0,1-3.28-5.26,5.76,5.76,0,0,1,11.51,0A5.57,5.57,0,0,1,85,49.94v6.75h18.85V67.8A15.47,15.47,0,0,0,110,55.2,17.33,17.33,0,0,0,97.6,38.93Z"/><path class="cls-2" d="M72,48.52v-.07c-.47-5.23-4.14-9-8.66-9A8.55,8.55,0,0,0,56,43.69l-1.13,1.87-1.09-1.87a8.23,8.23,0,0,0-7.14-4.25h0c-4.52,0-8.19,3.78-8.66,9v.07a9.72,9.72,0,0,0,.28,3.36A15.27,15.27,0,0,0,43,59.72L54.9,70.56,67.07,59.72a15.47,15.47,0,0,0,4.68-7.84A9.64,9.64,0,0,0,72,48.52Z"/></g></svg>