<svg id="Layer_3" data-name="Layer 3" xmlns="http://www.w3.org/2000/svg" viewBox="0 0 97.23 109.48"><defs><style>.cls-1{fill:#0a4ca4;}</style></defs><g id="Align_Stratigic" data-name="Align Stratigic"><path class="cls-1" d="M19.71,58.52a1,1,0,0,0,1,1H89.28a1,1,0,0,0,1-1V17.67H19.71ZM47.28,34.74h0A3.67,3.67,0,1,1,51,31.07,3.59,3.59,0,0,1,47.28,34.74ZM85.11,55.49a1,1,0,0,1-1,1H78.53a1,1,0,0,1-1-1V49.92a1,1,0,0,1,1-1h5.56a1,1,0,0,1,1,1Zm-7.47-33.9a1,1,0,0,1,1-1h5.57a1,1,0,0,1,1,1v5.56a1,1,0,0,1-1,1H78.65a1,1,0,0,1-1-1ZM61.32,43a3.67,3.67,0,0,1,0,7.34h0a3.67,3.67,0,0,1,0-7.34ZM40.07,34V28.92a5.41,5.41,0,0,1,5.44-5.44h3.8a5.41,5.41,0,0,1,5.44,5.44V48.15a3.53,3.53,0,0,0,3.54,3.54h5.94a3.54,3.54,0,0,0,3.55-3.54V43.09a5.4,5.4,0,0,1,5.44-5.44h6.32L76.63,35a1.17,1.17,0,0,1-.13-1.4,1.15,1.15,0,0,1,1.4-.12l4.68,4.3h0a1,1,0,0,1,0,1.39h0l-4.68,4.3a.91.91,0,0,1-1.4-.13,1.12,1.12,0,0,1,.38-1.26l2.91-2.66H73.47A3.53,3.53,0,0,0,69.93,43V48a5.4,5.4,0,0,1-5.44,5.44H58.54A5.4,5.4,0,0,1,53.1,48V28.92a3.53,3.53,0,0,0-3.54-3.54H45.77a3.54,3.54,0,0,0-3.55,3.54V34a5.4,5.4,0,0,1-5.44,5.44H27.93a1,1,0,1,1,0-2h8.85C38.43,37.65,40.07,36,40.07,34ZM24.64,21.59a1,1,0,0,1,1-1h5.57a1,1,0,0,1,1,1v5.56a1,1,0,0,1-1,1H25.53a1,1,0,0,1-1-1V21.59Zm0,28.33a1,1,0,0,1,1-1h5.57a1,1,0,0,1,1,1v5.57a1,1,0,0,1-1,1H25.53a1,1,0,0,1-1-1V49.92Z" transform="translate(-6.39 -0.26)"/><path class="cls-1" d="M83.06,82.64H73.6l1.28,4.65H35l1.28-4.65H26.78L20,108.3a1,1,0,0,0,.16,1,1.17,1.17,0,0,0,1,.48h7a1.17,1.17,0,0,0,1.12-1l5.14-19.24h41l5.14,19.24a1.37,1.37,0,0,0,1.12,1h7a1.17,1.17,0,0,0,1-.48,1.06,1.06,0,0,0,.16-1Z" transform="translate(-6.39 -0.26)"/><path class="cls-1" d="M6.39.26V82.44h97.22V.26Zm7.48,7.48H96.05V67.57H13.87Z" transform="translate(-6.39 -0.26)"/></g></svg>