<?xml version="1.0" encoding="UTF-8"?>
<svg width="110px" height="110px" viewBox="0 0 110 110" version="1.1" xmlns="http://www.w3.org/2000/svg" xmlns:xlink="http://www.w3.org/1999/xlink">
    <title>Marketing_techsclae@svg</title>
    <g id="Marketing_techsclae" stroke="none" stroke-width="1" fill="none" fill-rule="evenodd">
        <g id="technology" transform="translate(0.000000, 0.000000)" fill="#0a4ca4" fill-rule="nonzero">
            <polygon id="Path" points="30.3448276 79.695 11.3793103 79.695 11.3793103 75.9018966 26.5517241 75.9018966 26.5517241 68.3156897 30.3448276 68.3156897"></polygon>
            <polygon id="Path" points="26.5517241 68.3156897 12.4906897 68.3156897 6.80103448 62.6260345 1.34758105e-14 62.6260345 1.34758105e-14 58.832931 8.37137931 58.832931 14.0610345 64.5225862 26.5517241 64.5225862"></polygon>
            <polygon id="Path" points="22.7586207 89.1777586 34.137931 89.1777586 34.137931 92.9708621 22.7586207 92.9708621"></polygon>
            <polygon id="Path" points="49.3103448 102.453621 45.5172414 102.453621 45.5172414 82.702931 49.3103448 78.9098276 49.3103448 66.4191379 53.1034483 66.4191379 53.1034483 80.4801724 49.3103448 84.2732759"></polygon>
            <polygon id="Path" points="46.072931 84.8289655 37.9310345 76.687069 37.9310345 53.1432759 41.7241379 53.1432759 41.7241379 75.1167241 48.7546552 82.1472414"></polygon>
            <polygon id="Path" points="26.5517241 53.1432759 30.3448276 53.1432759 30.3448276 64.5225862 26.5517241 64.5225862"></polygon>
            <polygon id="Path" points="84.2334483 72.1087931 70.1724138 72.1087931 70.1724138 68.3156897 82.6631034 68.3156897 88.3527586 62.6260345 102.413793 62.6260345 102.413793 66.4191379 89.9231034 66.4191379"></polygon>
            <polygon id="Path" points="81.5517241 96.7639655 77.7586207 96.7639655 77.7586207 81.5915517 94.8275862 81.5915517 94.8275862 85.3846552 81.5517241 85.3846552"></polygon>
            <polygon id="Path" points="66.3793103 100.557069 62.5862069 100.557069 62.5862069 84.5994828 66.3793103 80.8063793 66.3793103 72.1087931 70.1724138 72.1087931 70.1724138 82.3767241 66.3793103 86.1698276"></polygon>
            <polygon id="Path" points="70.1724138 68.3156897 66.3793103 68.3156897 66.3793103 59.9443103 76.4177586 49.9058621 79.0994828 52.5875862 70.1724138 61.5146552"></polygon>
            <polygon id="Path" points="102.413793 53.1432759 106.206897 53.1432759 106.206897 62.6260345 102.413793 62.6260345"></polygon>
            <polygon id="Path" points="49.3103448 53.1432759 53.1034483 53.1432759 53.1034483 62.6260345 49.3103448 62.6260345"></polygon>
            <circle id="Oval" cx="28.4482759" cy="66.4191379" r="3.79310345"></circle>
            <circle id="Oval" cx="51.2068966" cy="64.5225862" r="3.79310345"></circle>
            <circle id="Oval" cx="68.2758621" cy="70.2122414" r="3.79310345"></circle>
            <circle id="Oval" cx="64.4827586" cy="102.453621" r="3.79310345"></circle>
            <circle id="Oval" cx="104.310345" cy="64.5225862" r="3.79310345"></circle>
            <circle id="Oval" cx="96.7241379" cy="83.4881034" r="3.79310345"></circle>
            <circle id="Oval" cx="79.6551724" cy="98.6605172" r="3.79310345"></circle>
            <circle id="Oval" cx="47.4137931" cy="104.350172" r="3.79310345"></circle>
            <circle id="Oval" cx="9.48275862" cy="77.7984483" r="3.79310345"></circle>
            <circle id="Oval" cx="20.862069" cy="91.0743103" r="3.79310345"></circle>
            <circle id="Oval" cx="36.0344828" cy="91.0743103" r="3.79310345"></circle>
            <path d="M78.6822414,13.1696552 C74.0793103,7.23913793 68.4541379,2.99465517 62.2448276,1.11896552 C64.4467241,4.36206897 66.2939655,9.05034483 67.7694828,14.6527586 C71.6915517,14.3018966 75.3443103,13.7955172 78.6822414,13.1696552 L78.6822414,13.1696552 Z" id="Path"></path>
            <path d="M67.2953448,33.7017241 C66.6941379,28.0367241 65.8463793,23.007069 64.8468966,18.6658621 C61.5810345,18.8896552 58.2772414,19.0053448 55,19.0053448 C51.7227586,19.0053448 48.4189655,18.8896552 45.155,18.6658621 C44.1555172,23.007069 43.3077586,28.0386207 42.7065517,33.7017241 C46.6987931,34.0108621 50.8086207,34.1777586 55,34.1777586 C59.1913793,34.1777586 63.3012069,34.0108621 67.2953448,33.7017241 Z" id="Path"></path>
            <path d="M40.8118966,1.68447631e-15 C33.2693103,2.00844828 26.3677586,5.57965517 20.4675862,10.3475862 C22.5044828,11.0644828 24.7803448,11.7301724 27.297069,12.3237931 C31.1375862,7.00017241 35.7291379,2.78413793 40.8118966,1.68447631e-15 Z" id="Path"></path>
            <path d="M55,37.9708621 C50.6644828,37.9708621 46.4427586,37.802069 42.3518966,37.4948276 C41.9517241,42.3215517 41.7241379,47.5446552 41.7241379,53.1432759 L68.2758621,53.1432759 C68.2758621,47.5446552 68.0482759,42.3215517 67.6481034,37.4948276 C63.5572414,37.802069 59.3355172,37.9708621 55,37.9708621 L55,37.9708621 Z" id="Path"></path>
            <path d="M31.3177586,13.1696552 C34.6556897,13.7974138 38.3084483,14.3018966 42.2305172,14.6527586 C43.7060345,9.05034483 45.5532759,4.36206897 47.7551724,1.11706897 C41.5477586,2.99275862 35.9206897,7.23913793 31.3177586,13.1696552 L31.3177586,13.1696552 Z" id="Path"></path>
            <path d="M38.9608621,33.3698276 C39.5260345,28.0537931 40.3187931,22.9672414 41.3372414,18.3548276 C37.0244828,17.9413793 32.835,17.3344828 28.9337931,16.5341379 C26.2596552,20.6686207 24.0293103,25.4308621 22.3641379,30.6615517 C27.5037931,31.8468966 33.0815517,32.7705172 38.9608621,33.3698276 Z" id="Path"></path>
            <path d="M55,15.2122414 C58.0837931,15.2122414 61.0537931,15.1155172 63.9062069,14.942931 C61.2510345,5.35206897 57.8391379,0.0398275862 55,0.0398275862 C52.1608621,0.0398275862 48.7489655,5.35206897 46.0937931,14.942931 C48.9462069,15.1155172 51.9162069,15.2122414 55,15.2122414 Z" id="Path"></path>
            <path d="M5.445,29.2562069 C1.95724138,36.4801724 1.34758105e-14,44.5822414 1.34758105e-14,53.1432759 L15.1724138,53.1432759 C15.1724138,46.2265517 16.042931,39.5943103 17.6322414,33.457069 C13.1677586,32.2603448 9.09017241,30.8455172 5.445,29.2562069 L5.445,29.2562069 Z" id="Path"></path>
            <path d="M71.4013793,37.1705172 C71.8432759,42.4106897 72.0689655,47.8082759 72.0689655,53.1432759 L91.0344828,53.1432759 C91.0344828,46.5356897 90.2056897,40.2125862 88.7017241,34.3731034 C83.3591379,35.6115517 77.5556897,36.5598276 71.4013793,37.1705172 L71.4013793,37.1705172 Z" id="Path"></path>
            <path d="M92.7622414,13.1772414 C90.4048276,14.1141379 87.7686207,14.942931 84.9237931,15.657931 C87.505,19.8587931 89.6594828,24.602069 91.2924138,29.755 C95.4894828,28.6360345 99.3413793,27.335 102.760862,25.8822414 C100.062069,21.1636207 96.6862069,16.885 92.7622414,13.1772414 L92.7622414,13.1772414 Z" id="Path"></path>
            <path d="M92.3677586,33.457069 C93.957069,39.5943103 94.8275862,46.2265517 94.8275862,53.1432759 L110,53.1432759 C110,44.5822414 108.042759,36.4801724 104.555,29.2562069 C100.909828,30.8455172 96.8322414,32.2603448 92.3677586,33.457069 L92.3677586,33.457069 Z" id="Path"></path>
            <path d="M81.0662069,16.5360345 C77.165,17.3363793 72.9755172,17.9432759 68.6627586,18.3567241 C69.6812069,22.9672414 70.4739655,28.0556897 71.0391379,33.3717241 C76.9203448,32.7724138 82.4962069,31.8487931 87.6358621,30.6653448 C85.9706897,25.4327586 83.7422414,20.6705172 81.0662069,16.5360345 L81.0662069,16.5360345 Z" id="Path"></path>
            <path d="M69.1881034,0 C74.2708621,2.78413793 78.8624138,7.00017241 82.702931,12.3218966 C85.2196552,11.7301724 87.4955172,11.0625862 89.5324138,10.3456897 C83.6341379,5.58155172 76.7306897,2.01034483 69.1881034,0 L69.1881034,0 Z" id="Path"></path>
            <path d="M38.5986207,37.1705172 C32.4443103,36.5598276 26.6408621,35.6115517 21.2982759,34.3731034 C19.7943103,40.2125862 18.9655172,46.5356897 18.9655172,53.1432759 L37.9310345,53.1432759 C37.9310345,47.8082759 38.1567241,42.4106897 38.5986207,37.1705172 Z" id="Path"></path>
            <path d="M25.0762069,15.657931 C22.2332759,14.942931 19.5951724,14.1141379 17.2377586,13.1772414 C13.3137931,16.8868966 9.93793103,21.1655172 7.23913793,25.8841379 C10.6586207,27.3368966 14.5105172,28.637931 18.7075862,29.7568966 C20.3405172,24.602069 22.495,19.8587931 25.0762069,15.657931 L25.0762069,15.657931 Z" id="Path"></path>
        </g>
    </g>
</svg>