<svg id="Layer_3" data-name="Layer 3" xmlns="http://www.w3.org/2000/svg" viewBox="0 0 110 110"><defs><style>.cls-1{fill:#0a4ca4;}</style></defs><g id="In_Depth_Understanding" data-name="In Depth Understanding"><path class="cls-1" d="M44.5,80.81c2.09,10.65,6.6,17.66,10.72,17.66s8.57-7,10.71-17.66Z"/><path class="cls-1" d="M69.35,56h15.7A32.19,32.19,0,0,0,60.14,35.69C64.43,39,67.79,46.52,69.35,56Z"/><path class="cls-1" d="M66.16,56C64.19,44.61,59.5,37,55.22,37s-9,7.65-10.95,19.06Z"/><path class="cls-1" d="M85.63,77.62a33.37,33.37,0,0,0,1.56-10,34.59,34.59,0,0,0-1.1-8.52H69.81a80.33,80.33,0,0,1,.47,8.52,77.82,77.82,0,0,1-.64,9.9h16Z"/><path class="cls-1" d="M67.15,67.72a67.35,67.35,0,0,0-.52-8.52H43.75a66.21,66.21,0,0,0-.52,8.52,67.49,67.49,0,0,0,.69,9.9H66.4A59.94,59.94,0,0,0,67.15,67.72Z"/><path class="cls-1" d="M41.32,80.81H26A32.22,32.22,0,0,0,50.18,99.69C46.18,96.45,42.94,89.55,41.32,80.81Z"/><path class="cls-1" d="M69.12,80.81c-1.62,8.74-4.87,15.64-8.81,18.82A32.08,32.08,0,0,0,84.47,80.81Z"/><path class="cls-1" d="M40.79,77.62a78.72,78.72,0,0,1-.63-9.9,80.24,80.24,0,0,1,.46-8.52H24.29a33,33,0,0,0,.46,18.48h16Z"/><path class="cls-1" d="M41.08,56c1.57-9.5,4.93-17,9.21-20.33A32.07,32.07,0,0,0,25.39,56Z"/><path class="cls-1" d="M65.71,20A10.53,10.53,0,1,0,54.35,31.34,10.56,10.56,0,0,0,65.71,20Zm-6.39-1.12H57.2c-.19,2-1.77,3.28-4.28,3.35,1.55,1.58,3.2,3.59,4.82,5.59H55.85l-4.77-5.47v-1.2h1.07c2.12,0,3.24-.88,3.39-2.23H51.08v-1h4.39c-.27-1.12-1.31-1.7-3-1.7H51.08V15h8.2v1h-3.2a2.86,2.86,0,0,1,1.08,2h2.12v.92Z"/><path class="cls-1" d="M10.92,70.76A10.92,10.92,0,1,0,21.83,81.68,10.91,10.91,0,0,0,10.92,70.76Zm4.39,18.12H6.47L6,88.39c-.55-.86.24-1.47,1.22-2.26L7.32,86c.43-.37.36-2,.24-3.23h-1v-2h.85c-.18-2-.12-4,1.16-5.12a4.26,4.26,0,0,1,2.8-1h.07A4.71,4.71,0,0,1,14.64,76l-1.4,1.46a2.89,2.89,0,0,0-1.83-.79h0a3,3,0,0,0-1.47.48c-.67.61-.67,2.14-.55,3.66h2.38v2H9.58a7,7,0,0,1-.37,4.14h6.1Z"/><path class="cls-1" d="M99.61,71A10.39,10.39,0,1,0,110,81.34,10.4,10.4,0,0,0,99.61,71ZM100.34,86v1.69H98.7V86.08a4.85,4.85,0,0,1-2.31-.73l-.17-.11.62-1.7.34.23a4,4,0,0,0,2.09.62c1,0,1.58-.51,1.58-1.24s-.45-1.13-1.58-1.59c-1.47-.56-2.83-1.35-2.83-3a2.89,2.89,0,0,1,2.38-2.82V74.05h1.58v1.58a4.31,4.31,0,0,1,1.92.57l.22.11L101.92,78l-.34-.17a3.29,3.29,0,0,0-1.86-.51c-1,0-1.36.57-1.36,1.07s.4,1,1.81,1.53c1.87.73,2.66,1.69,2.66,3.22A3.06,3.06,0,0,1,100.34,86Z"/></g></svg>