<?xml version="1.0" encoding="UTF-8"?>
<svg width="110px" height="110px" viewBox="0 0 110 110" version="1.1" xmlns="http://www.w3.org/2000/svg" xmlns:xlink="http://www.w3.org/1999/xlink">
    <title>Marketing_customerex@svg</title>
    <g id="Marketing_customerex" stroke="none" stroke-width="1" fill="none" fill-rule="evenodd">
        <g id="experience" fill="#0a4ca4" fill-rule="nonzero">
            <path d="M32.1585846,39.0990447 C30.3575897,39.9256898 28.3627319,40.3847503 26.2755584,40.3847503 C19.633026,40.3847503 13.8255309,35.6707764 12.465973,29.1767884 L18.7753296,27.8566741 C19.5121764,31.3806152 22.6668548,33.9394378 26.2755584,33.9394378 C29.9639893,33.9394378 33.1320954,31.3143157 33.8085174,27.6972199 L39.6445466,28.7882233 C41.6419221,27.7349854 43.9145661,27.1357728 46.3248444,27.1357728 C48.5169221,27.1357728 50.5957031,27.6309204 52.4562835,28.5129548 C52.5183869,27.7719116 52.5519562,27.0266724 52.5519562,26.2755584 C52.5511168,11.787033 40.7640838,0 26.2755584,0 C11.787033,0 0,11.787033 0,26.2755584 C0,40.7640838 11.787033,52.5511168 26.2755584,52.5511168 C28.1982422,52.5511168 30.1007844,52.3396302 31.9521331,51.9300843 L31.9521331,41.5084839 C31.9521331,40.6877135 32.0251465,39.883728 32.1585846,39.0990447 Z M33.0213166,16.6629792 C34.828186,16.6629792 36.1659242,18.14003 36.2439728,19.8856354 C36.3220215,21.6262054 34.7073364,23.1082917 33.0213166,23.1082917 C31.2144469,23.1082917 29.876709,21.6320801 29.7986603,19.8856354 C29.7206117,18.1459046 31.3352965,16.6629792 33.0213166,16.6629792 Z M19.0136719,16.6629792 C20.8205413,16.6629792 22.1582795,18.14003 22.2363281,19.8856354 C22.3143768,21.6262054 20.6996917,23.1082917 19.0136719,23.1082917 C17.2076416,23.1082917 15.8690643,21.6320801 15.7910156,19.8856354 C15.7138062,18.1459046 17.3284912,16.6629792 19.0136719,16.6629792 Z" id="Shape"></path>
            <path d="M66.1097718,53.8745881 C65.0749969,53.8745881 64.0847015,54.0709686 63.1732941,54.4242858 C61.7323304,52.1264648 59.1777037,50.5948639 56.2714387,50.5948639 C55.68985,50.5948639 55.1216888,50.6569671 54.5745086,50.7736206 L54.5745086,41.6645814 C54.5745086,37.1746826 50.9221649,33.5223389 46.4322663,33.5223389 C41.9423675,33.5223389 38.2900237,37.1746826 38.2900237,41.6645814 L38.2900237,68.7944793 L38.2505797,68.7558747 C36.9061279,67.4475098 35.133667,66.7165374 33.2579803,66.6963958 C30.9190368,66.6745759 28.6858367,67.7890778 27.3044587,69.6865845 C25.9230804,71.5840911 25.5429077,74.0455629 26.2873078,76.2712096 L29.0853118,84.6316528 C30.5976105,89.1534424 33.0179596,93.2111359 36.2775422,96.6914369 L42.5533294,103.391037 L42.5533294,110 L75.5973054,110 L75.5973054,103.680573 L84.0911865,88.6759186 L84.0911865,68.5754395 C84.0911865,64.0863801 80.4388428,60.4331969 75.948944,60.4331969 C75.3245543,60.4331969 74.7177888,60.5070495 74.1336823,60.6404876 C73.4774017,56.8043519 70.1305389,53.8745881 66.1097718,53.8745881 L66.1097718,53.8745881 Z" id="Path"></path>
            <path d="M110,26.2755584 C110,11.787033 98.212967,0 83.7244416,0 C69.2359162,0 57.4488832,11.787033 57.4488832,26.2755584 C57.4488832,28.4667969 57.7199554,30.595932 58.2276918,32.6327515 C58.8151549,34.9868011 59.7198486,37.2166442 60.8956146,39.2736053 C62.6580047,42.3569489 65.0271606,45.0500488 67.8385924,47.1909333 C70.4788208,49.2000579 73.5076141,50.7224274 76.7923737,51.6212464 C79.001236,52.2263337 81.3250732,52.5511168 83.7244416,52.5511168 C98.212967,52.5511168 110,40.7640838 110,26.2755584 Z M90.5549623,15.864029 C92.3618317,15.864029 93.6995696,17.3410798 93.7776185,19.0866852 C93.8556672,20.8272552 92.2409821,22.3093415 90.5549623,22.3093415 C88.7480926,22.3093415 87.4103547,20.8331299 87.332306,19.0866852 C87.2542571,17.3461151 88.8689422,15.864029 90.5549623,15.864029 Z M76.5481567,15.864029 C78.354187,15.864029 79.6919252,17.3410798 79.770813,19.0866852 C79.8480225,20.8272552 78.2333374,22.3093415 76.5481567,22.3093415 C74.7412873,22.3093415 73.4035491,20.8331299 73.3255005,19.0866852 C73.2474518,17.3461151 74.8621369,15.864029 76.5481567,15.864029 Z M76.3215638,37.600174 L69.9861907,36.4143373 C71.2332917,29.7499847 77.0659637,24.9126434 83.8545228,24.9126434 C90.497055,24.9126434 96.3053893,29.6257781 97.6641082,36.1197663 L91.3555908,37.4407196 C90.6179046,33.9159393 87.4632262,31.3579559 83.8545228,31.3579559 C80.1669312,31.3579559 76.998825,33.9830779 76.3215638,37.600174 L76.3215638,37.600174 Z" id="Shape"></path>
        </g>
    </g>
</svg>