<svg id="Layer_3" data-name="Layer 3" xmlns="http://www.w3.org/2000/svg" viewBox="0 0 110 110"><defs><style>.cls-1{fill:#0a4ca4;}</style></defs><g id="Drive_decisions" data-name="Drive decisions"><path class="cls-1" d="M54.74,79c-.36-.62-.8-1.15-1.16-1.69a19.56,19.56,0,0,0-2.32-2.67,23.93,23.93,0,0,0-2.76-2.41A25.41,25.41,0,0,0,32.82,67a25.8,25.8,0,0,0-15.68,5.25,29.26,29.26,0,0,0-5,4.9c-.44.63-.89,1.16-1.34,1.87A26.32,26.32,0,0,0,6.63,93.07V110h52.3V93.07A27.74,27.74,0,0,0,54.74,79Z"/><path class="cls-1" d="M46.54,48.79A13.81,13.81,0,1,1,32.73,35,13.82,13.82,0,0,1,46.54,48.79Z"/><path class="cls-1" d="M37.63,35.78V61.62A13.75,13.75,0,0,0,46.54,48.7,14,14,0,0,0,37.63,35.78Z"/><path class="cls-1" d="M98.34,13.8c-2.19-2.62-6.62-3.29-9.69-2.12a9.51,9.51,0,0,0-5.91,9.59,9.29,9.29,0,0,0,7.37,8.24,10.11,10.11,0,0,0,6.17-.82,7,7,0,0,0,1.17-.7,4.12,4.12,0,0,0,.54-.48c.06-.06.56-.64.13-.24a9.48,9.48,0,0,0,1.78-2.05,9.59,9.59,0,0,0,1.16-6.36,9,9,0,0,0-2.72-5.06c-.9-.92-2.31.49-1.41,1.4a7.34,7.34,0,0,1,1.78,7.93,7.26,7.26,0,0,1-13.8-1A7.42,7.42,0,0,1,88.43,14c2.5-1.51,6.57-1.11,8.5,1.19C97.75,16.19,99.16,14.77,98.34,13.8Z"/><path class="cls-1" d="M97.37,11.46c5.71,3.25,6.55,11.34,2.22,16A9.13,9.13,0,0,1,96,30.17a11.6,11.6,0,0,1-4.85.68,10.61,10.61,0,0,1-7.84-4.5A1,1,0,0,0,81.91,26L76.5,28.38A1,1,0,0,0,76,29.51,13.25,13.25,0,0,1,64.79,45.37c-7.4.8-14.64-5-14.84-12.63a12.12,12.12,0,0,1,1.34-6,28.79,28.79,0,0,1,2-2.94,1,1,0,0,0-.16-1.21L45,15.39a1,1,0,0,0-1.21-.16,8.56,8.56,0,0,1-11-.65C29.88,11.85,30,7,32.37,4A8,8,0,0,1,42.73,2.13,8.16,8.16,0,0,1,45.46,13.2a1,1,0,0,0,.16,1.21L54,21.82a1,1,0,0,0,1.21.15A13.17,13.17,0,0,1,75.1,26.71a1,1,0,0,0,1.37.36l5.1-2.23A1,1,0,0,0,82,23.72,11.44,11.44,0,0,1,82,17.29a11.34,11.34,0,0,1,3.22-4.8c3.2-3.13,8.49-3.25,12.2-1a1,1,0,0,0,1-1.72C94,7.12,87.92,7.32,84,10.82A12.78,12.78,0,0,0,80.1,24.24l.46-1.12-5.1,2.23,1.36.36a15.15,15.15,0,0,0-22.63-5.46l1.2.16L47,13l.15,1.21A10.19,10.19,0,0,0,46.61,3,10.08,10.08,0,0,0,36.47-.77,10.24,10.24,0,0,0,28.8,7a9.83,9.83,0,0,0,3.34,9.59A10.4,10.4,0,0,0,44.75,17l-1.2-.15L51.67,24l-.15-1.21c-2,2.9-3.51,5.74-3.56,9.38a14.83,14.83,0,0,0,4.88,11.08A15.08,15.08,0,0,0,78,29L77.5,30.1l5.42-2.39-1.36-.36a12.81,12.81,0,0,0,9.18,5.47,13.4,13.4,0,0,0,6-.8A10.61,10.61,0,0,0,101,28.88,12.42,12.42,0,0,0,98.38,9.74,1,1,0,0,0,97.37,11.46Z"/><path class="cls-1" d="M92.77,19.4a1.48,1.48,0,0,0,.2,0s-.25-.05-.07,0l.15,0c.17.05,0,0,0,0l.27.16c-.07,0-.16-.14-.06,0s-.1-.17,0,0l.08.14c.1.17,0,0,0,0a.87.87,0,0,1,0,.19c.06.19,0-.08,0-.07s0,.3,0,.35c0,.22,0-.17,0,0s-.05.22-.06.22.12-.22,0,0l-.1.17c-.08.14,0-.06,0,0l0,.05h0l.06,0-.11.07-.1.06c-.18.11.21-.06,0,0l-.18.05c-.21.06.18,0,0,0H91.59c-.22,0,.22.06,0,0l-.13,0c-.2-.05.19.11,0,0l-.12-.06s-.14-.15-.06,0,.07.05,0,0l-.1-.1c-.09-.08,0,0,0,0s-.07-.1-.09-.13l-.07-.15s.08.23,0,0c0,0,0-.15,0-.15s0,.21,0,.07,0-.2,0-.2-.06.25,0,0c0,0,0-.12,0-.12l0,.12a.34.34,0,0,1,.06-.12l.06-.11c.11-.19-.15.14,0,0l.1-.1c.15-.16-.14.08,0,0a1.1,1.1,0,0,1,.14-.09l.08-.05-.09,0,.19-.05c.18,0-.22,0,0,0h1.18a1,1,0,1,0,0-2,5.17,5.17,0,0,0-2.18.24,2.59,2.59,0,0,0-1.09,3.76,2.66,2.66,0,0,0,2,1.17c.27,0,.56,0,.83,0a4,4,0,0,0,1.19-.11,2.45,2.45,0,0,0,1.65-1.56A2.72,2.72,0,0,0,95,18.55a2.57,2.57,0,0,0-2.18-1.14,1,1,0,0,0-1,1A1,1,0,0,0,92.77,19.4Z"/><path class="cls-1" d="M72.47,3.65a4.14,4.14,0,0,1,.89,4.57,4.17,4.17,0,0,1-4,2.41,3.6,3.6,0,0,1-2.12-.86A5,5,0,0,1,65.71,7.9,4.07,4.07,0,0,1,67.2,3.35a4.26,4.26,0,0,1,5.27.3c1,.84,2.38-.57,1.41-1.41a6.39,6.39,0,0,0-7.14-1,6.19,6.19,0,0,0-3.15,6.36,5.4,5.4,0,0,0,1.67,3,6.31,6.31,0,0,0,3.08,1.84,6.07,6.07,0,0,0,3.55-.27,6.58,6.58,0,0,0,2.76-2.28,6.09,6.09,0,0,0-.77-7.69C73,1.32,71.58,2.73,72.47,3.65Z"/><path class="cls-1" d="M67.73,8.59l.24.16c-.35-.24,0,0,0,.09a2.63,2.63,0,0,0,.44.3,2.7,2.7,0,0,0,1.85.23A3,3,0,0,0,72.5,6.61a2.83,2.83,0,0,0-1.93-2.7,3.17,3.17,0,0,0-1.7,0,2.69,2.69,0,0,0-1.42.94,2.8,2.8,0,0,0-.77,1.79,2.46,2.46,0,0,0,.85,1.82A1,1,0,0,0,68.94,7l-.2-.19c-.09-.09.13.21,0,0l-.06-.09a.47.47,0,0,0,0-.1c.13.19.06.17,0,.09l0-.13c0-.17,0,0,0,.08s.09-.38,0,0l0-.2a1,1,0,0,0,0-.1c0,.21-.08.17,0,.09l.17-.28c.07-.11-.12.15,0,0L69,6.12l.19-.2a.5.5,0,0,0,.08-.07c-.12.16-.15.11,0,.05l.09-.05c.19-.11-.14,0,0,0l.24-.07.11,0c-.24.06-.17,0-.09,0a2.61,2.61,0,0,1,.28,0,.86.86,0,0,0,.16,0c-.06,0-.24,0-.07,0l.25.07c.15.05-.08,0-.09,0l.09.05.11.07c.11.06-.16-.14-.07-.06s.18.22.22.22-.14-.2,0-.06l.06.1s.16.29.08.13,0,0,0,0,0,.09,0,.14,0,.08,0,.11l0-.15a.49.49,0,0,1,0,.12,1.76,1.76,0,0,1,0,.23c0,.18,0-.09,0-.09s0,.1,0,.13a1.21,1.21,0,0,0,0,.14s.12-.22,0-.07-.1.19-.16.28-.06,0,0,0a.87.87,0,0,0-.09.11l-.12.11c-.09.1.16-.11.06,0L70,7.4c-.07,0-.14,0,.08,0l-.17,0-.11,0c-.19,0,.24,0,0,0a1.51,1.51,0,0,0-.3,0c.17,0,.2,0,.1,0l-.16,0c-.15,0,.07,0,.08,0a.39.39,0,0,0-.14-.08s-.18-.13,0,0,0,0,0,0A2,2,0,0,0,69,7l-.22-.15a1,1,0,0,0-1.37.35A1,1,0,0,0,67.73,8.59Z"/><path class="cls-1" d="M62.34,20.44a12.59,12.59,0,0,0-10.56,8.09c-1.88,5,.36,10.39,4.5,13.46a11.78,11.78,0,0,0,13.89,0A12.31,12.31,0,0,0,74.61,28.5a12.11,12.11,0,0,0-12.27-8.06c-1.27.11-1.28,2.11,0,2a10.06,10.06,0,0,1,9.52,4.94,9.94,9.94,0,0,1-1.62,11.92,9.81,9.81,0,0,1-11.42,2,10.15,10.15,0,0,1-5.59-10.4,10.44,10.44,0,0,1,9.11-8.41C63.6,22.3,63.61,20.31,62.34,20.44Z"/><path class="cls-1" d="M62.73,32.87h0l-.19,0c-.2,0,.18.11,0,0l-.11-.06-.06,0,0,0s-.13-.13-.16-.15.08.13,0,0l-.12-.2c-.11-.18.05.21,0,0,0,0,0-.18-.05-.18s0,.21,0,.07v-.2l0,.13,0-.12,0-.06c0-.1,0-.08,0,.06a1.33,1.33,0,0,0,.06-.12l.07-.11c.06-.09.05-.07,0,0s.12-.13.14-.15,0,0,0,0a.69.69,0,0,1,.17-.1l0,0c.1-.05.08,0-.06,0l.18,0c.15,0-.05,0-.07,0H64c.2,0-.25-.05-.06,0l.29.07c.17.06-.23-.11-.08,0l.12.07c.2.12-.18-.17,0,0s.1.16,0-.08l.07.11a.3.3,0,0,0,0,.08c.08.14-.09-.27,0,0a2.1,2.1,0,0,1,.06.24c0,.19,0-.26,0-.06s0,.11,0,.17,0,.19,0,.29,0-.25,0-.06,0,.13,0,.19a.56.56,0,0,0,0,.12c0,.11.12-.25,0-.1a.75.75,0,0,1-.07.12c-.09.14,0,0,.06-.07l-.06.06c-.07.07-.16.1.08,0l-.11.08,0,0c.18-.07,0,0,0,0l-.19,0c-.11,0-.18,0,.06,0l-.16,0H62.73a1,1,0,0,0-1,1,1,1,0,0,0,1,1,5.5,5.5,0,0,0,2.35-.28,2.69,2.69,0,0,0,1.17-3.2A2.24,2.24,0,0,0,65.14,30a3.32,3.32,0,0,0-1.49-.3h-.91a2.64,2.64,0,0,0-2.12,1.13,2.55,2.55,0,0,0-.19,2.62,2.64,2.64,0,0,0,2.3,1.43,1,1,0,1,0,0-2Z"/><path class="cls-1" d="M43.44,4.23a6.79,6.79,0,0,0-7.87-1.32,6.9,6.9,0,0,0-3.69,7.19,6,6,0,0,0,1.93,3.68,1.7,1.7,0,0,1,.33.31,5.63,5.63,0,0,0,.72.57,5.87,5.87,0,0,0,1.87.85A7.1,7.1,0,0,0,44.23,13a7,7,0,0,0-.79-8.75c-.91-.89-2.32.51-1.41,1.41A4.93,4.93,0,0,1,43,11.22,4.83,4.83,0,0,1,38,13.72a4.31,4.31,0,0,1-2.61-1.16c-.2-.19-.51-.43-.6-.55a5.85,5.85,0,0,1-.77-1.41,4.82,4.82,0,0,1,1.78-5.52A4.73,4.73,0,0,1,42,5.64C42.93,6.56,44.34,5.15,43.44,4.23Z"/><path class="cls-1" d="M38.12,8.17c.45,0,.91,0,1.37,0,.13,0-.27,0-.08,0l.15,0,.09,0c.11,0,.14.1-.06,0l.19.12c-.24-.13-.14-.13-.07-.05a.34.34,0,0,0,.08.09c-.16-.12-.12-.17,0-.06s0,.05,0,.08-.08-.25,0-.07,0,.07,0,.11l0,.12c0,.12,0,.18,0,0,0,.11,0,.24,0,.36a.62.62,0,0,1,0,.13V8.84a.28.28,0,0,1,0,.13V9h0l0-.06-.06.12s-.08.16-.11.17.1-.19,0,0l0,0c.12-.09.14-.1,0,0l-.16.1c-.17.11.22-.06,0,0l-.15,0c-.2.05,0,0,0,0H38.05c-.22,0,.22.07,0,0l-.16,0c-.13,0,.21.13,0,0l-.16-.1c-.17-.1.12.14,0,0s-.15-.11-.15-.15l0,.07a.22.22,0,0,1,0-.08l-.1-.17c.06.13.07.16.05.09l0-.09V8.82c0-.1,0-.08,0,.08a1.34,1.34,0,0,0,0-.2c0-.23-.07.22,0,0l0-.19-.06.12.06-.11s.07-.15.11-.17l-.07.1.09-.11.11-.09-.1.07s.13-.09.17-.11L38,8.16c-.13.06-.16.07-.09.05l.16-.05h.06a1,1,0,0,0,0-2A2.66,2.66,0,0,0,36,7.33a2.45,2.45,0,0,0-.34,2.18,2.7,2.7,0,0,0,1.7,1.72,3.75,3.75,0,0,0,1.25.12,7.23,7.23,0,0,0,1,0,2.46,2.46,0,0,0,1.88-1.27,2.71,2.71,0,0,0-.86-3.54,5.16,5.16,0,0,0-2.53-.33,1,1,0,0,0-1,1A1,1,0,0,0,38.12,8.17Z"/><path class="cls-1" d="M40.66,25.78H42c.2,0-.24-.06,0,0l.29.07c.17.06-.23-.12-.07,0l.07.05c.14.08,0,.07-.06-.06,0,0,.07.07.1.09s.07.16,0-.07l.07.11c0,.09,0,.19,0-.08a.78.78,0,0,1,0,.14c0,.08,0,.17.05.25-.07-.28,0-.15,0-.05a1,1,0,0,1,0,.17,1.09,1.09,0,0,1,0,.18c0,.09-.06.24,0-.05,0,.1,0,.2-.06.3s.11-.2,0,0l-.07.11c.12-.23.12-.14,0-.07l-.08.07s.23-.15,0,0l-.11.06c.2-.14.17-.06.06,0A2.1,2.1,0,0,1,42,27c-.2,0,.26,0,0,0H40.6c-.11,0-.09,0,.07,0,0,0-.17,0-.19,0-.18,0,.07,0,.06,0s-.21-.11-.23-.12c-.18-.11.14.15,0,0l-.1-.1c-.05-.06-.06-.06,0,0s0,0,0-.06l-.06-.11,0,.06-.06-.19c0-.08,0-.08,0,0s0,.09,0,0v-.2c0,.16,0,.18,0,.07a.56.56,0,0,1,0-.12c0-.21-.12.18,0,0l.1-.17c.11-.18-.15.14,0,0a.47.47,0,0,0,.1-.1l0,0,.11-.08.11-.06-.06,0,.18-.06h.06a1,1,0,0,0,0-2A2.69,2.69,0,0,0,38.47,25a2.54,2.54,0,0,0-.14,2.45,2.59,2.59,0,0,0,1.81,1.44,7.24,7.24,0,0,0,1.23.05,5.15,5.15,0,0,0,1.24-.09,2.22,2.22,0,0,0,1.44-1.09,2.85,2.85,0,0,0-.74-3.6,4.68,4.68,0,0,0-2.65-.4,1,1,0,0,0-1,1A1,1,0,0,0,40.66,25.78Z"/><path class="cls-1" d="M83.13,46.09a4.22,4.22,0,0,0-2.27.62,4.06,4.06,0,0,0-1.51,1.91A3.9,3.9,0,0,0,80.56,53a4,4,0,0,0,4.61.37A4,4,0,0,0,87,49.13,3.79,3.79,0,0,0,85.74,47a4,4,0,0,0-2.61-.86,1,1,0,0,0-1,1,1,1,0,0,0,1,1l.45,0c.16,0-.13,0,0,0l.22,0a2,2,0,0,1,.32.1c-.18-.06,0,0,0,0l.21.11.13.09c-.17-.12,0,0,0,0s.1.1.15.15.14.17.07.08.09.13.08.12a.86.86,0,0,1,.1.16l.08.15c.12.24,0-.16,0,.1l.09.35c0,.18,0,0,0,0a1.69,1.69,0,0,1,0,.23,2.54,2.54,0,0,1,0,.39s0,.25,0,.06c0,.07,0,.14,0,.22s-.15.39-.06.21a2.91,2.91,0,0,1-.17.3l-.1.15c.12-.16,0,0,0,0s-.21.22-.32.32l-.06.06c.1-.09-.12.08-.11.08l-.3.16c.16-.08,0,0,0,0l-.17.05-.21,0c-.11,0,.13,0-.06,0a3.09,3.09,0,0,1-.43,0H82.8c-.17,0,.21.06-.06,0l-.35-.09c-.18,0,0,0,0,0l-.24-.12a3,3,0,0,1-.3-.19c.14.1,0,0,0,0l-.14-.14-.16-.18s.09.14,0,0-.16-.26-.23-.39,0-.17,0,0l-.06-.17a.85.85,0,0,1,0-.17s0-.28,0-.14,0-.07,0-.1a1.21,1.21,0,0,1,0-.19c0-.08,0-.16,0-.23,0,.14,0,0,0-.06a2.25,2.25,0,0,1,.05-.22s.08-.25,0-.13.06-.13.06-.13l.12-.2a2.14,2.14,0,0,1,.13-.19c-.09.11,0,0,.06,0l.16-.17.09-.08c-.12.09.1-.06.1-.06a.77.77,0,0,1,.18-.1s.21-.1,0,0l.21-.07.21-.06s.26,0,.13,0,.16,0,.15,0h.29a1,1,0,0,0,0-2Z"/><path class="cls-1" d="M86.73,46.2A5.45,5.45,0,0,1,87.88,52a5.34,5.34,0,0,1-5.34,3,5.12,5.12,0,0,1-2.6-9.19,5.63,5.63,0,0,1,6.79.31c1,.82,2.39-.58,1.41-1.41a7.73,7.73,0,0,0-8.4-1.1,7.1,7.1,0,0,0,1.61,13.2,7.18,7.18,0,0,0,6.79-12.1C87.26,43.85,85.86,45.26,86.73,46.2Z"/></g></svg>