<?xml version="1.0" encoding="UTF-8"?>
<svg width="110px" height="110px" viewBox="0 0 110 110" version="1.1" xmlns="http://www.w3.org/2000/svg" xmlns:xlink="http://www.w3.org/1999/xlink">
    <title>MedExc_advantage@svg</title>
    <g id="MedExc_advantage" stroke="none" stroke-width="1" fill="none" fill-rule="evenodd">
        <g id="competitive" transform="translate(3.666667, 0.000000)" fill="#0a4ca4" fill-rule="nonzero">
            <polygon id="Path" points="91.6666667 38.5 95.3333333 38.5 95.3333333 0 91.344 0 65.9285 9.24183333 91.6666667 17.8218333"></polygon>
            <path d="M44.9166667,66 C43.4005,66 42.1666667,67.2338333 42.1666667,68.75 L42.1666667,81.6401667 C42.1666667,86.1721667 38.7823333,90.0735 34.2961667,90.7151667 L27.5,91.6666667 L25.6666667,91.6611667 L25.6666667,91.6666667 L23.8333333,91.6666667 C23.7691667,91.6666667 23.7086667,91.6575 23.6445,91.6575 L19.9063333,91.6483333 L13.3705,90.7151667 C8.88433333,90.0735 5.5,86.1721667 5.5,81.6401667 L5.5,68.75 C5.5,67.2338333 4.26616667,66 2.75,66 C1.23383333,66 0,67.2338333 0,68.75 L0,83.2223333 C0,89.3621667 4.378,94.6623333 10.4078333,95.8246667 L14.6666667,96.6441667 L14.6666667,110 L33,110 L33,96.6441667 L37.2588333,95.8228333 C43.2886667,94.6623333 47.6666667,89.3621667 47.6666667,83.2223333 L47.6666667,68.75 C47.6666667,67.2338333 46.4328333,66 44.9166667,66 L44.9166667,66 Z" id="Path"></path>
            <circle id="Oval" cx="23.8333333" cy="80.6666667" r="7.33333333"></circle>
            <path d="M103.583333,66 C102.067167,66 100.833333,67.2338333 100.833333,68.75 L100.833333,81.6401667 C100.833333,86.1721667 97.449,90.0735 92.9628333,90.7151667 L86.1666667,91.6666667 L84.3333333,91.6611667 L84.3333333,91.6666667 L82.5,91.6666667 C82.4358333,91.6666667 82.3753333,91.6575 82.3111667,91.6575 L78.573,91.6483333 L72.0371667,90.7151667 C67.551,90.0735 64.1666667,86.1721667 64.1666667,81.6401667 L64.1666667,68.75 C64.1666667,67.2338333 62.9328333,66 61.4166667,66 C59.9005,66 58.6666667,67.2338333 58.6666667,68.75 L58.6666667,83.2223333 C58.6666667,89.3621667 63.0446667,94.6623333 69.0745,95.8246667 L73.3333333,96.6441667 L73.3333333,110 L91.6666667,110 L91.6666667,96.6441667 L95.9255,95.8228333 C101.955333,94.6623333 106.333333,89.3621667 106.333333,83.2223333 L106.333333,73.3333333 L106.333333,68.75 C106.333333,67.2338333 105.0995,66 103.583333,66 L103.583333,66 Z" id="Path"></path>
            <circle id="Oval" cx="31.1666667" cy="11" r="7.33333333"></circle>
            <path d="M6.32133333,51.3333333 C7.37366667,51.3333333 8.25733333,50.7686667 8.65883333,49.896 L18.9933333,27.5 L23.8333333,27.5 L23.8333333,69.2413333 L29.3333333,65.2813333 L29.3333333,45.8333333 L33.759,45.8333333 L40.3333333,52.4076667 L40.3333333,57.3613333 L45.8333333,53.4013333 L45.8333333,52.5378333 C45.8333333,51.0895 45.2466667,49.6741667 44.2218333,48.6493333 L38.4981667,42.9256667 L38.5,27.7805 L40.0326667,27.5256667 C46.3173333,26.4788333 51.6468333,22.3923333 54.2905,16.5935 L58.4228333,7.52766667 C58.5841667,7.172 58.6666667,6.79616667 58.6666667,6.4075 C58.6666667,4.884 57.4493333,3.66666667 55.9533333,3.66666667 C54.8955,3.66666667 54.0265,4.20383333 53.5956667,5.06733333 L49.6925,12.8773333 C46.8783333,18.5038333 41.2243333,22 34.936,22 L24.0075,22 C19.0428333,22 14.4796667,24.9058333 12.3786667,29.4066667 L3.91416667,47.5438333 C3.75283333,47.8903333 3.66666667,48.2753333 3.66666667,48.6585 C3.66666667,50.1435 4.8565,51.3333333 6.32133333,51.3333333 L6.32133333,51.3333333 Z" id="Path"></path>
            <path d="M70.257,40.3333333 L28.2333333,70.5906667 C28.8163333,70.8473333 29.3755,71.1498333 29.9016667,71.5 L38.5,71.5 L38.5,68.75 C38.5,65.2116667 41.3783333,62.3333333 44.9166667,62.3333333 C48.455,62.3333333 51.3333333,65.2116667 51.3333333,68.75 L51.3333333,71.5 L55,71.5 L55,68.75 C55,65.2116667 57.8783333,62.3333333 61.4166667,62.3333333 C64.955,62.3333333 67.8333333,65.2116667 67.8333333,68.75 L67.8333333,71.5 L76.4316667,71.5 C78.1733333,70.3431667 80.2578333,69.6666667 82.5,69.6666667 C84.7421667,69.6666667 86.8266667,70.3431667 88.5683333,71.5 L97.1666667,71.5 L97.1666667,68.75 C97.1666667,65.2116667 100.045,62.3333333 103.583333,62.3333333 C104.5715,62.3333333 105.497333,62.5771667 106.333333,62.9768333 L106.333333,40.3333333 L70.257,40.3333333 Z M77,47.6666667 L73.3333333,47.6666667 L73.3333333,44 L77,44 L77,47.6666667 Z M84.3333333,47.6666667 L80.6666667,47.6666667 L80.6666667,44 L84.3333333,44 L84.3333333,47.6666667 Z M91.6666667,47.6666667 L88,47.6666667 L88,44 L91.6666667,44 L91.6666667,47.6666667 Z" id="Shape"></path>
            <circle id="Oval" cx="82.5" cy="80.6666667" r="7.33333333"></circle>
        </g>
    </g>
</svg>