<?xml version="1.0" encoding="UTF-8"?>
<svg width="110px" height="110px" viewBox="0 0 110 110" version="1.1" xmlns="http://www.w3.org/2000/svg" xmlns:xlink="http://www.w3.org/1999/xlink">
    <title>MedExc_highperform@svg</title>
    <g id="MedExc_highperform" stroke="none" stroke-width="1" fill="none" fill-rule="evenodd">
        <g id="people" transform="translate(0.000000, 0.214844)" fill="#0a4ca4" fill-rule="nonzero">
            <path d="M39.3749207,44.9125291 L55.0621974,44.9125291 L70.7494741,44.9125291 C72.4534032,44.9125291 73.8333473,43.5269991 73.8333473,41.8159801 L73.8333473,38.4414227 C73.8333473,29.5913469 66.80515,21.9480507 57.2291157,21.9480507 C62.2863326,20.936994 66.0991721,16.4572782 66.0991721,11.0803732 C66.0991721,4.96053703 61.1568968,3.05311928e-15 55.0621974,3.05311928e-15 C48.967498,3.05311928e-15 44.0252227,4.96053703 44.0252227,11.0803732 C44.0252227,16.4572782 47.8380622,20.936994 52.8952791,21.9480507 C43.3317057,21.9480507 36.2910474,29.5795304 36.2910474,38.4414227 L36.2910474,41.8159801 C36.2910474,43.5267842 37.6709915,44.9125291 39.3749207,44.9125291 Z" id="Path"></path>
            <path d="M13.8613161,53.5533468 C14.0563946,53.5890109 14.2499692,53.6061984 14.4413954,53.6061984 C15.966789,53.6061984 17.3218112,52.5126416 17.6047609,50.9520136 C18.3973211,46.5790753 19.8977928,42.3301022 22.0642814,38.3234733 C24.1551448,34.4569228 26.7771031,30.9846113 29.8573239,28.0032188 C31.1373655,26.7644273 31.1747484,24.7180366 29.9408983,23.4326239 C28.7070483,22.1474261 26.6692513,22.1098283 25.3892097,23.3486198 C21.8341833,26.7897789 18.8117555,30.7901773 16.4063602,35.2387407 C13.9135233,39.8488669 12.1855316,44.7460249 11.2705103,49.7944332 C10.9523261,51.5507843 12.1122698,53.2336587 13.8613161,53.5533468 Z" id="Path"></path>
            <path d="M88.0603282,38.3232584 C90.2268168,42.3301022 91.7272885,46.5788605 92.5198487,50.9517987 C92.8027984,52.5126416 94.1576058,53.6059836 95.6832142,53.6059836 C95.8744255,53.6059836 96.0684298,53.5887961 96.2632935,53.5531319 C98.0123399,53.2334438 99.1722835,51.5505694 98.8538845,49.7942183 C97.9388632,44.7458101 96.2108715,39.8484372 93.7180346,35.2385259 C91.3126393,30.7899625 88.2902115,26.7893492 84.735185,23.348405 C83.4551435,22.1093987 81.4173465,22.1472112 80.1834965,23.432409 C78.9496464,24.7178217 78.9872441,26.7639976 80.2670708,28.0030039 C83.3475065,30.9843965 85.9694648,34.4567079 88.0603282,38.3232584 Z" id="Path"></path>
            <path d="M68.0671447,78.2419497 C63.9146366,79.6124406 59.5410538,80.3149811 55.0624122,80.3300202 C55.0044043,80.3321686 54.9444628,80.3321686 54.8864549,80.3321686 C50.5064268,80.3321686 46.2144848,79.6749603 42.1348089,78.3798796 C40.4394735,77.8410505 38.6324192,78.7848609 38.0959533,80.4872861 C37.5594874,82.1897113 38.4994307,84.0040703 40.194766,84.5426847 C44.903076,86.0382149 49.8453513,86.7966148 54.8864549,86.7966148 L55.0624122,86.7966148 C60.2257622,86.7772789 65.2752447,85.9668867 70.0759376,84.3830554 C71.7648277,83.8270387 72.6854349,81.9997891 72.1296331,80.3038092 C71.5759796,78.608259 69.7560347,77.6837845 68.0671447,78.2419497 L68.0671447,78.2419497 Z" id="Path"></path>
            <path d="M20.9376386,86.8204625 C25.9950703,85.809191 29.8081246,81.3279713 29.8081246,75.9527851 C29.8081246,69.8329489 24.8658493,64.8702634 18.7711499,64.8702634 C12.6764505,64.8702634 7.73417526,69.8329489 7.73417526,75.9527851 C7.73417526,81.3279713 11.5472296,85.809191 16.6046613,86.8204625 C7.04925205,86.8204625 -3.05311928e-15,94.4442079 -3.05311928e-15,103.314049 L-3.05311928e-15,106.688607 C-3.05311928e-15,108.397477 1.3799441,109.785156 3.08387321,109.785156 L18.7711499,109.785156 L34.4584267,109.785156 C36.1623558,109.785156 37.5422999,108.397477 37.5422999,106.688607 L37.5422999,103.314049 C37.5422999,94.4815908 30.5332237,86.8204625 20.9376386,86.8204625 L20.9376386,86.8204625 Z" id="Path"></path>
            <path d="M93.3955535,86.8204625 C98.4529853,85.809191 102.26604,81.3279713 102.26604,75.9527851 C102.26604,69.8329489 97.3237643,64.8702634 91.2290649,64.8702634 C85.1322171,64.8702634 80.1920902,69.8329489 80.1920902,75.9527851 C80.1920902,81.3279713 84.0036406,85.809191 89.0619318,86.8204625 C79.4846084,86.8204625 72.4577001,94.46204 72.4577001,103.313835 L72.4577001,106.688392 C72.4577001,108.397262 73.8376442,109.784941 75.5415733,109.784941 L91.2288501,109.784941 L106.916127,109.784941 C108.617907,109.784941 110,108.397262 110,106.688392 L110,103.314049 C110,94.4631142 102.971588,86.8204625 93.3955535,86.8204625 Z" id="Path"></path>
        </g>
    </g>
</svg>