<?xml version="1.0" encoding="UTF-8"?>
<svg width="110px" height="110px" viewBox="0 0 110 110" version="1.1" xmlns="http://www.w3.org/2000/svg" xmlns:xlink="http://www.w3.org/1999/xlink">
    <title>MedExc_Finmod@svg</title>
    <g id="MedExc_Finmod" stroke="none" stroke-width="1" fill="none" fill-rule="evenodd">
        <g id="profit" transform="translate(0.000000, 0.214951)" fill="#0a4ca4" fill-rule="nonzero">
            <path d="M0.214950962,87.2264773 L0.214950962,93.5643618 L45.4395162,93.5643618 L45.4395162,84.0038242 L3.43760406,84.0038242 C1.65869955,84.0038242 0.214950962,85.4475728 0.214950962,87.2264773 Z" id="Path"></path>
            <path d="M0.214950962,106.562396 C0.214950962,108.3413 1.65869955,109.785049 3.43760406,109.785049 L45.4395162,109.785049 L45.4395162,100.009668 L0.214950962,100.009668 L0.214950962,106.562396 Z" id="Path"></path>
            <path d="M5.50160596,63.7240979 L16.2207947,53.0049092 L23.7175452,60.5014448 C24.9758838,61.7599983 27.0164678,61.7599983 28.2750212,60.5014448 L38.8867882,49.889463 L38.8867882,51.7772932 C38.8867882,53.5570571 40.3296774,54.9999463 42.1094413,54.9999463 C43.8892052,54.9999463 45.3320948,53.5570571 45.3320948,51.7772932 L45.3320948,42.1104081 C45.3329538,40.4782417 44.0907284,39.0652158 42.4280543,38.902794 C42.1242655,38.8727159 41.4475084,38.8924816 32.6563255,38.8866808 C30.8765616,38.8866808 29.4336724,40.32957 29.4336724,42.1093339 C29.4336724,43.8890978 30.8765616,45.331987 32.6563255,45.331987 L34.3293122,45.331987 L25.9961758,53.6651234 L18.4994253,46.1685877 C17.2410867,44.9100343 15.2005027,44.9100343 13.9419493,46.1685877 L0.943915094,59.1666219 C-0.314638365,60.4251754 -0.314638365,62.4655445 0.943915094,63.7240979 C2.20225371,64.9824365 4.2430525,64.9826514 5.50160596,63.7240979 Z" id="Path"></path>
            <path d="M80.9424112,51.6698714 C95.187827,51.6698714 106.777347,40.0803515 106.777347,25.8349357 C106.777347,11.5895199 95.187827,0 80.9424112,0 C66.6969954,0 55.1074755,11.5895199 55.1074755,25.8349357 C55.1074755,40.0803515 66.6969954,51.6698714 80.9424112,51.6698714 Z M72.0880644,33.7536389 C73.062165,32.2641286 75.0595654,31.8466876 76.5492905,32.8210031 C78.1200116,33.8485998 78.6253236,33.9280919 80.7769817,33.9139122 C82.8497921,33.9001622 83.6760804,32.2727224 83.837213,31.313446 C83.9820176,30.4521382 83.819381,29.3070222 82.2222342,28.7424133 C79.5465727,27.7964572 76.8023762,26.7110677 74.8591163,25.1865379 C70.4333394,21.715096 71.7692366,13.7867248 77.5758129,11.6767464 L77.5758129,11.2098914 C77.5758129,9.43012751 79.0187021,7.98723829 80.798466,7.98723829 C82.5782299,7.98723829 84.0211191,9.43012751 84.0211191,11.2098914 L84.0211191,11.4818833 C86.6828157,12.2563943 87.8902364,13.6838148 88.1216229,13.8629943 C89.4300201,15.0695556 89.5127349,17.1084208 88.3059587,18.416818 C87.0991825,19.7252151 85.060747,19.807715 83.752135,18.6011537 C83.6071156,18.4868569 82.586394,17.2334597 80.4893062,17.5604516 C78.462687,17.8762716 78.0710273,19.8001955 79.8278029,20.7616203 C81.2034461,21.514647 82.8534445,22.129744 84.3702399,22.6659935 C92.8640792,25.668432 91.8293927,36.965335 84.0209043,39.7879494 L84.0209043,40.4608394 C84.0209043,42.2406033 82.5780151,43.6834925 80.7982512,43.6834925 C79.0184873,43.6834925 77.5755981,42.2406033 77.5755981,40.4608394 L77.5755981,40.1521092 C76.0910292,39.8917189 74.7342923,39.3361335 73.0207002,38.2150799 C71.5314048,37.2403347 71.1137489,35.2429343 72.0880644,33.7536389 L72.0880644,33.7536389 Z" id="Shape"></path>
            <path d="M51.8848224,77.3436745 L110,77.3436745 C110,74.0009238 110,70.7050091 110,67.6220043 L51.8848224,67.6220043 L51.8848224,77.3436745 Z" id="Path"></path>
            <path d="M51.8848224,93.5106509 L110,93.5106509 C110,90.4463375 110,87.1491336 110,83.7889807 L51.8848224,83.7889807 L51.8848224,93.5106509 Z" id="Path"></path>
            <path d="M106.777347,51.7772932 L55.1074755,51.7772932 C53.3277116,51.7772932 51.8848224,53.2201824 51.8848224,54.9999463 L51.8848224,61.1766981 L110,61.1766981 C110,58.8170715 110,56.7184798 110,54.9999463 C110,53.2201824 108.557111,51.7772932 106.777347,51.7772932 Z" id="Path"></path>
            <path d="M51.8848224,106.562396 C51.8848224,108.34216 53.3277116,109.785049 55.1074755,109.785049 L106.777347,109.785049 C108.557111,109.785049 110,108.34216 110,106.562396 C110,104.841499 110,102.580271 110,99.9559571 L51.8848224,99.9559571 L51.8848224,106.562396 Z" id="Path"></path>
        </g>
    </g>
</svg>