<svg id="Layer_1" data-name="Layer 1" xmlns="http://www.w3.org/2000/svg" viewBox="0 0 110 110"><defs><style>.cls-1{fill:#0a4ca4;}</style></defs><path class="cls-1" d="M27.11,56.09c8,0,14.48-8.33,14.48-16.18a14.48,14.48,0,0,0-29,0C12.63,47.76,19.15,56.09,27.11,56.09Z"/><circle class="cls-1" cx="42.55" cy="67.28" r="1.96"/><path class="cls-1" d="M54.22,74.92A19,19,0,0,0,39.47,56.51a8.66,8.66,0,0,1,4,6.58,4.35,4.35,0,1,1-2,0,6.92,6.92,0,0,0-4.35-5.62l-9.76,9-9.86-9.08a6.93,6.93,0,0,0-4.73,6.21,2.55,2.55,0,0,1,.91,1,7.75,7.75,0,0,1,3.6,4,1.48,1.48,0,0,1,.06,1.06,12.1,12.1,0,0,1,.9,4.35c0,1.85,0,3.61-2.07,4.08a1.42,1.42,0,0,1-.8.27H14a1.25,1.25,0,0,1-1.28-1.22V77.1A1.24,1.24,0,0,1,14,75.93h1.37a1.27,1.27,0,0,1,.43,0c.1,0,.1,0,.1,0A6.73,6.73,0,0,0,16.07,74a10.39,10.39,0,0,0-.74-3.61,1.53,1.53,0,0,1-.58-.58c-.85-1.75-2-2.87-2.92-2.87s-2.12,1.22-3,3a1.76,1.76,0,0,1-.69.69,10.24,10.24,0,0,0-.69,3.39A7.06,7.06,0,0,0,7.64,76a.45.45,0,0,1,.16,0,1.77,1.77,0,0,1,.42-.1H9.6A1.32,1.32,0,0,1,10.88,77v.06A1.26,1.26,0,0,1,9.6,78.37H8.22a1.27,1.27,0,0,1-.74-.27A2.36,2.36,0,0,1,5.78,77,5.73,5.73,0,0,1,5.25,74a12.87,12.87,0,0,1,.85-4.3,1,1,0,0,1,.11-.9,9.72,9.72,0,0,1,2.17-3.13,5.89,5.89,0,0,1,1.43-1,2.19,2.19,0,0,1,1-1,8.56,8.56,0,0,1,4.14-7.16A19,19,0,0,0,0,74.92v9.39H54.11V74.92ZM38.94,77.36H36.6v2.33h-3V77.36H31.25v-3h2.33V72h3v2.34h2.34Z"/><path class="cls-1" d="M97.26,61H93.7l-8.39,7.86L76.81,61H76C68.53,62.7,63,68.38,63,76.19v8.12h47V76.19C110.05,68.43,104.58,62.7,97.26,61Z"/><path class="cls-1" d="M97.73,43.8v-.16a37.62,37.62,0,0,0-12.47-2.07,37.16,37.16,0,0,0-12.43,2.07l0,.16h.06a10.24,10.24,0,0,0-.21,2c0,6.8,5.62,14,12.58,14s12.58-7.22,12.58-14a7.89,7.89,0,0,0-.21-2C97.68,43.8,97.68,43.8,97.73,43.8Z"/><path class="cls-1" d="M99.54,30.42a22,22,0,0,0-14.23-4.73A22.93,22.93,0,0,0,71,30.42a.81.81,0,0,0-.26.69l1.64,9.71a38.46,38.46,0,0,1,25.81,0V41l1.64-9.87A.58.58,0,0,0,99.54,30.42Zm-11.2,3.39H86.48v1.86H84.09V33.81H82.23V31.42h1.86V29.57h2.39v1.85h1.86Z"/></svg>