<svg xmlns="http://www.w3.org/2000/svg" viewBox="0 0 110 110"><defs><style>.cls-1{fill:#0a4ca4;}.cls-2{fill:#fff;}</style></defs><g id="Layer_3" data-name="Layer 3"><g id="One_stop_solution" data-name="One stop solution"><g id="MI_Source" data-name="MI Source"><polygon class="cls-1" points="64.04 107.6 62.41 98.72 47.58 98.72 45.96 107.6 43.78 107.6 39.7 107.6 39.7 109.74 43.39 109.74 66.61 109.74 70.3 109.74 70.3 107.6 66.22 107.6 64.04 107.6"/><path class="cls-1" d="M21.29,42V99H88.71V42Zm5.19,5.19h57V88.66h-57Z"/><polygon class="cls-1" points="29.79 67.72 29.79 53.44 79.19 53.44 79.19 67.72 79.19 84.02 29.79 84.02 29.79 67.72"/></g><path class="cls-2" d="M60.84,75.65c-.1-.16-.22-.31-.31-.45a5.41,5.41,0,0,0-.62-.71,5.49,5.49,0,0,0-.73-.64A6.75,6.75,0,0,0,55,72.46a6.86,6.86,0,0,0-4.17,1.39,8.11,8.11,0,0,0-1.32,1.3c-.12.17-.24.31-.36.5a7,7,0,0,0-1.11,3.74v4.5H62v-4.5A7.4,7.4,0,0,0,60.84,75.65Z"/><path class="cls-2" d="M58.66,67.63A3.67,3.67,0,1,1,55,64,3.68,3.68,0,0,1,58.66,67.63Z"/><path class="cls-2" d="M56.29,64.17V71a3.65,3.65,0,0,0,2.37-3.43A3.71,3.71,0,0,0,56.29,64.17Z"/><path class="cls-1" d="M19.61,55.67v3H17.82a6,6,0,0,1-1.5,2.69,5.78,5.78,0,0,1-4,1.64,6.44,6.44,0,0,1-4.18-1.64,5.3,5.3,0,0,1-1.64-4.19A6.4,6.4,0,0,1,8.11,53a5.78,5.78,0,0,1,4-1.64,5.92,5.92,0,0,1,5.68,4.33Z"/><path class="cls-1" d="M103.53,52.83v8.66A1.49,1.49,0,0,1,102,63H93.38a1.6,1.6,0,0,1-1.49-1.5V58.66h-1.5v-3h1.5V52.83a1.6,1.6,0,0,1,1.49-1.49H102A1.41,1.41,0,0,1,103.53,52.83Z"/><path class="cls-1" d="M39.77,19.38v12h-3V20.88H22.44v2.83A1.49,1.49,0,0,1,21,25.21H12.29a1.49,1.49,0,0,1-1.49-1.5V15.05a1.4,1.4,0,0,1,1.49-1.49H21a1.49,1.49,0,0,1,1.49,1.49v2.84H38.27A1.41,1.41,0,0,1,39.77,19.38Z"/><path class="cls-1" d="M99.05,15.05v8.66a1.49,1.49,0,0,1-1.49,1.5H88.9a1.49,1.49,0,0,1-1.49-1.5V20.88H72.92V31.33h-3V19.38a1.5,1.5,0,0,1,1.5-1.49H87.26V15.05a1.49,1.49,0,0,1,1.49-1.49h8.66A1.53,1.53,0,0,1,99.05,15.05Z"/><path class="cls-1" d="M60.38,6.54a5.61,5.61,0,0,1-4.33,5.52V31.18h-3V12.06a5.72,5.72,0,0,1-4.33-5.52A5.83,5.83,0,0,1,54.55.71,5.74,5.74,0,0,1,60.38,6.54Z"/></g></g></svg>