<svg id="Layer_1" data-name="Layer 1" xmlns="http://www.w3.org/2000/svg" viewBox="0 0 110 110"><defs><style>.cls-1{fill:#0a4ca4;}</style></defs><polygon class="cls-1" points="46.49 28.11 55 21.93 63.51 28.11 60.26 18.11 68.77 11.92 58.25 11.92 55 1.92 51.75 11.92 41.23 11.92 49.74 18.11 46.49 28.11"/><polygon class="cls-1" points="14.04 41.27 22.55 35.09 31.05 41.26 27.8 31.27 36.31 25.08 25.8 25.08 22.55 15.08 19.29 25.08 8.77 25.08 17.28 31.27 14.04 41.27"/><polygon class="cls-1" points="78.94 41.27 87.45 35.09 95.96 41.26 92.72 31.27 101.23 25.08 90.7 25.08 87.45 15.08 84.2 25.08 73.69 25.08 82.19 31.27 78.94 41.27"/><polygon class="cls-1" points="19.03 61.77 27.54 55.59 17.02 55.59 13.77 45.58 10.52 55.59 0 55.59 8.51 61.77 5.26 71.77 13.77 65.6 22.28 71.77 19.03 61.77"/><polygon class="cls-1" points="110 54.35 99.48 54.35 96.23 44.35 92.98 54.35 82.46 54.35 90.97 60.54 87.72 70.53 96.23 64.36 104.74 70.53 101.49 60.54 110 54.35"/><circle class="cls-1" cx="55.14" cy="53.92" r="18.03"/><path class="cls-1" d="M22.85,107.67C23,90.05,37.36,74.51,55,74.63s31.82,15.83,31.7,33.45"/></svg>