<?xml version="1.0" encoding="utf-8"?>
<!-- Generator: Adobe Illustrator 25.0.1, SVG Export Plug-In . SVG Version: 6.00 Build 0)  -->
<svg version="1.1" id="Layer_1" xmlns="http://www.w3.org/2000/svg" xmlns:xlink="http://www.w3.org/1999/xlink" x="0px" y="0px"
	 viewBox="0 0 110 110" style="enable-background:new 0 0 110 110;" xml:space="preserve">
<style type="text/css">
	.st0{fill:#0a4ca4;}
</style>
<g id="Page-1">
	<g id="Desktop-HD" transform="translate(-666.000000, -937.000000)">
		<g id="medical-and-modern-tech" transform="translate(666.000000, 937.000000)">
			<g id="tech-and-brain" transform="translate(-0.000000, 0.000000)">
				<g id="Group" transform="translate(0.000000, 0.000000)">
					<g id="Path" transform="translate(0.000000, 0.000000)">
						<path class="st0" d="M77.8,109.7c2.2,0,4.4,0,6.6,0v-7h-6.6V109.7z"/>
						<path class="st0" d="M64.7,109.7c2.2,0,4.4,0,6.6,0v-7h-6.6V109.7z"/>
						<path class="st0" d="M51.5,109.7c2.2,0,4.4,0,6.6,0v-7h-6.6L51.5,109.7L51.5,109.7z"/>
						<path class="st0" d="M38,109.7c2.2,0,4.4,0,6.6,0v-7H38V109.7z"/>
						<path class="st0" d="M24.8,109.7c2.2,0,4.4,0,6.6,0v-7h-6.6V109.7z"/>
						<path class="st0" d="M0.3,84.8h6.5v-6.6H0.3C0.3,80.4,0.3,82.6,0.3,84.8z"/>
						<path class="st0" d="M0.3,71.6h6.5v-6.6H0.3C0.3,67.3,0.3,69.4,0.3,71.6z"/>
						<path class="st0" d="M0.3,58.1h6.5v-6.6H0.3C0.3,53.7,0.3,55.9,0.3,58.1z"/>
						<path class="st0" d="M0.3,44.9h6.5v-6.6H0.3C0.3,40.6,0.3,42.7,0.3,44.9z"/>
						<path class="st0" d="M0.3,31.8h6.5v-6.6H0.3C0.3,27.4,0.3,29.6,0.3,31.8z"/>
						<path class="st0" d="M109.7,25.2h-7.4v6.6h7.4C109.7,29.6,109.7,27.4,109.7,25.2z"/>
						<path class="st0" d="M109.7,38.4h-7.4v6.6h7.4C109.7,42.7,109.7,40.6,109.7,38.4z"/>
						<path class="st0" d="M109.7,51.5h-7.4v6.6h7.4C109.7,55.9,109.7,53.7,109.7,51.5z"/>
						<path class="st0" d="M109.7,65.1h-7.4v6.6h7.4C109.7,69.4,109.7,67.3,109.7,65.1z"/>
						<path class="st0" d="M109.7,78.2h-7.4v6.6h7.4C109.7,82.6,109.7,80.4,109.7,78.2z"/>
						<path class="st0" d="M24.8,0.3v7h6.6v-7C29.2,0.3,27,0.3,24.8,0.3z"/>
						<path class="st0" d="M51.5,0.3v7h6.6V0.3C55.9,0.3,53.7,0.3,51.5,0.3z"/>
						<path class="st0" d="M64.7,0.3v7h6.6v-7C69,0.3,66.8,0.3,64.7,0.3z"/>
						<path class="st0" d="M77.8,0.3v7h6.6v-7C82.2,0.3,80,0.3,77.8,0.3z"/>
						<path class="st0" d="M38,0.3v7h6.6v-7C42.3,0.3,40.2,0.3,38,0.3z"/>
					</g>
					<path id="Path_1_" class="st0" d="M67.4,52.2c0.8-0.2,1.4-0.9,1.4-1.8c0-0.6-0.3-1.1-0.7-1.4c-0.4-0.3-1-0.5-1.6-0.3
						c-2.9,0.8-4.9,3.4-4.9,6.3c0,3,2,5.6,4.9,6.3c0.2,0,0.3,0.1,0.5,0.1c0.4,0,0.8-0.1,1.1-0.4c0.4-0.3,0.7-0.9,0.7-1.4
						c0-0.8-0.6-1.6-1.4-1.8c-1.3-0.3-2.2-1.5-2.2-2.8C65.2,53.7,66.1,52.5,67.4,52.2z"/>
					<path id="Path_2_" class="st0" d="M43.5,48.7c-0.6-0.1-1.1,0-1.6,0.3c-0.4,0.3-0.7,0.9-0.7,1.4v0.1c0,0.8,0.6,1.5,1.4,1.7
						c1.3,0.3,2.2,1.5,2.2,2.8c0,1.3-0.9,2.5-2.2,2.8c-0.8,0.2-1.4,0.9-1.4,1.8c0,0.6,0.3,1.1,0.7,1.4c0.3,0.3,0.7,0.4,1.1,0.4
						c0.2,0,0.3,0,0.5-0.1c2.9-0.8,4.9-3.4,4.9-6.3C48.4,52,46.4,49.4,43.5,48.7z"/>
					<path id="Shape" class="st0" d="M76.4,48.4c0.1-0.5,0.1-1.1,0.1-1.7c0-4.7-3.6-8.8-8.3-9.4c-1.2-2.8-4-4.7-7.1-4.7
						c-0.4,0-0.7,0-1.1,0.1c-2.1,0.3-3.9,1.4-5.1,3.1c-1.4-2-3.7-3.1-6.2-3.1c-3.2,0-6.1,2-7.2,5c-1.8,0.5-3.4,1.5-4.6,2.9
						c-1.5,1.7-2.3,3.9-2.3,6.2c0,0.2,0,0.5,0,0.7c-2.4,1.8-3.8,4.6-3.8,7.6c0,2.5,1,4.8,2.7,6.6c-0.1,0.5-0.1,1.1-0.1,1.7
						c0,4.7,3.6,8.8,8.3,9.4c1.2,2.8,4,4.7,7.1,4.7c2.5,0,4.8-1.2,6.2-3.1c1.4,2,3.7,3.1,6.2,3.1c0.5,0,1-0.1,1.5-0.2
						c2.6-0.5,4.7-2.4,5.7-4.8c1.4-0.4,2.7-1.1,3.8-2.1c0.3-0.2,0.5-0.5,0.8-0.8c1.5-1.7,2.3-3.9,2.3-6.2c0-0.2,0-0.5,0-0.7
						c2.4-1.8,3.8-4.6,3.8-7.6C79.1,52.5,78.1,50.2,76.4,48.4z M52.8,69.6c0,2-1.5,3.8-3.4,4.1c-2.1,0.3-4.1-1.1-4.5-3.1
						c0-0.3-0.1-0.7-0.1-0.9c-0.2-2,1.5-3.6,3.3-3.9c0.8-0.2,1.5-0.9,1.5-1.8c0-0.5-0.2-1.1-0.7-1.4c-0.3-0.3-0.7-0.4-1.1-0.4
						c-0.1,0-0.2,0-0.4,0c-3.3,0.7-5.7,3.4-6.1,6.7c-2.4-0.8-4.1-3-4.1-5.6c0-0.6,0.1-1.2,0.3-1.7l0.4-1.2l-1-0.8
						c-1.4-1.1-2.2-2.8-2.2-4.6c0-2.1,1.1-4.1,3-5.1l1.2-0.7l-0.3-1.3c-0.1-0.4-0.1-0.8-0.1-1.2c0-2.1,1.2-4,2.9-5.1
						c0.3,1.5,1,2.9,2.1,4c1.1,1.1,2.4,1.8,3.9,2.1c0.5,0.1,1.1,0,1.5-0.4c0.4-0.3,0.7-0.9,0.7-1.4c0-0.9-0.6-1.6-1.5-1.8
						c-0.8-0.2-1.5-0.5-2-1.1c-0.8-0.8-1.3-1.9-1.2-2.8c0-0.2,0.1-0.8,0.1-0.8c0.4-2,2.2-3.4,4.3-3.2c2.1,0.2,3.7,2,3.7,4.1
						L52.8,69.6L52.8,69.6z M72.4,60.1l-1.2,0.7l0.3,1.3c0.1,0.4,0.1,0.8,0.1,1.2c0,2.1-1.2,4-2.9,5.1c-0.6-3-2.9-5.5-6-6.1
						c-0.5-0.1-1.1,0-1.5,0.4c-0.4,0.3-0.7,0.9-0.7,1.4c0,0.9,0.6,1.6,1.4,1.8c1.9,0.4,3.2,2,3.2,3.9l-0.1,0.8
						c-0.4,2-2.2,3.4-4.3,3.2c-2.1-0.2-3.7-2-3.7-4.1V40.4c0-2,1.4-3.7,3.3-4c0.3,0,0.5-0.1,0.8-0.1c1.9,0,3.6,1.3,4,3.2
						c0.1,0.3,0.1,0.8,0.1,0.9c0,1.9-1.4,3.5-3.3,3.9c-0.8,0.2-1.5,0.9-1.5,1.8c0,0.5,0.2,1.1,0.7,1.4c0.4,0.3,1,0.5,1.5,0.4
						c3.3-0.7,5.7-3.4,6.1-6.7c2.4,0.8,4.1,3,4.1,5.6c0,0.6-0.1,1.2-0.3,1.7l-0.4,1.2l1,0.8c1.4,1.1,2.2,2.8,2.2,4.6
						C75.4,57.1,74.3,59.1,72.4,60.1z"/>
					<path id="Shape_1_" class="st0" d="M87.6,12.1H21.5c-3.3,0-6.6,0.1-9.9,0.1c0,3.2,0,6.5,0,9.7V88c0,3.2,0,6.5,0,9.7
						c3.3,0,6.6,0.1,9.9,0.1h66.1c3.2,0,6.5,0.1,9.7,0.1c0-3.3,0.1-6.6,0.1-10V22c0-3.2,0-6.4,0-9.7C94.2,12.2,90.9,12.2,87.6,12.1z
						 M24.3,20.5c2.1,0,3.8,1.7,3.8,3.8s-1.7,3.8-3.8,3.8s-3.8-1.7-3.8-3.8S22.2,20.5,24.3,20.5z M24.3,89.5c-2.1,0-3.8-1.7-3.8-3.8
						c0-2.1,1.7-3.8,3.8-3.8c2.1,0,3.8,1.7,3.8,3.8C28.1,87.8,26.4,89.5,24.3,89.5z M55,84.8c-16.4,0-29.8-13.4-29.8-29.8
						S38.6,25.2,55,25.2S84.8,38.6,84.8,55S71.4,84.8,55,84.8z M85.7,89.5c-2.1,0-3.8-1.7-3.8-3.8c0-2.1,1.7-3.8,3.8-3.8
						c2.1,0,3.8,1.7,3.8,3.8C89.5,87.8,87.8,89.5,85.7,89.5z M85.7,28.1c-2.1,0-3.8-1.7-3.8-3.8s1.7-3.8,3.8-3.8
						c2.1,0,3.8,1.7,3.8,3.8S87.8,28.1,85.7,28.1z"/>
				</g>
			</g>
		</g>
	</g>
</g>
</svg>
