<svg id="Layer_1" data-name="Layer 1" xmlns="http://www.w3.org/2000/svg" viewBox="0 0 110 110"><defs><style>.cls-1,.cls-2{fill:#0a4ca4;}.cls-2{fill-rule:evenodd;}</style></defs><path class="cls-1" d="M29.06,22.88A87.27,87.27,0,0,0,55.29,34.13c-.13,20.71-2.76,36-26.23,52.91C5.59,70.2,3,54.9,2.83,34.13A88.86,88.86,0,0,0,29.06,22.88m0-3.47-1.54,1A83.81,83.81,0,0,1,2.25,31.3L0,31.82v2.31C.13,54.39,2.25,71.29,27.39,89.36l1.67,1.22,1.67-1.22C55.87,71.29,58,54.39,58.12,34.13V31.82l-2.25-.52A82.85,82.85,0,0,1,30.6,20.44l-1.54-1Z"/><path class="cls-1" d="M51.63,36.83a92.24,92.24,0,0,1-22.51-9.77.2.2,0,0,0-.25,0A93.74,93.74,0,0,1,6.36,36.83c-.12.07-.19.13-.19.26C6.49,53,8.42,67.44,28.8,82.93A.26.26,0,0,0,29,83a.25.25,0,0,0,.19-.06C49.63,67.44,51.56,53,51.82,37.09A.2.2,0,0,0,51.63,36.83ZM38.9,58.89H33c0,.06-.06.12-.06.19v5.85H25.14v-6h-6V51.11h6v-6h7.78v6h6v7.78Z"/><polygon class="cls-2" points="74.02 49.56 82.98 40.47 82.98 89 94.38 89 94.38 40.47 103.34 49.56 110 42.77 88.61 21 67.23 42.77 74.02 49.56"/></svg>