<svg id="Layer_1" data-name="Layer 1" xmlns="http://www.w3.org/2000/svg" viewBox="0 0 110 110"><defs><style>.cls-1{fill:#0a4ca4;}</style></defs><circle class="cls-1" cx="106.16" cy="25.63" r="3.79"/><circle class="cls-1" cx="106.16" cy="4.79" r="3.79"/><circle class="cls-1" cx="3.84" cy="25.63" r="3.79"/><circle class="cls-1" cx="3.84" cy="4.79" r="3.79"/><path class="cls-1" d="M93.68,6.68h4.9V2.89H92.89a1.85,1.85,0,0,0-1.33.56L84,11l2.68,2.68Z"/><rect class="cls-1" x="83.42" y="23.74" width="15.16" height="3.79"/><path class="cls-1" d="M23.34,13.71,26,11,18.44,3.45a1.85,1.85,0,0,0-1.33-.56H11.42V6.68h4.9Z"/><rect class="cls-1" x="11.42" y="23.74" width="15.16" height="3.79"/><polygon class="cls-1" points="60.68 26.74 60.68 19.95 49.32 19.95 49.32 31.32 56.12 31.32 60.68 26.74"/><path class="cls-1" d="M41.74,38.89H68.26V12.37H41.74Zm3.79-20.84a1.89,1.89,0,0,1,1.89-1.89H62.58a1.89,1.89,0,0,1,1.89,1.89v9.48a1.93,1.93,0,0,1-.55,1.34l-5.69,5.68a1.86,1.86,0,0,1-1.34.56H47.42a1.89,1.89,0,0,1-1.89-1.9Z"/><path class="cls-1" d="M87.21,67.32V53C80.2,56.72,65,57.84,55,57.84S29.8,56.72,22.79,53V67.32a32.21,32.21,0,1,0,64.42,0Zm-37.89-1.9h3.79V76.79a1.89,1.89,0,1,0,3.78,0V65.42h3.79V76.79a5.68,5.68,0,0,1-11.36,0ZM38,65.42a1.9,1.9,0,0,0-1.9,1.9H32.26a5.69,5.69,0,1,1,11.37,0H39.84A1.9,1.9,0,0,0,38,65.42ZM55,92c-7.44,0-13.26-4.17-13.26-9.48h3.79c0,3.08,4.34,5.69,9.47,5.69s9.47-2.61,9.47-5.69h3.79C68.26,87.78,62.44,92,55,92ZM74,67.32a1.9,1.9,0,1,0-3.79,0H66.37a5.69,5.69,0,1,1,11.37,0Z"/><path class="cls-1" d="M91,56.3V67A5.65,5.65,0,0,0,91,56.3Z"/><path class="cls-1" d="M19,67V56.3A5.65,5.65,0,0,0,19,67Z"/><path class="cls-1" d="M22.79,48.39v0c.58,1.93,12.14,5.64,32.21,5.64s31.53-3.68,32.21-5.68C86.64,46.71,78.6,43.9,64.47,43v7.27H60.68V42.8c-1.22,0-2.48-.08-3.79-.09v7.55H53.11V42.71c-1.31,0-2.57,0-3.79.09v7.46H45.53V43C31.33,43.91,23.27,46.74,22.79,48.39Z"/><path class="cls-1" d="M38,99v10h34.1V99A35.92,35.92,0,0,1,38,99Z"/><rect class="cls-1" x="53.11" y="1" width="3.79" height="7.58"/><rect class="cls-1" x="60.68" y="1" width="3.79" height="7.58"/><rect class="cls-1" x="45.53" y="1" width="3.79" height="7.58"/><rect class="cls-1" x="72.05" y="16.16" width="7.58" height="3.79"/><rect class="cls-1" x="72.05" y="23.74" width="7.58" height="3.79"/><rect class="cls-1" x="72.05" y="31.32" width="7.58" height="3.79"/><rect class="cls-1" x="30.37" y="16.16" width="7.58" height="3.79"/><rect class="cls-1" x="30.37" y="23.74" width="7.58" height="3.79"/><rect class="cls-1" x="30.37" y="31.32" width="7.58" height="3.79"/></svg>