<svg id="Layer_1" data-name="Layer 1" xmlns="http://www.w3.org/2000/svg" viewBox="0 0 110 110"><defs><style>.cls-1{fill:#0a4ca4;}</style></defs><path class="cls-1" d="M109.51,47.77,109.28,46l-1.79.33a5.47,5.47,0,0,1-.93.1,5.14,5.14,0,0,1-1.69-10l1.71-.6-.69-1.68a54.56,54.56,0,0,0-7.35-12.72L97.45,20l-1.37,1.13a5.09,5.09,0,0,1-3.26,1.21,5.16,5.16,0,0,1-5.16-5.15,5.09,5.09,0,0,1,1.21-3.27L90,12.55l-1.41-1.09A54.92,54.92,0,0,0,75.87,4.11l-1.68-.69-.6,1.71a5.14,5.14,0,0,1-10-1.69,5.47,5.47,0,0,1,.1-.93L64,.72,62.23.49a53.86,53.86,0,0,0-14.46,0L46,.72l.33,1.79a5.47,5.47,0,0,1,.1.93,5.14,5.14,0,0,1-10,1.69l-.6-1.71-1.68.69a54.56,54.56,0,0,0-12.72,7.35L20,12.55l1.14,1.37a5.09,5.09,0,0,1,1.2,3.27,5.16,5.16,0,0,1-5.15,5.15,5.09,5.09,0,0,1-3.27-1.21L12.55,20l-1.09,1.41A54.92,54.92,0,0,0,4.11,34.13l-.69,1.68,1.71.6a5.14,5.14,0,0,1-1.69,10,5.47,5.47,0,0,1-.93-.1L.72,46,.49,47.77a53.58,53.58,0,0,0,0,14.46L.72,64l1.79-.33a5.47,5.47,0,0,1,.93-.1,5.14,5.14,0,0,1,1.69,10l-1.71.6.69,1.68a54.92,54.92,0,0,0,7.35,12.72L12.55,90l1.37-1.13a5.09,5.09,0,0,1,3.27-1.21,5.16,5.16,0,0,1,5.15,5.15,5,5,0,0,1-1.21,3.27L20,97.45l1.41,1.09a54.92,54.92,0,0,0,12.72,7.35l1.68.69.6-1.71a5.14,5.14,0,0,1,10,1.69,5.48,5.48,0,0,1-.09.93L46,109.27l1.8.24a53.51,53.51,0,0,0,14.45,0l1.8-.24-.33-1.78a5.47,5.47,0,0,1-.1-.93,5.14,5.14,0,0,1,10-1.69l.6,1.71,1.68-.69a54.56,54.56,0,0,0,12.72-7.35L90,97.45l-1.13-1.37a5.09,5.09,0,0,1-1.21-3.27,5.16,5.16,0,0,1,5.15-5.15,5.09,5.09,0,0,1,3.27,1.21L97.45,90l1.09-1.41a54.92,54.92,0,0,0,7.35-12.72l.69-1.68-1.71-.6a5.14,5.14,0,0,1,1.69-10,5.47,5.47,0,0,1,.93.1l1.79.33.23-1.79a53.58,53.58,0,0,0,0-14.46ZM106.3,60.16a8.57,8.57,0,0,0-4.22,15.89,51.94,51.94,0,0,1-5.3,9.16,8.43,8.43,0,0,0-4-1,8.6,8.6,0,0,0-8.59,8.59,8.43,8.43,0,0,0,1,4,51.94,51.94,0,0,1-9.16,5.3,8.57,8.57,0,0,0-15.89,4.21,49.44,49.44,0,0,1-10.32,0A8.57,8.57,0,0,0,34,102.08a51.94,51.94,0,0,1-9.16-5.3,8.43,8.43,0,0,0,1-4,8.6,8.6,0,0,0-8.59-8.59,8.43,8.43,0,0,0-4,1,51.28,51.28,0,0,1-5.29-9.16A8.58,8.58,0,0,0,3.71,60.16a49.44,49.44,0,0,1,0-10.32A8.58,8.58,0,0,0,7.93,34a51.28,51.28,0,0,1,5.29-9.16,8.43,8.43,0,0,0,4,1,8.61,8.61,0,0,0,8.59-8.59,8.43,8.43,0,0,0-1-4A51.94,51.94,0,0,1,34,7.92,8.57,8.57,0,0,0,49.84,3.71a49.44,49.44,0,0,1,10.32,0A8.57,8.57,0,0,0,76.05,7.92a51.94,51.94,0,0,1,9.16,5.3,8.43,8.43,0,0,0-1,4,8.61,8.61,0,0,0,8.59,8.59,8.43,8.43,0,0,0,4-1,51.94,51.94,0,0,1,5.3,9.16,8.57,8.57,0,0,0,4.22,15.89c.17,1.76.26,3.48.26,5.16S106.47,58.4,106.3,60.16Z"/><path class="cls-1" d="M38.35,72.37a49.93,49.93,0,0,0-8.85,3,32.91,32.91,0,0,1-7.07-18.63H36.14A67.46,67.46,0,0,0,38.35,72.37Z"/><path class="cls-1" d="M36.14,53.28H22.43A32.91,32.91,0,0,1,29.5,34.65a49.66,49.66,0,0,0,8.85,3A67.46,67.46,0,0,0,36.14,53.28Z"/><path class="cls-1" d="M39.41,75.65a31.68,31.68,0,0,0,6,10.56,32.64,32.64,0,0,1-13.52-8.16A46.67,46.67,0,0,1,39.41,75.65Z"/><path class="cls-1" d="M39.41,34.35A47.69,47.69,0,0,1,31.89,32a32.64,32.64,0,0,1,13.52-8.16A31.68,31.68,0,0,0,39.41,34.35Z"/><path class="cls-1" d="M67.13,74.94C64.27,82.61,59.86,87.66,55,87.66s-9.27-5-12.13-12.72a71.94,71.94,0,0,1,24.26,0Z"/><path class="cls-1" d="M42.87,35.06C45.73,27.39,50.14,22.34,55,22.34s9.27,5.05,12.13,12.72a70.61,70.61,0,0,1-12.13,1A70.61,70.61,0,0,1,42.87,35.06Z"/><path class="cls-1" d="M39.57,56.72H70.42a61.68,61.68,0,0,1-2.21,14.92,75.16,75.16,0,0,0-26.42,0A61.18,61.18,0,0,1,39.57,56.72Z"/><path class="cls-1" d="M70.43,53.28H39.57a61.83,61.83,0,0,1,2.22-14.93A73.93,73.93,0,0,0,55,39.53a73.93,73.93,0,0,0,13.21-1.18A61.34,61.34,0,0,1,70.43,53.28Z"/><path class="cls-1" d="M70.59,75.65a46.67,46.67,0,0,1,7.52,2.4,32.64,32.64,0,0,1-13.52,8.16A31.68,31.68,0,0,0,70.59,75.65Z"/><path class="cls-1" d="M70.59,34.35a31.85,31.85,0,0,0-6-10.56A32.64,32.64,0,0,1,78.11,32,46.67,46.67,0,0,1,70.59,34.35Z"/><path class="cls-1" d="M73.86,56.72H87.57A32.91,32.91,0,0,1,80.5,75.35a49.66,49.66,0,0,0-8.85-3A67.46,67.46,0,0,0,73.86,56.72Z"/><path class="cls-1" d="M71.65,37.63a49.66,49.66,0,0,0,8.85-3,32.91,32.91,0,0,1,7.07,18.63H73.86A67.46,67.46,0,0,0,71.65,37.63Z"/><path class="cls-1" d="M106.3,60.16c.17-1.76.26-3.48.26-5.16s-.09-3.4-.26-5.16A8.57,8.57,0,0,1,102.08,34a51.94,51.94,0,0,0-5.3-9.16,8.43,8.43,0,0,1-4,1,8.61,8.61,0,0,1-8.59-8.59,8.43,8.43,0,0,1,1-4,51.94,51.94,0,0,0-9.16-5.3A8.57,8.57,0,0,1,60.16,3.71a49.44,49.44,0,0,0-10.32,0A8.57,8.57,0,0,1,34,7.92a51.94,51.94,0,0,0-9.16,5.3,8.43,8.43,0,0,1,1,4,8.61,8.61,0,0,1-8.59,8.59,8.43,8.43,0,0,1-4-1A51.28,51.28,0,0,0,7.93,34,8.58,8.58,0,0,1,3.71,49.84a49.44,49.44,0,0,0,0,10.32A8.58,8.58,0,0,1,7.93,76.05a51.28,51.28,0,0,0,5.29,9.16,8.43,8.43,0,0,1,4-1,8.6,8.6,0,0,1,8.59,8.59,8.43,8.43,0,0,1-1,4,51.94,51.94,0,0,0,9.16,5.3,8.57,8.57,0,0,1,15.89,4.21,49.44,49.44,0,0,0,10.32,0,8.57,8.57,0,0,1,15.89-4.21,51.94,51.94,0,0,0,9.16-5.3,8.43,8.43,0,0,1-1-4,8.6,8.6,0,0,1,8.59-8.59,8.43,8.43,0,0,1,4,1,51.94,51.94,0,0,0,5.3-9.16,8.57,8.57,0,0,1,4.22-15.89ZM12,56.72H8.59V53.28H12Zm63.6-43h3.43v3.44H75.63ZM53.28,8.59h3.44V12H53.28ZM30.94,13.75h3.43v3.44H30.94ZM15.47,30.94H18.9v3.43H15.47ZM18.9,79.06H15.47V75.63H18.9ZM34.37,94.53H30.94V91.09h3.43Zm22.35,6.88H53.28V98h3.44Zm22.34-6.88H75.63V91.09h3.43ZM55,91.09A36.1,36.1,0,1,1,91.1,55,36.14,36.14,0,0,1,55,91.09Zm39.53-12H91.1V75.63h3.43Zm0-44.69H91.1V30.94h3.43ZM98,53.28h3.44v3.44H98Z"/></svg>