<svg id="Layer_1" data-name="Layer 1" xmlns="http://www.w3.org/2000/svg" viewBox="0 0 110 110"><defs><style>.cls-1{fill:#0a4ca4;}</style></defs><title>Medical_Information_Management_Engage with HCPs</title><rect class="cls-1" x="28.8" y="48.06" width="52.98" height="5.8"/><path class="cls-1" d="M49.15,66.31l-25.85.53V44a1.8,1.8,0,0,0-.52-1.28c-6.23-6.05-13.53-1.91-13.53,4.06V71.19a7,7,0,0,0,2.11,5H4.9V42H.21v68H4.9V80.78H30.55V110h4.68V76.76l3.8-.11L39.15,110h9.93l0-38.81C49.05,69.74,49.15,68.08,49.15,66.31Z"/><circle class="cls-1" cx="21.55" cy="26.37" r="8.92"/><path class="cls-1" d="M66.39,23.64a6.26,6.26,0,0,1,.33,2.9c.23.22.45.44.34.78L67,28.55a6.69,6.69,0,0,1,5.13,7.13,1,1,0,0,1-.67.79l-.34,3.9a3.56,3.56,0,0,1-3.23,3.12,1.06,1.06,0,0,1-1.23.56c-.67-.11-1.11-.56-1-1.12s.56-.89,1.23-.89a1.14,1.14,0,0,1,1,.67,2.87,2.87,0,0,0,2.57-2.56l.33-3.91a.71.71,0,0,1-.45-.89,5,5,0,1,0-9.92-1,1,1,0,0,1-.67.78l-.11,4a2.91,2.91,0,0,0,1.89,3,1.08,1.08,0,0,1,1.12-.44c.67.11,1.11.56,1,1.11s-.56.9-1.23.9a1,1,0,0,1-1-.9,3.52,3.52,0,0,1-2.45-3.68l.33-3.9a.7.7,0,0,1-.44-.89,6.72,6.72,0,0,1,6.46-6l.12-1.22a.7.7,0,0,1,.55-.67,5.18,5.18,0,0,0-.55-2.9H62.82L55.13,33.68l-7.7-10.15h-1.9A6.84,6.84,0,0,0,44,29l.45,2.34a3.2,3.2,0,0,1,3,2.57,3.06,3.06,0,1,1-6,1.12,3.3,3.3,0,0,1,2-3.46L43,29.22a7.47,7.47,0,0,1,1.22-5.58,9.47,9.47,0,0,0-8.14,9.59V46.5H74.31V33.12A9.62,9.62,0,0,0,66.39,23.64Z"/><path class="cls-1" d="M42.41,39.53a2,2,0,1,0,1.67-2.34A2.11,2.11,0,0,0,42.41,39.53ZM44.19,38a1.18,1.18,0,1,1-1,1.34A1.22,1.22,0,0,1,44.19,38Z"/><path class="cls-1" d="M61.16,71.19l0,38.81h9.93l.13-33.35,3.79.11V110h4.68V80.78h25.66V110H110V42h-4.68V76.21H98.85a7,7,0,0,0,2.12-5V46.76c0-6-7.3-10.11-13.53-4.06A1.77,1.77,0,0,0,86.91,44V66.84l-25.85-.53C61.06,68.08,61.16,69.74,61.16,71.19Z"/><circle class="cls-1" cx="88.66" cy="26.37" r="8.92"/><circle class="cls-1" cx="55.18" cy="10.87" r="10.87"/></svg>