<svg id="Layer_1" data-name="Layer 1" xmlns="http://www.w3.org/2000/svg" viewBox="0 0 110 110"><defs><style>.cls-1{fill:#0a4ca4;fill-rule:evenodd;}</style></defs><path class="cls-1" d="M48.36,9.71C47,17.43,18.09,41.83,4.05,46.46c-.62.15-.16.31.3.31,10.19.15,46.32-27.49,47.4-36.9a50.56,50.56,0,0,1,19.3,5.71C63.8,29.94,25.2,62.05,5.13,68.38c-.78.31-.16.62.61.62,15.75.62,63-37.83,69.79-50.64A45.72,45.72,0,0,1,87.42,30.25a9.59,9.59,0,0,0,.92,1.23c-14.51,17.76-54,48.79-74.88,56.36-.92.46-.15.77.62.61,16.52-.61,66.39-40.29,77-52.18A49.24,49.24,0,0,1,96.22,59c-15.13,15.6-43.08,36.9-58.83,42.31-.77.31-.15.62.62.62,12.35-.16,47.86-27.49,57.59-36.13-6.95,42-62.07,55.27-86.92,19.76C-14,53.1,9.91,9.4,48.36,9.71Z"/><path class="cls-1" d="M75.68,18.05a49,49,0,0,0-4.32-2.78c4-8.95-6-7.1-10.5-4.48C63.64,6,85.72-1.71,75.68,18.05Z"/><path class="cls-1" d="M91.12,36.11C90,34,89.43,32.87,88.5,31.33,99,18.2,89.12,19,81.24,21.75,85.57,13.73,111.81,13.11,91.12,36.11Z"/><path class="cls-1" d="M95.76,65.6c.46-2.62.61-4.94.77-6.95,17-19.6-3.86-13.58-.77-15.28C113.2,33.64,116.6,49.7,95.76,65.6Z"/><path class="cls-1" d="M51.6,9.71a22.45,22.45,0,0,1-3.09-.15c2.93-6-6.33-.93-7.72-.16C43.57,5.7,53.14-.79,51.6,9.71Z"/></svg>