<svg id="Layer_1" data-name="Layer 1" xmlns="http://www.w3.org/2000/svg" viewBox="0 0 110 110"><defs><style>.cls-1,.cls-2{fill:#0a4ca4;}.cls-2{fill-rule:evenodd;}</style></defs><polygon class="cls-1" points="48.19 20.96 55 16.02 61.81 20.96 59.21 12.96 66.02 8.01 57.6 8.01 55 0 52.4 8.01 43.98 8.01 50.79 12.96 48.19 20.96"/><polygon class="cls-1" points="22.21 31.5 29.02 26.55 35.84 31.49 33.23 23.49 40.04 18.54 31.63 18.54 29.02 10.53 26.42 18.54 18 18.54 24.81 23.49 22.21 31.5"/><polygon class="cls-1" points="74.17 31.5 80.98 26.55 87.79 31.49 85.19 23.49 92 18.54 83.58 18.54 80.98 10.53 78.38 18.54 69.96 18.54 76.77 23.49 74.17 31.5"/><path class="cls-2" d="M25.88,38.42,33.41,46,11.69,67.71,4.16,60.14Z"/><path class="cls-2" d="M84.27,38.42,106,60.14l-7.57,7.57L76.7,46Z"/><path class="cls-2" d="M32.55,50.38A25.37,25.37,0,0,0,45.1,56.65a27.09,27.09,0,0,0,7.25,0l.9-.12L42.47,67.35A5.42,5.42,0,0,0,50.12,75l5.72-5.73L73.17,86.65a2.91,2.91,0,1,1-4.12,4.11L56.11,77.82a1.26,1.26,0,0,0-1.76,1.81c4.72,4.89,10.2,10.42,14.55,14.54a2.88,2.88,0,0,1,0,4.08,2.91,2.91,0,0,1-4.12,0c-4.47-4.4-8.92-8.91-13.37-13.37a1.28,1.28,0,0,0-.9-.39,1.32,1.32,0,0,0-.86,2.16c4.43,4.47,9,8.91,13.37,13.41a2.87,2.87,0,0,1,0,4.07,3.31,3.31,0,0,1-2.55.83,3.53,3.53,0,0,1-2.28-1.18l0,0c-4-4.18-8.69-9-13-13.29a1.31,1.31,0,0,0-.91-.39,1.32,1.32,0,0,0-.86,2.15c4.16,4.37,8.78,9.06,12.67,12.9.76.77.3,2.4-.59,3.3a4.09,4.09,0,0,1-2.63,1,2.6,2.6,0,0,1-2.16-1A5.23,5.23,0,0,0,45.61,102a3.57,3.57,0,0,0-.47,0,5.26,5.26,0,0,0-1.49-4.16A5.19,5.19,0,0,0,40,96.37c-.15,0-.32,0-.47,0A5.18,5.18,0,0,0,38,92.29v0a5.18,5.18,0,0,0-3.69-1.53,5.39,5.39,0,0,0-2.11.47,81.29,81.29,0,0,1-8.71-11c-1.57-2.51-1.61-4-2-6.28-.46-2.48-2.27-4.43-5-7.41Z"/><path class="cls-2" d="M78.74,51.55,93.05,65.86c-1.3.73-2.73,1.45-4.12,2.36a11.13,11.13,0,0,0-4.58,5.33c-1.42,3.69-4.43,6-10.2,10.55l-8.43-8.43c1-.09,2.21-.17,3.45-.2a1.26,1.26,0,1,0,0-2.51h-.08c-1.46,0-2.88.13-4,.24l-1.72.15-5.8-5.8,1.68-1.69a1.25,1.25,0,0,0-1.76-1.76l-9.18,9.17a2.91,2.91,0,0,1-4.12,0,3,3,0,0,1,0-4.15l13.85-13.8c3-1.39,7-.13,9.84.74,2.53.77,5-.27,7-1.53a29.82,29.82,0,0,0,3.84-3Z"/><path class="cls-2" d="M34.31,93.23a2.75,2.75,0,1,1-1.92.83A2.69,2.69,0,0,1,34.31,93.23Z"/><path class="cls-2" d="M40,98.88a2.7,2.7,0,0,1,1.92.78,2.75,2.75,0,1,1-3.88,0,2.79,2.79,0,0,1,2-.78Z"/><path class="cls-2" d="M45.61,104.53a2.69,2.69,0,0,1,1.92.78,2.66,2.66,0,0,1,0,3.88,2.74,2.74,0,1,1-1.92-4.66Z"/></svg>