<?xml version="1.0" encoding="UTF-8"?>
<svg width="110px" height="110px" viewBox="0 0 110 110" version="1.1" xmlns="http://www.w3.org/2000/svg" xmlns:xlink="http://www.w3.org/1999/xlink">
    <title>Medical Affairs_2@svg</title>
    <g id="Medical-Affairs_2" stroke="none" stroke-width="1" fill="none" fill-rule="evenodd">
        <g id="noun_compliance_1437084" transform="translate(3.000000, 0.000000)" fill="#0A4CA4" fill-rule="nonzero">
            <g id="Group">
                <rect id="Rectangle" x="43.7300909" y="10.0002222" width="60.2699091" height="10.0002222"></rect>
                <path d="M3.55056074,29.9994444 L33.6849014,29.9994444 L33.6849014,0 L3.55056074,0 L3.55056074,29.9994444 Z M13.5957502,10.0002222 L23.6409397,10.0002222 L23.6409397,20.0004444 L13.5957502,20.0004444 L13.5957502,10.0002222 Z" id="Shape"></path>
                <rect id="Rectangle" x="43.7300909" y="49.9998889" width="60.2699091" height="10.0002222"></rect>
                <rect id="Rectangle" x="43.7300909" y="89.9995556" width="60.2699091" height="10.0002222"></rect>
                <path d="M3.55056074,110 L33.6849014,110 L33.6849014,80.0005556 L3.55056074,80.0005556 L3.55056074,110 Z M13.5957502,89.9995556 L23.6409397,89.9995556 L23.6409397,99.9997778 L13.5957502,99.9997778 L13.5957502,89.9995556 Z" id="Shape"></path>
                <polygon id="Path" points="13.5957502 72.0707778 37.2366899 48.5356667 30.1343407 41.4651111 13.5957502 57.9296667 7.10112147 51.4653333 -4.36173088e-15 58.5358889"></polygon>
            </g>
        </g>
    </g>
</svg>