<svg xmlns="http://www.w3.org/2000/svg" viewBox="0 0 110 110"><defs><style>.cls-1{fill:#0a4ca4;}.cls-2{fill:#fff;}</style></defs><g id="Layer_3" data-name="Layer 3"><g id="Custom-built"><path class="cls-1" d="M43.79-.2V6.38H35.22V18.23H74.68V6.38H66.11V-.2ZM14.3,11.66V110.2H95.7V11.66h-16V23.22H30.24V11.66Z"/><path class="cls-2" d="M59,56.18c-.19-.32-.41-.6-.6-.87a9.35,9.35,0,0,0-1.19-1.37,11.7,11.7,0,0,0-1.41-1.24A13.06,13.06,0,0,0,47.72,50a13.23,13.23,0,0,0-8,2.7,14.88,14.88,0,0,0-2.56,2.52c-.23.32-.46.59-.68,1a13.41,13.41,0,0,0-2.15,7.22v8.69H61.12V63.4A14.28,14.28,0,0,0,59,56.18Z"/><path class="cls-2" d="M54.76,40.68a7.09,7.09,0,1,1-7.09-7.09A7.09,7.09,0,0,1,54.76,40.68Z"/><path class="cls-2" d="M50.19,34V47.26a7,7,0,0,0,4.57-6.63A7.17,7.17,0,0,0,50.19,34Z"/><path class="cls-2" d="M69.7,54.4a18.26,18.26,0,0,0,5.44,2.33c0,4.29-.58,7.45-5.44,11-4.86-3.49-5.39-6.66-5.43-11A18.43,18.43,0,0,0,69.7,54.4m0-.72-.32.21a17.39,17.39,0,0,1-5.23,2.25l-.47.11v.48c0,4.19.47,7.69,5.68,11.44l.34.25.35-.25c5.21-3.75,5.65-7.25,5.67-11.44v-.48l-.46-.11A17.23,17.23,0,0,1,70,53.89l-.32-.21Z"/><path class="cls-2" d="M74.39,57.29a19.26,19.26,0,0,1-4.66-2h0a19.66,19.66,0,0,1-4.66,2s0,0,0,.05c.06,3.29.46,6.29,4.68,9.5h.08c4.24-3.21,4.64-6.2,4.69-9.5C74.43,57.31,74.42,57.29,74.39,57.29Z"/><path class="cls-1" d="M72.58,62.17H70.83v1.75H68.56V62.17H66.81V59.9h1.75V58.15h2.27V59.9h1.75Z"/><rect class="cls-2" x="21.1" y="80.04" width="67.8" height="7.49"/><rect class="cls-2" x="21.1" y="91.63" width="67.8" height="7.49"/></g></g></svg>