<svg xmlns="http://www.w3.org/2000/svg" viewBox="0 0 111.25 91.27"><defs><style>.cls-1,.cls-2{fill:#0a4ca4;}.cls-2{fill-rule:evenodd;}.cls-3{fill:#fff;}</style></defs><g id="Layer_3" data-name="Layer 3"><path class="cls-1" d="M94.36,62.07a2,2,0,0,0,.74,2.78,2,2,0,0,0,2.75-.75c5-9,.21-17.78,0-18.2a2,2,0,0,0-2.75-.75,2,2,0,0,0-.74,2.78,16.79,16.79,0,0,1,1.72,6.85v1A13.8,13.8,0,0,1,94.36,62.07Z" transform="translate(0.62 -9.37)"/><path class="cls-1" d="M93,61.3a3.62,3.62,0,0,0,1.73,5.07,3.51,3.51,0,0,0,2.89-.08,4.67,4.67,0,0,0,2.06-2.44,20.42,20.42,0,0,0,1.65-12.08,19.83,19.83,0,0,0-2.14-6.56,3.55,3.55,0,0,0-6.31,3.24c1.87,4.17,2.35,8.7.12,12.85-.94,1.74,1.71,3.29,2.65,1.55a16.12,16.12,0,0,0,1.93-8.07,17.64,17.64,0,0,0-1-5.29c-.26-.77-.8-1.56-1-2.34-.07-.31,0-.69.39-.73s.58.5.73.8a17.19,17.19,0,0,1,.73,1.84,19.59,19.59,0,0,1,1,7.44,16.34,16.34,0,0,1-1.21,5.15c-.2.48-.59,1.84-1.18,1.93a.5.5,0,0,1-.49-.73C96.54,61.08,93.89,59.52,93,61.3Z" transform="translate(0.62 -9.37)"/><path class="cls-1" d="M15.62,47.93a2,2,0,0,0-.74-2.78,2,2,0,0,0-2.75.75c-.21.38-5,9.18,0,18.2a2,2,0,0,0,2.75.75,2,2,0,0,0,.74-2.78h0a13.77,13.77,0,0,1-1.72-6.24V54.75A16.65,16.65,0,0,1,15.62,47.93Z" transform="translate(0.62 -9.37)"/><path class="cls-1" d="M17,48.7A3.63,3.63,0,0,0,15,43.55a3.59,3.59,0,0,0-4.28,1.66,19.52,19.52,0,0,0-2.14,6.53A20.39,20.39,0,0,0,10.36,64a4.47,4.47,0,0,0,2,2.27,3.57,3.57,0,0,0,3.08,0,3.64,3.64,0,0,0,1.54-5,14.07,14.07,0,0,1,0-12.6c.86-1.77-1.79-3.33-2.65-1.55a18.81,18.81,0,0,0-1.93,8.59,14.88,14.88,0,0,0,.79,4.54,19,19,0,0,0,1,2.27c.16.32.41.91-.17,1s-.71-.6-.88-.93a15.16,15.16,0,0,1-1-2.52,16.38,16.38,0,0,1-.71-4.56,19.63,19.63,0,0,1,1.25-7.07,7.9,7.9,0,0,1,.72-1.64c.34-.58,1.29-.42.94.3C13.44,48.92,16.09,50.48,17,48.7Z" transform="translate(0.62 -9.37)"/><path class="cls-1" d="M8.89,74.2a2,2,0,0,0,2-2,2,2,0,0,0-.43-1.25c-12.35-15.69-.51-31.2,0-31.86a2,2,0,0,0-.33-2.84,2,2,0,0,0-2.81.34h0c-.14.18-14.37,18.64,0,36.87A2,2,0,0,0,8.89,74.2Z" transform="translate(0.62 -9.37)"/><path class="cls-1" d="M8.89,75.74a3.64,3.64,0,0,0,3.54-3.56,4.11,4.11,0,0,0-1.06-2.57,27.78,27.78,0,0,1-2.19-3.37A22.25,22.25,0,0,1,6.4,54.81a27,27,0,0,1,5-14.38L11.7,40c.2-.27-.52.88.09-.11a4.06,4.06,0,0,0,.55-1.24,3.62,3.62,0,0,0-2.66-4.26c-2.09-.5-3.43,1-4.44,2.52A35.63,35.63,0,0,0-.3,51.38,29.25,29.25,0,0,0,.54,63.86a30.34,30.34,0,0,0,3,6.87c1.25,2.1,2.64,4.77,5.31,5,2,.17,2-2.9,0-3.07-.73-.07-1.42-1.57-1.8-2.13a29.83,29.83,0,0,1-1.62-2.71A25.68,25.68,0,0,1,2.56,53.1,32.35,32.35,0,0,1,7,39.84,8.08,8.08,0,0,1,8.6,37.39s.34-.11.49,0c.47.31.22.65,0,1s-.44.61-.65.93A30.43,30.43,0,0,0,3.66,51.42a25.71,25.71,0,0,0,.58,10.83A26.51,26.51,0,0,0,6.64,68a29.32,29.32,0,0,0,1.9,2.93c.25.34,1.44,1.66.35,1.75C6.93,72.83,6.92,75.9,8.89,75.74Z" transform="translate(0.62 -9.37)"/><path class="cls-1" d="M99.55,39.07c.13.16,12.4,16.11,0,31.85a2,2,0,0,0,.36,2.83,2,2,0,0,0,2.77-.32c14.37-18.19.14-36.69,0-36.87a2,2,0,0,0-2.82-.29A2,2,0,0,0,99.55,39.07Z" transform="translate(0.62 -9.37)"/><path class="cls-1" d="M98.46,40.16c-.24-.31-.21-.3,0,0s.31.44.45.66q.75,1.14,1.38,2.34a28.88,28.88,0,0,1,2.79,7.63,22.71,22.71,0,0,1-.35,10.93,23.44,23.44,0,0,1-2.7,5.94c-1.11,1.77-3,3.35-2.22,5.64a3.57,3.57,0,0,0,4.48,2.25,5,5,0,0,0,2.34-2.09,31.81,31.81,0,0,0,2.05-3.09,29.49,29.49,0,0,0,3.85-11.86,33.52,33.52,0,0,0-4-18.55,29.51,29.51,0,0,0-2.47-4.06,3.54,3.54,0,1,0-5.86,4c1.06,1.66,3.72.12,2.65-1.55-.33-.52-.16-1,.46-.89.19,0-.06-.13.13.06a5.66,5.66,0,0,1,.69,1,34.67,34.67,0,0,1,2.46,4.47,29.7,29.7,0,0,1,2.74,16.25,26.41,26.41,0,0,1-3.7,10.19c-.52.86-1.09,1.7-1.7,2.52-.2.27-.48.81-.89.73a.48.48,0,0,1-.4-.52c0-.61,1.13-1.63,1.49-2.15a28.18,28.18,0,0,0,1.6-2.7,26,26,0,0,0,1.82-19.08A29.28,29.28,0,0,0,100.63,38C99.41,36.44,97.25,38.62,98.46,40.16Z" transform="translate(0.62 -9.37)"/><path class="cls-2" d="M31.27,96.5V13.41H41.54l1.89,4.13H64.5l2.16-4.13H76.75V96.09l4.68,0V44.8a2,2,0,0,0,1.71-1.9v-5A2,2,0,0,0,81.43,36V33.9a2.16,2.16,0,0,0,1.8-2V23.49a2,2,0,0,0-1.71-1.9V9.37H26.77v91.26H81.42V96Z" transform="translate(0.62 -9.37)"/><polyline class="cls-2" points="72.86 46.75 72.86 46.83 72.86 12.55 64.76 12.55 36.3 12.55 36.3 83.01 60.97 83.01 72.86 83.01 72.86 46.83"/><path class="cls-3" d="M38.72,41.6h1.22a14,14,0,0,1,1-2.4l-.83-.81a3.08,3.08,0,0,1-.91-2.16,3.56,3.56,0,0,1,1-2.51l1.35-1.33a3.33,3.33,0,0,1,4.64-.15l.86.92a14.36,14.36,0,0,1,2.51-1V31A3.29,3.29,0,0,1,53,27.78h1.87A3.3,3.3,0,0,1,58.29,31v1.16a14.39,14.39,0,0,1,2.5,1l.88-.86a3.33,3.33,0,0,1,4.63.14l1.34,1.28a3.51,3.51,0,0,1,1,2.51,3.06,3.06,0,0,1-.91,2.19l-.84.82a14.13,14.13,0,0,1,1,2.36h1.21a1.54,1.54,0,0,1,0,3.07H66.78a1.53,1.53,0,0,1-1.52-1.2,11.12,11.12,0,0,0-1.52-3.68,1.54,1.54,0,0,1,.2-1.94l1.7-1.62A.39.39,0,0,0,65.5,36l-1.33-1.31a.4.4,0,0,0-.39-.14l-1.69,1.66a1.51,1.51,0,0,1-1.87.2,11.44,11.44,0,0,0-3.8-1.54,1.52,1.52,0,0,1-1.21-1.53V31a.78.78,0,0,0-.36-.1H53a.47.47,0,0,0-.37.14v2.3a1.53,1.53,0,0,1-1.21,1.54,11.63,11.63,0,0,0-3.8,1.53,1.51,1.51,0,0,1-1.88-.2L44.07,34.5a.47.47,0,0,0-.39.15L42.35,36a.37.37,0,0,0-.13.28l1.68,1.64a1.56,1.56,0,0,1,.21,2,10.86,10.86,0,0,0-1.52,3.67,1.52,1.52,0,0,1-1.52,1.2H38.72a1.54,1.54,0,0,1,0-3.07Zm15.22,4.6a1.52,1.52,0,0,1-1.52-1.53V40.06a1.53,1.53,0,1,1,3,0v3.07h6.08a1.54,1.54,0,0,1,0,3.07Z" transform="translate(0.62 -9.37)"/><path class="cls-3" d="M64.42,77.18c-.17-.3-.38-.56-.55-.81a10.7,10.7,0,0,0-1.1-1.29,11.81,11.81,0,0,0-1.32-1.15A12,12,0,0,0,54,71.41a12.17,12.17,0,0,0-7.47,2.52,13.51,13.51,0,0,0-2.37,2.35c-.22.3-.43.56-.64.9a12.71,12.71,0,0,0-2,6.76v8.13H66.41V83.94A13.34,13.34,0,0,0,64.42,77.18Z" transform="translate(0.62 -9.37)"/><path class="cls-3" d="M60.52,62.68a6.58,6.58,0,1,1-6.58-6.63A6.61,6.61,0,0,1,60.52,62.68Z" transform="translate(0.62 -9.37)"/><path class="cls-3" d="M56.28,56.44v12.4a6.6,6.6,0,0,0,4.24-6.2A6.69,6.69,0,0,0,56.28,56.44Z" transform="translate(0.62 -9.37)"/></g></svg>