<svg xmlns="http://www.w3.org/2000/svg" viewBox="0 0 110 110"><defs><style>.cls-1{fill:#0a4ca4;}.cls-2{fill:#fff;}.cls-3{fill:#f9f9fa;}</style></defs><g id="Layer_3" data-name="Layer 3"><g id="MI_Source" data-name="MI Source"><polygon class="cls-1" points="69.75 107.19 67.1 92.7 42.9 92.7 40.25 107.19 36.69 107.19 30.03 107.19 30.03 110.69 36.05 110.69 73.94 110.69 79.97 110.69 79.97 107.19 73.31 107.19 69.75 107.19"/><path class="cls-1" d="M0,.07V93.13H110V.07ZM8.47,8.54h93.06V76.29H8.47Z"/><polygon class="cls-1" points="13.86 42.12 13.86 18.82 94.47 18.82 94.47 42.12 94.47 68.72 13.86 68.72 13.86 42.12"/><path class="cls-2" d="M31.59,45.16c10.7-7.26,8.9-14.38,8.81-14.68A1.17,1.17,0,0,0,39,29.67a1.13,1.13,0,0,0-.69.54,1.1,1.1,0,0,0-.12.87,1.81,1.81,0,0,1,0,.2H20.78a1.76,1.76,0,0,1,0-.21,1.15,1.15,0,0,0-.81-1.4,1.16,1.16,0,0,0-1.41.8c-.08.31-1.89,7.43,8.81,14.69C16.08,53.1,18.65,61,18.76,61.38a1.15,1.15,0,0,0,2.18-.75.68.68,0,0,1,0-.13H38.1a.66.66,0,0,0,0,.13,1.1,1.1,0,0,0,0,.87,1.13,1.13,0,0,0,.66.59,1.19,1.19,0,0,0,.37.06,1.15,1.15,0,0,0,1.09-.77C40.36,61,42.93,53.1,31.59,45.16Zm6.05-10.07H21.35a9.26,9.26,0,0,1-.46-1.51h17.2A9.19,9.19,0,0,1,37.64,35.09Zm-1.21,2.3a15,15,0,0,1-1.14,1.51H23.7a16.78,16.78,0,0,1-1.15-1.51ZM33,41.2a31.48,31.48,0,0,1-3.5,2.59A32.78,32.78,0,0,1,26,41.2Zm1.41,9.38H24.59a27.82,27.82,0,0,1,4.91-4A27.47,27.47,0,0,1,34.41,50.58ZM21.87,54.39a14.74,14.74,0,0,1,.88-1.51h13.5a13.1,13.1,0,0,1,.88,1.51ZM38.25,58.2H20.75A9.19,9.19,0,0,1,21,56.69H38A10.33,10.33,0,0,1,38.25,58.2Z"/><rect class="cls-3" x="49.1" y="57.47" width="40.79" height="3.32"/><rect class="cls-3" x="49.1" y="49.36" width="40.79" height="3.32"/><path class="cls-2" d="M65.24,36.87a1.73,1.73,0,1,0-2.37-.63A1.73,1.73,0,0,0,65.24,36.87Zm1.59.93a3.41,3.41,0,0,1-.73.57A3.46,3.46,0,1,1,66.84,33L73,29.38a3.45,3.45,0,1,1,.86,1.5L67.7,34.45a3.36,3.36,0,0,1,0,1.86l6.14,3.54a3.45,3.45,0,1,1-.87,1.5L66.83,37.8ZM77.21,30a1.72,1.72,0,1,0-2.36-.63A1.73,1.73,0,0,0,77.21,30ZM75.44,43.77a1.73,1.73,0,1,0-.63-2.36A1.72,1.72,0,0,0,75.44,43.77Z"/></g></g></svg>