<?xml version="1.0" encoding="utf-8"?>
<!-- Generator: Adobe Illustrator 25.2.1, SVG Export Plug-In . SVG Version: 6.00 Build 0)  -->
<svg version="1.1" id="Layer_1" xmlns="http://www.w3.org/2000/svg" xmlns:xlink="http://www.w3.org/1999/xlink" x="0px" y="0px"
	 viewBox="0 0 126 188" style="enable-background:new 0 0 126 188;" xml:space="preserve">
<style type="text/css">
	.st0{fill:#0a4ca4;}
</style>
<g id="Page-1">
	<g id="Desktop-HD" transform="translate(-666.000000, -2039.000000)">
		<g id="medical-content" transform="translate(666.000000, 2039.000000)">
			<g id="noun_medical-note_2577612" transform="translate(0.000000, 0.000000)">
				<g id="Group">
					<path id="Shape" class="st0" d="M26.3,52.8c-5,0-9.2,4.1-9.2,9.2v77.9c0,5,4.1,9.2,9.2,9.2h73.3c5,0,9.2-4.1,9.2-9.2V61.9
						c0-5-4.1-9.2-9.2-9.2h-9.2v4.5c0,7.6-6.2,13.7-13.7,13.7H49.3c-7.6,0-13.7-6.1-13.7-13.7v-4.5H26.3z M44.7,107.8h13.7V94
						c0-2.5,2.1-4.6,4.6-4.6s4.6,2.1,4.6,4.6v13.7h13.7c2.5,0,4.6,2.1,4.6,4.6c0,2.5-2.1,4.6-4.6,4.6H67.6v13.7
						c0,2.5-2.1,4.6-4.6,4.6s-4.6-2.1-4.6-4.6v-13.7H44.7c-2.5,0-4.6-2.1-4.6-4.6C40.1,109.8,42.2,107.8,44.7,107.8z"/>
					<path id="Shape_1_" class="st0" d="M67.6,39h-9.2c-2.5,0-4.6,2.1-4.6,4.6v9.2h-9.2v4.6c0,2.6,2.1,4.6,4.6,4.6h27.5
						c2.5,0,4.6-2,4.6-4.6v-4.6h-9.2v-9.2C72.2,41.1,70.1,39,67.6,39z M63,52.7c-2.5,0-4.6-2-4.6-4.6c0-2.5,2.1-4.6,4.6-4.6
						s4.6,2.1,4.6,4.6C67.6,50.7,65.5,52.7,63,52.7z"/>
				</g>
			</g>
		</g>
	</g>
</g>
</svg>
