<svg id="Layer_1" data-name="Layer 1" xmlns="http://www.w3.org/2000/svg" viewBox="0 0 110 110"><defs><style>.cls-1{fill:#0a4ca4;}.cls-2,.cls-3,.cls-4{fill:none;stroke:#0a4ca4;stroke-miterlimit:10;}.cls-2{stroke-width:2.81px;}.cls-3{stroke-width:2.15px;}.cls-4{stroke-width:5.39px;}</style></defs><title>Medical_Information_Management_In-housequalified</title><path class="cls-1" d="M65,23.08A16.37,16.37,0,1,1,48.65,6.71,16.37,16.37,0,0,1,65,23.08Z"/><polygon class="cls-1" points="85.98 74.44 85.98 84.19 78.48 84.19 78.48 91.77 68.72 91.77 68.72 84.19 61.14 84.19 61.14 74.44 68.72 74.44 68.72 66.86 78.48 66.86 78.48 74.44 85.98 74.44"/><path class="cls-1" d="M64.69,88.22H57.11V70.4h7.58V62.82H77.91A29.78,29.78,0,0,0,75.82,59c-.49-.64-.89-1.37-1.45-2a23.4,23.4,0,0,0-2.75-3.15A27,27,0,0,0,68.32,51a30.13,30.13,0,0,0-18.63-6.21,31,31,0,0,0-24.51,12c-.56.72-1,1.45-1.53,2.17a31.42,31.42,0,0,0-4.92,16.77V95.8h46V88.22Z"/><rect class="cls-2" x="1.37" y="95.8" width="107.23" height="12.79"/><polygon class="cls-1" points="19.41 97.76 20.85 100.68 24.07 101.15 21.74 103.42 22.29 106.63 19.41 105.12 16.52 106.63 17.08 103.42 14.74 101.15 17.97 100.68 19.41 97.76"/><polygon class="cls-1" points="36.53 97.76 37.97 100.68 41.19 101.15 38.86 103.42 39.41 106.63 36.53 105.12 33.64 106.63 34.19 103.42 31.86 101.15 35.09 100.68 36.53 97.76"/><polygon class="cls-1" points="54.55 97.76 55.99 100.68 59.22 101.15 56.88 103.42 57.44 106.63 54.55 105.12 51.67 106.63 52.22 103.42 49.88 101.15 53.11 100.68 54.55 97.76"/><polygon class="cls-1" points="71.12 97.76 72.56 100.68 75.78 101.15 73.45 103.42 74 106.63 71.12 105.12 68.23 106.63 68.79 103.42 66.45 101.15 69.68 100.68 71.12 97.76"/><polygon class="cls-1" points="88.39 97.76 89.83 100.68 93.06 101.15 90.72 103.42 91.27 106.63 88.39 105.12 85.5 106.63 86.06 103.42 83.72 101.15 86.95 100.68 88.39 97.76"/><rect class="cls-1" x="28.68" y="20.55" width="9.79" height="13.27"/><rect class="cls-1" x="58.82" y="21" width="9.79" height="13.27"/><path class="cls-3" d="M32.93,21a14.46,14.46,0,0,1,.7-11.3"/><path class="cls-4" d="M33.57,10.55s.92-6.76,13.17-7.88A18.74,18.74,0,0,1,57.66,4.81c4.39,2.49,8.81,7.62,6.06,18"/><rect class="cls-1" x="35.01" y="39.12" width="6.57" height="3.25"/><path class="cls-3" d="M33,32.59s-4.7,7.93,3.42,8.35"/></svg>