<svg id="Layer_1" data-name="Layer 1" xmlns="http://www.w3.org/2000/svg" viewBox="0 0 110 110"><defs><style>.cls-1{fill:#0a4ca4;}</style></defs><path class="cls-1" d="M108.12,74.07l-3.59-.17a17.4,17.4,0,0,0-2.23-5.13L104.7,66a1.82,1.82,0,0,0,0-2.39l-5.31-5.3a1.64,1.64,0,0,0-2.39,0l-2.74,2.39A14.08,14.08,0,0,0,91,59.19a6.09,6.09,0,0,0-1.88-.51V55.09a1.85,1.85,0,0,0-1.71-1.72h-7.7A1.72,1.72,0,0,0,78,55.09l-.17,3.59a17.38,17.38,0,0,0-5.13,2.22l-2.57-2.56a1.81,1.81,0,0,0-2.4,0l-5.3,5.3a1.66,1.66,0,0,0,0,2.39l2.4,2.74a21.6,21.6,0,0,0-2.06,5.13l-3.59.17a1.85,1.85,0,0,0-1.71,1.72v7.69a1.71,1.71,0,0,0,1.71,1.71l3.59.18a16.31,16.31,0,0,0,1.54,3.93A4.35,4.35,0,0,0,65,90.5l-2.4,2.73a1.67,1.67,0,0,0,0,2.4l5.31,5.3a1.64,1.64,0,0,0,2.39,0l2.74-2.39a23.37,23.37,0,0,0,5.13,2.22l.17,3.59a1.85,1.85,0,0,0,1.71,1.72h7.36a1.72,1.72,0,0,0,1.71-1.72l.17-3.59a17.38,17.38,0,0,0,5.13-2.22l2.74,2.39a1.64,1.64,0,0,0,2.39,0l5.31-5.3a1.67,1.67,0,0,0,0-2.4l-2.4-2.73a17.4,17.4,0,0,0,2.23-5.13l3.59-.18A1.84,1.84,0,0,0,110,83.48V75.79A2.18,2.18,0,0,0,108.12,74.07ZM83.48,90.84A11.29,11.29,0,1,1,94.77,79.55,11.17,11.17,0,0,1,83.48,90.84Z"/><path class="cls-1" d="M80.92,28.74A1.71,1.71,0,0,0,79.21,27h-6.5V44.31h8.21Z"/><path class="cls-1" d="M3.25,27H1.71A1.71,1.71,0,0,0,0,28.74V81.6c1.2-3.08,2.22-6,3.25-8.55Z"/><path class="cls-1" d="M15.74,44.31h53.2V5.65a1.72,1.72,0,0,0-1.71-1.72H8.72A1.62,1.62,0,0,0,7,5.65V62.78c.35-1,5.14-13.68,6.16-16.93A3.18,3.18,0,0,1,15.74,44.31Zm1.37-32.85H58.68a1.89,1.89,0,0,1,0,3.77H17.11a1.9,1.9,0,0,1-1.88-1.89A2,2,0,0,1,17.11,11.46Zm0,11.29H58.68a1.89,1.89,0,0,1,0,3.77H17.11a1.89,1.89,0,0,1,0-3.77Zm0,11.12H58.68a1.89,1.89,0,0,1,0,3.77H17.11a1.9,1.9,0,0,1-1.88-1.89A2,2,0,0,1,17.11,33.87Z"/><path class="cls-1" d="M58.85,88.62a5.24,5.24,0,0,1-5-5.14V76a5.24,5.24,0,0,1,5-5.14h1.2a8.29,8.29,0,0,1,.51-1.19l-.86-.86a5.27,5.27,0,0,1,.18-7.18l5.3-5.31a5,5,0,0,1,3.59-1.54,4.78,4.78,0,0,1,3.42,1.37l.86.86c.34-.17.85-.34,1.2-.52V55.26a5.22,5.22,0,0,1,5.13-5h8a5.22,5.22,0,0,1,5.13,5v1.19c.51.18.86.35,1.37.52h0l2.39-6.33a1.62,1.62,0,0,0-1.54-2.23H16.42C14.71,52.86,22.24,32.67.86,90.33H60.39l.17-.17c-.17-.35-.34-.86-.51-1.2Z"/></svg>