<svg id="Layer_1" data-name="Layer 1" xmlns="http://www.w3.org/2000/svg" xmlns:xlink="http://www.w3.org/1999/xlink" viewBox="0 0 110 110"><defs><style>.cls-1,.cls-3,.cls-5{fill:none;}.cls-2{fill:#0a4ca4;}.cls-3,.cls-5{stroke:#fff;stroke-miterlimit:10;}.cls-3{stroke-width:2px;}.cls-4{clip-path:url(#clip-path);}.cls-5{stroke-width:3px;}</style><clipPath id="clip-path"><path class="cls-1" d="M94.91,63.17A14.4,14.4,0,0,0,84.42,51.3a14.51,14.51,0,0,0-7.74-16.6,14.44,14.44,0,0,0-27.09-6.53V74.61l.17,4.21v23.57a14.69,14.69,0,0,0,12.64,7.48,14.28,14.28,0,0,0,14.45-14,14.55,14.55,0,0,0,7.74-16.6A14.15,14.15,0,0,0,95.08,67.39Z"/></clipPath></defs><title>Medical_Information_Management_Gathermarketandcompetitor -04</title><path class="cls-2" d="M.3,67.38A14.17,14.17,0,0,0,10.8,79.25a14.54,14.54,0,0,0,7.74,16.6,14.28,14.28,0,0,0,14.45,14,14.69,14.69,0,0,0,12.64-7.48V78.82l.17-4.21V28.17A14.44,14.44,0,0,0,18.71,34.7,14.5,14.5,0,0,0,11,51.3,14.41,14.41,0,0,0,.47,63.17Z"/><polyline class="cls-3" points="16.75 33.2 25.91 39.71 24.85 44.36"/><line class="cls-3" x1="25.91" y1="39.71" x2="29.29" y2="36.17"/><polyline class="cls-3" points="16.75 53.91 13.23 58.45 10.5 61.98"/><line class="cls-3" x1="15.34" y1="63.06" x2="13.23" y2="58.45"/><polyline class="cls-3" points="30.58 72.56 35.99 67.28 41.4 61.98"/><polyline class="cls-3" points="34.89 60.76 35.99 65.36 35.99 67.28"/><line class="cls-3" x1="14.29" y1="98.92" x2="25.91" y2="90.5"/><line class="cls-3" x1="21.94" y1="93.37" x2="27.55" y2="95.7"/><path class="cls-2" d="M94.81,63A14.33,14.33,0,0,0,84.32,51.2a14.45,14.45,0,0,0-7.74-16.55,14.45,14.45,0,0,0-27.09-6.51V74.42l.17,4.2v23.49a14.7,14.7,0,0,0,12.64,7.45,14.25,14.25,0,0,0,14.45-14,14.48,14.48,0,0,0,7.74-16.54A14.15,14.15,0,0,0,95,67.22Z"/><polyline class="cls-3" points="78.54 32.89 69.38 39.4 70.44 44.05"/><line class="cls-3" x1="69.38" y1="39.4" x2="66" y2="35.86"/><polyline class="cls-3" points="78.54 53.61 82.06 58.15 84.79 61.67"/><line class="cls-3" x1="79.95" y1="62.75" x2="82.05" y2="58.14"/><polyline class="cls-3" points="64.71 72.25 59.3 66.97 53.88 61.67"/><polyline class="cls-3" points="60.4 60.45 59.3 65.05 59.3 66.97"/><line class="cls-3" x1="81" y1="98.61" x2="69.38" y2="90.19"/><line class="cls-3" x1="73.34" y1="93.06" x2="67.74" y2="95.39"/><path class="cls-2" d="M89.06,0c-11.57,0-21,9.6-21.15,21.53a24.41,24.41,0,0,0,1.43,8.53A20.23,20.23,0,0,0,81.17,42.31c15,5.65,29-5.69,29-20.42h0C110.19,9.81,100.73,0,89.06,0ZM103,16.73v9.85H94.48v8.79H85V26.58H76.47V16.73H85V7.94h9.52v8.79Z"/><path class="cls-2" d="M92.15,19.33V10.54h-5v8.79H78.68v5.12h8.51v8.79h5V24.45h8.51V19.33Z"/><g class="cls-4"><path class="cls-5" d="M66.4,20.91s-1,19.46,19.09,24.24"/></g></svg>