<svg id="Layer_1" data-name="Layer 1" xmlns="http://www.w3.org/2000/svg" viewBox="0 0 110 110"><defs><style>.cls-1{fill:#0a4ca4;}</style></defs><path class="cls-1" d="M81.83,98.38,80.76,87.25A.47.47,0,0,0,80,87L77.4,89.53l-5.09-5a22.07,22.07,0,0,1-5,5l5,5L69.76,97a.47.47,0,0,0,.27.81l11.13,1.07C81.56,99.05,81.83,98.79,81.83,98.38ZM26.16,79.74c.26.26.8,0,.8-.41V75.71h7.11a29.09,29.09,0,0,1-.27-3.49,31.72,31.72,0,0,1,.27-3.49H26.83V65.11a.5.5,0,0,0-.81-.4l-8.58,7.11a.65.65,0,0,0,0,.94Zm57.68-15c-.26-.27-.8,0-.8.4v3.62H75.93a29.42,29.42,0,0,1,.27,3.49,31.54,31.54,0,0,1-.27,3.49h7.24v3.62a.5.5,0,0,0,.81.41l8.58-7.11a.65.65,0,0,0,0-.94Zm-55,34.34L40,98a.46.46,0,0,0,.27-.8l-2.68-2.69,5-5a21.82,21.82,0,0,1-5-5l-5,5L30.05,87a.47.47,0,0,0-.81.27L28.17,98.38A.63.63,0,0,0,28.84,99.05ZM55,93.55a31.52,31.52,0,0,1-3.49-.26v7.11H47.89a.49.49,0,0,0-.4.8l7.11,8.59a.65.65,0,0,0,.94,0l7.11-8.59c.27-.27,0-.8-.41-.8H58.62V93.29C57.28,93.42,56.21,93.55,55,93.55Zm0-4.29a17,17,0,1,1,17-17A17.07,17.07,0,0,1,55,89.26ZM43.86,66.05h3.36a21,21,0,0,1,2.68-5.5A12.7,12.7,0,0,0,43.86,66.05Zm2.82,9.79a29.28,29.28,0,0,1-.27-3.62,29.28,29.28,0,0,1,.27-3.62H42.79a12.4,12.4,0,0,0,0,7.24Zm3.22,8a17.52,17.52,0,0,1-2.68-5.5H43.86A12.65,12.65,0,0,0,49.9,83.89Zm3.76-5.5H49.9a18.78,18.78,0,0,0,3.76,6Zm0-9.79H49.23a16.58,16.58,0,0,0,0,7.24h4.43Zm0-8.59a15.57,15.57,0,0,0-3.76,6h3.76Zm9.66,8.59a29.28,29.28,0,0,1,.27,3.62,29.28,29.28,0,0,1-.27,3.62h3.89a12.4,12.4,0,0,0,0-7.24Zm-3.22-8a17.63,17.63,0,0,1,2.68,5.5h3.36A12.7,12.7,0,0,0,60.1,60.55Zm-3.76,5.5H60.1a18.9,18.9,0,0,0-3.76-6Zm0,9.79h4.43a16.58,16.58,0,0,0,0-7.24H56.34Zm0,8.59a15.57,15.57,0,0,0,3.76-6H56.34Zm9.8-6H62.78a20.88,20.88,0,0,1-2.68,5.5A12.65,12.65,0,0,0,66.14,78.39Z"/><path class="cls-1" d="M60,27.57H50a15.42,15.42,0,0,0-13.12,6.85A10.87,10.87,0,0,1,41.26,43V55.14h.86a22.06,22.06,0,0,1,25.76,0h.86V43a10.87,10.87,0,0,1,4.4-8.59A15.42,15.42,0,0,0,60,27.57ZM55,0A12.53,12.53,0,1,0,67.53,12.54,12.54,12.54,0,0,0,55,0Z"/><path class="cls-1" d="M20.12,8.06A10.7,10.7,0,1,0,30.81,18.75,10.7,10.7,0,0,0,20.12,8.06ZM24.4,31.59H15.84C8.76,31.59,3,36.72,3,43V55.14H30.93V40.94a12.27,12.27,0,0,1,1.91-6.52A13.83,13.83,0,0,0,24.4,31.59Z"/><path class="cls-1" d="M37.24,43V55.14H30.93V40.94a12.27,12.27,0,0,1,1.91-6.52A10.9,10.9,0,0,1,37.24,43Z"/><path class="cls-1" d="M89.88,8.06a10.7,10.7,0,1,0,10.69,10.69A10.7,10.7,0,0,0,89.88,8.06Zm4.28,23.53H85.6a13.83,13.83,0,0,0-8.44,2.83,12.27,12.27,0,0,1,1.91,6.52v14.2H107V43C107,36.72,101.24,31.59,94.16,31.59Z"/><path class="cls-1" d="M79.07,40.94v14.2H72.76V43a10.9,10.9,0,0,1,4.4-8.59A12.27,12.27,0,0,1,79.07,40.94Z"/></svg>