<svg width="110" height="110" viewBox="0 0 110 110" fill="none" xmlns="http://www.w3.org/2000/svg">
<g clip-path="url(#clip0)">
<rect width="110" height="110" fill="white"/>
<path d="M21.7 60.6999C19.4 60.6999 17.3 59.2999 16.4 57.1999H0C0.9 63.8999 5.80001 69.3999 12.2 70.9999C10.1 79.2999 14.5 86.8999 21.2 90.2999C21.4 99.4999 28.8 106.6 38 106.6C44.2 106.6 49.7 103.1 52.7 97.8999V70.4999H40.9V77.7999C43 78.6999 44.2 80.6999 44.2 82.9999C44.2 86.1999 41.7 88.7999 38.4 88.7999C35.2 88.7999 32.6 86.2999 32.6 82.9999C32.6 80.6999 33.8 78.4999 35.9 77.5999V65.5999H52.9V45.4999H39.6V36.1999H34C33.1 38.2999 31.1 39.4999 28.8 39.4999C25.6 39.4999 23 36.9999 23 33.6999C23 30.4999 25.5 27.8999 28.8 27.8999C31.1 27.8999 33.1 29.0999 34 31.1999H44.5V40.7999H52.9V11.5999C49.9 6.29985 44.6 2.8999 38.2 2.8999C29.2 2.8999 21.6 9.99989 21.4 19.1999C14.5 22.3999 10.4 30.4999 12.4 38.4999C5.99999 40.2999 1.10001 45.5999 0.200012 52.2999H16.5C17.4 50.1999 19.5 48.7999 21.8 48.7999C25 48.7999 27.6 51.2999 27.6 54.5999C27.6 57.8999 24.9 60.6999 21.7 60.6999Z" fill="#0a4ca4"/>
<path d="M98.4004 38.6C100.5 30.8 96.3004 22.7 89.4004 19.3C89.2004 10.1 81.6004 3 72.6004 3C66.4004 3 60.9004 6.50001 57.9004 11.7V24.2H69.4004C70.3004 22.1 72.4004 20.9 74.7004 20.9C77.9004 20.9 80.5004 23.4 80.5004 26.7C80.5004 29.9 78.0004 32.5 74.7004 32.5C72.4004 32.5 70.3004 31.3 69.4004 29.2H57.9004V84H66.5004L66.4004 73.2H77.3004C78.2004 71.1 80.2004 69.9 82.5004 69.9C85.7004 69.9 88.3004 72.4 88.3004 75.7C88.3004 78.9 85.8004 81.5 82.5004 81.5C80.2004 81.5 78.2004 80.3 77.3004 78.2H71.4004V89H57.9004V98C60.9004 103.3 66.2004 106.7 72.6004 106.7C81.8004 106.7 89.2004 99.3 89.4004 90.4C96.3004 87.2 100.4 79.4 98.4004 71.1C99.1004 70.9 99.6004 70.6 100.2 70.4V61.4H80.7004V49.7C78.6004 48.8 77.4004 46.7 77.4004 44.4C77.4004 41.2 79.9004 38.6 83.2004 38.6C86.4004 38.6 89.0004 41.1 89.0004 44.4C89.0004 46.7 87.8004 48.8 85.7004 49.7V56.5H104.7V67.7C108.6 64.9 110.9 60.1 110.9 55C110.8 47.4 105.6 40.7 98.4004 38.6Z" fill="#0a4ca4"/>
<path d="M98.4004 38.6C100.5 30.8 96.3004 22.7 89.4004 19.3C89.2004 10.1 81.6004 3 72.6004 3C66.4004 3 60.9004 6.50001 57.9004 11.7V24.2H69.4004C70.3004 22.1 72.4004 20.9 74.7004 20.9C77.9004 20.9 80.5004 23.4 80.5004 26.7C80.5004 29.9 78.0004 32.5 74.7004 32.5C72.4004 32.5 70.3004 31.3 69.4004 29.2H57.9004V84H66.5004L66.4004 73.2H77.3004C78.2004 71.1 80.2004 69.9 82.5004 69.9C85.7004 69.9 88.3004 72.4 88.3004 75.7C88.3004 78.9 85.8004 81.5 82.5004 81.5C80.2004 81.5 78.2004 80.3 77.3004 78.2H71.4004V89H57.9004V98C60.9004 103.3 66.2004 106.7 72.6004 106.7C81.8004 106.7 89.2004 99.3 89.4004 90.4C96.3004 87.2 100.4 79.4 98.4004 71.1C99.1004 70.9 99.6004 70.6 100.2 70.4V61.4H80.7004V49.7C78.6004 48.8 77.4004 46.7 77.4004 44.4C77.4004 41.2 79.9004 38.6 83.2004 38.6C86.4004 38.6 89.0004 41.1 89.0004 44.4C89.0004 46.7 87.8004 48.8 85.7004 49.7V56.5H104.7V67.7C108.6 64.9 110.9 60.1 110.9 55C110.8 47.4 105.6 40.7 98.4004 38.6Z" fill="#0a4ca4"/>
</g>
<defs>
<clipPath id="clip0">
<rect width="110" height="110" fill="white"/>
</clipPath>
</defs>
</svg>
