<?xml version="1.0" encoding="UTF-8"?>
<svg width="110px" height="110px" viewBox="0 0 110 110" version="1.1" xmlns="http://www.w3.org/2000/svg" xmlns:xlink="http://www.w3.org/1999/xlink">
    <title>MLR_review@svg</title>
    <g id="MLR_review" stroke="none" stroke-width="1" fill="none" fill-rule="evenodd">
        <g id="stamp" fill="#0a4ca4" fill-rule="nonzero">
            <path d="M96.0351562,92.8125 L91.7382812,92.8125 L91.7382812,84.21875 L74.5507812,84.21875 L74.5507812,92.8125 L70.2539062,92.8125 C62.5414453,92.8125 56.2890625,99.064668 56.2890625,106.777344 C56.2890625,108.557109 57.7319531,110 59.5117188,110 L106.777344,110 C108.557109,110 110,108.557109 110,106.777344 C110,99.064668 103.747832,92.8125 96.0351562,92.8125 Z" id="Path"></path>
            <path d="M26.8554688,71.1132812 C21.5245508,71.1132812 17.1875,75.450332 17.1875,80.78125 C17.1875,86.112168 21.5245508,90.4492188 26.8554688,90.4492188 C32.1863867,90.4492188 36.5234375,86.112168 36.5234375,80.78125 C36.5234375,75.450332 32.1863867,71.1132812 26.8554688,71.1132812 Z M26.8554688,84.0039062 C25.0757031,84.0039062 23.6328125,82.5610156 23.6328125,80.78125 C23.6328125,79.0014844 25.0757031,77.5585938 26.8554688,77.5585938 C28.6352344,77.5585938 30.078125,79.0014844 30.078125,80.78125 C30.078125,82.5610156 28.6352344,84.0039062 26.8554688,84.0039062 Z" id="Shape"></path>
            <path d="M67.03125,0.324199219 L67.03125,12.890625 L79.5976758,12.890625 C78.3126953,6.58625 73.335625,1.60917969 67.03125,0.324199219 Z" id="Path"></path>
            <path d="M68.1054688,86.4801953 L68.1054688,78.7857812 C68.1054688,75.7152344 67.2566211,72.3471289 65.5105859,68.4883203 C64.3813672,65.9929102 63.8085938,63.3342187 63.8085938,60.5859375 C63.8085938,51.0219531 70.7886523,43.0589844 79.921875,41.5200586 L79.921875,19.3359375 L63.8085938,19.3359375 C62.0288281,19.3359375 60.5859375,17.8930469 60.5859375,16.1132812 L60.5859375,0 L3.22265625,0 C1.44289062,0 0,1.44289062 0,3.22265625 L0,106.777344 C0,108.557109 1.44289063,110 3.22265625,110 L50.3980469,110 C50.040332,108.991309 49.84375,107.906992 49.84375,106.777344 C49.84375,96.2487109 57.8574219,87.557207 68.1054688,86.4801953 Z M13.9648438,25.9960938 L65.9570312,25.9960938 C67.7367969,25.9960938 69.1796875,27.4389844 69.1796875,29.21875 C69.1796875,30.9985156 67.7367969,32.4414062 65.9570312,32.4414062 L13.9648438,32.4414062 C12.1850781,32.4414062 10.7421875,30.9985156 10.7421875,29.21875 C10.7421875,27.4389844 12.1850781,25.9960938 13.9648438,25.9960938 Z M13.9648438,38.8867188 L65.9570312,38.8867188 C67.7367969,38.8867188 69.1796875,40.3296094 69.1796875,42.109375 C69.1796875,43.8891406 67.7367969,45.3320312 65.9570312,45.3320312 L13.9648438,45.3320312 C12.1850781,45.3320312 10.7421875,43.8891406 10.7421875,42.109375 C10.7421875,40.3296094 12.1850781,38.8867188 13.9648438,38.8867188 Z M26.8554688,96.8945312 C17.9706055,96.8945312 10.7421875,89.6661133 10.7421875,80.78125 C10.7421875,71.8963867 17.9706055,64.6679688 26.8554688,64.6679688 C35.740332,64.6679688 42.96875,71.8963867 42.96875,80.78125 C42.96875,89.6661133 35.740332,96.8945312 26.8554688,96.8945312 Z M13.9648437,58.2226562 C12.1850781,58.2226562 10.7421875,56.7797656 10.7421875,55 C10.7421875,53.2202344 12.1850781,51.7773438 13.9648437,51.7773438 L57.3632812,51.7773438 C59.1430469,51.7773438 60.5859375,53.2202344 60.5859375,55 C60.5859375,56.7797656 59.1430469,58.2226562 57.3632812,58.2226562 L13.9648437,58.2226562 Z" id="Shape"></path>
            <path d="M70.2539062,60.5859375 C70.2539062,62.4114648 70.63375,64.1761914 71.3824805,65.8311328 C73.3358398,70.1475586 74.3666602,74.0658789 74.5260742,77.7734375 L91.7627734,77.7734375 C91.9221875,74.0658789 92.9530078,70.1475586 94.9063672,65.8311328 C95.6553125,64.1761914 96.0351562,62.4114648 96.0351562,60.5859375 C96.0351562,53.4780469 90.2524219,47.6953125 83.1445312,47.6953125 C76.0366406,47.6953125 70.2539062,53.4780469 70.2539062,60.5859375 Z" id="Path"></path>
        </g>
    </g>
</svg>