<?xml version="1.0" encoding="UTF-8"?>
<svg width="110px" height="110px" viewBox="0 0 110 110" version="1.1" xmlns="http://www.w3.org/2000/svg" xmlns:xlink="http://www.w3.org/1999/xlink">
    <title>MSLiasons_sceintific@svg</title>
    <g id="MSLiasons_sceintific" stroke="none" stroke-width="1" fill="none" fill-rule="evenodd">
        <g id="dna" transform="translate(0.000000, 0.000000)" fill="#0a4ca4" fill-rule="nonzero">
            <path d="M103.48436,29.770982 C103.463073,31.6856857 103.195037,33.5441321 102.711528,35.3165634 L74.4106212,7.35863103 C76.2642889,6.83168024 78.2150495,6.5382299 80.2292352,6.5158573 L80.1571216,1.22124774e-14 C64.4174534,0.174636618 51.6574682,13.095357 51.7128566,28.7946243 L51.738053,51.7378358 L28.8024438,51.7126394 C28.7679075,51.7124222 28.7355432,51.7124222 28.7010069,51.7124222 C13.0406202,51.7124222 0.173984989,64.4522069 1.83187161e-14,80.1569044 L6.5158573,80.229018 C6.53714385,78.311925 6.80322576,76.4519581 7.28325925,74.678658 L35.5839486,102.635939 C33.7311497,103.166148 31.782344,103.461987 29.7707648,103.484143 L29.8430956,110 C45.5086953,109.826232 58.2691149,96.9124625 58.2880122,81.205593 L58.2617298,58.261947 L81.2131953,58.287795 C96.9122453,58.2691149 109.826015,45.5089125 110,29.8433128 L103.48436,29.770982 Z M58.2543447,51.7452209 L58.2402261,38.8583852 L71.3003951,51.7599912 L58.2543447,51.7452209 Z M28.7090436,58.2287139 C28.7348916,58.2287139 28.7616084,58.2287139 28.7874563,58.2287139 L29.417799,58.2295828 L51.7706344,80.3113405 L51.7717205,81.205593 C51.7684623,83.9161531 51.2736586,86.51876 50.3737587,88.9293535 L20.7876222,59.7018303 C23.2514321,58.7511033 25.9226773,58.2287139 28.7090436,58.2287139 L28.7090436,58.2287139 Z M41.8799897,99.6957879 L10.1328336,68.3341791 C11.4410878,66.3330259 13.0625584,64.5555988 14.9246973,63.0696671 L47.0782528,94.8328966 C45.6155625,96.7163221 43.8587702,98.3601653 41.8799897,99.6957879 L41.8799897,99.6957879 Z M51.7602084,71.1411804 L38.7004737,58.2397916 L51.7454381,58.2545619 L51.7602084,71.1411804 Z M80.5832871,51.7708516 L58.2302344,29.6888767 L58.2290103,28.7796368 C58.2195911,26.0656013 58.7065753,23.4597362 59.6025654,21.0469706 L89.1902224,50.2760143 C86.7092529,51.237819 84.0186761,51.7680279 81.2131953,51.7715033 L80.5832871,51.7708516 Z M95.0511924,46.9060055 L62.8963337,15.1410382 C64.3592412,13.2606536 66.1190744,11.6196342 68.1028508,10.2870525 L99.8504412,41.6497473 C98.5391461,43.6456875 96.9152862,45.4207254 95.0511924,46.9060055 L95.0511924,46.9060055 Z" id="Shape"></path>
        </g>
    </g>
</svg>