<?xml version="1.0" encoding="UTF-8"?>
<svg width="110px" height="110px" viewBox="0 0 110 110" version="1.1" xmlns="http://www.w3.org/2000/svg" xmlns:xlink="http://www.w3.org/1999/xlink">
    <title>MSLiasons_inhouse@svg</title>
    <g id="MSLiasons_inhouse" stroke="none" stroke-width="1" fill="none" fill-rule="evenodd">
        <g id="rating" transform="translate(6.173964, 0.000000)" fill="#0a4ca4" fill-rule="nonzero">
            <circle id="Oval" cx="48.4129491" cy="15.6105469" r="15.6105469"></circle>
            <path d="M65.0384179,91.8145508 L74.9347655,80.3844336 C75.5945507,79.6225977 75.807246,78.5711523 75.4957225,77.6127344 C75.1844139,76.6545313 74.3942186,75.9287891 73.4128124,75.7004102 L58.6880663,72.2704297 L50.8754882,59.3263086 C50.3549218,58.4634961 49.4205663,57.9362695 48.4129491,57.9362695 C47.4053319,57.9362695 46.4709764,58.4637109 45.9501952,59.3263086 L38.1378319,72.2704297 L23.4130858,75.7004102 C22.4316796,75.9287891 21.6414843,76.6545313 21.3299608,77.6127344 C21.0184374,78.5711523 21.2313475,79.6225977 21.8909179,80.3844336 L31.7872655,91.8145508 L30.4992772,106.878535 C30.4133397,107.8825 30.8591405,108.85832 31.6744725,109.45043 C32.4898046,110.042969 33.5556444,110.165 34.4837694,109.773555 L48.4129491,103.893496 L62.3416991,109.773555 C62.7013475,109.925449 63.0818358,110 63.4599608,110 C64.0583007,110 64.6516991,109.813516 65.150996,109.450645 C65.966328,108.85832 66.4121288,107.882715 66.3261913,106.87875 L65.0384179,91.8145508 Z" id="Path"></path>
            <path d="M95.7769725,89.2495313 L87.6919725,82.599043 L86.8186327,72.166875 C86.7346288,71.1626953 86.1311327,70.2758203 85.2279296,69.8289453 C84.3251561,69.3825 83.2535155,69.4405078 82.4042382,69.9827734 L79.3551757,71.9296875 C80.3767577,72.9536328 81.1671679,74.2111133 81.6252147,75.6196289 C82.6287499,78.7082227 81.9320116,82.1500195 79.8074218,84.6035352 L71.6921288,93.9765234 L72.5399022,103.891992 L76.7302147,108.748965 C77.2817186,109.388125 78.0794335,109.74627 78.907871,109.74627 C79.0683593,109.74627 79.2301366,109.732734 79.3914843,109.705449 C80.3847069,109.535938 81.2172264,108.85918 81.5854686,107.921387 L85.4120507,98.1773633 L95.0636913,94.122832 C95.9926757,93.7324609 96.6498827,92.8846875 96.7957616,91.8873828 C96.9414257,90.890293 96.5549218,89.8895508 95.7769725,89.2495313 L95.7769725,89.2495313 Z" id="Path"></path>
            <path d="M15.2000389,75.6211328 C15.6583007,74.2117578 16.4489257,72.9536328 17.4709374,71.9294727 L14.4218749,69.9825586 C13.5723827,69.440293 12.5013866,69.3820703 11.5981835,69.8287305 C10.6949804,70.2758203 10.0914843,71.1626953 10.0074804,72.1666602 L9.13392566,82.5988281 L1.04914051,89.2493164 C0.270976445,89.8893359 -0.115527461,90.8900781 0.0303514448,91.887168 C0.176230351,92.8842578 0.833437382,93.7322461 1.76242176,94.1226172 L11.4140624,98.1771484 L15.2406444,107.921172 C15.6091014,108.858965 16.4414061,109.535723 17.4346288,109.705234 C17.5959764,109.73252 17.7575389,109.746055 17.9182421,109.746055 C18.7466796,109.746055 19.5446093,109.38791 20.0958983,108.74875 L24.2862108,103.891777 L25.1339843,93.9765234 L17.0186913,84.6033203 C14.8941014,82.1498047 14.1973632,78.7082227 15.2000389,75.6211328 L15.2000389,75.6211328 Z" id="Path"></path>
            <path d="M34.0257225,66.6103711 L40.4321483,55.9958008 C42.1090038,53.2172266 45.1670897,51.490957 48.4129491,51.490957 C51.6590233,51.490957 54.7173241,53.2174414 56.3939647,55.9966602 L62.7999608,66.6103711 L74.8748241,69.4231055 C75.3042968,69.5230078 75.721953,69.6557813 76.127578,69.8141211 L76.127578,43.3561133 C76.127578,36.7307617 71.4923241,31.1749023 65.306328,29.7730469 C61.9113671,33.8161914 57.0956444,36.6269922 51.6353905,37.430293 L51.6353905,43.3133594 C51.6353905,45.093125 50.1924999,46.5360156 48.4127343,46.5360156 C46.6329686,46.5360156 45.190078,45.093125 45.190078,43.3133594 L45.190078,37.4300781 C39.7298241,36.6267773 34.9141014,33.8159766 31.5191405,29.7730469 C25.3331444,31.1749023 20.6981054,36.7305469 20.6981054,43.3558984 L20.6981054,69.8141211 C21.1039452,69.6555664 21.5218163,69.522793 21.9515038,69.4226758 L34.0257225,66.6103711 Z" id="Path"></path>
        </g>
    </g>
</svg>