<?xml version="1.0" encoding="UTF-8"?>
<svg width="110px" height="110px" viewBox="0 0 110 110" version="1.1" xmlns="http://www.w3.org/2000/svg" xmlns:xlink="http://www.w3.org/1999/xlink">
    <title>MSLiasons_intellignec@svg</title>
    <g id="MSLiasons_intellignec" stroke="none" stroke-width="1" fill="none" fill-rule="evenodd">
        <g id="search" fill="#0a4ca4" fill-rule="nonzero">
            <polygon id="Path" points="37.2141266 86.4586639 23.5413361 72.7858734 0 96.328888 13.671112 110"></polygon>
            <path d="M68.1054688,25.78125 C58.9284515,25.78125 49.9906159,36.2045288 46.1578369,41.8752288 C49.1631317,46.2719727 58.1227874,58.0078125 68.1054688,58.0078125 C77.282486,58.0078125 86.2203216,47.5845337 90.0531006,41.9138337 C87.0478058,37.5170898 78.0881501,25.78125 68.1054688,25.78125 Z M68.1054688,51.5625 C62.7746582,51.5625 58.4375,47.2253418 58.4375,41.8945313 C58.4375,36.5637207 62.7746582,32.2265625 68.1054688,32.2265625 C73.4362793,32.2265625 77.7734375,36.5637207 77.7734375,41.8945313 C77.7734375,47.2253418 73.4362793,51.5625 68.1054688,51.5625 Z" id="Shape"></path>
            <path d="M68.1054688,38.671875 C66.3271331,38.671875 64.8828125,40.1161956 64.8828125,41.8945313 C64.8828125,43.6728669 66.3271331,45.1171875 68.1054688,45.1171875 C69.8838044,45.1171875 71.328125,43.6728669 71.328125,41.8945313 C71.328125,40.1161956 69.8838044,38.671875 68.1054688,38.671875 Z" id="Path"></path>
            <path d="M68.1054688,0 C45.0055695,0 26.2109375,18.794632 26.2109375,41.8945313 C26.2109375,49.7052765 28.366928,57.2457886 32.4640656,63.8614655 L28.0975342,68.2288361 L41.7711639,81.9024658 L46.1385345,77.5359344 C52.7542114,81.633072 60.2947235,83.7890625 68.1054688,83.7890625 C91.205368,83.7890625 110,64.9944305 110,41.8945313 C110,18.794632 91.205368,0 68.1054688,0 Z M96.652832,43.5469818 C96.1434173,44.3996429 83.9888002,64.453125 68.1054688,64.453125 C52.2221373,64.453125 40.0675202,44.3996429 39.5581055,43.5469818 L38.5694886,41.8945313 L39.5581055,40.2420807 C40.0675202,39.3894196 52.2221373,19.3359375 68.1054688,19.3359375 C83.9888002,19.3359375 96.1434173,39.3894196 96.652832,40.2420807 L97.6414489,41.8945313 L96.652832,43.5469818 Z" id="Shape"></path>
        </g>
    </g>
</svg>