<?xml version="1.0" encoding="UTF-8"?>
<svg width="110px" height="110px" viewBox="0 0 110 110" version="1.1" xmlns="http://www.w3.org/2000/svg" xmlns:xlink="http://www.w3.org/1999/xlink">
    <title>MSLiasons_engage@svg</title>
    <g id="MSLiasons_engage" stroke="none" stroke-width="1" fill="none" fill-rule="evenodd">
        <g id="group" transform="translate(0.000000, 10.000000)" fill="#0a4ca4" fill-rule="nonzero">
            <path d="M94.1210823,50.3766609 L85.6141125,50.3766609 C86.4812236,52.750689 86.954955,55.3127057 86.954955,57.9830039 L86.954955,90.1344339 C86.954955,91.2477563 86.7611655,92.3163912 86.4086063,93.3102604 L100.47252,93.3102604 C105.726105,93.3102604 110,89.0361505 110,83.7827808 L110,66.2555786 C110,57.5000342 102.876842,50.3766609 94.1210823,50.3766609 Z" id="Path"></path>
            <path d="M23.0452599,57.9832187 C23.0452599,55.3127057 23.5189912,52.7509038 24.3861023,50.3768757 L15.8791326,50.3768757 C7.12337329,50.3768757 0,57.500249 0,66.2560083 L0,83.7832105 C0,89.0365801 4.27389507,93.3106901 9.52747955,93.3106901 L23.5916086,93.3106901 C23.2390493,92.3163912 23.0452599,91.2479712 23.0452599,90.1346487 L23.0452599,57.9832187 Z" id="Path"></path>
            <path d="M64.7241694,42.1040861 L45.2760455,42.1040861 C36.5202862,42.1040861 29.3969129,49.2274594 29.3969129,57.9832187 L29.3969129,90.1346487 C29.3969129,91.8884217 30.8187516,93.3104752 32.5727394,93.3104752 L77.4274754,93.3104752 C79.1814632,93.3104752 80.603302,91.8886365 80.603302,90.1346487 L80.603302,57.9832187 C80.603302,49.2274594 73.4799287,42.1040861 64.7241694,42.1040861 Z" id="Path"></path>
            <path d="M55.0001074,0 C44.470165,0 35.9034686,8.56669642 35.9034686,19.0968537 C35.9034686,26.2393481 39.8456442,32.4773486 45.6674915,35.7524331 C48.4288837,37.3057565 51.6124446,38.1934926 55.0001074,38.1934926 C58.3877703,38.1934926 61.5713312,37.3057565 64.3327233,35.7524331 C70.1547855,32.4773486 74.0967463,26.2391333 74.0967463,19.0968537 C74.0967463,8.56691126 65.5300499,0 55.0001074,0 Z" id="Path"></path>
            <path d="M21.4667997,17.7996246 C13.5916867,17.7996246 7.18503356,24.2062777 7.18503356,32.0813908 C7.18503356,39.9565038 13.5916867,46.363157 21.4667997,46.363157 C23.4644208,46.363157 25.3666511,45.9493671 27.0946428,45.2055766 C30.0822658,43.9193045 32.545669,41.642386 34.0699884,38.7903297 C35.1399124,36.7886265 35.7485659,34.5050479 35.7485659,32.0813908 C35.7485659,24.2064926 29.3419128,17.7996246 21.4667997,17.7996246 Z" id="Path"></path>
            <path d="M88.5334151,17.7996246 C80.6583021,17.7996246 74.2516489,24.2062777 74.2516489,32.0813908 C74.2516489,34.5052627 74.8603025,36.7888414 75.9302264,38.7903297 C77.4545458,41.6426009 79.9179491,43.9195194 82.9055721,45.2055766 C84.6335637,45.9493671 86.535794,46.363157 88.5334151,46.363157 C96.4085281,46.363157 102.815181,39.9565038 102.815181,32.0813908 C102.815181,24.2062777 96.4085281,17.7996246 88.5334151,17.7996246 Z" id="Path"></path>
        </g>
        <rect id="Rectangle" fill="#FFFFFF" x="49" y="65" width="12" height="32"></rect>
        <rect id="Rectangle-Copy" fill="#FFFFFF" transform="translate(55.000000, 81.000000) rotate(90.000000) translate(-55.000000, -81.000000) " x="49" y="65" width="12" height="32"></rect>
    </g>
</svg>