<?xml version="1.0" encoding="UTF-8"?>
<svg width="110px" height="110px" viewBox="0 0 110 110" version="1.1" xmlns="http://www.w3.org/2000/svg" xmlns:xlink="http://www.w3.org/1999/xlink">
    <title>MSLiasons_deep@svg</title>
    <g id="MSLiasons_deep" stroke="none" stroke-width="1" fill="none" fill-rule="evenodd">
        <g id="idea" transform="translate(0.000000, 0.000077)" fill="#0a4ca4" fill-rule="nonzero">
            <path d="M106.758008,95.6204305 L105.260547,95.6204305 L105.260547,86.4814071 C105.260547,84.4040828 103.31793,82.8471102 101.266602,83.3298641 C96.0845703,84.5600594 92.6363281,85.1719344 88.2212891,85.1139266 C80.6553516,85.0150985 77.463418,83.5107625 68.440625,82.8125203 C62.6742188,82.3658602 57.9841797,85.032286 55,88.8193367 C52.0158203,85.032286 47.3257813,82.3658602 41.559375,82.8125203 C32.5464648,83.510118 29.3379883,85.0153133 21.7787109,85.1139266 C17.3636719,85.1719344 13.9154297,84.5600594 8.73339844,83.3298641 C6.68443359,82.8477547 4.73945313,84.401075 4.73945313,86.4814071 L4.73945313,95.6204305 L3.24199219,95.6204305 C1.45234375,95.6204305 0,97.0717 0,98.8600594 C0,100.650567 1.45234375,102.099688 3.24199219,102.099688 L37.6449219,102.099688 C39.0371094,106.668126 43.2931641,109.999923 48.3119141,109.999923 L61.6880859,109.999923 C66.7068359,109.999923 70.9628906,106.668126 72.3550781,102.099688 L106.758008,102.099688 C108.547656,102.099688 110,100.650567 110,98.8600594 C110,97.0717 108.547656,95.6204305 106.758008,95.6204305 Z" id="Path"></path>
            <g id="Group" transform="translate(7.398789, 0.000000)">
                <path d="M30.6307031,10.6422078 C21.8392969,19.4187899 21.0770313,33.0942391 28.400625,42.7417977 C31.3504297,46.6253133 33.4236719,50.9062899 34.588125,55.5091024 L44.7115625,55.5091024 L44.7115625,36.430118 C44.7115625,34.6497078 46.1591797,33.209825 47.9342188,33.209825 C49.713125,33.209825 51.156875,34.6525008 51.156875,36.430118 L51.156875,55.5091024 L61.2932031,55.5091024 C62.4641016,50.9148836 64.5502344,46.6083406 67.519375,42.6711141 C74.7104102,33.1415047 74.1185156,19.359493 65.1410547,10.5115828 C55.587168,1.0975594 40.214668,1.06984455 30.6307031,10.6422078 L30.6307031,10.6422078 Z" id="Path"></path>
                <path d="M13.9669922,27.9886922 C15.7467578,27.9886922 17.1896484,26.5468758 17.1896484,24.7683992 C17.1896484,22.9899227 15.7467578,21.5481063 13.9669922,21.5481063 L3.22265625,21.5481063 C1.44289063,21.5481063 7.63278329e-15,22.9899227 7.63278329e-15,24.7683992 C7.63278329e-15,26.5468758 1.44289063,27.9886922 3.22265625,27.9886922 L13.9669922,27.9886922 Z" id="Path"></path>
                <path d="M91.3900195,43.5418758 L82.1326172,38.0921492 C80.5990625,37.1895906 78.6235742,37.6996297 77.7201563,39.2321102 C76.8167383,40.7643758 77.3274219,42.7383602 78.8609766,43.6411336 L88.1183789,49.0908602 C89.6530078,49.9940633 91.6282813,49.4823055 92.5308398,47.9508992 C93.434043,46.4186336 92.9233594,44.4446492 91.3900195,43.5418758 L91.3900195,43.5418758 Z" id="Path"></path>
                <path d="M13.7360352,38.0921492 L4.47863281,43.5418758 C2.94507813,44.4446492 2.43439453,46.4186336 3.3378125,47.9508992 C4.24144531,49.4835946 6.21693359,49.9934188 7.75027344,49.0908602 L17.0076758,43.6411336 C18.5412305,42.7383602 19.0519141,40.7643758 18.1484961,39.2321102 C17.2448633,37.6996297 15.269375,37.1895906 13.7360352,38.0921492 Z" id="Path"></path>
                <path d="M82.1326172,11.4448641 L91.3900195,5.99513752 C92.9235742,5.09236408 93.4342578,3.11837971 92.5308398,1.58611408 C91.6274219,0.0536336155 89.6515039,-0.456405447 88.1183789,0.446153147 L78.8609766,5.89587971 C77.3274219,6.79865315 76.8167383,8.77263752 77.7201563,10.3049031 C78.6237891,11.8378133 80.5990625,12.3476375 82.1326172,11.4448641 Z" id="Path"></path>
                <path d="M17.0078906,5.89587971 L7.75048828,0.446153147 C6.21693359,-0.456405447 4.241875,0.0536336155 3.33802734,1.58611408 C2.43460938,3.11837971 2.94529297,5.09236408 4.47884766,5.99513752 L13.73625,11.4448641 C15.2706641,12.3480672 17.2455078,11.8365242 18.1487109,10.3049031 C19.0519141,8.77263752 18.5414453,6.79865315 17.0078906,5.89587971 Z" id="Path"></path>
                <path d="M92.6457813,21.5483211 L81.9014453,21.5483211 C80.1216797,21.5483211 78.6787891,22.9901375 78.6787891,24.7686141 C78.6787891,26.5470906 80.1216797,27.9889071 81.9014453,27.9889071 L92.6457813,27.9889071 C94.4255469,27.9889071 95.8684375,26.5470906 95.8684375,24.7686141 C95.8684375,22.9901375 94.4257617,21.5483211 92.6457813,21.5483211 Z" id="Path"></path>
                <path d="M35.2348047,61.9494735 L35.2348047,65.3800985 C35.2348047,70.3672664 39.4285547,74.4224422 44.5891016,74.4224422 L51.2277734,74.4224422 C56.3496484,74.4224422 60.5476953,70.3949813 60.5863672,65.4443367 L60.61,61.9492586 L35.2348047,61.9492586 L35.2348047,61.9494735 Z" id="Path"></path>
            </g>
        </g>
    </g>
</svg>