<?xml version="1.0" encoding="utf-8"?>
<!-- Generator: Adobe Illustrator 25.0.1, SVG Export Plug-In . SVG Version: 6.00 Build 0)  -->
<svg version="1.1" id="Layer_1" xmlns="http://www.w3.org/2000/svg" xmlns:xlink="http://www.w3.org/1999/xlink" x="0px" y="0px"
	 viewBox="0 0 110 110" style="enable-background:new 0 0 110 110;" xml:space="preserve">
<style type="text/css">
	.st0{fill:#0a4ca4;}
</style>
<g id="Page-1">
	<g id="Desktop-HD" transform="translate(-1018.000000, -3756.000000)">
		<g id="multiple-therapy-areas" transform="translate(1018.000000, 3756.000000)">
			<g id="noun_separate_126073" transform="translate(0.000000, 0.000000)">
				<path id="Path" class="st0" d="M84.1,15.1c7.6,0,13.5,6.1,13.5,13.5c0,7.6-6.1,13.5-13.5,13.5S70.7,36,70.7,28.6
					S76.6,15.1,84.1,15.1z"/>
				<path id="Path_1_" class="st0" d="M50.1,74.9c0.6,2.7,0.9,5.7,0.9,8.7c0,2.7-1,4.8-2.7,6.8c-3.8,3.6-13.1,5.4-22.4,5.4
					c-9.1,0-18.5-1.7-22.4-5.4c-2-1.9-2.8-4.1-2.8-6.8C0.6,61.5,15.2,48,25.7,48c8,0,18.4,7.7,22.8,20.9c-8.7,0-17.2,0-25.5,0
					c2.8-2.8,5.7-5.7,8.7-8.7c2.7-2.7-1.4-6.8-4.1-4.1c-4.4,4.4-9,9-13.4,13.4l0,0c-0.1,0-0.1,0.1-0.1,0.1s0,0-0.1,0.1
					c-0.3,0.3-0.4,0.6-0.6,0.9l0,0c-0.1,0.7-0.1,1.4,0,2l0,0c0.1,0.3,0.3,0.7,0.6,0.9c0,0,0,0,0.1,0.1l0.1,0.1
					c4.3,4.3,8.5,8.5,12.8,12.8c2.7,2.7,6.8-1.4,4.1-4.1c-2.7-2.7-5.4-5.3-8-8C31.8,74.9,41,74.9,50.1,74.9z"/>
				<path id="Path_2_" class="st0" d="M25.7,15.1c7.6,0,13.5,6.1,13.5,13.5c0,7.6-6.1,13.5-13.5,13.5S12.3,36,12.3,28.6
					S18.2,15.1,25.7,15.1z"/>
				<path id="Path_3_" class="st0" d="M109.4,83.6c0,2.7-0.9,4.8-2.7,6.8c-3.8,3.6-13.1,5.4-22.5,5.4c-9.1,0-18.4-1.7-22.4-5.4
					c-1.9-1.9-2.7-4.1-2.7-6.8c0-3.1,0.3-6,0.9-8.7c9.1,0,18.1,0,26.8,0c-2.8,2.8-5.6,5.6-8.4,8.4c-2.7,2.7,1.4,6.8,4.1,4.1
					c4.3-4.3,8.5-8.5,12.8-12.8c0.3-0.3,0.6-0.6,0.9-0.9s0.4-0.4,0.6-0.7v-0.1l0,0c0.1-0.4,0.3-0.7,0.3-1.1l0,0
					c0-0.7-0.3-1.4-0.9-2.1c-4.3-4.3-8.7-8.7-13-13c-2.7-2.7-6.8,1.4-4.1,4.1s5.6,5.6,8.3,8.3c-8.4,0-17.1,0-25.8,0
					C65.9,55.7,76.2,48,84.1,48C94.7,48,109.4,61.5,109.4,83.6z"/>
			</g>
		</g>
	</g>
</g>
</svg>
