<?xml version="1.0" encoding="UTF-8"?>
<svg width="110px" height="110px" viewBox="0 0 110 110" version="1.1" xmlns="http://www.w3.org/2000/svg" xmlns:xlink="http://www.w3.org/1999/xlink">
    <title>NXTHA_chatbot@svg</title>
    <g id="NXTHA_chatbot" stroke="none" stroke-width="1" fill="none" fill-rule="evenodd">
        <g id="online-support-(1)" transform="translate(0.000000, 9.000000)" fill="#0A4CA4" fill-rule="nonzero">
            <path d="M101.405411,0 L0,0 L0,17.6180267 L101.405411,17.6180267 L101.405411,0 Z M7.7444458,12.1705629 C5.93757635,12.1705629 4.5998382,10.6943512 4.52178955,8.9479066 C4.4437409,7.20733643 6.05842596,5.72525035 7.7444458,5.72525035 C9.55131525,5.72525035 10.8890534,7.20230113 10.9671021,8.9479066 C11.0451507,10.6884766 9.43046564,12.1705629 7.7444458,12.1705629 Z M18.4874725,12.1705629 C16.680603,12.1705629 15.3428649,10.6943512 15.2648162,8.9479066 C15.1867676,7.20733643 16.8014526,5.72525035 18.4874725,5.72525035 C20.2943421,5.72525035 21.6320801,7.20230113 21.7101287,8.9479066 C21.7881774,10.6884766 20.1726531,12.1705629 18.4874725,12.1705629 Z M29.2304994,12.1705629 C27.4236297,12.1705629 26.0858918,10.6943512 26.0078431,8.9479066 C25.9297943,7.20733643 27.5444793,5.72525035 29.2304994,5.72525035 C31.0365296,5.72525035 32.3742676,7.20230113 32.4531556,8.9479066 C32.5303649,10.6884766 30.91568,12.1705629 29.2304994,12.1705629 Z" id="Shape"></path>
            <polygon id="Path" points="101.405411 30.9601594 101.405411 24.0633392 0 24.0633392 0 80.3792571 38.5762025 80.3792571 38.5762025 30.9601594"></polygon>
            <polygon id="Shape" points="44.9031829 37.1906281 44.9031829 89.0544127 54.6894838 89.0544127 54.6894838 101.364288 71.4086914 89.0544127 110 89.0544127 110 37.1906281"></polygon>
        </g>
    </g>
</svg>