<svg id="Layer_1" data-name="Layer 1" xmlns="http://www.w3.org/2000/svg" viewBox="0 0 110 110"><defs><style>.cls-1{fill:#0a4ca4;}</style></defs><circle class="cls-1" cx="100.83" cy="69.67" r="5.5"/><path class="cls-1" d="M102.67,75.17H99a7.33,7.33,0,0,0-7.33,7.33v9.17l3.66,1.83V110h11V93.5L110,91.67V82.5A7.33,7.33,0,0,0,102.67,75.17Z"/><circle class="cls-1" cx="78.83" cy="69.67" r="5.5"/><path class="cls-1" d="M69.67,91.67l3.66,1.83V110h11V93.5L88,91.67V82.5a7.33,7.33,0,0,0-7.33-7.33H77a7.33,7.33,0,0,0-7.33,7.33Z"/><circle class="cls-1" cx="31.17" cy="69.67" r="5.5"/><path class="cls-1" d="M40.33,82.5A7.33,7.33,0,0,0,33,75.17H29.33A7.33,7.33,0,0,0,22,82.5v9.17l3.67,1.83V110h11V93.5l3.66-1.83Z"/><circle class="cls-1" cx="53.17" cy="69.67" r="5.5"/><path class="cls-1" d="M62.33,82.5A7.33,7.33,0,0,0,55,75.17H51.33A7.33,7.33,0,0,0,44,82.5v9.17l3.67,1.83V110h11V93.5l3.66-1.83Z"/><circle class="cls-1" cx="9.17" cy="69.67" r="5.5"/><path class="cls-1" d="M3.67,110h11V93.5l3.66-1.83V82.5A7.33,7.33,0,0,0,11,75.17H7.33A7.33,7.33,0,0,0,0,82.5v9.17L3.67,93.5Z"/><polygon class="cls-1" points="36.67 34.83 36.67 40.33 12.83 40.33 12.83 47.67 36.67 47.67 36.67 53.17 47.67 44 36.67 34.83"/><polygon class="cls-1" points="89.83 11 86.43 18.24 78.83 19.4 84.33 25.04 83.03 33 89.83 29.24 96.63 33 95.33 25.04 100.83 19.4 93.23 18.24 89.83 11"/><rect class="cls-1" x="88" width="3.67" height="5.5"/><rect class="cls-1" x="96.14" y="5.61" width="5.5" height="3.67" transform="translate(23.7 72.11) rotate(-45)"/><rect class="cls-1" x="78.94" y="4.69" width="3.67" height="5.5" transform="translate(18.4 59.3) rotate(-45)"/><rect class="cls-1" x="88" y="36.67" width="3.67" height="3.67"/><rect class="cls-1" x="88" y="44" width="3.67" height="3.67"/><rect class="cls-1" x="88" y="51.33" width="3.67" height="3.67"/></svg>