<svg id="Layer_1" data-name="Layer 1" xmlns="http://www.w3.org/2000/svg" viewBox="0 0 110 110"><defs><style>.cls-1{fill:#0a4ca4;}</style></defs><title>NEXT_HCP Engagement_Enhancemulti-channel</title><circle class="cls-1" cx="20.68" cy="56.6" r="13.55"/><path class="cls-1" d="M25.78,73.74H15.7A14.31,14.31,0,0,0,1.45,86.49L-.06,98.18a2.94,2.94,0,0,0,2.32,3.25,86.66,86.66,0,0,0,18.42,1.85c2.66,0,5.21-.11,7.65-.35L29.6,92.51a20.38,20.38,0,0,1,7.3-13.32A14.06,14.06,0,0,0,25.78,73.74Z"/><circle class="cls-1" cx="89.26" cy="56.6" r="13.55"/><path class="cls-1" d="M108.6,86.49A14.4,14.4,0,0,0,94.35,73.74H84.27A14.28,14.28,0,0,0,73,79.19a19.93,19.93,0,0,1,7.3,13.32l1.27,10.42c2.43.24,5.1.35,7.65.35a93.48,93.48,0,0,0,18.41-1.85A3,3,0,0,0,110,98.18Z"/><path class="cls-1" d="M60,80.58H49.87A14.29,14.29,0,0,0,35.62,93.2l-1.39,11.7a2.87,2.87,0,0,0,2.32,3.25A86.66,86.66,0,0,0,55,110a94.42,94.42,0,0,0,18.42-1.85,3,3,0,0,0,2.31-3.25L74.31,93.2A14.48,14.48,0,0,0,60,80.58Z"/><circle class="cls-1" cx="54.97" cy="63.43" r="13.55"/><polygon class="cls-1" points="55.14 0 61.55 12.99 75.89 15.07 65.52 25.19 67.97 39.47 55.14 32.73 42.32 39.47 44.77 25.19 34.39 15.07 48.73 12.99 55.14 0"/></svg>