<svg id="Layer_1" data-name="Layer 1" xmlns="http://www.w3.org/2000/svg" viewBox="0 0 110 110"><defs><style>.cls-1{fill:#0a4ca4;}.cls-2{fill:#fff;}</style></defs><title>NEXT_HCP_Engagement_Impactfulcontent</title><polygon class="cls-1" points="82.33 0.99 82.33 18.22 97.1 18.22 89.31 8.68 82.33 0.99"/><polygon class="cls-1" points="69.5 110 69.5 102.31 26.54 102.31 26.03 9.4 14.27 9.49 14.79 110 69.5 110"/><polygon class="cls-1" points="77.21 0.17 28.29 0.17 28.29 100.56 97.82 100.56 97.82 23.34 77.21 23.34 77.21 0.17"/><rect class="cls-1" x="51.73" y="92.56" width="20.03" height="4.98"/><polygon class="cls-2" points="63.06 32.21 69.66 45.58 84.41 47.72 73.73 58.13 76.25 72.83 63.06 65.89 49.86 72.83 52.38 58.13 41.7 47.72 56.46 45.58 63.06 32.21"/></svg>