<?xml version="1.0" encoding="UTF-8"?>
<svg width="110px" height="110px" viewBox="0 0 110 110" version="1.1" xmlns="http://www.w3.org/2000/svg" xmlns:xlink="http://www.w3.org/1999/xlink">
    <title>NEXT MLR Review Automation_3@svg</title>
    <g id="NEXT-MLR-Review-Automation_3" stroke="none" stroke-width="1" fill="none" fill-rule="evenodd">
        <g id="Group" transform="translate(4.000000, -0.000000)" fill="#0A4CA4" fill-rule="nonzero">
            <g transform="translate(23.800000, -0.000000)">
                <path d="M27.3,57.3 C42.4,57.3 54.6,41.6 54.6,26.8 C54.6,12 42.4,-5.68434189e-14 27.3,-5.68434189e-14 C12.2,-5.68434189e-14 0,12 0,26.8 C0,41.6 12.3,57.3 27.3,57.3 Z" id="Path"></path>
                <circle id="Oval" cx="56.4" cy="78.4" r="3.7"></circle>
            </g>
            <path d="M102.2,92.8 C102.2,76 90.4,61.9 74.4,58.1 C78.6,60.8 81.6,65.3 82,70.5 C85.6,71.3 88.3,74.5 88.3,78.3 C88.3,82.7 84.7,86.3 80.2,86.3 C75.7,86.3 72.1,82.7 72.1,78.3 C72.1,74.6 74.7,71.4 78.2,70.6 C77.7,65.8 74.4,61.8 70,60 L51.6,76.9 L33,59.8 C28,61.5 24.3,66.1 24.1,71.5 C24.8,71.9 25.4,72.6 25.8,73.3 C28.5,74.5 30.8,77.1 32.6,80.9 C32.9,81.5 32.9,82.2 32.7,82.9 C33.8,85.6 34.4,88.6 34.4,91.1 C34.4,94.6 34.4,97.9 30.5,98.8 C30.1,99.1 29.5,99.3 29,99.3 L26.4,99.3 C25.1,99.3 24,98.3 24,97 L24,96.9 C24,95.7 25.1,94.7 26.4,94.7 L29,94.7 C29.3,94.7 29.5,94.7 29.8,94.8 C30,94.8 30,94.7 30,94.7 C30.3,94.2 30.3,92.1 30.3,91.1 C30.3,89.1 29.8,86.6 28.9,84.3 C28.4,84 28,83.6 27.8,83.2 C26.2,79.9 24.1,77.8 22.3,77.8 C20.5,77.8 18.3,80.1 16.7,83.5 C16.4,84 16,84.5 15.4,84.8 C14.6,87 14.1,89.2 14.1,91.2 C14.1,92 14.1,94.3 14.4,94.8 C14.4,94.8 14.5,94.8 14.7,94.9 C15,94.8 15.3,94.7 15.5,94.7 L18.1,94.7 C19.3,94.7 20.3,95.6 20.5,96.8 L20.5,96.9 C20.5,98.3 19.4,99.3 18.1,99.3 L15.5,99.3 C15,99.3 14.5,99.1 14.1,98.8 C12.6,98.5 11.6,97.9 10.9,96.8 C10.1,95.5 9.9,93.9 9.9,91 C9.9,88.5 10.5,85.6 11.5,82.9 C11.3,82.3 11.4,81.7 11.7,81.2 C12.8,78.8 14.2,76.8 15.8,75.3 C16.7,74.5 17.6,73.8 18.5,73.4 C18.9,72.6 19.5,71.9 20.3,71.5 C20.4,65.8 23.5,60.8 28.1,58 C12,61.7 -5.68434189e-14,75.8 -5.68434189e-14,92.8 L-5.68434189e-14,110.5 L102,110.5 L102,92.8 L102.2,92.8 Z M73.4,97.4 L69,97.4 L69,101.8 L69,101.8 L63.3,101.8 L63.3,101.8 L63.3,97.4 L58.9,97.4 L58.9,91.7 L63.3,91.7 L63.3,87.3 L63.3,87.3 L69,87.3 L69,91.7 L73.4,91.7 C73.4,91.7 73.4,91.7 73.4,91.7 L73.4,97.4 L73.4,97.4 Z" id="Shape"></path>
        </g>
    </g>
</svg>