<svg xmlns="http://www.w3.org/2000/svg" viewBox="0 0 110 110"><defs><style>.cls-1{fill:#0a4ca4;}</style></defs><g id="Layer_3" data-name="Layer 3"><g id="Deliver_omnichannel" data-name="Deliver omnichannel"><path class="cls-1" d="M60.1,66.8c-.45-.78-1-1.45-1.45-2.12a24.85,24.85,0,0,0-2.89-3.33,28.49,28.49,0,0,0-3.45-3,31.75,31.75,0,0,0-19.59-6.57,32.21,32.21,0,0,0-19.59,6.57A36.41,36.41,0,0,0,6.9,64.46c-.56.78-1.11,1.45-1.67,2.34A32.82,32.82,0,0,0,0,84.38v21.15H65.33V84.38A34.53,34.53,0,0,0,60.1,66.8Z"/><path class="cls-1" d="M49.86,29.07A17.25,17.25,0,1,1,32.61,11.82,17.27,17.27,0,0,1,49.86,29.07Z"/><path class="cls-1" d="M38.73,12.82V45.1A17.19,17.19,0,0,0,49.86,29,17.45,17.45,0,0,0,38.73,12.82Z"/><path class="cls-1" d="M82.33,4.47V27.4h4.21V30l-.05,2.15,1.68-1.43,3.16-3.31H110V4.47ZM93.58,22.71l-2.35-1.87-2.34,1.87.91-3-2.3-1.86h2.82l1-2.92,1,2.92h2.82l-2.3,1.86Zm.24-8,.91-3-2.3-1.87h2.82l1-2.92,1,2.92H100L97.7,11.65l.91,3L96.26,12.8Zm9.67,8-2.35-1.87L98.8,22.71l.91-3-2.3-1.86h2.82l1-2.92,1,2.92H105l-2.3,1.86Z"/><path class="cls-1" d="M68.44,37.6l2.16-1.34,5.55-11.83a1.87,1.87,0,0,1,2.25-1.38,1.89,1.89,0,0,1,1.44,1.72l-1.3,9.67H90.08a2.42,2.42,0,0,1,2.44,2.3,2.39,2.39,0,0,1-2.29,2.44h-.67a2.38,2.38,0,0,1-1.25,4.45h-.57a2.39,2.39,0,0,1-1.25,4.46h-.62a2.41,2.41,0,0,1,1.2,2.29,2.45,2.45,0,0,1-2.44,2.16h-1.2l-15,.14Z"/><polyline class="cls-1" points="66.05 36.55 66.05 53.45 57.14 53.45 57.14 36.55 66.62 36.55"/></g></g></svg>