<svg id="Layer_1" data-name="Layer 1" xmlns="http://www.w3.org/2000/svg" viewBox="0 0 110 110"><defs><style>.cls-1{fill:#0a4ca4;}</style></defs><path class="cls-1" d="M39,2.59c-23,0-39,6.9-39,13.09s16,13.1,39,13.1,39-6.9,39-13.1S62,2.59,39,2.59Z"/><path class="cls-1" d="M40.31,75.47H39A65.39,65.39,0,0,1,0,62.39V46.84c7.34,6.13,23.13,9.42,38.35,9.5a24.31,24.31,0,0,0-1.08,7.19A25.16,25.16,0,0,0,40.31,75.47Z"/><path class="cls-1" d="M78.06,23.48v9.91c-1.08-.08-2.19-.12-3.29-.12-15.7,0-29.14,7.79-34.72,18.84-.34,0-.68,0-1,0A65.39,65.39,0,0,1,0,39V23.48C7.45,29.71,23.59,33,39,33S70.61,29.71,78.06,23.48Z"/><path class="cls-1" d="M66.06,93a63.1,63.1,0,0,1-27,5.88A64,64,0,0,1,.45,85.33L0,70.18c7.45,6.23,23.59,9.52,39,9.52,1.33,0,2.67,0,4-.08C48.15,86.23,56.38,91.11,66.06,93Z"/><rect class="cls-1" x="53.36" y="65.78" width="5.27" height="7.05"/><rect class="cls-1" x="62.16" y="58.74" width="5.28" height="14.08"/><rect class="cls-1" x="70.96" y="51.69" width="5.27" height="21.13"/><path class="cls-1" d="M89.32,63.31A23.31,23.31,0,1,0,80.11,82l3.62,3.61-.66.67a1.23,1.23,0,0,0,0,1.75h0l19.09,19a1.25,1.25,0,0,0,1.76,0h0l5.71-5.71a1.23,1.23,0,0,0,0-1.75h0l-19-19a1.25,1.25,0,0,0-1.76,0h0l-.67.66-3.61-3.62A23.34,23.34,0,0,0,89.32,63.31ZM53.69,75.52a17.26,17.26,0,1,1,24.41,0A17.26,17.26,0,0,1,53.69,75.52Z"/></svg>