<?xml version="1.0" encoding="UTF-8"?>
<svg width="110px" height="110px" viewBox="0 0 110 110" version="1.1" xmlns="http://www.w3.org/2000/svg" xmlns:xlink="http://www.w3.org/1999/xlink">
    <title>next_regulatory_intelligence_aiml_technologies@svg</title>
    <g id="next_regulatory_intelligence_aiml_technologies" stroke="none" stroke-width="1" fill="none" fill-rule="evenodd">
        <path d="M53.9799286,90.8407063 C54.0349894,90.8721255 54.096605,90.8760529 54.1529768,90.8983081 C54.2893178,91.034458 54.4505673,91.1470434 54.6445911,91.211191 C54.7783102,91.2543924 54.9159622,91.2766476 55.0523032,91.2766476 C55.3341621,91.2766476 55.5898015,91.1575165 55.8165996,90.9886383 C68.9419197,84.313605 86.9232158,85.8853496 98.5765038,91.2665963 L99,91.4651628 L65.5007459,91.4651628 C63.5801727,91.4651628 61.9244157,92.3108628 60.8022241,93.866113 C59.9167284,95.0898906 58.4999976,95.9143238 56.9004699,95.9937077 L56.6464446,96 L53.177614,96 C51.4746621,96 49.9539352,95.1543 49.0218345,93.866113 C47.9530806,92.3849223 46.4003671,91.5473146 44.5958498,91.4709012 L44.3233127,91.4651628 L12,91.4651628 C23.6492925,85.5779911 40.4598798,83.1547856 53.9799286,90.8407063 Z M110,24 L110,91 L104.460317,91 C104.424932,90.9699616 104.401342,90.9294751 104.360715,90.9033547 C93.6889285,84.0415392 75.1617215,80.883589 60,86.0410518 C65.1045817,81.3041266 71.5288845,78.8200815 78.8679493,78.8200815 C86.0405745,78.8200815 94.1056825,81.181361 102.19438,85.6531647 C102.60065,85.8777997 103.096037,85.8712696 103.494443,85.6361864 C103.854189,85.425787 104.089733,85.0567065 104.133245,84.6479557 L104.140543,84.5103994 L104.140543,24 L110,24 Z M6.03416797,24 L6.03416797,84.1394905 C6.03416797,84.6005146 6.27934272,85.0288883 6.67579551,85.2639715 C7.0722483,85.4990546 7.56520605,85.5042787 7.96948357,85.2822557 C16.0198226,80.8117581 24.0466875,78.4491725 31.1828378,78.4491725 C38.5054773,78.4491725 44.913928,80.9475839 50,85.7119354 C35.1685393,79.9835376 17.9821914,83.9297079 7.10164887,90.7658404 L6.73317684,91 L0,91 L0,24 L6.03416797,24 Z M31.2596517,14 C38.7744557,14 46.2213353,15.8594579 54,19.675824 L53.9999467,19.9350216 L53.9999467,19.9350216 L53.9992104,21.834135 C53.9991108,22.0218625 53.9990029,22.2114996 53.9988869,22.403003 L53.9980951,23.5740754 L53.9976705,24.196494 C51.6754748,24.8208911 50,26.8644531 50,29.3301887 C50,31.7741615 51.6579175,33.783883 53.9849091,34.4427061 C53.981875,36.9153279 53.9777308,39.5007762 53.973219,42.1521407 L53.8459459,42.1827957 C53.8,42.1827957 53.7081081,42.1827957 53.6621622,42.2284946 C51.7783784,42.6397849 50.1702703,43.6451613 48.9756757,45.061828 C48.3783784,45.7930108 47.872973,46.6155914 47.5513514,47.5295699 C47.1837838,48.4435484 47,49.4489247 47,50.5 C47,51.5053763 47.1837838,52.5107527 47.5054054,53.3790323 C47.827027,54.2930108 48.3324324,55.1155914 48.9297297,55.8924731 C50.2162162,57.4005376 52.0081081,58.4973118 54.0297297,58.8629032 L53.943,58.845 L53.9432349,59.0088695 C53.9387169,61.5654712 53.9343007,64.0996174 53.9301513,66.5750932 C51.6317396,67.2480032 50,69.24521 50,71.6698113 C50,74.1059397 51.6354799,76.129972 53.9143009,76.7804016 C53.9098122,80.1470185 53.9063717,83.2616187 53.9046444,86 C48.0918723,79.6143688 40.4412192,76.265501 31.5770682,76.2641841 C24.7680448,76.2641841 17.2453084,78.2736628 9.66865168,82.0970516 L9,82.4391118 L9,19.6613381 C16.3671988,15.9029155 23.8519594,14 31.2596517,14 Z M56.7258145,22.4376528 L56.7250317,20.2185956 L56.724998,19.6940931 C58.9443013,18.6052981 60.4085631,17.6942386 62.5847605,16.9214179 C67.0968945,15.1989015 72.4825259,14.2316689 78.7416546,14.0197199 C85.9348179,13.7761423 93.2050724,15.8023154 100.368239,19.3615968 L101,19.679611 L101,82.440022 C93.1991292,78.3955499 85.4309144,76.2666726 78.4229318,76.2666726 C69.5574746,76.2666726 62.6331257,79.6173175 56.8216598,86 C56.8199437,83.2801589 56.8163959,80.1892234 56.8116642,76.8489346 C59.232405,76.2777737 61,74.1622248 61,71.6698113 C61,69.1226415 59.199115,67 56.7168142,66.4811321 L56.795082,66.4998426 C56.7907722,64.0099654 56.7862131,61.4611542 56.7816007,58.890199 L56.8515766,58.8783478 L56.8515766,58.8783478 L57.1081081,58.8172043 C57.1540541,58.8172043 57.2459459,58.7715054 57.2918919,58.7715054 C59.1756757,58.3602151 60.7837838,57.3548387 61.9783784,55.938172 C62.6216216,55.2069892 63.0810811,54.3844086 63.4486486,53.4247312 C63.7702703,52.5107527 64,51.5053763 64,50.5 C64,49.4946237 63.8162162,48.4892473 63.4486486,47.5752688 C63.127027,46.6612903 62.6216216,45.8387097 62.0243243,45.1075269 C60.7378378,43.5994624 58.9459459,42.5026882 56.9243243,42.1370968 C56.8681972,42.1259317 56.8113844,42.1154486 56.7540535,42.1056474 C56.7478205,39.4973016 56.7435762,36.9510267 56.7398266,34.5115261 L56.9474994,34.4612775 C59.3099117,33.8197966 61,31.7520637 61,29.3301887 C61,26.8087258 59.1909618,24.6729636 56.7270725,24.1321471 C56.7265034,23.5517748 56.7261184,22.9870488 56.7258145,22.4376528 Z M44.8482913,55 L41.0246184,57.3908812 L40.8704017,57.2138428 C39.2457684,55.4278231 36.6740388,54.9904619 34.6211181,56.2717453 C32.1334273,57.8487095 31.2581287,61.3587265 32.6862475,64.1056964 C34.1143663,66.8526663 37.2930823,67.8191927 39.780773,66.2422285 C41.9459854,64.8687436 42.8673523,62.1217737 42.1763271,59.6291529 L42.1763271,59.6291529 L46,57.2382717 L44.8482913,55 Z M65.1517087,55 L64,57.2382717 L67.8236729,59.6291529 C67.1326477,62.1217737 68.0540146,64.8687436 70.219227,66.2422285 C72.7069177,67.8191927 75.8856337,66.8526663 77.3137525,64.1056964 C78.7418713,61.3587265 77.8665727,57.8487095 75.3788819,56.2717453 C73.2597379,54.9491302 70.5877737,55.4578283 68.9753816,57.3908812 L68.9753816,57.3908812 L65.1517087,55 Z M77.3137525,36.8943036 C75.8856337,34.1473337 72.7069177,33.1808073 70.219227,34.7577715 C68.0540146,36.1312564 67.1326477,38.8782263 67.8236729,41.3708471 L67.8236729,41.3708471 L64,43.7617283 L65.1517087,46 L68.9753816,43.6091188 L69.1295983,43.7861572 C70.7542316,45.5721769 73.3259612,46.0095381 75.3788819,44.7282547 C77.8665727,43.1512905 78.7418713,39.6412735 77.3137525,36.8943036 Z M39.780773,34.7577715 C37.2930823,33.1808073 34.1143663,34.1473337 32.6862475,36.8943036 C31.2581287,39.6412735 32.1334273,43.1512905 34.6211181,44.7282547 C36.7402621,46.1017396 39.4122263,45.5930415 41.0246184,43.6091188 L41.0246184,43.6091188 L44.8482913,46 L46,43.7617283 L42.1763271,41.3708471 C42.8673523,38.8782263 41.9459854,36.1312564 39.780773,34.7577715 Z" id="Combined-Shape" fill="#0a4ca4" fill-rule="nonzero"></path>
    </g>
</svg>