<svg id="Layer_1" data-name="Layer 1" xmlns="http://www.w3.org/2000/svg" viewBox="0 0 110 110"><defs><style>.cls-1{fill:#0a4ca4;}</style></defs><title>NEXT_HCP_Engagement_Disseminateeducative</title><polygon class="cls-1" points="54.4 110 64.29 95.19 59.06 95.19 59.06 73.19 49.74 73.19 49.74 95.19 44.51 95.19 54.4 110"/><polygon class="cls-1" points="54.68 0 44.79 14.81 50.02 14.81 50.02 36.81 59.34 36.81 59.34 14.81 64.57 14.81 54.68 0"/><polygon class="cls-1" points="93.68 94.98 90.18 77.53 86.48 81.23 70.88 65.67 64.29 72.24 79.89 87.8 76.19 91.49 93.68 94.98"/><polygon class="cls-1" points="15.4 94.98 32.89 91.49 29.19 87.8 44.79 72.24 38.2 65.67 22.6 81.23 18.9 77.54 15.4 94.98"/><polygon class="cls-1" points="0 55.46 14.85 65.33 14.85 60.11 36.9 60.11 36.9 50.81 14.85 50.81 14.85 45.59 0 55.46"/><polygon class="cls-1" points="110.14 55.46 95.3 45.59 95.3 50.81 73.24 50.81 73.24 60.11 95.3 60.11 95.3 65.33 110.14 55.46"/><polygon class="cls-1" points="93.68 16.81 76.19 20.3 79.89 23.99 64.29 39.55 70.88 46.12 86.48 30.57 90.18 34.25 93.68 16.81"/><polygon class="cls-1" points="15.4 16.8 18.9 34.25 22.6 30.56 38.19 46.12 44.79 39.55 29.19 23.99 32.89 20.3 15.4 16.8"/></svg>