<svg id="Layer_1" data-name="Layer 1" xmlns="http://www.w3.org/2000/svg" viewBox="0 0 110 110"><defs><style>.cls-1{fill:#0a4ca4;}</style></defs><path class="cls-1" d="M94.69,18.84l-.08-.13,0-.05-.1-.13,0-.06a.69.69,0,0,0-.11-.13s0,0,0-.05L76.88.93l0,0L76.7.77l-.06,0-.13-.1-.05,0L76.37.54V14.45a4.39,4.39,0,0,0,4.38,4.39ZM75.27.21H15V109.79H95V19.93H79.66a4.39,4.39,0,0,1-4.39-4.38ZM39.17,46.47H50.1l2,4.81a1.63,1.63,0,0,0,1.48,1h.17A1.65,1.65,0,0,0,55.24,51l2.18-10.32L59.67,46a.82.82,0,0,0,.75.5H71.68a33.51,33.51,0,0,1-7.42,8.88,58.7,58.7,0,0,1-6.76,5.1c-.74.48-1.44.91-2.07,1.28-.63-.37-1.32-.8-2.07-1.28a57.67,57.67,0,0,1-6.76-5.11A33.53,33.53,0,0,1,39.17,46.47Zm-.8-2.87a14.32,14.32,0,0,1-1.19-7.15c.46-4.46,2.86-7,6.57-7.6a12.88,12.88,0,0,1,10.31,3.07l1.37,1.24,1.37-1.25a12.94,12.94,0,0,1,10.31-3.06c3.71.63,6.12,3.14,6.56,7.59a14.35,14.35,0,0,1-1.19,7.16H61l-2.05-4.81a1.62,1.62,0,0,0-3.09.32l-2.18,10.3-2.25-5.3a.81.81,0,0,0-.75-.51ZM34.14,84.3a2.59,2.59,0,0,1-2.7-2.69,2.68,2.68,0,0,1,2.7-2.81h16.4a2.69,2.69,0,0,1,2.7,2.81,2.6,2.6,0,0,1-2.7,2.69Zm0,11a2.59,2.59,0,0,1-2.7-2.69,2.68,2.68,0,0,1,2.7-2.81h16.4a2.69,2.69,0,0,1,2.7,2.81,2.6,2.6,0,0,1-2.7,2.69Zm0-22a2.59,2.59,0,0,1-2.7-2.69,2.68,2.68,0,0,1,2.7-2.81H75.87a2.68,2.68,0,0,1,2.69,2.81,2.59,2.59,0,0,1-2.69,2.69Zm25.32,11a2.59,2.59,0,0,1-2.69-2.69,2.68,2.68,0,0,1,2.69-2.81H75.87a2.68,2.68,0,0,1,2.69,2.81,2.59,2.59,0,0,1-2.69,2.69Zm0,11a2.59,2.59,0,0,1-2.69-2.69,2.68,2.68,0,0,1,2.69-2.81H75.87a2.68,2.68,0,0,1,2.69,2.81,2.59,2.59,0,0,1-2.69,2.69Z"/></svg>