<svg id="Layer_1" data-name="Layer 1" xmlns="http://www.w3.org/2000/svg" viewBox="0 0 110 110"><defs><style>.cls-1,.cls-2{fill:#0a4ca4;}.cls-2{fill-rule:evenodd;}</style></defs><circle class="cls-1" cx="90.89" cy="42.39" r="6.25"/><path class="cls-1" d="M105.6,53.27l-3.13,17.48a4.33,4.33,0,0,1-4.28,3.59h-10l-2.15.07,0,2.13,0,2.15,2.23,0h1l-2.2,7.88.51,2.06,2.32,0,.3-1.18,2.43-8.68h5.56a5.45,5.45,0,0,0,1.39-.12l2.55,8.92.25,1,2.48-.06.39-1.86-2.54-9a8.8,8.8,0,0,0,4.16-6L110,54.19Z"/><path class="cls-1" d="M98.77,70.06a5.9,5.9,0,0,0,.92-3.82c0-1.51-.34-9.15-.46-11.23a6,6,0,0,0-2.08-4.52,4.66,4.66,0,0,0-3.48-.7s-.69.12-1.62.35a5.1,5.1,0,0,0-4,5l-.23,10.07H82.09a4.65,4.65,0,0,0-4.63,4.64V85.46A3.25,3.25,0,1,0,84,85.34V72.84a1.16,1.16,0,0,1,1.16-1.16H95.18A4.76,4.76,0,0,0,98.77,70.06Z"/><circle class="cls-1" cx="15.86" cy="54.31" r="6.14"/><path class="cls-1" d="M68.89,74.23H33.46a12.16,12.16,0,0,1-5.67-1.51L6.48,60.33V53.27H0V88.69H71.08V74.23Z"/><path class="cls-1" d="M38.56,60.79,28.37,56.86a5,5,0,0,0-4.75.69,4.78,4.78,0,0,0,.58,7.88L30.34,69a7.93,7.93,0,0,0,4.28,1.15H66.93a2.56,2.56,0,0,0,2.54-2.54,2.51,2.51,0,0,0-2.2-2.55l-25.7-3.59A12.72,12.72,0,0,1,38.56,60.79Z"/><path class="cls-2" d="M18,21.25V42.91h7.87v5.9l7.88-5.9h11.8V21.25Zm8.4,12.46a2,2,0,1,1,2-2A2,2,0,0,1,26.37,33.71Zm5.25,0a2,2,0,1,1,2.05-2A2,2,0,0,1,31.62,33.71Zm5.27,0a2,2,0,1,1,2-2A2,2,0,0,1,36.89,33.71Z"/></svg>