<?xml version="1.0" encoding="UTF-8"?>
<svg width="110px" height="110px" viewBox="0 0 110 110" version="1.1" xmlns="http://www.w3.org/2000/svg" xmlns:xlink="http://www.w3.org/1999/xlink">
    <title>NEXT Regulatory Intelligence_5@svg</title>
    <g id="NEXT-Regulatory-Intelligence_5" stroke="none" stroke-width="1" fill="none" fill-rule="evenodd">
        <g id="Group" transform="translate(0.000000, 10.000000)" fill="#0A4CA4" fill-rule="nonzero">
            <path d="M81.8019366,50.3521127 L100.4375,50.2746479 L81.8019366,50.3521127 L81.8019366,55 L100.4375,54.8450704 C102.960563,54.8450704 105,52.8020915 105,50.2746479 L105,4.57042254 C105,2.04297887 102.960563,0 100.4375,0 L36.5625,0 C34.0394375,0 32,2.04297887 32,4.57042254 L32,18.2816901 L36.5625,18.2816901 L78.8224841,18.5711421 C80.471281,18.5824352 81.8019366,19.9222361 81.8019366,21.5710717 L81.8019366,50.3521127 L81.8019366,50.3521127 Z" id="Path"></path>
            <path d="M104.5,59 L82,59 L82,68 L104.5,68 C106.9885,68 109,65.9885 109,63.5 C109,61.0115 106.9885,59 104.5,59 Z" id="Path"></path>
            <path d="M9.5625,23 C7.0394375,23 5,25.04875 5,27.5833333 L5,73.4166667 C5,75.95125 7.0394375,78 9.5625,78 L73.4375,78 C75.9605625,78 78,75.95125 78,73.4166667 L78,27.5833333 C78,25.04875 75.9605625,23 73.4375,23 L9.5625,23 Z" id="Shape"></path>
            <path d="M4.55555556,91 L77.4444444,91 C79.9636667,91 82,88.9885 82,86.5 C82,84.0115 79.9636667,82 77.4444444,82 L4.55555556,82 C2.03633333,82 0,84.0115 0,86.5 C0,88.9885 2.03633333,91 4.55555556,91 Z" id="Path"></path>
        </g>
    </g>
</svg>