<?xml version="1.0" encoding="UTF-8"?>
<svg width="110px" height="110px" viewBox="0 0 110 110" version="1.1" xmlns="http://www.w3.org/2000/svg" xmlns:xlink="http://www.w3.org/1999/xlink">
    <title>NEXT MLLR Review Automation_5@svg</title>
    <g id="NEXT-MLLR-Review-Automation_5" stroke="none" stroke-width="1" fill="none" fill-rule="evenodd">
        <g id="noun_database_1295749" fill="#0A4CA4" fill-rule="nonzero">
            <g id="Shape">
                <path d="M33.8137844,50.5513167 C35.3943333,50.5513167 36.6800392,51.8367468 36.6800392,53.4164761 C36.6800392,54.9962054 35.3943333,56.2816355 33.8137844,56.2816355 C32.2332353,56.2816355 30.9475294,54.9962054 30.9475294,53.4164761 C30.9475294,51.8367468 32.2332353,50.5513167 33.8137844,50.5513167 M30.532549,57.7904312 C37.0322549,60.6853439 45.7216079,62.2795186 55,62.2795186 C64.2781765,62.2795186 72.9675294,60.6853439 79.467451,57.7904312 C85.3263529,55.1809779 88.6867451,51.7841394 88.6867451,48.4713865 C88.6867451,48.2777742 88.7145687,48.0912768 88.762451,47.9127569 L88.762451,40.5895569 C86.8519019,42.3523339 84.3216863,43.953408 81.2229215,45.3337038 C74.1829215,48.4692305 64.8700196,50.1962172 55,50.1962172 C45.1297648,50.1962172 35.8170784,48.4692305 28.7768627,45.3337038 C25.678098,43.953408 23.1478823,42.3523339 21.2373333,40.5895569 L21.2373333,47.9127569 C21.2852157,48.0912768 21.3130392,48.2777742 21.3130392,48.4713865 C21.3130392,51.7841394 24.6734314,55.1809779 30.532549,57.7904312 M33.8137844,33.1233901 C35.3943333,33.1233901 36.6800392,34.4088202 36.6800392,35.9885494 C36.6800392,37.5682788 35.3943333,38.8537089 33.8137844,38.8537089 C32.2332353,38.8537089 30.9475294,37.5682788 30.9475294,35.9885494 C30.9475294,34.4088202 32.2332353,33.1233901 33.8137844,33.1233901 M30.532549,41.3946002 C37.0322549,44.2897284 45.7216079,45.8841189 55,45.8841189 C64.2781765,45.8841189 72.9675294,44.2897284 79.467451,41.3946002 C85.3263529,38.7851469 88.6867451,35.3885241 88.6867451,32.0755555 C88.6867451,31.8819432 88.7145687,31.6954458 88.762451,31.5169259 L88.762451,22.804806 C86.8519019,24.5673674 84.3216863,26.1686571 81.2229215,27.5489528 C74.1829215,30.6842639 64.8700196,32.4112506 55,32.4112506 C45.1297648,32.4112506 35.8170784,30.6842639 28.7768627,27.5489528 C25.678098,26.1686571 23.1478823,24.5673674 21.2373333,22.804806 L21.2373333,31.5169259 C21.2852157,31.6954458 21.3130392,31.8819432 21.3130392,32.0755555 C21.3130392,35.3885241 24.6734314,38.7851469 30.532549,41.3946002 M31.8779784,24.883917 C38.0882333,27.2682798 46.2998411,28.5813072 54.9999784,28.5813072 C63.7001157,28.5813072 71.9115079,27.2682798 78.1217627,24.883917 C84.9833902,22.2494537 88.7624294,18.4873822 88.7624294,14.2906535 C88.7624294,10.0939249 84.9833902,6.33185351 78.1217627,3.69739022 C71.9115079,1.31324297 63.7001157,0 54.9999784,0 C46.2998411,0 38.0882333,1.31324297 31.8779784,3.69739022 C25.016351,6.33185351 21.2375275,10.0939249 21.2375275,14.2906535 C21.2375275,18.4873822 25.016351,22.2494537 31.8779784,24.883917 M33.8137844,73.7093464 C32.2332353,73.7093464 30.9475294,72.424132 30.9475294,70.8444026 C30.9475294,69.2646733 32.2332353,67.9792432 33.8137844,67.9792432 C35.3943333,67.9792432 36.6800392,69.2646733 36.6800392,70.8444026 C36.6800392,72.424132 35.3943333,73.7093464 33.8137844,73.7093464 M107.843137,97.2810984 L65.5671176,97.2810984 L65.5671176,91.0300963 C65.5671176,89.8393164 64.6014902,88.874058 63.4102549,88.874058 L57.1568627,88.874058 L57.1568627,81.3080881 C73.2024118,80.9187076 88.762451,76.1890062 88.762451,67.4872353 L88.762451,56.9853879 C86.8519019,58.7477337 84.3216863,60.3490234 81.2229215,61.7293192 C74.1829215,64.8648459 64.869804,66.591617 55,66.591617 C45.1299804,66.591617 35.8170784,64.8648459 28.7768627,61.7293192 C25.678098,60.3490234 23.1478823,58.7477337 21.2373333,56.9853879 L21.2373333,67.044385 C21.2373333,71.2411137 25.0163726,75.003185 31.878,77.6376484 C37.5721176,79.8236557 44.950098,81.1060674 52.8431372,81.3046385 L52.8431372,88.874058 L46.5895294,88.874058 C45.3982941,88.874058 44.4326667,89.8393164 44.4326667,91.0300963 L44.4326667,97.2810984 L2.15686275,97.2810984 C0.965627451,97.2810984 0,98.2465724 0,99.4371368 C0,100.627917 0.965627451,101.593175 2.15686275,101.593175 L44.4326667,101.593175 L44.4326667,107.843962 C44.4326667,109.034742 45.3982941,110 46.5895294,110 L63.4102549,110 C64.6014902,110 65.5671176,109.034742 65.5671176,107.843962 L65.5671176,101.593175 L107.843137,101.593175 C109.034373,101.593175 110,100.627917 110,99.4371368 C110,98.2465724 109.034373,97.2810984 107.843137,97.2810984"></path>
            </g>
        </g>
    </g>
</svg>