<?xml version="1.0" encoding="UTF-8"?>
<svg width="110px" height="110px" viewBox="0 0 110 110" version="1.1" xmlns="http://www.w3.org/2000/svg" xmlns:xlink="http://www.w3.org/1999/xlink">
    <title>next_regulatory_intelligence_automate_change@svg</title>
    <g id="next_regulatory_intelligence_automate_change" stroke="none" stroke-width="1" fill="none" fill-rule="evenodd">
        <path d="M81.6164176,77.6589105 L88.820491,84.8643024 C85.7442238,88.3394896 82.0941864,91.4102405 77.9070178,93.9261452 C66.4030976,100.838398 52.6157151,102.515414 39.8459314,98.4829715 L39.266199,98.2957448 L37.785859,97.8036833 L37.1770437,99.2549918 L34.103777,106.134348 L17.4058874,83.1091845 L45.7590581,80.1843205 L42.9467436,86.5121551 L42.1059463,88.3988966 L44.0506895,89.0066422 C53.8323459,91.8131929 63.9749229,90.4556249 72.6791878,85.2255749 C76.1389603,83.1467338 79.1298363,80.5772304 81.6164176,77.6589105 Z M25.0718954,57.6369822 C30.4690373,57.6369822 34.8492601,62.0177744 34.9961918,67.493956 L35,67.7781668 L35,72.0309216 L0,72.0309216 L0,67.7781668 C0,62.2651898 4.28874582,57.7909573 9.64986543,57.6408721 L9.92810458,57.6369822 L25.0718954,57.6369822 Z M95.0794118,34.0309216 L95.0794118,38.1662157 C96.3088235,38.5573922 97.4823529,39.004451 98.5441176,39.6191569 L98.5441176,39.6191569 L101.505882,36.6573922 L101.505882,36.6573922 L101.561765,36.6573922 L107.317647,42.4132745 L107.317647,42.4132745 L107.317647,42.4691569 L104.355882,45.4309216 C104.970588,46.4926863 105.473529,47.6662157 105.808824,48.8956275 L105.808824,48.8956275 L109.944118,48.8956275 L109.944118,48.8956275 L110,57.1103334 L105.808824,57.1103334 C105.417647,58.3397451 104.970588,59.5132745 104.355882,60.5750392 L104.355882,60.5750392 L107.317647,63.5368039 L107.317647,63.5368039 L107.317647,63.5926863 L101.561765,69.3485687 L101.561765,69.3485687 L101.505882,69.3485687 L98.5441176,66.3868039 C97.4823529,67.0015098 96.3088235,67.504451 95.0794118,67.8397451 L95.0794118,67.8397451 L95.0794118,72.0309216 L86.9205882,72.0309216 L86.9205882,67.8397451 C85.6911765,67.4485687 84.5176471,67.0015098 83.4558824,66.3868039 L83.4558824,66.3868039 L80.4941176,69.3485687 L80.4941176,69.3485687 L80.4382353,69.3485687 L74.6823529,63.5926863 L74.6823529,63.5926863 L74.6823529,63.5368039 L77.6441176,60.5750392 C77.0294118,59.5132745 76.5264706,58.3397451 76.1911765,57.1103334 L76.1911765,57.1103334 L72,57.1103334 L72,48.9515098 L76.1911765,48.9515098 C76.5823529,47.7220981 77.0294118,46.5485687 77.6441176,45.4868039 L77.6441176,45.4868039 L74.6823529,42.5250392 L74.6823529,42.5250392 L74.6823529,42.4691569 L80.4382353,36.7132745 L80.4382353,36.7132745 L80.4941176,36.7132745 L83.4558824,39.6750392 C84.5176471,39.0603334 85.6911765,38.5573922 86.9205882,38.2220981 L86.9205882,38.2220981 L86.9205882,34.0309216 L95.0794118,34.0309216 Z M91.0558824,43.9220981 C84.6294118,43.9220981 79.7117647,50.6279804 83.0088235,57.4456275 C83.7911765,59.1220981 85.1323529,60.4073922 86.8088235,61.1897451 C93.5705882,64.2632745 100.108824,59.4015098 100.164706,53.0309216 C100.164706,48.0015098 96.0294118,43.9220981 91.0558824,43.9220981 Z M17.7868852,34.0309216 C23.4908097,34.0309216 28.1147541,38.6708796 28.1147541,44.394558 C28.1147541,50.1182363 23.4908097,54.7581943 17.7868852,54.7581943 C12.0829608,54.7581943 7.45901639,50.1182363 7.45901639,44.394558 C7.45901639,38.6708796 12.0829608,34.0309216 17.7868852,34.0309216 Z M75.9397882,4 L92.6376779,27.0251635 L64.2845072,29.9500275 L67.1403869,23.6946976 L67.9811842,21.8079561 L66.0800063,21.2727153 C56.2983499,18.4661645 46.1557729,19.8237326 37.451508,25.0537826 C34.2632571,26.9694769 31.4731932,29.3018416 29.109017,31.9398746 L20.894784,25.5222256 C24.0297611,21.913468 27.7758794,18.729675 32.0929822,16.135698 C43.5254494,9.26637859 57.4244265,7.61806723 70.1975572,11.6513572 L70.7773662,11.8386031 L72.2577062,12.3306647 L72.8665216,10.8793561 L75.9397882,4 Z" id="Combined-Shape" fill="#0a4ca4" fill-rule="nonzero"></path>
    </g>
</svg>