<?xml version="1.0" encoding="UTF-8"?>
<svg width="110px" height="110px" viewBox="0 0 110 110" version="1.1" xmlns="http://www.w3.org/2000/svg" xmlns:xlink="http://www.w3.org/1999/xlink">
    <title>NEXT Regulatory Intelligence_2@svg</title>
    <g id="NEXT-Regulatory-Intelligence_2" stroke="none" stroke-width="1" fill="none" fill-rule="evenodd">
        <g id="Group" transform="translate(14.000000, -0.000000)" fill="#0A4CA4" fill-rule="nonzero">
            <path d="M29.6,0 L29.6,6.6 L21,6.6 L21,18.5 L60.6,18.5 L60.6,6.6 L52,6.6 L52,0 L29.6,0 Z M0,11.9 L0,110.8 L81.7,110.8 L81.7,11.9 L65.6,11.9 L65.6,23.5 L16,23.5 L16,11.9 L0,11.9 Z M9.2,38.3 L22.4,38.3 L22.4,51.5 L9.2,51.5 L9.2,38.3 Z M32.9,42.3 L72.4,42.3 L72.4,47.3 L32.9,47.3 L32.9,42.3 Z M9.2,60.7 L22.4,60.7 L22.4,73.9 L9.2,73.9 L9.2,60.7 Z M32.9,64.7 L72.4,64.7 L72.4,69.7 L32.9,69.7 L32.9,64.7 Z M9.2,83.1 L22.4,83.1 L22.4,96.3 L9.2,96.3 L9.2,83.1 Z M32.9,87.2 L72.4,87.2 L72.4,92.2 L32.9,92.2 L32.9,87.2 Z" id="Shape"></path>
        </g>
    </g>
</svg>