<svg id="Layer_1" data-name="Layer 1" xmlns="http://www.w3.org/2000/svg" viewBox="0 0 110 110"><defs><style>.cls-1{fill:#0a4ca4;}</style></defs><path class="cls-1" d="M110,85.89,95.48,62.06a25.95,25.95,0,1,0-5.86,3.58l14.51,23.83ZM60.2,42a19,19,0,1,1,19,19A19,19,0,0,1,60.2,42Z"/><path class="cls-1" d="M69.78,93.91H22.67C21.6,80,32.66,68.13,46,68,59.51,67.87,70.87,79.83,69.78,93.91Z"/><path class="cls-1" d="M26.71,60.19a10.18,10.18,0,0,1-9.86,10.45A10.2,10.2,0,0,1,6.13,60.43,10.41,10.41,0,0,1,16.61,49.88,10.41,10.41,0,0,1,26.71,60.19Z"/><path class="cls-1" d="M20.06,75.73c-1,6.22-1.89,12-2.86,18.12L0,94c.05-1.09.58-9.81,8-15A19,19,0,0,1,20.06,75.73Z"/><path class="cls-1" d="M93.36,93.89H73.75c-1.13-7-2.2-13.63-3.29-20.42A23.72,23.72,0,0,1,84,78,24.46,24.46,0,0,1,93.36,93.89Z"/><path class="cls-1" d="M51.56,30.23a15.26,15.26,0,0,0-5.48-1.11A15.45,15.45,0,0,0,30.51,44.74a15.49,15.49,0,0,0,24.1,12.37,29.47,29.47,0,0,1-3-26.88Z"/><path class="cls-1" d="M75.5,49.88A10.28,10.28,0,0,0,69,52.15a15.16,15.16,0,0,0,15.24,3A10.24,10.24,0,0,0,75.5,49.88Z"/></svg>