<svg id="Layer_1" data-name="Layer 1" xmlns="http://www.w3.org/2000/svg" viewBox="0 0 110 110"><defs><style>.cls-1{fill:#0a4ca4;}</style></defs><circle class="cls-1" cx="55.59" cy="65.7" r="5.29"/><path class="cls-1" d="M55.63,73.73a9.42,9.42,0,0,0-9.39,9.39V93.88l4.32,2v10.77l0,3.27,3.3.07h3.9l3.31,0,0-3.39V95.84l3.86-2V83.12A9.41,9.41,0,0,0,55.63,73.73Z"/><circle class="cls-1" cx="22.86" cy="65.7" r="5.29"/><path class="cls-1" d="M22.91,73.73a9.41,9.41,0,0,0-9.39,9.39V93.88l4.32,2v10.77c0,1.09,0,2.18,0,3.27l3.3.07h3.9l3.32,0,0-3.39V95.84l3.86-2V83.12A9.41,9.41,0,0,0,22.91,73.73Z"/><circle class="cls-1" cx="87.05" cy="65.7" r="5.29"/><path class="cls-1" d="M87.09,73.73a9.41,9.41,0,0,0-9.38,9.39V93.88l4.32,2v10.77c0,1.09,0,2.18,0,3.27l3.3.07h3.9l3.31,0,0-3.39V95.84l3.87-2V83.12A9.41,9.41,0,0,0,87.09,73.73Z"/><path class="cls-1" d="M52.3,0,50.63,5.81a18.33,18.33,0,0,0-4.28,1.78L41.09,4.66,36.37,9.37l2.93,5.26a19.23,19.23,0,0,0-1.78,4.28l-5.8,1.67v6.67l5.8,1.66A19.51,19.51,0,0,0,39.3,33.2l-2.93,5.26,4.72,4.71,5.26-2.93A18.77,18.77,0,0,0,50.63,42l1.67,5.81H59L60.63,42a18.77,18.77,0,0,0,4.28-1.78l5.26,2.93,4.72-4.71L72,33.2a19.06,19.06,0,0,0,1.79-4.29l5.8-1.66V20.58l-5.8-1.67A18.8,18.8,0,0,0,72,14.63l2.94-5.26L70.17,4.66,64.91,7.59a18.33,18.33,0,0,0-4.28-1.78L59,0Zm3.33,13.8A10.12,10.12,0,1,1,45.51,23.91,10.15,10.15,0,0,1,55.63,13.8Zm5.26,5.08-.71.71c-1.93,1.94-4,4.14-5.93,6.11l-2.68-2.2-.77-.64L49.54,24.4l.76.64,3.39,2.78.7.58.63-.64c2.15-2.15,4.47-4.66,6.57-6.77l.7-.71-1.4-1.4Z"/></svg>