<?xml version="1.0" encoding="UTF-8"?>
<svg width="110px" height="110px" viewBox="0 0 110 110" version="1.1" xmlns="http://www.w3.org/2000/svg" xmlns:xlink="http://www.w3.org/1999/xlink">
    <title>next_regulatory_intelligence_Inbuilt_dossier@svg</title>
    <g id="next_regulatory_intelligence_Inbuilt_dossier" stroke="none" stroke-width="1" fill="none" fill-rule="evenodd">
        <path d="M73.3333333,96.7777829 L73.3333333,104 L36.6666667,104 L36.6666667,96.7777829 L73.3333333,96.7777829 Z M63,86.333 L63,94.166 L45.8333333,94.1666743 L45.8333333,86.3333486 L63,86.333 Z M63,70.666 L63,83.722 L0,83.72224 L0,70.6666971 L63,70.666 Z M55,74.58336 C53.553631,74.58336 52.3809524,75.7523533 52.3809524,77.1944686 C52.3809524,78.6365838 53.553631,79.8055771 55,79.8055771 C56.4465,79.8055771 57.6190476,78.6365838 57.6190476,77.1944686 C57.6190476,75.7523533 56.4465,74.58336 55,74.58336 Z M110,8 L110,36 L63,36 L63,68.055 L0,68.0555886 L0,8 L110,8 Z M40.7105263,22 L24.2894737,22 L24.2894737,30.2894737 L16,30.2894737 L16,46.7105263 L24.2894737,46.7105263 L24.2894737,55 L40.7105263,55 L40.7105263,46.7105263 L49,46.7105263 L49,30.2894737 L40.7105263,30.2894737 L40.7105263,22 Z" id="Combined-Shape" fill="#0a4ca4" fill-rule="nonzero"></path>
        <path d="M45,43.4157303 L37.4157303,43.4157303 L37.4157303,51 C37.4157303,51 37.4157303,51 37.4157303,51 L27.5842697,51 C27.5842697,51 27.5842697,51 27.5842697,51 L27.5842697,43.4157303 L20,43.4157303 L20,33.5842697 C20,33.5842697 20,33.5842697 20,33.5842697 L27.5842697,33.5842697 L27.5842697,26 C27.5842697,26 27.5842697,26 27.5842697,26 L37.4157303,26 L37.4157303,33.5842697 L45,33.5842697 C45,33.5842697 45,33.5842697 45,33.5842697 L45,43.4157303 Z" id="Path" fill="#0a4ca4" fill-rule="nonzero"></path>
        <g id="Group-Copy" transform="translate(68.000000, 41.000000)" fill="#0a4ca4" fill-rule="nonzero">
            <path d="M0,0 L0,49 L42,49 L42,0 L0,0 Z M35.28,43.3619319 L7.28,43.3619319 L7.28,39.9790911 L35.28,39.9790911 L35.28,43.3619319 Z M35.28,37.160057 L7.28,37.160057 L7.28,33.7772162 L35.28,33.7772162 L35.28,37.160057 Z M35.28,27.5753413 L35.28,30.9581821 L7.28,30.9581821 L7.28,27.5753413 L35.28,27.5753413 Z M32.4800296,17.953705 C32.1769802,20.5152711 30.020721,22.50108 27.4057631,22.50108 C24.7908052,22.50108 22.6345461,20.5152711 22.3314967,17.953705 L32.4800296,17.953705 Z M28.6544523,8.06568676 L28.7761798,8.2661248 L28.881322,8.45718193 C29.560101,9.75301927 29.6390655,11.2121838 29.2115207,12.4978159 C30.8964839,13.1408095 32.1574999,14.6598659 32.4513152,16.5060446 L24.8086614,16.5059955 L16.0342542,21.5727364 C13.6964206,22.9224853 10.6737008,22.1528165 9.19862826,19.8418521 L9.0760357,19.6400083 L8.97089356,19.4489512 C7.73146019,17.082785 8.49191877,14.172056 10.6842141,12.7676107 L10.8813533,12.6476503 L15.7618592,9.82988889 L20.8938133,18.7186942 L21.9625372,18.1016662 L16.8305831,9.21286085 L21.8179613,6.33339667 C24.1731122,4.9736497 27.1893765,5.76990776 28.6544523,8.06568676 Z" id="Shape"></path>
        </g>
    </g>
</svg>