<?xml version="1.0" encoding="UTF-8"?>
<svg width="110px" height="110px" viewBox="0 0 110 110" version="1.1" xmlns="http://www.w3.org/2000/svg" xmlns:xlink="http://www.w3.org/1999/xlink">
    <title>NXReg_manage_submissions@svg</title>
    <g id="NXReg_manage_submissions" stroke="none" stroke-width="1" fill="none" fill-rule="evenodd">
        <g id="result" fill="#0a4ca4" fill-rule="nonzero">
            <path d="M60.4972657,83.165386 L34.4594785,83.165386 L34.4594785,76.7063733 L60.2776593,76.7063733 C61.4385591,65.3716672 70.6209068,56.378138 82.0389341,55.5115538 L82.0389341,0 L0,0 L0,108.829196 L82.0389341,108.829196 L82.0389341,102.766336 C71.1617415,101.940659 62.3150472,93.7394356 60.4972657,83.165386 Z M21.1728588,59.4750193 C22.9833201,59.4750193 24.3239958,60.9547791 24.4023652,62.7045256 C24.4805192,64.4486743 22.862106,65.934032 21.1728588,65.934032 C19.3623976,65.934032 18.0217219,64.4542721 17.9433525,62.7045256 C17.8651984,60.9605922 19.4836117,59.4750193 21.1728588,59.4750193 Z M17.9433525,44.7816267 C17.8651984,43.0374779 19.4836117,41.5521203 21.1728588,41.5521203 C22.9833201,41.5521203 24.3239958,43.0318801 24.4023652,44.7816267 C24.4805192,46.5257754 22.862106,48.011133 21.1728588,48.011133 C19.3623976,48.011133 18.0217219,46.5313732 17.9433525,44.7816267 Z M21.1728588,77.3981335 C22.9833201,77.3981335 24.3239958,78.8778933 24.4023652,80.6276399 C24.4805192,82.3717886 22.862106,83.8571462 21.1728588,83.8571462 C19.3623976,83.8571462 18.0217219,82.3773864 17.9433525,80.6276399 C17.8651984,78.8834912 19.4836117,77.3981335 21.1728588,77.3981335 Z M21.1728588,30.0880187 C19.3623976,30.0880187 18.0217219,28.6082589 17.9433525,26.8585124 C17.8651984,25.1143637 19.4836117,23.6290061 21.1728588,23.6290061 C22.9833201,23.6290061 24.3239958,25.1087659 24.4023652,26.8585124 C24.4805192,28.6026611 22.862106,30.0880187 21.1728588,30.0880187 Z M63.4936017,65.5882595 L34.4594785,65.5882595 L34.4594785,59.1292468 L63.4936017,59.1292468 L63.4936017,65.5882595 Z M63.4936017,48.011133 L34.4594785,48.011133 L34.4594785,41.5521203 L63.4936017,41.5521203 L63.4936017,48.011133 Z M63.4936017,30.4337912 L34.4594785,30.4337912 L34.4594785,23.9747785 L63.4936017,23.9747785 L63.4936017,30.4337912 Z" id="XMLID_346_"></path>
            <path d="M70.5009845,77.2894068 L74.5421734,72.2513769 L84.2027034,79.9978861 L97.6202257,68.7807341 C94.4725335,64.6060589 89.4711047,61.9018856 83.8496107,61.9018856 C74.3462501,61.9018856 66.6126589,69.6333238 66.6126589,79.1388375 C66.6126589,88.6421981 74.3462501,96.3757893 83.8496107,96.3757893 C93.3551243,96.3757893 101.086563,88.6421981 101.086563,79.1388375 C101.086563,77.6295815 100.890639,76.1655386 100.526781,74.7703919 L84.2888236,88.3450835 L70.5009845,77.2894068 Z" id="XMLID_372_"></path>
            <path d="M97.6202257,68.7807341 C98.9507823,70.5461976 99.9497763,72.5721746 100.526781,74.7703919 L110,66.8516424 L105.85762,61.8954266 L97.6202257,68.7807341 Z" id="XMLID_374_"></path>
        </g>
    </g>
</svg>