<?xml version="1.0" encoding="UTF-8"?>
<svg width="110px" height="110px" viewBox="0 0 110 110" version="1.1" xmlns="http://www.w3.org/2000/svg" xmlns:xlink="http://www.w3.org/1999/xlink">
    <title>NXReg_predictive_analytics@svg</title>
    <g id="NXReg_predictive_analytics" stroke="none" stroke-width="1" fill="none" fill-rule="evenodd">
        <g id="analytics" transform="translate(0.000000, 0.000000)" fill="#0a4ca4" fill-rule="nonzero">
            <path d="M37.9983398,27.3979492 C31.1568555,27.3979492 25.5913281,32.9634766 25.5913281,39.8049609 C25.5913281,46.6485938 31.1568555,52.2141211 37.9983398,52.2141211 C44.8398242,52.2141211 50.4075,46.6485938 50.4075,39.8049609 C50.4075,32.9634766 44.8398242,27.3979492 37.9983398,27.3979492 Z" id="Path"></path>
            <path d="M106.052031,6.10622664e-15 L3.94582031,6.10622664e-15 C1.76666016,6.10622664e-15 0,1.76666016 0,3.94603516 L0,67.1945312 C0,69.3736914 1.76644531,71.1403516 3.94582031,71.1403516 L5.81882812,71.1403516 L23.4521289,53.5070508 C23.8919141,53.0672656 23.9350977,52.3604297 23.535918,51.8832617 C20.6686133,48.4552148 18.9939063,43.9974219 19.1582617,39.1526953 C19.4962109,29.1929687 27.6658594,21.1485742 37.629668,20.9575781 C48.3361914,20.7521875 57.0841992,29.5197461 56.8467969,40.2309961 C56.6255078,50.2029687 48.5514648,58.3466211 38.5816406,58.6491211 C35.5916602,58.74 32.7525,58.1298438 30.2121875,56.9729102 C29.7537109,56.764082 29.2148828,56.8583984 28.858457,57.2148242 L14.9309961,71.1403516 L106.052031,71.1403516 C108.230117,71.1403516 110,69.3704687 110,67.1945312 L110,3.94818359 C110,1.77224609 108.230117,6.10622664e-15 106.052031,6.10622664e-15 Z M68.3671484,55.9429492 C68.3671484,57.7235742 66.9257617,59.1649609 65.1451367,59.1649609 C63.3666602,59.1649609 61.923125,57.7235742 61.923125,55.9429492 L61.923125,43.5082227 C61.923125,41.7297461 63.3666602,40.2862109 65.1451367,40.2862109 C66.9257617,40.2862109 68.3671484,41.7297461 68.3671484,43.5082227 L68.3671484,55.9429492 Z M78.4628711,55.9429492 C78.4628711,57.7235742 77.0214844,59.1649609 75.2408594,59.1649609 C73.4623828,59.1649609 72.0188477,57.7235742 72.0188477,55.9429492 L72.0188477,22.0279297 C72.0188477,20.2494531 73.4623828,18.805918 75.2408594,18.805918 C77.0214844,18.805918 78.4628711,20.2494531 78.4628711,22.0279297 L78.4628711,55.9429492 Z M88.725957,55.9429492 C88.725957,57.7235742 87.2824219,59.1649609 85.5039453,59.1649609 C83.7233203,59.1649609 82.2819336,57.7235742 82.2819336,55.9429492 L82.2819336,30.6199609 C82.2819336,28.8414844 83.7233203,27.3979492 85.5039453,27.3979492 C87.2824219,27.3979492 88.725957,28.8414844 88.725957,30.6199609 L88.725957,55.9429492 Z M98.9957031,55.9429492 C98.9957031,57.7235742 97.552168,59.1649609 95.7736914,59.1649609 C93.9930664,59.1649609 92.5516797,57.7235742 92.5516797,55.9429492 L92.5516797,39.2119922 C92.5516797,37.4335156 93.9930664,35.9899805 95.7736914,35.9899805 C97.552168,35.9899805 98.9957031,37.4335156 98.9957031,39.2119922 L98.9957031,55.9429492 Z" id="Shape"></path>
            <path d="M80.7971484,88.6832031 L80.7756641,88.6739648 C75.7661523,86.525957 70.575957,85.0293555 65.2617969,84.1891016 L65.2617969,78.0742187 C65.2617969,77.4086328 64.7223242,76.8689453 64.0565234,76.8689453 L61.9220508,76.8689453 L58.8179883,76.8689453 L45.9434766,76.8689453 C45.2778906,76.8689453 44.7382031,77.4086328 44.7382031,78.0742187 L44.7382031,84.1968359 C39.4532617,85.0364453 34.2914258,86.5250977 29.3087695,88.6582813 C27.7118359,89.3419141 26.871582,91.1667969 27.4875391,92.7910156 C28.142168,94.5175 30.0953125,95.3343359 31.7736719,94.6126758 C39.1544141,91.4417969 46.9702148,89.8324023 55.0034375,89.8293945 L55.0706836,89.8293945 C63.0353711,89.8293945 70.9166992,91.4510352 78.2344922,94.5954883 L78.2748828,94.6128906 C78.6897461,94.7912109 79.1207227,94.8754297 79.5454687,94.8754297 C81.0343359,94.8752148 82.4376953,93.8370898 82.7313867,92.1686133 C82.988125,90.7070312 82.1609766,89.267793 80.7971484,88.6832031 Z" id="Path"></path>
            <path d="M5.81904297,71.1401367 L0.982695312,75.9861523 C-0.276074219,77.2449219 -0.276074219,79.2833594 0.982695312,80.5421289 C1.61197266,81.1714062 2.43697266,81.4850781 3.26175781,81.4850781 C4.08654297,81.4850781 4.91154297,81.1714063 5.53867188,80.5421289 L14.9307813,71.1401367 L5.81904297,71.1401367 Z" id="Path"></path>
        </g>
    </g>
</svg>