<?xml version="1.0" encoding="UTF-8"?>
<svg width="110px" height="110px" viewBox="0 0 110 110" version="1.1" xmlns="http://www.w3.org/2000/svg" xmlns:xlink="http://www.w3.org/1999/xlink">
    <title>NXReg_non_compliance@svg</title>
    <g id="NXReg_non_compliance" stroke="none" stroke-width="1" fill="none" fill-rule="evenodd">
        <g id="low-prices" transform="translate(22.000000, 0.000000)" fill="#0a4ca4" fill-rule="nonzero">
            <path d="M32.580276,71.6055003 C29.1729454,71.6055003 25.8665823,71.165325 22.7140335,70.3410436 L22.7140335,82.7226655 L11.2224292,82.7226655 L32.5779129,110 L53.9331818,82.7226655 L42.4417923,82.7226655 L42.4417923,70.3423325 C39.2905325,71.1657546 35.985888,71.6055003 32.580276,71.6055003 Z" id="Path"></path>
            <path d="M32.580276,65.1607668 C50.5451854,65.1607668 65.1607668,50.5454002 65.1607668,32.5804908 C65.1607668,14.6155814 50.5451854,6.10567808e-15 32.580276,6.10567808e-15 C14.6155814,6.10567808e-15 6.10567808e-15,14.6155814 6.10567808e-15,32.5804908 C6.10567808e-15,50.5454002 14.6153666,65.1607668 32.580276,65.1607668 Z M29.35082,17.3283846 L29.35082,13.1227663 L35.7955535,13.1227663 L35.7955535,17.3011019 L41.4308285,17.3011019 L41.4308285,23.7458353 L30.0223613,23.7458353 C28.5409319,23.7458353 27.3359815,24.9510005 27.3359815,26.4324299 C27.3359815,27.9138593 28.5411467,29.1190245 30.0223613,29.1190245 L36.7796643,29.1190245 C41.946622,29.1190245 46.150092,33.3224945 46.150092,38.4892373 C46.150092,43.656195 41.946622,47.859665 36.7796643,47.859665 L35.7955535,47.859665 L35.7955535,52.0380005 L29.35082,52.0380005 L29.35082,47.859665 L22.2186483,47.859665 L22.2186483,41.4149315 L36.7794495,41.4149315 C38.3927811,41.4149315 39.7051437,40.1025689 39.7051437,38.4892373 C39.7051437,36.8761205 38.3927811,35.5637579 36.7794495,35.5637579 L30.0221464,35.5637579 C24.987091,35.5637579 20.8910332,31.4674853 20.8910332,26.4324299 C20.8910332,21.6235846 24.628549,17.6738223 29.35082,17.3283846 L29.35082,17.3283846 Z" id="Shape"></path>
        </g>
    </g>
</svg>