<?xml version="1.0" encoding="UTF-8"?>
<svg width="110px" height="110px" viewBox="0 0 110 110" version="1.1" xmlns="http://www.w3.org/2000/svg" xmlns:xlink="http://www.w3.org/1999/xlink">
    <title>NXReg_submission_bundling@svg</title>
    <g id="NXReg_submission_bundling" stroke="none" stroke-width="1" fill="none" fill-rule="evenodd">
        <g id="sticky-notes" fill="#0a4ca4" fill-rule="nonzero">
            <path d="M48.0964258,-3.05311332e-15 L3.22265625,-3.05311332e-15 C1.44289062,-3.05311332e-15 0,1.44289062 0,3.22265625 L0,48.0964258 C0,49.8761914 1.44289062,51.319082 3.22265625,51.319082 L23.4379492,51.319082 C26.5353516,51.319082 29.1020898,48.8204492 29.1020898,45.6549414 L29.1020898,32.3247461 C29.1020898,30.5449805 30.5449805,29.1020898 32.3247461,29.1020898 L45.6549414,29.1020898 C48.7521289,29.1020898 51.319082,26.6036719 51.319082,23.4379492 L51.319082,3.22265625 C51.319082,1.44289062 49.8761914,-3.05311332e-15 48.0964258,-3.05311332e-15 Z M18.7558594,34.0598242 L15.3039648,34.0598242 C11.0345898,33.9023438 11.0341602,27.772207 15.3039648,27.6145117 L18.7556445,27.6145117 C23.0250195,27.772207 23.0256641,33.9021289 18.7558594,34.0598242 Z M36.0149023,20.2526758 L15.3039648,20.2526758 C11.0393164,20.0973437 11.0296484,13.9665625 15.3039648,13.8073633 L36.0149023,13.8073633 C37.794668,13.8073633 39.2375586,15.2502539 39.2375586,17.0300195 C39.2375586,18.8097852 37.794668,20.2526758 36.0149023,20.2526758 Z" id="Shape"></path>
            <path d="M45.6549414,35.5471875 L35.5474023,35.5471875 L35.5474023,45.6547266 C35.5474023,47.6261328 35.0805469,49.5249219 34.1988281,51.2245508 C42.2941406,50.4092187 50.2800977,44.0554297 51.2301367,34.1827148 C49.517832,35.0672266 47.5990625,35.5471875 45.6549414,35.5471875 L45.6549414,35.5471875 Z" id="Path"></path>
            <path d="M106.777344,-3.05311332e-15 L61.9035742,-3.05311332e-15 C60.1238086,-3.05311332e-15 58.680918,1.44289062 58.680918,3.22265625 L58.680918,48.0964258 C58.680918,49.8761914 60.1238086,51.319082 61.9035742,51.319082 L82.1188672,51.319082 C85.2162695,51.319082 87.7830078,48.8204492 87.7830078,45.6549414 L87.7830078,32.3247461 C87.7830078,30.5449805 89.2258984,29.1020898 91.0056641,29.1020898 L104.335859,29.1020898 C107.433047,29.1020898 110,26.6036719 110,23.4379492 L110,3.22265625 C110,1.44289062 108.557109,-3.05311332e-15 106.777344,-3.05311332e-15 Z M94.6960352,20.2526758 L73.9850977,20.2526758 C69.7204492,20.0973438 69.7107812,13.9665625 73.9850977,13.8073633 L94.6960352,13.8073633 C96.4758008,13.8073633 97.9186914,15.2502539 97.9186914,17.0300195 C97.9186914,18.8097852 96.4758008,20.2526758 94.6960352,20.2526758 L94.6960352,20.2526758 Z" id="Shape"></path>
            <path d="M104.335859,35.5471875 L94.2283203,35.5471875 L94.2283203,45.6547266 C94.2283203,47.6261328 93.7614648,49.5249219 92.8797461,51.2245508 C100.975059,50.4092187 108.961016,44.0554297 109.911055,34.1827148 C108.198965,35.0672266 106.27998,35.5471875 104.335859,35.5471875 Z" id="Path"></path>
            <path d="M106.777344,58.680918 L61.9035742,58.680918 C60.1238086,58.680918 58.680918,60.1238086 58.680918,61.9035742 L58.680918,106.777344 C58.680918,108.557109 60.1238086,110 61.9035742,110 L82.1188672,110 C85.2162695,110 87.7830078,107.501367 87.7830078,104.335859 L87.7830078,91.0056641 C87.7830078,89.2258984 89.2258984,87.7830078 91.0056641,87.7830078 L104.335859,87.7830078 C107.433047,87.7830078 110,85.2845898 110,82.1188672 L110,61.9037891 C110,60.1238086 108.557109,58.680918 106.777344,58.680918 L106.777344,58.680918 Z M77.4367773,92.740957 L73.9850977,92.740957 C69.7159375,92.5834766 69.715293,86.4533398 73.9850977,86.2956445 L77.4367773,86.2956445 C81.7061523,86.453125 81.706582,92.5832617 77.4367773,92.740957 Z M94.6960352,78.9335938 L73.9850977,78.9335938 C69.7204492,78.7782617 69.7107812,72.6474805 73.9850977,72.4882812 L94.6960352,72.4882812 C96.4758008,72.4882812 97.9186914,73.9311719 97.9186914,75.7109375 C97.9186914,77.4907031 96.4758008,78.9335938 94.6960352,78.9335938 L94.6960352,78.9335938 Z" id="Shape"></path>
            <path d="M94.2283203,94.2281055 L94.2283203,104.335645 C94.2283203,106.307051 93.7614648,108.20584 92.8797461,109.905469 C100.975059,109.090137 108.961016,102.736348 109.911055,92.8636328 C108.19875,93.7481445 106.27998,94.2281055 104.335859,94.2281055 L94.2283203,94.2281055 Z" id="Path"></path>
            <path d="M48.0964258,58.680918 L3.22265625,58.680918 C1.44289062,58.680918 0,60.1238086 0,61.9035742 L0,106.777344 C0,108.557109 1.44289062,110 3.22265625,110 L23.4379492,110 C26.5353516,110 29.1020898,107.501367 29.1020898,104.335859 L29.1020898,91.0056641 C29.1020898,89.2258984 30.5449805,87.7830078 32.3247461,87.7830078 L45.6549414,87.7830078 C48.7521289,87.7830078 51.319082,85.2845898 51.319082,82.1188672 L51.319082,61.9037891 C51.319082,60.1238086 49.8761914,58.680918 48.0964258,58.680918 L48.0964258,58.680918 Z M36.0149023,78.9335938 L15.3039648,78.9335938 C11.0393164,78.7782617 11.0296484,72.6474805 15.3039648,72.4882812 L36.0149023,72.4882812 C37.794668,72.4882812 39.2375586,73.9311719 39.2375586,75.7109375 C39.2375586,77.4907031 37.794668,78.9335938 36.0149023,78.9335938 Z" id="Shape"></path>
            <path d="M35.5474023,94.2281055 L35.5474023,104.335645 C35.5474023,106.307051 35.0805469,108.20584 34.1988281,109.905469 C42.2941406,109.090137 50.2800977,102.736348 51.2301367,92.8636328 C49.517832,93.7481445 47.5990625,94.2281055 45.6549414,94.2281055 L35.5474023,94.2281055 Z" id="Path"></path>
        </g>
    </g>
</svg>