<?xml version="1.0" encoding="UTF-8"?>
<svg width="110px" height="110px" viewBox="0 0 110 110" version="1.1" xmlns="http://www.w3.org/2000/svg" xmlns:xlink="http://www.w3.org/1999/xlink">
    <title>NXTadverse_decision@svg</title>
    <g id="NXTadverse_decision" stroke="none" stroke-width="1" fill="none" fill-rule="evenodd">
        <g id="decision" transform="translate(0.000000, 7.000000)" fill="#0a4ca4" fill-rule="nonzero">
            <path d="M84.0039062,45.1171875 C69.7595508,45.1171875 58.2226562,56.654082 58.2226562,70.8984375 C58.2226562,85.1423633 69.7595508,96.6796875 84.0039062,96.6796875 C98.2482617,96.6796875 110,85.1423633 110,70.8984375 C110,56.654082 98.2482617,45.1171875 84.0039062,45.1171875 Z M95.4123242,77.7304688 L90.8359375,82.3064258 L84.0039062,75.4743945 L77.171875,82.3064258 L72.5954883,77.7304688 L79.4275195,70.8984375 L72.5954883,64.0664062 L77.171875,59.4900195 L84.0039062,66.3220508 L90.8359375,59.4900195 L95.4123242,64.0664062 L88.580293,70.8984375 L95.4123242,77.7304688 Z" id="Shape"></path>
            <path d="M51.7773438,25.78125 C51.7773438,11.5368945 40.2404492,0 25.9960938,0 C11.7517383,0 0,11.5368945 0,25.78125 C0,40.0251758 11.7517383,51.5625 25.9960938,51.5625 C40.2404492,51.5625 51.7773438,40.0251758 51.7773438,25.78125 Z M14.0724805,28.0368945 L18.5839844,23.5251758 L22.7736523,27.6501758 L33.4086328,17.0798633 L37.9201367,21.591582 L22.7734375,36.8025195 L14.0724805,28.0368945 Z" id="Shape"></path>
            <path d="M53.422832,80.5664062 C52.4476563,77.4947852 51.7773438,74.2886719 51.7773438,70.8984375 C51.7773438,67.5082031 52.4476563,64.3020898 53.422832,61.2304688 L13.1054688,61.2304688 L0,70.8984375 L13.1054688,80.5664062 L53.422832,80.5664062 Z" id="Path"></path>
            <path d="M56.577168,16.1132812 C57.5523437,19.1849023 58.2226562,22.3910156 58.2226562,25.78125 C58.2226562,29.1714844 57.5523437,32.3775977 56.577168,35.4492188 L96.8945312,35.4492188 L110,25.78125 L96.8945312,16.1132812 L56.577168,16.1132812 Z" id="Path"></path>
        </g>
    </g>
</svg>