<?xml version="1.0" encoding="UTF-8"?>
<svg width="110px" height="110px" viewBox="0 0 110 110" version="1.1" xmlns="http://www.w3.org/2000/svg" xmlns:xlink="http://www.w3.org/1999/xlink">
    <title>NXTadverse_improve_quality@svg</title>
    <g id="NXTadverse_improve_quality" stroke="none" stroke-width="1" fill="none" fill-rule="evenodd">
        <g id="evidence" fill="#0a4ca4" fill-rule="nonzero">
            <polygon id="Path" points="41.4009804 19.4117647 80.2245098 19.4117647 80.2245098 25.8823529 41.4009804 25.8823529"></polygon>
            <path d="M16.2633922,77.4572549 L1.89523529,91.8256275 C-0.631745098,94.3526078 -0.631745098,98.4495686 1.89523529,100.976333 L1.89523529,100.976549 C4.42221569,103.503314 8.51917647,103.503314 11.0461569,100.976549 L25.2488824,86.7736078 C21.5446863,84.4916471 18.4275882,81.2822353 16.2633922,77.4572549 L16.2633922,77.4572549 Z" id="Path"></path>
            <circle id="Oval" cx="38.7881569" cy="64.7058824" r="19.4117647"></circle>
            <path d="M21.9892157,0 L21.9892157,45.0150196 C32.1016667,36.3599608 47.4104314,36.7253333 57.0895686,46.4042549 C67.181098,56.4957843 67.181098,72.9159804 57.0895686,83.0075098 C50.1595686,89.9377255 40.340451,92.0945882 31.5941569,89.5790392 L21.9892157,99.1839804 L21.9892157,110 L99.6362745,110 L99.6362745,0 L21.9892157,0 Z M86.695098,97.0588235 L60.8127451,97.0588235 L60.8127451,90.5882353 L86.695098,90.5882353 L86.695098,97.0588235 Z M86.695098,84.1176471 L73.7539216,84.1176471 L73.7539216,77.6470588 L86.695098,77.6470588 L86.695098,84.1176471 Z M86.695098,71.1764706 L73.7539216,71.1764706 L73.7539216,64.7058824 L86.695098,64.7058824 L86.695098,71.1764706 Z M86.695098,58.2352941 L73.7539216,58.2352941 L73.7539216,51.7647059 L86.695098,51.7647059 L86.695098,58.2352941 Z M86.695098,45.2941176 L65.9946078,45.2941176 L65.9946078,38.8235294 L86.6953137,38.8235294 L86.6953137,45.2941176 L86.695098,45.2941176 Z M86.695098,32.3529412 L34.9303922,32.3529412 L34.9303922,12.9411765 L86.695098,12.9411765 L86.695098,32.3529412 Z" id="Shape"></path>
        </g>
    </g>
</svg>