<?xml version="1.0" encoding="UTF-8"?>
<svg width="110px" height="110px" viewBox="0 0 110 110" version="1.1" xmlns="http://www.w3.org/2000/svg" xmlns:xlink="http://www.w3.org/1999/xlink">
    <title>NXTadverse_reduce_turn@svg</title>
    <g id="NXTadverse_reduce_turn" stroke="none" stroke-width="1" fill="none" fill-rule="evenodd">
        <g id="stopwatch" transform="translate(9.000000, 0.000000)" fill="#0a4ca4" fill-rule="nonzero">
            <path d="M32.1525911,0 L32.1525911,9.17608412 L41.3286752,9.17608412 L41.3286752,13.7640186 C44.5402079,13.3052897 47.2930116,13.3052897 50.5047593,13.7640186 L50.5047593,9.17608412 L59.6808435,9.17608412 L59.6808435,0 L32.1525911,0 Z" id="Path"></path>
            <path d="M77.1151237,30.280841 L80.3266564,27.0693084 L83.997133,30.739785 L90.4204134,24.3165046 L76.6563948,10.552486 L70.2331144,16.9757664 L73.903591,20.646028 L69.7743854,24.7752336 C47.7519556,11.4699439 19.3062454,18.3519532 6.45989966,40.374383 C-6.38644605,62.3968129 0.495348207,89.9248501 22.0590491,103.23014 C43.62275,116.53543 72.0682452,109.65342 84.914806,87.6309904 C96.3847498,68.8200932 93.1732171,44.9625326 77.1151237,30.280841 Z M45.9166097,95.8894016 C28.0233855,95.8894016 13.8006379,81.666654 13.8006379,63.7734298 C13.8006379,45.8802055 28.0233855,31.6572429 45.9166097,31.6572429 L45.9166097,63.7732147 L78.0325816,63.7732147 C78.0325816,81.666439 63.809834,95.8894016 45.9166097,95.8894016 Z" id="Shape"></path>
        </g>
    </g>
</svg>