<?xml version="1.0" encoding="UTF-8"?>
<svg width="110px" height="110px" viewBox="0 0 110 110" version="1.1" xmlns="http://www.w3.org/2000/svg" xmlns:xlink="http://www.w3.org/1999/xlink">
    <title>NXTforcast_understand_products@svg</title>
    <g id="NXTforcast_understand_products" stroke="none" stroke-width="1" fill="none" fill-rule="evenodd">
        <rect fill="#FFFFFF" x="0" y="0" width="110" height="110"></rect>
        <g id="analytics" transform="translate(0.000210, 0.000000)" fill="#0A4CA4" fill-rule="nonzero">
            <path d="M45.5467881,48.3397515 C45.5467881,50.1449392 46.9642506,51.5624016 48.7694382,51.5624016 C50.5746259,51.5624016 51.9920883,50.1449392 51.9920883,48.3397515 C51.9920883,46.5345639 50.5746259,45.1171014 48.7694382,45.1171014 C46.9642506,45.1171014 45.5467881,46.5345639 45.5467881,48.3397515 Z" id="Path"></path>
            <path d="M68.1053388,83.7889026 C87.8281252,83.7889026 104.456664,69.996128 108.839972,51.5624016 L96.5292805,51.5624016 C95.2402205,55.3011793 91.6306846,58.0077018 87.4412394,58.0077018 C82.0911367,58.0077018 77.7732891,53.6898543 77.7732891,48.3397515 C77.7732891,46.857668 78.0955542,45.4393664 78.7400842,44.2149272 L72.2301632,37.7050062 C71.0057239,38.3495362 69.5874223,38.6718012 68.1053388,38.6718012 C66.6232554,38.6718012 65.2049538,38.3495362 63.9805145,37.7050062 L57.4705935,44.2149272 C58.1151235,45.4393664 58.4373885,46.857668 58.4373885,48.3397515 C58.4373885,53.6898543 54.119541,58.0077018 48.7694382,58.0077018 C43.4193355,58.0077018 39.1014879,53.6898543 39.1014879,48.3397515 C39.1014879,46.857668 39.4237529,45.4393664 40.068283,44.2149272 L27.4999476,31.6465918 C26.6623941,34.9338627 26.2108875,38.3495362 26.2108875,41.8944513 C26.2108875,64.9691296 45.0306605,83.7889026 68.1053388,83.7889026 Z" id="Path"></path>
            <path d="M64.8826887,29.0038509 C64.8826887,30.8090386 66.3001512,32.226501 68.1053388,32.226501 C69.9105265,32.226501 71.3279889,30.8090386 71.3279889,29.0038509 C71.3279889,27.1986633 69.9105265,25.7812008 68.1053388,25.7812008 C66.3001512,25.7812008 64.8826887,27.1986633 64.8826887,29.0038509 Z" id="Path"></path>
            <path d="M84.2185893,48.3397515 C84.2185893,50.1449392 85.6360518,51.5624016 87.4412394,51.5624016 C89.2464271,51.5624016 90.6638895,50.1449392 90.6638895,48.3397515 C90.6638895,46.5345639 89.2464271,45.1171014 87.4412394,45.1171014 C85.6360518,45.1171014 84.2185893,46.5345639 84.2185893,48.3397515 Z" id="Path"></path>
            <path d="M68.1053388,0 C51.0899141,0 36.3949654,10.2478595 29.8850442,24.8790266 L44.6446139,39.6385962 C45.8690531,38.9940662 47.2873548,38.6718012 48.7694382,38.6718012 C50.2515217,38.6718012 51.6698233,38.9940662 52.8942626,39.6385962 L59.4041836,33.1286752 C58.7596536,31.904236 58.4373885,30.4859344 58.4373885,29.0038509 C58.4373885,23.6537481 62.7552361,19.3359006 68.1053388,19.3359006 C73.4554416,19.3359006 77.7732891,23.6537481 77.7732891,29.0038509 C77.7732891,30.4859344 77.4510241,31.904236 76.8064941,33.1286752 L83.3164151,39.6385962 C84.5408544,38.9940662 85.959156,38.6718012 87.4412394,38.6718012 C91.6306846,38.6718012 95.2402205,41.3783237 96.5292805,45.1171014 L109.870549,45.1171014 C109.935169,44.0856856 109.99979,42.9896487 109.99979,41.8944513 C109.99979,18.819773 91.1800172,0 68.1053388,0 Z" id="Path"></path>
            <path d="M26.2108875,16.1132505 C26.2108875,10.7631477 21.89304,6.4453002 16.5429372,6.4453002 C12.3534921,6.4453002 8.7439562,9.15182269 7.45489616,12.8906004 L5.37108349e-08,12.8906004 L5.37108349e-08,19.3359006 L7.45489616,19.3359006 C8.7439562,23.0746783 12.3534921,25.7812008 16.5429372,25.7812008 C18.0250207,25.7812008 19.4433223,25.4589358 20.6677616,24.8144058 L27.4999476,31.6465918 C28.0798568,29.3261159 28.8536284,27.0702608 29.8850442,24.8790266 L25.2440925,20.2380748 C25.8886225,19.0136356 26.2108875,17.595334 26.2108875,16.1132505 Z" id="Path"></path>
            <path d="M16.498458,107.173257 L41.4731569,82.1977191 C36.0517197,78.6024501 31.39734,73.9480705 27.802071,68.5266333 L2.82737192,93.5021715 C-0.942457308,97.2728399 -0.942457308,103.403428 2.82737192,107.173257 C6.59468341,110.940569 12.7286288,110.943926 16.498458,107.173257 Z" id="Path"></path>
        </g>
    </g>
</svg>