<?xml version="1.0" encoding="UTF-8"?>
<svg width="110px" height="110px" viewBox="0 0 110 110" version="1.1" xmlns="http://www.w3.org/2000/svg" xmlns:xlink="http://www.w3.org/1999/xlink">
    <title>NXTforcast_seamless_workflow@svg</title>
    <g id="NXTforcast_seamless_workflow" stroke="none" stroke-width="1" fill="none" fill-rule="evenodd">
        <g id="workflow" fill="#0a4ca4" fill-rule="nonzero">
            <polygon id="Path" points="0 0 45.3320312 0 45.3320312 45.3320312 0 45.3320312"></polygon>
            <polygon id="Path" points="64.6679688 64.6679688 110 64.6679688 110 110 64.6679688 110"></polygon>
            <path d="M58.2226562,22.6660156 C58.2226562,21.5767578 58.2847461,20.5018945 58.4020508,19.4433594 L51.7773437,19.4433594 L51.7773437,25.8886719 L58.4020508,25.8886719 C58.2847461,24.8301367 58.2226562,23.7552734 58.2226562,22.6660156 Z" id="Path"></path>
            <path d="M25.8886719,58.4018359 L25.8886719,51.7773438 L19.4433594,51.7773438 L19.4433594,58.4018359 C20.5018945,58.2847461 21.5767578,58.2226563 22.6660156,58.2226563 C23.7552734,58.2226563 24.8301367,58.2847461 25.8886719,58.4018359 Z" id="Path"></path>
            <path d="M84.1113281,51.5981641 L84.1113281,58.2226562 L90.5566406,58.2226562 L90.5566406,51.5981641 C89.4981055,51.7152539 88.4232422,51.7773438 87.3339844,51.7773438 C86.2447266,51.7773438 85.1698633,51.7152539 84.1113281,51.5981641 Z" id="Path"></path>
            <circle id="Oval" cx="22.6660156" cy="87.3339844" r="22.6660156"></circle>
            <circle id="Oval" cx="87.3339844" cy="22.6660156" r="22.6660156"></circle>
        </g>
    </g>
</svg>