<?xml version="1.0" encoding="UTF-8"?>
<svg width="110px" height="110px" viewBox="0 0 110 110" version="1.1" xmlns="http://www.w3.org/2000/svg" xmlns:xlink="http://www.w3.org/1999/xlink">
    <title>NXTforcast_understand_variable@svg</title>
    <g id="NXTforcast_understand_variable" stroke="none" stroke-width="1" fill="none" fill-rule="evenodd">
        <g id="trend" fill="#0a4ca4" fill-rule="nonzero">
            <polygon id="Path" points="110 103.554688 103.554688 103.554688 103.554688 38.671875 84.0039062 38.671875 84.0039062 103.554688 77.5585938 103.554688 77.5585938 64.453125 58.2226562 64.453125 58.2226562 103.554688 51.7773438 103.554688 51.7773438 51.5625 32.4414062 51.5625 32.4414062 103.554688 25.9960938 103.554688 25.9960938 70.8984375 6.4453125 70.8984375 6.4453125 103.554688 0 103.554688 0 110 110 110"></polygon>
            <polygon id="Path" points="110 25.78125 110 0 84.0039062 0 84.0039062 6.4453125 98.9976367 6.4453125 67.890625 37.3374805 42.109375 11.5562305 0.944238281 52.5067383 5.50107422 57.0635742 42.109375 20.670332 67.890625 46.451582 103.554688 11.0023633 103.554688 25.78125"></polygon>
        </g>
    </g>
</svg>