<?xml version="1.0" encoding="UTF-8"?>
<svg width="110px" height="110px" viewBox="0 0 110 110" version="1.1" xmlns="http://www.w3.org/2000/svg" xmlns:xlink="http://www.w3.org/1999/xlink">
    <title>NXTforcast_utilize_resources@svg</title>
    <g id="NXTforcast_utilize_resources" stroke="none" stroke-width="1" fill="none" fill-rule="evenodd">
        <g id="human-resources" fill="#0a4ca4" fill-rule="nonzero">
            <path d="M54.6080168,0 L29.3101158,23.2274477 L42.6018801,23.2274477 L42.6018801,39.4593544 C47.1307952,39.8490817 51.2717017,41.6142414 54.6060832,44.3337389 C57.862906,41.6774056 61.8893006,39.9311522 66.2948951,39.4879287 L66.2948951,23.2272329 L79.9059178,23.2272329 L54.6080168,0 Z" id="Path"></path>
            <path d="M94.099383,57.8813826 C96.5464581,55.1251467 98.0368321,51.5011553 98.0368321,47.5342725 C98.0368321,38.9297635 91.0367794,31.929496 82.4322704,31.929496 C76.8123766,31.929496 71.8782654,34.9166893 69.1304085,39.385448 C81.0042012,39.7111518 90.5634777,49.4710927 90.5634777,61.4222293 C90.5634777,64.0738361 90.0856642,66.6771029 89.1727914,69.1196662 C93.9150467,72.3468405 97.5663234,76.9161463 99.6827533,82.1978754 L109.215389,82.2084028 L109.215389,78.9844511 L109.215819,78.9844511 C109.215819,69.2030258 102.881353,60.8733025 94.099383,57.8813826 Z" id="Path"></path>
            <path d="M40.0851955,39.385448 C37.3375534,34.9164744 32.4030125,31.929496 26.7833336,31.929496 C18.1788246,31.929496 11.1787718,38.9297635 11.1787718,47.5342725 C11.1787718,51.5013701 12.6691458,55.1251467 15.1164358,57.8813826 C6.3344655,60.8730876 0,69.2028109 0,78.9844511 L0,82.2086176 L9.53263581,82.1980902 C11.6492806,76.9163612 15.3007721,72.3466257 20.0430274,69.1196662 C19.1303694,66.6775326 18.6523411,64.0738361 18.6523411,61.4222293 C18.6521263,49.4710927 28.2114028,39.7111518 40.0851955,39.385448 Z" id="Path"></path>
            <path d="M80.1852152,71.7695542 C82.6322903,69.0133184 84.1228791,65.3893269 84.1228791,61.4224442 C84.1228791,52.8179352 77.1226116,45.8176676 68.5181026,45.8176676 C62.8904744,45.8176676 57.9499179,48.813025 55.2042094,53.2923111 C67.0868107,53.608132 76.6563997,63.3723699 76.6563997,75.329737 C76.6563997,78.0561095 76.1530198,80.7285561 75.1926664,83.2265493 C79.7894722,86.4423368 83.3367643,90.9358026 85.4145223,96.1015158 L95.3012213,96.08884 L95.3012213,92.872408 C95.3012213,83.0911974 88.9669706,74.7614741 80.1852152,71.7695542 Z" id="Path"></path>
            <path d="M54.0118242,53.2923111 C51.2663306,48.8128102 46.3255592,45.8176676 40.6979311,45.8176676 C32.0934221,45.8176676 25.0931545,52.8179352 25.0931545,61.4224442 C25.0931545,65.3895418 26.5835285,69.0135332 29.0308184,71.7695542 C20.2488481,74.761689 13.9145975,83.0909826 13.9145975,92.8726228 L13.9145975,96.0890549 L23.8672536,96.1017307 C25.9385663,90.9547089 29.4688857,86.4734892 34.0411993,83.2596353 C33.0724669,80.7524038 32.565005,78.0685704 32.565005,75.3295221 C32.565005,63.3738738 42.1315862,53.6107102 54.0118242,53.2923111 Z" id="Path"></path>
            <path d="M66.1958519,85.7711636 C68.692556,83.0037559 70.2153715,79.3413073 70.2153715,75.3295221 C70.2153715,66.7250131 63.2151039,59.7247456 54.6105949,59.7247456 C46.0060859,59.7247456 39.0058184,66.7250131 39.0058184,75.3295221 C39.0058184,79.3488269 40.5340049,83.0177207 43.039088,85.7868472 C34.4197547,88.8681423 28.2350356,97.1147209 28.2350356,106.779486 L28.2350356,110 L81.0448067,110 L81.0448067,106.779486 C81.0448067,97.0981779 74.8386032,88.8399977 66.1958519,85.7711636 Z" id="Path"></path>
        </g>
    </g>
</svg>