<?xml version="1.0" encoding="UTF-8"?>
<svg width="110px" height="110px" viewBox="0 0 110 110" version="1.1" xmlns="http://www.w3.org/2000/svg" xmlns:xlink="http://www.w3.org/1999/xlink">
    <title>NXTforcast_intuitive_interface@svg</title>
    <g id="NXTforcast_intuitive_interface" stroke="none" stroke-width="1" fill="none" fill-rule="evenodd">
        <g id="landing-page" transform="translate(0.000000, 7.179688)" fill="#0a4ca4" fill-rule="nonzero">
            <path d="M106.777344,0 L90.6640625,0 L90.6640625,19.3359375 L110,19.3359375 L110,3.22265625 C110,1.44289063 108.557109,0 106.777344,0 Z" id="Path"></path>
            <path d="M84.21875,0 L3.22265625,0 C1.44289062,0 0,1.44289063 0,3.22265625 L0,19.3359375 L84.21875,19.3359375 L84.21875,0 Z" id="Path"></path>
            <polygon id="Path" points="23.6328125 47.9101562 42.96875 47.9101562 42.96875 67.2460938 23.6328125 67.2460938"></polygon>
            <path d="M0,92.5976562 C0,94.3774219 1.44289062,95.8203125 3.22265625,95.8203125 L106.777344,95.8203125 C108.557109,95.8203125 110,94.3774219 110,92.5976562 L110,25.78125 L0,25.78125 L0,92.5976562 Z M77.5585938,41.4648438 L89.5898438,41.4648438 C91.3696094,41.4648438 92.8125,42.9077344 92.8125,44.6875 C92.8125,46.4672656 91.3696094,47.9101562 89.5898438,47.9101562 L77.5585938,47.9101562 C75.7788281,47.9101562 74.3359375,46.4672656 74.3359375,44.6875 C74.3359375,42.9077344 75.7788281,41.4648438 77.5585938,41.4648438 Z M71.1132812,54.3554688 L89.5898438,54.3554688 C91.3696094,54.3554688 92.8125,55.7983594 92.8125,57.578125 C92.8125,59.3578906 91.3696094,60.8007812 89.5898438,60.8007812 L71.1132812,60.8007812 C69.3335156,60.8007812 67.890625,59.3578906 67.890625,57.578125 C67.890625,55.7983594 69.3335156,54.3554688 71.1132812,54.3554688 Z M71.1132812,67.2460938 L89.5898438,67.2460938 C91.3696094,67.2460938 92.8125,68.6889844 92.8125,70.46875 C92.8125,72.2485156 91.3696094,73.6914062 89.5898438,73.6914062 L71.1132812,73.6914062 C69.3335156,73.6914062 67.890625,72.2485156 67.890625,70.46875 C67.890625,68.6889844 69.3335156,67.2460938 71.1132812,67.2460938 Z M17.1875,44.6875 C17.1875,42.9077344 18.6303906,41.4648438 20.4101562,41.4648438 L46.1914062,41.4648438 C47.9711719,41.4648438 49.4140625,42.9077344 49.4140625,44.6875 L49.4140625,70.46875 C49.4140625,72.2485156 47.9711719,73.6914062 46.1914062,73.6914062 L20.4101562,73.6914062 C18.6303906,73.6914062 17.1875,72.2485156 17.1875,70.46875 L17.1875,44.6875 Z" id="Shape"></path>
        </g>
    </g>
</svg>