<?xml version="1.0" encoding="UTF-8"?>
<svg width="110px" height="110px" viewBox="0 0 110 110" version="1.1" xmlns="http://www.w3.org/2000/svg" xmlns:xlink="http://www.w3.org/1999/xlink">
    <title>NXTforcast_modular@svg</title>
    <g id="NXTforcast_modular" stroke="none" stroke-width="1" fill="none" fill-rule="evenodd">
        <rect fill="#FFFFFF" x="0" y="0" width="110" height="110"></rect>
        <g id="browser" transform="translate(0.000000, 5.000000)" fill="#0a4ca4" fill-rule="nonzero">
            <path d="M96.25,0 L13.75,0 C6.16920477,0 0,6.16920477 0,13.75 L0,87.0830535 C0,94.663849 6.16920477,100.833054 13.75,100.833054 L96.25,100.833054 C103.830795,100.833054 110,94.663849 110,87.0830535 L110,13.75 C110,6.16920477 103.830795,0 96.25,0 Z M96.25,91.6669465 L13.75,91.6669465 C11.2247468,91.6669465 9.16694646,89.6133423 9.16694646,87.0830535 L9.16694646,22.9169465 L100.833054,22.9169465 L100.833054,87.0830535 C100.833054,89.6133423 98.7752532,91.6669465 96.25,91.6669465 Z" id="Shape"></path>
            <path d="M71.9718171,61.7331696 C72.0641326,61.0223389 72.1875,60.3165436 72.1875,59.5830535 C72.1875,58.8453675 72.0590973,58.1437682 71.9718171,57.4337769 L76.1016846,54.3076325 C77.0231627,53.6110687 77.2799683,52.3371125 76.7017365,51.3333893 L72.9940032,44.9166107 C72.4166107,43.9170836 71.1837769,43.5008239 70.1204681,43.9498138 L65.3678893,45.9522248 C64.2080688,45.0676727 62.975235,44.2888641 61.6139984,43.7207031 L60.9812165,38.6743928 C60.8343506,37.5279998 59.8625182,36.6669465 58.707733,36.6669465 L51.2964631,36.6669465 C50.1416779,36.6669465 49.1656494,37.5279998 49.0229798,38.6743928 L48.3910369,43.7207031 C47.0298005,44.2888641 45.7919312,45.0727082 44.637146,45.9522248 L39.8845672,43.9498138 C38.8162231,43.5008239 37.5833893,43.9128875 37.0059968,44.9166107 L33.3024596,51.3333893 C32.725067,52.3329164 32.9818726,53.6068726 33.9025115,54.3076325 L38.0323793,57.4337769 C37.9409027,58.1437682 37.8125,58.8453675 37.8125,59.5830535 C37.8125,60.3215789 37.9409027,61.0223389 38.0281829,61.7331696 L33.8983154,64.8584748 C32.9768373,65.5550384 32.7200317,66.829834 33.2982635,67.8335571 L37.0059968,74.2503356 C37.5833893,75.2490234 38.8162231,75.6661224 39.8795319,75.2171325 L44.6321107,73.2096862 C45.7919312,74.0942383 47.024765,74.8730469 48.3860016,75.4420472 L49.0187835,80.4875182 C49.1656494,81.6381072 50.1374818,82.5 51.292267,82.5 L58.7035369,82.5 C59.8583221,82.5 60.8343506,81.6381072 60.9770202,80.4925537 L61.6089631,75.4462433 C62.9701995,74.8780824 64.2080688,74.0942383 65.362854,73.2138825 L70.1154328,75.2171325 C71.1795807,75.6661224 72.4124146,75.2540589 72.9898071,74.2503356 L76.6975404,67.8285218 C77.274933,66.829834 77.0181274,65.5550384 76.0974885,64.8542787 L71.9718171,61.7331696 Z M55,68.75 C49.9352264,68.75 45.8330535,64.6478271 45.8330535,59.5830535 C45.8330535,54.5191193 49.9352264,50.4169465 55,50.4169465 C60.0647736,50.4169465 64.1669465,54.5191193 64.1669465,59.5830535 C64.1669465,64.6478271 60.0647736,68.75 55,68.75 L55,68.75 Z" id="Shape"></path>
        </g>
    </g>
</svg>