<?xml version="1.0" encoding="UTF-8"?>
<svg width="110px" height="110px" viewBox="0 0 110 110" version="1.1" xmlns="http://www.w3.org/2000/svg" xmlns:xlink="http://www.w3.org/1999/xlink">
    <title>NXTHA_label@svg</title>
    <g id="NXTHA_label" stroke="none" stroke-width="1" fill="none" fill-rule="evenodd">
        <g id="feedback" fill="#0a4ca4" fill-rule="nonzero">
            <path d="M0,0 L0,56.7771875 L23.3202148,45.1171875 L70.8984375,45.1171875 L70.8984375,0 L0,0 Z M25.78125,25.78125 L19.3359375,25.78125 L19.3359375,19.3359375 L25.78125,19.3359375 L25.78125,25.78125 Z M38.671875,25.78125 L32.2265625,25.78125 L32.2265625,19.3359375 L38.671875,19.3359375 L38.671875,25.78125 Z M51.5625,25.78125 L45.1171875,25.78125 L45.1171875,19.3359375 L51.5625,19.3359375 L51.5625,25.78125 Z" id="Shape"></path>
            <path d="M39.1015625,53.0664062 L39.1015625,98.1835938 L86.6797852,98.1835938 L110,110 L110,53.0664062 L39.1015625,53.0664062 Z M64.8828125,78.8476562 L58.4375,78.8476562 L58.4375,72.4023438 L64.8828125,72.4023438 L64.8828125,78.8476562 Z M77.7734375,78.8476562 L71.328125,78.8476562 L71.328125,72.4023438 L77.7734375,72.4023438 L77.7734375,78.8476562 Z M90.6640625,78.8476562 L84.21875,78.8476562 L84.21875,72.4023438 L90.6640625,72.4023438 L90.6640625,78.8476562 Z" id="Shape"></path>
        </g>
    </g>
</svg>