<?xml version="1.0" encoding="UTF-8"?>
<svg width="110px" height="110px" viewBox="0 0 110 110" version="1.1" xmlns="http://www.w3.org/2000/svg" xmlns:xlink="http://www.w3.org/1999/xlink">
    <title>NXTHA_reduce_AI@svg</title>
    <g id="NXTHA_reduce_AI" stroke="none" stroke-width="1" fill="none" fill-rule="evenodd">
        <g id="pros-and-cons" transform="translate(12.000000, 0.000000)" fill="#0a4ca4" fill-rule="nonzero">
            <path d="M63.107865,26.2422534 C61.3268138,26.2422534 59.8828518,24.7982914 59.8828518,23.0172402 C59.8828518,23.0013418 59.8850002,22.9858731 59.8852151,22.9701895 C59.8850002,22.9542911 59.8828518,22.9390372 59.8828518,22.9231388 L59.8828518,0 L6.48891311,0 C2.91112713,0 -1.22124294e-14,2.91069744 -1.22124294e-14,6.48869826 L-1.22124294e-14,103.511087 C-1.22124294e-14,107.089088 2.91091228,110 6.48891311,110 L78.9910176,110 C82.5690184,110 85.4799307,107.089088 85.4799307,103.511087 L85.4799307,26.2422534 L63.107865,26.2422534 Z M19.8321878,36.7590493 C21.0913846,35.4998525 23.1334704,35.4998525 24.392882,36.7590493 L27.3916653,39.7578325 L30.3904485,36.7590493 C31.6496452,35.4998525 33.6917311,35.4998525 34.9511427,36.7590493 C36.2105543,38.0182461 36.2105543,40.0603319 34.9511427,41.3197435 L31.9523595,44.3185267 L34.9511427,47.3173099 C36.2105543,48.5765067 36.2105543,50.6185925 34.9511427,51.8780041 C34.3214369,52.5077099 33.4960088,52.8226703 32.6707956,52.8226703 C31.8455823,52.8226703 31.0199394,52.5077099 30.3904485,51.8780041 L27.3916653,48.8792209 L24.392882,51.8780041 C23.7631762,52.5077099 22.9377482,52.8226703 22.1125349,52.8226703 C21.2873217,52.8226703 20.4616788,52.5077099 19.8321878,51.8780041 C18.5727762,50.6188074 18.5727762,48.5767215 19.8321878,47.3173099 L22.830971,44.3185267 L19.8317581,41.3197435 C18.5727762,40.0605468 18.5727762,38.0186757 19.8321878,36.7590493 Z M34.2273355,90.8157797 L20.5562099,90.8157797 C18.7751586,90.8157797 17.3311966,89.3718176 17.3311966,87.5907664 C17.3311966,85.8097152 18.7751586,84.3657532 20.5562099,84.3657532 L34.2273355,84.3657532 C36.0083867,84.3657532 37.4523487,85.8097152 37.4523487,87.5907664 C37.4523487,89.3718176 36.0083867,90.8157797 34.2273355,90.8157797 Z M34.2273355,80.1885543 L20.5562099,80.1885543 C18.7751586,80.1885543 17.3311966,78.7445923 17.3311966,76.9635411 C17.3311966,75.1824899 18.7751586,73.7385279 20.5562099,73.7385279 L34.2273355,73.7385279 C36.0083867,73.7385279 37.4523487,75.1824899 37.4523487,76.9635411 C37.4523487,78.7445923 36.0083867,80.1885543 34.2273355,80.1885543 Z M34.2273355,69.8358988 L20.5562099,69.8358988 C18.7751586,69.8358988 17.3311966,68.3919367 17.3311966,66.6108855 C17.3311966,64.8298343 18.7751586,63.3858723 20.5562099,63.3858723 L34.2273355,63.3858723 C36.0083867,63.3858723 37.4523487,64.8298343 37.4523487,66.6108855 C37.4523487,68.3919367 36.0083867,69.8358988 34.2273355,69.8358988 Z M62.9482364,80.1885543 L49.2773256,80.1885543 C47.4962744,80.1885543 46.0523124,78.7445923 46.0523124,76.9635411 C46.0523124,75.1824899 47.4962744,73.7385279 49.2773256,73.7385279 L62.9482364,73.7385279 C64.7292876,73.7385279 66.1732497,75.1824899 66.1732497,76.9635411 C66.1732497,78.7445923 64.7292876,80.1885543 62.9482364,80.1885543 Z M62.9482364,69.8358988 L49.2773256,69.8358988 C47.4962744,69.8358988 46.0523124,68.3919367 46.0523124,66.6108855 C46.0523124,64.8298343 47.4962744,63.3858723 49.2773256,63.3858723 L62.9482364,63.3858723 C64.7292876,63.3858723 66.1732497,64.8298343 66.1732497,66.6108855 C66.1732497,68.3919367 64.7292876,69.8358988 62.9482364,69.8358988 Z M66.9333654,41.3199584 L56.3751047,51.878219 C55.7453989,52.5079248 54.9199709,52.8228851 54.0947576,52.8228851 C54.0936834,52.8228851 54.0926092,52.8226703 54.0917498,52.8226703 C54.0908904,52.8226703 54.0896014,52.8228851 54.088742,52.8228851 C53.2633139,52.8228851 52.4378859,52.5081396 51.8083949,51.878219 L46.5290497,46.5990887 C45.2696381,45.3398919 45.2696381,43.2980209 46.5290497,42.0383945 C47.7882465,40.7791977 49.8303324,40.778768 51.089744,42.0383945 L54.091535,45.0401855 L62.3724563,36.7592641 C63.6316531,35.5000674 65.6737389,35.5000674 66.9331505,36.7592641 C68.1929918,38.0184609 68.1929918,40.0603319 66.9333654,41.3199584 Z" id="Shape"></path>
            <path d="M83.6739577,17.2454741 L69.0476386,1.99675391 C68.2950424,1.21257576 67.3555325,0.635721415 66.3328783,0.308944709 L66.3328783,19.792227 L66.3328783,19.792227 L85.181943,19.792227 C84.8861037,18.8482054 84.375636,17.9776602 83.6739577,17.2454741 Z" id="Path"></path>
        </g>
    </g>
</svg>