<?xml version="1.0" encoding="UTF-8"?>
<svg width="110px" height="110px" viewBox="0 0 110 110" version="1.1" xmlns="http://www.w3.org/2000/svg" xmlns:xlink="http://www.w3.org/1999/xlink">
    <title>NXTLabl_SaaS@svg</title>
    <g id="NXTLabl_SaaS" stroke="none" stroke-width="1" fill="none" fill-rule="evenodd">
        <g id="cloud-settings-symbol-with-a-gear" transform="translate(1.000000, 24.000000)" fill="#0a4ca4" fill-rule="nonzero">
            <path d="M107.188153,46.9505625 C107.188153,46.9505625 104.845987,45.5958407 103.673607,44.919775 C103.642482,44.2437093 103.569856,43.5754144 103.429793,42.9304322 C104.355766,42.1300326 106.215492,40.5421847 106.215492,40.5421847 L106.215492,37.3405861 L101.632317,32.0019982 L98.4212408,32.0019982 C98.4212408,32.0019982 96.8987031,33.3023239 96.1387312,33.955077 C95.3165089,33.5587626 94.4424115,33.2297957 93.5294076,32.9785376 C93.4567823,32.0745263 93.308938,30.2665038 93.308938,30.2665038 L91.0393971,28 L84.0284613,28.5672735 L81.7589204,30.8337774 C81.7589204,30.8337774 81.9508587,33.2116637 82.0442341,34.4006069 C81.3542937,34.7865601 80.7058535,35.2294997 80.1066947,35.7216548 C79.1210655,35.2709443 77.1420259,34.3721137 77.1420259,34.3721137 L74.0398878,35.1854648 L71.1037504,41.5757105 L71,42.0108792 L71.9181914,44.6762877 C71.9181914,44.6762877 74.2084823,45.7175844 75.3549246,46.240823 C75.4067999,46.9945974 75.5183316,47.7276495 75.7102699,48.4451599 C74.8361725,49.1833925 73.0879776,50.6624482 73.0879776,50.6624482 L73.0879776,53.8640468 L77.6348405,59.2259473 C77.6348405,59.2259473 80.2804767,59.5393724 80.4205398,59.4616637 C80.5606029,59.383955 80.8459166,59.2259473 80.8459166,59.2259473 C80.8459166,59.2259473 82.5085174,57.8220101 83.3385209,57.1200414 C84.0414301,57.4308763 84.7702769,57.6976761 85.5302489,57.9023091 C85.615843,58.8425844 85.789625,60.7309059 85.789625,60.7309059 L88.0591658,63 L95.0597266,62.3627886 L97.3292674,60.0962848 C97.3292674,60.0962848 97.1087978,57.6665927 96.9998598,56.4543369 C97.573081,56.12537 98.1255521,55.76791 98.6391167,55.3690053 C99.5547143,55.8948342 101.375535,56.9439017 101.375535,56.9439017 L104.477673,56.1331409 L108,50.0511397 L107.188153,46.9505625 Z M89.1252015,52.571492 C85.2164038,52.571492 82.0468279,49.4061575 82.0468279,45.5025903 C82.0468279,41.5990231 85.2164038,38.4336886 89.1252015,38.4336886 C93.0365931,38.4336886 96.2035815,41.5990231 96.2035815,45.5025903 C96.2087627,49.4061575 93.0365931,52.571492 89.1252015,52.571492 Z" id="Shape"></path>
            <path d="M87.0676351,20.5285133 C87.6552998,20.5285133 88.2403984,20.5775477 88.8229307,20.616259 C88.9050498,20.0330083 88.9717716,19.4471769 89,18.856184 C88.4277326,8.18734244 80.8753421,0.599922444 70.2742802,0.0244140565 C64.0537588,-0.311084107 58.8674247,2.88130995 55.5364689,7.55247668 C52.2132118,3.14970848 47.0397088,0.36507373 40.790959,0.0244140565 C30.2104269,-0.548513576 22.596447,9.05705691 22.0703716,18.856184 C22.0113485,20.1155925 22.0909014,21.3259666 22.2859342,22.4976295 C21.623849,22.4021415 20.9489327,22.3376226 20.2611853,22.2989113 C8.82353513,21.6795301 0.593662112,32.0619079 0.0265271146,42.6481653 C-0.556005213,53.4692714 8.54638319,61.4334817 18.3955421,62.8116049 L18.3955421,63 L68.5754414,63 C64.4361258,58.4862593 61.8853014,52.4756807 61.8853014,45.8483016 C61.8827352,31.8657705 73.1612796,20.5285133 87.0676351,20.5285133 Z" id="Path"></path>
        </g>
    </g>
</svg>