<?xml version="1.0" encoding="UTF-8"?>
<svg width="110px" height="110px" viewBox="0 0 110 110" version="1.1" xmlns="http://www.w3.org/2000/svg" xmlns:xlink="http://www.w3.org/1999/xlink">
    <title>NXTLabl_compliance@svg</title>
    <g id="NXTLabl_compliance" stroke="none" stroke-width="1" fill="none" fill-rule="evenodd">
        <g id="contents" fill="#0a4ca4" fill-rule="nonzero">
            <path d="M8.02083333,110 L24.0625,110 C28.4854167,110 32.0833333,106.402083 32.0833333,101.979167 L32.0833333,85.9375 C32.0833333,81.5145833 28.4854167,77.9166667 24.0625,77.9166667 L8.02083333,77.9166667 C3.59791667,77.9166667 0,81.5145833 0,85.9375 L0,101.979167 C0,106.402083 3.59791667,110 8.02083333,110 Z" id="Path"></path>
            <path d="M101.979167,0 L49.2708333,0 C44.8479167,0 41.25,3.59791667 41.25,8.02083333 L41.25,33.2291667 C41.25,37.6520833 44.8479167,41.25 49.2708333,41.25 L101.979167,41.25 C106.402083,41.25 110,37.6520833 110,33.2291667 L110,8.02083333 C110,3.59791667 106.402083,0 101.979167,0 Z" id="Path"></path>
            <path d="M3.4375,11.4583333 L28.6458333,11.4583333 C30.5433333,11.4583333 32.0833333,9.91833333 32.0833333,8.02083333 C32.0833333,6.12333333 30.5433333,4.58333333 28.6458333,4.58333333 L3.4375,4.58333333 C1.54,4.58333333 0,6.12333333 0,8.02083333 C0,9.91833333 1.54,11.4583333 3.4375,11.4583333 Z" id="Path"></path>
            <path d="M3.4375,25.2083333 L28.6458333,25.2083333 C30.5433333,25.2083333 32.0833333,23.6683333 32.0833333,21.7708333 C32.0833333,19.8733333 30.5433333,18.3333333 28.6458333,18.3333333 L3.4375,18.3333333 C1.54,18.3333333 0,19.8733333 0,21.7708333 C0,23.6683333 1.54,25.2083333 3.4375,25.2083333 Z" id="Path"></path>
            <path d="M3.4375,38.9583333 L28.6458333,38.9583333 C30.5433333,38.9583333 32.0833333,37.4183333 32.0833333,35.5208333 C32.0833333,33.6233333 30.5433333,32.0833333 28.6458333,32.0833333 L3.4375,32.0833333 C1.54,32.0833333 0,33.6233333 0,35.5208333 C0,37.4183333 1.54,38.9583333 3.4375,38.9583333 Z" id="Path"></path>
            <path d="M106.5625,48.125 L3.4375,48.125 C1.54,48.125 0,49.665 0,51.5625 C0,53.46 1.54,55 3.4375,55 L106.5625,55 C108.46,55 110,53.46 110,51.5625 C110,49.665 108.46,48.125 106.5625,48.125 Z" id="Path"></path>
            <path d="M106.5625,61.875 L3.4375,61.875 C1.54,61.875 0,63.415 0,65.3125 C0,67.21 1.54,68.75 3.4375,68.75 L106.5625,68.75 C108.46,68.75 110,67.21 110,65.3125 C110,63.415 108.46,61.875 106.5625,61.875 Z" id="Path"></path>
            <path d="M77,48.1942658 C58.8997464,48.1942658 44.1942658,62.9241273 44.1942658,81 C44.1942658,99.0748977 58.9241273,113.804759 77,113.804759 C95.0748977,113.804759 109.804759,99.0748977 109.804759,81 C109.804759,62.9241273 95.1002536,48.1942658 77,48.1942658 Z M93.4521164,73.1357519 L73.6539889,91.8094405 C73.2882779,92.1683248 72.7938366,92.3662962 72.2808662,92.3596404 C71.74449,92.3643458 71.229569,92.1478448 70.8580067,91.7597037 L60.4971719,81.1248293 C59.7384435,80.3368442 59.7550223,79.0836747 60.5361811,78.3171447 C61.3163645,77.5506145 62.5685587,77.5554908 63.3438657,78.3278723 L72.3315779,87.5652431 L90.705871,70.2393214 C91.5055589,69.4805932 92.7684808,69.514726 93.527209,70.3144139 C94.2859372,71.1141019 94.2518043,72.3770237 93.4521164,73.1357519 L93.4521164,73.1357519 Z" id="Shape"></path>
        </g>
    </g>
</svg>