<?xml version="1.0" encoding="UTF-8"?>
<svg width="110px" height="110px" viewBox="0 0 110 110" version="1.1" xmlns="http://www.w3.org/2000/svg" xmlns:xlink="http://www.w3.org/1999/xlink">
    <title>NXTLabl_lifecycle@svg</title>
    <g id="NXTLabl_lifecycle" stroke="none" stroke-width="1" fill="none" fill-rule="evenodd">
        <g id="pills" fill="#0a4ca4" fill-rule="nonzero">
            <path d="M59.1479883,80.0522852 C65.3402148,73.8600586 70.7237695,68.4762891 75.4101562,63.7901172 L75.4101562,41.9525391 C75.4101562,37.1146875 70.8543945,32.8710938 65.6605469,32.8710938 L61.6601562,32.8710938 C61.6601562,30.6470312 61.6601562,27.7247266 61.6601562,25.5664062 L63.7847461,25.5664062 C67.2310547,25.5664062 70.2539062,22.6032812 70.2539062,19.225293 L70.2539062,6.75103516 C70.2539062,3.56425781 67.4873633,0 63.7847461,0 L55.3972461,0 L55.3972461,19.1210938 L48.9519336,19.1210938 L48.9519336,0 L41.0351562,0 L41.0351562,19.1210938 L34.5898438,19.1210938 L34.5898438,0 L26.1548633,0 L26.1548633,19.1210938 L19.7095508,19.1210938 L19.7095508,0 L11.8402539,0 C8.13763672,0 5.37109375,3.56425781 5.37109375,6.75103516 L5.37109375,19.225293 C5.37109375,22.6032812 8.39394531,25.5664062 11.8402539,25.5664062 L13.5351562,25.5664062 L13.5351562,32.8710938 L10.1792969,32.8710938 C5.15195313,32.8710938 0,37.0141406 0,41.9525391 L0,100.542578 C0,105.315547 5.04216797,110 10.1792969,110 L59.8672852,110 L59.1479883,109.280703 C51.0898438,101.222559 51.0898438,88.1106445 59.1479883,80.0522852 Z" id="Shape"></path>
            <path d="M105.83418,64.8166406 L104.723008,63.7054687 C99.162207,58.144668 90.1376953,58.1777539 84.6104102,63.7048242 L76.6742969,71.6411523 L97.8989258,92.8655664 L105.834395,84.9300977 C111.379512,79.3847656 111.379512,70.3619727 105.83418,64.8166406 L105.83418,64.8166406 Z" id="Path"></path>
            <path d="M63.7054688,84.6099805 C58.1601367,90.1553125 58.1601367,99.1781055 63.7054688,104.723438 L64.8166406,105.834609 C70.3617578,111.379727 79.3845508,111.379941 84.9298828,105.834609 L93.3410156,97.4232617 L72.1166016,76.1988477 L63.7054688,84.6099805 Z" id="Path"></path>
        </g>
        <rect id="Rectangle" fill="#FFFFFF" x="0" y="55" width="45" height="34"></rect>
    </g>
</svg>