<?xml version="1.0" encoding="UTF-8"?>
<svg width="110px" height="110px" viewBox="0 0 110 110" version="1.1" xmlns="http://www.w3.org/2000/svg" xmlns:xlink="http://www.w3.org/1999/xlink">
    <title>NXTLabl_mnage@svg</title>
    <g id="NXTLabl_mnage" stroke="none" stroke-width="1" fill="none" fill-rule="evenodd">
        <g id="triple-circular-arrows-symbol" fill="#0a4ca4" fill-rule="nonzero">
            <path d="M77.5309115,33.9799983 L97.1491543,34.6255682 L87.899161,17.312577 L78.6485466,-2.94230261e-15 L71.1195207,12.1037103 C52.4220121,3.84422567 29.9512945,10.3982712 18.8503087,28.243578 L28.6825158,34.359928 C36.4024382,21.9497894 51.7335836,17.0972491 64.9182818,22.0725678 L57.9122545,33.3348426 L77.5309115,33.9799983 Z" id="Path"></path>
            <path d="M108.202313,71.5031772 C111.421052,60.8318122 110.291615,49.5457271 105.021877,39.7238723 L94.818436,45.1985863 C98.6260145,52.2948857 99.4419833,60.4491909 97.1164411,68.159175 C95.3666941,73.9604008 91.9957759,78.987274 87.4107392,82.742884 L81.136413,71.048918 L70.7969428,87.7347664 L60.4576798,104.419372 L80.0771649,105.030987 L99.69665,105.642601 L92.9597828,93.0860809 C100.228552,87.7695501 105.555642,80.2769644 108.202313,71.5031772 Z" id="Path"></path>
            <path d="M33.5189066,87.3086654 C29.4314017,82.8354336 26.8395981,77.3658957 25.9611013,71.5048336 L39.2184727,72.1025758 L30.1792523,54.6784009 L21.1406531,37.2550542 L10.5703266,53.7943139 L0,70.3344018 L14.2350432,70.9764519 C15.0804126,79.9425849 18.7890231,88.3546625 24.9707997,95.1196881 C32.4892661,103.348116 42.7622744,108.156348 53.8968017,108.658435 L54.418765,97.0907673 C46.3735732,96.7278155 38.9511761,93.2539953 33.5189066,87.3086654 Z" id="Path"></path>
        </g>
    </g>
</svg>