<?xml version="1.0" encoding="UTF-8"?>
<svg width="110px" height="110px" viewBox="0 0 110 110" version="1.1" xmlns="http://www.w3.org/2000/svg" xmlns:xlink="http://www.w3.org/1999/xlink">
    <title>NXTpatient_hybrid@svg</title>
    <g id="NXTpatient_hybrid" stroke="none" stroke-width="1" fill="none" fill-rule="evenodd">
        <g id="cloud" transform="translate(0.000000, -0.000000)" fill="#0a4ca4" fill-rule="nonzero">
            <path d="M58.251147,86.6830116 L58.251147,86.6815085 C50.7301706,84.54456 43.1845007,90.2311362 43.1845007,98.0797839 C43.1845007,104.61152 48.4985281,109.925547 55.0302641,109.925547 C61.562,109.925547 66.8760274,104.61152 66.8760274,98.0797839 C66.8760274,92.6646207 63.2220431,88.0898932 58.251147,86.6830116 L58.251147,86.6830116 Z" id="Path"></path>
            <path d="M98.1544514,86.2342352 C92.7395029,86.2342352 88.1647755,89.8877901 86.7576791,94.8582567 L80.675149,94.8582567 L80.675149,79.2477106 C80.675149,75.4900138 77.6196046,72.4344695 73.8619079,72.4344695 L64.6931277,72.4344695 L64.6931277,78.8762354 L73.8619079,78.8762354 C74.0680444,78.8762354 74.233383,79.0437213 74.233383,79.2477106 L74.233383,95.3263584 C74.233383,98.620248 76.9131576,101.300023 80.2070473,101.300023 L86.7572496,101.300023 C88.1639166,106.271133 92.7390735,109.925547 98.1544514,109.925547 C104.686187,109.925547 110,104.61152 110,98.0797839 C110,91.5480479 104.686187,86.2342352 98.1544514,86.2342352 L98.1544514,86.2342352 Z" id="Path"></path>
            <path d="M22.5334875,63.5564277 C22.6075678,63.5564277 21.8160895,63.5581455 51.8093811,63.494372 L51.8093811,80.0765512 C53.8709609,79.7082969 56.0807013,79.6887568 58.251147,80.0765512 C58.251147,79.2492137 58.251147,66.1174591 58.251147,63.4806296 L87.6625325,63.4181445 C99.7556596,63.3930216 110,53.7439004 110,41.1558308 C110,26.2536643 96.9545651,14.9556657 82.8009317,17.6206243 C79.6129017,13.0175531 74.3778933,10.2619803 68.630335,10.3369196 C58.4828359,-5.81172874 33.8604739,-2.36023055 28.5436551,15.9601518 C8.89261865,12.0270242 -6.06881218,33.3009562 2.43947226,51.0463035 C6.09216827,58.650164 13.9753867,63.5568571 22.5334875,63.5564277 Z" id="Path"></path>
            <path d="M45.3676152,72.4344695 L36.198835,72.4344695 C32.4411382,72.4344695 29.3855939,75.4900138 29.3855939,79.2477106 L29.3855939,94.8582567 L23.3030638,94.8582567 C21.8959674,89.8877901 17.3212399,86.2342352 11.9062915,86.2342352 C5.37455555,86.2342352 0.0605281032,91.5480479 0.0605281032,98.0797839 C0.0605281032,104.61152 5.37455555,109.925547 11.9062915,109.925547 C17.3216694,109.925547 21.8968263,106.271133 23.3034932,101.300023 L29.8536955,101.300023 C33.1475852,101.300023 35.8273598,98.620248 35.8273598,95.3263584 L35.8273598,79.2477106 C35.8273598,79.0437213 35.9926985,78.8762354 36.198835,78.8762354 L45.3676152,78.8762354 L45.3676152,72.4344695 Z" id="Path"></path>
        </g>
    </g>
</svg>