<?xml version="1.0" encoding="UTF-8"?>
<svg width="110px" height="110px" viewBox="0 0 110 110" version="1.1" xmlns="http://www.w3.org/2000/svg" xmlns:xlink="http://www.w3.org/1999/xlink">
    <title>NXTpatient_comply_data@svg</title>
    <g id="NXTpatient_comply_data" stroke="none" stroke-width="1" fill="none" fill-rule="evenodd">
        <g id="secure" transform="translate(11.000000, 0.000000)" fill="#0a4ca4" fill-rule="nonzero">
            <path d="M38.7664062,25.3601563 L42.7710937,31.3671875 L75.1953125,31.3671875 L75.1953125,3.22265625 C75.1953125,1.44375 73.7515625,0 71.9726562,0 L6.66015625,0 C4.88125,0 3.4375,1.44375 3.4375,3.22265625 L3.4375,21.0546875 L30.7226562,21.0546875 C33.9625,21.0546875 36.9703125,22.6638672 38.7664062,25.3601563 Z M62.5195313,25.5664062 L47.6953125,25.5664062 C45.9155469,25.5664062 44.4726562,24.1235156 44.4726562,22.34375 C44.4726562,20.5639844 45.9155469,19.1210938 47.6953125,19.1210938 L62.5195313,19.1210938 C64.2992969,19.1210938 65.7421875,20.5639844 65.7421875,22.34375 C65.7421875,24.1235156 64.2992969,25.5664062 62.5195313,25.5664062 Z M13.3203125,10.3125 C13.3203125,8.53273438 14.7632031,7.08984375 16.5429687,7.08984375 L62.5195312,7.08984375 C64.2992969,7.08984375 65.7421875,8.53273438 65.7421875,10.3125 C65.7421875,12.0922656 64.2992969,13.5351562 62.5195312,13.5351562 L16.5429687,13.5351562 C14.7632031,13.5351562 13.3203125,12.0922656 13.3203125,10.3125 Z" id="Shape"></path>
            <path d="M85.7226562,22.5585938 L81.640625,22.5585938 L81.640625,31.3671875 L88.9453125,31.3671875 L88.9453125,25.78125 C88.9453125,24.0023438 87.5015625,22.5585938 85.7226562,22.5585938 Z" id="Path"></path>
            <path d="M85.7226562,37.8125 L39.3228516,37.8125 L33.4039062,28.9351563 C32.8066406,28.0392578 31.8011719,27.5 30.7226562,27.5 L3.22265625,27.5 C1.44375,27.5 0,28.94375 0,30.7226562 L0,72.1875 L19.1462305,72.1875 C19.6788281,71.2675391 20.3214258,70.4122461 21.0632813,69.6458984 C21.3855469,57.0130859 31.7625,46.8359375 44.4726562,46.8359375 C57.1828125,46.8359375 67.5597656,57.0130859 67.8820312,69.6458984 C68.6241016,70.4122461 69.2666992,71.2675391 69.799082,72.1875 L88.9453125,72.1875 L88.9453125,41.0351562 C88.9453125,39.25625 87.5015625,37.8125 85.7226562,37.8125 Z" id="Path"></path>
            <path d="M0,92.5976562 C0,94.3765625 1.44375,95.8203125 3.22265625,95.8203125 L17.4023438,95.8203125 L17.4023438,78.6328125 L0,78.6328125 L0,92.5976562 Z" id="Path"></path>
            <path d="M71.5429688,95.8203125 L85.7226562,95.8203125 C87.5015625,95.8203125 88.9453125,94.3765625 88.9453125,92.5976562 L88.9453125,78.6328125 L71.5429688,78.6328125 L71.5429688,95.8203125 Z" id="Path"></path>
            <path d="M61.4453125,72.8234375 L61.4453125,70.2539062 C61.4453125,60.8953125 53.83125,53.28125 44.4726562,53.28125 C35.1140625,53.28125 27.5,60.8953125 27.5,70.2539062 L27.5,72.8234375 C25.3386719,73.8632812 23.8476562,76.0740234 23.8476562,78.6328125 L23.8476562,103.554688 C23.8476562,107.114648 26.7330078,110 30.2929688,110 L58.6523438,110 C62.2123047,110 65.0976562,107.114648 65.0976562,103.554688 L65.0976562,78.6328125 C65.0976562,76.0740234 63.6066406,73.8632812 61.4453125,72.8234375 Z M47.6953125,96.25 C47.6953125,98.0289062 46.2515625,99.4726562 44.4726562,99.4726562 C42.69375,99.4726562 41.25,98.0289062 41.25,96.25 L41.25,87.65625 C41.25,85.8773438 42.69375,84.4335938 44.4726562,84.4335938 C46.2515625,84.4335938 47.6953125,85.8773438 47.6953125,87.65625 L47.6953125,96.25 Z M55,72.1875 L33.9453125,72.1875 L33.9453125,70.2539062 C33.9453125,64.4488281 38.6675781,59.7265625 44.4726562,59.7265625 C50.2777344,59.7265625 55,64.4488281 55,70.2539062 L55,72.1875 Z" id="Shape"></path>
        </g>
    </g>
</svg>