<?xml version="1.0" encoding="UTF-8"?>
<svg width="110px" height="110px" viewBox="0 0 110 110" version="1.1" xmlns="http://www.w3.org/2000/svg" xmlns:xlink="http://www.w3.org/1999/xlink">
    <title>NXTpatient_improve_experience@svg</title>
    <g id="NXTpatient_improve_experience" stroke="none" stroke-width="1" fill="none" fill-rule="evenodd">
        <g id="process" fill="#0a4ca4" fill-rule="nonzero">
            <path d="M12.8333333,22 C18.2824217,22 22.7939067,18.033785 23.6683883,12.8333333 L45.074205,12.8333333 L42.70376,15.2037783 L45.2962033,17.7962217 L52.0924433,11 L45.2962217,4.20377833 L42.7037783,6.79622167 L45.0742233,9.16666667 L23.6684067,9.16666667 C22.7939067,3.966215 18.2824217,0 12.8333333,0 C6.75818,0 1.83333333,4.92484667 1.83333333,11 C1.83333333,17.0751533 6.75818,22 12.8333333,22 Z" id="Path"></path>
            <path d="M87.0833333,9.16666667 L75.0017217,9.16666667 C74.12724,3.966215 69.615755,0 64.1666667,0 C58.0915133,0 53.1666667,4.92484667 53.1666667,11 C53.1666667,17.0751533 58.0915133,22 64.1666667,22 C69.615755,22 74.12724,18.033785 75.0017217,12.8333333 L87.0833333,12.8333333 C97.6984067,12.8333333 106.333333,21.4691583 106.333333,32.0833333 C106.333333,42.6975083 97.6984067,51.3333333 87.0833333,51.3333333 L57.5924433,51.3333333 L59.9628883,48.9628883 L57.370445,46.370445 L50.5742233,53.1666667 L57.370445,59.9628883 L59.9628883,57.370445 L57.5924433,55 L87.0833333,55 C99.71973,55 110,44.71973 110,32.0833333 C110,19.4469367 99.71973,9.16666667 87.0833333,9.16666667 L87.0833333,9.16666667 Z" id="Path"></path>
            <circle id="Oval" cx="97.1666667" cy="95.3333333" r="11"></circle>
            <path d="M45.8333333,84.3333333 C39.75818,84.3333333 34.8333333,89.25818 34.8333333,95.3333333 C34.8333333,101.408487 39.75818,106.333333 45.8333333,106.333333 C51.2824217,106.333333 55.7939067,102.367118 56.6683883,97.1666667 L78.074205,97.1666667 L75.70376,99.5371117 L78.2962033,102.129555 L85.0924433,95.3333333 L78.2962217,88.5371117 L75.7037783,91.129555 L78.0742233,93.5 L56.6684067,93.5 C55.7939067,88.2995483 51.2824217,84.3333333 45.8333333,84.3333333 L45.8333333,84.3333333 Z" id="Path"></path>
            <path d="M22.9166667,97.1666667 L26.74089,97.1666667 L24.370445,99.5371117 L26.9628883,102.129555 L33.75911,95.3333333 L26.9628883,88.5371117 L24.370445,91.129555 L26.74089,93.5 L22.9166667,93.5 C12.3015933,93.5 3.66666667,84.864175 3.66666667,74.25 C3.66666667,63.635825 12.3015933,55 22.9166667,55 L27.664945,55 C28.5394267,60.2004517 33.05093,64.1666667 38.5,64.1666667 C44.5751533,64.1666667 49.5,59.24182 49.5,53.1666667 C49.5,47.0915133 44.5751533,42.1666667 38.5,42.1666667 C33.0509117,42.1666667 28.5394267,46.1328817 27.664945,51.3333333 L22.9166667,51.3333333 C10.28027,51.3333333 0,61.6136033 0,74.25 C0,86.8863967 10.28027,97.1666667 22.9166667,97.1666667 L22.9166667,97.1666667 Z" id="Path"></path>
        </g>
    </g>
</svg>