<?xml version="1.0" encoding="UTF-8"?>
<svg width="110px" height="110px" viewBox="0 0 110 110" version="1.1" xmlns="http://www.w3.org/2000/svg" xmlns:xlink="http://www.w3.org/1999/xlink">
    <title>Omnichannel_ROI@svg</title>
    <g id="Omnichannel_ROI" stroke="none" stroke-width="1" fill="none" fill-rule="evenodd">
        <g id="coins" fill="#0a4ca4" fill-rule="nonzero">
            <ellipse id="Oval" cx="32.0833333" cy="9.16666667" rx="32.0833333" ry="9.16666667"></ellipse>
            <path d="M32.0833333,38.9583333 C49.8025,38.9583333 64.1666667,34.85625 64.1666667,29.7916667 L64.1666667,19.40125 C54.065,24.8141667 36.685,25.2083333 32.0833333,25.2083333 C27.4816667,25.2083333 10.1016667,24.8141667 0,19.40125 L0,29.7916667 C0,34.85625 14.3641667,38.9583333 32.0833333,38.9583333 Z" id="Path"></path>
            <path d="M43.5416667,86.4875 L43.5416667,100.191667 C40.0125,100.604167 36.1166667,100.833333 32.0833333,100.833333 C14.3458333,100.833333 0,96.7083333 0,91.6666667 L0,81.2625 C10.0833333,86.6708333 27.5,87.0833333 32.0833333,87.0833333 C34.0541667,87.0833333 38.4083333,86.9916667 43.5416667,86.4875 Z" id="Path"></path>
            <path d="M44.0458333,65.8166667 C43.9083333,66.2291667 43.8166667,66.7333333 43.725,67.1916667 L43.5416667,67.0541667 L43.5416667,79.5666667 C40.0125,79.9791667 36.1166667,80.2083333 32.0833333,80.2083333 C14.3458333,80.2083333 0,76.0833333 0,71.0416667 L0,60.6375 C10.0833333,66.0458333 27.5,66.4583333 32.0833333,66.4583333 C34.1,66.4583333 38.6833333,66.3666667 44.0458333,65.8166667 Z" id="Path"></path>
            <path d="M32.0833333,45.8333333 C27.4816667,45.8333333 10.1016667,45.4391667 0,40.02625 L0,50.4166667 C0,55.48125 14.3641667,59.5833333 32.0833333,59.5833333 C49.8025,59.5833333 64.1666667,55.48125 64.1666667,50.4166667 L64.1666667,40.02625 C54.065,45.4391667 36.685,45.8333333 32.0833333,45.8333333 Z" id="Path"></path>
            <ellipse id="Oval" cx="80.2083333" cy="68.75" rx="29.7916667" ry="9.16666667"></ellipse>
            <path d="M80.2083333,93.9583333 C96.6625,93.9583333 110,89.85625 110,84.7916667 L110,78.9845833 C100.6225,84.4020833 84.48,84.7916667 80.2083333,84.7916667 C75.9366667,84.7916667 59.7941667,84.3975 50.4166667,78.9845833 L50.4166667,84.7916667 C50.4166667,89.85625 63.7541667,93.9583333 80.2083333,93.9583333 Z" id="Path"></path>
            <path d="M80.2083333,100.833333 C75.9366667,100.833333 59.7941667,100.439167 50.4166667,95.02625 L50.4166667,100.833333 C50.4166667,105.897917 63.7541667,110 80.2083333,110 C96.6625,110 110,105.897917 110,100.833333 L110,95.02625 C100.6225,100.439167 84.48,100.833333 80.2083333,100.833333 Z" id="Path"></path>
        </g>
    </g>
</svg>