<?xml version="1.0" encoding="UTF-8"?>
<svg width="110px" height="110px" viewBox="0 0 110 110" version="1.1" xmlns="http://www.w3.org/2000/svg" xmlns:xlink="http://www.w3.org/1999/xlink">
    <title>Omnichannel Marketing Operations_5@svg</title>
    <g id="Omnichannel-Marketing-Operations_5" stroke="none" stroke-width="1" fill="none" fill-rule="evenodd">
        <g id="noun_Globe_1810381" fill="#0A4CA4" fill-rule="nonzero">
            <g id="Group">
                <path d="M66.2766065,0 C78.7718064,2.61607561 89.6986961,9.46406792 97.5076226,19.0093411 L79.6493917,19.0093411 C78.9134649,17.1720226 78.1500381,15.4136081 77.3018309,13.752333 C74.3204286,7.91262307 70.5851239,3.1085824 66.2766065,0 L66.2766065,0 Z M43.7233881,0 C39.4148761,3.1085824 35.6795714,7.91262307 32.6981691,13.752333 C31.8499619,15.4136081 31.0865351,17.1720226 30.3506083,19.0093411 L12.4923774,19.0093411 C20.3013039,9.46406792 31.2281936,2.61607561 43.7233881,0 Z M57.682924,1.85046683 C63.1146433,3.09006428 68.3593625,8.03671874 72.5228677,16.1915847 C72.9827213,17.0921901 73.394953,18.0395619 73.8223432,19.0093411 L57.682924,19.0093411 L57.682924,1.85046683 Z M52.3170706,1.85046683 L52.3170706,19.0093411 L36.1776568,19.0093411 C36.605047,18.0395619 37.0172787,17.0921901 37.4771323,16.1915847 C41.6406321,8.03671874 46.8853514,3.09006428 52.3170706,1.85046683 Z M101.406317,24.3925173 C104.526293,29.3042484 106.915037,34.737071 108.365024,40.542046 L85.0152451,40.542046 C84.2985013,34.7785887 83.1354525,29.3545273 81.5777453,24.3925173 L101.406317,24.3925173 Z M75.9185139,24.3925173 C77.5600626,29.2481422 78.8339162,34.6852041 79.6075381,40.542046 L57.682924,40.542046 L57.682924,24.3925173 L75.9185139,24.3925173 Z M52.3170706,24.3925173 L52.3170706,40.542046 L30.3924619,40.542046 C31.1660838,34.6852041 32.4399374,29.2481422 34.0814861,24.3925173 L52.3170706,24.3925173 Z M28.4222547,24.3925173 C26.8645475,29.3545273 25.7014987,34.7785887 24.9847549,40.542046 L1.63497553,40.542046 C3.08496326,34.737071 5.47370705,29.3042484 8.59368251,24.3925173 L28.4222547,24.3925173 Z M109.41311,45.9252222 C109.797976,48.5594795 110,51.2584964 110,54.0000135 C110,56.741396 109.797976,59.4405205 109.41311,62.0747778 L85.5601475,62.0747778 C85.7519768,59.4382327 85.8536597,56.7400502 85.8536597,54.0000135 C85.8536597,51.2599768 85.7517085,48.5638129 85.5601475,45.9252222 L109.41311,45.9252222 Z M80.1524405,45.9252222 C80.3562088,48.5568014 80.4878063,51.2562085 80.4878063,54.0000135 C80.4878063,56.7438184 80.3563429,59.4455 80.1524405,62.0747778 L57.682924,62.0747778 L57.682924,45.9252222 L80.1524405,45.9252222 Z M52.3170706,45.9252222 L52.3170706,62.0747778 L29.8475595,62.0747778 C29.6437912,59.4455 29.5121937,56.7438184 29.5121937,54.0000135 C29.5121937,51.2562085 29.6436571,48.5568014 29.8475595,45.9252222 L52.3170706,45.9252222 Z M24.4398525,45.9252222 C24.2480232,48.5638129 24.1463403,51.2599768 24.1463403,54.0000135 C24.1463403,56.7400502 24.2482915,59.4382327 24.4398525,62.0747778 L0.586890215,62.0747778 C0.20202438,59.4405205 0,56.741396 0,54.0000135 C0,51.2584964 0.20202438,48.5594795 0.586890215,45.9252222 L24.4398525,45.9252222 Z M108.365024,67.457954 C106.915037,73.2629021 104.526293,78.6957381 101.406317,83.6074827 L81.5777453,83.6074827 C83.1361233,78.6515961 84.2983671,73.2157993 85.0152451,67.457954 L108.365024,67.457954 L108.365024,67.457954 Z M79.6075381,67.457954 C78.8313674,73.3065058 77.5624772,78.76074 75.9185139,83.6074827 L57.682924,83.6074827 L57.682924,67.457954 L79.6075381,67.457954 L79.6075381,67.457954 Z M52.3170706,67.457954 L52.3170706,83.6074827 L34.0814861,83.6074827 C32.4375228,78.76074 31.1686326,73.3065058 30.3924619,67.457954 L52.3170706,67.457954 L52.3170706,67.457954 Z M24.9847549,67.457954 C25.7016329,73.2157993 26.8638767,78.6515961 28.4222547,83.6074827 L8.59368251,83.6074827 C5.47370705,78.6957381 3.08496326,73.2629021 1.63497553,67.457954 L24.9847549,67.457954 L24.9847549,67.457954 Z M97.5076226,88.9906589 C89.690379,98.5460659 78.7465869,105.390236 66.2347529,108 C70.5550751,104.880449 74.3139895,100.057931 77.3018309,94.2056109 C78.144404,92.5551291 78.9174893,90.8131333 79.6493917,88.9906589 L97.5076226,88.9906589 Z M73.8223432,88.9906589 C73.3997823,89.9472494 72.9770872,90.8765202 72.5228677,91.7663592 C68.3593625,99.9211983 63.1146433,104.901175 57.682924,106.149533 L57.682924,88.9906589 L73.8223432,88.9906589 Z M52.3170706,88.9906589 L52.3170706,106.149533 C46.8853514,104.901175 41.6406321,99.9211983 37.4771323,91.7663592 C37.0229128,90.8765202 36.6002177,89.9472494 36.1776568,88.9906589 L52.3170706,88.9906589 Z M30.3506083,88.9906589 C31.0825107,90.8131333 31.855596,92.5551291 32.6981691,94.2056109 C35.6860105,100.057931 39.4449249,104.880449 43.7652418,108 C31.2534131,105.390236 20.309621,98.5460659 12.4923774,88.9906589 L30.3506083,88.9906589 Z" id="Shape"></path>
            </g>
        </g>
    </g>
</svg>