<?xml version="1.0" encoding="UTF-8"?>
<svg width="110px" height="110px" viewBox="0 0 110 110" version="1.1" xmlns="http://www.w3.org/2000/svg" xmlns:xlink="http://www.w3.org/1999/xlink">
    <title>Omnichannel_customer@svg</title>
    <g id="Omnichannel_customer" stroke="none" stroke-width="1" fill="none" fill-rule="evenodd">
        <g id="speech" transform="translate(15.040537, 0.000000)" fill="#0a4ca4" fill-rule="nonzero">
            <path d="M3.22264996,77.5584423 C1.44288781,77.5584423 3.05310735e-15,79.0013301 3.05310735e-15,80.7810922 L3.05310735e-15,94.1013787 C3.05310735e-15,95.8811409 1.44288781,97.3240287 3.22264996,97.3240287 C5.0024121,97.3240287 6.44529991,95.8811409 6.44529991,94.1013787 L6.44529991,80.7810922 C6.44529991,79.0013301 5.00262695,77.5584423 3.22264996,77.5584423 Z" id="Path"></path>
            <path d="M16.1145388,81.8557386 C14.3347767,81.8557386 12.8918889,83.2986264 12.8918889,85.0783885 L12.8918889,89.8040824 C12.8918889,91.5838446 14.3347767,93.0267324 16.1145388,93.0267324 C17.894301,93.0267324 19.3371888,91.5838446 19.3371888,89.8040824 L19.3371888,85.0783885 C19.3371888,83.2986264 17.894301,81.8557386 16.1145388,81.8557386 Z" id="Path"></path>
            <path d="M73.0505995,20.9210138 L73.0505995,38.6750221 C73.0505995,40.4547843 71.6077117,41.8976721 69.8279496,41.8976721 L55.9881719,41.8976721 L49.6805866,48.2041832 C49.0513104,48.8332445 48.2267417,49.1479899 47.402173,49.1479899 C46.5773895,49.1479899 45.7528208,48.8334593 45.1233298,48.2041832 L38.8168187,41.8978869 L30.6733971,41.8978869 C29.65461,45.0685448 29.102033,48.4463116 29.102033,51.9512657 L29.102033,59.7032428 L21.4493136,75.0924705 C20.952381,76.0912772 21.0075957,77.2761381 21.595407,78.2244566 C22.1827887,79.1729899 23.2194078,79.7500591 24.3348743,79.7500591 L29.102033,79.7500591 L29.102033,96.5746551 C29.102033,98.3544173 30.5449208,99.7973051 32.324683,99.7973051 L47.1357673,99.7973051 L47.1357673,106.77735 C47.1357673,108.557112 48.5786551,110 50.3584173,110 L80.6777526,110 C82.4575147,110 83.9004025,108.557112 83.9004025,106.77735 L83.9004025,91.3193724 C83.9004025,85.4865908 85.8054183,81.9423204 88.2172496,77.4551026 C91.377595,71.5754852 94.959463,64.9110451 94.959463,51.9514806 C94.959463,37.6575241 85.8039144,25.4640909 73.0505995,20.9210138 L73.0505995,20.9210138 Z" id="Path"></path>
            <path d="M40.1514255,35.4523722 C41.0062871,35.4523722 41.8256996,35.7918246 42.4300538,36.3963938 L47.402173,41.3680833 L52.3749368,36.3961789 C52.9792911,35.7918246 53.7989184,35.4523722 54.6533503,35.4523722 L66.6052996,35.4523722 L66.6052996,3.22264996 C66.6052996,1.44288781 65.1624118,0 63.3826496,0 L9.66794987,0 C7.88818772,0 6.44529991,1.44288781 6.44529991,3.22264996 L6.44529991,32.2264996 C6.44529991,34.0062617 7.88818772,35.4491495 9.66794987,35.4491495 L9.66794987,35.4523722 L40.1514255,35.4523722 Z M51.0278691,16.1151834 C52.8076312,16.1151834 54.250519,17.5580712 54.250519,19.3378333 C54.250519,21.1175955 52.8076312,22.5604833 51.0278691,22.5604833 C49.2481069,22.5604833 47.8052191,21.1175955 47.8052191,19.3378333 C47.8052191,17.5580712 49.2481069,16.1151834 51.0278691,16.1151834 Z M36.5252998,16.1151834 C38.3050619,16.1151834 39.7479497,17.5580712 39.7479497,19.3378333 C39.7479497,21.1175955 38.3050619,22.5604833 36.5252998,22.5604833 C34.7455376,22.5604833 33.3026498,21.1175955 33.3026498,19.3378333 C33.3026498,17.5580712 34.7455376,16.1151834 36.5252998,16.1151834 Z M22.0227304,16.1151834 C23.8024926,16.1151834 25.2453804,17.5580712 25.2453804,19.3378333 C25.2453804,21.1175955 23.8024926,22.5604833 22.0227304,22.5604833 C20.2429683,22.5604833 18.8000805,21.1175955 18.8000805,19.3378333 C18.8000805,17.5580712 20.2429683,16.1151834 22.0227304,16.1151834 Z" id="Shape"></path>
        </g>
    </g>
</svg>