<?xml version="1.0" encoding="UTF-8"?>
<svg width="110px" height="110px" viewBox="0 0 110 110" version="1.1" xmlns="http://www.w3.org/2000/svg" xmlns:xlink="http://www.w3.org/1999/xlink">
    <title>Omnichannel_Collaboration@svg</title>
    <g id="Omnichannel_Collaboration" stroke="none" stroke-width="1" fill="none" fill-rule="evenodd">
        <g id="idea" transform="translate(0.000000, -0.000000)" fill="#0a4ca4" fill-rule="nonzero">
            <path d="M32.4486631,70.6476274 C32.4486631,64.0491455 27.0803739,58.6808563 20.481892,58.6808563 C4.60626209,59.3382768 4.6107738,81.9595562 20.481892,82.6143985 C27.0805887,82.6143985 32.4486631,77.2461093 32.4486631,70.6476274 Z" id="Path"></path>
            <path d="M101.485116,70.6476274 C101.485116,64.0491455 96.1168268,58.6808563 89.5183449,58.6808563 C73.642715,59.3382768 73.6472267,81.9595562 89.5183449,82.6143985 C96.1168268,82.6143985 101.485116,77.2461093 101.485116,70.6476274 Z" id="Path"></path>
            <path d="M66.9668895,70.6476274 C66.9668895,64.0491455 61.5986003,58.6808563 55.0001184,58.6808563 C39.1244885,59.3382768 39.1290003,81.9595562 55.0001184,82.6143985 C61.5986003,82.6143985 66.9668895,77.2461093 66.9668895,70.6476274 Z" id="Path"></path>
            <path d="M33.317919,87.1484512 C20.1933574,76.3964041 -0.0798996973,85.9833561 0,103.096268 L0,106.776964 C0,108.556725 1.44312437,109.999613 3.22288616,109.999613 L28.6274604,109.999613 C28.2697463,108.990924 28.0731647,107.906825 28.0731647,106.776964 L28.0731647,103.096054 C28.0731647,97.132004 30.023512,91.6156877 33.317919,87.1484512 L33.317919,87.1484512 Z" id="Path"></path>
            <path d="M89.5183449,82.6143985 C84.6624569,82.6143985 80.1967243,84.3142386 76.6823178,87.1484512 C79.9769396,91.6156877 81.9270722,97.132004 81.9270722,103.096054 L81.9270722,106.776964 C81.9270722,107.90661 81.7304906,108.990924 81.3727765,109.999613 L106.777351,109.999613 C108.557112,109.999613 110,108.556725 110,106.776964 L110,103.096054 C110,91.8023865 100.812012,82.6143985 89.5183449,82.6143985 Z" id="Path"></path>
            <path d="M55.0001184,82.6143985 C43.7064513,82.6143985 34.5184633,91.8026014 34.5184633,103.096054 L34.5184633,106.776964 C34.5184633,108.556725 35.9613508,109.999613 37.7411126,109.999613 L72.2593391,109.999613 C74.0391009,109.999613 75.4819884,108.556725 75.4819884,106.776964 L75.4819884,103.096054 C75.4819884,91.8023865 66.2937855,82.6143985 55.0001184,82.6143985 Z" id="Path"></path>
            <path d="M29.6645089,0.943871234 C28.4061718,-0.3144659 26.3655902,-0.314680744 25.1070383,0.943871234 C23.8484863,2.20242321 23.8484863,4.24278991 25.1070383,5.50134189 L28.5587105,8.95322899 C29.8174773,10.2119958 31.857844,10.2113513 33.1161812,8.95322899 C34.3747331,7.69467701 34.3747331,5.65431031 33.1161812,4.39575833 L29.6645089,0.943871234 Z" id="Path"></path>
            <path d="M28.5584957,28.5583235 L25.1068234,32.0102106 C23.8484863,33.2687626 23.8484863,35.3091293 25.1068234,36.5676812 C26.3658051,37.8264481 28.4061718,37.8258035 29.6642941,36.5676812 L33.1159663,33.1157941 C34.3743035,31.8572422 34.3743035,29.8168755 33.1159663,28.5583235 C31.8574143,27.2997715 29.8172625,27.2997715 28.5584957,28.5583235 Z" id="Path"></path>
            <path d="M20.9515394,21.9783181 L25.8332086,21.9783181 C30.1090197,21.8079474 30.105797,15.7016715 25.8332086,15.5330195 L20.9515394,15.5330195 C16.6757283,15.7033902 16.6789509,21.8096661 20.9515394,21.9783181 L20.9515394,21.9783181 Z" id="Path"></path>
            <path d="M81.4415263,8.95322899 L84.8931986,5.50134189 C86.1515357,4.24278991 86.1515357,2.20242321 84.8931986,0.943871234 C83.6346466,-0.3144659 81.5940651,-0.3144659 80.3357279,0.943871234 L76.8838408,4.39575833 C75.6255037,5.65431031 75.6255037,7.69467701 76.8838408,8.95322899 C78.1423928,10.2113513 80.1827595,10.2119958 81.4415263,8.95322899 L81.4415263,8.95322899 Z" id="Path"></path>
            <path d="M80.3357279,36.5676812 C81.5938502,37.8258035 83.6342169,37.8266629 84.8931986,36.5676812 C86.1517506,35.3091293 86.1517506,33.2687626 84.8931986,32.0102106 L81.4415263,28.5583235 C80.1829744,27.2997715 78.1426077,27.2997715 76.8840557,28.5583235 C75.6255037,29.8168755 75.6255037,31.8572422 76.8840557,33.1157941 L80.3357279,36.5676812 Z" id="Path"></path>
            <path d="M80.944379,18.7556688 C80.944379,20.5354306 82.3872665,21.9783181 84.1670283,21.9783181 L89.0486975,21.9783181 C93.3245086,21.8079474 93.3212859,15.7016715 89.0486975,15.5330195 L84.1670283,15.5330195 C82.3872665,15.5330195 80.944379,16.975907 80.944379,18.7556688 Z" id="Path"></path>
            <path d="M44.8739098,41.1926127 C45.4318578,54.6297713 64.5737502,54.6194588 65.1265419,41.1926127 L65.1265419,40.734352 L44.8739098,40.734352 L44.8739098,41.1926127 Z" id="Path"></path>
            <path d="M44.8739098,34.2890533 L65.1265419,34.2890533 C65.1265419,32.2314992 65.9300558,30.2710542 67.3355606,28.7669363 C77.61839,18.0529164 69.8571763,-0.0394664925 54.9999036,-6.10621349e-15 C40.1432754,-0.0394664925 32.3812023,18.0552797 42.6646762,28.7669363 C44.070181,30.2710542 44.8739098,32.2314992 44.8739098,34.2890533 Z" id="Path"></path>
        </g>
    </g>
</svg>