<?xml version="1.0" encoding="UTF-8"?>
<svg width="110px" height="110px" viewBox="0 0 110 110" version="1.1" xmlns="http://www.w3.org/2000/svg" xmlns:xlink="http://www.w3.org/1999/xlink">
    <title>Omnichannel_messaging@svg</title>
    <g id="Omnichannel_messaging" stroke="none" stroke-width="1" fill="none" fill-rule="evenodd">
        <g id="letter" fill="#0a4ca4" fill-rule="nonzero">
            <polygon id="Path" points="2.48359375 30.1017578 12.2179492 39.7579102 12.2179492 26.0626953"></polygon>
            <polygon id="Path" points="107.516406 30.1017578 97.7820508 26.0626953 97.7820508 39.7579102"></polygon>
            <path d="M91.3369531,4.03240234 C91.3369531,1.80898438 89.5279688,0 87.3045508,0 L22.6954492,0 C20.4720312,0 18.6632617,1.80898438 18.6632617,4.03240234 L18.6632617,46.1514453 L39.6133203,66.9334961 L52.916875,55.6623633 C54.1189258,54.6440039 55.8812891,54.6440039 57.0833398,55.6623633 L70.3868945,66.9334961 L91.3369531,46.1514453 L91.3369531,4.03240234 L91.3369531,4.03240234 Z M72.9456836,39.4867773 L37.0543164,39.4867773 C35.2745508,39.4867773 33.8316602,38.0438867 33.8316602,36.2641211 C33.8316602,34.4843555 35.2745508,33.0414648 37.0543164,33.0414648 L72.9456836,33.0414648 C74.7254492,33.0414648 76.1683398,34.4843555 76.1683398,36.2641211 C76.1683398,38.0438867 74.7254492,39.4867773 72.9456836,39.4867773 Z M72.9456836,22.2004492 L37.0543164,22.2004492 C35.2745508,22.2004492 33.8316602,20.7575586 33.8316602,18.977793 C33.8316602,17.1980273 35.2745508,15.7551367 37.0543164,15.7551367 L72.9456836,15.7551367 C74.7254492,15.7551367 76.1683398,17.1980273 76.1683398,18.977793 C76.1683398,20.7575586 74.7254492,22.2004492 72.9456836,22.2004492 Z" id="Shape"></path>
            <polygon id="Path" points="0 36.716582 0 100.495313 34.6770703 71.1156445"></polygon>
            <polygon id="Path" points="75.3229297 71.1156445 110 100.495313 110 36.716582"></polygon>
            <polygon id="Path" points="55 62.3450781 5.56660156 104.226504 104.433398 104.226504"></polygon>
        </g>
    </g>
</svg>