<?xml version="1.0" encoding="UTF-8"?>
<svg width="110px" height="110px" viewBox="0 0 110 110" version="1.1" xmlns="http://www.w3.org/2000/svg" xmlns:xlink="http://www.w3.org/1999/xlink">
    <title>Omnichannel_scoring@svg</title>
    <g id="Omnichannel_scoring" stroke="none" stroke-width="1" fill="none" fill-rule="evenodd">
        <g id="algorithm" fill="#0a4ca4" fill-rule="nonzero">
            <path d="M98.9048242,81.7345117 L98.9048242,58.2767969 L72.0257227,58.2767969 L58.2226562,44.4737305 L58.2226562,28.6356641 L80.4130078,28.6356641 L80.4130078,0 L29.5869922,0 L29.5869922,28.6356641 L51.7773438,28.6356641 L51.7773438,44.4737305 L37.9742773,58.2767969 L11.0951758,58.2767969 L11.0951758,81.3643359 L0,81.3643359 L0,110 L28.6356641,110 L28.6356641,81.3643359 L17.5404883,81.3643359 L17.5404883,64.7221094 L37.9742773,64.7221094 L55,81.747832 L72.0257227,64.7221094 L92.4595117,64.7221094 L92.4595117,81.7345117 C86.112168,83.2008203 81.3641211,88.8956836 81.3641211,95.682168 C81.3641211,103.577031 87.7870898,110 95.682168,110 C103.577246,110 110,103.577031 110,95.682168 C110,88.8956836 105.252383,83.2008203 98.9048242,81.7345117 Z" id="Path"></path>
        </g>
    </g>
</svg>