<?xml version="1.0" encoding="utf-8"?>
<!-- Generator: Adobe Illustrator 25.0.1, SVG Export Plug-In . SVG Version: 6.00 Build 0)  -->
<svg version="1.1" id="Layer_1" xmlns="http://www.w3.org/2000/svg" xmlns:xlink="http://www.w3.org/1999/xlink" x="0px" y="0px"
	 viewBox="0 0 110 100" style="enable-background:new 0 0 110 100;" xml:space="preserve">
<style type="text/css">
	.st0{fill:#0a4ca4;}
</style>
<g id="Page-1">
	<g id="Desktop-HD" transform="translate(-846.000000, -3756.000000)">
		<g id="oncology-research" transform="translate(846.000000, 3756.000000)">
			<g id="noun_Oncology_594" transform="translate(0.000000, -0.000000)">
				<path id="Path" class="st0" d="M37.3,25.1c1.5,0,5.1,0,6.6,0c0-1.5,0-5.2,0-6.7c-1.5,0-5.1,0-6.6,0C37.3,20,37.3,23.6,37.3,25.1
					z"/>
				<path id="Shape" class="st0" d="M55,0.4c-14.9,0-27,12.1-27,27c0,14.9,12.1,27,27,27c14.9,0,27-12.1,27-27
					C82,12.5,69.9,0.4,55,0.4z M34.9,27.5V16.1h11.3v11.4L34.9,27.5L34.9,27.5z M46.6,48.3c-3.1,0-5.6-2.5-5.6-5.6
					c0-3.1,2.5-5.6,5.6-5.6c3.1,0,5.6,2.5,5.6,5.6C52.1,45.8,49.6,48.3,46.6,48.3z M53.3,35.8c-3.1,0-5.6-2.5-5.6-5.6
					c0-3.1,2.5-5.6,5.6-5.6c3.1,0,5.6,2.5,5.6,5.6C58.9,33.3,56.4,35.8,53.3,35.8z M57.2,14.6c-3.2,0-5.9-2.6-5.9-5.9
					c0-3.3,2.6-5.9,5.9-5.9c3.3,0,5.9,2.6,5.9,5.9C63.1,12,60.5,14.6,57.2,14.6z M67,44.7c-3.1,0-5.6-2.5-5.6-5.6
					c0-3.1,2.5-5.6,5.6-5.6c3.1,0,5.6,2.5,5.6,5.6C72.6,42.1,70.1,44.7,67,44.7z M68.2,28.2c-3.1,0-5.6-2.5-5.6-5.6
					c0-3.1,2.5-5.6,5.6-5.6c3.1,0,5.6,2.5,5.6,5.6C73.8,25.7,71.3,28.2,68.2,28.2z"/>
				<path id="Path_1_" class="st0" d="M12.7,51.8V30.2c0-3.1-2.5-5.6-5.6-5.6c-3.1,0-5.6,2.5-5.6,5.6v29.6c0,4.1,1.5,8,4.1,11.1
					l18.4,19.6c1.8,1.7,2.3,3.2,2.3,5.6v3.6h20.1l0-8.5c0-3.2,0.3-7.5-3.8-11.8L19.3,55.8c-0.8-0.8-1.9-1.2-3.1-1.2
					c-2.4,0-4.4,2-4.4,4.4c0,1.1,0.4,2.1,1.1,2.9L24.1,74c0.7,0.9,2,2.5,2.6,4.5c0.3,1,0.4,2,0.4,3.2h-3.6c0-0.8-0.1-1.5-0.3-2.1
					c-0.4-1.1-1.1-2.2-1.6-2.8L10.2,64.1C8.8,62.7,8,60.8,8,58.8C8,55.9,9.8,53.1,12.7,51.8z"/>
				<path id="Path_2_" class="st0" d="M97.3,51.8V30.2c0-3.1,2.5-5.6,5.6-5.6c3.1,0,5.6,2.5,5.6,5.6v29.6c0,4.1-1.5,8-4.1,11.1
					L85.9,90.5c-1.8,1.7-2.3,3.2-2.3,5.6v3.6H63.5l0-8.5c0-3.2-0.3-7.5,3.8-11.8l23.4-23.5c0.8-0.8,1.9-1.2,3.1-1.2
					c2.4,0,4.4,2,4.4,4.4c0,1.1-0.4,2.1-1.1,2.9L85.9,74c-0.7,0.9-2,2.5-2.6,4.5c-0.3,1-0.4,2-0.4,3.2h3.6c0-0.8,0.1-1.5,0.3-2.1
					c0.4-1.1,1.1-2.2,1.6-2.8l11.5-12.6c1.4-1.5,2.2-3.3,2.2-5.3C102,55.9,100.2,53.1,97.3,51.8z"/>
			</g>
		</g>
	</g>
</g>
</svg>
