<?xml version="1.0" encoding="utf-8"?>
<!-- Generator: Adobe Illustrator 24.3.0, SVG Export Plug-In . SVG Version: 6.00 Build 0)  -->
<svg version="1.1" xmlns="http://www.w3.org/2000/svg" xmlns:xlink="http://www.w3.org/1999/xlink" x="0px" y="0px"
	 viewBox="0 0 34.7 34.3" style="enable-background:new 0 0 34.7 34.3;" xml:space="preserve">
<style type="text/css">
	.st0{fill:#12BDCF;}
</style>
<g id="Layer_1">
</g>
<g id="Layer_2">
	<g>
		<g>
			<g>
				<g>
					<rect x="20.8" y="25.3" class="st0" width="1.5" height="1.1"/>
				</g>
			</g>
			<g>
				<g>
					<path class="st0" d="M22.9,28.7v-1.1c0.4,0,0.7-0.3,0.7-0.6c0-0.4-0.3-0.6-0.7-0.6h-2v-1.1h2c1,0,1.8,0.8,1.8,1.7
						C24.7,28,23.9,28.7,22.9,28.7z"/>
				</g>
				<g>
					<rect x="20.6" y="27.6" class="st0" width="2.4" height="1.1"/>
				</g>
			</g>
			<g>
				<g>
					<path class="st0" d="M22.4,31.1V30c0.4,0,0.7-0.3,0.7-0.6s-0.3-0.6-0.7-0.6v-1.1c1,0,1.8,0.8,1.8,1.7
						C24.2,30.3,23.4,31.1,22.4,31.1z"/>
				</g>
				<g>
					<rect x="20.6" y="30" class="st0" width="1.8" height="1.1"/>
				</g>
			</g>
			<g>
				<g>
					<path class="st0" d="M21.7,33.5v-1.1c0.4,0,0.7-0.3,0.7-0.6c0-0.4-0.3-0.6-0.7-0.6V30c1,0,1.8,0.8,1.8,1.7
						C23.5,32.7,22.7,33.5,21.7,33.5z"/>
				</g>
				<g>
					<path class="st0" d="M21.7,33.5h-7.6c-0.1,0-0.2,0-0.3-0.1l-1.8-0.9h-1v-1.1h1.1c0.1,0,0.2,0,0.3,0.1l1.8,0.9h7.4V33.5z"/>
				</g>
			</g>
			<g>
				<path class="st0" d="M11.3,34.2H8.3v-1.1h2.4V22.5H8.3v-1.1h2.9c0.3,0,0.6,0.2,0.6,0.6v11.6C11.8,33.9,11.6,34.2,11.3,34.2z"/>
			</g>
			<g>
				<rect x="8.9" y="29.3" class="st0" width="1.1" height="2.8"/>
			</g>
			<g>
				<path class="st0" d="M9.5,28.8c-0.1,0-0.1,0-0.2,0c-0.1,0-0.1-0.1-0.2-0.1c0,0,0-0.1-0.1-0.1c0,0,0-0.1-0.1-0.1c0,0,0-0.1,0-0.1
					c0,0,0-0.1,0-0.1c0,0,0-0.1,0-0.1c0,0,0-0.1,0-0.1c0,0,0-0.1,0-0.1c0,0,0-0.1,0.1-0.1c0,0,0.1,0,0.1-0.1c0,0,0.1,0,0.1,0
					c0,0,0.1,0,0.1,0c0.1,0,0.1,0,0.2,0c0,0,0.1,0,0.1,0c0,0,0.1,0,0.1,0c0,0,0.1,0,0.1,0.1c0,0,0,0.1,0.1,0.1c0,0,0,0.1,0.1,0.1
					c0,0,0,0.1,0,0.1c0,0,0,0.1,0,0.1c0,0,0,0.1,0,0.1c0,0,0,0.1,0,0.1c0,0,0,0.1,0,0.1c0,0,0,0.1-0.1,0.1
					C9.8,28.7,9.6,28.8,9.5,28.8z"/>
			</g>
			<g>
				<path class="st0" d="M22.3,26.4v-1.1c0.4,0,0.7-0.3,0.7-0.6S22.7,24,22.3,24h-3.1c-0.1,0-0.1,0-0.2,0l-1.5-0.5
					c-0.2-0.1-0.3-0.2-0.4-0.4c-0.1-0.2,0-0.4,0.1-0.5c0.3-0.4,1.4-1.9,1.1-4.4c-0.1-0.5-0.3-1-0.9-1c-0.4,0-0.8,0.7-0.9,0.9l0,0
					c0,0.1-0.8,1.6-1.7,3c0,0,0,0,0,0l-1.9,2.4c-0.1,0.1-0.3,0.2-0.4,0.2h-1.2v-1.1h0.9l1.8-2.2c0.9-1.3,1.6-2.9,1.6-2.9l0-0.1
					c0.2-0.4,0.8-1.5,1.9-1.5c1,0,1.8,0.7,2,1.9c0,0,0,0,0,0c0.2,1.7-0.2,3.3-0.9,4.6l0.7,0.2h3c1,0,1.8,0.8,1.8,1.7
					S23.3,26.4,22.3,26.4z"/>
			</g>
		</g>
		<g>
			<path class="st0" d="M14,11.6c-0.1,0-0.2,0-0.3-0.1c-0.2-0.1-0.3-0.3-0.2-0.5l0.6-3.5L11.6,5c-0.2-0.1-0.2-0.4-0.1-0.6
				c0.1-0.2,0.2-0.3,0.4-0.4l3.5-0.5l1.6-3.2c0.1-0.2,0.3-0.3,0.5-0.3c0.2,0,0.4,0.1,0.5,0.3l1.6,3.2L23,4.1c0.2,0,0.4,0.2,0.4,0.4
				c0.1,0.2,0,0.4-0.1,0.6l-2.5,2.5l0.6,3.5c0,0.2,0,0.4-0.2,0.5c-0.2,0.1-0.4,0.1-0.6,0l-3.1-1.6l-3.1,1.6
				C14.2,11.6,14.1,11.6,14,11.6z M17.4,8.7c0.1,0,0.2,0,0.3,0.1l2.4,1.3l-0.5-2.7c0-0.2,0-0.4,0.2-0.5L21.7,5L19,4.6
				c-0.2,0-0.3-0.1-0.4-0.3l-1.2-2.4l-1.2,2.4c-0.1,0.2-0.2,0.3-0.4,0.3L13.1,5l1.9,1.9c0.1,0.1,0.2,0.3,0.2,0.5l-0.5,2.7l2.4-1.3
				C17.2,8.8,17.3,8.7,17.4,8.7z"/>
		</g>
		<g>
			<path class="st0" d="M30.9,19.1c-0.1,0-0.2,0-0.3-0.1L28.6,18l-2.1,1.1c-0.2,0.1-0.4,0.1-0.6,0c-0.2-0.1-0.3-0.3-0.2-0.5l0.4-2.6
				l1.1,0.2L27,17.6l1.3-0.7c0.2-0.1,0.4-0.1,0.5,0l1.3,0.7l-0.3-1.5c0-0.2,0-0.4,0.2-0.5l1.1-1.1l-1.5-0.2c-0.2,0-0.3-0.1-0.4-0.3
				l-0.7-1.4l-0.3,0.5l-1-0.5l0.8-1.5c0.1-0.2,0.3-0.3,0.5-0.3l0,0c0.2,0,0.4,0.1,0.5,0.3l1,2.1l2.3,0.3c0.2,0,0.4,0.2,0.4,0.4
				c0.1,0.2,0,0.4-0.1,0.6l-1.7,1.6l0.4,2.3c0,0.2,0,0.4-0.2,0.5C31.1,19.1,31,19.1,30.9,19.1z"/>
		</g>
		<g>
			<path class="st0" d="M8.4,19.1c-0.1,0-0.2,0-0.3-0.1L6.1,18l-2.1,1.1c-0.2,0.1-0.4,0.1-0.6,0c-0.2-0.1-0.3-0.3-0.2-0.5l0.4-2.3
				L2,14.6c-0.1-0.1-0.2-0.4-0.1-0.6c0.1-0.2,0.2-0.3,0.4-0.4l2.3-0.3l1-2.1c0.1-0.2,0.3-0.3,0.5-0.3c0.2,0,0.4,0.1,0.5,0.3l0.8,1.5
				l-1,0.5l-0.3-0.5L5.4,14c-0.1,0.2-0.2,0.3-0.4,0.3l-1.5,0.2l1.1,1.1c0.1,0.1,0.2,0.3,0.2,0.5l-0.3,1.5l1.3-0.7
				c0.2-0.1,0.4-0.1,0.5,0l1.3,0.7l-0.3-1.5l1.1-0.2L9,18.5c0,0.2,0,0.4-0.2,0.5C8.7,19.1,8.5,19.1,8.4,19.1z"/>
		</g>
		<g>
			<path class="st0" d="M21.4,14.9c-0.1,0-0.2,0-0.3-0.1c-0.2-0.1-0.3-0.3-0.2-0.5l0.3-1.7l1.1,0.2l-0.1,0.6l1.6-0.9
				c0.2-0.1,0.4-0.1,0.5,0l1.6,0.9l-0.3-1.8c0-0.2,0-0.4,0.2-0.5l1.3-1.3l-1.8-0.3c-0.2,0-0.3-0.1-0.4-0.3L24,7.6l-0.8,1.6
				c-0.1,0.2-0.2,0.3-0.4,0.3L22,9.6l-0.2-1.1l0.5-0.1l1.2-2.4c0.1-0.2,0.3-0.3,0.5-0.3c0.2,0,0.4,0.1,0.5,0.3l1.2,2.4l2.6,0.4
				c0.2,0,0.4,0.2,0.4,0.4c0.1,0.2,0,0.4-0.1,0.6l-1.9,1.9l0.4,2.6c0,0.2,0,0.4-0.2,0.5c-0.2,0.1-0.4,0.1-0.6,0L24,13.6l-2.4,1.2
				C21.6,14.9,21.5,14.9,21.4,14.9z"/>
		</g>
		<g>
			<path class="st0" d="M8.1,14.9c-0.1,0-0.2,0-0.3-0.1c-0.2-0.1-0.3-0.3-0.2-0.5L8,11.7L6.1,9.8C6,9.7,5.9,9.4,6,9.2
				C6,9,6.2,8.9,6.4,8.9l2.6-0.4l1.2-2.4c0.1-0.2,0.3-0.3,0.5-0.3c0.2,0,0.4,0.1,0.5,0.3l1.2,2.4l0.5,0.1l-0.2,1.1l-0.8-0.1
				c-0.2,0-0.3-0.1-0.4-0.3l-0.8-1.6L9.9,9.2C9.8,9.4,9.7,9.5,9.5,9.5L7.7,9.8L9,11.1c0.1,0.1,0.2,0.3,0.2,0.5l-0.3,1.8l1.6-0.9
				c0.2-0.1,0.4-0.1,0.5,0l1.6,0.9l-0.1-0.6l1.1-0.2l0.3,1.7c0,0.2,0,0.4-0.2,0.5c-0.2,0.1-0.4,0.1-0.6,0l-2.4-1.2l-2.4,1.2
				C8.3,14.9,8.2,14.9,8.1,14.9z"/>
		</g>
	</g>
</g>
</svg>
