<svg id="Layer_1" data-name="Layer 1" xmlns="http://www.w3.org/2000/svg" viewBox="0 0 110 110"><defs><style>.cls-1{fill:#0a4ca4;}</style></defs><title>Patient_Support_Observelong-term</title><circle class="cls-1" cx="66.9" cy="43.24" r="6.18"/><path class="cls-1" d="M47.27,37,41,43.24l6.29,6.29a29.33,29.33,0,0,0,3.64,3,18.39,18.39,0,0,1,0-18.66A28.55,28.55,0,0,0,47.27,37Z"/><path class="cls-1" d="M66.9,28.83A14.41,14.41,0,1,0,81.32,43.24h0A14.43,14.43,0,0,0,66.9,28.83Zm0,24.7A10.3,10.3,0,1,1,77.2,43.24,10.29,10.29,0,0,1,66.9,53.53Z"/><path class="cls-1" d="M23.1,80.59a1.84,1.84,0,0,0-1.47-.6,2.05,2.05,0,0,0-1.46.62l-20,20.62L8.92,110,29.53,90a2.06,2.06,0,0,0,0-2.91l0,0Z"/><path class="cls-1" d="M28.63,80.3l1.21,1.21,4.21-4.21c-.41-.39-.81-.8-1.21-1.21Z"/><path class="cls-1" d="M86.54,37a28,28,0,0,0-3.65-3.05,18.34,18.34,0,0,1,0,18.66,27.12,27.12,0,0,0,3.65-3l6.28-6.28Z"/><path class="cls-1" d="M66.9,8.24a35,35,0,1,0,35,35h0A35,35,0,0,0,66.9,8.24ZM89.45,52.43a31.89,31.89,0,0,1-45.09,0l-9.19-9.19,9.19-9.19a31.89,31.89,0,0,1,45.09,0l9.19,9.19Z"/><path class="cls-1" d="M66.9,0a43.24,43.24,0,1,0,43.24,43.24h0A43.29,43.29,0,0,0,66.9,0Zm0,82.36A39.12,39.12,0,1,1,106,43.23h0A39.17,39.17,0,0,1,66.9,82.36Z"/></svg>