<?xml version="1.0" encoding="UTF-8"?>
<svg width="110px" height="110px" viewBox="0 0 110 110" version="1.1" xmlns="http://www.w3.org/2000/svg" xmlns:xlink="http://www.w3.org/1999/xlink">
    <title>PatientAnalytics_datasceince@svg</title>
    <g id="PatientAnalytics_datasceince" stroke="none" stroke-width="1" fill="none" fill-rule="evenodd">
        <g id="data-science" transform="translate(0.000306, 0.000000)" fill="#0a4ca4" fill-rule="nonzero">
            <polygon id="Path" points="71.3279312 32.441601 38.6717632 32.441601 38.6717632 38.6720541 35.4491151 38.6720541 35.4491151 45.1173505 38.6717632 45.1173505 38.6717632 51.77749 35.4491151 51.77749 35.4491151 58.2227863 38.6717632 58.2227863 38.6717632 64.8829258 35.4491151 64.8829258 35.4491151 71.3282221 38.6717632 71.3282221 38.6717632 77.5586752 71.3279312 77.5586752 71.3279312 71.3282221 74.5505794 71.3282221 74.5505794 64.8829258 71.3279312 64.8829258 71.3279312 58.2227863 74.5505794 58.2227863 74.5505794 51.77749 71.3279312 51.77749 71.3279312 45.1173505 74.5505794 45.1173505 74.5505794 38.6720541 71.3279312 38.6720541"></polygon>
            <path d="M108.171024,67.3334812 C107.09513,63.2380325 105.569407,59.0955868 103.641693,54.9732827 C109.615341,42.1783624 111.544734,29.5554846 108.63428,19.5157608 C106.970923,20.9239908 104.947537,21.9176407 102.722735,22.3397741 C104.264403,28.6331696 103.625747,36.4027727 100.797538,44.843761 C100.485344,45.7769861 100.144616,46.7135685 99.7820681,47.6509898 C95.4667409,40.311912 89.916065,33.1717324 83.3725787,26.6274067 C76.8290924,20.0839203 69.6880734,14.5332445 62.3489956,10.2179173 C63.2864169,9.85536937 64.2229992,9.51464136 65.1562244,9.20244732 C73.5972126,6.37339859 81.3668158,5.73558281 87.6602113,7.27725085 C88.0823447,5.05244864 89.0759945,3.02990113 90.4842245,1.36654482 C80.4445008,-1.54474848 67.821623,0.384644099 55.0267026,6.35829253 C50.9052377,4.43057831 46.7619529,2.90485572 42.6665042,1.82812192 C28.1419282,-1.9878626 15.840476,0.213441131 8.02723259,8.02668434 C0.213150206,15.8407669 -1.98815352,28.1422191 1.82867039,42.6659559 C2.90456479,46.7622438 4.43028739,50.9046894 6.35800161,55.0269935 C0.384353175,67.8210745 -1.5450394,80.4447917 1.36541471,90.4845155 C3.02877103,89.0762855 5.05215772,88.0826356 7.27612075,87.6605022 C5.73529188,81.3671067 6.37310766,73.5983427 9.20131722,65.1565153 C9.51435044,64.2232901 9.85507845,63.2867078 10.2176264,62.3492865 C14.5329536,69.6883643 20.0836294,76.8293833 26.6271157,83.3728696 C33.1706021,89.9163559 40.3107819,95.4670318 47.6506989,99.782359 C46.7132776,100.144907 45.7766952,100.485635 44.84347,100.797829 C36.4016426,103.626038 28.6328786,104.264693 22.3386437,102.723025 C21.9173497,104.947828 20.9236999,106.971214 19.5146305,108.634571 C22.6130724,109.532548 25.9548915,109.973145 29.4737883,109.973145 C37.3600447,109.973145 46.1266548,107.774359 54.9746702,103.642823 C59.0952959,105.569698 63.2377416,107.095421 67.3331903,108.171315 C71.9884063,109.394914 76.4161906,110 80.540173,110 C89.2824453,110 96.6634846,107.28173 101.972462,101.972753 C109.786544,94.1595093 111.987848,81.8572178 108.171024,67.3334812 Z M8.05996267,41.0286156 C4.84990303,28.8119258 6.45619162,18.7100988 12.5834192,12.5837101 C16.6469772,8.51931316 22.4586539,6.44473341 29.4779844,6.44473341 C33.0405212,6.44473341 36.9152522,6.98016287 41.0283247,8.06025359 C43.2338245,8.64016247 45.456109,9.3652583 47.6842681,10.223792 C40.4240782,14.4828906 33.2570429,19.9974795 26.6271157,26.6274067 C19.9971885,33.2573339 14.4817605,40.4243691 10.223501,47.684559 C9.36580655,45.4563999 8.63987154,43.2341154 8.05996267,41.0286156 Z M31.1833024,78.816683 C23.8039417,71.4364829 17.7883318,63.2883864 13.5267154,55.0186013 C17.8185441,46.7034975 23.8744371,38.4924585 31.1833024,31.1835933 C38.4921676,23.874728 46.7032066,17.818835 55.0191496,13.5270063 C63.2880954,17.7886227 71.4370312,23.8042326 78.8163921,31.1835933 C86.1957527,38.5629542 92.2113626,46.7110507 96.472979,54.9808358 C92.1811503,63.2967788 86.1244181,71.5078177 78.8163921,78.816683 C71.5075268,86.1247091 63.2956485,92.1814412 54.9805448,96.47327 C46.711599,92.2116536 38.5626633,86.1960437 31.1833024,78.816683 Z M97.4162752,97.4165661 C91.2898866,103.542954 81.1880596,105.150082 68.9713697,101.940023 C66.7667091,101.360114 64.5444246,100.635018 62.3179441,99.7773237 C69.5772946,95.5182248 76.7434907,90.0019576 83.3725787,83.3728696 C90.0025059,76.7421032 95.5179339,69.5759072 99.7761934,62.3157172 C100.633888,64.5430372 101.359823,66.7661608 101.938893,68.9708215 C105.149791,81.1883505 103.543503,91.2901775 97.4162752,97.4165661 L97.4162752,97.4165661 Z" id="Shape"></path>
            <path d="M106.777061,9.66822074 C106.777061,13.2274006 103.891784,16.1135171 100.331765,16.1135171 C96.7717456,16.1135171 93.8864683,13.2274006 93.8864683,9.66822074 C93.8864683,6.10820172 96.7717456,3.22292443 100.331765,3.22292443 C103.891784,3.22292443 106.777061,6.10820172 106.777061,9.66822074 Z" id="Path"></path>
            <path d="M16.1132261,100.332056 C16.1132261,103.891235 13.2279488,106.777352 9.66792982,106.777352 C6.10791079,106.777352 3.22263351,103.891235 3.22263351,100.332056 C3.22263351,96.7720365 6.10791079,93.8867592 9.66792982,93.8867592 C13.2279488,93.8867592 16.1132261,96.7720365 16.1132261,100.332056 Z" id="Path"></path>
        </g>
    </g>
</svg>