<svg id="Layer_1" data-name="Layer 1" xmlns="http://www.w3.org/2000/svg" viewBox="0 0 110 110"><defs><style>.cls-1{fill:#0a4ca4;}.cls-2{fill:none;stroke:#fff;stroke-miterlimit:10;stroke-width:2px;}</style></defs><title>Patient_Support_Expandpatientreach</title><rect class="cls-1" x="61.78" y="11.64" width="45.27" height="35.91"/><circle class="cls-1" cx="23.93" cy="45.59" r="9.35"/><path class="cls-1" d="M43.21,72.73,10.3,53.68V47.79a74.4,74.4,0,0,0-10.16,0L0,110H9.79l.51-19.83H99.8V110H110l0-31.61C110,76.54,45.87,74.23,43.21,72.73Z"/><path class="cls-1" d="M36.63,62.92s13.74,7.5,16,7.5h49.89c.12-1.62.56-6.22.57-8L63.42,56.91c-1.62-.23-25.63-7.85-27.71-6.12S33.28,55,31.59,57.44C30.43,59.13,34.27,61.54,36.63,62.92Z"/><path class="cls-2" d="M67.26,28.66h7.43l5.15-8.74,8.72,17.67,4.09-8.84,7.73-.09"/></svg>