<?xml version="1.0" encoding="UTF-8"?>
<svg width="110px" height="110px" viewBox="0 0 110 110" version="1.1" xmlns="http://www.w3.org/2000/svg" xmlns:xlink="http://www.w3.org/1999/xlink">
    <title>PatientAnalytics_datasources@svg</title>
    <g id="PatientAnalytics_datasources" stroke="none" stroke-width="1" fill="none" fill-rule="evenodd">
        <g id="computing" transform="translate(0.000000, -0.000000)" fill="#0a4ca4" fill-rule="nonzero">
            <path d="M28.4447219,55.0068709 L1.89631479,55.0068709 C0.849009053,55.0068709 0,55.85588 0,56.9031857 L0,70.1773893 L30.3410367,70.1773893 L30.3410367,56.9031857 C30.3410367,55.85588 29.4920277,55.0068709 28.4447219,55.0068709 Z" id="Path"></path>
            <path d="M0,75.8663337 C0,76.9136394 0.849009053,77.7626485 1.89631479,77.7626485 L28.4447219,77.7626485 C29.4920277,77.7626485 30.3410367,76.9136394 30.3410367,75.8663337 L30.3410367,73.9700189 L0,73.9700189 L0,75.8663337 Z" id="Path"></path>
            <path d="M66.3710178,100.518426 L66.3710178,85.3479077 C66.3710178,84.3006019 65.5220088,83.4515929 64.474703,83.4515929 L41.7189255,83.4515929 C40.6716197,83.4515929 39.8226107,84.3006019 39.8226107,85.3479077 L39.8226107,100.518426 L49.3041847,100.518426 C50.3514904,100.518426 51.2004995,101.367435 51.2004995,102.414741 L54.9931291,102.414741 C54.9931291,101.367435 55.8421381,100.518426 56.8894438,100.518426 L66.3710178,100.518426 Z" id="Path"></path>
            <polygon id="Path" points="12.8001249 81.5552781 10.5435103 87.2442225 19.7975265 87.2442225 17.5409119 81.5552781"></polygon>
            <path d="M104.297314,41.7326674 L77.7489066,41.7326674 C76.7016009,41.7326674 75.8525918,42.5816764 75.8525918,43.6289822 L75.8525918,56.9031857 L106.193629,56.9031857 L106.193629,43.6289822 C106.193629,42.5816764 105.344619,41.7326674 104.297314,41.7326674 Z" id="Path"></path>
            <path d="M30.3410367,28.4584638 L75.8525918,28.4584638 C77.9472033,28.4584638 79.6452214,26.7604457 79.6452214,24.6658342 C79.6452214,22.5712227 77.9472033,20.8732046 75.8525918,20.8732046 L73.4632352,20.8732046 C72.7557124,20.8662496 72.1084488,20.4735278 71.775515,19.8491946 C71.4542861,19.2238551 71.505375,18.4721185 71.908257,17.8959904 C73.2468004,15.9916644 73.962292,13.7193161 73.956277,11.3916307 C73.9693618,5.3885376 69.3119529,0.410239386 63.3212898,0.0239068394 C57.3306267,-0.362425707 52.0723635,3.97641962 51.3142784,9.93146827 C51.2096052,10.7030023 50.6469955,11.3337231 49.892382,11.5255034 C49.1377684,11.7172836 48.342289,11.4317125 47.8819486,10.8037731 C45.9789864,8.10714018 42.5476423,6.95512619 39.4029395,7.95709355 C36.2582368,8.95906091 34.1258308,11.8838008 34.1336663,15.1842603 C34.1297739,16.2300322 34.3496069,17.2645405 34.7784133,18.2183639 C35.0242126,18.8077406 34.9676103,19.4798928 34.6267082,20.019863 C34.2710329,20.5518882 33.6737677,20.8718516 33.0338037,20.8732046 L30.3410367,20.8732046 C28.2464252,20.8732046 26.5484071,22.5712227 26.5484071,24.6658342 C26.5484071,26.7604457 28.2464252,28.4584638 30.3410367,28.4584638 L30.3410367,28.4584638 Z M62.5783882,3.80637148 C66.7676112,3.80637148 70.1636474,7.20240769 70.1636474,11.3916307 L66.3710178,11.3916307 C66.3710178,9.29701918 64.6729997,7.59900107 62.5783882,7.59900107 L62.5783882,3.80637148 Z" id="Shape"></path>
            <path d="M75.8525918,62.5921301 C75.8525918,63.6394359 76.7016009,64.4884449 77.7489066,64.4884449 L104.297314,64.4884449 C105.344619,64.4884449 106.193629,63.6394359 106.193629,62.5921301 L106.193629,60.6958153 L75.8525918,60.6958153 L75.8525918,62.5921301 Z" id="Path"></path>
            <polygon id="Path" points="88.6527167 68.2810745 86.3961021 73.9700189 95.6501183 73.9700189 93.3935037 68.2810745"></polygon>
            <path d="M56.3641647,53.1105562 L68.2673326,53.1105562 L68.2673326,49.3179266 L56.3641647,49.3179266 C56.0336668,48.7498402 55.5612154,48.2773888 54.9931291,47.946891 L54.9931291,36.043723 L51.2004995,36.043723 L51.2004995,47.946891 C50.0275069,48.6165312 49.3034821,49.8635639 49.3034821,51.2142414 C49.3034821,52.5649188 50.0275069,53.8119515 51.2004995,54.4815917 L51.2004995,63.1174093 C50.6324131,63.4479072 50.1599617,63.9203585 49.8294639,64.4884449 L37.9262959,64.4884449 L37.9262959,68.2810745 L49.8294639,68.2810745 C50.1599617,68.8491609 50.6324131,69.3216123 51.2004995,69.6521101 L51.2004995,75.8663337 L54.9931291,75.8663337 L54.9931291,69.6521101 C56.1661216,68.9824699 56.8901464,67.7354371 56.8901464,66.3847597 C56.8901464,65.0340823 56.1661216,63.7870495 54.9931291,63.1174093 L54.9931291,54.4815917 C55.5612154,54.1510939 56.0336668,53.6786425 56.3641647,53.1105562 L56.3641647,53.1105562 Z" id="Path"></path>
            <path d="M49.3041847,104.311056 L49.3041847,106.20737 L56.8894438,106.20737 L56.8894438,104.311056 L69.9266081,104.311056 L69.0637848,107.269307 C68.5918132,108.887495 67.1084736,110 65.4228604,110 L40.7707681,110 C39.0851549,110 37.6018154,108.887495 37.1298437,107.269307 L36.2670205,104.311056 L49.3041847,104.311056 Z" id="Path"></path>
        </g>
    </g>
</svg>