<?xml version="1.0" encoding="utf-8"?>
<!-- Generator: Adobe Illustrator 25.0.1, SVG Export Plug-In . SVG Version: 6.00 Build 0)  -->
<svg version="1.1" id="Layer_1" xmlns="http://www.w3.org/2000/svg" xmlns:xlink="http://www.w3.org/1999/xlink" x="0px" y="0px"
	 viewBox="0 0 110 110" style="enable-background:new 0 0 110 110;" xml:space="preserve">
<style type="text/css">
	.st0{fill:#0a4ca4;}
</style>
<g id="Page-1">
	<g id="Desktop-HD" transform="translate(-77.000000, -2583.000000)">
		<g id="patient-care" transform="translate(77.000000, 2583.000000)">
			<g id="noun_Nurse_355027" transform="translate(-0.000000, 0.000000)">
				<g id="Group">
					<g>
						<path id="Path" class="st0" d="M79.3,0.3c3.9,0,10.4,1.6,13.9,5.6l-4.8,9.3c-2.1-2.7-5.4-4.5-9.1-4.5c-3.7,0-6.9,1.7-9,4.4
							l-4.9-9C69.5,2,75.2,0.3,79.3,0.3"/>
						<path id="Path_1_" class="st0" d="M88.1,22.8c0,4.9-4,8.8-8.8,8.8s-8.8-4-8.8-8.8c0-4.9,4-8.8,8.8-8.8S88.1,17.9,88.1,22.8"/>
						<path id="Path_2_" class="st0" d="M70.7,34.2c-6.2,0-9.8,5-10.6,7.9l-7.5,24.7h7.6l5.6-19h4l-5.5,19h30l-5.5-19h3.9l5.7,19
							h7.5L98.3,42c-0.8-2.8-4.3-7.7-10.4-7.9L70.7,34.2z"/>
						<g id="Path_3_" transform="translate(0.000000, 52.429197)">
							<path class="st0" d="M19.3,16.7c4.6,0,8.3-3.7,8.3-8.3c0-4.6-3.7-8.3-8.3-8.3c-4.6,0-8.3,3.7-8.3,8.3
								C10.9,12.9,14.7,16.7,19.3,16.7L19.3,16.7z"/>
							<polygon class="st0" points="38.2,57.2 105.9,57.2 105.9,49.1 42.3,49.1 10,19.1 4.1,25.4 							"/>
							<path class="st0" d="M88,44c-1.2,0-2.4-0.3-3.4-1l-14.4-9.4l-19.3,9.7c-2.3,1.2-5,0.8-7-0.9l-17.3-15c-3-2.7-3.8-7-1.5-9.7
								c2.3-2.6,6.6-3.7,10.2-0.5l14.3,12.4l18.1-9c2-1,4.4-0.9,6.3,0.3l17.5,11.4c2.9,1.9,3.7,5.8,1.8,8.7C92,43,90,44,88,44L88,44
								z"/>
						</g>
					</g>
				</g>
				<g>
					<g>
						<path class="st0" d="M30.5,6.2c1.7,1.1,5.9,3.6,11.1,4.8c-0.1,8.8-1.2,15.3-11.1,22.5c-10-7.2-11.1-13.7-11.1-22.5
							C24.6,9.8,28.8,7.3,30.5,6.2 M30.5,4.7l-0.7,0.4c-1.6,1-5.7,3.4-10.7,4.6l-1,0.2v1c0.1,8.6,1,15.8,11.6,23.5l0.7,0.5l0.7-0.5
							C41.9,26.8,42.8,19.6,42.8,11v-1l-1-0.2c-5.1-1.2-9.2-3.6-10.7-4.6L30.5,4.7L30.5,4.7z"/>
						<path class="st0" d="M40.1,12.1C35.8,11,32.3,9.1,30.5,8c0,0-0.1,0-0.1,0c-1.7,1-5.3,3-9.6,4.2c-0.1,0-0.1,0.1-0.1,0.1
							c0.1,6.7,1,12.9,9.6,19.5c0,0,0.1,0,0.1,0c0,0,0.1,0,0.1,0c8.7-6.6,9.5-12.7,9.6-19.5C40.2,12.2,40.1,12.1,40.1,12.1z
							 M34.7,21.5h-2.5c0,0,0,0.1,0,0.1v2.5h-1.7h-1.6l0,0v-1.2v-1.3h-2.5v0v-3.3l0,0h1.2h1.4v-1.4v-1.2l0,0h3.3v2.6h2.6L34.7,21.5
							L34.7,21.5z"/>
					</g>
				</g>
			</g>
		</g>
	</g>
</g>
</svg>
