<svg id="Layer_1" data-name="Layer 1" xmlns="http://www.w3.org/2000/svg" viewBox="0 0 110 110"><defs><style>.cls-1{fill:#0a4ca4;}</style></defs><title>Patient_Support_Singlepartner </title><path class="cls-1" d="M18.79,56.87,14.43,63.4h2.3v4.92h4.11V63.4h2.3Zm0-12.08A5.38,5.38,0,0,0,15,46.37,5.43,5.43,0,0,0,15,54a5.41,5.41,0,1,0,3.83-9.23Zm1,5.4,1.8-1.8a3.33,3.33,0,0,1,0,3.61Zm.82-2.78-1.8,1.8L17,47.41a3.31,3.31,0,0,1,1.81-.54A3.25,3.25,0,0,1,20.59,47.41ZM16,52a3.33,3.33,0,0,1,0-3.61l1.8,1.8Zm1,1,1.81-1.8,1.8,1.8a3.25,3.25,0,0,1-1.8.54A3.31,3.31,0,0,1,17,53ZM51.79,74H63a.93.93,0,0,0,.64-.26h0a.64.64,0,0,0,.13-.15h0a1,1,0,0,0,.16-.36L71.86,37.9h4.51V36H65.12a1,1,0,0,0-.94.75L56.26,72.06H51.79C51.77,72.45,51.8,73.2,51.79,74ZM65.9,37.9h4L62.24,72.06h-4ZM18.79,43.21l4.35-6.54h-2.3V31.75H16.73v4.92h-2.3Zm18.44,7.57-6.54-4.36v2.31H25.77v4.1h4.92v2.3ZM85.73,110H45.79V0H85.73ZM11.46,50.19,4.92,45.84v2.3H0v4.11H4.92v2.3ZM102,5,95.44.59V2.9H85.73V7h9.71V9.31Zm0,11.67-6.54-4.36v2.31H85.73v4.1h9.71V21Zm0,13.19-6.54-4.36v2.31H85.73v4.1h9.71v2.31Zm0,12.36-6.54-4.36v2.31H85.73v4.1h9.71v2.3Zm0,13.5-6.54-4.36v2.3H85.73v4.11h9.71V60Zm0,11.66L95.44,63v2.3H85.73v4.11h9.71v2.3Zm0,13.2-6.54-4.36v2.3H85.73v4.11h9.71v2.3Zm0,12.35-6.54-4.35v2.3H85.73v4.11h9.71v2.3Zm0,10.74-6.54-4.36v2.31H85.73v4.1h9.71V108Z"/></svg>