<svg id="Layer_1" data-name="Layer 1" xmlns="http://www.w3.org/2000/svg" viewBox="0 0 110 110"><defs><style>.cls-1{fill:#0a4ca4;}</style></defs><title>Patient_Support_Proactivepatient </title><path class="cls-1" d="M30.33,51.45H79.67a7.08,7.08,0,0,0,7-7.1V7.1a7.08,7.08,0,0,0-7-7.1H30.33a7.08,7.08,0,0,0-7,7.1V44.35A7.08,7.08,0,0,0,30.33,51.45ZM61.7,7.89c1.91-3.83,8.45-3.38,8.45,1.38,0,4.55-6.66,9.11-8.45,10.25-1.8-1.14-8.46-5.7-8.46-10.25C53.24,4.51,59.78,4.06,61.7,7.89ZM30.33,26.59,51,21.38a2.94,2.94,0,0,1,3.57,2.16h0l.1.39a3,3,0,0,1-1.93,3.53l-6.24,2.1.66,1.32a2.91,2.91,0,0,0,2.63,1.64h7.92a2.9,2.9,0,0,0,1.09-.21l16.45-6.54A2.93,2.93,0,0,1,79,27.19l.35.7a3,3,0,0,1-1.32,4l-.14.07L52.39,44.35a5.78,5.78,0,0,1-3,.38l-19.07-4.8Z"/><ellipse class="cls-1" cx="84.96" cy="70.97" rx="1.76" ry="1.77"/><ellipse class="cls-1" cx="95.53" cy="70.97" rx="1.76" ry="1.77"/><path class="cls-1" d="M101.1,83.39H100a13.74,13.74,0,0,0,4.62-10.28V68.82A13.86,13.86,0,0,0,90.8,55h-.74A13.86,13.86,0,0,0,76.2,68.82v4.29a13.74,13.74,0,0,0,4.62,10.28H79.75a8.88,8.88,0,0,0-8.89,8.87V110H110V92.26A8.89,8.89,0,0,0,101.1,83.39Zm-10.3,0h-.74A10.32,10.32,0,0,1,79.75,73.11V68.82a11.26,11.26,0,0,1,.16-1.74A56.69,56.69,0,0,0,93.47,64,14.74,14.74,0,0,0,101,67.12a9.76,9.76,0,0,1,.15,1.7v4.29A10.3,10.3,0,0,1,90.8,83.39Z"/><ellipse class="cls-1" cx="14.47" cy="70.97" rx="1.76" ry="1.77"/><ellipse class="cls-1" cx="25.04" cy="70.97" rx="1.76" ry="1.77"/><path class="cls-1" d="M35.4,95.81l12.43,1.77,14.22-1.77V86.94H47.83L30.06,83.39H29a13.74,13.74,0,0,0,4.62-10.28V68.82A13.85,13.85,0,0,0,19.77,55H19A13.85,13.85,0,0,0,5.19,68.82v4.29A13.73,13.73,0,0,0,9.84,83.42,10.64,10.64,0,0,0-.14,94v16H35.4ZM19.77,83.39H19A10.3,10.3,0,0,1,8.74,73.11V68.82a10.31,10.31,0,0,1,.51-3.17H29.56a10.3,10.3,0,0,1,.5,3.17v4.29A10.29,10.29,0,0,1,19.77,83.39Z"/></svg>