<?xml version="1.0" encoding="UTF-8"?>
<svg width="110px" height="110px" viewBox="0 0 110 110" version="1.1" xmlns="http://www.w3.org/2000/svg" xmlns:xlink="http://www.w3.org/1999/xlink">
    <title>productivity@svg</title>
    <g id="productivity" stroke="none" stroke-width="1" fill="none" fill-rule="evenodd">
        <rect fill="#FFFFFF" x="0" y="0" width="110" height="110"></rect>
        <polygon id="Path" fill="#0A4CA4" fill-rule="nonzero" points="52.0289593 61.518552 41.6524887 53.0045249 38.7257919 56.4633484 53.1819005 68.4361991 56.1085973 64.9773756 56.1085973 64.9773756 71.7176471 45.8208145 67.7266968 42.361991"></polygon>
        <path d="M104,65.5095023 L104,44.4904977 C104,44.40181 103.911312,44.40181 103.911312,44.40181 L93.1800905,44.40181 C92.2932127,41.2090498 91.0515837,38.1936652 89.4552036,35.4443439 L97.1710407,27.7285068 C97.1710407,27.7285068 97.1710407,27.639819 97.1710407,27.639819 L82.2714932,12.7402715 C82.2714932,12.7402715 82.1828054,12.7402715 82.1828054,12.7402715 L74.4669683,20.4561086 C71.7176471,18.9484163 68.7022624,17.7067873 65.5095023,16.7312217 L65.5095023,6 L44.4904977,6 L44.4904977,16.8199095 C41.2977376,17.7067873 38.2823529,18.9484163 35.5330317,20.5447964 L27.8171946,12.8289593 C27.8171946,12.8289593 27.7285068,12.8289593 27.7285068,12.8289593 L12.8289593,27.7285068 C12.8289593,27.7285068 12.8289593,27.8171946 12.8289593,27.8171946 L20.5447964,35.5330317 C19.0371041,38.2823529 17.7954751,41.2977376 16.8199095,44.4904977 L6,44.4904977 L6,65.5095023 L16.8199095,65.5095023 C17.7067873,68.7022624 18.9484163,71.7176471 20.5447964,74.4669683 L12.8289593,82.1828054 C12.8289593,82.1828054 12.8289593,82.2714932 12.8289593,82.2714932 L27.7285068,97.1710407 C27.7285068,97.1710407 27.8171946,97.1710407 27.8171946,97.1710407 L35.5330317,89.4552036 C38.2823529,90.9628959 41.2977376,92.2045249 44.4904977,93.1800905 L44.4904977,104 L65.5095023,104 L65.5095023,93.1800905 C68.7022624,92.2932127 71.7176471,91.0515837 74.4669683,89.4552036 L82.1828054,97.1710407 C82.1828054,97.1710407 82.2714932,97.1710407 82.2714932,97.1710407 L97.1710407,82.2714932 C97.1710407,82.2714932 97.1710407,82.1828054 97.1710407,82.1828054 L89.4552036,74.4669683 C90.9628959,71.7176471 92.2045249,68.7022624 93.1800905,65.5095023 L104,65.5095023 Z M55.5,87 C37.5628415,87 23,72.4371585 23,54.5 C23,36.5628415 37.5628415,22 55.5,22 C73.4371585,22 88,36.5628415 88,54.5 C88,72.4371585 73.4371585,87 55.5,87 Z" id="Shape" fill="#0A4CA4" fill-rule="nonzero"></path>
        <path d="M55,27 C39.5822785,27 27,39.5822785 27,55 C27,70.4177215 39.5822785,83 55,83 C70.4177215,83 83,70.4177215 83,55 C83,39.5822785 70.4177215,27 55,27 Z M44.4602415,75.5336462 C40.1982662,73.5858525 36.7354112,70.1329456 34.6932147,65.8832139 C26.2580552,48.2645348 38.8663989,31 55.4703445,31 C68.3450617,31 79,41.535793 79,54.4620601 C78.9112088,71.0183063 61.9520987,83.501893 44.4602415,75.5336462 Z" id="Shape" fill="#0A4CA4" fill-rule="nonzero"></path>
    </g>
</svg>