<?xml version="1.0" encoding="UTF-8"?>
<svg width="111px" height="110px" viewBox="0 0 111 110" version="1.1" xmlns="http://www.w3.org/2000/svg" xmlns:xlink="http://www.w3.org/1999/xlink">
    <title>reduced approval time</title>
    <g id="Page-1" stroke="none" stroke-width="1" fill="none" fill-rule="evenodd">
        <g id="Desktop-HD" transform="translate(-1026.000000, -368.000000)" fill="#0a4ca4" fill-rule="nonzero">
            <g id="Group" transform="translate(1026.731609, 368.000000)">
                <path d="M55,110 C24.625,110 0,85.375 0,55 C0,24.625 24.625,0 55,0 C85.375,0 110,24.625 110,55 C110,85.375 85.375,110 55,110 Z M55,10 C30.125,10 10,30.125 10,55 C10,79.875 30.125,100 55,100 C79.875,100 100,79.875 100,55 C100,30.125 79.875,10 55,10 Z" id="Shape"></path>
                <polygon id="Path" points="61.25 61.25 28.75 61.25 28.75 51.25 51.25 51.25 51.25 28.75 61.25 28.75"></polygon>
            </g>
        </g>
    </g>
</svg>