<svg xmlns="http://www.w3.org/2000/svg" viewBox="0 0 78.33 108.78"><defs><style>.cls-1,.cls-3{fill:#0a4ca4;}.cls-1,.cls-2{fill-rule:evenodd;}.cls-2{fill:none;stroke:#0a4ca4;stroke-miterlimit:10;stroke-width:1.68px;}</style></defs><g id="Risk_Management" data-name="Risk Management"><g id="Sensible_Design" data-name="Sensible Design"><path class="cls-1" d="M77.56,27.49v-10a2.32,2.32,0,0,0-1.87-2.26V.61H15.84V109.39H64.25l-4.13-4.92H20.76v-99H32l2.07,4.93h23l2.37-4.93h11v72l5.12-.19V42.84a2.3,2.3,0,0,0,1.87-2.26v-6a2.31,2.31,0,0,0-1.87-2.26V29.85A2.5,2.5,0,0,0,77.56,27.49Z" transform="translate(-15.84 -0.61)"/><path class="cls-2" d="M65.55,56.33V15.57h-40v84H64.94l.61-43.12" transform="translate(-15.84 -0.61)"/><path class="cls-3" d="M60.82,50.43v0a18.75,18.75,0,0,0-12.93-6.15A19.66,19.66,0,0,0,37.81,46.4c1.91,1.45,3.57,2.64,5,3.72a15.62,15.62,0,0,1,5.12-1.34,15.28,15.28,0,0,1,11,3.72l.42.41Z" transform="translate(-15.84 -0.61)"/><path class="cls-3" d="M27.27,60.88a.81.81,0,0,0,.77.93h6.15a.78.78,0,0,0,.78-.68,13.57,13.57,0,0,1,1.91-5.73c-1.14-1.5-2.48-3.26-4-5.33A21.13,21.13,0,0,0,27.27,60.88Z" transform="translate(-15.84 -0.61)"/><path class="cls-3" d="M43.19,59.79A4,4,0,0,0,43,60.93,4.91,4.91,0,1,0,47.94,56a4.11,4.11,0,0,0-1.13.15c-3.36-2.58-9.15-7-12.51-9.51-.42-.36-.93.21-.62.62C36.21,50.64,40.55,56.43,43.19,59.79Z" transform="translate(-15.84 -0.61)"/><path class="cls-3" d="M60.27,55a1,1,0,0,0-1.79,0L54.94,60.9a1,1,0,0,0,.9,1.57h7.09a1,1,0,0,0,.89-1.57Zm-.94,1.35a.58.58,0,0,1,.63.52v.11l-.19,2.23a.39.39,0,0,1-.42.35.38.38,0,0,1-.35-.35l-.19-2.23A.55.55,0,0,1,59.33,56.3Zm0,5a.63.63,0,0,1,0-1.26.64.64,0,0,1,.64.63A.62.62,0,0,1,59.37,61.25Z" transform="translate(-15.84 -0.61)"/><path class="cls-1" d="M89.59,61.56c-2.62-2.76-5.41-7.09-8-11.22-1.86-2.86-2.12-9.55-3.81-11.42a14.65,14.65,0,0,0-3.3-2.76v31.6A10.86,10.86,0,0,1,71.66,75,13.35,13.35,0,0,1,70,76.72a7.52,7.52,0,0,1-2.88,1.57,7.29,7.29,0,0,1-2.12.3c-2.79,0-5.41.59-6-1.68l-3-14c-1.95-7.68-14.38-8.27-12.78,1.18l5.25,28c.42,2.06.84,5.61,2,7.18l11.17,10.13H91.37c.25-3.54-.34-6.09.08-10.23L93.74,78.1C94.75,69.43,94.16,66.18,89.59,61.56Z" transform="translate(-15.84 -0.61)"/></g></g></svg>