<svg xmlns="http://www.w3.org/2000/svg" viewBox="0 0 110 110"><defs><style>.cls-1{fill:#0a4ca4;}</style></defs><g id="Risk_Management" data-name="Risk Management"><g id="Reduce_Compliance" data-name="Reduce Compliance"><path class="cls-1" d="M53.25,5.18c6,3.82,21.27,12.84,40,17.15C93.05,53.89,89,77.22,53.25,103c-35.77-25.68-39.69-49-40-80.67C32,18,47.27,9,53.25,5.18m0-5.29L50.9,1.46A127.89,127.89,0,0,1,12.38,18L9,18.8v3.53C9.15,53.21,12.38,79,50.7,106.52l2.55,1.87,2.55-1.87C94.12,79,97.36,53.21,97.55,22.33V18.8L94.12,18A126.47,126.47,0,0,1,55.61,1.46L53.25-.11Z"/><path class="cls-1" d="M87.75,26.45a141,141,0,0,1-34.3-14.9.29.29,0,0,0-.39,0,143,143,0,0,1-34.31,14.9c-.19.1-.29.19-.29.39C19,51.05,21.89,73.1,53,96.72a.36.36,0,0,0,.29.1.37.37,0,0,0,.3-.1c31.16-23.62,34.1-45.57,34.5-69.88A.43.43,0,0,0,87.75,26.45ZM69.64,60.52H36.87V47.65H69.64Z"/></g></g></svg>