<svg xmlns="http://www.w3.org/2000/svg" viewBox="0 0 101.97 109.99"><defs><style>.cls-1,.cls-2{fill:#0a4ca4;}.cls-1{stroke:#0a4ca4;stroke-miterlimit:10;stroke-width:1.29px;}.cls-3{fill:#fff;}</style></defs><g id="Risk_Management" data-name="Risk Management"><g id="Enable_Data" data-name="Enable Data"><path class="cls-1" d="M8.91,12h2.77v2.77H7.52V17.5H18.6V14.73H14.45V12h2.77A4.16,4.16,0,0,0,21.38,7.8V5A4.16,4.16,0,0,0,17.22.87H8.91A4.16,4.16,0,0,0,4.75,5V7.8A4.16,4.16,0,0,0,8.91,12ZM7.52,5A1.39,1.39,0,0,1,8.91,3.64h8.31A1.38,1.38,0,0,1,18.6,5V7.8a1.38,1.38,0,0,1-1.38,1.38H8.91A1.38,1.38,0,0,1,7.52,7.8Z" transform="translate(-4.01 -0.11)"/><path class="cls-1" d="M8.91,103.92h2.77v2.77H7.52v2.77H18.6v-2.77H14.45v-2.77h2.77a4.16,4.16,0,0,0,4.16-4.16V97a4.16,4.16,0,0,0-4.16-4.16H8.91A4.16,4.16,0,0,0,4.75,97v2.77A4.16,4.16,0,0,0,8.91,103.92ZM7.52,97A1.39,1.39,0,0,1,8.91,95.6h8.31A1.38,1.38,0,0,1,18.6,97v2.77a1.38,1.38,0,0,1-1.38,1.38H8.91a1.38,1.38,0,0,1-1.39-1.38Z" transform="translate(-4.01 -0.11)"/><path class="cls-1" d="M101.09.75H92.78a4.16,4.16,0,0,0-4.16,4.16V7.68a4.16,4.16,0,0,0,4.16,4.16h2.77v2.77H91.4v2.77h11.08V14.61H98.32V11.84h2.77a4.16,4.16,0,0,0,4.16-4.16V4.91A4.16,4.16,0,0,0,101.09.75Zm1.39,6.93a1.38,1.38,0,0,1-1.39,1.38H92.78A1.38,1.38,0,0,1,91.4,7.68V4.91a1.38,1.38,0,0,1,1.38-1.39h8.31a1.39,1.39,0,0,1,1.39,1.39Z" transform="translate(-4.01 -0.11)"/><path class="cls-1" d="M101.09,92.62H92.78a4.16,4.16,0,0,0-4.16,4.16v2.77a4.16,4.16,0,0,0,4.16,4.16h2.77v2.77H91.4v2.77h11.08v-2.77H98.32v-2.77h2.77a4.16,4.16,0,0,0,4.16-4.16V96.78A4.16,4.16,0,0,0,101.09,92.62Zm1.39,6.93a1.39,1.39,0,0,1-1.39,1.39H92.78a1.39,1.39,0,0,1-1.38-1.39V96.78a1.38,1.38,0,0,1,1.38-1.39h8.31a1.39,1.39,0,0,1,1.39,1.39Z" transform="translate(-4.01 -0.11)"/><path class="cls-2" d="M17.78,79.61a44.66,44.66,0,0,1,0-49.23l-2.65-1.75a47.82,47.82,0,0,0,0,52.74Z" transform="translate(-4.01 -0.11)"/><path class="cls-2" d="M20.56,78a41.8,41.8,0,0,1,0-46,3.27,3.27,0,0,0-1.15-4.4l-2.66-1.75A3.27,3.27,0,0,0,12.35,27,51.43,51.43,0,0,0,6.56,71a52.24,52.24,0,0,0,5.79,12,3.26,3.26,0,0,0,4.4,1.15l2.66-1.75A3.3,3.3,0,0,0,20.56,78a3.25,3.25,0,0,0-4.4-1.15l-2.65,1.75,4.39,1.15a44.61,44.61,0,0,1,0-49.49L13.51,31.4l2.65,1.76L15,28.76a47.81,47.81,0,0,0,0,52.48,3.29,3.29,0,0,0,4.4,1.15A3.25,3.25,0,0,0,20.56,78Z" transform="translate(-4.01 -0.11)"/><path class="cls-2" d="M55,99.61a44.4,44.4,0,0,1-24.61-7.39l-1.76,2.65a47.82,47.82,0,0,0,52.74,0l-1.75-2.65A44.43,44.43,0,0,1,55,99.61Z" transform="translate(-4.01 -0.11)"/><path class="cls-2" d="M55,96.4a42,42,0,0,1-23-7,3.27,3.27,0,0,0-4.4,1.15l-1.75,2.66A3.27,3.27,0,0,0,27,97.65a51.42,51.42,0,0,0,44,5.79,52.43,52.43,0,0,0,12-5.79,3.26,3.26,0,0,0,1.15-4.4L82.4,90.59A3.26,3.26,0,0,0,78,89.44a42.06,42.06,0,0,1-23,7c-4.14,0-4.14,6.44,0,6.43A48.14,48.14,0,0,0,81.24,95l-4.4-1.15,1.76,2.65,1.15-4.39a44.61,44.61,0,0,1-49.49,0l1.15,4.39,1.75-2.65L28.76,95A48.25,48.25,0,0,0,55,102.83C59.14,102.84,59.14,96.41,55,96.4Z" transform="translate(-4.01 -0.11)"/><path class="cls-2" d="M92.22,30.39a44.66,44.66,0,0,1,0,49.23l2.65,1.75a47.82,47.82,0,0,0,0-52.74Z" transform="translate(-4.01 -0.11)"/><path class="cls-2" d="M89.44,32a41.8,41.8,0,0,1,0,46,3.27,3.27,0,0,0,1.15,4.4l2.66,1.75A3.27,3.27,0,0,0,97.65,83a51.43,51.43,0,0,0,5.79-44,52.24,52.24,0,0,0-5.79-12,3.26,3.26,0,0,0-4.4-1.15l-2.66,1.75A3.3,3.3,0,0,0,89.44,32a3.25,3.25,0,0,0,4.4,1.15l2.65-1.75L92.1,30.26a44.61,44.61,0,0,1,0,49.49l4.39-1.15-2.65-1.76L95,81.24a47.81,47.81,0,0,0,0-52.48,3.29,3.29,0,0,0-4.4-1.15A3.25,3.25,0,0,0,89.44,32Z" transform="translate(-4.01 -0.11)"/><path class="cls-2" d="M55,10.39a44.4,44.4,0,0,1,24.61,7.39l1.76-2.65a47.82,47.82,0,0,0-52.74,0l1.75,2.65A44.43,44.43,0,0,1,55,10.39Z" transform="translate(-4.01 -0.11)"/><path class="cls-2" d="M55,13.6a42,42,0,0,1,23,7,3.27,3.27,0,0,0,4.4-1.15l1.75-2.66A3.27,3.27,0,0,0,83,12.35,51.42,51.42,0,0,0,39,6.56a52.43,52.43,0,0,0-12,5.79,3.26,3.26,0,0,0-1.15,4.4l1.75,2.66A3.26,3.26,0,0,0,32,20.56a42.06,42.06,0,0,1,23-7c4.14,0,4.14-6.44,0-6.43A48.14,48.14,0,0,0,28.76,15l4.4,1.15L31.4,13.51,30.25,17.9a44.61,44.61,0,0,1,49.49,0l-1.15-4.39-1.75,2.65L81.24,15A48.25,48.25,0,0,0,55,7.17C50.86,7.16,50.86,13.59,55,13.6Z" transform="translate(-4.01 -0.11)"/><path class="cls-2" d="M44.66,67.69C46.68,78,51.05,84.77,55,84.77S63.32,78,65.39,67.69Z" transform="translate(-4.01 -0.11)"/><path class="cls-2" d="M68.7,43.71H83.88A31.13,31.13,0,0,0,59.79,24.05C63.94,27.24,67.18,34.52,68.7,43.71Z" transform="translate(-4.01 -0.11)"/><path class="cls-2" d="M65.62,43.71c-1.91-11-6.45-18.43-10.59-18.43s-8.69,7.4-10.59,18.43Z" transform="translate(-4.01 -0.11)"/><path class="cls-2" d="M84.44,64.61A32.25,32.25,0,0,0,86,55a33.2,33.2,0,0,0-1.06-8.23H69.15A77.6,77.6,0,0,1,69.59,55,74.8,74.8,0,0,1,69,64.55H84.44Z" transform="translate(-4.01 -0.11)"/><path class="cls-2" d="M66.57,55a63.06,63.06,0,0,0-.51-8.24H43.94A63.73,63.73,0,0,0,43.43,55a66,66,0,0,0,.67,9.58H65.84A58.31,58.31,0,0,0,66.57,55Z" transform="translate(-4.01 -0.11)"/><path class="cls-2" d="M41.58,67.69H26.74A31.15,31.15,0,0,0,50.15,86C46.29,82.81,43.15,76.15,41.58,67.69Z" transform="translate(-4.01 -0.11)"/><path class="cls-2" d="M68.47,67.69c-1.57,8.46-4.7,15.12-8.51,18.2a31,31,0,0,0,23.36-18.2Z" transform="translate(-4.01 -0.11)"/><path class="cls-2" d="M41.08,64.61A75.6,75.6,0,0,1,40.46,55a77.88,77.88,0,0,1,.45-8.24H25.11A31.13,31.13,0,0,0,24.05,55a30.34,30.34,0,0,0,1.51,9.63H41.08Z" transform="translate(-4.01 -0.11)"/><path class="cls-2" d="M41.36,43.71c1.51-9.19,4.76-16.47,8.91-19.66A31,31,0,0,0,26.18,43.71Z" transform="translate(-4.01 -0.11)"/><path class="cls-3" d="M47.5,49.64v7.5a1.07,1.07,0,0,0,1.07,1.08h3.21v2.14a1.07,1.07,0,0,0,1.08,1.07h8.57a1.07,1.07,0,0,0,1.07-1.07v-7.5a1.07,1.07,0,0,0-1.07-1.08H58.22V49.64a1.07,1.07,0,0,0-1.08-1.07H48.57A1.07,1.07,0,0,0,47.5,49.64Zm12.86,4.29v5.36H53.93V58.22h3.21a1.08,1.08,0,0,0,1.08-1.08V53.93Zm-6.43,2.14V53.93h2.14v2.14Zm-4.29-5.36h6.43v1.07H52.86a1.08,1.08,0,0,0-1.08,1.08v3.21H49.64Z" transform="translate(-4.01 -0.11)"/></g></g></svg>