<svg xmlns="http://www.w3.org/2000/svg" viewBox="0 0 110 110"><defs><style>.cls-1{fill:#0a4ca4;}</style></defs><g id="Risk_Management" data-name="Risk Management"><g id="Proprietary_platforms" data-name="Proprietary platforms"><path class="cls-1" d="M72.36,48.37H61.88c0,.11-.11.23-.11.34V59H48.12V48.37H37.64V34.73H48.12V24.13H61.77v10.6H72.36V48.37Z"/><path class="cls-1" d="M5.09,89.62H38.86l-3.17,11.47H30a2.21,2.21,0,0,0,0,4.41H80a2.21,2.21,0,0,0,0-4.41H74.31L71.14,89.62h33.77a2.07,2.07,0,0,0,2.13-2V74.28h0V69.87h0V6.76a2.19,2.19,0,0,0-2.13-2.26H5.09A2.19,2.19,0,0,0,3,6.76V87.51a2.06,2.06,0,0,0,2,2.11Zm64.64,11.47H40.27l3.17-11.47H66.56ZM7.37,8.91h95.26V69.77H7.37Zm95.26,65.27v11H7.37v-11Z"/><path class="cls-1" d="M5.09,92.34H38.86L36.24,88.9l-3.17,11.46,2.62-2H31.75c-1.87,0-3.67,0-5.15,1.34A5,5,0,0,0,28,107.78a6,6,0,0,0,2.44.43c4.33,0,8.67,0,13,0H78.9c.37,0,.75,0,1.12,0a5,5,0,0,0,4.64-6.57c-1.51-4.23-6.81-3.27-10.35-3.27l2.62,2L73.76,88.9l-2.62,3.44h33.77a4.91,4.91,0,0,0,4.85-5c.09-3,0-5.93,0-8.89V8c0-2.46-.56-5-3.22-5.93a8.27,8.27,0,0,0-3-.31H8.27c-1,0-1.92,0-2.88,0A5.05,5.05,0,0,0,.24,6.84c-.1,2.88,0,5.77,0,8.64V86.79c0,.23,0,.46,0,.69a4.88,4.88,0,0,0,4.85,4.86c3.5,0,3.51-5.46,0-5.44.46,0,.47,1,.59.32a7.88,7.88,0,0,0,0-1.19V7.65c0-.17.09-.68,0-.82s-.58.34-.53.39.56,0,.67,0H103.4a7.61,7.61,0,0,0,1.51,0c-.13.26-.59-.41-.59-.41s0,.25,0,.32c0,.5,0,1,0,1.5V87s0,.63,0,.63c-.27,0,.5-1.06.58-.72,0,0-.1,0-.11,0-.31-.19-1.4,0-1.75,0H71.14a2.75,2.75,0,0,0-2.62,3.44l3.17,11.47a2.77,2.77,0,0,0,2.62,2h5.2c.88,0,.2.12,0-.34-.25-.64.88-.55.24-.68a6.84,6.84,0,0,0-1.28,0H30.57a1.48,1.48,0,0,0-.47,0c-.24.11,0-.17,0,0s.45.3.33.66-.53.27-.41.34c.33.19,1.33,0,1.7,0h3.94a2.77,2.77,0,0,0,2.62-2l3.17-11.47a2.75,2.75,0,0,0-2.62-3.44H5.09C1.6,86.9,1.59,92.34,5.09,92.34Z"/><path class="cls-1" d="M69.73,98.37H40.27l2.62,3.44,3.17-11.47-2.62,2H66.56l-2.62-2,3.17,11.47c.93,3.36,6.18,1.94,5.24-1.45L69.18,88.9a2.78,2.78,0,0,0-2.62-2H43.44a2.78,2.78,0,0,0-2.62,2l-3.17,11.46a2.74,2.74,0,0,0,2.62,3.44H69.73C73.23,103.8,73.23,98.37,69.73,98.37Z"/><path class="cls-1" d="M7.37,11.63H98.75c1.22,0,2.49.1,3.71,0a1,1,0,0,1,.17,0L99.91,8.91V69.77l2.72-2.71H11.25c-1.22,0-2.49-.1-3.71,0H7.37l2.72,2.71V8.91c0-3.49-5.44-3.5-5.44,0V69.77a2.76,2.76,0,0,0,2.72,2.72H90.89c3.84,0,7.73.15,11.57,0h.17a2.76,2.76,0,0,0,2.72-2.72V8.91a2.75,2.75,0,0,0-2.72-2.71H19.11c-3.84,0-7.73-.15-11.57,0H7.37C3.87,6.2,3.87,11.63,7.37,11.63Z"/><path class="cls-1" d="M99.91,74.18v11l2.72-2.72H11.25c-1.22,0-2.49-.1-3.71,0a1,1,0,0,1-.17,0l2.72,2.72v-11L7.37,76.9H90.89c3.84,0,7.73.15,11.57,0h.17c3.5,0,3.5-5.43,0-5.43H19.11c-3.84,0-7.73-.15-11.57,0H7.37a2.75,2.75,0,0,0-2.72,2.71v11a2.76,2.76,0,0,0,2.72,2.72H90.89c3.84,0,7.73.14,11.57,0a1,1,0,0,1,.17,0,2.76,2.76,0,0,0,2.72-2.72v-11C105.35,70.69,99.91,70.68,99.91,74.18Z"/></g></g></svg>