<?xml version="1.0" encoding="UTF-8"?>
<svg width="110px" height="110px" viewBox="0 0 110 110" version="1.1" xmlns="http://www.w3.org/2000/svg" xmlns:xlink="http://www.w3.org/1999/xlink">
    <title>Safety_4@svg</title>
    <g id="Safety_4" stroke="none" stroke-width="1" fill="none" fill-rule="evenodd">
        <g id="noun_creative-person_2390183" transform="translate(4.000000, -0.000000)" fill="#0A4CA4" fill-rule="nonzero">
            <g id="Group">
                <path d="M50.5238181,110 C53.8217025,110 56.7073513,108.303944 58.1046008,105.851539 L42.8976894,105.851539 C44.2947099,108.304173 47.1574567,110 50.5238181,110 Z" id="Path"></path>
                <rect id="Rectangle" x="49.0757262" y="5.08919015e-16" width="2.84831863" height="10.760329"></rect>
                <polygon id="Path" points="32.2416294 14.9768615 26.4836149 5.65634656 24.0163851 6.98729208 29.7743997 16.3075779"></polygon>
                <polygon id="Path" points="6.05413709 24.7493525 16.0263441 30.1288294 17.4503889 27.8231101 7.47841092 22.4436332"></polygon>
                <polygon id="Path" points="83.5496111 66.5614862 93.5215891 71.9409631 94.9458629 69.635473 84.9736559 64.2557669"></polygon>
                <rect id="Rectangle" x="-1.017052e-15" y="45.8620402" width="11.5158001" height="2.66189104"></rect>
                <rect id="Rectangle" x="89.4841999" y="45.8620402" width="11.5158001" height="2.66189104"></rect>
                <polygon id="Path" points="6.05413709 69.635473 7.47841092 71.9409631 17.4503889 66.5614862 16.0263441 64.2557669"></polygon>
                <polygon id="Path" points="94.9458629 24.7493525 93.5215891 22.4436332 83.5496111 27.8231101 84.9736559 30.1288294"></polygon>
                <polygon id="Path" points="76.9836149 6.98729208 74.5163851 5.65634656 68.7583706 14.9768615 71.2256003 16.3075779"></polygon>
                <path d="M50.5011451,17.8399873 C34.057527,17.8399873 20.7056756,30.8583627 20.7056756,46.9479744 C20.7056756,55.3824148 24.3699916,62.9459075 30.2557992,68.2632721 C33.5765856,71.2428298 35.8438811,75.0933352 36.5538423,79.3563947 L64.4484479,79.3563947 C65.1584091,75.0933352 67.4257046,71.2428298 70.746491,68.2861917 C76.6322986,62.9688272 80.2966146,55.3824148 80.2966146,46.9479744 C80.2966146,30.8583627 66.9676651,17.8399873 50.5011451,17.8399873 Z M50.5011451,71.5180951 C44.1114941,71.5180951 38.1111766,69.0427702 33.5765856,64.5505139 C29.0419945,60.0124183 26.5456792,53.9845438 26.5456792,47.5670348 C26.5456792,34.3423824 37.2867055,23.5930549 50.4782431,23.5930549 C57.0969139,23.5930549 63.463663,26.3663356 67.998254,31.202387 C72.1664135,35.6258842 74.456611,41.4474816 74.456611,47.5899545 C74.456611,60.791458 63.7153557,71.5180951 50.5011451,71.5180951 Z" id="Shape"></path>
                <path d="M34.7558083,96.4952692 C34.7558083,99.7684279 37.4680892,102.41565 40.8218544,102.41565 L60.1786037,102.41565 C63.5321399,102.41565 66.2446498,99.7684279 66.2446498,96.4952692 L66.2446498,82.7833445 L34.7558083,82.7833445 L34.7558083,96.4952692 Z" id="Path"></path>
                <path d="M50.4782431,27.030777 C39.1646675,27.030777 29.9809755,36.2215666 29.9809755,47.5668056 C29.9809755,53.250885 32.294075,58.3848922 36.0041949,62.0978795 C36.6225482,60.8372974 36.6454502,56.8721936 39.9891386,56.8721936 L45.7604363,56.8721936 C44.3176118,58.5453299 43.8137684,59.3933579 42.32514,60.9977351 L44.5924355,62.3270763 L42.1419242,63.9085338 L44.3634158,67.140208 C45.7604363,67.5756818 47.2032607,67.8736376 48.6918891,67.988236 C47.2948686,61.0435745 46.2871817,58.6599283 46.905535,56.8721936 L54.0738532,56.8721936 C54.7838144,58.682848 54.0280493,59.5308759 52.3333031,67.9194769 C53.8677354,67.7361195 55.4479717,67.4152441 56.6617764,67.1172883 L58.860366,63.9085338 L56.4098547,62.3270763 L58.6773792,60.9977351 C58.4483594,60.7456187 58.1735357,60.5393416 55.0359652,56.8721936 L61.0133806,56.8721936 C64.3112651,56.8721936 64.402873,60.8831367 64.9983243,62.0978795 C68.7771502,58.2932135 71.0215437,53.0904473 71.0215437,47.5897253 C71.0215437,42.1348427 68.937464,37.2071126 65.4792658,33.5399646 C61.7460148,29.5521704 56.4096256,27.030777 50.4782431,27.030777 Z M58.6998231,46.9021351 C56.3734405,57.5380102 44.6265595,57.5288423 42.302009,46.9021351 C40.6686402,46.820541 40.0159339,43.9184518 41.3401261,42.5932362 C40.8653681,39.1497842 40.9006372,34.3345897 44.3631868,34.5942697 C43.6536836,32.9713275 44.9881817,30.7455979 48.8748759,31.1104791 C56.2987801,31.7980693 61.2737761,34.5266566 59.6159021,42.5473968 C60.9833791,43.8471716 60.3787669,46.8203118 58.6998231,46.9021351 Z" id="Shape"></path>
            </g>
        </g>
    </g>
</svg>