<?xml version="1.0" encoding="UTF-8"?>
<svg width="110px" height="110px" viewBox="0 0 110 110" version="1.1" xmlns="http://www.w3.org/2000/svg" xmlns:xlink="http://www.w3.org/1999/xlink">
    <title>Safety_2@svg</title>
    <g id="Safety_2" stroke="none" stroke-width="1" fill="none" fill-rule="evenodd">
        <g id="noun_efficiency_3764428" transform="translate(2.000000, 0.000000)" fill="#0A4CA4">
            <path d="M85.6637872,64.6001404 C84.4855173,69.0213801 82.3481873,73.0754442 79.482756,76.5390017 C78.7233369,77.4588305 78.8760046,78.7988314 79.8272327,79.5331805 C80.7745479,80.2675296 82.1642039,80.1199034 82.919708,79.2000726 C86.1726766,75.2709242 88.591852,70.67556 89.9306195,65.6600258 C90.2320377,64.5244334 89.5235072,63.3623448 88.3452373,63.0670904 C87.1708803,62.7756218 85.9691204,63.4607622 85.6637872,64.6001404 L85.6637872,64.6001404 Z" id="Path"></path>
            <path d="M57,26.4937037 C56.9938929,27.6140741 56.0839368,28.5185185 54.9643039,28.5185185 C40.3581843,28.5185185 28.5002545,40.3842593 28.5002545,55 C28.5002545,69.6157407 40.3581843,81.4814815 54.9643039,81.4814815 C56.0880081,81.4814815 57,82.3940741 57,83.5185185 L57,107.962963 C57,109.087407 56.0880081,110 54.9643039,110 C52.089901,110 49.2134624,109.773889 46.3655235,109.323704 C45.5675306,109.19537 44.9181436,108.608704 44.714574,107.824444 L42.7949125,100.452407 C38.8232694,99.387037 35.0104106,97.8062963 31.4520138,95.7509259 L24.8848582,99.605 C24.1866144,100.014444 23.3112651,99.9716667 22.6578066,99.495 C17.9919911,96.1033333 13.8880278,91.9966667 10.4985938,87.3277778 C10.0222409,86.6738889 9.97949125,85.797963 10.3886662,85.0992593 L14.2402032,78.5277778 C12.1841501,74.967037 10.60445,71.1496296 9.54181659,67.1774074 L2.17463237,65.2564815 C1.39088937,65.0527778 0.804608887,64.402963 0.676360032,63.6044444 C-0.225453344,57.9027778 -0.225453344,52.0972222 0.676360032,46.3955556 C0.804608887,45.597037 1.39088937,44.9472222 2.17463237,44.7435185 L9.54181659,42.8225926 C10.6064857,38.8483333 12.1861858,35.032963 14.2402032,31.4722222 L10.3886662,24.9007407 C9.97949125,24.202037 10.0222409,23.3261111 10.4985938,22.6722222 C13.8880278,18.0033333 17.9919911,13.8966667 22.6578066,10.505 C23.3112651,10.0283333 24.1866144,9.98555556 24.8848582,10.395 L31.4520138,14.2490741 C35.0104106,12.1916667 38.8253051,10.6109259 42.7949125,9.54759259 L44.714574,2.17555556 C44.9181436,1.3912963 45.5675306,0.80462963 46.3655235,0.676296296 C49.2134624,0.226111111 52.089901,0 54.9643039,0 C56.0880081,0 57,0.912592593 57,2.03703704 L57,26.4814815 L57,26.4937037 Z M61,5 C86.335,8.01726361 106,29.4921236 106,55.5 C106,81.5078764 86.335,102.982736 61,106 L61,93.6766246 C79.5379545,90.7468474 93.7272727,74.759216 93.7272727,55.5 C93.7272727,36.240784 79.5379545,20.2531526 61,17.3233754 L61,5 Z" id="Shape"></path>
            <path d="M55.0968416,46.7604497 C62.8276554,41.6689077 74.7596289,34.316347 74.7596289,34.316347 C75.5990108,33.7999677 76.6827698,33.9253437 77.3776505,34.6223495 C78.0746563,35.3172302 78.2000323,36.4009892 77.683653,37.2403711 C77.683653,37.2403711 70.3310923,49.1723446 65.2395503,56.9031584 C65.2459254,57.0604097 65.2501754,57.217661 65.2501754,57.3749123 C65.2501754,63.2399607 60.4901361,68 54.6250877,68 C48.7600393,68 44,63.2399607 44,57.3749123 C44,51.5098639 48.7600393,46.7498246 54.6250877,46.7498246 C54.782339,46.7498246 54.9395903,46.7540746 55.0968416,46.7604497 Z" id="Path"></path>
            <path d="M91,57 C91,58.1045695 90.1045695,59 89,59 C87.8954305,59 87,58.1045695 87,57 C87,55.8954305 87.8954305,55 89,55 C90.1045695,55 91,55.8954305 91,57 Z" id="Path"></path>
        </g>
    </g>
</svg>