<?xml version="1.0" encoding="UTF-8"?>
<svg width="110px" height="110px" viewBox="0 0 110 110" version="1.1" xmlns="http://www.w3.org/2000/svg" xmlns:xlink="http://www.w3.org/1999/xlink">
    <title>Safety_1@svg</title>
    <g id="Safety_1" stroke="none" stroke-width="1" fill="none" fill-rule="evenodd">
        <g id="quality" transform="translate(0.000000, 0.000000)" fill="#0A4CA4" fill-rule="nonzero">
            <path d="M55,22.1942658 C36.8997464,22.1942658 22.1942658,36.9241273 22.1942658,55 C22.1942658,73.0748977 36.9241273,87.8047593 55,87.8047593 C73.0748977,87.8047593 87.8047593,73.0748977 87.8047593,55 C87.8047593,36.9241273 73.1002536,22.1942658 55,22.1942658 Z M71.4521164,47.1357519 L51.6539889,65.8094405 C51.2882779,66.1683248 50.7938366,66.3662962 50.2808662,66.3596404 C49.74449,66.3643458 49.229569,66.1478448 48.8580067,65.7597037 L38.4971719,55.1248293 C37.7384435,54.3368442 37.7550223,53.0836747 38.5361811,52.3171447 C39.3163645,51.5506145 40.5685587,51.5554908 41.3438657,52.3278723 L50.3315779,61.5652431 L68.705871,44.2393214 C69.5055589,43.4805932 70.7684808,43.514726 71.527209,44.3144139 C72.2859372,45.1141019 72.2518043,46.3770237 71.4521164,47.1357519 L71.4521164,47.1357519 Z" id="Shape"></path>
            <path d="M102.110396,66.9582603 L110,55 L102.110396,43.0407648 C101.879267,42.6857813 101.765165,42.2664327 101.785645,41.8422082 L102.584358,27.5121905 L89.8273845,21.0464209 C89.4499707,20.8562514 89.1437489,20.5500293 88.9535791,20.1726155 L82.5121905,7.41466752 L68.1821728,8.21338028 C67.7579483,8.23386003 67.3385996,8.12073344 66.9836162,7.88862902 L55,0 L43.0407648,7.88862902 C42.6857811,8.12073344 42.2664327,8.23386003 41.8431831,8.21338028 L27.5121905,7.41466752 L21.0464209,20.1726155 C20.8562511,20.5500293 20.5500293,20.8562514 20.1726155,21.0464209 L7.41466752,27.4868346 L8.21338028,41.8178272 C8.23386003,42.2410768 8.12073344,42.6604252 7.88960394,43.0163838 L0,55 L7.88960394,66.9582603 C8.12073344,67.3142189 8.23386003,67.7325922 8.21338028,68.1568169 L7.41466752,82.4868346 L20.1726155,88.9282233 C20.5500293,89.118393 20.8562511,89.4246149 21.0464209,89.8020286 L27.4878095,102.559977 L41.8178272,101.760289 L41.9173007,101.760289 C42.306417,101.765165 42.6877317,101.877316 43.0163838,102.08504 L54.9746442,109.974644 L66.9338794,102.08504 C67.2888631,101.853911 67.7082115,101.740784 68.1314611,101.760289 L82.4624537,102.559977 L88.9038424,89.8020286 C89.0940121,89.4246149 89.4002342,89.118393 89.7776477,88.9282233 L102.534621,82.4868346 L101.735908,68.1568169 C101.757363,67.731617 101.886093,67.319095 102.110396,66.9582603 L102.110396,66.9582603 Z M55,91.799298 C34.7025551,91.799298 18.1997271,75.2964699 18.1997271,55 C18.1997271,34.7025551 34.7025551,18.1997271 55,18.1997271 C75.2974449,18.1997271 91.799298,34.7025551 91.799298,55 C91.799298,75.2964699 75.2974449,91.799298 55,91.799298 Z" id="Shape"></path>
        </g>
    </g>
</svg>