<?xml version="1.0" encoding="UTF-8"?>
<svg width="110px" height="110px" viewBox="0 0 110 110" version="1.1" xmlns="http://www.w3.org/2000/svg" xmlns:xlink="http://www.w3.org/1999/xlink">
    <title>Safety_6@svg</title>
    <g id="Safety_6" stroke="none" stroke-width="1" fill="none" fill-rule="evenodd">
        <g id="Group-3" transform="translate(2.000000, -0.000000)" fill="#0A4CA4" fill-rule="nonzero">
            <path d="M106.2,41.4 L66.4,41.4 L53.1,-1.20792265e-13 L39.8,41.4 L7.10542736e-15,41.4 L32.8,67.6 L19.9,110.4 L53.1,83.9 L86.3,110.4 L73.5,67.7 L106.2,41.4 Z M78.1,98.5 L53.1,78.5 L28.1,98.5 L37.8,66.2 L13.1,46.5 L43.1,46.5 L53.1,15.3 L63.1,46.5 L93.1,46.5 L68.5,66.3 L78.1,98.5 Z" id="Shape"></path>
            <polygon id="Path" points="37.3 84.6 53.1 71.9 69 84.6 62.9 64.2 78.5 51.6 59.5 51.6 53.1 31.8 46.8 51.6 27.7 51.6 43.4 64.1"></polygon>
        </g>
    </g>
</svg>