<?xml version="1.0" encoding="UTF-8"?>
<svg width="110px" height="110px" viewBox="0 0 110 110" version="1.1" xmlns="http://www.w3.org/2000/svg" xmlns:xlink="http://www.w3.org/1999/xlink">
    <title>Safety_5@svg</title>
    <g id="Safety_5" stroke="none" stroke-width="1" fill="none" fill-rule="evenodd">
        <g id="propreitary-platform-and-tools" fill="#0A4CA4" fill-rule="nonzero">
            <g id="Group">
                <g transform="translate(0.000000, 57.380240)" id="Path">
                    <polygon points="0 38.5706654 22.7586207 51.6197601 22.7586207 29.3599874 0 16.3108927"></polygon>
                    <polygon points="47.3834483 13.0319675 24.6551724 0 1.92689655 13.0319675 24.6551724 26.0639349"></polygon>
                    <polygon points="49.3103448 16.3108927 26.5517241 29.3599874 26.5517241 51.6197601 49.3103448 38.5706654"></polygon>
                </g>
                <g transform="translate(60.689655, 57.380240)" id="Path">
                    <polygon points="47.3834483 13.0319675 24.6551724 0 1.92689655 13.0319675 24.6551724 26.0639349"></polygon>
                    <polygon points="49.3103448 16.3108927 26.5517241 29.3599874 26.5517241 51.6197601 49.3103448 38.5706654"></polygon>
                    <polygon points="0 38.5706654 22.7586207 51.6197601 22.7586207 29.3599874 0 16.3108927"></polygon>
                </g>
                <g transform="translate(26.551724, 0.000000)">
                    <ellipse id="Oval" cx="1.89655172" cy="43.7697505" rx="1.89655172" ry="1.90303263"></ellipse>
                    <ellipse id="Oval" cx="1.89655172" cy="17.1272937" rx="1.89655172" ry="1.90303263"></ellipse>
                    <path d="M24.7575862,28.0430888 C25.7532759,27.1829181 27.0334483,26.6424568 28.4482759,26.6424568 C29.8631034,26.6424568 31.1432759,27.1829181 32.1389655,28.0430888 L49.4108621,18.139707 C49.3539655,17.8104824 49.3103448,17.4736456 49.3103448,17.1272937 C49.3103448,16.7809417 49.3539655,16.444105 49.4127586,16.1148803 L32.1408621,6.21149851 C31.1432759,7.07166926 29.8631034,7.61213052 28.4482759,7.61213052 C27.0334483,7.61213052 25.7532759,7.07166926 24.7575862,6.21149851 L7.48568966,16.1148803 C7.54258621,16.444105 7.5862069,16.7809417 7.5862069,17.1272937 C7.5862069,17.4736456 7.54258621,17.8104824 7.4837931,18.139707 L24.7575862,28.0430888 Z" id="Path"></path>
                    <path d="M53.1034483,38.4108106 L53.1034483,22.4843305 C52.4377586,22.2464515 51.8346552,21.8886813 51.3093103,21.4338565 L34.0374138,31.3372383 C34.0943103,31.668366 34.137931,32.0052028 34.137931,32.3515547 C34.137931,34.8293032 32.5467241,36.9226391 30.3448276,37.7104946 L30.3448276,51.7339421 C31.552931,52.1659305 32.5713793,52.9823315 33.2465517,54.0518358 L49.4127586,44.7821639 C49.3539655,44.4529392 49.3103448,44.1161024 49.3103448,43.7697505 C49.3103448,41.292002 50.9015517,39.1986661 53.1034483,38.4108106 Z" id="Path"></path>
                    <path d="M23.65,54.0518358 C24.3251724,52.9823315 25.3436207,52.1659305 26.5517241,51.7339421 L26.5517241,37.7104946 C24.3498276,36.9226391 22.7586207,34.8293032 22.7586207,32.3515547 C22.7586207,32.0052028 22.8022414,31.668366 22.8610345,31.3391414 L5.58913793,21.4357596 C5.0637931,21.8905844 4.46068966,22.2464515 3.795,22.4862336 L3.795,38.4127137 C5.99689655,39.2005692 7.58810345,41.2939051 7.58810345,43.7716535 C7.58810345,44.1180055 7.54448276,44.4548423 7.48568966,44.7840669 L23.65,54.0518358 Z" id="Path"></path>
                    <ellipse id="Oval" cx="55" cy="17.1272937" rx="1.89655172" ry="1.90303263"></ellipse>
                    <ellipse id="Oval" cx="28.4482759" cy="1.90303263" rx="1.89655172" ry="1.90303263"></ellipse>
                    <ellipse id="Oval" cx="55" cy="43.7697505" rx="1.89655172" ry="1.90303263"></ellipse>
                    <ellipse id="Oval" cx="28.4482759" cy="57.0909789" rx="1.89655172" ry="1.90303263"></ellipse>
                    <ellipse id="Oval" cx="28.4482759" cy="32.3515547" rx="1.89655172" ry="1.90303263"></ellipse>
                </g>
            </g>
        </g>
    </g>
</svg>