<svg xmlns="http://www.w3.org/2000/svg" viewBox="0 0 34.71 34.29"><defs><style>.cls-1{fill:#12bdcf;}</style></defs><g id="Layer_3" data-name="Layer 3"><path class="cls-1" d="M23.57,26.22a.53.53,0,0,1-.24-.06l-6-3.14-6,3.14a.5.5,0,0,1-.55,0,.52.52,0,0,1-.21-.51L11.76,19,6.93,14.25a.54.54,0,0,1-.13-.54.51.51,0,0,1,.42-.35l6.68-1,3-6.06A.54.54,0,0,1,17.36,6a.52.52,0,0,1,.46.29l3,6.06,6.68,1a.51.51,0,0,1,.42.35.54.54,0,0,1-.13.54L23,19l1.14,6.65a.52.52,0,0,1-.21.51A.5.5,0,0,1,23.57,26.22Zm-6.21-4.31a.53.53,0,0,1,.24.06l5.28,2.78-1-5.88A.54.54,0,0,1,22,18.4l4.27-4.16-5.9-.86A.5.5,0,0,1,20,13.1L17.36,7.74,14.72,13.1a.53.53,0,0,1-.4.28l-5.9.86,4.27,4.16a.54.54,0,0,1,.15.47l-1,5.88L17.11,22A.54.54,0,0,1,17.36,21.91Z"/><rect class="cls-1" x="16.83" y="0.83" width="1.04" height="3.38"/><rect class="cls-1" x="9.52" y="2.79" width="1.04" height="3.38" transform="translate(-0.9 5.62) rotate(-30)"/><rect class="cls-1" x="4.17" y="8.14" width="1.04" height="3.38" transform="translate(-6.17 8.98) rotate(-60)"/><rect class="cls-1" x="1.04" y="16.62" width="3.38" height="1.04"/><rect class="cls-1" x="3" y="23.93" width="3.38" height="1.04" transform="matrix(0.87, -0.5, 0.5, 0.87, -11.6, 5.62)"/><rect class="cls-1" x="8.36" y="29.28" width="3.38" height="1.04" transform="translate(-20.79 23.61) rotate(-60.01)"/><rect class="cls-1" x="16.84" y="30.07" width="1.04" height="3.38"/><rect class="cls-1" x="24.15" y="28.11" width="1.04" height="3.38" transform="translate(-11.6 16.33) rotate(-30)"/><rect class="cls-1" x="29.5" y="22.76" width="1.04" height="3.38" transform="translate(-6.17 38.22) rotate(-60)"/><rect class="cls-1" x="30.29" y="16.62" width="3.38" height="1.04"/><rect class="cls-1" x="28.33" y="9.31" width="3.38" height="1.04" transform="translate(-0.89 16.33) rotate(-30)"/><rect class="cls-1" x="22.97" y="3.96" width="3.38" height="1.04" transform="translate(8.45 23.6) rotate(-60)"/></g></svg>