<?xml version="1.0" encoding="UTF-8"?>
<svg width="110px" height="110px" viewBox="0 0 110 110" version="1.1" xmlns="http://www.w3.org/2000/svg" xmlns:xlink="http://www.w3.org/1999/xlink">
    <title>savings_NEXT Adverse Event Management</title>
    <g id="Page-1" stroke="none" stroke-width="1" fill="none" fill-rule="evenodd">
        <g id="savings_NEXT-Adverse-Event-Management" transform="translate(0.000000, 0.000000)" fill="#0A4CA4" fill-rule="nonzero">
            <g id="Group">
                <path d="M28.8556641,28.8618945 L28.8556641,35.7628906 C30.0641602,35.0706641 30.7858203,33.8466992 30.9817578,32.6822461 C31.1226953,31.842207 31.1804883,29.8409375 28.8556641,28.8618945 Z" id="Path"></path>
                <path d="M23.4173242,19.7355469 C23.2456641,20.6462695 23.4628711,21.4923242 23.9709766,21.8906445 C24.1499414,22.0309375 24.347168,22.1688672 24.5585742,22.3044336 L24.5585742,17.8116211 C23.9030859,18.3143555 23.5417187,19.0755469 23.4173242,19.7355469 Z" id="Path"></path>
                <path d="M26.8554687,0 C12.0473633,0 0,12.0473633 0,26.8554687 C0,41.6635742 12.0473633,53.7109375 26.8554687,53.7109375 C41.6635742,53.7109375 53.7109375,41.6635742 53.7109375,26.8554687 C53.7109375,12.0473633 41.6635742,0 26.8554687,0 Z M35.2191211,33.3944531 C34.7135937,36.4011914 32.4255078,39.4504687 28.8556641,40.3560352 L28.8556641,41.8945312 C28.8556641,43.0808984 27.8935937,44.0429687 26.7072266,44.0429687 C25.5208594,44.0429687 24.5587891,43.0808984 24.5587891,41.8945312 L24.5587891,40.5620703 C22.8241406,40.4121094 21.3861914,39.9435352 19.3477539,38.61 C18.3547461,37.9605273 18.0765234,36.6289258 18.7259961,35.635918 C19.3752466,34.643125 20.7070703,34.3642578 21.7000781,35.0141602 C22.8602344,35.7729883 23.5879102,36.1021289 24.5587891,36.2387695 L24.5587891,27.1657031 C23.186582,26.5368555 22.160918,25.9316406 21.319375,25.2714258 C19.5363867,23.8730078 18.7223437,21.4469922 19.1947852,18.9395508 C19.7095508,16.207168 21.6115625,14.0331641 24.1581055,13.2661719 C24.2930273,13.2255664 24.4264453,13.1883984 24.5587891,13.1531641 L24.5587891,11.8164062 C24.5587891,10.6300391 25.5208594,9.66796875 26.7072266,9.66796875 C27.8935937,9.66796875 28.8556641,10.6300391 28.8556641,11.8164062 L28.8556641,12.9179102 C30.941582,13.2790625 32.4158398,14.3060156 33.1299805,15.1258594 C33.9094336,16.0204687 33.8157617,17.3776367 32.9211523,18.156875 C32.0312695,18.9318164 30.6839844,18.8441602 29.9023828,17.9624414 C29.8533984,17.9128125 29.5120117,17.5841016 28.8556641,17.3419727 L28.8556641,24.2840039 C29.2370117,24.4255859 29.6181445,24.5628711 29.9921875,24.6952148 C33.7687109,26.0300391 35.8692383,29.5261914 35.2191211,33.3944531 L35.2191211,33.3944531 Z" id="Shape"></path>
            </g>
            <path d="M107.317031,47.7408594 L96.1114258,45.8377734 C94.7033398,43.6487305 93.0413086,41.630918 91.1483203,39.8126953 C92.2367188,34.3687695 95.1697656,29.5264062 99.5203516,26.0459375 L100.19668,25.5049609 C101.265527,24.6500977 101.677598,23.2132227 101.224492,21.921582 C100.771387,20.6299414 99.5521484,19.765625 98.1835938,19.765625 L89.5898438,19.765625 C81.9856641,19.765625 75.0266602,24.0648633 71.5360938,30.6930078 C70.3791602,30.5699023 69.2321094,30.5078125 68.1054688,30.5078125 L59.9551563,30.5078125 C58.1302734,47.1579883 43.983457,60.15625 26.8554688,60.15625 C17.4988086,60.15625 9.03289063,56.275957 2.97773438,50.0418359 C1.03039063,54.3314062 2.44249065e-14,59.0205859 2.44249065e-14,63.8085937 C2.44249065e-14,74.0983203 4.78886719,83.8028125 12.890625,90.0998828 L12.890625,106.777344 C12.890625,108.557109 14.3335156,110 16.1132813,110 L29.0039063,110 C30.3909375,110 31.6224219,109.112266 32.0611328,107.796348 L35.6236719,97.109375 L65.782793,97.109375 L69.3451172,107.796348 C69.7838281,109.112266 71.0153125,110 72.4023438,110 L85.2929688,110 C87.0727344,110 88.515625,108.557109 88.515625,106.777344 L88.515625,90.1003125 C92.947207,86.6583008 96.4132813,82.1858984 98.6435742,77.0268555 L107.987559,73.2406641 C109.204004,72.7475977 110,71.5663867 110,70.2539062 L110,50.9179688 C110,49.3463867 108.866484,48.004043 107.317031,47.7408594 L107.317031,47.7408594 Z M82.0703125,55.2148438 C80.2905469,55.2148438 78.8476562,53.7719531 78.8476562,51.9921875 C78.8476562,50.2124219 80.2905469,48.7695312 82.0703125,48.7695312 C83.8500781,48.7695312 85.2929687,50.2124219 85.2929687,51.9921875 C85.2929687,53.7719531 83.8500781,55.2148438 82.0703125,55.2148438 Z" id="Shape"></path>
        </g>
    </g>
</svg>