<?xml version="1.0" encoding="utf-8"?>
<!-- Generator: Adobe Illustrator 25.2.1, SVG Export Plug-In . SVG Version: 6.00 Build 0)  -->
<svg version="1.1" id="Layer_1" xmlns="http://www.w3.org/2000/svg" xmlns:xlink="http://www.w3.org/1999/xlink" x="0px" y="0px"
	 viewBox="0 0 166 173" style="enable-background:new 0 0 166 173;" xml:space="preserve">
<style type="text/css">
	.st0{fill:#0a4ca4;}
</style>
<g id="Page-1">
	<g id="Desktop-HD" transform="translate(-1048.000000, -1203.000000)">
		<g id="scientific-expertise" transform="translate(1048.000000, 1203.000000)">
			<g id="Group">
				<g>
					<path id="Path" class="st0" d="M81.1,64.4c-2.9-2.4-5.9-4.7-8.7-6.7c-0.7,4.4-1.1,9.2-1.5,14.1c0.7,0,1.4-0.1,2.1-0.1
						C75.8,69.2,78.4,66.7,81.1,64.4z"/>
					<path id="Path_1_" class="st0" d="M51.5,96.7c2.3-3.3,4.9-6.7,7.8-10.2c-2.9-3.4-5.5-6.8-7.8-10.2c-2.8,0.5-5.5,1-8,1.6
						C32.1,80.8,28,84.2,28,86.5c0,2.3,4.1,5.7,15.5,8.5C46,95.6,48.7,96.2,51.5,96.7z"/>
					<path id="Path_2_" class="st0" d="M62.5,86.5c1.8,2.1,3.6,4.2,5.6,6.2c-0.1-2.1-0.1-4.2-0.1-6.2s0-4.2,0.1-6.2
						C66.2,82.3,64.3,84.4,62.5,86.5z"/>
					<path id="Path_3_" class="st0" d="M54.2,97.1c4.4,0.7,9.2,1.1,14.2,1.5c0-0.7-0.1-1.4-0.1-2.1c-2.6-2.7-5-5.3-7.3-8
						C58.5,91.3,56.2,94.2,54.2,97.1z"/>
					<path id="Path_4_" class="st0" d="M52.7,99.3c-1.8,2.7-3.4,5.3-4.8,7.8c-4.9,8.9-6.3,15.7-3.7,18.3c0.8,0.8,2.2,1.3,3.9,1.3
						c5.2,0,13.2-3.7,22.2-9.8c-0.8-5-1.3-10.3-1.7-15.9C63,100.6,57.6,100.1,52.7,99.3z"/>
					<path id="Path_5_" class="st0" d="M54.2,75.9c2,2.8,4.3,5.8,6.7,8.7c2.3-2.7,4.8-5.4,7.3-8c0-0.7,0.1-1.4,0.1-2.1
						C63.4,74.8,58.6,75.3,54.2,75.9z"/>
					<path id="Path_6_" class="st0" d="M93.1,55c-0.5-2.8-1-5.5-1.6-8c-2.8-11.5-6.2-15.5-8.5-15.5c-2.3,0-5.7,4.1-8.5,15.5
						c-0.6,2.5-1.1,5.1-1.6,8c3.3,2.3,6.7,4.9,10.1,7.8C86.5,59.9,89.9,57.3,93.1,55z"/>
					<path id="Path_7_" class="st0" d="M97.6,98.5c5-0.3,9.7-0.8,14.2-1.5c-2-2.8-4.3-5.8-6.7-8.7c-2.3,2.7-4.8,5.4-7.3,8
						C97.7,97.1,97.7,97.8,97.6,98.5z"/>
					<path id="Path_8_" class="st0" d="M97.6,74.5c0,0.7,0.1,1.4,0.1,2.1c2.6,2.7,5,5.3,7.3,8c2.4-2.9,4.7-5.8,6.7-8.7
						C107.4,75.3,102.6,74.8,97.6,74.5z"/>
					<path id="Path_9_" class="st0" d="M92.9,71.8c0.7,0,1.4,0.1,2.1,0.1c-0.3-5-0.8-9.7-1.5-14.1c-2.8,2-5.7,4.3-8.7,6.7
						C87.6,66.7,90.2,69.2,92.9,71.8z"/>
					<path id="Path_10_" class="st0" d="M76.8,71.6c2.1-0.1,4.2-0.1,6.2-0.1s4.1,0,6.2,0.1c-2.1-1.9-4.2-3.8-6.2-5.6
						C80.9,67.8,78.8,69.7,76.8,71.6z"/>
					<path id="Path_11_" class="st0" d="M44.1,47.6c-2.6,2.6-1.2,9.4,3.7,18.3c1.4,2.5,3,5.1,4.8,7.8c5-0.8,10.3-1.3,15.9-1.7
						c0.4-5.5,0.9-10.9,1.7-15.9c-9-6.2-17-9.8-22.2-9.8C46.3,46.3,45,46.8,44.1,47.6z"/>
					<path id="Path_12_" class="st0" d="M113.3,99.3c-5,0.8-10.3,1.3-15.9,1.7c-0.4,5.5-0.9,10.9-1.7,15.9c9,6.2,17,9.8,22.2,9.8
						c1.7,0,3-0.4,3.9-1.3c2.6-2.6,1.2-9.4-3.7-18.3C116.8,104.6,115.2,102,113.3,99.3z"/>
					<path id="Shape" class="st0" d="M93.6,75.9c-0.6-0.6-1.2-1.2-1.8-1.7C89,74,86,74,83,74s-6,0.1-8.9,0.2
						c-0.6,0.6-1.2,1.1-1.8,1.7c-0.6,0.6-1.2,1.2-1.7,1.8c-0.1,2.9-0.2,5.9-0.2,8.9s0.1,6,0.2,8.9c0.6,0.6,1.1,1.2,1.7,1.8
						c0.6,0.6,1.2,1.2,1.8,1.7C77,99,80,99,83,99s6-0.1,8.9-0.2c0.6-0.6,1.2-1.1,1.8-1.7c0.6-0.6,1.2-1.2,1.7-1.8
						c0.1-2.9,0.2-5.9,0.2-8.9s-0.1-6-0.2-8.9C94.8,77,94.2,76.5,93.6,75.9z M83.2,93c-3.4,0-6.2-2.8-6.2-6.2c0-3.4,2.8-6.2,6.2-6.2
						c3.4,0,6.2,2.8,6.2,6.2C89.5,90.2,86.7,93,83.2,93z"/>
					<path id="Path_13_" class="st0" d="M122.5,78c-2.5-0.6-5.2-1.1-8-1.6c-2.3,3.3-4.9,6.7-7.8,10.2c2.9,3.4,5.5,6.8,7.8,10.2
						c2.8-0.5,5.5-1,8-1.6c11.5-2.8,15.5-6.2,15.5-8.5C138,84.2,133.9,80.8,122.5,78z"/>
					<path id="Path_14_" class="st0" d="M113.3,73.7c1.8-2.7,3.4-5.3,4.8-7.8c4.9-8.9,6.3-15.7,3.7-18.3c-0.8-0.8-2.2-1.3-3.9-1.3
						c-5.2,0-13.2,3.7-22.2,9.8c0.8,5,1.3,10.3,1.7,15.9C103,72.4,108.4,72.9,113.3,73.7z"/>
					<path id="Path_15_" class="st0" d="M83.2,83c-2.1,0-3.8,1.7-3.8,3.8c0,2.1,1.7,3.8,3.8,3.8c2.1,0,3.8-1.7,3.8-3.8
						C87,84.7,85.3,83,83.2,83z"/>
					<path id="Path_16_" class="st0" d="M89.2,101.4c-2.1,0.1-4.2,0.1-6.2,0.1s-4.1,0-6.2-0.1c2.1,1.9,4.2,3.8,6.2,5.6
						C85.1,105.2,87.2,103.3,89.2,101.4z"/>
					<path id="Path_17_" class="st0" d="M103.5,86.5c-1.8-2.1-3.6-4.2-5.6-6.2c0.1,2.1,0.1,4.2,0.1,6.2s0,4.2-0.1,6.2
						C99.8,90.7,101.7,88.6,103.5,86.5z"/>
					<path id="Path_18_" class="st0" d="M73.1,101.2c-0.7,0-1.4-0.1-2.1-0.1c0.3,5,0.8,9.7,1.5,14.1c2.8-2,5.7-4.3,8.7-6.7
						C78.4,106.3,75.8,103.8,73.1,101.2z"/>
					<path id="Path_19_" class="st0" d="M72.9,118c0.5,2.8,1,5.5,1.6,8c2.8,11.5,6.2,15.5,8.5,15.5c2.3,0,5.7-4.1,8.5-15.5
						c0.6-2.5,1.1-5.1,1.6-8c-3.3-2.3-6.7-4.9-10.1-7.8C79.5,113.1,76.1,115.7,72.9,118z"/>
					<path id="Path_20_" class="st0" d="M84.9,108.6c2.9,2.4,5.9,4.7,8.7,6.7c0.7-4.4,1.1-9.2,1.5-14.1c-0.7,0-1.4,0.1-2.1,0.1
						C90.2,103.8,87.6,106.3,84.9,108.6z"/>
				</g>
			</g>
		</g>
	</g>
</g>
</svg>
