<?xml version="1.0" encoding="UTF-8"?>
<svg width="110px" height="110px" viewBox="0 0 110 110" version="1.1" xmlns="http://www.w3.org/2000/svg" xmlns:xlink="http://www.w3.org/1999/xlink">
    <title>Signal Detection and Management_3@svg</title>
    <g id="Signal-Detection-and-Management_3" stroke="none" stroke-width="1" fill="none" fill-rule="evenodd">
        <g id="Group" transform="translate(10.000000, 0.000000)" fill="#0A4CA4" fill-rule="nonzero">
            <path d="M45.2,5.4 C51.3,9.3 66.9,18.5 86,22.9 C85.8,55.1 81.7,78.9 45.2,105.2 C8.7,79 4.7,55.2 4.4,22.9 C23.5,18.4 39.1,9.3 45.2,5.4 M45.2,0 L42.8,1.6 C37.1,5.3 22,14.2 3.5,18.5 L-1.42108547e-14,19.3 L-1.42108547e-14,22.9 C0.2,54.4 3.5,80.7 42.6,108.8 L45.2,110.7 L47.8,108.8 C86.9,80.7 90.2,54.4 90.4,22.9 L90.4,19.3 L86.9,18.5 C68.4,14.2 53.2,5.3 47.6,1.6 L45.2,0 L45.2,0 Z" id="Shape"></path>
            <path d="M80.4,27.1 C64.8,22.8 51.8,15.8 45.4,11.9 C45.3,11.8 45.1,11.8 45,11.9 C38.6,15.7 25.7,22.8 10,27.1 C9.8,27.2 9.7,27.3 9.7,27.5 C10.2,52.2 13.2,74.7 44.9,98.8 C45,98.9 45.1,98.9 45.2,98.9 C45.3,98.9 45.4,98.9 45.5,98.8 C77.3,74.7 80.3,52.3 80.7,27.5 C80.7,27.3 80.6,27.1 80.4,27.1 Z M45.3,69.5 L45.3,69.5 L41.5,74.1 L21,57.3 L24.8,52.7 L40.7,65.7 L64.7,36.4 L69.3,40.2 L45.3,69.5 Z" id="Shape"></path>
        </g>
    </g>
</svg>