<svg id="Layer_1" data-name="Layer 1" xmlns="http://www.w3.org/2000/svg" viewBox="0 0 110 110"><defs><style>.cls-1{fill:#0a4ca4;}</style></defs><title>Solutions</title><g id="Group"><g id="Group-3"><polyline id="Path" class="cls-1" points="16.2 78.03 16.2 109.73 -0.5 109.73 -0.5 78.03"/><path id="Path-2" data-name="Path" class="cls-1" d="M31.55,73.27a3.44,3.44,0,0,1,3.24-.09L59.3,85.4a2.74,2.74,0,0,1,1.26,3.5l-.45,1.17h0A2.35,2.35,0,0,1,57,91.68L39.1,84.59A1.58,1.58,0,0,0,37,85.67,2,2,0,0,0,38,88l18,7.09a4.65,4.65,0,0,0,1.88.36,5.71,5.71,0,0,0,5-3.23L94.23,83.6a3.34,3.34,0,0,1,2.78.45,3.79,3.79,0,0,1,1.62,2.51,4.11,4.11,0,0,1-2.24,4.58L52.3,109.73a3.07,3.07,0,0,1-2.52,0L20.87,98.42v-19Z"/></g><g id="Group-2" data-name="Group"><path id="Shape" class="cls-1" d="M67.74,0a1.5,1.5,0,0,0-1.5,1.49v6a1.5,1.5,0,0,0,3,0v-6A1.5,1.5,0,0,0,67.74,0ZM46.58,8.75a1.44,1.44,0,0,0-1,.45,1.47,1.47,0,0,0,0,2.1l4.23,4.22a1.48,1.48,0,0,0,2.1,0,1.47,1.47,0,0,0,0-2.1L47.63,9.2A1.46,1.46,0,0,0,46.58,8.75Zm42.32,0a1.46,1.46,0,0,0-1.05.45l-4.23,4.22a1.47,1.47,0,0,0,0,2.1,1.48,1.48,0,0,0,2.1,0L90,11.3A1.5,1.5,0,0,0,88.9,8.75ZM67.74,13.44c-9.12,0-18,7.07-18,17.06,0,13,9.73,15.69,9.73,24.77H76c0-9.08,9.73-11.8,9.73-24.77,0-10-8.83-17.06-18-17.06ZM63.13,18h.14a1.49,1.49,0,0,1,.52,2.89,11.25,11.25,0,0,0-7.09,8.52,1.49,1.49,0,1,1-2.94-.53,14.14,14.14,0,0,1,9-10.76,1.66,1.66,0,0,1,.42-.12ZM37.81,29.87a1.5,1.5,0,1,0,0,3h6a1.5,1.5,0,0,0,0-3Zm53.88,0a1.5,1.5,0,1,0,0,3h6a1.5,1.5,0,1,0,0-3ZM59.51,58.25v3H76v-3Zm0,6a3,3,0,0,0,3,3H73a3,3,0,0,0,3-3Zm5.24,4.48a3,3,0,0,0,6,0Z"/></g></g></svg>