<?xml version="1.0" encoding="utf-8"?>
<!-- Generator: Adobe Illustrator 25.0.1, SVG Export Plug-In . SVG Version: 6.00 Build 0)  -->
<svg version="1.1" id="Layer_1" xmlns="http://www.w3.org/2000/svg" xmlns:xlink="http://www.w3.org/1999/xlink" x="0px" y="0px"
	 viewBox="0 0 110 110" style="enable-background:new 0 0 110 110;" xml:space="preserve">
<style type="text/css">
	.st0{fill:#0a4ca4;}
</style>
<g id="Page-1">
	<g id="Desktop-HD" transform="translate(-85.000000, -933.000000)">
		<g id="strategy" transform="translate(85.000000, 933.000000)">
			<g id="Group" transform="translate(0.000000, 0.000000)">
				<g transform="translate(-0.000000, 0.000000)">
					<path id="Path" class="st0" d="M67.5,45.9l0.2-0.1h-6v8h1.5c2.7,0,4.9,2.2,4.9,4.9v0.4c0,2.7-2.2,4.9-4.9,4.9
						c-2.7,0-4.9-2.2-4.9-4.9v-1.9H56v1.9c0,2.7-2.2,4.9-4.9,4.9c-3.2,0-4.9-2.6-4.9-5.1c0-1.3,0.4-2.5,1.2-3.4
						c0.9-1.1,2.2-1.7,3.7-1.7h1.5v-8h-4.8l0.2,0.1c-3.9,6.7-8.1,12.7-7.3,21c0.7,7.4,6.8,15.2,16.6,15.2h0.4c0,0,0,0,0.1,0
						c10,0,17.1-7.7,17.1-16.9C74.8,57.7,71,51.9,67.5,45.9z"/>
					<rect id="Rectangle" x="56" y="45.8" class="st0" width="2.3" height="8"/>
					<path id="Path_1_" class="st0" d="M49.6,58.9c0,0.3,0.1,1.7,1.5,1.7c0.8,0,1.5-0.7,1.5-1.5v-1.9h-1.5
						C49.6,57.3,49.6,58.7,49.6,58.9z"/>
					<path id="Path_2_" class="st0" d="M64.7,59.1v-0.4c0-0.8-0.7-1.5-1.5-1.5h-1.5v1.9c0,0.8,0.7,1.5,1.5,1.5
						C64,60.6,64.7,59.9,64.7,59.1z"/>
					<path id="Shape" class="st0" d="M58.2,0c-21.5,0-40,17.2-42.2,39.3l-6,21.4c-0.3,1.2-0.6,2.5-0.8,3.7c1.2,0,2.3,0,3.5,0.1h3.1
						v17.8c0,4.4,3.5,8.1,7.8,8.1h19.8L41.2,110h40.3l-0.2-2.8c-1.1-12.4,2.7-25.2,10.6-36C113.1,42.5,93.6,0,58.2,0z M81,45.8h-9.5
						c0,0,0,0,0,0c3,5.1,6.8,11.4,6.8,19.3c0,11-8.6,20.4-20.6,20.4c0,0-0.1,0-0.1,0h-0.4c-10.4,0-19-7.9-20-18.3
						c-0.9-8.9,3.4-15.9,6.5-21.1c0.1-0.1,0.1-0.2,0.2-0.4H32.3c-4.9,0-8.9-4-8.9-8.9c0-3.7,2.3-6.9,5.6-8.2
						c-1.1-6.1,4.1-11.3,10.1-10.5c1.3-5.6,7.4-8.8,12.8-6.6c4.6-6.5,14.3-5.9,18.2,0.9c7.4-1.8,14.7,3.8,14.7,11.5
						c0,0.2,0,0.4,0,0.5c4.2,1.6,7.1,5.6,7.1,10.2C91.9,40.9,87,45.8,81,45.8z"/>
					<path id="Path_3_" class="st0" d="M82.7,27.7c-0.7,0-3.6,0.5-6.2,4.5c-0.5,0.8-1.6,1-2.4,0.5c-0.8-0.5-1-1.6-0.5-2.4
						c2.7-4.1,5.8-5.4,7.7-5.9c0-0.1,0-0.2,0-0.3c0-5.4-5-9.5-10.5-8.2c-0.2,1.6-1,4-4.1,6.3c-0.8,0.6-1.8,0.4-2.4-0.3
						c-0.6-0.8-0.4-1.8,0.3-2.4c2.7-2,2.8-3.9,2.8-4.4C65.2,9.4,57.1,9,54.2,14.6c-0.2,0.7-0.6,3.5,1.3,4.2c0.9,0.3,1.4,1.3,1,2.2
						c-0.3,0.9-1.3,1.4-2.2,1c-3.4-1.2-4-4.7-3.7-7.2c-4-1.7-8.3,1.3-8.3,5.5c0.1,0.6,0.7,3.8,3.1,4.4h3.7c3.4,0,6.2,2.3,7,5.5h9.7
						v-2.7c0-1,0.8-1.7,1.7-1.7c1,0,1.7,0.8,1.7,1.7V32c0,1.8,1.5,3.2,3.2,3.2h16c0-0.1,0-0.2,0-0.3C88.4,31.5,86,28.4,82.7,27.7z"
						/>
					<path id="Path_4_" class="st0" d="M66,33.7H54.6c-1,0-1.7-0.8-1.7-1.7c0-2.1-1.7-3.8-3.8-3.8c-4.1,0-4,0-4.3,0
						c-3.8-0.8-5.2-4.5-5.7-6.4c-4-0.9-7.6,2.6-6.6,6.6c1.8,0.5,5.4,1.8,7.6,5.7c0.5,0.8,0.2,1.9-0.6,2.3c-0.8,0.5-1.9,0.2-2.3-0.6
						c-1.8-3.2-4.9-4-5.8-4.1c-2.5,0.5-4.3,2.7-4.3,5.3c0,3,2.4,5.4,5.4,5.4h13.3v-0.8c0-1,0.8-1.7,1.7-1.7c1,0,1.7,0.8,1.7,1.7v0.8
						h6.6c-0.7-2.1-2.7-3.7-5.1-3.7h-6.8c-1,0-1.7-0.8-1.7-1.7s0.8-1.7,1.7-1.7h1.8v-2c0-1,0.8-1.7,1.7-1.7c1,0,1.7,0.8,1.7,1.7v2
						h1.5c4.3,0,7.9,3.1,8.7,7.2h7.1v-1.3c0-1,0.8-1.7,1.7-1.7c1,0,1.7,0.8,1.7,1.7v1.3H81c2.7,0,5.1-1.5,6.4-3.7H72.4
						C69.4,38.7,66.7,36.6,66,33.7z"/>
				</g>
			</g>
		</g>
	</g>
</g>
</svg>
