<?xml version="1.0" encoding="utf-8"?>
<!-- Generator: Adobe Illustrator 25.0.1, SVG Export Plug-In . SVG Version: 6.00 Build 0)  -->
<svg version="1.1" id="Layer_1" xmlns="http://www.w3.org/2000/svg" xmlns:xlink="http://www.w3.org/1999/xlink" x="0px" y="0px"
	 viewBox="0 0 110 110" style="enable-background:new 0 0 110 110;" xml:space="preserve">
<style type="text/css">
	.st0{fill:#0a4ca4;}
</style>
<g id="Page-1">
	<g id="Desktop-HD" transform="translate(-280.000000, -3756.000000)">
		<g id="track-product" transform="translate(280.000000, 3756.000000)">
			<g>
				<path class="st0" d="M76.2,38.2C76.2,17.1,59,0.1,38,0.1c-10.1,0-19.8,4-26.9,11.2c-14.7,15.1-14.5,39.2,0.6,54
					c13.5,13.2,34.5,14.6,49.6,3.3l5.9,5.9L66,75.5c-0.8,0.8-0.8,2.1,0,2.9c0,0,0,0,0,0l31,30.9c0.8,0.8,2.1,0.8,2.9,0c0,0,0,0,0,0
					l9.3-9.3c0.8-0.8,0.8-2.1,0-2.9c0,0,0,0,0,0L78.3,66.2c-0.8-0.8-2.1-0.8-2.9,0c0,0,0,0,0,0l-1.1,1.1l-5.9-5.9
					C73.5,54.7,76.3,46.6,76.2,38.2z M18.3,58c-11-11-11-28.7,0-39.7s28.7-11,39.7,0c11,11,11,28.7,0,39.7C47,69,29.3,69,18.3,58z"
					/>
				<g transform="translate(240.06785,-307.95667)">
					<path class="st0" d="M-199.1,327.8l-6.9,3.4l18.1,9l6.9-3.4L-199.1,327.8z M-206.2,331.3l-3.4,1.7l18.1,9l3.4-1.7L-206.2,331.3
						z M-209.9,333.1l-7.3,3.6l-0.1-0.1v0.1h0.1l18.1,9l7.3-3.6L-209.9,333.1z M-180.7,337.1l-7.1,3.6v5.9l-1.1-0.2l-1.6,1.5
						l-1.3-0.4l0-4.8l-7,3.5v18l-0.1,0l18.2-9V337.1z M-217.4,337.2v18l18.1,9l0.1,0v-18l-18-9H-217.4z M-188.1,340.9l-3.5,1.7v4.6
						l1.1,0.3l1.5-1.4l1,0.2V340.9z M-209.4,350.2c0.1,0,0.2,0,0.2,0.1l6.1,3.1c0.1,0,0.2,0.1,0.2,0.2c0.1,0.1,0.1,0.2,0.2,0.3
						c0.1,0.1,0.1,0.2,0.1,0.3c0,0.1,0.1,0.2,0.1,0.3v4.1c0,0.1,0,0.2,0,0.3s-0.1,0.1-0.1,0.2c-0.1,0-0.1,0.1-0.2,0.1
						c-0.1,0-0.2,0-0.2-0.1l-6.1-3.1c-0.1,0-0.2-0.1-0.2-0.2s-0.1-0.2-0.2-0.3c-0.1-0.1-0.1-0.2-0.1-0.3c0-0.1,0-0.2,0-0.3v-4.1
						c0-0.1,0-0.2,0-0.3c0-0.1,0.1-0.1,0.1-0.2S-209.5,350.2-209.4,350.2z M-208.4,351.8C-208.4,351.8-208.4,351.8-208.4,351.8
						c-0.1,0.1-0.2,0.1-0.2,0.1c0,0,0,0.1,0,0.1c0,0.1,0,0.1,0,0.2c0,0.1,0,0.1,0.1,0.2c0,0.1,0.1,0.1,0.1,0.1s0.1,0.1,0.1,0.1
						l4.5,2.3c0,0,0.1,0,0.1,0c0,0,0.1,0,0.1,0c0,0,0.1-0.1,0.1-0.1c0,0,0-0.1,0-0.2c0-0.1,0-0.1,0-0.2c0-0.1,0-0.1-0.1-0.2
						s-0.1-0.1-0.1-0.1c0,0-0.1-0.1-0.1-0.1l-4.5-2.3C-208.3,351.8-208.3,351.8-208.4,351.8z M-208.4,353.5
						C-208.4,353.5-208.4,353.5-208.4,353.5c-0.1,0.1-0.2,0.1-0.2,0.1c0,0,0,0.1,0,0.1s0,0.1,0,0.2c0,0.1,0,0.1,0.1,0.2
						c0,0.1,0.1,0.1,0.1,0.1c0,0,0.1,0.1,0.1,0.1l3.9,2c0,0,0.1,0,0.1,0c0,0,0.1,0,0.1,0c0,0,0.1-0.1,0.1-0.1c0,0,0-0.1,0-0.1
						s0-0.1,0-0.2c0-0.1,0-0.1-0.1-0.2s-0.1-0.1-0.1-0.1c0,0-0.1-0.1-0.1-0.1l-3.9-2C-208.3,353.5-208.3,353.5-208.4,353.5z"/>
				</g>
			</g>
		</g>
	</g>
</g>
</svg>
