<?xml version="1.0" encoding="UTF-8"?>
<svg width="110px" height="110px" viewBox="0 0 110 110" version="1.1" xmlns="http://www.w3.org/2000/svg" xmlns:xlink="http://www.w3.org/1999/xlink">
    <title>Vision@svg</title>
    <g id="Vision" stroke="none" stroke-width="1" fill="none" fill-rule="evenodd">
        <g id="Group-3" transform="translate(20.000000, 7.000000)" fill="#174489">
            <path d="M62.5016315,54.6232197 L58.3400373,56.84959 L49.3033106,41.2772982 L66.7144979,28.3659905 C66.4624096,37.373975 65.6975991,46.0457488 62.5016315,54.6232197 L62.5016315,54.6232197 Z M44.2743615,59.8385844 C42.4712888,56.3698748 39.8264974,53.3644799 36.5664395,51.0766077 C34.7633668,52.0278377 32.92184,52.9052654 31.0461317,53.7047907 C30.94786,53.745792 30.8495883,53.778593 30.7470439,53.8072939 L38.3951483,45.8202417 C38.7668718,45.4266293 39.2881392,45.197022 39.8435881,45.1846992 L39.8435881,45.1846992 C39.8606789,45.1846992 39.8777696,45.1846992 39.8948604,45.1846992 C43.009647,45.1806215 46.0987975,45.7382391 49.0042227,46.8329737 L54.2083518,55.7917566 C51.217473,57.7844195 47.8377799,59.1579629 44.2743615,59.8385844 L44.2743615,59.8385844 Z M42.6379235,63.9551144 C40.0187682,66.8457057 36.8398913,69.2278809 33.2850182,70.9622356 C32.597116,71.2984463 31.7682153,71.2328442 31.1444035,70.7900302 L17.074455,60.7980147 L23.0348492,51.8064307 C25.9103656,51.1217091 28.7944273,50.4738886 31.6870344,49.8629694 L27.8288007,53.8974968 C27.4442591,54.3034096 27.4741679,54.9307294 27.8928909,55.299741 C27.9655266,55.361243 28.0467076,55.4104445 28.1321612,55.4514458 C29.3071494,56.0172637 30.6872263,56.0500647 31.8921232,55.5375486 C33.4046533,54.8938282 34.89582,54.2009063 36.3613507,53.4587829 C39.236867,55.7261545 41.5013895,58.6167458 42.9711928,61.8968494 C43.2830988,62.5856711 43.1549183,63.3892965 42.6379235,63.9551144 L42.6379235,63.9551144 Z M10.9175173,60.1460941 C6.22611029,50.8347 4.87594214,41.4946051 4.42303763,31.7854985 L4.431583,30.9326716 L23.22712,45.9268451 L12.976951,61.4007337 L10.9175173,60.1460941 Z M70.6795487,23.1547259 C63.129716,21.1825637 56.2122406,18.5789814 50.3458455,16 C48.025778,21.7155805 42.2533819,25.7870091 35.4939958,25.7870091 C28.7388824,25.7870091 22.9622136,21.7155805 20.6421462,16 C14.775751,18.5789814 7.85827558,21.1825637 0.308442925,23.1547259 C0.128990196,23.2121278 -0.0120083768,23.3761329 0.000809675272,23.568839 C0.0392638314,25.5041001 0.103354092,27.4270609 0.180262404,29.3336211 C0.688711802,40.3670695 2.23115073,50.9741044 7.5591877,61.5565386 C12.6052275,71.5936556 21.0565965,81.5897713 35.2419075,91.9220975 C35.3102704,91.9712991 35.3999968,92 35.5025412,92 C35.5879949,92 35.6819939,91.9712991 35.7589022,91.9220975 C52.9051832,79.4413034 61.6641854,67.4320242 66.1718671,55.2833405 C69.7993758,45.5373328 70.6710033,35.6847216 70.9572732,25.4507984 C70.9700912,24.8234786 70.9914546,24.1920587 71,23.568839 C71,23.3761329 70.8718195,23.2121278 70.6795487,23.1547259 L70.6795487,23.1547259 Z" id="Fill-29"></path>
            <path d="M41.3563672,12.8006317 L37.8031589,12.8006317 L37.8031589,16.3614291 L33.2092794,16.3614291 L33.2092794,12.8006317 L29.6560711,12.8006317 L29.6560711,8.19522306 L33.2092794,8.19522306 L33.2092794,4.63442558 L37.8031589,4.63442558 L37.8031589,8.19522306 L41.3563672,8.19522306 L41.3563672,12.8006317 Z M35.4979269,0 C29.7058243,0 25,4.70904066 25,10.5 C25,16.2909593 29.7058243,21 35.4979269,21 C41.2900296,21 46,16.2909593 46,10.5 C46,4.70904066 41.2900296,0 35.4979269,0 L35.4979269,0 Z" id="Fill-31"></path>
        </g>
    </g>
</svg>