<?xml version="1.0" encoding="iso-8859-1"?>
<!-- Generator: Adobe Illustrator 16.0.0, SVG Export Plug-In . SVG Version: 6.00 Build 0)  -->
<!DOCTYPE svg PUBLIC "-//W3C//DTD SVG 1.1//EN" "http://www.w3.org/Graphics/SVG/1.1/DTD/svg11.dtd">
<svg version="1.1" id="Capa_1" xmlns="http://www.w3.org/2000/svg" xmlns:xlink="http://www.w3.org/1999/xlink" x="0px" y="0px"
	 viewBox="0 0 244 245" style="enable-background:new 0 0 512 512;" xml:space="preserve">
<defs><style>.cls-1{fill:#e60023;}.cls-2{fill:#fff;}</style></defs><path class="cls-1" d="M123,3A122,122,0,0,0,79,239c-1-10-2-24,0-35l14-61a44,44,0,0,1-4-18c0-17,10-30,22-30s15,8,15,17-7,26-10,41,6,22,18,22,38-23,38-56-21-50-51-50S67,96,67,123c0,10,4,22,9,28a4,4,0,0,1,1,3l-3,14c-1,2-2,3-4,2-15-7-25-29-25-47,0-38,28-74,81-74s75,30,75,70-27,76-63,76c-12,0-24-6-28-14l-8,29c-3,11-10,24-15,32A122,122,0,1,0,123,3Z" transform="translate(-1 -3)"/>
</svg>
