<?xml version="1.0" encoding="utf-8"?>
<!-- Generator: Adobe Illustrator 23.0.1, SVG Export Plug-In . SVG Version: 6.00 Build 0)  -->
<svg version="1.1" id="Layer_1" xmlns="http://www.w3.org/2000/svg" xmlns:xlink="http://www.w3.org/1999/xlink" x="0px" y="0px"
	 viewBox="0 0 144 144" style="enable-background:new 0 0 144 144;" xml:space="preserve">
<style type="text/css">
	.st0{fill:#37465D;}
	.st1{fill:#FAFAFB;}
</style>
<g>
	<g>
		<path class="st0" d="M72.11,0C112,0.03,144.07,32.26,144,72.23c-0.07,39.85-32.35,71.87-72.36,71.77C32.02,143.9,0,111.72,0,72.02
			C-0.01,32.1,32.17-0.03,72.11,0z M93.67,67.15c0-5.68,0-10.73,0-16.41c-5.04,0-9.77,0-15.18,0c0-7.18,0-13.75,0-20.29
			c-5.44,0-10.18,0-15.34,0c-0.92,10.89-5.35,19.16-15.9,22.22c0,5.25,0,9.69,0,14.42c3.01,0.22,5.78,0.43,9.12,0.67
			c0,2.28-0.04,4.41,0.01,6.53c0.18,7.32-0.15,14.71,0.74,21.94c1.01,8.25,5.96,14.2,14.05,16.53c9.1,2.62,18.01,2.24,26.2-4.28
			c-1.66-4.74-3.21-9.19-4.8-13.75c-2.82,0.52-5.07,1.11-7.35,1.32c-3.54,0.32-6.1-1.46-6.23-4.96c-0.3-7.77-0.09-15.55-0.09-23.94
			C84,67.15,88.73,67.15,93.67,67.15z"/>
		<path class="st1" d="M93.67,67.15c-4.94,0-9.67,0-14.79,0c0,8.39-0.2,16.17,0.09,23.94c0.13,3.5,2.69,5.27,6.23,4.96
			c2.28-0.21,4.53-0.8,7.35-1.32c1.59,4.55,3.15,9.01,4.8,13.75c-8.19,6.53-17.1,6.9-26.2,4.28c-8.08-2.33-13.04-8.28-14.05-16.53
			c-0.89-7.24-0.56-14.62-0.74-21.94c-0.05-2.12-0.01-4.25-0.01-6.53c-3.34-0.25-6.1-0.45-9.12-0.67c0-4.73,0-9.17,0-14.42
			c10.56-3.06,14.98-11.32,15.9-22.22c5.16,0,9.9,0,15.34,0c0,6.54,0,13.11,0,20.29c5.4,0,10.14,0,15.18,0
			C93.67,56.42,93.67,61.47,93.67,67.15z"/>
	</g>
</g>
</svg>
